<svg width="56" height="51" fill="none" xmlns="http://www.w3.org/2000/svg"><path d="M50.393 0H13.73a.827.827 0 0 0 0 1.654h36.663a3.649 3.649 0 0 1 3.645 3.644v29.433a3.648 3.648 0 0 1-3.645 3.645H5.298a3.648 3.648 0 0 1-3.644-3.645V5.298a3.649 3.649 0 0 1 3.644-3.644h5.124a.827.827 0 1 0 0-1.654H5.298A5.304 5.304 0 0 0 0 5.298v29.433a5.304 5.304 0 0 0 5.298 5.299h13.3l-1.62 5.294h-3.037a2.815 2.815 0 0 0-2.812 2.811 2.815 2.815 0 0 0 2.812 2.812h27.81a2.815 2.815 0 0 0 2.812-2.812 2.815 2.815 0 0 0-2.813-2.811h-3.037l-1.62-5.294h13.3a5.304 5.304 0 0 0 5.299-5.299V5.298A5.304 5.304 0 0 0 50.392 0zm-7.485 48.136a1.16 1.16 0 0 1-1.157 1.158H13.94a1.159 1.159 0 0 1 0-2.316h27.81c.638 0 1.157.52 1.157 1.158zm-5.925-2.813H18.71l1.62-5.293h15.035l1.62 5.294z" fill="#000000"/><path d="M50.454 26.925c.457 0 .827-.37.827-.828V5.3a.889.889 0 0 0-.888-.888H5.298a.888.888 0 0 0-.886.888v26.957c0 .456.37.827.826.827h45.216c.457 0 .827-.37.827-.827v-2.85a.827.827 0 1 0-1.654 0v2.023H6.066V6.064h43.56v20.032c0 .457.37.828.828.828zm-21.921 8.197a.834.834 0 0 0-.85-.352.834.834 0 0 0-.66.73c-.071.749.853 1.199 1.396.678a.836.836 0 0 0 .114-1.056z" fill="#000000"/></svg>