<svg width="62" height="45" fill="none" xmlns="http://www.w3.org/2000/svg"><path d="M39.181 7.962a1.016 1.016 0 0 0-1.436 0l-9.032 9.031-4.698-4.698a1.016 1.016 0 0 0-1.437 1.436l5.417 5.417a1.012 1.012 0 0 0 1.436 0l9.75-9.75a1.016 1.016 0 0 0 0-1.436z" fill="#000000"/><path fill-rule="evenodd" clip-rule="evenodd" d="M45.892 14.074h3.79c6.324 0 11.469 5.144 11.469 11.468 0 .532-.057 1.402-.146 2.435v.01c-.31 3.584-1 9.126-1.038 9.426 0 .008-.002.015-.003.023l-.003.013-.001.01-.006.03-.011.044-.003.014-.003.009a.35.35 0 0 1-.004.014c-.006.02-.013.038-.02.056l-.004.01-.005.012a.844.844 0 0 1-.036.076l-.003.004a.89.89 0 0 1-.04.066l-.012.017-.037.05-.007.008-.011.013-.017.019a.513.513 0 0 1-.019.02l-.017.016-.007.007a.945.945 0 0 1-.023.022l-.012.01-.02.017-.009.006-.002.002-.033.024-.01.007-.008.006-.015.009a1.328 1.328 0 0 1-.036.022l-.017.01-.018.009a1.05 1.05 0 0 1-.038.018l-.036.016a.57.57 0 0 1-.02.008l-.023.008-.006.002-.014.004a.833.833 0 0 1-.066.018l-.014.004-.014.003a.855.855 0 0 1-.032.006l-.014.002-.022.002-.016.002a.894.894 0 0 1-.087.005h-3.93c-.433 3.288-3.252 5.834-6.656 5.834-3.405 0-6.223-2.546-6.657-5.834H27.7c-.433 3.288-3.252 5.834-6.656 5.834-3.405 0-6.223-2.546-6.657-5.834h-3.928a.862.862 0 0 1-.086-.004h-.002a.906.906 0 0 1-.078-.012h-.005l-.005-.002a.922.922 0 0 1-.08-.02H10.2l-.003-.001a.962.962 0 0 1-.067-.025l-.006-.002-.005-.001-.004-.002c-.013-.005-.025-.012-.037-.018l-.01-.005a.873.873 0 0 1-.205-.14l-.01-.008a.387.387 0 0 1-.02-.019l-.002-.003-.002-.002a.882.882 0 0 1-.21-.345l-.002-.006-.001-.004a.253.253 0 0 1-.004-.014l-.002-.008-.003-.013-.003-.01-.01-.04-.002-.01-.001-.01a.857.857 0 0 1-.011-.079v-.01a.492.492 0 0 1-.004-.067v-.002l.001-.033.001-.016v-.014a.997.997 0 0 1 .002-.022v-.007l.912-9.407v-.003l.59-6.083H8.105a.882.882 0 1 1 0-1.764h3.148l1.082-11.173H1.813a.882.882 0 1 1 0-1.765h10.693l.603-6.22V.793l.002-.011.002-.01c.003-.023.005-.045.01-.067L13.124.7l.001-.004a.882.882 0 0 1 .86-.696h10.589a.883.883 0 0 1 0 1.764h-9.785l-.51 5.253h9.119a.882.882 0 1 1 0 1.765h-9.29l-1.082 11.173h5.665a.882.882 0 1 1 0 1.764h-5.836l-.512 5.293h30.652l.443-5.086v-.005l1.756-20.157H28.1A.883.883 0 0 1 28.1 0h18.072l.013.002h.016l.03.001.008.001a.51.51 0 0 1 .032.005l.01.001.012.002.034.005.023.005.013.004.006.001a.816.816 0 0 1 .057.016l.01.004.06.022.009.004a.882.882 0 0 1 .532.808v.007c0 .023 0 .047-.003.07l-1.142 13.116zm3.455 1.764h-3.61l-.46 5.293h3.609l.46-5.293zM16.092 37.305a4.958 4.958 0 0 0 4.952 4.952 4.958 4.958 0 0 0 4.952-4.952 4.958 4.958 0 0 0-4.952-4.953 4.958 4.958 0 0 0-4.952 4.953zm27.462 0a4.958 4.958 0 0 0 4.953 4.952 4.958 4.958 0 0 0 4.952-4.952 4.958 4.958 0 0 0-4.953-4.953 4.958 4.958 0 0 0-4.952 4.953zm11.61-.883h3.148c.186-1.525.6-5.009.857-7.722-2.02-.333-3.21-1.698-4.274-2.921-1.29-1.483-2.51-2.883-5.212-2.883h-4.56l-.441 5.075-.001.004v.002a.5.5 0 0 1-.005.033l-.001.01-.002.014-.002.011a.563.563 0 0 1-.003.018c-.002.014-.006.028-.01.042l-.003.013a.89.89 0 0 1-.014.048l-.006.019-.003.007-.005.016a.458.458 0 0 1-.008.019l-.015.034-.004.009a.65.65 0 0 1-.016.034l-.018.03a.834.834 0 0 1-.025.042l-.01.015-.01.014a.953.953 0 0 1-.028.038l-.01.012-.013.015-.01.012a.711.711 0 0 1-.11.104.846.846 0 0 1-.035.025l-.003.003-.03.02a1.009 1.009 0 0 1-.036.022l-.003.002-.016.009-.016.01a.686.686 0 0 1-.039.018h-.002l-.034.016a.702.702 0 0 1-.04.014l-.004.002-.035.012a.826.826 0 0 1-.047.012l-.005.001-.016.005a.866.866 0 0 1-.081.013l-.01.001-.007.001a.879.879 0 0 1-.087.005H12.17l-.741 7.645h2.957c.434-3.288 3.253-5.834 6.657-5.834s6.223 2.546 6.657 5.834h14.15c.434-3.288 3.252-5.834 6.657-5.834 3.404 0 6.223 2.546 6.657 5.834zm1.061-11.801c.977 1.122 1.784 2.044 3.095 2.311.042-.578.066-1.058.066-1.389 0-4.866-3.6-8.906-8.278-9.598l-.456 5.24c2.86.319 4.352 2.032 5.573 3.436zM17.81 37.304a3.238 3.238 0 0 1 3.234-3.235 3.238 3.238 0 0 1 3.235 3.235 3.238 3.238 0 0 1-3.235 3.234 3.238 3.238 0 0 1-3.234-3.234zm1.764 0c0 .81.66 1.47 1.47 1.47.81 0 1.47-.66 1.47-1.47 0-.811-.66-1.47-1.47-1.47-.81 0-1.47.659-1.47 1.47zm28.933-3.235a3.238 3.238 0 0 0-3.235 3.235 3.238 3.238 0 0 0 3.235 3.234 3.238 3.238 0 0 0 3.234-3.234 3.238 3.238 0 0 0-3.234-3.235zm0 4.705a1.471 1.471 0 1 1 1.47-1.47c0 .81-.66 1.47-1.47 1.47zm-43.538-24.7H9.28a.882.882 0 1 1 0 1.765H4.97a.882.882 0 1 1 0-1.764z" fill="#000000"/></svg>