<svg width="108" height="17" viewBox="0 0 108 17" fill="none" xmlns="http://www.w3.org/2000/svg">
<path d="M10.5156 11.7354C10.5156 13.1318 10.0107 14.2275 9.00098 15.0225C7.99121 15.8174 6.59831 16.2148 4.82227 16.2148C3.04622 16.2148 1.59245 15.9391 0.460938 15.3877V12.96C1.17708 13.2965 1.9362 13.5615 2.73828 13.7549C3.54753 13.9482 4.29948 14.0449 4.99414 14.0449C6.01107 14.0449 6.75944 13.8516 7.23926 13.4648C7.72624 13.0781 7.96973 12.5589 7.96973 11.9072C7.96973 11.32 7.74772 10.8223 7.30371 10.4141C6.8597 10.0059 5.94303 9.52246 4.55371 8.96387C3.12142 8.38379 2.11165 7.72135 1.52441 6.97656C0.937174 6.23177 0.643555 5.33659 0.643555 4.29102C0.643555 2.98047 1.10905 1.94922 2.04004 1.19727C2.97103 0.445312 4.2207 0.0693359 5.78906 0.0693359C7.29297 0.0693359 8.78971 0.398763 10.2793 1.05762L9.46289 3.15234C8.06641 2.5651 6.82031 2.27148 5.72461 2.27148C4.89388 2.27148 4.26367 2.4541 3.83398 2.81934C3.4043 3.17741 3.18945 3.65365 3.18945 4.24805C3.18945 4.65625 3.27539 5.00716 3.44727 5.30078C3.61914 5.58724 3.90202 5.85938 4.2959 6.11719C4.68978 6.375 5.39876 6.71517 6.42285 7.1377C7.57585 7.61751 8.4209 8.0651 8.95801 8.48047C9.49512 8.89583 9.889 9.36491 10.1396 9.8877C10.3903 10.4105 10.5156 11.0264 10.5156 11.7354ZM27.499 8.12598C27.499 10.6826 26.8581 12.6699 25.5762 14.0879C24.3014 15.5059 22.4932 16.2148 20.1514 16.2148C17.7809 16.2148 15.9583 15.513 14.6836 14.1094C13.416 12.6986 12.7822 10.6969 12.7822 8.10449C12.7822 5.51204 13.4196 3.52116 14.6943 2.13184C15.9762 0.742513 17.8024 0.0478516 20.1729 0.0478516C22.5075 0.0478516 24.3122 0.753255 25.5869 2.16406C26.8617 3.57487 27.499 5.56217 27.499 8.12598ZM15.5107 8.12598C15.5107 10.0596 15.901 11.5277 16.6816 12.5303C17.4622 13.5257 18.6188 14.0234 20.1514 14.0234C21.6768 14.0234 22.8262 13.5293 23.5996 12.541C24.3802 11.5527 24.7705 10.0811 24.7705 8.12598C24.7705 6.19954 24.3838 4.73861 23.6104 3.74316C22.8441 2.74772 21.6982 2.25 20.1729 2.25C18.6331 2.25 17.4694 2.74772 16.6816 3.74316C15.901 4.73861 15.5107 6.19954 15.5107 8.12598ZM37.5537 2.27148C36.0785 2.27148 34.9183 2.79427 34.0732 3.83984C33.2282 4.88542 32.8057 6.32845 32.8057 8.16895C32.8057 10.0954 33.2103 11.5527 34.0195 12.541C34.8359 13.5293 36.014 14.0234 37.5537 14.0234C38.2197 14.0234 38.8643 13.959 39.4873 13.8301C40.1104 13.694 40.7585 13.5221 41.4316 13.3145V15.5166C40.1999 15.9821 38.8034 16.2148 37.2422 16.2148C34.9434 16.2148 33.1781 15.5202 31.9463 14.1309C30.7145 12.7344 30.0986 10.7399 30.0986 8.14746C30.0986 6.51465 30.3958 5.08594 30.9902 3.86133C31.5918 2.63672 32.4583 1.69857 33.5898 1.04688C34.7214 0.395182 36.0498 0.0693359 37.5752 0.0693359C39.1794 0.0693359 40.6618 0.405924 42.0225 1.0791L41.0986 3.2168C40.5687 2.96615 40.0065 2.74772 39.4121 2.56152C38.8249 2.36816 38.2054 2.27148 37.5537 2.27148ZM44.8154 16V0.294922H47.3828V16H44.8154ZM60.4238 16H51.54V0.294922H60.4238V2.46484H54.1074V6.74023H60.0264V8.88867H54.1074V13.8193H60.4238V16ZM76.6016 7.99707C76.6016 10.5895 75.8818 12.5732 74.4424 13.9482C73.0029 15.3161 70.9297 16 68.2227 16H63.8291V0.294922H68.6846C71.1839 0.294922 73.1283 0.968099 74.5176 2.31445C75.9069 3.66081 76.6016 5.55501 76.6016 7.99707ZM73.8945 8.08301C73.8945 4.32324 72.1364 2.44336 68.6201 2.44336H66.3965V13.8408H68.2227C72.0039 13.8408 73.8945 11.9215 73.8945 8.08301ZM89.7285 16L88.1602 11.6387H82.1553L80.6191 16H77.9121L83.7881 0.230469H86.5811L92.457 16H89.7285ZM87.4834 9.42578L86.0117 5.15039C85.9043 4.86393 85.7539 4.41276 85.5605 3.79688C85.3743 3.18099 85.2454 2.72982 85.1738 2.44336C84.9805 3.32422 84.6976 4.28743 84.3252 5.33301L82.9072 9.42578H87.4834ZM107.303 7.99707C107.303 10.5895 106.583 12.5732 105.144 13.9482C103.704 15.3161 101.631 16 98.9238 16H94.5303V0.294922H99.3857C101.885 0.294922 103.829 0.968099 105.219 2.31445C106.608 3.66081 107.303 5.55501 107.303 7.99707ZM104.596 8.08301C104.596 4.32324 102.838 2.44336 99.3213 2.44336H97.0977V13.8408H98.9238C102.705 13.8408 104.596 11.9215 104.596 8.08301Z" fill="white"/>
</svg>
