<svg width="117" height="19" viewBox="0 0 117 19" fill="none" xmlns="http://www.w3.org/2000/svg">
<path d="M116.421 8.59239L108.192 0.363813C107.957 0.128927 107.644 0 107.311 0C106.976 0 106.664 0.129113 106.429 0.363813L105.682 1.11107C105.447 1.34559 105.318 1.65883 105.318 1.99282C105.318 2.32662 105.447 2.65042 105.682 2.88494L110.482 7.69582H1.68796C1.00034 7.69582 0.457031 8.23413 0.457031 8.92193V9.97836C0.457031 10.6662 1.00034 11.2587 1.68796 11.2587H110.536L105.682 16.0965C105.447 16.3314 105.318 16.6361 105.318 16.9701C105.318 17.3037 105.447 17.6129 105.682 17.8476L106.429 18.5924C106.664 18.8273 106.977 18.9553 107.311 18.9553C107.645 18.9553 107.958 18.8256 108.193 18.5907L116.421 10.3624C116.656 10.1267 116.786 9.8122 116.785 9.47784C116.786 9.14237 116.656 8.82764 116.421 8.59239Z" fill="white"/>
</svg>
