<svg width="67" height="67" viewBox="0 0 67 67" fill="none" xmlns="http://www.w3.org/2000/svg">
<circle cx="33.5" cy="33.5" r="33.5" fill="#B20421"/>
<g clip-path="url(#clip0)">
<path d="M36.0823 18.6905C35.6726 18.5919 35.2618 18.8436 35.1632 19.2525C35.0647 19.6615 35.3163 20.073 35.7252 20.1715C41.8991 21.6598 46.2109 27.1407 46.2109 33.4999C46.2109 41.0601 40.0603 47.2108 32.5001 47.2108C24.9398 47.2108 18.7892 41.0601 18.7892 33.4999C18.7892 27.1409 23.1008 21.6601 29.2743 20.1716C29.6833 20.073 29.9349 19.6615 29.8363 19.2526C29.7377 18.8436 29.3261 18.5922 28.9173 18.6906C25.6511 19.4781 22.6919 21.3662 20.5849 24.007C18.4135 26.7285 17.2657 30.0111 17.2657 33.4999C17.2657 41.9001 24.0999 48.7342 32.5001 48.7342C40.9003 48.7342 47.7344 41.9002 47.7344 33.4999C47.7344 30.0111 46.5866 26.7284 44.415 24.0068C42.308 21.366 39.3486 19.478 36.0823 18.6905Z" fill="white"/>
<path d="M51.5405 31.6678L50.6494 30.0052L50.798 27.9498C50.9409 26.6324 50.4154 25.3466 49.3904 24.5081L47.9112 23.2968L47.3293 21.544C47.0035 20.2037 45.9856 19.1265 44.6649 18.7276L42.839 18.176L41.4406 16.5596C40.6133 15.5863 39.3609 15.0801 38.0905 15.205L36.1953 15.3938L34.3324 14.4592C33.1843 13.8472 31.8155 13.8467 30.6673 14.4592L29.0048 15.3502L26.9495 15.2015C25.6315 15.0586 24.3461 15.5842 23.5077 16.6091L22.2964 18.0884L20.5436 18.6702C19.2033 18.9961 18.126 20.014 17.7271 21.3346L17.1756 23.1605L15.5592 24.5589C14.5861 25.3863 14.0795 26.6384 14.2045 27.9091L14.3933 29.8042L13.4588 31.6672C12.8467 32.8153 12.8462 34.184 13.4586 35.3323L14.3498 36.9948L14.2011 39.0502C14.0583 40.3677 14.5838 41.6534 15.6087 42.492L17.0879 43.7033L17.6698 45.4561C17.9956 46.7964 19.0134 47.8736 20.3342 48.2725L22.16 48.824L23.5585 50.4405C24.3859 51.4137 25.6377 51.9202 26.9086 51.7951L28.8037 51.6063L30.6665 52.5407C31.2407 52.8469 31.8702 53.0001 32.4997 53.0001C33.1287 53.0001 33.7577 52.8471 34.3317 52.541L35.9943 51.6499L38.0496 51.7986C39.367 51.9412 40.6528 51.4159 41.4915 50.391L42.7027 48.9118L44.4557 48.33C45.7958 48.0041 46.873 46.9863 47.2719 45.6656L47.8235 43.8398L49.44 42.4413C50.4131 41.6139 50.9197 40.3618 50.7947 39.0911L50.6058 37.1961L51.5402 35.3331C52.1523 34.1849 52.153 32.8161 51.5405 31.6678ZM50.1927 34.6222C50.1893 34.6285 50.1861 34.6347 50.1829 34.641L49.145 36.7102C49.0803 36.8391 49.0536 36.9837 49.0679 37.1273L49.2786 39.2411C49.3546 40.014 49.0461 40.7764 48.4482 41.2848L46.6598 42.832C46.5508 42.9264 46.4708 43.0497 46.4291 43.1877L45.8136 45.2249C45.5682 46.0372 44.9017 46.6618 44.074 46.8547C44.0514 46.86 44.029 46.8663 44.007 46.8736L42.0133 47.5353C41.8764 47.5808 41.7552 47.6641 41.6639 47.7757L40.3126 49.426C39.7994 50.0534 39.0109 50.3738 38.2041 50.283C38.1941 50.2818 38.1839 50.2809 38.174 50.2801L35.8841 50.1145C35.7399 50.1042 35.5964 50.1348 35.4693 50.2029L33.6135 51.1976C32.9136 51.5708 32.0777 51.5693 31.3773 51.1932C31.3711 51.1899 31.3648 51.1867 31.3586 51.1835L29.2895 50.1456C29.1831 50.0923 29.0661 50.0647 28.9479 50.0647C28.9228 50.0647 28.8975 50.0659 28.8723 50.0685L26.7586 50.2791C25.9857 50.3554 25.2232 50.0465 24.7148 49.4487L23.1676 47.6604C23.0733 47.5513 22.9499 47.4712 22.8118 47.4296L20.7746 46.8142C19.9622 46.5688 19.3378 45.9023 19.1448 45.0746C19.1396 45.052 19.1333 45.0296 19.126 45.0075L18.4643 43.0138C18.4189 42.8769 18.3355 42.7558 18.2239 42.6644L16.5737 41.3131C15.9463 40.7998 15.6259 40.0116 15.7167 39.2046C15.7179 39.1946 15.7188 39.1845 15.7196 39.1744L15.8852 36.8845C15.8956 36.7406 15.8649 36.5968 15.7968 36.4697L14.8021 34.614C14.4288 33.9141 14.4304 33.0782 14.8063 32.3778C14.8097 32.3717 14.8129 32.3654 14.816 32.3592L15.8539 30.29C15.9186 30.1611 15.9453 30.0164 15.931 29.8729L15.7204 27.759C15.6444 26.9861 15.953 26.2236 16.5508 25.7153L18.3392 24.1681C18.4483 24.0737 18.5282 23.9504 18.57 23.8123L19.1854 21.7751C19.4308 20.9628 20.0974 20.3383 20.9251 20.1453C20.9477 20.14 20.97 20.1337 20.9921 20.1264L22.9857 19.4646C23.1226 19.4192 23.2437 19.3359 23.335 19.2243L24.6865 17.574C25.1997 16.9467 25.9882 16.6265 26.7949 16.7171C26.805 16.7183 26.815 16.7192 26.8251 16.7199L29.1149 16.8855C29.2584 16.8957 29.4026 16.8653 29.5297 16.7972L31.3855 15.8025C32.0853 15.4293 32.9212 15.4308 33.6216 15.8068C33.6277 15.8101 33.634 15.8133 33.6403 15.8165L35.7095 16.8544C35.8384 16.919 35.983 16.9459 36.1265 16.9315L38.2404 16.7208C39.0132 16.6447 39.7758 16.9534 40.2841 17.5513L41.8313 19.3396C41.9256 19.4487 42.049 19.5287 42.1871 19.5704L44.2243 20.1859C45.0366 20.4312 45.6611 21.0979 45.8541 21.9255C45.8594 21.9481 45.8657 21.9704 45.873 21.9925L46.5348 23.9862C46.5802 24.123 46.6635 24.2442 46.7751 24.3355L48.4254 25.6869C49.0528 26.2001 49.3731 26.9882 49.2823 27.7953C49.2811 27.8053 49.2802 27.8154 49.2795 27.8255L49.1139 30.1155C49.1035 30.2593 49.1342 30.4031 49.2022 30.5302L50.1969 32.386C50.5703 33.086 50.5687 33.9219 50.1927 34.6222Z" fill="white"/>
<path d="M29.1942 29.3498C29.0721 29.0924 28.8104 28.9139 28.5065 28.9139H24.4818C24.0611 28.9139 23.7201 29.2549 23.7201 29.6756V41.2054C23.7201 41.6261 24.0611 41.9671 24.4818 41.9671H28.5065C28.8222 41.9671 29.093 41.7751 29.2085 41.5014C29.7891 41.5829 30.3873 41.748 31.0101 41.9205C31.9464 42.1797 32.9145 42.4477 33.9203 42.4477H38.3176C39.677 42.4477 40.7785 41.7271 41.2642 40.5198C41.5008 39.9316 41.5423 39.3212 41.404 38.8102C41.6569 38.5828 41.8706 38.2997 42.0323 37.9692C42.3599 37.2995 42.4253 36.5464 42.2396 35.9121C42.5857 35.5778 42.844 35.1362 42.9789 34.6156C43.1052 34.1288 43.1029 33.6486 42.9907 33.2324C43.6777 32.8283 44.1405 32.094 44.1405 31.2666C44.1405 30.6177 43.8878 30.0197 43.429 29.583C42.9884 29.1636 42.4016 28.9325 41.7766 28.9325L35.5785 28.9327C35.1076 28.342 34.961 27.5404 35.2292 26.8951C35.7794 25.5708 35.7453 24.4498 35.1188 23.2604C34.6537 22.3777 33.4031 21.4988 32.352 21.6489C31.7167 21.7397 31.257 22.1887 31.1221 22.8502C31.0825 23.0448 31.0716 23.255 31.059 23.4985C31.0279 24.099 30.9853 24.9215 30.4668 25.9147C30.1155 26.588 29.9982 27.2805 29.8948 27.8914C29.7466 28.7666 29.6748 29.1883 29.1942 29.3498ZM25.2435 30.4373H27.7448V40.4437H25.2435V30.4373ZM31.3969 28.1457C31.4856 27.6216 31.5773 27.0795 31.8174 26.6197C32.4895 25.3321 32.5464 24.2336 32.5804 23.5773C32.5895 23.4025 32.598 23.2373 32.615 23.1543C32.615 23.1538 32.6152 23.1532 32.6153 23.1526C32.8796 23.1563 33.5299 23.513 33.7709 23.9707C34.1882 24.7625 34.2021 25.3968 33.8224 26.3107C33.48 27.1347 33.5058 28.0909 33.8444 28.9411C33.4739 28.9926 33.1884 29.3099 33.1884 29.6946C33.1884 30.1153 33.5295 30.4564 33.9501 30.4564L41.7766 30.4561C42.0087 30.4561 42.2226 30.5379 42.3786 30.6865C42.4874 30.79 42.617 30.9748 42.617 31.2667C42.617 31.6753 42.2425 32.0285 41.7991 32.0382L39.8385 32.0809C39.418 32.09 39.0844 32.4383 39.0936 32.859C39.1026 33.2739 39.4418 33.6041 39.8548 33.6041C39.8604 33.6041 39.866 33.6041 39.8717 33.604L41.5046 33.5685C41.5578 33.7194 41.5855 34.0072 41.4734 34.337C41.378 34.6175 41.1218 35.0879 40.4774 35.0879C40.0568 35.0879 39.7157 35.4289 39.7157 35.8496C39.7157 36.2703 40.0568 36.6113 40.4774 36.6113C40.5929 36.6113 40.7062 36.6042 40.8171 36.5901C40.8266 36.8056 40.7822 37.0581 40.6639 37.2999C40.5241 37.5857 40.2477 37.9265 39.725 37.9265C39.3043 37.9265 38.9632 38.2675 38.9632 38.6882C38.9632 39.1089 39.3043 39.4499 39.725 39.4499C39.8038 39.4499 39.8818 39.4464 39.9588 39.4395C39.9568 39.5857 39.9271 39.7684 39.844 39.9683C39.7246 40.2558 39.3366 40.9243 38.3178 40.9243H33.9205C33.1216 40.9243 32.2935 40.695 31.4168 40.4523C30.7191 40.2591 30.0038 40.0612 29.2684 39.9729V30.8914C30.9833 30.5807 31.2197 29.1924 31.3969 28.1457Z" fill="white"/>
<path d="M32.5001 19.7891C32.9208 19.7891 33.2618 19.4481 33.2618 19.0274C33.2618 18.6067 32.9208 18.2657 32.5001 18.2657H32.4996C32.0789 18.2657 31.7382 18.6067 31.7382 19.0274C31.7382 19.4481 32.0794 19.7891 32.5001 19.7891Z" fill="white"/>
</g>
<defs>
<clipPath id="clip0">
<rect width="39" height="39" fill="white" transform="translate(13 14)"/>
</clipPath>
</defs>
</svg>
