<svg width="67" height="67" viewBox="0 0 67 67" fill="none" xmlns="http://www.w3.org/2000/svg">
<circle cx="33.5" cy="33.5" r="33.5" fill="#FF1E26"/>
<path d="M44.2494 39.0108C43.3453 39.0108 42.4865 39.3757 41.8385 40.0358C41.1906 40.7037 40.829 41.5735 40.829 42.5054C40.829 43.4373 41.1831 44.307 41.8385 44.9749C42.494 45.635 43.3453 46 44.2494 46C46.1028 46 47.6097 44.4313 47.6097 42.5054C47.6097 40.5795 46.1028 39.0108 44.2494 39.0108ZM44.2494 44.4468C43.2097 44.4468 42.3358 43.5615 42.3358 42.5054C42.3358 41.4492 43.2097 40.5639 44.2494 40.5639C45.2741 40.5639 46.1028 41.4337 46.1028 42.5054C46.1028 43.5771 45.2741 44.4468 44.2494 44.4468ZM45.1234 27.3698C44.9878 27.2378 44.807 27.1679 44.6186 27.1679H40.7536C40.3392 27.1679 40.0002 27.5173 40.0002 27.9444V34.3124C40.0002 34.7395 40.3392 35.089 40.7536 35.089H46.8864C47.3008 35.089 47.6398 34.7395 47.6398 34.3124V30.049C47.6398 29.8315 47.5494 29.6219 47.3912 29.4743L45.1234 27.3698ZM46.133 33.5358H41.507V28.7133H44.3248L46.133 30.3907V33.5358ZM25.8512 39.0108C24.9471 39.0108 24.0882 39.3757 23.4402 40.0358C22.7923 40.7037 22.4307 41.5735 22.4307 42.5054C22.4307 43.4373 22.7848 44.307 23.4402 44.9749C24.0957 45.635 24.9471 46 25.8512 46C27.7045 46 29.2114 44.4313 29.2114 42.5054C29.2114 40.5795 27.7045 39.0108 25.8512 39.0108ZM25.8512 44.4468C24.8114 44.4468 23.9375 43.5615 23.9375 42.5054C23.9375 41.4492 24.8114 40.5639 25.8512 40.5639C26.8758 40.5639 27.7045 41.4337 27.7045 42.5054C27.7045 43.5771 26.8758 44.4468 25.8512 44.4468ZM20.8259 39.966H19.3115V37.9002C19.3115 37.4731 18.9725 37.1237 18.5581 37.1237C18.1438 37.1237 17.8047 37.4731 17.8047 37.9002V40.7425C17.8047 41.1697 18.1438 41.5191 18.5581 41.5191H20.8259C21.2403 41.5191 21.5793 41.1697 21.5793 40.7425C21.5793 40.3154 21.2403 39.966 20.8259 39.966ZM24.6457 35.7336C24.6457 35.3065 24.3067 34.957 23.8923 34.957H14.7534C14.339 34.957 14 35.3065 14 35.7336C14 36.1607 14.339 36.5102 14.7534 36.5102H23.8923C24.3067 36.5102 24.6457 36.1685 24.6457 35.7336ZM16.2828 32.9301L25.4217 32.9845C25.8361 32.9845 26.1751 32.6428 26.1827 32.2157C26.1902 31.7808 25.8512 31.4313 25.4368 31.4313L16.2979 31.3769C16.2904 31.3769 16.2904 31.3769 16.2904 31.3769C15.876 31.3769 15.537 31.7186 15.537 32.1458C15.5294 32.5806 15.8685 32.9301 16.2828 32.9301ZM17.8198 29.4044H26.9587C27.373 29.4044 27.7121 29.055 27.7121 28.6278C27.7121 28.2007 27.373 27.8513 26.9587 27.8513H17.8198C17.4054 27.8513 17.0664 28.2007 17.0664 28.6278C17.0664 29.055 17.4054 29.4044 17.8198 29.4044ZM50.7212 28.356L45.3268 23.7509C45.1912 23.6344 45.0255 23.5723 44.8446 23.5723H38.5009V20.7766C38.5009 20.3495 38.1619 20 37.7475 20H18.5581C18.1438 20 17.8047 20.3495 17.8047 20.7766V26.4612C17.8047 26.8883 18.1438 27.2378 18.5581 27.2378C18.9725 27.2378 19.3115 26.8883 19.3115 26.4612V21.5532H37.0016V39.966H30.8237C30.4093 39.966 30.0703 40.3154 30.0703 40.7425C30.0703 41.1697 30.4093 41.5191 30.8237 41.5191H40.0228C40.4372 41.5191 40.7762 41.1697 40.7762 40.7425C40.7762 40.3154 40.4372 39.966 40.0228 39.966H38.5084V25.1254H44.5809L49.4932 29.319L49.4404 39.9504H48.6569C48.2425 39.9504 47.9035 40.2999 47.9035 40.727C47.9035 41.1541 48.2425 41.5036 48.6569 41.5036H50.1863C50.6007 41.5036 50.9397 41.1619 50.9397 40.7348L51 28.9618C50.9925 28.7288 50.8945 28.5036 50.7212 28.356Z" fill="white"/>
</svg>
