<svg xmlns="http://www.w3.org/2000/svg" xmlns:xlink="http://www.w3.org/1999/xlink"><symbol id="icon" viewBox="0 0 32 32"><g xmlns="http://www.w3.org/2000/svg" display="none"><rect x="-245.495" y="-158.75" display="inline" fill="currentColor" width="394.5" height="196"></rect></g><g xmlns="http://www.w3.org/2000/svg" display="none"><polygon display="inline" fill="currentColor" stroke="currentColor" stroke-miterlimit="10" points="13.609,23.699 7.208,17.675 9.638,15.123    13.324,18.593 22.095,8.279 24.794,10.547  "></polygon><g display="inline"><g><path fill="currentColor" d="M16,1c8.271,0,15,6.729,15,15s-6.729,15-15,15C7.729,31,1,24.271,1,16S7.729,1,16,1 M16,0     C7.163,0,0,7.163,0,16c0,8.837,7.163,16,16,16c8.837,0,16-7.163,16-16C32,7.163,24.837,0,16,0L16,0z"></path></g></g></g><g xmlns="http://www.w3.org/2000/svg"><g><path d="M13.244,17.144L9.6,13.714l-3.811,4l7.899,7.435L26.207,10.43l-4.23-3.556L13.244,17.144z M23.381,10.666L13.529,22.25    l-4.903-4.614l1.051-1.104l3.729,3.51l8.809-10.357L23.381,10.666z" fill="currentColor"></path><path d="M16,0C7.163,0,0,7.163,0,16s7.163,16,16,16s16-7.163,16-16S24.837,0,16,0z M16,30C8.28,30,2,23.72,2,16    C2,8.28,8.28,2,16,2c7.72,0,14,6.28,14,14C30,23.72,23.72,30,16,30z" fill="currentColor"></path></g></g><g xmlns="http://www.w3.org/2000/svg" display="none"><polygon display="inline" fill="currentColor" stroke="currentColor" stroke-width="0.5" stroke-miterlimit="10" points="13.609,23.699    7.208,17.675 9.638,15.123 13.324,18.593 22.095,8.279 24.794,10.547  "></polygon><g display="inline"><g><path fill="currentColor" d="M16,0.5c8.547,0,15.5,6.953,15.5,15.5S24.547,31.5,16,31.5C7.453,31.5,0.5,24.547,0.5,16     S7.453,0.5,16,0.5 M16,0C7.163,0,0,7.163,0,16c0,8.837,7.163,16,16,16c8.837,0,16-7.163,16-16C32,7.163,24.837,0,16,0L16,0z"></path></g></g></g><g xmlns="http://www.w3.org/2000/svg" display="none"><polygon display="inline" points="9.658,15.828 7.916,17.655 13.569,22.975 24.087,10.607 22.154,8.981 13.365,19.317  " fill="currentColor"></polygon><path display="inline" d="M16,0C7.163,0,0,7.163,0,16s7.163,16,16,16s16-7.163,16-16S24.837,0,16,0z M13.649,24.424l-7.15-6.729   l3.12-3.276l3.666,3.45l8.752-10.291l3.465,2.911L13.649,24.424z" fill="currentColor"></path></g></symbol></svg>