<svg width="51" height="45" fill="none" xmlns="http://www.w3.org/2000/svg"><path d="M48.072 18.659h-.736V8.591a4.67 4.67 0 0 0-4.665-4.665H22.443L8.796.027c-.004 0-.008 0-.012-.002L8.772.021 8.747.017 8.71.009 8.675.005A.692.692 0 0 0 8.635 0h-.073c-.01 0-.02 0-.03.002a.659.659 0 0 0-.042.004l-.028.005a.678.678 0 0 0-.043.009l-.026.007a.82.82 0 0 0-.108.04l-.022.01A.652.652 0 0 0 8.222.1l-.02.012a.679.679 0 0 0-.04.026l-.019.015a.715.715 0 0 0-.035.029L8.088.2a.792.792 0 0 0-.03.032l-.02.02a.73.73 0 0 0-.027.033L7.993.31a.677.677 0 0 0-.022.033l-.018.03a.681.681 0 0 0-.018.033L7.92.44a.672.672 0 0 0-.014.033L7.893.51l-.008.023-.002.012-.004.012-.842 3.37H4.665a4.67 4.67 0 0 0-4.664 4.65L0 8.591v25.533a.737.737 0 0 0 1.473 0V11.99a4.647 4.647 0 0 0 3.192 1.268h38.009a3.195 3.195 0 0 1 3.189 3.192v5.156h-8.105a.748.748 0 0 0-.133.013l-.01.001a.763.763 0 0 0-.057.015l-.012.003a.752.752 0 0 0-.05.017l-.018.007-.04.018-.025.013-.03.017-.033.02-.02.015-.038.028-.014.014-.038.034a.143.143 0 0 0-.02.023l-.03.031a.73.73 0 0 0-.043.059l-3.928 5.893a.724.724 0 0 0-.069.13c-.007.016-.012.033-.018.05l-.005.016a.72.72 0 0 0-.014.055l-.004.014a.7.7 0 0 0-.007.05l-.003.021-.002.04-.002.032.002.03c0 .015 0 .029.002.043l.003.02a.727.727 0 0 0 .008.05c0 .005.002.01.003.014a.73.73 0 0 0 .014.055l.005.016.018.051a.737.737 0 0 0 .07.13l3.927 5.892h.001a.767.767 0 0 0 .051.068l.019.02a.69.69 0 0 0 .107.096l.02.015a.758.758 0 0 0 .07.042l.017.009.058.026.023.008a.777.777 0 0 0 .058.018l.023.006a.72.72 0 0 0 .061.011l.022.004a.756.756 0 0 0 .078.004h8.108v5.157a3.195 3.195 0 0 1-3.191 3.192H4.666a3.195 3.195 0 0 1-3.192-3.192v-2.947a.737.737 0 0 0-1.474 0v2.947l.001.023a4.67 4.67 0 0 0 4.665 4.642h38.006a4.67 4.67 0 0 0 4.664-4.664v-5.157h.737a2.212 2.212 0 0 0 2.209-2.21V20.868c0-1.218-.992-2.21-2.21-2.21zM9.123 1.652L22.12 5.367h.002l8.71 2.49H7.573l1.55-6.204zm36.74 11.398a4.646 4.646 0 0 0-3.192-1.267H4.665a3.195 3.195 0 0 1-3.192-3.192A3.195 3.195 0 0 1 4.665 5.4H6.67l-.614 2.456h-1.39a.737.737 0 0 0 0 1.473h37.022a.737.737 0 0 0 0-1.473h-5.494L27.598 5.4h15.073a3.195 3.195 0 0 1 3.192 3.192v4.46zm2.945 19.602c0 .406-.33.736-.736.736h-9.918l-3.437-5.155 3.437-5.156h9.918l.03-.002a2.17 2.17 0 0 0 .706-.126v9.703zm-.736-11.05l-.015.002h-.72v-1.473h.735a.737.737 0 0 1 0 1.472z" fill="#000000"/><path d="M40.706 25.533a2.704 2.704 0 0 0-2.7 2.701c0 1.49 1.211 2.7 2.7 2.7 1.49 0 2.701-1.21 2.701-2.7 0-1.489-1.211-2.7-2.7-2.7zm0 3.929a1.23 1.23 0 0 1 0-2.455 1.229 1.229 0 0 1 0 2.455z" fill="#000000"/></svg>