<svg width="69" height="94" viewBox="0 0 69 94" fill="none" xmlns="http://www.w3.org/2000/svg">
<path d="M27.9652 69.6648C42.7625 75.9054 57.6876 71.8141 61.234 60.5449C61.2344 60.5435 61.2337 60.5424 61.2342 60.541L62.998 54.9361C63.0012 54.9262 63.0052 54.9167 63.0083 54.9068C63.0087 54.9054 63.008 54.9043 63.0085 54.9029L68.33 37.9929C68.6969 36.8272 67.7491 35.3522 66.2184 34.7066L58.8188 31.5859C57.2882 30.9404 55.7431 31.3633 55.3761 32.5297L50.049 49.4573C48.2064 55.2758 40.4939 57.3861 32.8445 54.16C25.1894 50.9316 20.4538 43.5626 22.2882 37.7335L27.6109 20.8199C27.9777 19.6542 27.0299 18.1792 25.4993 17.5337L18.0996 14.4129C16.569 13.7674 15.0237 14.191 14.6569 15.3567L7.55994 37.9084C4.01358 49.1775 13.1678 63.4241 27.9652 69.6648ZM28.4087 68.2552C15.588 62.8482 7.32321 50.9884 8.89772 40.9122C10.3959 49.1023 16.9386 57.4441 26.5705 62.5249L28.4719 65.6395C28.6018 65.8531 28.8201 66.0354 29.0746 66.1428C29.3291 66.2501 29.5964 66.2734 29.8156 66.2062L33.0021 65.2374C43.2 68.5197 52.8448 67.004 58.5425 61.8494C54.1473 70.7361 41.2294 73.6623 28.4087 68.2552ZM16.5471 19.3463L23.9468 22.467C24.4576 22.6824 24.7735 23.1741 24.6513 23.5624L19.3293 40.4739C17.2501 47.0811 22.6169 55.4323 31.2926 59.0912C39.9684 62.7501 48.7181 60.3516 50.7971 53.7452C50.7973 53.7445 50.7969 53.7427 50.7973 53.7413L51.8998 50.2379C51.9014 50.233 51.9036 50.2291 51.9052 50.2242C51.9056 50.2228 51.9049 50.2217 51.9053 50.2203L56.1182 36.8333C56.2404 36.445 56.7555 36.3038 57.2663 36.5192L64.6659 39.64C65.1768 39.8554 65.4927 40.3471 65.3705 40.7354L61.1472 54.1555C58.062 63.8892 45.9244 67.9667 32.8963 63.6385C32.6723 63.564 32.4445 63.555 32.2546 63.6122L29.6177 64.4136L28.0449 61.8368C27.9313 61.6515 27.7517 61.4896 27.539 61.3791C15.1455 54.9844 8.1151 42.8062 11.1851 33.0508L15.399 19.6604C15.5212 19.272 16.0363 19.1308 16.5471 19.3463ZM58.3752 32.9954L65.7749 36.1162C66.2857 36.3316 66.6016 36.8233 66.4792 37.2123L65.995 38.7508C65.7293 38.5493 65.4362 38.3682 65.1095 38.2304L57.7099 35.1097C57.3832 34.9719 57.0582 34.8923 56.7425 34.8494L57.2269 33.3102C57.3491 32.9219 57.8644 32.78 58.3752 32.9954ZM32.4009 55.5695C38.0663 57.9588 43.7502 57.7511 47.6012 55.49C44.5961 59.3301 38.1509 60.3879 31.736 57.6824C25.321 54.9769 20.974 49.3677 20.8068 44.1896C22.499 48.7886 26.7355 53.1802 32.4009 55.5695ZM17.6561 15.8225L25.0557 18.9432C25.5665 19.1586 25.8824 19.6503 25.76 20.0393L25.2759 21.5778C25.0101 21.3764 24.717 21.1953 24.3903 21.0575L16.9907 17.9368C16.664 17.799 16.339 17.7194 16.0236 17.6758L16.5077 16.1373C16.6299 15.7489 17.1452 15.607 17.6561 15.8225Z" fill="white"/>
<path d="M1.24007 40.2764C0.555091 40.2764 3.05176e-05 40.7738 3.05176e-05 41.3873C3.05176e-05 42.0008 0.555381 42.4979 1.24007 42.4979C1.92476 42.4979 2.4804 42.0005 2.4804 41.3873C2.4804 40.774 1.92505 40.2764 1.24007 40.2764Z" fill="white"/>
<path d="M6.80004 13.8321C7.44123 13.8321 7.96004 13.3669 7.96004 12.7931V10.7152C7.96004 10.1415 7.44123 9.67627 6.80004 9.67627C6.15885 9.67627 5.64005 10.1415 5.64005 10.7152V12.7931C5.64005 13.3669 6.15885 13.8321 6.80004 13.8321Z" fill="white"/>
<path d="M7.96004 19.0261V16.9481C7.96004 16.3744 7.44123 15.9092 6.80004 15.9092C6.15885 15.9092 5.64005 16.3744 5.64005 16.9481V19.0261C5.64005 19.5998 6.15885 20.065 6.80004 20.065C7.44123 20.065 7.96004 19.5998 7.96004 19.0261Z" fill="white"/>
<path d="M4.48003 13.832H2.16003C1.51884 13.832 1.00003 14.2972 1.00003 14.871C1.00003 15.4448 1.51884 15.9099 2.16003 15.9099H4.48003C5.12122 15.9099 5.64003 15.4448 5.64003 14.871C5.64003 14.2972 5.12093 13.832 4.48003 13.832Z" fill="white"/>
<path d="M9.12005 15.9099H11.4401C12.0812 15.9099 12.6001 15.4448 12.6001 14.871C12.6001 14.2972 12.0812 13.832 11.4401 13.832H9.12005C8.47886 13.832 7.96005 14.2972 7.96005 14.871C7.96005 15.4448 8.47886 15.9099 9.12005 15.9099Z" fill="white"/>
<path d="M57.06 74.2139C54.8215 74.2139 53 75.8453 53 77.8502C53 79.8551 54.8215 81.4866 57.06 81.4866C59.2985 81.4866 61.12 79.8551 61.12 77.8502C61.12 75.8453 59.2982 74.2139 57.06 74.2139ZM57.06 79.4086C56.1004 79.4086 55.32 78.7097 55.32 77.8502C55.32 76.9907 56.1004 76.2918 57.06 76.2918C58.0196 76.2918 58.8 76.9907 58.8 77.8502C58.8 78.7097 58.0193 79.4086 57.06 79.4086Z" fill="white"/>
<path d="M63.7315 60.876C63.0465 60.876 62.4914 61.3734 62.4914 61.9869C62.4914 62.6004 63.0468 63.0975 63.7315 63.0975C64.4162 63.0975 64.9718 62.6001 64.9718 61.9869C64.9718 61.3736 64.4165 60.876 63.7315 60.876Z" fill="white"/>
</svg>
