<svg width="67" height="67" viewBox="0 0 67 67" fill="none" xmlns="http://www.w3.org/2000/svg">
<circle cx="33.5" cy="33.5" r="33.5" fill="#FF1E26"/>
<path d="M35.7975 31.4688C36.1613 31.4688 36.4566 31.18 36.4566 30.8242C36.4566 30.4685 36.1613 30.1797 35.7975 30.1797C35.433 30.1797 35.1384 30.4685 35.1384 30.8242C35.1384 31.18 35.433 31.4688 35.7975 31.4688Z" fill="white"/>
<path d="M29.2066 31.4688C29.5704 31.4688 29.8657 31.18 29.8657 30.8242C29.8657 30.4685 29.5704 30.1797 29.2066 30.1797C28.842 30.1797 28.5475 30.4685 28.5475 30.8242C28.5475 31.18 28.842 31.4688 29.2066 31.4688Z" fill="white"/>
<path d="M18 46.9408V48.3555C18 48.7115 18.295 49 18.6591 49H46.3409C46.705 49 47 48.7115 47 48.3555V46.9395C47 44.3762 45.5276 42.0073 42.8027 41.0348C43.7874 40.1936 44.386 38.9614 44.386 37.6291C44.386 37.2733 44.091 36.9845 43.7269 36.9845C42.1415 36.9845 40.8053 35.8881 40.4835 34.4336H42.3884C43.4775 34.4336 44.3636 33.5662 44.3636 32.5V29.5352C44.3636 28.6945 43.8124 27.9777 43.0455 27.7121V26.3125C43.0455 20.6263 38.3157 16 32.5021 16C26.675 16 21.9545 20.6117 21.9545 26.3125V27.7131C21.1876 27.9797 20.6364 28.6963 20.6364 29.5352V32.5C20.6364 33.5662 21.5243 34.4336 22.6157 34.4336H24.5165C24.1952 35.8881 22.8603 36.9845 21.2764 36.9845C20.9124 36.9845 20.6173 37.2733 20.6173 37.6291C20.6173 38.9632 21.2174 40.1966 22.2048 41.0383C19.4904 42.0116 18 44.4044 18 46.9408ZM43.0122 38.2197C42.807 39.3006 42.0465 40.218 40.9837 40.6302L36.9908 40.1231L36.5642 38.4926C37.809 37.7648 38.801 36.7363 39.4658 35.529C40.086 36.9344 41.4181 37.9768 43.0122 38.2197ZM37.7846 27.6016C35.9638 27.6016 34.4824 26.1348 34.4824 24.3318C34.4824 23.9758 34.1874 23.6873 33.8233 23.6873C33.4595 23.6873 33.1642 23.9758 33.1642 24.3318C33.1642 26.1348 31.6828 27.6016 29.8616 27.6016H25.9112C25.9112 24.0476 28.8678 21.1562 32.5021 21.1562C36.1433 21.1562 39.093 24.038 39.093 27.6016H37.7846ZM25.9091 28.8906H29.8616C31.5412 28.8906 33.0144 28.0021 33.8233 26.6763C34.6323 28.0021 36.1052 28.8906 37.7846 28.8906H39.0909V31.8555C39.0909 34.2934 37.7102 36.4956 35.4878 37.6026C34.5579 38.0659 33.5533 38.3008 32.5021 38.3008C31.4537 38.3008 30.4522 38.0676 29.5248 37.6079C28.9025 37.2995 28.3359 36.8977 27.8403 36.4128C26.595 35.1957 25.9091 33.5771 25.9091 31.8555V28.8906ZM29.6605 39.0757C30.5629 39.4166 31.5155 39.5898 32.5021 39.5898C33.4925 39.5898 34.4487 39.4151 35.3549 39.0707L35.7733 40.6707C35.5537 42.2664 34.1694 43.457 32.5085 43.457C30.8479 43.457 29.4635 42.2669 29.2434 40.6717L29.6605 39.0757ZM43.0455 32.5C43.0455 32.8555 42.7507 33.1445 42.3884 33.1445H40.4091V28.8906H42.3884C42.7507 28.8906 43.0455 29.1797 43.0455 29.5352V32.5ZM32.5021 17.2891C37.5889 17.2891 41.7273 21.337 41.7273 26.3125V27.6016H40.4111C40.4111 23.3283 36.8745 19.8672 32.5021 19.8672C28.141 19.8672 24.593 23.3368 24.593 27.6016H23.2727V26.3125C23.2727 21.3269 27.4011 17.2891 32.5021 17.2891ZM21.9545 32.5V29.5352C21.9545 29.1804 22.2506 28.8914 22.6157 28.8906H24.5909V33.1445H22.6157C22.2511 33.1445 21.9545 32.8555 21.9545 32.5ZM25.5353 35.5273C25.8965 36.1799 26.3563 36.7851 26.9083 37.3244C27.3727 37.7789 27.8905 38.1716 28.4507 38.4987L28.0262 40.1233L24.0222 40.6314C22.9581 40.219 22.1966 39.3011 21.9911 38.2197C23.5848 37.9765 24.9161 36.9332 25.5353 35.5273ZM23.9524 41.9399L24.025 41.9308C24.0255 41.9305 24.0266 41.9305 24.0271 41.9305L28.0555 41.4195C28.5892 43.3588 30.3878 44.7461 32.5085 44.7461C34.6292 44.7461 36.4275 43.3588 36.961 41.4192C37.1618 41.4449 35.9028 41.285 41.0638 41.9401C43.9532 42.3072 45.6818 44.4248 45.6818 46.9395V47.7109H19.3182V46.9408C19.3182 44.4732 21.0457 42.309 23.9524 41.9399Z" fill="white"/>
<path d="M30.74 35.8989C31.2933 36.154 31.8862 36.2834 32.5018 36.2834C33.1032 36.2834 33.6843 36.1592 34.2296 35.9145C34.5604 35.7662 34.7054 35.3835 34.5535 35.06C34.4018 34.7365 34.0105 34.5945 33.6796 34.743C33.3081 34.9097 32.9119 34.9943 32.502 34.9943C32.0821 34.9943 31.6782 34.9064 31.302 34.733C30.9727 34.5812 30.5801 34.7191 30.4249 35.0411C30.2696 35.3631 30.4107 35.7474 30.74 35.8989Z" fill="white"/>
<path d="M38.4339 46.0352H41.0702C41.4343 46.0352 41.7293 45.7466 41.7293 45.3906C41.7293 45.0346 41.4343 44.7461 41.0702 44.7461H38.4339C38.0698 44.7461 37.7748 45.0346 37.7748 45.3906C37.7748 45.7466 38.0698 46.0352 38.4339 46.0352Z" fill="white"/>
<path d="M43.7045 44.7461C44.0683 44.7461 44.3636 45.0349 44.3636 45.3906C44.3636 45.7464 44.0683 46.0352 43.7045 46.0352C43.3408 46.0352 43.0455 45.7464 43.0455 45.3906C43.0455 45.0349 43.3408 44.7461 43.7045 44.7461Z" fill="white"/>
</svg>
