<svg width="67" height="67" viewBox="0 0 67 67" fill="none" xmlns="http://www.w3.org/2000/svg">
<circle cx="33.5" cy="33.5" r="33.5" fill="#FF1E26"/>
<path d="M44.0797 24.2134H21.9204C21.5163 24.2134 21.1887 24.5441 21.1887 24.9522V36.1111C21.1887 36.5192 21.5163 36.8499 21.9204 36.8499C22.3245 36.8499 22.6521 36.5192 22.6521 36.1111V25.691H43.3479V36.111C43.3479 36.5191 43.6756 36.8499 44.0797 36.8499C44.4838 36.8499 44.8114 36.5191 44.8114 36.111V24.9521C44.8113 24.5441 44.4837 24.2134 44.0797 24.2134Z" fill="white"/>
<path d="M49.3415 38.7493H47.9938V23.2333C47.9938 22.0019 47.0016 21 45.7819 21H20.2181C18.9984 21 18.0063 22.0019 18.0063 23.2333V38.7493H16.6586C16.2948 38.7493 16 39.0469 16 39.4142V40.7196C16 42.5284 17.4574 44 19.2489 44H46.7511C48.5426 44 50 42.5284 50 40.7196V39.4142C50.0001 39.0469 49.7053 38.7493 49.3415 38.7493ZM19.4697 23.2333C19.4697 22.8167 19.8055 22.4776 20.2181 22.4776H45.7818C46.1946 22.4776 46.5303 22.8166 46.5303 23.2333V38.7493H36.6224C36.5758 38.7478 36.5276 38.7518 36.4798 38.7611C36.1698 38.8213 35.9458 39.0953 35.9458 39.414C35.9458 39.9753 35.4936 40.4318 34.9378 40.4318H31.0623C30.5064 40.4318 30.0543 39.9752 30.0543 39.414C30.0543 39.0416 29.7488 38.7412 29.3805 38.7492H19.4697V23.2333ZM48.683 40.7196C48.683 41.7952 47.8163 42.6701 46.7512 42.6701H19.2489C18.1837 42.6701 17.3171 41.7952 17.3171 40.7196V40.0792H28.8322C29.1169 41.0508 30.0089 41.7618 31.0622 41.7618H34.9378C35.9911 41.7618 36.8831 41.0508 37.1679 40.0792H48.683L48.683 40.7196Z" fill="white"/>
<path d="M34.0845 28.508C33.7987 28.2194 33.3355 28.2194 33.0496 28.508L28.4479 33.1546C28.1621 33.4431 28.1621 33.9109 28.4479 34.1995C28.5908 34.3438 28.778 34.4158 28.9652 34.4158C29.1525 34.4158 29.3397 34.3436 29.4826 34.1995L34.0845 29.5529C34.3703 29.2644 34.3703 28.7966 34.0845 28.508Z" fill="white"/>
<path d="M36.8121 31.2006C36.5263 30.9121 36.0631 30.9121 35.7773 31.2006L33.944 33.0516C33.6583 33.3401 33.6583 33.808 33.944 34.0966C34.0869 34.2408 34.2742 34.3129 34.4614 34.3129C34.6487 34.3129 34.8359 34.2408 34.9788 34.0966L36.812 32.2455C37.0978 31.957 37.0978 31.4892 36.8121 31.2006Z" fill="white"/>
</svg>
