<svg width="116" height="116" viewBox="0 0 116 116" fill="none" xmlns="http://www.w3.org/2000/svg">
<circle cx="58" cy="58" r="58" fill="#FF9226"/>
<path d="M85.2483 61.2669L82.7547 58.7725C81.7674 57.7861 80.0467 57.7861 79.0595 58.7725L65.5887 72.2433L63.7323 79.0517L63.2781 79.506C62.9385 79.8456 62.9376 80.3935 63.2728 80.7357L63.2685 80.7532L63.2851 80.7488C63.4549 80.9151 63.6754 81.0009 63.8969 81.0009C64.1209 81.0009 64.345 80.9151 64.5157 80.7444L64.9708 80.2893L71.7784 78.4329L85.2483 64.9622C86.267 63.9425 86.267 62.2857 85.2483 61.2669ZM67.6096 72.6975L76.5747 63.7325L80.2883 67.4461L71.3233 76.4111L67.6096 72.6975ZM66.8202 74.3832L69.6384 77.2015L65.7629 78.2588L66.8202 74.3832ZM84.0107 63.7237L81.5259 66.2085L77.8123 62.4949L80.297 60.0101C80.6226 59.6836 81.1907 59.6836 81.5163 60.0101L84.0107 62.5045C84.3468 62.8397 84.3468 63.3876 84.0107 63.7237Z" fill="white"/>
<path d="M43.1266 61.5083H65.8828C66.3659 61.5083 66.758 61.1171 66.758 60.633C66.758 60.149 66.3659 59.7578 65.8828 59.7578H43.1266C42.6435 59.7578 42.2514 60.149 42.2514 60.633C42.2514 61.1171 42.6435 61.5083 43.1266 61.5083Z" fill="white"/>
<path d="M62.3818 65.0093H43.1266C42.6435 65.0093 42.2514 65.4005 42.2514 65.8845C42.2514 66.3685 42.6435 66.7597 43.1266 66.7597H62.3818C62.865 66.7597 63.2571 66.3685 63.2571 65.8845C63.2571 65.4005 62.8658 65.0093 62.3818 65.0093Z" fill="white"/>
<path d="M43.1266 45.7544H54.5047C54.9878 45.7544 55.3799 45.3631 55.3799 44.8791C55.3799 44.3951 54.9878 44.0039 54.5047 44.0039H43.1266C42.6435 44.0039 42.2514 44.3951 42.2514 44.8791C42.2514 45.3631 42.6435 45.7544 43.1266 45.7544Z" fill="white"/>
<path d="M54.5047 72.0112C54.9878 72.0112 55.3799 71.62 55.3799 71.136C55.3799 70.652 54.9878 70.2607 54.5047 70.2607H43.1266C42.6435 70.2607 42.2514 70.652 42.2514 71.136C42.2514 71.62 42.6435 72.0112 43.1266 72.0112H54.5047Z" fill="white"/>
<path d="M68.5085 49.2554H43.1266C42.6435 49.2554 42.2514 49.6466 42.2514 50.1306C42.2514 50.6146 42.6435 51.0058 43.1266 51.0058H68.5085C68.9916 51.0058 69.3837 50.6146 69.3837 50.1306C69.3837 49.6466 68.9925 49.2554 68.5085 49.2554Z" fill="white"/>
<path d="M43.1266 56.2573H55.3799C55.8631 56.2573 56.2552 55.8661 56.2552 55.3821C56.2552 54.8981 55.8631 54.5068 55.3799 54.5068H43.1266C42.6435 54.5068 42.2514 54.8981 42.2514 55.3821C42.2514 55.8661 42.6435 56.2573 43.1266 56.2573Z" fill="white"/>
<path d="M69.3837 55.3821C69.3837 54.8981 68.9916 54.5068 68.5085 54.5068H62.3818C61.8987 54.5068 61.5066 54.8981 61.5066 55.3821C61.5066 55.8661 61.8987 56.2573 62.3818 56.2573H68.5085C68.9925 56.2573 69.3837 55.8661 69.3837 55.3821Z" fill="white"/>
<path d="M59.5023 56.0023C59.6599 55.8369 59.7561 55.6085 59.7561 55.3809C59.7561 55.1533 59.6599 54.9258 59.5023 54.7595C59.1697 54.4356 58.5833 54.4356 58.2595 54.7595C58.102 54.9258 58.0057 55.1533 58.0057 55.3809C58.0057 55.6181 58.102 55.8369 58.2595 56.0023C58.4258 56.1607 58.6534 56.2561 58.8809 56.2561C59.1085 56.2561 59.3369 56.1607 59.5023 56.0023Z" fill="white"/>
<path d="M58.8809 79.0132H38.7505V37.0019H44.8771V38.7524C44.8771 39.2364 45.2692 39.6276 45.7524 39.6276H65.8828C66.3659 39.6276 66.758 39.2364 66.758 38.7524V37.0019H72.8847V56.2571C72.8847 56.7411 73.2768 57.1323 73.7599 57.1323C74.243 57.1323 74.6351 56.7411 74.6351 56.2571V36.1267C74.6351 35.6426 74.243 35.2514 73.7599 35.2514H66.758V33.5009C66.758 33.0169 66.3659 32.6257 65.8828 32.6257H60.6314V30.8752C60.6314 30.3912 60.2393 30 59.7561 30H51.879C51.3959 30 51.0038 30.3912 51.0038 30.8752V32.6257H45.7524C45.2692 32.6257 44.8771 33.0169 44.8771 33.5009V35.2514H37.8752C37.3921 35.2514 37 35.6426 37 36.1267V79.8885C37 80.3725 37.3921 80.7637 37.8752 80.7637H58.8809C59.364 80.7637 59.7561 80.3725 59.7561 79.8885C59.7561 79.4044 59.3649 79.0132 58.8809 79.0132ZM52.7542 31.7505H58.8809V33.5009V35.2514H52.7542V33.5009V31.7505ZM46.6276 34.3762H51.0038V36.1267C51.0038 36.6107 51.3959 37.0019 51.879 37.0019H59.7561C60.2393 37.0019 60.6314 36.6107 60.6314 36.1267V34.3762H65.0075V36.1267V37.8771H46.6276V36.1267V34.3762Z" fill="white"/>
</svg>
