<svg width="116" height="116" viewBox="0 0 116 116" fill="none" xmlns="http://www.w3.org/2000/svg">
<circle cx="58" cy="58" r="58" fill="#FF9226"/>
<path d="M52.5246 71.8024C52.5114 71.7374 52.4921 71.6734 52.4667 71.6115C52.4413 71.5505 52.4098 71.4916 52.3733 71.4368C52.3367 71.3809 52.2941 71.3291 52.2473 71.2824C52.2006 71.2357 52.1488 71.193 52.093 71.1565C52.0381 71.1199 51.9792 71.0884 51.9173 71.063C51.8563 71.0377 51.7923 71.0173 51.7273 71.0052C51.5963 70.9788 51.4613 70.9788 51.3313 71.0052C51.2663 71.0173 51.2023 71.0377 51.1403 71.063C51.0794 71.0884 51.0205 71.1199 50.9656 71.1565C50.9098 71.193 50.858 71.2357 50.8112 71.2824C50.7645 71.3291 50.7219 71.3809 50.6853 71.4368C50.6477 71.4916 50.6173 71.5505 50.5919 71.6115C50.5665 71.6734 50.5462 71.7374 50.534 71.8024C50.5208 71.8674 50.5137 71.9344 50.5137 72.0005C50.5137 72.0665 50.5208 72.1335 50.534 72.1985C50.5462 72.2635 50.5665 72.3275 50.5919 72.3884C50.6173 72.4504 50.6477 72.5093 50.6853 72.5641C50.7219 72.62 50.7645 72.6718 50.8112 72.7185C50.858 72.7652 50.9098 72.8079 50.9656 72.8444C51.0205 72.8811 51.0794 72.9126 51.1403 72.938C51.2023 72.9634 51.2663 72.9837 51.3313 72.9959C51.3963 73.0091 51.4633 73.0162 51.5293 73.0162C51.5953 73.0162 51.6623 73.0091 51.7273 72.9959C51.7923 72.9837 51.8563 72.9634 51.9173 72.938C51.9792 72.9126 52.0381 72.881 52.093 72.8444C52.1488 72.8079 52.2006 72.7652 52.2473 72.7185C52.2941 72.6718 52.3367 72.62 52.3733 72.5641C52.4098 72.5093 52.4413 72.4504 52.4667 72.3884C52.4921 72.3275 52.5114 72.2635 52.5246 72.1985C52.5378 72.1335 52.5449 72.0665 52.5449 72.0005C52.5449 71.9344 52.5378 71.8674 52.5246 71.8024Z" fill="white"/>
<path d="M81.718 72.1155C81.7141 72.1053 81.71 72.0953 81.7057 72.0853C80.771 69.898 78.5786 69.0895 75.9841 69.9756L68.9085 71.9324C68.4994 70.6935 67.479 69.6393 66.0362 69.1038C66.0272 69.1006 66.0183 69.0973 66.0093 69.0943L58.2315 66.4545C57.5841 65.6177 55.5564 63.4766 51.7596 63.4766C49.1063 63.4766 46.7591 65.2968 45.4163 67.2808H36.0156C35.4547 67.2808 35 67.7355 35 68.2964V81.1011C35 81.662 35.4547 82.1167 36.0156 82.1167H42.0542C42.6152 82.1167 43.0699 81.662 43.0699 81.1011V80.2242H45.9017C46.4626 80.2242 46.9173 79.7695 46.9173 79.2086V78.9163C48.5681 79.0603 49.1111 79.3734 50.6272 80.2477C51.7932 80.92 53.5554 81.9362 56.7288 83.363C56.7435 83.3696 56.7584 83.3759 56.7734 83.3818C57.3824 83.6214 58.5731 83.9978 60.0409 83.9978C61.0627 83.9978 62.219 83.8153 63.4058 83.2773L79.0455 77.6775C79.0733 77.6676 79.1008 77.6564 79.1276 77.644C80.6223 76.9563 82.8497 75.0182 81.718 72.1155ZM41.0386 80.0854H37.0312V69.3119H41.0386V80.0854ZM44.8861 78.1929H43.0699V69.3119H44.8861V78.1929ZM78.316 75.7811L62.6833 81.3783C62.6696 81.3831 62.651 81.3905 62.6375 81.3959C62.6238 81.4015 62.6101 81.4074 62.5966 81.4136C60.4194 82.4142 58.3498 81.8152 57.5387 81.4998C54.4734 80.1205 52.8373 79.1771 51.6419 78.4878C49.98 77.5295 49.1791 77.0676 46.9173 76.8808V68.7007C47.8801 67.1229 49.747 65.5077 51.7597 65.5077C55.2114 65.5077 56.674 67.7528 56.7315 67.8433C56.8555 68.045 57.0462 68.1971 57.2703 68.2732L65.342 71.0127C66.6311 71.4965 67.3124 72.6005 66.9993 73.7015C66.8548 74.2099 66.5208 74.6316 66.0591 74.8888C65.6014 75.1439 65.0723 75.2069 64.5679 75.0674L55.4686 72.1838C54.9336 72.0143 54.363 72.3105 54.1936 72.8452C54.0241 73.3799 54.3202 73.9507 54.855 74.1202L63.9701 77.0087C63.9797 77.0118 63.9894 77.0147 63.9991 77.0175C64.363 77.121 64.7335 77.1722 65.1018 77.1722C65.776 77.1722 66.4427 77.0004 67.0478 76.6632C67.9835 76.1419 68.6601 75.2874 68.9531 74.257C68.9764 74.1747 68.9971 74.0925 69.0151 74.0102L76.6407 71.8977C77.7421 71.5215 79.1878 71.3859 79.8315 72.8685C80.4978 74.6089 78.7661 75.5664 78.316 75.7811Z" fill="white"/>
<path d="M71.467 45.36C71.4538 45.295 71.4345 45.2311 71.4081 45.1691C71.3827 45.1082 71.3523 45.0493 71.3147 44.9944C71.2781 44.9386 71.2355 44.8868 71.1888 44.84C71.142 44.7933 71.0902 44.7507 71.0344 44.7141C70.9795 44.6775 70.9206 44.6461 70.8597 44.6207C70.7977 44.5953 70.7337 44.575 70.6698 44.5628C70.5387 44.5364 70.4037 44.5364 70.2727 44.5628C70.2077 44.575 70.1437 44.5953 70.0827 44.6207C70.0208 44.6461 69.9619 44.6775 69.907 44.7141C69.8512 44.7507 69.7994 44.7933 69.7527 44.84C69.7059 44.8868 69.6633 44.9386 69.6267 44.9944C69.5902 45.0493 69.5587 45.1082 69.5333 45.1691C69.5079 45.2311 69.4876 45.295 69.4754 45.36C69.4622 45.425 69.4551 45.4921 69.4551 45.5581C69.4551 45.6241 69.4622 45.6911 69.4754 45.7561C69.4876 45.8211 69.5079 45.8851 69.5333 45.9461C69.5587 46.008 69.5902 46.0669 69.6267 46.1218C69.6633 46.1776 69.7059 46.2294 69.7527 46.2761C69.7994 46.3229 69.8512 46.3655 69.907 46.4021C69.9619 46.4386 70.0208 46.4701 70.0827 46.4955C70.1437 46.5209 70.2077 46.5402 70.2727 46.5534C70.3377 46.5666 70.4047 46.5737 70.4707 46.5737C70.5367 46.5737 70.6037 46.5666 70.6698 46.5534C70.7337 46.5402 70.7977 46.5209 70.8597 46.4955C70.9206 46.4701 70.9795 46.4386 71.0344 46.4021C71.0902 46.3655 71.142 46.3229 71.1888 46.2761C71.2355 46.2294 71.2781 46.1776 71.3147 46.1218C71.3523 46.0669 71.3827 46.008 71.4081 45.9461C71.4345 45.8851 71.4538 45.8211 71.467 45.7561C71.4802 45.6911 71.4863 45.6241 71.4863 45.5581C71.4863 45.4921 71.4802 45.425 71.467 45.36Z" fill="white"/>
<path d="M85.9844 35.4416H79.9458C79.3848 35.4416 78.9301 35.8963 78.9301 36.4573V37.3342H76.0983C75.5373 37.3342 75.0826 37.7889 75.0826 38.3498V38.6421C73.4318 38.498 72.8889 38.185 71.3729 37.3107C70.2069 36.6384 68.4447 35.6222 65.2712 34.1954C65.2565 34.1887 65.2416 34.1825 65.2265 34.1766C64.1935 33.7701 61.4862 32.9704 58.5946 34.2809L54.5077 35.7442L51.0628 32.2994C50.6662 31.9028 50.0231 31.9028 49.6265 32.2994L38.3167 43.6091C37.9509 43.975 37.8807 44.6095 38.3167 45.0455L57.6427 64.3715C57.952 64.6809 58.6761 64.7744 59.0791 64.3715L69.4045 54.0463C69.6729 54.0694 69.9515 54.0819 70.2402 54.0819C72.8937 54.0819 75.2408 52.2617 76.5835 50.2778H85.9844C86.5453 50.2778 87 49.8231 87 49.2622V36.4573C87 35.8963 86.5453 35.4416 85.9844 35.4416ZM50.3445 34.4538L52.6594 36.7687C51.9713 37.1942 51.1757 37.4219 50.3445 37.4219C49.5133 37.4219 48.7178 37.1943 48.0297 36.7687L50.3445 34.4538ZM42.7861 46.6422L40.4713 44.3272L42.7861 42.0124C43.2116 42.7005 43.4393 43.4961 43.4393 44.3272C43.4393 45.1584 43.2117 45.954 42.7861 46.6422ZM58.361 62.217L56.0466 59.9026C57.4596 59.0306 59.2621 59.0306 60.6753 59.9026L58.361 62.217ZM62.1386 58.4395C59.8943 56.8114 56.8277 56.8114 54.5834 58.4395L44.2493 48.1053C45.0424 47.0145 45.4706 45.7042 45.4706 44.3272C45.4706 42.9502 45.0425 41.64 44.2493 40.5492L46.5666 38.232C47.6574 39.0251 48.9676 39.4533 50.3446 39.4533C51.7217 39.4533 53.0319 39.0251 54.1227 38.232L56.3194 40.4287C55.8454 40.4986 55.3832 40.6548 54.9521 40.895C54.2241 41.3007 53.6529 41.9081 53.2973 42.643C52.1516 42.8552 51.091 43.4098 50.259 44.2417C48.0018 46.4991 48.0018 50.1719 50.2591 52.4292C51.3877 53.5578 52.8702 54.1221 54.3528 54.1221C55.8353 54.1221 57.3179 53.5579 58.4466 52.4292C59.1809 51.6949 59.6953 50.7924 59.953 49.8089L63.3821 50.9727C62.9961 52.761 63.3915 54.6423 64.458 56.1201L62.1386 58.4395ZM55.9638 48.4545C55.9727 48.4578 55.9817 48.461 55.9907 48.4641L58.0216 49.1534C57.8682 49.8455 57.5212 50.4819 57.0103 50.9929C55.545 52.458 53.1607 52.4582 51.6955 50.9929C50.2302 49.5277 50.2302 47.1435 51.6955 45.6781C52.049 45.3245 52.4661 45.0481 52.9206 44.8608C53.1081 46.421 54.2314 47.8117 55.9638 48.4545ZM65.9214 54.6566C65.5294 54.0177 65.3075 53.2886 65.2725 52.5445C65.759 52.8962 66.3535 53.2408 67.0637 53.5143L65.9214 54.6566ZM75.0825 48.8572C74.1199 50.4353 72.253 52.0505 70.2402 52.0505C69.8636 52.0505 69.5107 52.0237 69.1807 51.9759C69.1794 51.9757 69.1781 51.9755 69.1768 51.9753C66.9834 51.6567 65.8036 50.4101 65.4147 49.9165C65.394 49.8861 65.3057 49.7706 65.2926 49.7514C65.1743 49.5399 64.9803 49.3699 64.7329 49.2859L56.6579 46.5453C55.3692 46.0616 54.6881 44.9582 55.0003 43.8576C55.0005 43.8569 55.0007 43.8562 55.0009 43.8555C55.0012 43.8547 55.0014 43.8538 55.0016 43.853C55.1467 43.3462 55.4801 42.9258 55.9407 42.6691C56.3984 42.4141 56.9274 42.3508 57.432 42.4907L66.5313 45.3742C67.0661 45.5439 67.6369 45.2475 67.8063 44.7128C67.9757 44.1781 67.6796 43.6073 67.1449 43.4378L59.9081 41.1445L59.8449 41.0813C59.8443 41.0807 59.8437 41.08 59.843 41.0794L56.0963 37.3327L59.3167 36.1796C59.3275 36.1756 59.341 36.1707 59.3517 36.1663C59.3545 36.1652 59.3597 36.1631 59.3624 36.162C59.3762 36.1564 59.3898 36.1506 59.4033 36.1444C61.5804 35.1438 63.6498 35.7427 64.461 36.0581C67.5265 37.4375 69.1627 38.3809 70.358 39.0702C72.02 40.0286 72.8208 40.4904 75.0825 40.6772V48.8572ZM78.9301 48.2463H77.1139V39.3654H78.9301V48.2463ZM84.9687 48.2463H80.9614V37.4729H84.9687V48.2463Z" fill="white"/>
</svg>
