<svg width="146" height="146" viewBox="0 0 146 146" fill="none" xmlns="http://www.w3.org/2000/svg">
<path d="M69.15 2.64606C71.1496 0.233089 74.8504 0.233085 76.85 2.64606L80.1647 6.64626C81.7701 8.58357 84.5649 9.02623 86.6904 7.67982L91.079 4.89972C93.7263 3.22273 97.2461 4.36637 98.4021 7.27913L100.318 12.1079C101.247 14.4464 103.768 15.7311 106.205 15.1074L111.238 13.8195C114.274 13.0427 117.268 15.218 117.468 18.3454L117.798 23.53C117.958 26.0409 119.959 28.0418 122.47 28.2019L127.655 28.5323C130.782 28.7316 132.957 31.7257 132.18 34.7617L130.893 39.7946C130.269 42.2321 131.554 44.7534 133.892 45.6815L138.721 47.5979C141.634 48.7539 142.777 52.2737 141.1 54.921L138.32 59.3096C136.974 61.4351 137.416 64.2299 139.354 65.8353L143.354 69.15C145.767 71.1496 145.767 74.8504 143.354 76.85L139.354 80.1647C137.416 81.7701 136.974 84.5649 138.32 86.6904L141.1 91.079C142.777 93.7263 141.634 97.2461 138.721 98.4021L133.892 100.318C131.554 101.247 130.269 103.768 130.893 106.205L132.18 111.238C132.957 114.274 130.782 117.268 127.655 117.468L122.47 117.798C119.959 117.958 117.958 119.959 117.798 122.47L117.468 127.655C117.268 130.782 114.274 132.957 111.238 132.18L106.205 130.893C103.768 130.269 101.247 131.554 100.318 133.892L98.4021 138.721C97.2461 141.634 93.7263 142.777 91.079 141.1L86.6904 138.32C84.5649 136.974 81.7701 137.416 80.1647 139.354L76.85 143.354C74.8504 145.767 71.1496 145.767 69.15 143.354L65.8353 139.354C64.2299 137.416 61.4351 136.974 59.3096 138.32L54.921 141.1C52.2737 142.777 48.7539 141.634 47.5979 138.721L45.6815 133.892C44.7534 131.554 42.2321 130.269 39.7946 130.893L34.7617 132.18C31.7257 132.957 28.7316 130.782 28.5323 127.655L28.2019 122.47C28.0418 119.959 26.0409 117.958 23.53 117.798L18.3454 117.468C15.218 117.268 13.0427 114.274 13.8195 111.238L15.1074 106.205C15.7311 103.768 14.4464 101.247 12.1079 100.318L7.27913 98.4021C4.36637 97.2461 3.22273 93.7263 4.89972 91.079L7.67983 86.6904C9.02623 84.5649 8.58357 81.7701 6.64626 80.1647L2.64606 76.85C0.233089 74.8504 0.233085 71.1496 2.64606 69.15L6.64626 65.8353C8.58357 64.2299 9.02623 61.4351 7.67982 59.3096L4.89972 54.921C3.22273 52.2737 4.36637 48.7539 7.27913 47.5979L12.1079 45.6815C14.4464 44.7534 15.7311 42.2321 15.1074 39.7946L13.8195 34.7617C13.0427 31.7257 15.218 28.7316 18.3454 28.5323L23.53 28.2019C26.0409 28.0418 28.0418 26.0409 28.2019 23.53L28.5323 18.3454C28.7316 15.218 31.7257 13.0427 34.7617 13.8195L39.7946 15.1074C42.2321 15.7311 44.7534 14.4464 45.6815 12.1079L47.5979 7.27913C48.7539 4.36637 52.2737 3.22273 54.921 4.89972L59.3096 7.67983C61.4351 9.02623 64.2299 8.58357 65.8353 6.64626L69.15 2.64606Z" fill="#FF9226"/>
</svg>
