<svg width="16" height="16" viewBox="0 0 16 16" fill="none" xmlns="http://www.w3.org/2000/svg">
<path d="M8 0C3.5811 0 0 3.5811 0 8C0 10.3843 1.04252 12.526 2.69921 13.9937C4.11339 15.2409 5.9685 16 8 16C10.0346 16 11.8898 15.2409 13.3008 13.9906C14.9575 12.526 16 10.3843 16 8C16 3.5811 12.4189 0 8 0Z" fill="white"/>
<path d="M12.674 13.3417C12.2645 13.0362 11.5212 12.5291 10.7118 12.1543C9.90234 11.7827 9.42675 10.9102 9.55589 10.0315C9.55589 10.0189 9.55904 10.0063 9.56219 9.99055C9.56219 9.99055 11.4047 8.74331 11.1496 7.52756C11.1496 7.52756 11.2063 7.53071 11.2913 7.52441C12.1039 7.44882 12.1543 6.23937 11.3512 6.11024C11.3449 6.11024 11.3354 6.10709 11.3291 6.10709L11.3039 5.9748C11.5496 5.11496 12.148 2.51023 10.337 2.7622C10.337 2.7622 9.0362 0.611022 6.2866 1.64724C3.53384 2.68031 4.25195 5.14646 4.25195 5.14646L4.59211 6.12913C3.85195 6.31181 3.92124 7.45512 4.70864 7.52756C4.79368 7.53386 4.85353 7.53071 4.85353 7.53071C4.59526 8.74646 6.43778 9.9937 6.43778 9.9937C6.44093 10.0094 6.44093 10.022 6.44408 10.0346C6.57006 10.9134 6.09447 11.7858 5.28817 12.1575C4.47557 12.5323 3.73541 13.0425 3.32597 13.3449C3.0803 13.5244 2.86297 13.7417 2.69604 13.9968C4.11337 15.2409 5.96849 16 7.99998 16C10.0346 16 11.8897 15.2409 13.3008 13.9906C13.137 13.7386 12.9197 13.5213 12.674 13.3417Z" fill="#41596B"/>
</svg>
