<svg width="31" height="31" viewBox="0 0 31 31" fill="none" xmlns="http://www.w3.org/2000/svg">
<g clip-path="url(#clip0)">
<path d="M0 26.75V11.908C0 7.318 3.735 3.583 8.325 3.583H22.006C26.597 3.583 30.333 7.318 30.333 11.908V14.468C30.333 19.058 26.598 22.793 22.008 22.793H8.518L0 26.75ZM8.325 5.439C4.758 5.439 1.856 8.341 1.856 11.908V23.841L8.109 20.936H22.008C25.575 20.936 28.477 18.034 28.477 14.467V11.907C28.477 8.34 25.574 5.438 22.006 5.438H8.325V5.439ZM8.937 11.767C9.912 11.767 10.702 12.557 10.702 13.532C10.702 14.507 9.912 15.297 8.937 15.297C7.962 15.297 7.172 14.507 7.172 13.532C7.172 12.557 7.962 11.767 8.937 11.767ZM21.395 11.767C22.37 11.767 23.16 12.557 23.16 13.532C23.16 14.507 22.37 15.297 21.395 15.297C20.42 15.297 19.63 14.507 19.63 13.532C19.63 12.557 20.42 11.767 21.395 11.767ZM15.165 11.767C16.14 11.767 16.93 12.557 16.93 13.532C16.93 14.507 16.14 15.297 15.165 15.297C14.19 15.297 13.4 14.507 13.4 13.532C13.4 12.557 14.19 11.767 15.165 11.767Z" fill="#010002"/>
</g>
<defs>
<clipPath id="clip0">
<rect width="30.333" height="30.333" fill="white"/>
</clipPath>
</defs>
</svg>
