<svg width="70" height="19" viewBox="0 0 70 19" fill="none" xmlns="http://www.w3.org/2000/svg">
<path d="M3.05754 18.7448H1.56957L2.62171 17.6927C3.18902 17.1254 3.54328 16.3875 3.63852 15.5871C1.2091 13.9928 0 11.6831 0 9.26181C0 4.79474 4.10565 0.255157 10.5356 0.255157C17.3474 0.255157 21 4.43243 21 8.87044C21 13.3377 17.3088 17.5122 10.5356 17.5122C9.34908 17.5122 8.11097 17.3538 7.00557 17.0632C5.95918 18.1364 4.54139 18.7448 3.05754 18.7448Z" fill="#B9B9B9"/>
<path d="M39.6953 15H38.2422V5.36719L35.3281 6.4375V5.125L39.4688 3.57031H39.6953V15ZM51.3828 15H43.9297V13.9609L47.8672 9.58594C48.4505 8.92448 48.8516 8.38802 49.0703 7.97656C49.2943 7.5599 49.4062 7.13021 49.4062 6.6875C49.4062 6.09375 49.2266 5.60677 48.8672 5.22656C48.5078 4.84635 48.0286 4.65625 47.4297 4.65625C46.7109 4.65625 46.151 4.86198 45.75 5.27344C45.3542 5.67969 45.1562 6.2474 45.1562 6.97656H43.7109C43.7109 5.92969 44.0469 5.08333 44.7188 4.4375C45.3958 3.79167 46.2995 3.46875 47.4297 3.46875C48.487 3.46875 49.3229 3.7474 49.9375 4.30469C50.5521 4.85677 50.8594 5.59375 50.8594 6.51562C50.8594 7.63542 50.1458 8.96875 48.7188 10.5156L45.6719 13.8203H51.3828V15ZM58.5859 3.61719V4.84375H58.3203C57.1953 4.86458 56.2995 5.19792 55.6328 5.84375C54.9661 6.48958 54.5807 7.39844 54.4766 8.57031C55.0755 7.88281 55.8932 7.53906 56.9297 7.53906C57.9193 7.53906 58.7083 7.88802 59.2969 8.58594C59.8906 9.28385 60.1875 10.1849 60.1875 11.2891C60.1875 12.4609 59.8672 13.3984 59.2266 14.1016C58.5911 14.8047 57.737 15.1562 56.6641 15.1562C55.5755 15.1562 54.6927 14.7396 54.0156 13.9062C53.3385 13.0677 53 11.9896 53 10.6719V10.1172C53 8.02344 53.4453 6.42448 54.3359 5.32031C55.2318 4.21094 56.5625 3.64323 58.3281 3.61719H58.5859ZM56.6875 8.74219C56.1927 8.74219 55.737 8.89062 55.3203 9.1875C54.9036 9.48438 54.6146 9.85677 54.4531 10.3047V10.8359C54.4531 11.7734 54.6641 12.5286 55.0859 13.1016C55.5078 13.6745 56.0339 13.9609 56.6641 13.9609C57.3151 13.9609 57.8255 13.7214 58.1953 13.2422C58.5703 12.763 58.7578 12.1354 58.7578 11.3594C58.7578 10.5781 58.5677 9.94792 58.1875 9.46875C57.8125 8.98438 57.3125 8.74219 56.6875 8.74219ZM62.5625 9.29688L63.1406 3.625H68.9688V4.96094H64.3672L64.0234 8.0625C64.5807 7.73438 65.2135 7.57031 65.9219 7.57031C66.9583 7.57031 67.7812 7.91406 68.3906 8.60156C69 9.28385 69.3047 10.2083 69.3047 11.375C69.3047 12.5469 68.987 13.4714 68.3516 14.1484C67.7214 14.8203 66.8385 15.1562 65.7031 15.1562C64.6979 15.1562 63.8776 14.8776 63.2422 14.3203C62.6068 13.763 62.2448 12.9922 62.1562 12.0078H63.5234C63.612 12.6589 63.8438 13.151 64.2188 13.4844C64.5938 13.8125 65.0885 13.9766 65.7031 13.9766C66.375 13.9766 66.901 13.7474 67.2812 13.2891C67.6667 12.8307 67.8594 12.1979 67.8594 11.3906C67.8594 10.6302 67.651 10.0208 67.2344 9.5625C66.8229 9.09896 66.2734 8.86719 65.5859 8.86719C64.9557 8.86719 64.4609 9.00521 64.1016 9.28125L63.7188 9.59375L62.5625 9.29688Z" fill="#B9B9B9"/>
</svg>
