<svg width="177" height="45" viewBox="0 0 177 45" fill="none" xmlns="http://www.w3.org/2000/svg">
<circle cx="22.5" cy="22.5" r="22.5" fill="#3C579E"/>
<circle cx="88.5" cy="22.5" r="22.5" fill="#54ACEE"/>
<circle cx="154.5" cy="22.5" r="22.5" fill="#E60023"/>
<path d="M30 21.5C30 17.3574 26.6426 14 22.5 14C18.3574 14 15 17.3574 15 21.5C15 25.6426 18.3574 29 22.5 29C22.5439 29 22.5879 29 22.6318 28.9971V23.1611H21.0205V21.2832H22.6318V19.9004C22.6318 18.2979 23.6104 17.4248 25.04 17.4248C25.7256 17.4248 26.3145 17.4746 26.4844 17.498V19.1738H25.5C24.7236 19.1738 24.5713 19.543 24.5713 20.085V21.2803H26.4316L26.1885 23.1582H24.5713V28.71C27.7061 27.8105 30 24.9248 30 21.5Z" fill="white"/>
<g clip-path="url(#clip0)">
<path d="M97 17.039C96.405 17.3 95.771 17.473 95.11 17.557C95.79 17.151 96.309 16.513 96.553 15.744C95.919 16.122 95.219 16.389 94.473 16.538C93.871 15.897 93.013 15.5 92.077 15.5C90.261 15.5 88.799 16.974 88.799 18.781C88.799 19.041 88.821 19.291 88.875 19.529C86.148 19.396 83.735 18.089 82.114 16.098C81.831 16.589 81.665 17.151 81.665 17.756C81.665 18.892 82.25 19.899 83.122 20.482C82.595 20.472 82.078 20.319 81.64 20.078C81.64 20.088 81.64 20.101 81.64 20.114C81.64 21.708 82.777 23.032 84.268 23.337C84.001 23.41 83.71 23.445 83.408 23.445C83.198 23.445 82.986 23.433 82.787 23.389C83.212 24.688 84.418 25.643 85.852 25.674C84.736 26.547 83.319 27.073 81.785 27.073C81.516 27.073 81.258 27.061 81 27.028C82.453 27.965 84.175 28.5 86.032 28.5C92.068 28.5 95.368 23.5 95.368 19.166C95.368 19.021 95.363 18.881 95.356 18.742C96.007 18.28 96.554 17.703 97 17.039Z" fill="white"/>
</g>
<path d="M154 15C150.134 15 147 18.134 147 22C147 25.866 150.134 29 154 29C157.866 29 161 25.866 161 22C161 18.134 157.866 15 154 15ZM154.805 24.3251C154.158 24.3251 153.549 23.975 153.34 23.5776C153.34 23.5776 152.992 24.959 152.919 25.2255C152.659 26.1679 151.895 27.1106 151.836 27.1878C151.795 27.2415 151.703 27.2248 151.694 27.1534C151.678 27.0334 151.482 25.8445 151.712 24.8749C151.827 24.3879 152.483 21.6074 152.483 21.6074C152.483 21.6074 152.292 21.2246 152.292 20.6586C152.292 19.7699 152.807 19.1065 153.448 19.1065C153.993 19.1065 154.257 19.5159 154.257 20.0068C154.257 20.555 153.908 21.3748 153.728 22.1345C153.577 22.7705 154.046 23.2894 154.674 23.2894C155.81 23.2894 156.575 21.8303 156.575 20.1012C156.575 18.7872 155.69 17.8033 154.08 17.8033C152.261 17.8033 151.127 19.1598 151.127 20.6752C151.127 21.1974 151.282 21.5662 151.523 21.851C151.634 21.9821 151.65 22.0348 151.609 22.1852C151.58 22.2956 151.515 22.5611 151.487 22.6661C151.447 22.8182 151.324 22.8724 151.187 22.8164C150.349 22.4745 149.959 21.557 149.959 20.5257C149.959 18.8223 151.395 16.7798 154.244 16.7798C156.534 16.7798 158.041 18.4363 158.041 20.2149C158.041 22.5677 156.733 24.3251 154.805 24.3251Z" fill="white"/>
<defs>
<clipPath id="clip0">
<rect width="16" height="16" fill="white" transform="translate(81 14)"/>
</clipPath>
</defs>
</svg>
