<svg width="373" height="24" viewBox="0 0 373 24" fill="none" xmlns="http://www.w3.org/2000/svg">
<rect width="121" height="24" fill="#3C579E"/>
<rect x="126" width="121" height="24" fill="#54ACEE"/>
<rect x="252" width="121" height="24" fill="#E60023"/>
<path d="M21 11.5C21 7.35742 17.6426 4 13.5 4C9.35742 4 6 7.35742 6 11.5C6 15.6426 9.35742 19 13.5 19C13.5439 19 13.5879 19 13.6318 18.9971V13.1611H12.0205V11.2832H13.6318V9.90039C13.6318 8.29785 14.6104 7.4248 16.04 7.4248C16.7256 7.4248 17.3145 7.47461 17.4844 7.49805V9.17383H16.5C15.7236 9.17383 15.5713 9.54297 15.5713 10.085V11.2803H17.4316L17.1885 13.1582H15.5713V18.71C18.7061 17.8105 21 14.9248 21 11.5Z" fill="white"/>
<g clip-path="url(#clip0)">
<path d="M148 7.039C147.405 7.3 146.771 7.473 146.11 7.557C146.79 7.151 147.309 6.513 147.553 5.744C146.919 6.122 146.219 6.389 145.473 6.538C144.871 5.897 144.013 5.5 143.077 5.5C141.261 5.5 139.799 6.974 139.799 8.781C139.799 9.041 139.821 9.291 139.875 9.529C137.148 9.396 134.735 8.089 133.114 6.098C132.831 6.589 132.665 7.151 132.665 7.756C132.665 8.892 133.25 9.899 134.122 10.482C133.595 10.472 133.078 10.319 132.64 10.078C132.64 10.088 132.64 10.101 132.64 10.114C132.64 11.708 133.777 13.032 135.268 13.337C135.001 13.41 134.71 13.445 134.408 13.445C134.198 13.445 133.986 13.433 133.787 13.389C134.212 14.688 135.418 15.643 136.852 15.674C135.736 16.547 134.319 17.073 132.785 17.073C132.516 17.073 132.258 17.061 132 17.028C133.453 17.965 135.175 18.5 137.032 18.5C143.068 18.5 146.368 13.5 146.368 9.166C146.368 9.021 146.363 8.881 146.356 8.742C147.007 8.28 147.554 7.703 148 7.039Z" fill="white"/>
</g>
<path d="M267 5C263.134 5 260 8.134 260 12C260 15.866 263.134 19 267 19C270.866 19 274 15.866 274 12C274 8.134 270.866 5 267 5ZM267.805 14.3251C267.158 14.3251 266.549 13.975 266.34 13.5776C266.34 13.5776 265.992 14.959 265.919 15.2255C265.659 16.1679 264.895 17.1106 264.836 17.1878C264.795 17.2415 264.703 17.2248 264.694 17.1534C264.678 17.0334 264.482 15.8445 264.712 14.8749C264.827 14.3879 265.483 11.6074 265.483 11.6074C265.483 11.6074 265.292 11.2246 265.292 10.6586C265.292 9.76988 265.807 9.10648 266.448 9.10648C266.993 9.10648 267.257 9.51595 267.257 10.0068C267.257 10.555 266.908 11.3748 266.728 12.1345C266.577 12.7705 267.046 13.2894 267.674 13.2894C268.81 13.2894 269.575 11.8303 269.575 10.1012C269.575 8.78723 268.69 7.80329 267.08 7.80329C265.261 7.80329 264.127 9.15975 264.127 10.6752C264.127 11.1974 264.282 11.5662 264.523 11.851C264.634 11.9821 264.65 12.0348 264.609 12.1852C264.58 12.2956 264.515 12.5611 264.487 12.6661C264.447 12.8182 264.324 12.8724 264.187 12.8164C263.349 12.4745 262.959 11.557 262.959 10.5257C262.959 8.82232 264.395 6.77983 267.244 6.77983C269.534 6.77983 271.041 8.43634 271.041 10.2149C271.041 12.5677 269.733 14.3251 267.805 14.3251Z" fill="white"/>
<defs>
<clipPath id="clip0">
<rect width="16" height="16" fill="white" transform="translate(132 4)"/>
</clipPath>
</defs>
</svg>
