<svg width="240" height="24" viewBox="0 0 240 24" fill="none" xmlns="http://www.w3.org/2000/svg">
<path d="M0.37 23V5.36H3.25L3.85 7.22H4.03C4.03 7.22 4.17 7.11 4.45 6.89C4.75 6.65 5.14 6.39 5.62 6.11C6.1 5.81 6.62 5.55 7.18 5.33C7.74 5.09 8.29 4.97 8.83 4.97C9.53 4.97 10.03 5.03 10.33 5.15C10.63 5.25 10.78 5.3 10.78 5.3L10.42 9.32C10.42 9.32 10.24 9.31 9.88 9.29C9.54 9.25 9.17 9.23 8.77 9.23C8.01 9.23 7.3 9.34 6.64 9.56C6 9.78 5.46 10.03 5.02 10.31V23H0.37ZM20.5506 23.42C18.9306 23.42 17.5006 23.12 16.2606 22.52C15.0406 21.92 14.0906 20.94 13.4106 19.58C12.7306 18.22 12.3906 16.41 12.3906 14.15C12.3906 11.79 12.7506 9.95 13.4706 8.63C14.1906 7.29 15.1606 6.34 16.3806 5.78C17.6006 5.22 18.9706 4.94 20.4906 4.94C22.0506 4.94 23.3706 5.21 24.4506 5.75C25.5306 6.29 26.3506 7.17 26.9106 8.39C27.4906 9.61 27.7806 11.25 27.7806 13.31V15.8H17.1006C17.1606 17.54 17.4706 18.66 18.0306 19.16C18.2306 19.34 18.4806 19.48 18.7806 19.58C19.1006 19.68 19.5106 19.73 20.0106 19.73C20.5506 19.73 21.1506 19.68 21.8106 19.58C22.4706 19.46 23.1106 19.32 23.7306 19.16C24.3706 19 24.9206 18.86 25.3806 18.74C25.8406 18.6 26.1506 18.5 26.3106 18.44L27.4506 21.8C27.2706 21.88 26.8306 22.06 26.1306 22.34C25.4506 22.6 24.6206 22.84 23.6406 23.06C22.6806 23.3 21.6506 23.42 20.5506 23.42ZM17.9106 9.38C17.4306 9.88 17.1606 10.9 17.1006 12.44L23.0406 12.32C23.0006 10.72 22.8206 9.7 22.5006 9.26C22.3606 9.1 22.1506 8.95 21.8706 8.81C21.5906 8.67 21.1306 8.6 20.4906 8.6C19.7306 8.6 19.1606 8.68 18.7806 8.84C18.4006 8.98 18.1106 9.16 17.9106 9.38ZM38.6505 23.39C37.0905 23.39 35.7105 23.08 34.5105 22.46C33.3105 21.82 32.3705 20.82 31.6905 19.46C31.0105 18.1 30.6705 16.32 30.6705 14.12C30.6705 12.3 30.9005 10.8 31.3605 9.62C31.8205 8.42 32.4505 7.49 33.2505 6.83C34.0705 6.15 35.0105 5.67 36.0705 5.39C37.1305 5.11 38.2505 4.97 39.4305 4.97C40.5505 4.97 41.5605 5.05 42.4605 5.21C43.3805 5.37 44.0605 5.51 44.5005 5.63L43.9905 9.14C43.4105 9.04 42.6505 8.94 41.7105 8.84C40.7905 8.72 39.9205 8.66 39.1005 8.66C38.2605 8.66 37.6605 8.73 37.3005 8.87C36.9605 8.99 36.7005 9.14 36.5205 9.32C35.7805 10.1 35.4105 11.7 35.4105 14.12C35.4105 15.28 35.4805 16.21 35.6205 16.91C35.7805 17.59 35.9705 18.11 36.1905 18.47C36.4305 18.83 36.6505 19.09 36.8505 19.25C36.9705 19.33 37.1505 19.43 37.3905 19.55C37.6505 19.65 38.0005 19.7 38.4405 19.7C38.9205 19.7 39.4505 19.63 40.0305 19.49C40.6305 19.33 41.2105 19.16 41.7705 18.98C42.3305 18.78 42.7905 18.61 43.1505 18.47C43.5105 18.33 43.6905 18.26 43.6905 18.26L44.9505 21.56C44.9505 21.56 44.6905 21.72 44.1705 22.04C43.6705 22.34 42.9505 22.64 42.0105 22.94C41.0705 23.24 39.9505 23.39 38.6505 23.39ZM54.1888 23.39C52.5288 23.39 51.2188 23.02 50.2588 22.28C49.3188 21.54 48.6488 20.49 48.2488 19.13C47.8488 17.77 47.6488 16.15 47.6488 14.27C47.6488 12.39 47.8488 10.77 48.2488 9.41C48.6488 8.05 49.3188 7 50.2588 6.26C51.2188 5.52 52.5288 5.15 54.1888 5.15C55.8488 5.15 57.1488 5.52 58.0888 6.26C59.0488 7 59.7288 8.05 60.1288 9.41C60.5288 10.77 60.7288 12.39 60.7288 14.27C60.7288 16.15 60.5288 17.77 60.1288 19.13C59.7288 20.49 59.0488 21.54 58.0888 22.28C57.1488 23.02 55.8488 23.39 54.1888 23.39ZM54.1888 21.23C54.9488 21.23 55.5788 21.14 56.0788 20.96C56.5988 20.78 57.0088 20.45 57.3088 19.97C57.6288 19.49 57.8488 18.79 57.9688 17.87C58.1088 16.95 58.1788 15.75 58.1788 14.27C58.1788 12.79 58.1088 11.59 57.9688 10.67C57.8488 9.75 57.6288 9.05 57.3088 8.57C57.0088 8.07 56.5988 7.74 56.0788 7.58C55.5788 7.4 54.9488 7.31 54.1888 7.31C53.4288 7.31 52.7888 7.4 52.2688 7.58C51.7688 7.74 51.3588 8.07 51.0388 8.57C50.7388 9.05 50.5188 9.75 50.3788 10.67C50.2388 11.59 50.1688 12.79 50.1688 14.27C50.1688 15.75 50.2388 16.95 50.3788 17.87C50.5188 18.79 50.7388 19.49 51.0388 19.97C51.3588 20.45 51.7688 20.78 52.2688 20.96C52.7888 21.14 53.4288 21.23 54.1888 21.23ZM65.864 23V5.54H67.544L67.814 7.25H67.934C68.114 7.15 68.414 6.99 68.834 6.77C69.254 6.53 69.744 6.29 70.304 6.05C70.864 5.79 71.454 5.58 72.074 5.42C72.694 5.24 73.304 5.15 73.904 5.15C74.764 5.15 75.504 5.35 76.124 5.75C76.764 6.15 77.214 6.7 77.474 7.4C78.314 6.88 79.244 6.38 80.264 5.9C81.304 5.4 82.404 5.15 83.564 5.15C84.644 5.15 85.484 5.41 86.084 5.93C86.684 6.45 87.104 7.19 87.344 8.15C87.584 9.09 87.704 10.21 87.704 11.51V23H85.214V12.35C85.214 11.41 85.194 10.57 85.154 9.83C85.114 9.09 84.984 8.55 84.764 8.21C84.564 7.89 84.284 7.7 83.924 7.64C83.584 7.56 83.304 7.52 83.084 7.52C82.544 7.52 81.984 7.6 81.404 7.76C80.844 7.9 80.314 8.08 79.814 8.3C79.314 8.5 78.894 8.69 78.554 8.87C78.234 9.05 78.024 9.17 77.924 9.23C77.964 9.55 77.994 9.89 78.014 10.25C78.034 10.61 78.044 10.99 78.044 11.39V23H75.554V12.26C75.554 11.12 75.524 10.24 75.464 9.62C75.424 9 75.294 8.52 75.074 8.18C74.874 7.9 74.624 7.72 74.324 7.64C74.024 7.56 73.734 7.52 73.454 7.52C72.774 7.52 72.094 7.63 71.414 7.85C70.734 8.05 70.124 8.28 69.584 8.54C69.044 8.78 68.634 8.96 68.354 9.08V23H65.864ZM93.3738 23V5.54H95.0538L95.3238 7.25H95.4438C95.6238 7.15 95.9238 6.99 96.3438 6.77C96.7638 6.53 97.2538 6.29 97.8138 6.05C98.3738 5.79 98.9638 5.58 99.5838 5.42C100.204 5.24 100.814 5.15 101.414 5.15C102.274 5.15 103.014 5.35 103.634 5.75C104.274 6.15 104.724 6.7 104.984 7.4C105.824 6.88 106.754 6.38 107.774 5.9C108.814 5.4 109.914 5.15 111.074 5.15C112.154 5.15 112.994 5.41 113.594 5.93C114.194 6.45 114.614 7.19 114.854 8.15C115.094 9.09 115.214 10.21 115.214 11.51V23H112.724V12.35C112.724 11.41 112.704 10.57 112.664 9.83C112.624 9.09 112.494 8.55 112.274 8.21C112.074 7.89 111.794 7.7 111.434 7.64C111.094 7.56 110.814 7.52 110.594 7.52C110.054 7.52 109.494 7.6 108.914 7.76C108.354 7.9 107.824 8.08 107.324 8.3C106.824 8.5 106.404 8.69 106.064 8.87C105.744 9.05 105.534 9.17 105.434 9.23C105.474 9.55 105.504 9.89 105.524 10.25C105.544 10.61 105.554 10.99 105.554 11.39V23H103.064V12.26C103.064 11.12 103.034 10.24 102.974 9.62C102.934 9 102.804 8.52 102.584 8.18C102.384 7.9 102.134 7.72 101.834 7.64C101.534 7.56 101.244 7.52 100.964 7.52C100.284 7.52 99.6038 7.63 98.9238 7.85C98.2438 8.05 97.6338 8.28 97.0938 8.54C96.5538 8.78 96.1438 8.96 95.8638 9.08V23H93.3738ZM126.974 23.42C125.594 23.42 124.374 23.13 123.314 22.55C122.274 21.95 121.464 20.98 120.884 19.64C120.304 18.28 120.014 16.48 120.014 14.24C120.014 11.9 120.314 10.07 120.914 8.75C121.534 7.43 122.364 6.5 123.404 5.96C124.444 5.4 125.614 5.12 126.914 5.12C128.214 5.12 129.314 5.38 130.214 5.9C131.134 6.42 131.834 7.29 132.314 8.51C132.794 9.71 133.034 11.33 133.034 13.37V15.26H122.654C122.594 16.48 122.644 17.45 122.804 18.17C122.964 18.87 123.154 19.41 123.374 19.79C123.594 20.15 123.784 20.4 123.944 20.54C124.484 21.02 125.314 21.26 126.434 21.26C127.214 21.26 127.964 21.19 128.684 21.05C129.404 20.89 130.044 20.72 130.604 20.54C131.184 20.34 131.624 20.2 131.924 20.12L132.554 22.13C132.374 22.21 132.024 22.36 131.504 22.58C130.984 22.78 130.334 22.97 129.554 23.15C128.794 23.33 127.934 23.42 126.974 23.42ZM123.614 8.48C122.974 9.34 122.654 10.93 122.654 13.25L130.484 13.1C130.484 11.94 130.434 10.95 130.334 10.13C130.254 9.29 130.074 8.64 129.794 8.18C129.654 7.96 129.414 7.76 129.074 7.58C128.734 7.38 128.074 7.28 127.094 7.28C126.074 7.28 125.304 7.39 124.784 7.61C124.284 7.83 123.894 8.12 123.614 8.48ZM138.022 23V5.54H139.702L139.972 7.25H140.122C140.302 7.15 140.602 6.99 141.022 6.77C141.442 6.53 141.942 6.29 142.522 6.05C143.102 5.79 143.722 5.58 144.382 5.42C145.042 5.24 145.702 5.15 146.362 5.15C147.462 5.15 148.302 5.43 148.882 5.99C149.462 6.53 149.852 7.27 150.052 8.21C150.272 9.15 150.382 10.21 150.382 11.39V23H147.892V12.26C147.892 11.08 147.872 10.18 147.832 9.56C147.792 8.94 147.662 8.47 147.442 8.15C147.282 7.89 147.052 7.72 146.752 7.64C146.452 7.56 146.132 7.52 145.792 7.52C145.072 7.52 144.332 7.64 143.572 7.88C142.832 8.1 142.182 8.34 141.622 8.6C141.062 8.84 140.692 9.01 140.512 9.11V23H138.022ZM160.63 23.39C158.99 23.39 157.66 22.68 156.64 21.26C155.62 19.84 155.11 17.62 155.11 14.6C155.11 12.66 155.28 11.08 155.62 9.86C155.98 8.62 156.46 7.66 157.06 6.98C157.66 6.3 158.32 5.83 159.04 5.57C159.78 5.29 160.54 5.15 161.32 5.15C162.3 5.15 163.12 5.23 163.78 5.39C164.44 5.55 164.93 5.7 165.25 5.84V0.409999H167.74V23H166.09L165.76 21.2H165.61C165.35 21.4 164.99 21.68 164.53 22.04C164.07 22.38 163.51 22.69 162.85 22.97C162.21 23.25 161.47 23.39 160.63 23.39ZM160.78 21.17C161.3 21.17 161.85 21.08 162.43 20.9C163.01 20.72 163.55 20.51 164.05 20.27C164.55 20.01 164.95 19.79 165.25 19.61V8.15C164.89 8.01 164.32 7.85 163.54 7.67C162.78 7.47 161.96 7.37 161.08 7.37C159.96 7.37 159.2 7.61 158.8 8.09C158.64 8.31 158.47 8.66 158.29 9.14C158.13 9.62 157.99 10.31 157.87 11.21C157.77 12.09 157.72 13.26 157.72 14.72C157.72 16.36 157.8 17.6 157.96 18.44C158.14 19.28 158.34 19.86 158.56 20.18C158.78 20.5 158.95 20.71 159.07 20.81C159.23 20.95 159.46 21.05 159.76 21.11C160.06 21.15 160.4 21.17 160.78 21.17ZM176.771 23.39C175.371 23.39 174.231 22.91 173.351 21.95C172.491 20.99 172.061 19.62 172.061 17.84C172.061 16.42 172.341 15.31 172.901 14.51C173.481 13.69 174.291 13.11 175.331 12.77C176.371 12.43 177.581 12.26 178.961 12.26H182.141C182.141 11.26 182.111 10.39 182.051 9.65C182.011 8.89 181.851 8.33 181.571 7.97C181.371 7.69 181.091 7.51 180.731 7.43C180.391 7.35 180.031 7.31 179.651 7.31C178.871 7.31 178.101 7.39 177.341 7.55C176.601 7.69 175.921 7.86 175.301 8.06C174.701 8.26 174.221 8.44 173.861 8.6C173.501 8.74 173.321 8.81 173.321 8.81L172.451 6.86C172.451 6.86 172.641 6.78 173.021 6.62C173.401 6.44 173.911 6.24 174.551 6.02C175.191 5.78 175.901 5.58 176.681 5.42C177.481 5.24 178.301 5.15 179.141 5.15C180.501 5.15 181.581 5.42 182.381 5.96C183.181 6.48 183.751 7.22 184.091 8.18C184.451 9.12 184.631 10.23 184.631 11.51V23H183.011L182.651 21.17H182.471C182.191 21.37 181.771 21.65 181.211 22.01C180.671 22.35 180.021 22.67 179.261 22.97C178.501 23.25 177.671 23.39 176.771 23.39ZM177.191 21.2C177.911 21.2 178.591 21.1 179.231 20.9C179.891 20.68 180.471 20.44 180.971 20.18C181.491 19.92 181.881 19.71 182.141 19.55V14.57C181.881 14.53 181.491 14.49 180.971 14.45C180.451 14.39 179.771 14.36 178.931 14.36C177.071 14.36 175.921 14.55 175.481 14.93C175.221 15.13 175.021 15.49 174.881 16.01C174.741 16.51 174.671 17.12 174.671 17.84C174.671 19.02 174.861 19.88 175.241 20.42C175.641 20.94 176.291 21.2 177.191 21.2ZM195.111 23.42C194.251 23.42 193.501 23.28 192.861 23C192.221 22.7 191.721 22.14 191.361 21.32C191.021 20.48 190.851 19.24 190.851 17.6V8.51H188.871V6.95L190.941 6.53L191.601 2.45H193.341V6.56H196.821V8.57H193.341V17.78C193.341 18.88 193.371 19.68 193.431 20.18C193.491 20.68 193.641 21 193.881 21.14C194.141 21.26 194.571 21.32 195.171 21.32C195.651 21.32 196.041 21.31 196.341 21.29C196.641 21.27 196.791 21.26 196.791 21.26V23.27C196.791 23.27 196.641 23.29 196.341 23.33C196.041 23.39 195.631 23.42 195.111 23.42ZM201.359 2.57V0.019999H204.419V2.57H201.359ZM201.629 23V5.54H204.119V23H201.629ZM215.937 23.39C214.277 23.39 212.967 23.02 212.007 22.28C211.067 21.54 210.397 20.49 209.997 19.13C209.597 17.77 209.397 16.15 209.397 14.27C209.397 12.39 209.597 10.77 209.997 9.41C210.397 8.05 211.067 7 212.007 6.26C212.967 5.52 214.277 5.15 215.937 5.15C217.597 5.15 218.897 5.52 219.837 6.26C220.797 7 221.477 8.05 221.877 9.41C222.277 10.77 222.477 12.39 222.477 14.27C222.477 16.15 222.277 17.77 221.877 19.13C221.477 20.49 220.797 21.54 219.837 22.28C218.897 23.02 217.597 23.39 215.937 23.39ZM215.937 21.23C216.697 21.23 217.327 21.14 217.827 20.96C218.347 20.78 218.757 20.45 219.057 19.97C219.377 19.49 219.597 18.79 219.717 17.87C219.857 16.95 219.927 15.75 219.927 14.27C219.927 12.79 219.857 11.59 219.717 10.67C219.597 9.75 219.377 9.05 219.057 8.57C218.757 8.07 218.347 7.74 217.827 7.58C217.327 7.4 216.697 7.31 215.937 7.31C215.177 7.31 214.537 7.4 214.017 7.58C213.517 7.74 213.107 8.07 212.787 8.57C212.487 9.05 212.267 9.75 212.127 10.67C211.987 11.59 211.917 12.79 211.917 14.27C211.917 15.75 211.987 16.95 212.127 17.87C212.267 18.79 212.487 19.49 212.787 19.97C213.107 20.45 213.517 20.78 214.017 20.96C214.537 21.14 215.177 21.23 215.937 21.23ZM227.612 23V5.54H229.292L229.562 7.25H229.712C229.892 7.15 230.192 6.99 230.612 6.77C231.032 6.53 231.532 6.29 232.112 6.05C232.692 5.79 233.312 5.58 233.972 5.42C234.632 5.24 235.292 5.15 235.952 5.15C237.052 5.15 237.892 5.43 238.472 5.99C239.052 6.53 239.442 7.27 239.642 8.21C239.862 9.15 239.972 10.21 239.972 11.39V23H237.482V12.26C237.482 11.08 237.462 10.18 237.422 9.56C237.382 8.94 237.252 8.47 237.032 8.15C236.872 7.89 236.642 7.72 236.342 7.64C236.042 7.56 235.722 7.52 235.382 7.52C234.662 7.52 233.922 7.64 233.162 7.88C232.422 8.1 231.772 8.34 231.212 8.6C230.652 8.84 230.282 9.01 230.102 9.11V23H227.612Z" fill="white"/>
</svg>
