<svg width="116" height="116" viewBox="0 0 116 116" fill="none" xmlns="http://www.w3.org/2000/svg">
<circle cx="58" cy="58" r="56.5" stroke="white" stroke-width="3"/>
<path d="M78.2392 54.7798C78.1381 54.7794 78.0391 54.8089 77.9548 54.8648C77.8705 54.9207 77.8047 55.0003 77.7658 55.0936C77.7268 55.1869 77.7163 55.2896 77.7358 55.3888C77.7553 55.4881 77.8038 55.5793 77.8751 55.6509C77.9465 55.7225 78.0375 55.7714 78.1366 55.7913C78.2357 55.8111 78.3386 55.8011 78.432 55.7625C78.5254 55.7239 78.6053 55.6584 78.6615 55.5744C78.7177 55.4903 78.7477 55.3915 78.7477 55.2904C78.7478 55.1553 78.6944 55.0257 78.599 54.9299C78.5037 54.8342 78.3743 54.7802 78.2392 54.7798Z" fill="white"/>
<path d="M64.5063 54.7798C64.4052 54.7794 64.3062 54.8089 64.2219 54.8648C64.1376 54.9207 64.0718 55.0003 64.0328 55.0936C63.9939 55.1869 63.9834 55.2896 64.0029 55.3888C64.0224 55.4881 64.0709 55.5793 64.1422 55.6509C64.2135 55.7225 64.3046 55.7714 64.4037 55.7913C64.5028 55.8111 64.6056 55.8011 64.6991 55.7625C64.7925 55.7239 64.8724 55.6584 64.9286 55.5744C64.9848 55.4903 65.0148 55.3915 65.0148 55.2904C65.0149 55.1553 64.9614 55.0257 64.8661 54.9299C64.7708 54.8342 64.6414 54.7802 64.5063 54.7798Z" fill="white"/>
<path d="M79.1649 31.5554C78.3623 30.7453 77.507 30.3748 76.5512 30.4243C74.8068 30.5137 73.2276 31.9813 72.5882 32.6582C72.6558 32.7968 72.6987 32.9461 72.715 33.0994C72.7166 33.1143 72.7176 33.1293 72.7178 33.1443L72.8062 36.4311C72.8298 36.7083 72.7735 36.9865 72.644 37.2327C76.5872 39.6385 78.2593 38.8941 78.8068 38.4408C79.5374 37.8364 79.7092 36.6535 79.2346 35.4974C78.895 34.6703 79.1592 33.9364 79.3715 33.3467C79.6325 32.6231 79.7898 32.1862 79.1649 31.5554Z" fill="white"/>
<path d="M67.5047 33.3305L67.5009 36.6331C67.5009 36.6481 67.5009 36.6629 67.4991 36.6778C67.4973 36.7014 67.5004 36.725 67.5081 36.7473C67.5159 36.7696 67.5282 36.7901 67.5443 36.8074C67.5603 36.8247 67.5798 36.8385 67.6015 36.8479C67.6231 36.8574 67.6465 36.8622 67.6701 36.8622H71.3554C71.398 36.8622 71.4402 36.8533 71.4791 36.836C71.518 36.8188 71.5529 36.7935 71.5814 36.7618C71.61 36.7302 71.6315 36.6929 71.6447 36.6524C71.6579 36.6119 71.6625 36.5691 71.658 36.5267C71.6565 36.5119 71.6555 36.4969 71.6552 36.4819L71.567 33.2059C71.5594 33.1669 71.5384 33.1317 71.5077 33.1065C71.477 33.0812 71.4384 33.0675 71.3986 33.0676H67.8063C67.7329 33.0679 67.6619 33.0946 67.6066 33.1429C67.5512 33.1911 67.515 33.2577 67.5047 33.3305Z" fill="white"/>
<path d="M66.3543 33.2562C66.3707 33.0536 66.43 32.8568 66.5281 32.6788C65.9393 32.0178 64.4921 30.6013 62.7775 30.4412C61.7494 30.3453 60.7587 30.7268 59.8315 31.5751C59.2169 32.1375 59.3234 32.5181 59.6228 33.3254C59.8449 33.9246 60.1214 34.6703 59.7817 35.4976C59.2819 36.7148 59.4726 37.9999 60.2455 38.6227C60.7994 39.069 62.4899 39.7843 66.4515 37.2029C66.3725 37.0166 66.3373 36.8147 66.3486 36.6126L66.3524 33.3008C66.3524 33.286 66.353 33.271 66.3543 33.2562Z" fill="white"/>
<path d="M79.5375 39.3323C79.0989 39.6936 78.3753 40.0675 77.2592 40.0675C75.9714 40.0675 74.1613 39.5697 71.6642 37.9808C71.5628 38.003 71.4593 38.0143 71.3555 38.0144H69.7515C69.422 38.1065 67.7666 38.6251 67.0858 39.9503C66.6583 40.7828 66.6885 41.8085 67.1759 42.9993C67.6153 44.0733 68.6614 44.5493 69.4939 44.6368C70.4096 44.7322 71.2175 44.4056 71.6559 43.7618C72.0612 43.1663 72.1255 42.2393 71.796 41.7376C71.5843 41.4149 71.2341 41.3057 70.7259 41.4034C70.5761 41.4315 70.4213 41.399 70.2953 41.3131C70.1694 41.2273 70.0826 41.095 70.054 40.9453C70.0253 40.7956 70.0572 40.6406 70.1426 40.5143C70.228 40.3881 70.3599 40.3008 70.5095 40.2716C71.4705 40.0878 72.2905 40.3916 72.7591 41.1053C73.3468 42.0002 73.282 43.4215 72.6083 44.4107C72.0018 45.3018 70.9761 45.8062 69.8094 45.8062C69.6638 45.8061 69.5182 45.7984 69.3734 45.7831C67.8888 45.6272 66.638 44.7279 66.1093 43.4361C65.487 41.9157 65.4723 40.5632 66.0649 39.4161C66.3018 38.9653 66.618 38.5609 66.9983 38.2222C65.5165 39.172 63.4687 40.2244 61.6719 40.2246C60.8842 40.2246 60.1452 40.0224 59.5229 39.5208C58.9806 39.0665 58.6071 38.4428 58.4627 37.7502C56.3705 40.1182 55.0308 43.1793 54.8204 46.1602C54.8121 46.2881 54.775 46.4125 54.7117 46.524C54.6484 46.6354 54.5607 46.7311 54.4551 46.8037C54.3678 46.8608 54.2684 46.8965 54.1647 46.908C54.0611 46.9194 53.9562 46.9064 53.8586 46.8698C53.4438 46.7157 53.0909 46.752 52.7792 46.9812C52.2534 47.3681 51.9331 48.241 51.982 49.1535C52.1104 51.5433 53.6689 53.5221 54.884 53.5221C54.9029 53.5221 54.9215 53.5216 54.9401 53.5206C55.1093 53.5123 55.2767 53.5578 55.4184 53.6506C55.56 53.7435 55.6685 53.8789 55.7283 54.0374C57.9016 59.6942 63.184 63.4948 68.8736 63.4948C76.6447 63.4948 82.9667 56.7547 82.9667 48.4699C82.966 45.1191 81.8125 42.0484 79.5375 39.3323ZM55.0395 50.3717C55.028 50.3724 55.0165 50.3728 55.005 50.3728C54.8586 50.3727 54.7177 50.3168 54.611 50.2166C54.5043 50.1164 54.4397 49.9793 54.4304 49.8331C54.4275 49.7925 54.3627 49.0013 53.8294 48.9533C53.754 48.9466 53.6807 48.925 53.6137 48.8899C53.5466 48.8548 53.4872 48.8069 53.4387 48.7488C53.3902 48.6907 53.3536 48.6236 53.331 48.5514C53.3084 48.4792 53.3003 48.4033 53.3071 48.3279C53.3138 48.2525 53.3354 48.1792 53.3705 48.1122C53.4056 48.0452 53.4535 47.9857 53.5116 47.9372C53.5697 47.8887 53.6367 47.8521 53.709 47.8295C53.7812 47.807 53.8571 47.7988 53.9325 47.8056C55.152 47.9153 55.5438 49.1339 55.5803 49.763C55.5894 49.9155 55.5375 50.0653 55.4361 50.1796C55.3347 50.2938 55.192 50.3631 55.0395 50.3722V50.3717ZM64.5063 56.9535C64.1773 56.9539 63.8555 56.8567 63.5818 56.6743C63.308 56.4918 63.0945 56.2322 62.9683 55.9284C62.8421 55.6245 62.8088 55.2901 62.8727 54.9674C62.9366 54.6446 63.0948 54.3481 63.3273 54.1153C63.5598 53.8825 63.8561 53.7238 64.1788 53.6595C64.5014 53.5951 64.8359 53.6279 65.1399 53.7537C65.444 53.8795 65.7038 54.0926 65.8867 54.3662C66.0695 54.6397 66.1671 54.9613 66.1672 55.2903C66.167 55.7309 65.992 56.1535 65.6806 56.4653C65.3693 56.7771 64.9469 56.9527 64.5063 56.9535ZM67.9633 50.0897C67.8792 50.0898 67.7961 50.0715 67.7198 50.036C67.6436 50.0005 67.576 49.9487 67.522 49.8843C67.508 49.8682 67.0265 49.3208 66.3285 49.2774C65.841 49.2464 65.3312 49.4696 64.8153 49.9394C64.7017 50.0376 64.5542 50.0876 64.4043 50.0786C64.2543 50.0697 64.1138 50.0025 64.0126 49.8915C63.9115 49.7804 63.8577 49.6343 63.8627 49.4842C63.8678 49.334 63.9312 49.1918 64.0396 49.0878C64.8008 48.3943 65.6027 48.0721 66.4193 48.1287C67.6188 48.2123 68.3749 49.1076 68.4066 49.1458C68.4765 49.2299 68.5209 49.3323 68.5348 49.4408C68.5486 49.5493 68.5313 49.6595 68.4848 49.7585C68.4384 49.8575 68.3647 49.9413 68.2723 49.9999C68.18 50.0586 68.0729 50.0898 67.9635 50.0899L67.9633 50.0897ZM73.0327 57.256C72.3287 57.8972 71.5909 58.2215 70.8369 58.2215C70.7755 58.2215 70.714 58.2194 70.6525 58.2151C69.4531 58.1315 68.6968 57.2356 68.6652 57.1981C68.5672 57.0809 68.5198 56.9295 68.5335 56.7773C68.5471 56.6251 68.6207 56.4845 68.7379 56.3865C68.8552 56.2885 69.0066 56.2412 69.1588 56.2548C69.311 56.2684 69.4515 56.342 69.5495 56.4592C69.5633 56.4753 70.045 57.0227 70.7431 57.0662C71.2325 57.0975 71.7406 56.8739 72.2563 56.404C72.3692 56.3011 72.5185 56.2473 72.6711 56.2544C72.8238 56.2616 72.9673 56.329 73.0702 56.442C73.1731 56.555 73.2269 56.7042 73.2198 56.8569C73.2127 57.0095 73.1452 57.1531 73.0322 57.256H73.0327ZM74.1787 49.9394C74.0651 50.0376 73.9176 50.0876 73.7676 50.0786C73.6177 50.0697 73.4772 50.0025 73.376 49.8915C73.2749 49.7804 73.2211 49.6343 73.2261 49.4842C73.2311 49.334 73.2946 49.1918 73.403 49.0878C74.1642 48.3943 74.9648 48.0721 75.7828 48.1287C76.9821 48.2124 77.7384 49.1076 77.77 49.1458C77.8663 49.2632 77.9123 49.414 77.898 49.5652C77.8837 49.7164 77.8103 49.8558 77.6938 49.9532C77.5772 50.0506 77.4269 50.098 77.2756 50.0851C77.1243 50.0723 76.9841 50.0002 76.8857 49.8845C76.8716 49.8684 76.3902 49.3212 75.6922 49.2776C75.2049 49.2463 74.6949 49.4696 74.1789 49.9394H74.1787ZM78.239 56.9535C77.91 56.9539 77.5882 56.8567 77.3145 56.6743C77.0407 56.4918 76.8272 56.2322 76.701 55.9284C76.5748 55.6245 76.5415 55.2901 76.6054 54.9674C76.6693 54.6446 76.8276 54.3481 77.06 54.1153C77.2925 53.8825 77.5888 53.7238 77.9115 53.6595C78.2341 53.5951 78.5686 53.6279 78.8727 53.7537C79.1767 53.8795 79.4365 54.0926 79.6194 54.3662C79.8022 54.6397 79.8999 54.9613 79.8999 55.2903C79.8997 55.7309 79.7248 56.1535 79.4134 56.4652C79.1021 56.777 78.6798 56.9526 78.2392 56.9535H78.239Z" fill="white"/>
<path d="M48.7673 58.3066L48.4391 58.1777C47.7029 59.3285 45.652 63.0709 47.5428 66.5342C48.2374 66.6082 48.9235 66.7471 49.5922 66.949C49.0917 65.2205 48.6191 61.9921 50.5645 58.7195C49.9484 58.6709 49.3428 58.5318 48.7673 58.3066Z" fill="white"/>
<path d="M33.8062 66.8503C33.6632 70.0523 34.5284 72.5559 36.378 74.2912C37.1306 74.9839 37.9945 75.5449 38.9334 75.9506C38.5647 74.3015 38.1942 71.2169 39.8227 68.9811C41.0738 67.2633 43.2299 66.4184 46.2265 66.4557C45.4402 64.6326 45.3979 62.5515 46.1185 60.3725C46.4257 59.4536 46.8372 58.573 47.3451 57.7479L47.1117 57.6563C44.907 56.7795 42.472 56.667 40.1958 57.3369C36.1838 58.5511 34.0339 61.7521 33.8062 66.8503ZM37.0806 61.4804C37.1966 61.3245 37.3179 61.1716 37.4415 61.0259C37.49 60.967 37.5498 60.9184 37.6173 60.8829C37.6848 60.8473 37.7587 60.8255 37.8347 60.8187C37.9107 60.8119 37.9873 60.8203 38.06 60.8434C38.1328 60.8664 38.2002 60.9037 38.2584 60.9531C38.3166 61.0024 38.3645 61.0628 38.3991 61.1308C38.4338 61.1987 38.4546 61.2729 38.4604 61.349C38.4662 61.4251 38.4568 61.5016 38.4328 61.574C38.4087 61.6464 38.3706 61.7133 38.3205 61.7709C38.2127 61.8977 38.1064 62.032 38.0046 62.1686C37.96 62.2307 37.9035 62.2834 37.8383 62.3235C37.7731 62.3635 37.7006 62.3902 37.625 62.4019C37.5494 62.4137 37.4722 62.4103 37.3979 62.3918C37.3236 62.3734 37.2538 62.3404 37.1924 62.2947C37.131 62.249 37.0794 62.1915 37.0405 62.1257C37.0016 62.0598 36.9761 61.9868 36.9657 61.911C36.9553 61.8352 36.9601 61.7581 36.9798 61.6841C36.9995 61.6102 37.0338 61.5409 37.0806 61.4804ZM36.9705 63.9852C36.4039 65.3129 36.0758 66.8972 35.9956 68.6938C35.989 68.842 35.9256 68.9819 35.8185 69.0844C35.7113 69.187 35.5688 69.2443 35.4205 69.2444C35.4117 69.2444 35.403 69.2444 35.3943 69.2444C35.2418 69.2375 35.0982 69.1703 34.9952 69.0575C34.8921 68.9448 34.8381 68.7957 34.8449 68.6431C34.9313 66.7072 35.29 64.9887 35.911 63.5334C35.971 63.3928 36.0844 63.2818 36.2263 63.2248C36.3681 63.1679 36.5267 63.1695 36.6673 63.2295C36.8079 63.2895 36.9189 63.4029 36.9759 63.5447C37.0329 63.6866 37.0312 63.8452 36.9712 63.9858L36.9705 63.9852Z" fill="white"/>
<path d="M67.903 68.8038C71.0663 73.7071 77.3542 74.1269 79.9618 74.0749C80.2553 74.0693 80.5438 73.9986 80.8066 73.8677C81.0693 73.7368 81.2996 73.5491 81.4808 73.3182C81.6526 73.1062 81.7744 72.8581 81.8369 72.5924C81.8995 72.3268 81.9013 72.0504 81.8422 71.784C81.6558 70.934 80.8782 70.3718 79.5311 70.1131C75.3441 69.3085 72.3619 65.5433 71.54 64.3983C70.6605 64.5636 69.7675 64.6467 68.8726 64.6465C63.6212 64.6465 58.6974 61.6699 55.9053 57.0166L53.9836 58.0231C53.3536 58.3524 52.6723 58.5725 51.9687 58.6741C50.7071 60.4351 50.1329 62.5967 50.3543 64.7516C50.4386 65.6959 50.6574 66.6233 51.004 67.5057C51.4014 67.7005 51.7834 67.9253 52.1465 68.1782C53.5489 69.1689 54.6196 70.5597 55.2188 72.1688C55.6544 73.3377 55.8736 74.5762 55.8655 75.8237C56.5893 75.6104 57.7579 75.1724 58.6585 74.3886C57.9161 73.2198 57.4079 71.9178 57.1625 70.555C57.1354 70.4046 57.1691 70.2496 57.2563 70.1241C57.3435 69.9986 57.4769 69.9129 57.6273 69.8857C57.7777 69.8586 57.9327 69.8924 58.0582 69.9796C58.1837 70.0667 58.2695 70.2002 58.2966 70.3506C58.7481 72.856 60.1634 75.0478 62.5051 76.8653C64.4925 78.4079 66.7239 79.3521 68.2459 79.8729C68.5236 79.9682 68.819 80.0006 69.1107 79.9677C69.4024 79.9348 69.6832 79.8375 69.9326 79.6827C70.1668 79.5424 70.3664 79.351 70.5163 79.1228C70.6663 78.8947 70.7629 78.6356 70.7988 78.3649C70.9153 77.5029 70.3779 76.7083 69.2015 76.0039C64.968 73.4679 63.6126 67.7572 63.557 67.5154C63.5401 67.4416 63.5378 67.3653 63.5503 67.2907C63.5628 67.216 63.5899 67.1446 63.63 67.0805C63.6702 67.0163 63.7225 66.9607 63.7842 66.9168C63.8458 66.8729 63.9154 66.8415 63.9892 66.8245C64.0629 66.8076 64.1393 66.8053 64.2139 66.8178C64.2885 66.8303 64.3599 66.8574 64.4241 66.8975C64.4882 66.9377 64.5439 66.99 64.5878 67.0517C64.6317 67.1133 64.663 67.1829 64.68 67.2567C64.8663 67.976 65.1048 68.6808 65.3935 69.3655C67.7136 67.8063 68.1159 66.5317 68.12 66.5181C68.1392 66.4452 68.1726 66.3768 68.2183 66.3168C68.2641 66.2568 68.3212 66.2065 68.3864 66.1687C68.4517 66.1309 68.5238 66.1063 68.5985 66.0964C68.6733 66.0865 68.7493 66.0915 68.8221 66.1111C68.9701 66.151 69.0963 66.2478 69.1732 66.3804C69.25 66.513 69.2713 66.6707 69.2323 66.8189C69.1997 66.9438 68.9605 67.7286 67.903 68.8038Z" fill="white"/>
<path d="M32.1559 79.501C32.0623 79.7566 32.0217 80.0287 32.0367 80.3005C32.0517 80.5724 32.1219 80.8383 32.2432 81.0821C32.2623 81.1204 32.2826 81.1579 32.304 81.1953C32.4495 81.4482 32.6441 81.6694 32.8762 81.8461C33.1084 82.0228 33.3736 82.1513 33.6561 82.2241C33.9386 82.2969 34.2328 82.3125 34.5215 82.2701C34.8102 82.2276 35.0874 82.1279 35.337 81.9768L36.8975 81.0319C37.2396 80.8239 37.6407 80.7347 38.0386 80.778C38.4366 80.8213 38.8091 80.9947 39.0985 81.2713C40.8665 82.9736 43.138 84.1422 45.3306 84.4774C47.8814 84.8678 50.2314 84.1382 52.1266 82.3686C54.5415 80.1138 55.4078 75.905 54.1416 72.5784C52.9564 69.4645 50.1922 67.6996 46.3581 67.6085C43.6792 67.5454 41.7914 68.2348 40.7538 69.6596C39.106 71.9228 39.9605 75.4483 40.2501 76.4431C43.4421 77.4351 46.6421 77.1091 46.688 77.1041C46.8394 77.0884 46.9908 77.1333 47.1093 77.2289C47.2277 77.3245 47.3035 77.463 47.3201 77.6143C47.3367 77.7656 47.2928 77.9173 47.198 78.0363C47.1031 78.1553 46.965 78.232 46.8139 78.2495C46.3085 78.2971 45.8011 78.3192 45.2936 78.3157C44.454 78.3157 43.6153 78.2635 42.7822 78.1593C40.6926 77.8961 38.8518 77.3066 37.3488 76.4308L33.3142 78.2465C33.0469 78.3673 32.8066 78.5406 32.6076 78.7561C32.4087 78.9716 32.2551 79.2249 32.1559 79.501Z" fill="white"/>
</svg>
