<svg width="397" height="79" viewBox="0 0 397 79" fill="none" xmlns="http://www.w3.org/2000/svg">
<g filter="url(#filter0_d)">
<path d="M44 13H360C374.912 13 387 25.0883 387 40C387 54.9117 374.912 67 360 67H44V13Z" fill="white"/>
</g>
<g filter="url(#filter1_d)">
<circle cx="39.5" cy="39.5" r="29.5" fill="white"/>
</g>
<path d="M61 50.9458H44.0509C44.0509 48.4325 42.0132 46.3939 39.5 46.3939C36.9858 46.3939 34.9481 48.4325 34.9481 50.9458H18C18 39.0717 27.6259 29.4458 39.5 29.4458C51.3741 29.4458 61 39.0717 61 50.9458Z" fill="#FA496E"/>
<path d="M46.8765 50.9458H44.0508C44.0508 48.4325 42.0131 46.3939 39.4998 46.3939C36.9857 46.3939 34.948 48.4325 34.948 50.9458H32.1232C32.1232 46.8722 35.4263 43.5699 39.4998 43.5699C43.5734 43.5699 46.8765 46.8722 46.8765 50.9458Z" fill="#A67EFF"/>
<path d="M49.7005 50.9458H46.8765C46.8765 46.8723 43.5734 43.57 39.4998 43.57C35.4263 43.57 32.1232 46.8723 32.1232 50.9458H29.2992C29.2992 45.312 33.866 40.7452 39.4998 40.7452C45.1337 40.7452 49.7005 45.3119 49.7005 50.9458Z" fill="#52DBFF"/>
<path d="M52.5253 50.9458H49.7005C49.7005 45.312 45.1338 40.7452 39.4998 40.7452C33.8659 40.7452 29.2992 45.3119 29.2992 50.9458H26.4744C26.4744 43.7516 32.3057 37.9203 39.4998 37.9203C46.694 37.9203 52.5253 43.7516 52.5253 50.9458Z" fill="#00DCAB"/>
<path d="M58.175 50.9458H55.3502C55.3502 42.1922 48.2544 35.0955 39.4999 35.0955C30.7463 35.0955 23.6496 42.1923 23.6496 50.9458H20.8246C20.8246 40.632 29.186 32.2706 39.4998 32.2706C49.8137 32.2706 58.175 40.632 58.175 50.9458Z" fill="#FF8522"/>
<path d="M55.3501 50.9458H52.5253C52.5253 43.7516 46.694 37.9203 39.4998 37.9203C32.3056 37.9203 26.4744 43.7516 26.4744 50.9458H23.6495C23.6495 42.1922 30.7462 35.0955 39.4997 35.0955C48.2543 35.0954 55.3501 42.1922 55.3501 50.9458Z" fill="#FFDD00"/>
<path d="M39.5 27.2318C39.1364 27.2318 38.8418 26.9371 38.8418 26.5736V22.7124C38.8418 22.3489 39.1364 22.0542 39.5 22.0542C39.8636 22.0542 40.1582 22.3489 40.1582 22.7124V26.5737C40.1582 26.9371 39.8636 27.2318 39.5 27.2318Z" fill="#FF8522"/>
<path d="M49.471 29.4242C49.3816 29.4242 49.2908 29.406 49.2039 29.3673C48.8717 29.2195 48.7223 28.8306 48.87 28.4984L50.4393 24.9705C50.5872 24.6383 50.9762 24.4889 51.308 24.6366C51.6402 24.7844 51.7896 25.1734 51.642 25.5055L50.0726 29.0335C49.9638 29.2785 49.7231 29.4242 49.471 29.4242Z" fill="#52DBFF"/>
<path d="M57.016 34.7504C56.8451 34.7504 56.6742 34.6842 56.5454 34.5523C56.2912 34.2925 56.2959 33.8758 56.5558 33.6216L59.3167 30.9222C59.5766 30.6681 59.9934 30.6728 60.2473 30.9327C60.5015 31.1925 60.4968 31.6093 60.2369 31.8634L57.476 34.5628C57.348 34.688 57.1819 34.7504 57.016 34.7504Z" fill="#FFDD00"/>
<path d="M29.5289 29.4242C29.2769 29.4242 29.0364 29.2785 28.9273 29.0334L27.358 25.5054C27.2101 25.1733 27.3597 24.7843 27.6919 24.6365C28.0238 24.4887 28.413 24.6383 28.5606 24.9704L30.1299 28.4983C30.2778 28.8305 30.1282 29.2194 29.796 29.3672C29.7092 29.4058 29.6183 29.4242 29.5289 29.4242Z" fill="#FA496E"/>
<path d="M21.984 34.7503C21.818 34.7503 21.652 34.6879 21.524 34.5627L18.7632 31.8633C18.5032 31.6092 18.4985 31.1925 18.7528 30.9326C19.0067 30.6727 19.4235 30.6679 19.6834 30.9222L22.4441 33.6216C22.704 33.8757 22.7088 34.2924 22.4545 34.5523C22.3257 34.6842 22.155 34.7503 21.984 34.7503Z" fill="#A67EFF"/>
<defs>
<filter id="filter0_d" x="34" y="3" width="363" height="74" filterUnits="userSpaceOnUse" color-interpolation-filters="sRGB">
<feFlood flood-opacity="0" result="BackgroundImageFix"/>
<feColorMatrix in="SourceAlpha" type="matrix" values="0 0 0 0 0 0 0 0 0 0 0 0 0 0 0 0 0 0 127 0"/>
<feOffset/>
<feGaussianBlur stdDeviation="5"/>
<feColorMatrix type="matrix" values="0 0 0 0 0 0 0 0 0 0 0 0 0 0 0 0 0 0 0.25 0"/>
<feBlend mode="normal" in2="BackgroundImageFix" result="effect1_dropShadow"/>
<feBlend mode="normal" in="SourceGraphic" in2="effect1_dropShadow" result="shape"/>
</filter>
<filter id="filter1_d" x="0" y="0" width="79" height="79" filterUnits="userSpaceOnUse" color-interpolation-filters="sRGB">
<feFlood flood-opacity="0" result="BackgroundImageFix"/>
<feColorMatrix in="SourceAlpha" type="matrix" values="0 0 0 0 0 0 0 0 0 0 0 0 0 0 0 0 0 0 127 0"/>
<feOffset/>
<feGaussianBlur stdDeviation="5"/>
<feColorMatrix type="matrix" values="0 0 0 0 0 0 0 0 0 0 0 0 0 0 0 0 0 0 0.25 0"/>
<feBlend mode="normal" in2="BackgroundImageFix" result="effect1_dropShadow"/>
<feBlend mode="normal" in="SourceGraphic" in2="effect1_dropShadow" result="shape"/>
</filter>
</defs>
</svg>
