<svg width="70" height="73" viewBox="0 0 70 73" fill="none" xmlns="http://www.w3.org/2000/svg">
<path d="M10.2326 57.0339C9.87847 57.4577 9.93494 58.0884 10.3587 58.4425L17.265 64.2135C17.6888 64.5676 18.3194 64.5111 18.6735 64.0873C19.0277 63.6635 18.9712 63.0329 18.5474 62.6787L12.4085 57.549L17.5383 51.4101C17.8924 50.9863 17.8359 50.3557 17.4121 50.0016C16.9883 49.6474 16.3577 49.7039 16.0036 50.1277L10.2326 57.0339ZM43.5921 2.91905C44.2718 4.39182 44.8696 5.86422 45.3866 7.33175L47.273 6.66713C46.7347 5.13937 46.1133 3.60911 45.408 2.08093L43.5921 2.91905ZM47.5978 16.5509C48.0072 19.7855 48.0155 22.947 47.637 25.9847L49.6216 26.2319C50.0216 23.0214 50.0114 19.6923 49.582 16.2998L47.5978 16.5509ZM45.1942 35.0592C43.96 37.9278 42.3116 40.607 40.2611 43.0384L41.79 44.3278C43.9677 41.7456 45.7198 38.8981 47.0314 35.8496L45.1942 35.0592ZM33.2481 49.3083C30.7534 50.995 27.9469 52.4452 24.8351 53.6148L25.5387 55.4869C28.7899 54.2649 31.7372 52.744 34.3683 50.9652L33.2481 49.3083ZM15.6562 56.0653C14.1265 56.3271 12.5445 56.5328 10.9108 56.6791L11.0892 58.6712C12.7746 58.5202 14.4096 58.3077 15.9936 58.0366L15.6562 56.0653ZM9.46524 56.3927C8.75697 57.2403 8.86992 58.5016 9.71752 59.2099L23.53 70.7518C24.3776 71.46 25.6389 71.3471 26.3471 70.4995C27.0554 69.6519 26.9425 68.3906 26.0949 67.6823L13.8171 57.4229L24.0766 45.1451C24.7849 44.2975 24.6719 43.0362 23.8243 42.328C22.9767 41.6197 21.7154 41.7326 21.0072 42.5802L9.46524 56.3927ZM42.6841 3.33811C43.3511 4.78317 43.937 6.22664 44.4435 7.66406L48.2162 6.33482C47.6673 4.77695 47.034 3.21776 46.3159 1.66187L42.6841 3.33811ZM46.6057 16.6765C47.0051 19.8321 47.0124 22.9098 46.6446 25.861L50.6139 26.3556C51.0247 23.0586 51.0135 19.6457 50.5741 16.1742L46.6057 16.6765ZM44.2756 34.664C43.0801 37.4426 41.4835 40.0378 39.4967 42.3937L42.5545 44.9725C44.7957 42.3148 46.5997 39.3832 47.95 36.2449L44.2756 34.664ZM32.688 48.4799C30.2615 50.1204 27.5254 51.5353 24.4832 52.6787L25.8906 56.423C29.2114 55.1748 32.2291 53.6186 34.9284 51.7936L32.688 48.4799ZM15.4875 55.0796C13.985 55.3368 12.4295 55.5391 10.8216 55.6831L11.1784 59.6672C12.8896 59.5139 14.5512 59.2981 16.1623 59.0223L15.4875 55.0796Z" fill="white"/>
</svg>
