<svg width="59" height="59" viewBox="0 0 59 59" fill="none" xmlns="http://www.w3.org/2000/svg">
<path d="M53.8248 1.77483H49.6989C49.2145 1.77483 48.8219 2.16744 48.8219 2.65177C48.8219 3.1361 49.2145 3.5287 49.6989 3.5287H53.8248C55.7113 3.5287 57.2461 5.0635 57.2461 6.95V42.0731C57.2461 43.9596 55.7113 45.4944 53.8248 45.4944H29.6276C27.741 45.4944 26.2063 43.9596 26.2063 42.0731V6.94988C26.2063 5.06339 27.7411 3.52858 29.6276 3.52858H46.776C47.2603 3.52858 47.6529 3.13598 47.6529 2.65165C47.6529 2.16732 47.2603 1.77472 46.776 1.77472H29.6276C26.774 1.77472 24.4525 4.09623 24.4525 6.94988V42.073C24.4525 44.9267 26.774 47.2482 29.6276 47.2482H53.8248C56.6785 47.2482 59 44.9267 59 42.073V6.94988C58.9999 4.09634 56.6784 1.77483 53.8248 1.77483Z" fill="#FF9226"/>
<path d="M22.4809 11.7518H5.17517C2.32151 11.7518 0 14.0733 0 16.927V40.0299C0 40.5142 0.392603 40.9069 0.876932 40.9069C1.36126 40.9069 1.75386 40.5142 1.75386 40.0299V16.927C1.75386 15.0404 3.28867 13.5057 5.17528 13.5057H22.481C22.9654 13.5057 23.358 13.1131 23.358 12.6287C23.358 12.1444 22.9652 11.7518 22.4809 11.7518Z" fill="#FF9226"/>
<path d="M33.6706 48.3394C33.1863 48.3394 32.7937 48.732 32.7937 49.2164V52.0501C32.7937 53.9367 31.2589 55.4714 29.3724 55.4714H5.17517C3.28855 55.4714 1.75375 53.9365 1.75375 52.0501V42.953C1.75375 42.4687 1.36115 42.0761 0.876817 42.0761C0.392488 42.0761 0 42.4687 0 42.953V52.0501C0 54.9037 2.32151 57.2252 5.17517 57.2252H29.3724C32.226 57.2252 34.5475 54.9037 34.5475 52.0501V49.2164C34.5475 48.732 34.1549 48.3394 33.6706 48.3394Z" fill="#FF9226"/>
<path d="M49.6226 24.5115L52.8113 18.9883C52.9681 18.717 52.9681 18.3826 52.8113 18.1113C52.6546 17.8401 52.3653 17.6729 52.052 17.6729H45.6742L42.4854 12.1497C42.3287 11.8783 42.0394 11.7112 41.7261 11.7112C41.4127 11.7112 41.1234 11.8783 40.9667 12.1497L37.7779 17.6729H31.4003C31.0869 17.6729 30.7976 17.8401 30.6409 18.1113C30.4842 18.3826 30.4842 18.717 30.6409 18.9883L33.8296 24.5115L30.6409 30.0346C30.4842 30.3059 30.4842 30.6403 30.6409 30.9116C30.7976 31.1828 31.0869 31.35 31.4003 31.35H37.7779L40.9667 36.8732C41.1234 37.1444 41.4127 37.3117 41.7261 37.3117C42.0393 37.3117 42.3288 37.1444 42.4854 36.8732L45.6742 31.35H52.052C52.3653 31.35 52.6546 31.1828 52.8113 30.9116C52.9681 30.6403 52.9681 30.3059 52.8113 30.0346L49.6226 24.5115ZM50.5333 19.4266L48.6101 22.7576L46.687 19.4266H50.5333ZM41.7262 14.3419L43.6493 17.6729H39.8029L41.7262 14.3419ZM32.9191 19.4266H36.7655L34.8423 22.7576L32.9191 19.4266ZM32.9191 29.5962L34.8422 26.2652L36.7653 29.5962H32.9191ZM41.7262 34.681L39.803 31.35H43.6494L41.7262 34.681ZM44.6618 29.5962H38.7904L35.8546 24.5115L38.7904 19.4267H44.6618L47.5975 24.5115L44.6618 29.5962ZM46.6869 29.5962L48.61 26.2652L50.5332 29.5962H46.6869Z" fill="#FF9226"/>
<path d="M35.3541 8.02593H34.1265V6.79823C34.1265 6.31401 33.7339 5.9213 33.2496 5.9213C32.7652 5.9213 32.3726 6.3139 32.3726 6.79823V8.02582H31.145C30.6608 8.02582 30.2681 8.41842 30.2681 8.90275C30.2681 9.38708 30.6607 9.77968 31.145 9.77968H32.3726V11.0073C32.3726 11.4916 32.7652 11.8842 33.2496 11.8842C33.7339 11.8842 34.1265 11.4916 34.1265 11.0073V9.77968H35.3541C35.8384 9.77968 36.231 9.38708 36.231 8.90275C36.231 8.41842 35.8384 8.02593 35.3541 8.02593Z" fill="#FF9226"/>
<path d="M52.3072 39.2431H51.0796V38.0155C51.0796 37.5312 50.687 37.1386 50.2027 37.1386C49.7183 37.1386 49.3257 37.5312 49.3257 38.0155V39.2431H48.0982C47.6138 39.2431 47.2212 39.6357 47.2212 40.12C47.2212 40.6043 47.6138 40.997 48.0982 40.997H49.3257V42.2246C49.3257 42.7089 49.7183 43.1015 50.2027 43.1015C50.687 43.1015 51.0796 42.7089 51.0796 42.2246V40.997H52.3072C52.7915 40.997 53.1841 40.6044 53.1841 40.12C53.184 39.6357 52.7914 39.2431 52.3072 39.2431Z" fill="#FF9226"/>
<path d="M10.9017 18.0029H9.67414V16.7753C9.67414 16.291 9.28154 15.8984 8.79721 15.8984C8.31288 15.8984 7.92028 16.291 7.92028 16.7753V18.0029H6.69269C6.20836 18.0029 5.81576 18.3955 5.81576 18.8799C5.81576 19.3642 6.20836 19.7568 6.69269 19.7568H7.92028V20.9844C7.92028 21.4687 8.31288 21.8613 8.79721 21.8613C9.28154 21.8613 9.67414 21.4687 9.67414 20.9844V19.7568H10.9017C11.3861 19.7568 11.7787 19.3642 11.7787 18.8799C11.7787 18.3955 11.3861 18.0029 10.9017 18.0029Z" fill="#FF9226"/>
<path d="M27.8547 49.2203H26.6272V47.9927C26.6272 47.5083 26.2346 47.1158 25.7502 47.1158C25.2659 47.1158 24.8733 47.5084 24.8733 47.9927V49.2203H23.6457C23.1614 49.2203 22.7688 49.6129 22.7688 50.0972C22.7688 50.5816 23.1614 50.9742 23.6457 50.9742H24.8733V52.2018C24.8733 52.6861 25.2659 53.0787 25.7502 53.0787C26.2344 53.0787 26.6272 52.6861 26.6272 52.2018V50.9742H27.8547C28.3391 50.9742 28.7317 50.5816 28.7317 50.0972C28.7317 49.6129 28.3391 49.2203 27.8547 49.2203Z" fill="#FF9226"/>
<path d="M22.3308 42.1663C18.7087 44.5577 13.8486 44.062 10.7745 40.9878C7.19073 37.404 7.19073 31.5728 10.7745 27.9889C11.8501 26.9133 13.1434 26.1395 14.5467 25.7047C14.5133 25.737 14.4802 25.7695 14.4474 25.8023C11.2734 28.9763 11.2734 34.1408 14.4474 37.3148C16.766 39.6334 20.2277 40.3352 23.2665 39.1029C23.7153 38.9208 23.9315 38.4095 23.7495 37.9607C23.5675 37.5121 23.0559 37.2958 22.6073 37.4779C20.2228 38.4448 17.5067 37.8941 15.6873 36.0749C13.1971 33.5847 13.1971 29.5328 15.6873 27.0425C16.5222 26.2076 17.5677 25.6219 18.711 25.3483C19.1237 25.2497 19.4065 24.8696 19.3826 24.446C19.3586 24.0224 19.0351 23.6767 18.6139 23.625C15.2427 23.2114 11.9331 24.3499 9.53436 26.7486C7.46706 28.8159 6.32854 31.5645 6.32854 34.4881C6.32854 37.4117 7.46706 40.1604 9.53436 42.2276C11.6436 44.3368 14.4588 45.4265 17.2916 45.4265C19.3752 45.4265 21.4687 44.8367 23.297 43.6295C23.7012 43.3627 23.8124 42.8187 23.5456 42.4146C23.2788 42.0105 22.7348 41.8993 22.3308 42.1663Z" fill="#FF9226"/>
</svg>
