<svg width="115" height="115" viewBox="0 0 115 115" fill="none" xmlns="http://www.w3.org/2000/svg">
<circle cx="57.5" cy="57.5" r="57.5" fill="#FF9226"/>
<g clip-path="url(#clip0)">
<path d="M58 97.9998C47.3157 97.9998 37.2707 93.8391 29.7157 86.2843C22.1608 78.7291 18 68.6843 18 58C18 49.8694 20.427 42.0424 25.0187 35.3654C25.5076 34.6542 26.4804 34.4746 27.1915 34.9632C27.9026 35.4523 28.0826 36.4249 27.5936 37.136C23.3619 43.2899 21.125 50.5046 21.125 58C21.125 78.3329 37.6671 94.8749 58 94.8749C78.3329 94.8749 94.875 78.3329 94.875 58C94.875 37.6671 78.3329 21.125 58 21.125C50.5052 21.125 43.2902 23.362 37.1351 27.5943C36.424 28.0829 35.4513 27.9034 34.9623 27.1922C34.4734 26.4811 34.6534 25.5083 35.3645 25.0193C42.0429 20.4273 49.8702 18 58 18C68.6843 18 78.7293 22.1608 86.2843 29.7156C93.8394 37.2707 98 47.3155 98 58C98 68.6843 93.8394 78.7293 86.2843 86.2843C78.7293 93.8392 68.6843 97.9998 58 97.9998Z" fill="white"/>
<path d="M58 91.75C48.9851 91.75 40.5098 88.2394 34.1351 81.8648C27.7606 75.4904 24.25 67.015 24.25 58C24.25 48.9851 27.7606 40.5098 34.1351 34.1351C40.5098 27.7606 48.9851 24.25 58 24.25C67.015 24.25 75.4903 27.7606 81.8649 34.1351C88.2394 40.5098 91.75 48.9851 91.75 58C91.75 64.4261 89.9355 70.6778 86.5026 76.0792C86.0398 76.8074 85.0738 77.0226 84.3459 76.5596C83.6176 76.0968 83.4023 75.131 83.8652 74.4028C86.9791 69.5034 88.6251 63.8312 88.6251 57.9999C88.6251 41.1134 74.8867 27.375 58 27.375C41.1134 27.375 27.375 41.1134 27.375 58C27.375 74.8867 41.1134 88.6251 58 88.6251C63.8316 88.6251 69.5033 86.9794 74.402 83.8659C75.1306 83.4029 76.0959 83.618 76.5589 84.3463C77.0218 85.0746 76.8067 86.0404 76.0784 86.5032C70.6776 89.9358 64.4262 91.75 58 91.75Z" fill="white"/>
<path d="M30.8195 32.3836C30.4424 32.3836 30.0642 32.2479 29.7644 31.9729C29.1283 31.39 29.0849 30.402 29.668 29.7659L29.6688 29.765C30.2517 29.129 31.2402 29.0857 31.8764 29.669C32.5125 30.252 32.5555 31.2404 31.9724 31.8765C31.6642 32.2128 31.2425 32.3836 30.8195 32.3836Z" fill="white"/>
<path d="M80.7585 82.3229C80.4059 82.3229 80.0515 82.2042 79.7593 81.961C79.0963 81.4085 79.0065 80.4237 79.5588 79.7609L79.5596 79.7599C80.1121 79.0971 81.0973 79.0076 81.7602 79.5598C82.4232 80.1123 82.5127 81.0976 81.9602 81.7604C81.6513 82.1313 81.2063 82.3229 80.7585 82.3229Z" fill="white"/>
<path d="M67.2238 82.0033C66.2263 82.0033 65.2135 81.8746 64.2052 81.6042C60.3552 80.5727 57.2365 77.563 56.0657 73.7494C55.8038 72.8966 55.6393 72.0247 55.5768 71.1583C55.5768 71.1574 55.5766 71.1565 55.5766 71.1557C55.3948 68.5798 57.3426 66.3362 59.9183 66.1545C61.1671 66.0662 62.3735 66.4698 63.318 67.2896C64.2627 68.1096 64.8314 69.2485 64.9194 70.4962C64.9325 70.6773 64.963 70.848 65.01 71.0008C65.2485 71.7777 65.8371 72.3441 66.6252 72.5552C67.2277 72.7163 67.8528 72.6368 68.385 72.3304C68.9167 72.0241 69.2983 71.5243 69.4594 70.9227C69.6219 70.3163 69.5417 69.6888 69.2341 69.1557L64.24 60.4865H57.5607L50.5299 76.5769C50.0312 77.7211 49.1156 78.6038 47.9524 79.0607C46.7892 79.5178 45.5176 79.4943 44.3721 78.9949C43.2856 78.5214 42.4264 77.6621 41.9529 76.5754L34.9227 60.4865H34.838C32.2533 60.4865 30.1505 58.3837 30.1505 55.799C30.1505 53.2144 32.2533 51.1115 34.838 51.1115L37.9844 51.1201C39.8423 51.1211 41.5254 52.2237 42.2689 53.9297L46.2417 63.0215L50.0957 54.2015C50.7663 52.3503 52.5291 51.1115 54.5034 51.1115H59.5338C59.1791 49.3553 59.2291 47.522 59.6952 45.7824C60.5004 42.7777 62.4346 40.2616 65.1414 38.6978C67.8488 37.1338 70.9942 36.7157 73.9983 37.521C80.22 39.188 83.9259 45.6041 82.2595 51.8237C81.4526 54.8354 79.5206 57.3531 76.8194 58.9128C76.7319 58.9634 76.6406 59.0123 76.5486 59.0579C75.9417 59.389 75.315 59.6642 74.6781 59.8793L77.3572 64.5299C78.9006 67.2279 79.3086 70.3562 78.5084 73.3429C77.1112 78.5561 72.3795 82.0033 67.2238 82.0033ZM58.6938 70.9358C58.7396 71.5671 58.8605 72.2051 59.053 72.8326C59.9107 75.626 62.1946 77.8305 65.0138 78.5858C69.5686 79.8058 74.2683 77.0916 75.4895 72.5344C76.075 70.3494 75.7756 68.0593 74.6466 66.0859L70.9213 59.6187C70.6608 59.1668 70.6433 58.6148 70.8741 58.1471C71.105 57.6795 71.5541 57.3578 72.0711 57.2898C72.4442 57.2407 72.8202 57.1656 73.1889 57.0668C73.8292 56.8953 74.4644 56.6376 75.0767 56.3011C75.1009 56.2876 75.1255 56.2751 75.1505 56.2631C75.1856 56.2462 75.2203 56.2276 75.2547 56.2078C77.2348 55.0647 78.6498 53.2209 79.2408 51.0155C80.4612 46.4603 77.7466 41.761 73.1892 40.5399C70.9914 39.951 68.6885 40.258 66.7044 41.4042C64.72 42.5506 63.3027 44.3928 62.7135 46.5914C62.2291 48.3998 62.3591 50.3464 63.0797 52.0725C63.281 52.5548 63.2279 53.1058 62.9382 53.5406C62.6485 53.9756 62.1604 54.2368 61.6379 54.2368H54.5032C53.8373 54.2368 53.2437 54.6592 53.026 55.2881C53.0127 55.3268 52.9977 55.365 52.9813 55.4025L47.6734 67.5499C47.4246 68.1191 46.8626 68.4868 46.2415 68.4868C45.6204 68.4868 45.0584 68.119 44.8096 67.5499L39.4045 55.1798C39.157 54.612 38.5976 54.2456 37.979 54.2454L34.8334 54.2368C33.9761 54.2368 33.2752 54.9378 33.2752 55.7993C33.2752 56.6609 33.9761 57.3618 34.8377 57.3618H35.9447C36.5658 57.3618 37.1278 57.7296 37.3765 58.2987L44.817 75.326C44.9748 75.6882 45.2598 75.9735 45.6206 76.1305C46.0012 76.2966 46.4232 76.3041 46.8095 76.1524C47.1957 76.0007 47.4998 75.7075 47.6656 75.3272L55.1063 58.2989C55.3551 57.7296 55.9171 57.362 56.5382 57.362H65.143C65.7018 57.362 66.218 57.6603 66.4969 58.1445L71.9411 67.5949C72.6655 68.8494 72.8564 70.3191 72.478 71.7319C72.1003 73.141 71.2008 74.3152 69.9449 75.0388C68.6906 75.7611 67.2246 75.9519 65.8166 75.5743C63.9938 75.086 62.5755 73.7194 62.0229 71.9187C61.9069 71.5413 61.8329 71.1377 61.8025 70.7193C61.7732 70.3015 61.584 69.9226 61.2696 69.6499C60.9554 69.3771 60.5532 69.2427 60.1385 69.2723C59.2813 69.3324 58.6333 70.0788 58.6938 70.9358ZM70.9772 54.2368H68.7241C68.1653 54.2368 67.6491 53.9386 67.3702 53.4544L66.2622 51.5311C65.5377 50.2753 65.3471 48.8061 65.7252 47.3937C66.1028 45.9847 67.003 44.8103 68.26 44.0867C69.5144 43.3644 70.98 43.1744 72.3867 43.5513C75.2817 44.327 77.0055 47.3152 76.2291 50.2125C75.5842 52.6197 73.4736 54.2368 70.9772 54.2368ZM69.6272 51.1119H70.9774C72.0394 51.1119 72.937 50.4255 73.2106 49.4039C73.5466 48.1502 72.8294 46.9053 71.578 46.5698C70.9764 46.4084 70.3516 46.4884 69.8191 46.795C69.2869 47.1014 68.905 47.6012 68.7439 48.2025C68.5814 48.8089 68.6616 49.4366 68.9694 49.9698C68.9696 49.9703 68.9699 49.9708 68.97 49.9711L69.6272 51.1119Z" fill="white"/>
</g>
<defs>
<clipPath id="clip0">
<rect x="18" y="18" width="80" height="80" fill="white"/>
</clipPath>
</defs>
</svg>
