<svg width="115" height="115" viewBox="0 0 115 115" fill="none" xmlns="http://www.w3.org/2000/svg">
<circle cx="57.5" cy="57.5" r="57.5" fill="#FF9226"/>
<g clip-path="url(#clip0)">
<path d="M57.9999 98C47.3156 98 37.2707 93.8392 29.7156 86.2844C22.1606 78.7294 18 68.6844 18 58.0001C18 49.8695 20.427 42.0425 25.0187 35.3654C25.5076 34.6542 26.4805 34.4747 27.1915 34.9632C27.9026 35.4523 28.0826 36.425 27.5936 37.1361C23.3619 43.2898 21.125 50.5045 21.125 58.0001C21.125 78.333 37.6671 94.875 57.9999 94.875C78.3328 94.875 94.8748 78.333 94.8748 58.0001C94.8748 37.6672 78.333 21.125 57.9999 21.125C50.5051 21.125 43.2901 23.362 37.135 27.5944C36.424 28.0829 35.4511 27.9034 34.9622 27.1922C34.4732 26.4811 34.6532 25.5083 35.3643 25.0194C42.0429 20.4272 49.8702 18 57.9999 18C68.6843 18 78.7291 22.1608 86.2842 29.7156C93.8392 37.2707 97.9998 47.3156 97.9998 58.0001C97.9998 68.6844 93.8391 78.7294 86.2842 86.2844C78.7293 93.8392 68.6844 98 57.9999 98Z" fill="white"/>
<path d="M58 91.7503C48.985 91.7503 40.5097 88.2397 34.1352 81.865C27.7606 75.4905 24.25 67.015 24.25 58.0002C24.25 48.9852 27.7606 40.5098 34.1352 34.1352C40.5097 27.7606 48.9852 24.25 58 24.25C67.0148 24.25 75.4903 27.7606 81.865 34.1352C88.2395 40.5098 91.7502 48.9852 91.7502 58.0002C91.7502 64.4263 89.9358 70.678 86.5028 76.0794C86.0402 76.8077 85.0748 77.0233 84.3459 76.5598C83.6177 76.097 83.4025 75.1313 83.8655 74.403C86.9792 69.5036 88.6252 63.8316 88.6252 58C88.6252 41.1134 74.8867 27.375 58 27.375C41.1133 27.375 27.375 41.1134 27.375 58.0002C27.375 74.8869 41.1133 88.6253 58 88.6253C63.8316 88.6253 69.5034 86.9797 74.402 83.8661C75.1302 83.4027 76.0959 83.6183 76.5589 84.3466C77.0219 85.0748 76.8067 86.0406 76.0784 86.5034C70.6778 89.9361 64.4264 91.7503 58 91.7503Z" fill="white"/>
<path d="M30.8191 32.3834C30.4664 32.3834 30.112 32.2647 29.8198 32.0216C29.1569 31.4691 29.067 30.4842 29.6194 29.8214L29.6202 29.8205C30.1727 29.1577 31.158 29.0681 31.8208 29.6203C32.4838 30.1728 32.5733 31.1581 32.0208 31.8209C31.7119 32.1917 31.267 32.3834 30.8191 32.3834Z" fill="white"/>
<path d="M80.7586 82.3229C80.4059 82.3229 80.0516 82.2041 79.7594 81.961C79.0966 81.4085 79.0066 80.4236 79.5589 79.7608L79.5597 79.7599C80.1125 79.0969 81.098 79.0077 81.7603 79.5597C82.4233 80.1122 82.5128 81.0976 81.9605 81.7604C81.6514 82.1311 81.2066 82.3229 80.7586 82.3229Z" fill="white"/>
<path d="M42.375 78.3124C41.123 78.3124 39.9459 77.8249 39.0606 76.9396C38.1753 76.0543 37.6878 74.8773 37.6878 73.6252C37.6878 72.3731 38.1755 71.196 39.0606 70.3109L46.6836 62.6879L43.7478 59.7523C42.8625 58.867 42.375 57.6899 42.375 56.4379C42.375 55.1857 42.8625 54.0087 43.7478 53.1235C44.6331 52.2382 45.8101 51.7507 47.062 51.7507C48.3141 51.7507 49.4911 52.2382 50.3764 53.1235L53.312 56.0592L62.3086 47.0627H54.8747C52.29 47.0627 50.1872 44.9599 50.1872 42.3752C50.1872 39.7906 52.29 37.6877 54.8747 37.6877H73.6247C76.2094 37.6877 78.3122 39.7906 78.3122 42.3752V61.1252C78.3122 63.7099 76.2094 65.8127 73.6247 65.8127C71.04 65.8127 68.9372 63.7099 68.9372 61.1252V53.6915L59.9408 62.6879L62.8765 65.6235C63.7617 66.5087 64.2494 67.6857 64.2494 68.9379C64.2494 70.1899 63.7619 71.367 62.8765 72.2523C61.049 74.0796 58.0753 74.0796 56.2478 72.2523L53.312 69.3167L45.6891 76.9396C44.8041 77.8249 43.627 78.3124 42.375 78.3124ZM47.0623 54.8757C46.6451 54.8757 46.2528 55.0382 45.9578 55.3334C45.6628 55.6284 45.5003 56.0206 45.5003 56.4379C45.5003 56.8552 45.6628 57.2476 45.9578 57.5424L49.9983 61.5829C50.6084 62.1931 50.6084 63.1824 49.9983 63.7927L41.2705 72.5206C40.9755 72.8156 40.813 73.2077 40.813 73.6251C40.813 74.0424 40.9755 74.4348 41.2705 74.7296C41.5653 75.0249 41.9576 75.1874 42.375 75.1874C42.7923 75.1874 43.1845 75.0249 43.4795 74.7298L52.2073 66.002C52.8175 65.392 53.8069 65.392 54.4172 66.002L58.4576 70.0424C59.067 70.6518 60.058 70.6513 60.6672 70.0424C60.9622 69.7474 61.1247 69.3552 61.1247 68.9379C61.1247 68.5206 60.9622 68.1282 60.6672 67.8334L56.6266 63.7929C56.3336 63.4998 56.1689 63.1024 56.1689 62.6881C56.1689 62.2737 56.3336 61.8763 56.6266 61.5832L69.3951 48.8145C69.842 48.3677 70.514 48.2341 71.0979 48.4757C71.6817 48.7176 72.0625 49.2873 72.0625 49.9193V61.1254C72.0625 61.987 72.7634 62.6879 73.625 62.6879C74.4865 62.6879 75.1875 61.987 75.1875 61.1254V42.3754C75.1875 41.5138 74.4865 40.8129 73.625 40.8129H54.875C54.0134 40.8129 53.3125 41.5138 53.3125 42.3754C53.3125 43.237 54.0134 43.9379 54.875 43.9379H66.0811C66.7131 43.9379 67.2828 44.3187 67.5247 44.9024C67.7665 45.4863 67.6326 46.1584 67.1859 46.6052L54.4173 59.374C54.1244 59.667 53.7269 59.8316 53.3125 59.8316C52.8981 59.8316 52.5006 59.667 52.2076 59.374L48.1672 55.3335C47.8719 55.0382 47.4795 54.8757 47.0623 54.8757Z" fill="white"/>
</g>
<defs>
<clipPath id="clip0">
<rect x="18" y="18" width="80" height="80" fill="white"/>
</clipPath>
</defs>
</svg>
