<svg width="115" height="115" viewBox="0 0 115 115" fill="none" xmlns="http://www.w3.org/2000/svg">
<circle cx="57.5" cy="57.5" r="57.5" fill="#FF9226"/>
<g clip-path="url(#clip0)">
<path d="M86.2844 29.7156C78.7293 22.1608 68.6844 18 57.9999 18C49.8701 18 42.0429 20.4272 35.3643 25.0194C34.6532 25.5083 34.4732 26.4811 34.9622 27.1922C35.4512 27.9034 36.424 28.0828 37.135 27.5944C43.2901 23.362 50.5051 21.125 57.9999 21.125C78.3328 21.125 94.875 37.667 94.875 57.9999C94.875 78.3328 78.3328 94.875 57.9999 94.875C37.667 94.875 21.125 78.3328 21.125 57.9999C21.125 50.5042 23.3617 43.2896 27.5934 37.1361C28.0825 36.4251 27.9025 35.4523 27.1914 34.9632C26.4808 34.4743 25.5075 34.654 25.0187 35.3654C20.427 42.0421 18 49.8692 18 57.9999C18 68.6844 22.1608 78.7293 29.7156 86.2844C37.2706 93.8394 47.3156 98 57.9999 98C68.6844 98 78.7293 93.8392 86.2844 86.2844C93.8394 78.7293 98 68.6844 98 57.9999C98 47.3156 93.8392 37.2706 86.2844 29.7156Z" fill="white"/>
<path d="M84.3458 76.5597C85.0739 77.0227 86.0398 76.8072 86.5027 76.0792C89.9356 70.6781 91.7502 64.4264 91.7502 58C91.7502 48.9852 88.2395 40.5097 81.865 34.1352C75.4903 27.7606 67.015 24.25 58 24.25C48.9852 24.25 40.5097 27.7606 34.1352 34.1352C27.7606 40.5097 24.25 48.9852 24.25 58C24.25 67.015 27.7606 75.4903 34.1352 81.865C40.5097 88.2395 48.9852 91.7502 58 91.7502C64.4267 91.7502 70.6781 89.9359 76.0783 86.5033C76.8066 86.0403 77.0217 85.0747 76.5588 84.3464C76.0961 83.6184 75.1305 83.4033 74.4019 83.8659C69.5034 86.9795 63.8319 88.6252 57.9998 88.6252C41.1133 88.6252 27.3748 74.8867 27.3748 58C27.3748 41.1133 41.1134 27.375 58 27.375C74.8867 27.375 88.6252 41.1133 88.6252 58C88.6252 63.8316 86.9792 69.5037 83.8653 74.403C83.4023 75.1313 83.6175 76.0969 84.3458 76.5597Z" fill="white"/>
<path d="M30.821 32.3832C31.1738 32.3832 31.5288 32.2643 31.8208 32.021C32.4838 31.4685 32.5733 30.4832 32.021 29.8204C31.4681 29.1571 30.483 29.068 29.8203 29.6202L29.8194 29.621C29.1564 30.1735 29.0674 31.1583 29.6197 31.8213C29.9288 32.1919 30.3731 32.3832 30.821 32.3832Z" fill="white"/>
<path d="M79.6553 79.6551L79.6545 79.6559C79.0444 80.2661 79.0448 81.255 79.655 81.8653C79.96 82.1703 80.3598 82.3228 80.7595 82.3228C81.1597 82.3228 81.5598 82.1701 81.865 81.865C82.4752 81.2548 82.4752 80.2654 81.865 79.6551C81.2547 79.045 80.2656 79.045 79.6553 79.6551Z" fill="white"/>
<path d="M85.3066 57.7089C85.2311 54.718 84.2023 51.8767 82.41 49.7085C79.8491 46.6103 76.1244 45.2772 72.5686 46.0735C72.0203 44.7594 71.2166 43.5571 70.1972 42.5378C68.1277 40.4683 65.383 39.3286 62.4687 39.3286C60.222 39.3286 58.0462 40.0206 56.2187 41.2981C54.3912 40.0205 52.2155 39.3286 49.9687 39.3286C47.7191 39.3286 45.5408 40.0222 43.712 41.303C42.673 40.5775 41.5111 40.0325 40.2933 39.7047C37.7987 39.0385 35.2264 40.5255 34.5597 43.0205C34.2369 44.2289 34.4039 45.4911 35.0302 46.5739C35.6564 47.6567 36.6669 48.4311 37.8723 48.7533C38.2017 48.8419 38.4995 49.0422 38.7105 49.3171C38.9203 49.5903 39.0312 49.9186 39.0312 50.2661V69.0161C39.0312 71.601 41.1341 73.7038 43.7187 73.7038C46.3034 73.7038 48.4062 71.601 48.4062 69.0161V50.2661C48.4062 49.8553 48.5706 49.4647 48.8689 49.1666C49.1673 48.8681 49.558 48.7038 49.9687 48.7038C50.3797 48.7038 50.7702 48.8681 51.0684 49.1664C51.3669 49.4647 51.5312 49.8553 51.5312 50.2661V69.0161C51.5312 71.601 53.6341 73.7038 56.2187 73.7038C58.8034 73.7038 60.9062 71.601 60.9062 69.0161V50.2661C60.9062 49.8553 61.0706 49.4647 61.3689 49.1666C61.6673 48.8681 62.058 48.7038 62.4687 48.7038C62.8797 48.7038 63.2702 48.8681 63.5684 49.1664C63.8669 49.4647 64.0312 49.8553 64.0312 50.2661V69.0161C64.0312 71.4853 64.8908 73.9138 66.4516 75.8541C68.0095 77.7911 70.2005 79.1521 72.6206 79.686C72.9589 79.7606 73.2966 79.7964 73.6294 79.7964C75.7745 79.7964 77.713 78.308 78.1942 76.1289C78.4636 74.9094 78.242 73.6581 77.5702 72.6055C77.4523 72.4208 77.323 72.246 77.1834 72.0821C78.8594 71.1902 80.8045 69.7952 82.1867 67.7046C84.3119 64.491 85.3906 61.0344 85.3066 57.7089ZM79.58 65.9811C78.0616 68.2777 75.2952 69.7488 73.2127 70.3597C72.5903 70.5424 72.1453 71.0905 72.0947 71.7369C72.0441 72.3836 72.3981 72.9942 72.9844 73.2714C73.298 73.4197 73.6273 73.5325 73.9634 73.6067C74.3678 73.696 74.7131 73.9374 74.9359 74.2866C75.1587 74.6355 75.2322 75.0506 75.1428 75.455C74.9584 76.2897 74.1284 76.8186 73.2942 76.6346C71.5658 76.2531 70.0005 75.2805 68.8866 73.8955C67.7545 72.4881 67.1562 70.801 67.1562 69.0161V50.2661C67.1562 49.0206 66.6669 47.8453 65.7783 46.9566C64.8895 46.068 63.7144 45.5788 62.4687 45.5788C61.2234 45.5788 60.0481 46.0681 59.1592 46.9566C58.2705 47.8453 57.7812 49.0206 57.7812 50.2661V69.0161C57.7812 69.8778 57.0803 70.5788 56.2187 70.5788C55.3572 70.5788 54.6562 69.8778 54.6562 69.0161V50.2661C54.6562 49.0206 54.1669 47.8453 53.2783 46.9566C52.3895 46.068 51.2144 45.5788 49.9687 45.5788C48.7234 45.5788 47.5481 46.0681 46.6592 46.9566C45.7705 47.8453 45.2812 49.0206 45.2812 50.2661V69.0161C45.2812 69.8778 44.5803 70.5788 43.7187 70.5788C42.8572 70.5788 42.1562 69.8778 42.1562 69.0161V50.2661C42.1562 49.2242 41.8217 48.2381 41.1894 47.4141C40.5628 46.5978 39.6736 46.0019 38.682 45.7349C38.28 45.6274 37.9436 45.3697 37.7353 45.0094C37.5269 44.6489 37.4714 44.2291 37.5787 43.8269C37.6862 43.4249 37.9439 43.0885 38.3042 42.8802C38.6647 42.6716 39.0844 42.6161 39.4839 42.7228C40.655 43.0381 41.7567 43.6378 42.67 44.457C43.2644 44.9899 44.1642 44.9896 44.7575 44.4564C46.1952 43.1647 48.0461 42.4536 49.9689 42.4536C51.8895 42.4536 53.7386 43.1635 55.1756 44.4522C55.7692 44.9847 56.6686 44.9847 57.2622 44.4522C58.6992 43.1635 60.5483 42.4536 62.4689 42.4536C64.5484 42.4536 66.5084 43.2683 67.9877 44.7477C69 45.7599 69.7148 47.0227 70.055 48.3992C70.1644 48.8417 70.4617 49.2146 70.8687 49.4196C71.2756 49.6247 71.752 49.6419 72.1731 49.4666C74.9178 48.3227 77.9175 49.178 80.0016 51.6994C82.3136 54.4966 83.5906 59.9155 79.58 65.9811Z" fill="white"/>
<path d="M73.0909 52.2789C72.2591 52.5819 70.3202 53.6722 70.2814 57.2458C70.2813 57.2514 70.2812 57.2571 70.2812 57.2627V65.8911C70.2812 66.7539 70.9809 67.4536 71.8438 67.4536C73.5663 67.4536 76.2812 65.8925 77.6637 63.3704C80.6833 57.8622 78.4738 54.5864 77.7247 53.7136C76.4844 52.2686 74.665 51.7054 73.0909 52.2789ZM74.9236 61.8683C74.5089 62.6247 73.9438 63.1835 73.4063 63.5757V57.2716C73.4223 55.951 73.822 55.3385 74.1602 55.2154C74.49 55.0949 74.9806 55.3147 75.3533 55.7489C76.2161 56.7541 76.5563 58.8897 74.9236 61.8683Z" fill="white"/>
</g>
<defs>
<clipPath id="clip0">
<rect x="18" y="18" width="80" height="80" fill="white"/>
</clipPath>
</defs>
</svg>
