<svg width="115" height="115" viewBox="0 0 115 115" fill="none" xmlns="http://www.w3.org/2000/svg">
<circle cx="57.5" cy="57.5" r="57.5" fill="#FF9226"/>
<g clip-path="url(#clip0)">
<path d="M47.4197 53.5806C46.2392 52.4002 44.6697 51.7502 43 51.7502C41.3303 51.7502 39.7608 52.4002 38.5803 53.5806C37.4 54.761 36.75 56.3306 36.75 58.0002C36.75 59.6699 37.4 61.2395 38.5803 62.4199C39.7608 63.6002 41.3303 64.2502 43 64.2502C44.6697 64.2502 46.2392 63.6002 47.4197 62.4199C48.6 61.2396 49.25 59.6699 49.25 58.0002C49.25 56.3306 48.6 54.761 47.4197 53.5806ZM45.21 60.2102C44.6198 60.8002 43.835 61.1252 43 61.1252C42.165 61.1252 41.3802 60.8002 40.79 60.2102C40.2 59.6201 39.875 58.8352 39.875 58.0002C39.875 57.1652 40.2 56.3804 40.79 55.7902C41.3802 55.2002 42.165 54.8752 43 54.8752C43.835 54.8752 44.6198 55.2002 45.21 55.7902C45.8 56.3804 46.125 57.1652 46.125 58.0002C46.125 58.8352 45.8 59.6201 45.21 60.2102Z" fill="white"/>
<path d="M55.4999 58.0002C55.4999 54.6616 54.1996 51.5226 51.8385 49.1616C49.4774 46.8006 46.3385 45.5002 43 45.5002C39.6614 45.5002 36.5225 46.8006 34.1614 49.1616C30.6699 52.6533 29.5933 57.9525 31.13 64.083C32.3553 68.9708 35.2003 74.0909 38.5548 77.4456C43.749 82.6398 50.6548 85.5004 58.0001 85.5004C60.3918 85.5004 62.7852 85.184 65.1144 84.56C67.4277 83.9401 69.6603 83.014 71.7519 81.8064C73.985 80.5131 74.7495 77.644 73.4561 75.4109C72.1627 73.1778 69.2936 72.4131 67.0607 73.7067C65.6993 74.4925 64.2302 75.0997 62.6944 75.5111C61.173 75.9186 59.5937 76.1253 58.0001 76.1253C53.1584 76.1253 48.6067 74.2401 45.1835 70.8167C45.0398 70.673 44.8982 70.5267 44.7593 70.378C47.4307 70.0039 49.8974 68.7798 51.8387 66.8388C54.1996 64.4778 55.4999 61.3388 55.4999 58.0002ZM43 67.3752C42.5887 67.3752 42.1743 67.3483 41.7684 67.295C41.1617 67.2158 40.5645 67.4975 40.2403 68.0164C39.9161 68.5353 39.9245 69.1956 40.262 69.7061C41.0503 70.8983 41.9626 72.0155 42.9736 73.0266C46.987 77.0401 52.3234 79.2504 57.9999 79.2504C59.8665 79.2504 61.7179 79.0079 63.503 78.5298C65.3033 78.0475 67.0266 77.3348 68.6249 76.412C68.6255 76.4117 68.6261 76.4114 68.6267 76.4109C69.3686 75.9811 70.322 76.2351 70.7519 76.9772C70.96 77.3365 71.0158 77.7556 70.9088 78.157C70.8017 78.5584 70.545 78.894 70.1874 79.1011C68.3339 80.1712 66.355 80.9921 64.3054 81.5414C62.2399 82.0946 60.1185 82.3753 57.9997 82.3753C51.4893 82.3753 45.3682 79.8397 40.7642 75.2358C35.0033 69.475 30.4278 57.3144 36.3708 51.3715C38.1415 49.6007 40.4958 48.6254 42.9997 48.6254C45.5035 48.6254 47.8578 49.6007 49.6285 51.3715C51.3993 53.1422 52.3746 55.4965 52.3746 58.0004C52.3746 60.5043 51.3993 62.8585 49.6285 64.6292C47.8581 66.3999 45.5039 67.3752 43 67.3752Z" fill="white"/>
<path d="M68.5804 53.5803C67.4001 54.7606 66.7501 56.3303 66.7501 58C66.7501 59.6697 67.4001 61.2392 68.5804 62.4197C69.7609 63.6 71.3304 64.25 73.0001 64.25C74.6698 64.25 76.2393 63.6 77.4198 62.4197C78.6001 61.2394 79.2501 59.6697 79.2501 58C79.2501 56.3303 78.6001 54.7608 77.4198 53.5803C76.2393 52.4 74.6698 51.75 73.0001 51.75C71.3304 51.75 69.7609 52.4 68.5804 53.5803ZM76.1251 58C76.1251 58.835 75.8001 59.6198 75.2101 60.21C74.62 60.8 73.8351 61.125 73.0001 61.125C72.1651 61.125 71.3803 60.8 70.7901 60.21C70.2001 59.6198 69.8751 58.835 69.8751 58C69.8751 57.165 70.2001 56.3802 70.7901 55.79C71.3803 55.2 72.1651 54.875 73.0001 54.875C73.8351 54.875 74.62 55.2 75.2101 55.79C75.8001 56.3802 76.1251 57.165 76.1251 58Z" fill="white"/>
<path d="M84.8217 51.8012C83.5684 46.9271 80.742 41.8515 77.4455 38.5548C72.2511 33.3606 65.3454 30.5 58.0001 30.5C55.6084 30.5 53.215 30.8164 50.8858 31.4405C48.5726 32.0603 46.3401 32.9864 44.2483 34.194C43.1666 34.8206 42.3934 35.8309 42.0716 37.0389C41.7497 38.2468 41.9175 39.5078 42.5439 40.5895C43.1705 41.6712 44.1808 42.4443 45.3887 42.7662C46.5966 43.0881 47.8576 42.9203 48.9375 42.2948C50.2994 41.5086 51.7692 40.9011 53.3057 40.4893C54.827 40.0818 56.4064 39.8751 57.9999 39.8751C62.8416 39.8751 67.3933 41.7603 70.8165 45.1837C70.9602 45.3274 71.1016 45.4737 71.2407 45.6224C68.5693 45.9965 66.1026 47.2206 64.1613 49.1616C61.8002 51.5227 60.4999 54.6616 60.4999 58.0002C60.4999 61.3388 61.8002 64.4778 64.1613 66.8388C66.5224 69.1998 69.6613 70.5002 72.9999 70.5002C76.3385 70.5002 79.4774 69.1998 81.8384 66.8388C85.3523 63.3252 86.4116 57.9847 84.8217 51.8012ZM79.6291 64.6289C77.8583 66.3997 75.5041 67.375 73.0002 67.375C70.4963 67.375 68.1421 66.3997 66.3713 64.6289C64.6005 62.8582 63.6252 60.5039 63.6252 58C63.6252 55.4962 64.6005 53.1419 66.3713 51.3712C68.1421 49.6004 70.4963 48.6251 73.0002 48.6251C73.4114 48.6251 73.8258 48.6521 74.2314 48.7052C74.8382 48.7849 75.4355 48.5031 75.7597 47.984C76.0839 47.4651 76.0755 46.8046 75.738 46.2943C74.9497 45.102 74.0374 43.9846 73.0265 42.9737C69.0129 38.9603 63.6765 36.75 58.0001 36.75C56.1335 36.75 54.2822 36.9925 52.497 37.4706C50.6965 37.9531 48.9733 38.6656 47.3733 39.5895C47.0139 39.7978 46.5948 39.8534 46.1934 39.7464C45.792 39.6393 45.4564 39.3826 45.2483 39.0231C45.04 38.6637 44.9844 38.2447 45.0914 37.8433C45.1983 37.4418 45.4552 37.1062 45.8127 36.8992C47.6662 35.829 49.6451 35.008 51.6947 34.4589C53.7601 33.9056 55.8815 33.625 58.0003 33.625C64.5107 33.625 70.6318 36.1606 75.2358 40.7645C80.1664 45.6953 86.0209 58.2371 79.6291 64.6289Z" fill="white"/>
<path d="M86.2843 29.7157C78.7293 22.1606 68.6843 18 58 18C49.8703 18 42.043 20.4272 35.3645 25.0193C34.6534 25.5083 34.4732 26.4811 34.9621 27.1922C35.451 27.9034 36.4238 28.0832 37.1349 27.5945C43.2904 23.362 50.5053 21.125 58 21.125C78.3329 21.125 94.875 37.6671 94.875 58C94.875 78.3329 78.3329 94.875 58 94.875C37.6671 94.875 21.125 78.3329 21.125 58C21.125 50.5046 23.3619 43.2897 27.5937 37.136C28.0826 36.4249 27.9028 35.4521 27.1917 34.9632C26.4806 34.4742 25.5078 34.6543 25.0189 35.3652C20.427 42.0424 18 49.8694 18 58C18 68.6843 22.1608 78.7293 29.7157 86.2843C37.2707 93.8394 47.3157 98 58 98C68.6843 98 78.7293 93.8394 86.2843 86.2843C93.8394 78.7293 98 68.6843 98 58C98 47.3157 93.8394 37.2707 86.2843 29.7157Z" fill="white"/>
<path d="M84.3459 76.5596C85.074 77.0226 86.0399 76.8074 86.5026 76.079C89.9355 70.6778 91.75 64.4261 91.75 57.9999C91.75 48.9849 88.2394 40.5096 81.8649 34.135C75.4904 27.7603 67.015 24.25 58 24.25C48.9851 24.25 40.5098 27.7606 34.1351 34.1351C27.7605 40.5096 24.25 48.9851 24.25 58C24.25 67.015 27.7606 75.4903 34.1351 81.8649C40.5096 88.2396 48.9851 91.75 58 91.75C64.4264 91.75 70.6778 89.9357 76.0782 86.5032C76.8065 86.0404 77.0217 85.0746 76.5587 84.3463C76.0957 83.618 75.1301 83.403 74.4018 83.8659C69.5033 86.9793 63.8316 88.6251 57.9999 88.6251C41.1134 88.6251 27.375 74.8867 27.375 58C27.375 41.1134 41.1134 27.375 58 27.375C74.8867 27.375 88.6251 41.1134 88.6251 58C88.6251 63.8314 86.9791 69.5036 83.8652 74.4029C83.4023 75.1312 83.6176 76.0968 84.3459 76.5596Z" fill="white"/>
<path d="M30.82 32.3833C31.2202 32.3833 31.6203 32.2305 31.9255 31.9254C32.5356 31.3152 32.5356 30.3258 31.9255 29.7157C31.3153 29.1055 30.3261 29.1055 29.7158 29.7157L29.715 29.7165C29.1048 30.3266 29.1052 31.3155 29.7153 31.9257C30.0205 32.2308 30.4202 32.3833 30.82 32.3833Z" fill="white"/>
<path d="M79.6038 79.709L79.6031 79.7097C79.0226 80.3482 79.0701 81.336 79.7085 81.9165C80.0077 82.1885 80.3838 82.3227 80.7588 82.3227C81.184 82.3227 81.6076 82.1502 81.916 81.811C82.4965 81.1726 82.4495 80.1843 81.8109 79.6038C81.1726 79.0233 80.1843 79.0705 79.6038 79.709Z" fill="white"/>
</g>
<defs>
<clipPath id="clip0">
<rect x="18" y="18" width="80" height="80" fill="white"/>
</clipPath>
</defs>
</svg>
