<svg width="115" height="115" viewBox="0 0 115 115" fill="none" xmlns="http://www.w3.org/2000/svg">
<circle cx="57.5" cy="57.5" r="57.5" fill="#FF9226"/>
<g clip-path="url(#clip0)">
<path d="M57.0001 98C46.3157 98 36.2709 93.8394 28.7158 86.2842C21.1608 78.7293 17 68.6844 17 57.9999C17 49.8692 19.427 42.0423 24.0187 35.3651C24.5076 34.6542 25.4805 34.474 26.1915 34.9631C26.9026 35.452 27.0826 36.4248 26.5936 37.1359C22.3619 43.2896 20.125 50.5045 20.125 57.9999C20.125 78.3328 36.6671 94.875 56.9999 94.875C77.3328 94.875 93.8748 78.3328 93.8748 57.9999C93.8748 37.667 77.3328 21.125 56.9999 21.125C49.5052 21.125 42.2901 23.362 36.135 27.5944C35.424 28.0831 34.4511 27.9033 33.9622 27.192C33.4732 26.4809 33.6532 25.5083 34.3645 25.0192C41.0431 20.4272 48.8703 18 57.0001 18C67.6844 18 77.7293 22.1606 85.2844 29.7158C92.8394 37.2707 97 47.3156 97 58.0001C97 68.6846 92.8392 78.7294 85.2844 86.2844C77.7293 93.8394 67.6844 98 57.0001 98Z" fill="white"/>
<path d="M57.0002 91.7502C47.9852 91.7502 39.5098 88.2395 33.1353 81.865C26.7606 75.4905 23.25 67.015 23.25 58C23.25 48.985 26.7606 40.5097 33.1352 34.1352C39.5097 27.7606 47.9852 24.25 57.0002 24.25C66.0152 24.25 74.4905 27.7606 80.8652 34.1352C87.2397 40.5097 90.7503 48.9852 90.7503 58C90.7503 64.4261 88.9359 70.6778 85.503 76.0792C85.04 76.8075 84.0741 77.0225 83.3461 76.5598C82.6178 76.097 82.4027 75.1313 82.8656 74.403C85.9794 69.5036 87.6253 63.8316 87.6253 58C87.6253 41.1133 73.8869 27.375 57.0003 27.375C40.1134 27.375 26.375 41.1133 26.375 58C26.375 74.8867 40.1133 88.6252 57 88.6252C62.8319 88.6252 68.5036 86.9794 73.402 83.8659C74.1306 83.403 75.0963 83.6183 75.5589 84.3464C76.0219 85.0747 75.8067 86.0403 75.0784 86.5033C69.678 89.9359 63.4266 91.7502 57.0002 91.7502Z" fill="white"/>
<path d="M29.8195 32.3834C29.4445 32.3834 29.0684 32.2494 28.7692 31.9772C28.1308 31.3967 28.0833 30.4089 28.6637 29.7705L28.6645 29.7697C29.245 29.1313 30.2331 29.0842 30.8717 29.6645C31.5101 30.245 31.5573 31.2333 30.9768 31.8717C30.6683 32.2111 30.2447 32.3834 29.8195 32.3834Z" fill="white"/>
<path d="M79.759 82.3231C79.384 82.3231 79.008 82.189 78.7086 81.9168C78.0701 81.3364 78.0226 80.3485 78.6031 79.7101L78.6039 79.7093C79.1845 79.0706 80.1725 79.0237 80.8111 79.6042C81.4497 80.1846 81.4967 81.1729 80.9162 81.8114C80.6079 82.1506 80.1842 82.3231 79.759 82.3231Z" fill="white"/>
<path d="M41.3833 79.8976C39.7668 79.8976 38.1922 79.0607 37.3251 77.5637C36.0318 75.3306 36.7964 72.4617 39.0294 71.1682C40.29 70.4404 41.6003 69.7862 42.9375 69.2164V46.7839C41.6001 46.214 40.2901 45.56 39.0312 44.8329C37.9476 44.2054 37.1747 43.1951 36.8528 41.9871C36.5309 40.7792 36.6987 39.5181 37.3253 38.4364C37.9517 37.3546 38.9622 36.5815 40.1701 36.2596C41.3779 35.9378 42.639 36.1056 43.7209 36.7321C45.7195 37.8861 47.8737 38.777 50.122 39.3795C52.3551 39.9778 54.6693 40.2812 57.0001 40.2812C59.3309 40.2812 61.6451 39.9778 63.8783 39.3795C66.1267 38.7771 68.2809 37.8861 70.2812 36.7311C72.512 35.439 75.3815 36.2031 76.6748 38.4364C77.3014 39.5181 77.4692 40.779 77.1473 41.9871C76.8253 43.1951 76.0523 44.2054 74.9704 44.832C73.7101 45.5596 72.4 46.2139 71.0625 46.7839V69.2164C72.3997 69.7862 73.7095 70.4403 74.9687 71.1671C74.9693 71.1675 74.97 71.1679 74.9706 71.1682C77.2036 72.4617 77.9683 75.3306 76.6748 77.5637C75.3814 79.7968 72.5125 80.5615 70.2794 79.2679C68.2809 78.1142 66.1265 77.2231 63.8779 76.6206C61.6448 76.0223 59.3306 75.7189 56.9998 75.7189C54.669 75.7189 52.3548 76.0223 50.1217 76.6206C47.8731 77.2231 45.7187 78.1142 43.7186 79.269C42.9834 79.695 42.1781 79.8975 41.3833 79.8976ZM41.3773 39.2264C41.2429 39.2264 41.1079 39.2439 40.9747 39.2793C40.5733 39.3864 40.2376 39.6432 40.0295 40.0025C39.8212 40.362 39.7656 40.7809 39.8726 41.1823C39.9795 41.5836 40.2364 41.9193 40.5958 42.1275C42.0276 42.9542 43.5333 43.6786 45.0692 44.2792C45.6683 44.5136 46.0625 45.0911 46.0625 45.7343V70.2656C46.0625 70.9089 45.6683 71.4864 45.0692 71.7207C43.5333 72.3214 42.0276 73.0457 40.5937 73.8736C39.8536 74.3021 39.5997 75.2554 40.0293 75.9975C40.459 76.7393 41.4123 76.9936 42.1544 76.5637C44.3928 75.2714 46.8008 74.2751 49.3129 73.602C51.8098 72.9329 54.3961 72.5937 56.9998 72.5937C59.6036 72.5937 62.1898 72.9329 64.6867 73.602C67.199 74.2751 69.6068 75.2712 71.8437 76.5626C72.5872 76.9932 73.5408 76.7393 73.9706 75.9973C74.4003 75.2553 74.1462 74.302 73.4044 73.8723C71.9709 73.045 70.4659 72.3211 68.9308 71.7206C68.3317 71.4862 67.9375 70.9087 67.9375 70.2654V45.7345C67.9375 45.0912 68.3317 44.5137 68.9308 44.2793C70.4668 43.6786 71.9725 42.9543 73.4059 42.1265C73.7637 41.9193 74.0206 41.5837 74.1275 41.1825C74.2345 40.7811 74.1787 40.3621 73.9704 40.0026C73.5409 39.2607 72.5876 39.0067 71.8453 39.4364C69.6067 40.7289 67.1987 41.725 64.6867 42.3981C62.19 43.0671 59.6037 43.4064 56.9998 43.4064C54.3959 43.4064 51.8098 43.0671 49.3129 42.3981C46.8009 41.7251 44.3931 40.729 42.1562 39.4375C41.915 39.2976 41.6478 39.2264 41.3773 39.2264ZM63.25 70.045C63.1551 70.045 63.0597 70.0364 62.965 70.0187C60.9983 69.6539 58.9914 69.4687 57.0001 69.4687C55.0089 69.4687 53.002 69.6537 51.0353 70.0187C50.579 70.1037 50.1083 69.9807 49.7512 69.6839C49.3942 69.387 49.1878 68.9468 49.1878 68.4825V47.5176C49.1878 47.0532 49.3942 46.6131 49.7512 46.3162C50.1083 46.0193 50.5789 45.8965 51.0353 45.9814C53.0023 46.3462 55.0092 46.5314 57.0001 46.5314C58.9912 46.5314 60.9979 46.3462 62.965 45.9814C63.4212 45.8965 63.892 46.0193 64.249 46.3162C64.6061 46.6131 64.8125 47.0532 64.8125 47.5176V68.4825C64.8125 68.9468 64.6061 69.387 64.249 69.6839C63.9661 69.919 63.612 70.045 63.25 70.045ZM52.3126 49.3471V66.6531C55.4248 66.242 58.5753 66.242 61.6875 66.6531V49.3471C58.5751 49.7579 55.4251 49.7579 52.3126 49.3471Z" fill="white"/>
</g>
<defs>
<clipPath id="clip0">
<rect x="17" y="18" width="80" height="80" fill="white"/>
</clipPath>
</defs>
</svg>
