<svg width="115" height="115" viewBox="0 0 115 115" fill="none" xmlns="http://www.w3.org/2000/svg">
<circle cx="57.5" cy="57.5" r="57.5" fill="#FF9226"/>
<g clip-path="url(#clip0)">
<path d="M85.2844 29.7158C77.7293 22.1606 67.6844 18 56.9999 18C48.8702 18 41.0429 20.4272 34.3643 25.0194C33.6532 25.5083 33.4732 26.4811 33.9622 27.1922C34.4512 27.9034 35.424 28.0833 36.135 27.5945C42.2904 23.362 49.5052 21.125 56.9999 21.125C77.3328 21.125 93.875 37.6671 93.875 57.9999C93.875 78.3328 77.3328 94.875 56.9999 94.875C36.667 94.875 20.125 78.333 20.125 57.9999C20.125 50.5043 22.3617 43.2896 26.5936 37.1361C27.0825 36.425 26.9025 35.4522 26.1914 34.9632C25.4805 34.4743 24.5076 34.6543 24.0187 35.3653C19.427 42.0423 17 49.8693 17 57.9999C17 68.6843 21.1608 78.7293 28.7156 86.2842C36.2704 93.8392 46.3156 98 56.9999 98C67.6844 98 77.7293 93.8392 85.2844 86.2842C92.8394 78.7293 97 68.6843 97 57.9999C97 47.3156 92.8392 37.2707 85.2844 29.7158Z" fill="white"/>
<path d="M83.3459 76.5598C84.0745 77.0228 85.04 76.8075 85.5028 76.0792C88.9358 70.678 90.7503 64.4263 90.7503 58C90.7503 48.985 87.2397 40.5097 80.8652 34.1352C74.4905 27.7606 66.0152 24.25 57 24.25C47.9852 24.25 39.5097 27.7606 33.1352 34.1352C26.7606 40.5097 23.25 48.9852 23.25 58C23.25 67.0148 26.7606 75.4903 33.1352 81.865C39.5097 88.2397 47.9852 91.7502 57 91.7502C63.4266 91.7502 69.678 89.9358 75.0783 86.5033C75.8066 86.0405 76.0217 85.0747 75.5588 84.3464C75.0959 83.618 74.13 83.4028 73.4019 83.8659C68.5034 86.9794 62.8319 88.625 56.9998 88.625C40.1133 88.625 26.3748 74.8866 26.3748 57.9998C26.3748 41.1131 40.1134 27.375 57 27.375C73.8867 27.375 87.6252 41.1133 87.6252 58C87.6252 63.8316 85.9792 69.5036 82.8653 74.403C82.4023 75.1314 82.6175 76.097 83.3459 76.5598Z" fill="white"/>
<path d="M29.8205 32.3834C30.1978 32.3834 30.5764 32.2476 30.8764 31.9726C31.5125 31.3895 31.5556 30.4011 30.9724 29.765C30.3895 29.129 29.4009 29.0857 28.7648 29.669L28.7639 29.6698C28.1278 30.2529 28.0852 31.2409 28.6684 31.877C28.9766 32.2129 29.3977 32.3834 29.8205 32.3834Z" fill="white"/>
<path d="M79.759 82.323C80.1842 82.323 80.6079 82.1505 80.9162 81.8113C81.4967 81.1729 81.4497 80.1846 80.8111 79.6041C80.1725 79.0236 79.1845 79.0707 78.6039 79.7093L78.6031 79.71C78.0226 80.3485 78.0701 81.3363 78.7086 81.9168C79.0081 82.1888 79.384 82.323 79.759 82.323Z" fill="white"/>
<path d="M38.25 57.663C39.502 57.663 40.6791 57.1754 41.5644 56.2902L45.75 52.1046L49.9358 56.2902C50.8209 57.1755 51.998 57.6632 53.2502 57.6632C54.5022 57.6632 55.6792 57.1755 56.5645 56.2902L60.75 52.1046L64.9358 56.2902C65.8209 57.1755 66.998 57.6632 68.2502 57.6632C69.5022 57.6632 70.6792 57.1755 71.5645 56.2904L79.0645 48.7902C80.8919 46.9627 80.8919 43.9891 79.0645 42.1616C78.1792 41.2763 77.0022 40.7888 75.7502 40.7888C74.498 40.7888 73.3209 41.2763 72.4358 42.1616L68.2502 46.3474L64.0644 42.1616C62.2367 40.3343 59.2633 40.3341 57.4356 42.1616L53.2502 46.3474L49.0644 42.1616C47.2367 40.3343 44.2633 40.3343 42.4356 42.1616L34.9356 49.6616C33.1081 51.4891 33.1081 54.4629 34.9356 56.2904C35.8209 57.1755 36.9981 57.663 38.25 57.663ZM37.1455 51.8713L44.6455 44.3713C45.2544 43.7623 46.2456 43.7623 46.8547 44.3713L52.1453 49.6619C52.4384 49.9549 52.8358 50.1196 53.2502 50.1196C53.6645 50.1196 54.062 49.9549 54.355 49.6619L59.6453 44.3715C60.2542 43.7624 61.2455 43.7624 61.8545 44.3715L67.1452 49.6621C67.4383 49.9551 67.8356 50.1198 68.25 50.1198C68.6644 50.1198 69.0617 49.9551 69.3548 49.6621L74.6453 44.3715C74.9403 44.0765 75.3325 43.914 75.7498 43.914C76.1672 43.914 76.5595 44.0765 76.8544 44.3715C77.4633 44.9805 77.4633 45.9716 76.8544 46.5807L69.3544 54.0807C69.0594 54.3758 68.667 54.5382 68.2498 54.5382C67.8325 54.5382 67.4402 54.3757 67.1453 54.0807L61.8547 48.7902C61.5616 48.4973 61.1642 48.3326 60.7498 48.3326C60.3355 48.3326 59.938 48.4973 59.645 48.7902L54.3547 54.0807C54.0597 54.3758 53.6673 54.5382 53.2502 54.5382C52.8328 54.5382 52.4405 54.3757 52.1456 54.0807L46.855 48.7902C46.2447 48.1801 45.2556 48.1801 44.6452 48.7902L39.3547 54.0807C38.7456 54.6898 37.7547 54.6898 37.1455 54.0807C36.5363 53.4715 36.5363 52.4804 37.1455 51.8713Z" fill="white"/>
<path d="M34.9356 73.839C35.8209 74.7244 36.998 75.2119 38.25 75.2119C39.502 75.2119 40.6791 74.7242 41.5644 73.839L45.75 69.6533L49.9358 73.839C50.8209 74.7244 51.998 75.212 53.2502 75.212C54.5022 75.212 55.6792 74.7244 56.5645 73.839L60.75 69.6533L64.9358 73.839C65.8209 74.7244 66.998 75.212 68.2502 75.212C69.5022 75.212 70.6792 74.7244 71.5645 73.8392L79.0645 66.339C80.8919 64.5115 80.8919 61.538 79.0645 59.7105C78.1792 58.8251 77.0022 58.3376 75.7502 58.3376C74.498 58.3376 73.3209 58.8251 72.4358 59.7105L68.2502 63.8962L64.0644 59.7105C62.2367 57.8831 59.2633 57.883 57.4356 59.7105L53.2502 63.8962L49.0644 59.7105C47.2367 57.8831 44.2633 57.8831 42.4356 59.7105L34.9356 67.2105C34.0503 68.0958 33.5628 69.2728 33.5628 70.5248C33.5628 71.7765 34.0503 72.9537 34.9356 73.839ZM37.1455 69.42L44.6455 61.92C45.2544 61.3109 46.2456 61.3109 46.8547 61.92L52.1453 67.2106C52.4384 67.5036 52.8358 67.6683 53.2502 67.6683C53.6645 67.6683 54.062 67.5036 54.355 67.2106L59.6453 61.9201C60.2542 61.3111 61.2455 61.3111 61.8545 61.9201L67.1452 67.2108C67.4383 67.5037 67.8356 67.6684 68.25 67.6684C68.6644 67.6684 69.0617 67.5037 69.3549 67.2108L74.6453 61.9201C74.9403 61.6251 75.3325 61.4626 75.7499 61.4626C76.1672 61.4626 76.5595 61.6251 76.8544 61.9201C77.4633 62.5292 77.4633 63.5203 76.8544 64.1294L69.3544 71.6294C69.0594 71.9245 68.667 72.0869 68.2498 72.0869C67.8325 72.0869 67.4402 71.9244 67.1453 71.6294L61.8547 66.3387C61.5616 66.0458 61.1642 65.8811 60.7498 65.8811C60.3355 65.8811 59.938 66.0458 59.645 66.3387L54.3547 71.6292C54.0597 71.9244 53.6673 72.0867 53.2502 72.0867C52.8328 72.0867 52.4405 71.9242 52.1456 71.6292L46.855 66.3386C46.5619 66.0456 46.1645 65.8809 45.7502 65.8809C45.3358 65.8809 44.9383 66.0456 44.6453 66.3386L39.3548 71.6291C38.7458 72.2381 37.7548 72.2381 37.1456 71.6291C36.8505 71.3341 36.688 70.9417 36.688 70.5245C36.6878 70.1073 36.8503 69.7151 37.1455 69.42Z" fill="white"/>
</g>
<defs>
<clipPath id="clip0">
<rect x="17" y="18" width="80" height="80" fill="white"/>
</clipPath>
</defs>
</svg>
