<svg width="115" height="115" viewBox="0 0 115 115" fill="none" xmlns="http://www.w3.org/2000/svg">
<circle cx="57.5" cy="57.5" r="57.5" fill="#FF9226"/>
<g clip-path="url(#clip0)">
<path d="M57 97.9998C46.3157 97.9998 36.2707 93.8391 28.7157 86.2843C21.1608 78.7294 17 68.6843 17 58C17 49.8694 19.427 42.0424 24.0187 35.3654C24.5078 34.6543 25.4806 34.4743 26.1915 34.9632C26.9026 35.4523 27.0826 36.4249 26.5936 37.136C22.3619 43.2899 20.125 50.5046 20.125 58C20.125 78.3329 36.6671 94.8748 57 94.8748C77.3329 94.8748 93.875 78.3329 93.875 58C93.875 37.6671 77.3329 21.125 57 21.125C49.5052 21.125 42.2902 23.362 36.1351 27.5943C35.4238 28.0829 34.4512 27.9032 33.9623 27.1922C33.4734 26.4811 33.6534 25.5083 34.3645 25.0193C41.0429 20.4273 48.8702 18 57 18C67.6843 18 77.7293 22.1608 85.2843 29.7156C92.8394 37.2707 97 47.3155 97 58C97 68.6843 92.8394 78.7293 85.2843 86.2843C77.7293 93.8392 67.6843 97.9998 57 97.9998Z" fill="white"/>
<path d="M57 91.7499C47.9851 91.7499 39.5098 88.2393 33.1351 81.8648C26.7605 75.4903 23.25 67.015 23.25 58C23.25 48.9851 26.7606 40.5098 33.1351 34.1351C39.5098 27.7606 47.9851 24.25 57 24.25C66.015 24.25 74.4903 27.7606 80.8649 34.1351C87.2394 40.5098 90.75 48.9851 90.75 58C90.75 64.4261 88.9355 70.6778 85.5026 76.0792C85.0399 76.8075 84.074 77.0228 83.3459 76.5596C82.6176 76.0968 82.4023 75.1311 82.8652 74.4028C85.9791 69.5034 87.6251 63.8314 87.6251 57.9999C87.6251 41.1134 73.8867 27.375 57 27.375C40.1134 27.375 26.375 41.1134 26.375 58C26.375 74.8865 40.1134 88.6249 57 88.6249C62.8317 88.6249 68.5034 86.9793 73.402 83.8659C74.1306 83.4029 75.0959 83.618 75.5589 84.3463C76.0218 85.0746 75.8067 86.0404 75.0784 86.5032C69.6778 89.9357 63.4264 91.7499 57 91.7499Z" fill="white"/>
<path d="M29.8206 32.3833C29.3956 32.3833 28.9723 32.2111 28.6642 31.8722C28.0837 31.2336 28.1303 30.2458 28.7689 29.6653L28.7697 29.6645C29.4081 29.0842 30.3962 29.1313 30.9768 29.7697C31.5573 30.4083 31.5103 31.3964 30.8717 31.9769C30.5723 32.2491 30.1958 32.3833 29.8206 32.3833Z" fill="white"/>
<path d="M79.7585 82.3227C79.4059 82.3227 79.0515 82.204 78.7593 81.9608C78.0963 81.4083 78.0065 80.4235 78.5588 79.7607L78.5596 79.7597C79.1121 79.0969 80.0973 79.0072 80.7602 79.5596C81.4232 80.1121 81.5127 81.0974 80.9602 81.7602C80.6513 82.1311 80.2063 82.3227 79.7585 82.3227Z" fill="white"/>
<path d="M57.0001 81.4374C54.4154 81.4374 52.3126 79.3346 52.3126 76.7499V51.7433C52.3098 49.1632 50.207 47.0629 47.6251 47.0629C45.0404 47.0629 42.9376 49.1657 42.9376 51.7503C42.9376 53.8702 44.3645 55.7331 46.4076 56.2811C48.9024 56.9478 50.3899 59.52 49.7232 62.0147C49.4002 63.2233 48.626 64.2337 47.5431 64.8601C46.4601 65.4862 45.1982 65.6533 43.9895 65.3304C37.8498 63.6855 33.5625 58.1011 33.5625 51.7503C33.5625 43.9962 39.8709 37.6877 47.6249 37.6877C51.0995 37.6877 54.4348 38.9768 56.9997 41.2699C59.5643 38.9768 62.8996 37.6877 66.3747 37.6877C74.1287 37.6877 80.4372 43.9962 80.4372 51.7503C80.4372 58.1013 76.1498 63.6855 70.0111 65.3301C68.8016 65.6534 67.5396 65.4862 66.4566 64.8601C65.3736 64.2337 64.5994 63.2233 64.2764 62.0147C63.6097 59.5198 65.0972 56.9477 67.5921 56.2811C69.6349 55.7338 71.0622 53.8705 71.0622 51.7503C71.0622 49.1657 68.9594 47.0629 66.3747 47.0629C63.7571 47.0629 61.698 49.1271 61.6872 51.7621V76.7501C61.6875 79.3346 59.5847 81.4374 57.0001 81.4374ZM47.6251 43.9377C51.9282 43.9377 55.4329 47.4385 55.4376 51.7414V76.7499C55.4376 77.6115 56.1385 78.3124 57.0001 78.3124C57.8616 78.3124 58.5626 77.6115 58.5626 76.7499V51.7557C58.5804 47.4421 62.0849 43.9379 66.375 43.9379C70.6828 43.9379 74.1875 47.4426 74.1875 51.7503C74.1875 55.2824 71.8077 58.3869 68.4002 59.2999C67.5689 59.522 67.0739 60.3778 67.2958 61.2081C67.5177 62.0383 68.3735 62.5333 69.2036 62.3114C73.9775 61.0322 77.3123 56.6894 77.3123 51.7503C77.3123 45.7193 72.4058 40.8127 66.3749 40.8127C63.2386 40.8127 60.2486 42.1629 58.1715 44.5166C57.8749 44.8527 57.4482 45.0454 56.9999 45.0454C56.5516 45.0454 56.1249 44.853 55.8283 44.5168C53.7507 42.1629 50.7606 40.8127 47.6249 40.8127C41.5939 40.8127 36.6875 45.7193 36.6875 51.7503C36.6875 56.6892 40.0223 61.0322 44.7973 62.3117C45.6267 62.5328 46.4823 62.0384 46.7042 61.2081C46.926 60.378 46.431 59.522 45.6009 59.3002C45.6006 59.3 45.6003 59.3 45.5998 59.2999C42.1923 58.3869 39.8125 55.2824 39.8125 51.7503C39.8126 47.4424 43.3173 43.9377 47.6251 43.9377Z" fill="white"/>
</g>
<defs>
<clipPath id="clip0">
<rect x="17" y="18" width="80" height="80" fill="white"/>
</clipPath>
</defs>
</svg>
