<svg width="115" height="115" viewBox="0 0 115 115" fill="none" xmlns="http://www.w3.org/2000/svg">
<circle cx="57.5" cy="57.5" r="57.5" fill="#FF9226"/>
<g clip-path="url(#clip0)">
<path d="M87.2844 29.7156C79.7293 22.1606 69.6844 18 59.0001 18C50.8703 18 43.0429 20.4272 36.3645 25.0194C35.6534 25.5083 35.4734 26.4811 35.9623 27.1922C36.4514 27.9033 37.424 28.0833 38.1351 27.5944C44.2903 23.362 51.5052 21.125 59.0001 21.125C79.333 21.125 95.875 37.6671 95.875 57.9999C95.875 78.3328 79.3329 94.875 59.0001 94.875C38.6672 94.875 22.125 78.333 22.125 57.9999C22.125 50.5045 24.3619 43.2896 28.5937 37.1359C29.0826 36.4248 28.9028 35.452 28.1917 34.9631C27.4808 34.4742 26.508 34.6542 26.0189 35.3651C21.427 42.0425 19 49.8693 19 57.9999C19 68.6843 23.1606 78.7293 30.7158 86.2842C38.2707 93.8392 48.3157 98 59.0001 98C69.6844 98 79.7293 93.8392 87.2844 86.2842C94.8395 78.7293 99.0002 68.6843 99.0002 57.9999C99.0002 47.3156 94.8394 37.2707 87.2844 29.7156Z" fill="white"/>
<path d="M85.3461 76.5598C86.0742 77.0228 87.04 76.8077 87.5028 76.0792C90.9358 70.678 92.7502 64.4263 92.7502 58C92.7502 48.985 89.2395 40.5097 82.865 34.135C76.4905 27.7605 68.0152 24.25 59.0002 24.25C49.9852 24.25 41.5098 27.7606 35.1352 34.1352C28.7605 40.5097 25.25 48.9852 25.25 58C25.25 67.0148 28.7606 75.4903 35.1352 81.865C41.5097 88.2397 49.9852 91.7502 59.0002 91.7502C65.4266 91.7502 71.678 89.9358 77.0784 86.5033C77.8067 86.0405 78.0219 85.0747 77.5589 84.3464C77.0961 83.6181 76.1303 83.403 75.402 83.8659C70.5034 86.9794 64.8317 88.6252 59 88.6252C42.1134 88.6252 28.375 74.8869 28.375 58C28.375 41.1131 42.1134 27.375 59.0002 27.375C75.8869 27.375 89.6252 41.1134 89.6252 58.0002C89.6252 63.8317 87.9792 69.5037 84.8655 74.4031C84.4025 75.1313 84.6178 76.0969 85.3461 76.5598Z" fill="white"/>
<path d="M31.8195 32.3832C32.2447 32.3832 32.6683 32.2107 32.9767 31.8715C33.5572 31.2331 33.5102 30.2448 32.8716 29.6643C32.2331 29.084 31.2449 29.1309 30.6644 29.7695L30.6636 29.7703C30.0831 30.4087 30.1306 31.3965 30.7691 31.977C31.0684 32.2492 31.4445 32.3832 31.8195 32.3832Z" fill="white"/>
<path d="M80.6555 79.6554L80.6547 79.6562C80.0445 80.2663 80.0449 81.2552 80.655 81.8654C80.96 82.1704 81.3598 82.3229 81.7597 82.3229C82.1598 82.3229 82.56 82.1701 82.8652 81.8649C83.4753 81.2548 83.4753 80.2654 82.8652 79.6552C82.2548 79.0452 81.2656 79.0452 80.6555 79.6554Z" fill="white"/>
<path d="M76.9539 46.4277C78.0364 45.8057 78.8119 44.7995 79.1373 43.5941C79.4628 42.3888 79.2997 41.129 78.6776 40.0465C78.0556 38.964 77.0494 38.1885 75.844 37.8629C74.6387 37.5374 73.3789 37.7006 72.2936 38.3243C68.8347 40.3213 65.9564 43.1951 63.9703 46.6352C62.7615 48.729 61.9019 50.9698 61.407 53.3126H56.5931C56.0984 50.9698 55.2387 48.729 54.0298 46.6352C52.0437 43.1951 49.1656 40.3212 45.7039 38.3227C44.6216 37.7007 43.3616 37.5374 42.1562 37.8629C40.9509 38.1885 39.9447 38.964 39.3227 40.0463C38.7006 41.1288 38.5372 42.3887 38.8628 43.594C39.1884 44.7993 39.9639 45.8056 41.0436 46.426C43.0625 47.5916 44.7516 49.2849 45.9281 51.3227C46.2961 51.9601 46.6094 52.6251 46.8658 53.3126H46.1459C43.5612 53.3126 41.4584 55.4154 41.4584 58.0001C41.4584 60.5848 43.5612 62.6876 46.1459 62.6876H46.8658C46.6092 63.3749 46.2961 64.0401 45.9281 64.6774C44.7516 66.7152 43.0625 68.4085 41.0462 69.5726C39.9637 70.1946 39.1883 71.2009 38.8627 72.4062C38.5372 73.6115 38.7005 74.8713 39.3225 75.9538C39.9445 77.0363 40.9509 77.8118 42.1561 78.1373C43.3612 78.4629 44.6212 78.2996 45.7037 77.6774C45.7047 77.677 45.7055 77.6765 45.7064 77.6759C49.1655 75.6788 52.0437 72.8049 54.0297 69.3649C55.2386 67.2713 56.0983 65.0304 56.593 62.6876H61.4069C61.9017 65.0304 62.7612 67.2712 63.9701 69.3649C65.9562 72.8051 68.8345 75.679 72.2961 77.6776C73.0144 78.0904 73.8108 78.3012 74.6175 78.3012C75.0265 78.3012 75.4383 78.247 75.8439 78.1374C77.049 77.812 78.0555 77.0365 78.6775 75.954C79.9615 73.7193 79.1884 70.8566 76.9565 69.5743C74.9376 68.4087 73.2486 66.7154 72.072 64.6776C71.7042 64.0402 71.3908 63.3752 71.1344 62.6877H71.8542C74.4389 62.6877 76.5417 60.5849 76.5417 58.0002C76.5417 55.4156 74.4389 53.3127 71.8542 53.3127H71.1344C71.3909 52.6252 71.704 51.9602 72.072 51.3229C73.2486 49.2851 74.9376 47.5918 76.9539 46.4277ZM69.3658 49.7604C68.5058 51.2499 67.8876 52.8615 67.5286 54.5502C67.4306 55.0113 67.5459 55.4921 67.8425 55.8585C68.1392 56.2249 68.5855 56.4377 69.0569 56.4377H71.8542C72.7158 56.4377 73.4167 57.1387 73.4167 58.0002C73.4167 58.8618 72.7158 59.5627 71.8542 59.5627H69.0569C68.5855 59.5627 68.1392 59.7756 67.8426 60.142C67.5459 60.5084 67.4306 60.989 67.5286 61.4502C67.8876 63.139 68.5058 64.7506 69.3658 66.2401C70.8162 68.7523 72.9008 70.8412 75.3969 72.2823C76.1373 72.7079 76.3936 73.6565 75.9681 74.3971C75.762 74.7557 75.4284 75.0127 75.029 75.1207C74.6295 75.2284 74.212 75.1746 73.8561 74.9699C70.8715 73.2468 68.3889 70.7684 66.6765 67.8027C65.4372 65.6562 64.6233 63.3315 64.2573 60.8935C64.1426 60.1287 63.4856 59.5629 62.7122 59.5629H55.288C54.5145 59.5629 53.8575 60.1287 53.7428 60.8935C53.377 63.3315 52.563 65.656 51.3236 67.8027C49.6114 70.7682 47.1292 73.2463 44.1448 74.9695C43.7866 75.1748 43.37 75.2284 42.9712 75.1207C42.5719 75.0127 42.2384 74.7559 42.0322 74.3971C41.8261 74.0385 41.7719 73.6209 41.8797 73.2215C41.9876 72.822 42.2445 72.4885 42.6061 72.2807C45.0994 70.8413 47.1839 68.7524 48.6345 66.2401C49.4945 64.7504 50.1126 63.1388 50.4716 61.4502C50.5695 60.9891 50.4542 60.5084 50.1575 60.142C49.8609 59.7756 49.4147 59.5627 48.9433 59.5627H46.1459C45.2844 59.5627 44.5834 58.8618 44.5834 58.0002C44.5834 57.1387 45.2844 56.4377 46.1459 56.4377H48.9433C49.4147 56.4377 49.8609 56.2249 50.1576 55.8585C50.4542 55.4921 50.5697 55.0115 50.4716 54.5502C50.1125 52.8615 49.4945 51.2499 48.6344 49.7604C47.1839 47.2481 45.0992 45.1593 42.6033 43.7182C42.2445 43.5121 41.9876 43.1785 41.8797 42.7791C41.7719 42.3798 41.8259 41.9623 42.0322 41.6035C42.2384 41.2448 42.5719 40.9879 42.9712 40.8799C43.3709 40.7723 43.7881 40.8262 44.1442 41.0307C47.1289 42.7538 49.6114 45.2323 51.3237 48.1979C52.5631 50.3446 53.3772 52.6691 53.743 55.1071C53.8576 55.872 54.5147 56.4377 55.2881 56.4377H62.7123C63.4858 56.4377 64.1428 55.872 64.2575 55.1071C64.6234 52.6691 65.4373 50.3446 66.6767 48.1979C68.3889 45.2323 70.8717 42.7538 73.8536 41.0323C74.2122 40.8262 74.6298 40.7721 75.0292 40.8798C75.4287 40.9877 75.7622 41.2446 75.9683 41.6034C76.1744 41.9621 76.2286 42.3796 76.1206 42.779C76.0128 43.1784 75.7558 43.5118 75.3944 43.7196C72.9008 45.1593 70.8162 47.2482 69.3658 49.7604Z" fill="white"/>
</g>
<defs>
<clipPath id="clip0">
<rect x="19" y="18" width="80" height="80" fill="white"/>
</clipPath>
</defs>
</svg>
