<svg width="115" height="115" viewBox="0 0 115 115" fill="none" xmlns="http://www.w3.org/2000/svg">
<circle cx="57.5" cy="57.5" r="57.5" fill="#FF9226"/>
<g clip-path="url(#clip0)">
<path d="M58 98C47.3157 98 37.2707 93.8392 29.7157 86.2843C22.1608 78.7293 18 68.6843 18 58C18 49.8694 20.427 42.0424 25.0187 35.3654C25.5078 34.6542 26.4806 34.4746 27.1915 34.9632C27.9026 35.4523 28.0826 36.4249 27.5937 37.136C23.3617 43.2897 21.125 50.5044 21.125 58C21.125 78.3329 37.6671 94.875 58 94.875C78.3329 94.875 94.875 78.3329 94.875 58C94.875 37.6671 78.3329 21.125 58 21.125C50.5052 21.125 43.2902 23.362 37.1351 27.5943C36.4243 28.0829 35.4513 27.9034 34.9623 27.1922C34.4734 26.4811 34.6534 25.5083 35.3645 25.0193C42.043 20.4272 49.8702 18 58 18C68.6843 18 78.7293 22.1608 86.2843 29.7157C93.8394 37.2707 98 47.3157 98 58C98 68.6843 93.8392 78.7293 86.2843 86.2843C78.7293 93.8392 68.6843 98 58 98Z" fill="white"/>
<path d="M58 91.75C48.9852 91.75 40.5098 88.2394 34.1353 81.8649C27.7606 75.4903 24.25 67.015 24.25 58C24.25 48.9851 27.7606 40.5098 34.1353 34.1351C40.5098 27.7606 48.9852 24.25 58 24.25C67.015 24.25 75.4903 27.7606 81.8649 34.1351C88.2394 40.5098 91.75 48.9851 91.75 58C91.75 64.4262 89.9355 70.6779 86.5026 76.0792C86.0396 76.8071 85.0741 77.0226 84.3457 76.5596C83.6174 76.0968 83.4023 75.131 83.8652 74.4028C86.9791 69.5036 88.6251 63.8314 88.6251 57.9999C88.6251 41.1134 74.8867 27.375 58 27.375C41.1134 27.375 27.375 41.1134 27.375 58C27.375 74.8867 41.1134 88.6251 58 88.6251C63.8319 88.6251 69.5036 86.9794 74.402 83.8659C75.1306 83.403 76.0962 83.6182 76.5589 84.3463C77.0218 85.0746 76.8067 86.0402 76.0784 86.5032C70.6781 89.9358 64.4267 91.75 58 91.75Z" fill="white"/>
<path d="M30.8191 32.3834C30.4664 32.3834 30.112 32.2646 29.8199 32.0215C29.157 31.469 29.067 30.4841 29.6194 29.8213L29.6202 29.8204C30.1731 29.1574 31.1585 29.0684 31.8208 29.6202C32.4838 30.1727 32.5733 31.158 32.021 31.8209C31.7119 32.1916 31.267 32.3834 30.8191 32.3834Z" fill="white"/>
<path d="M80.7594 82.3224C80.3594 82.3224 79.9598 82.1699 79.6548 81.8651C79.0446 81.2549 79.0441 80.266 79.6543 79.6557L79.6552 79.6548C80.2655 79.0448 81.2546 79.0448 81.8651 79.6548C82.4752 80.2649 82.4752 81.2543 81.8651 81.8646C81.5598 82.1698 81.1596 82.3224 80.7594 82.3224Z" fill="white"/>
<path d="M58.0001 84.5625C52.992 84.5625 48.2836 82.6122 44.742 79.0707C41.2005 75.5293 39.2502 70.8209 39.2502 65.8126C39.2502 60.8045 41.2005 56.0961 44.742 52.5545C45.1181 52.1786 45.5109 51.8177 45.9183 51.4742C45.8945 51.4508 45.8706 51.4272 45.847 51.4036C42.6004 48.1571 40.8125 43.841 40.8125 39.2504C40.8125 36.6655 42.9153 34.5627 45.5 34.5627C48.0846 34.5627 50.1875 36.6655 50.1875 39.2504C50.1875 41.3372 50.9999 43.2993 52.4756 44.7747C53.9509 46.25 55.9129 47.0627 57.9999 47.0627C60.0869 47.0627 62.049 46.2502 63.5243 44.7747C64.9997 43.2993 65.8124 41.3372 65.8124 39.2504C65.8124 36.6655 67.9152 34.5627 70.4999 34.5627C73.0845 34.5627 75.1874 36.6655 75.1874 39.2504C75.1874 43.841 73.3995 48.1571 70.153 51.4035C70.1294 51.4271 70.1055 51.4508 70.0816 51.4742C70.4889 51.8178 70.8817 52.1786 71.2578 52.5545C74.7994 56.0961 76.7497 60.8045 76.7497 65.8126C76.7497 70.8209 74.7994 75.5293 71.2578 79.0707C67.7166 82.6122 63.0082 84.5625 58.0001 84.5625ZM45.5001 37.6877C44.6386 37.6877 43.9376 38.3887 43.9376 39.2504C43.9376 43.0063 45.4004 46.5375 48.0567 49.1938C48.4614 49.5985 48.8951 49.9824 49.3459 50.3347C49.7396 50.6425 49.9623 51.1199 49.9451 51.6196C49.9279 52.1189 49.6729 52.5799 49.2589 52.8599C48.4336 53.418 47.6573 54.0589 46.9517 54.7644C44.0003 57.7158 42.375 61.6394 42.375 65.8126C42.375 69.986 44.0003 73.9096 46.9517 76.8609C49.9031 79.8122 53.8267 81.4376 57.9999 81.4376C62.1732 81.4376 66.0968 79.8122 69.0482 76.8609C71.9996 73.9096 73.6249 69.986 73.6249 65.8126C73.6249 61.6394 71.9996 57.7158 69.0482 54.7644C68.3425 54.0588 67.5664 53.418 66.741 52.8599C66.3271 52.5799 66.0721 52.1189 66.0547 51.6196C66.0375 51.12 66.2602 50.6425 66.6539 50.3347C67.1054 49.9817 67.5389 49.598 67.9432 49.1938C70.5994 46.5375 72.0622 43.0063 72.0622 39.2504C72.0622 38.3887 71.3613 37.6877 70.4997 37.6877C69.6382 37.6877 68.9372 38.3887 68.9372 39.2504C68.9372 42.1719 67.7997 44.9186 65.734 46.9844C63.6683 49.0502 60.9216 50.1877 57.9998 50.1877C55.0779 50.1877 52.3312 49.0502 50.2656 46.9846C48.1998 44.9186 47.0623 42.1719 47.0623 39.2504C47.0626 38.3887 46.3617 37.6877 45.5001 37.6877ZM58.0001 78.3126C54.6607 78.3126 51.5217 77.0124 49.161 74.6516C46.8004 72.2909 45.5001 69.1518 45.5001 65.8126C45.5001 62.4734 46.8003 59.3344 49.161 56.9736C54.0349 52.0997 61.9652 52.0997 66.8393 56.9736C69.1999 59.3344 70.5002 62.4734 70.5002 65.8126C70.5002 69.152 69.2 72.291 66.8393 74.6516C64.4783 77.0124 61.3393 78.3126 58.0001 78.3126ZM58.0001 56.4378C55.4956 56.4378 53.1412 57.4128 51.3707 59.1833C49.6001 60.9537 48.6251 63.3081 48.6251 65.8126C48.6251 68.3171 49.6001 70.6715 51.3707 72.442C53.141 74.2126 55.4954 75.1876 58.0001 75.1876C60.5044 75.1876 62.859 74.2126 64.6294 72.442C66.4 70.6717 67.375 68.3173 67.375 65.8126C67.375 63.3083 66.4 60.9537 64.6294 59.1833C62.859 57.4128 60.5046 56.4378 58.0001 56.4378Z" fill="white"/>
</g>
<defs>
<clipPath id="clip0">
<rect x="18" y="18" width="80" height="80" fill="white"/>
</clipPath>
</defs>
</svg>
