<svg width="115" height="115" viewBox="0 0 115 115" fill="none" xmlns="http://www.w3.org/2000/svg">
<circle cx="57.5" cy="57.5" r="57.5" fill="#FF9226"/>
<g clip-path="url(#clip0)">
<path d="M57 98C46.3157 98 36.2707 93.8392 28.7157 86.2843C21.1608 78.7293 17 68.6843 17 58C17 49.8694 19.427 42.0424 24.0187 35.3654C24.5078 34.6542 25.4806 34.4745 26.1915 34.9632C26.9026 35.4523 27.0826 36.4249 26.5936 37.136C22.3619 43.2897 20.125 50.5044 20.125 58C20.125 78.3329 36.6671 94.875 57 94.875C77.3329 94.875 93.8749 78.3329 93.8749 58C93.8749 37.6671 77.3329 21.125 57 21.125C49.5053 21.125 42.2904 23.362 36.1351 27.5943C35.424 28.0834 34.4512 27.9034 33.9623 27.1922C33.4734 26.4811 33.6534 25.5083 34.3646 25.0193C41.0432 20.4272 48.8703 18 57 18C67.6843 18 77.7291 22.1608 85.2843 29.7157C92.8394 37.2707 97 47.3157 97 58C97 68.6843 92.8394 78.7293 85.2843 86.2843C77.7293 93.8392 67.6845 98 57 98Z" fill="white"/>
<path d="M57 91.75C47.9851 91.75 39.5096 88.2394 33.1351 81.8649C26.7606 75.4903 23.25 67.015 23.25 58C23.25 48.9852 26.7606 40.5098 33.1351 34.1353C39.5098 27.7606 47.9851 24.25 57 24.25C66.015 24.25 74.4903 27.7606 80.8648 34.1353C87.2393 40.5098 90.7499 48.9852 90.7499 58C90.7499 64.4261 88.9354 70.6778 85.5026 76.0792C85.0398 76.8073 84.0737 77.0228 83.3459 76.5596C82.6176 76.0968 82.4023 75.131 82.8652 74.4028C85.9791 69.5034 87.6251 63.8314 87.6251 57.9999C87.6251 41.1132 73.8868 27.3748 57.0002 27.3748C40.1135 27.3748 26.375 41.1134 26.375 58C26.375 74.8867 40.1134 88.6251 57 88.6251C62.8319 88.6251 68.5036 86.9794 73.402 83.8659C74.1303 83.4029 75.0961 83.618 75.5589 84.3463C76.0217 85.0746 75.8067 86.0402 75.0784 86.5032C69.6779 89.9358 63.4266 91.75 57 91.75Z" fill="white"/>
<path d="M29.8191 32.3835C29.4664 32.3835 29.112 32.2648 28.8198 32.0217C28.1569 31.4692 28.067 30.4843 28.6194 29.8215L28.6202 29.8206C29.1727 29.1576 30.1578 29.0681 30.8208 29.6204C31.4838 30.1729 31.5733 31.1582 31.0208 31.821C30.7119 32.1918 30.267 32.3835 29.8191 32.3835Z" fill="white"/>
<path d="M79.7599 82.3225C79.3349 82.3225 78.9117 82.1504 78.6035 81.8115C78.0231 81.1729 78.0696 80.185 78.7082 79.6046L78.709 79.6038C79.3473 79.0235 80.3357 79.0704 80.9162 79.709C81.4967 80.3475 81.4496 81.3357 80.811 81.9161C80.5117 82.1883 80.1352 82.3225 79.7599 82.3225Z" fill="white"/>
<path d="M77.4098 61.5154L66.4713 61.5084C65.6466 61.5078 64.8403 61.291 64.1267 60.8779C63.0449 60.2512 62.2717 59.2409 61.9499 58.0329C61.628 56.8251 61.7958 55.564 62.4224 54.4823C62.6889 54.0206 62.8972 53.5145 63.0403 52.98C63.1795 52.4611 63.25 51.9156 63.25 51.3592C63.25 49.6894 62.6 48.12 61.4197 46.9397C60.2394 45.7592 58.6697 45.1092 57 45.1092C55.3304 45.1092 53.7608 45.7592 52.5804 46.9397C51.4001 48.12 50.7501 49.6895 50.7501 51.3592C50.7501 51.9158 50.8205 52.4611 50.9596 52.9798C51.0852 53.4484 51.2612 53.8961 51.483 54.3114C51.9624 55.0637 52.2155 55.9322 52.2155 56.8278C52.2155 59.4125 50.1127 61.5153 47.528 61.5153H36.5904C34.0058 61.5153 31.903 59.4125 31.903 56.8278C31.903 54.2431 34.0058 52.1403 36.5904 52.1403H41.3953C41.382 51.8794 41.3753 51.6187 41.3753 51.3591C41.3753 47.1858 43.0006 43.2621 45.952 40.3108C48.9032 37.3594 52.8269 35.7341 57.0002 35.7341C61.1736 35.7341 65.0974 37.3594 68.0484 40.3108C70.9998 43.2622 72.6251 47.1858 72.6251 51.3591C72.6251 51.6187 72.6184 51.8794 72.6051 52.1403H77.4098C79.9945 52.1403 82.0973 54.2431 82.0973 56.8278C82.0973 59.4125 79.9945 61.5154 77.4098 61.5154ZM66.4709 58.3834L77.4109 58.3904C78.2715 58.3904 78.9725 57.6895 78.9725 56.8279C78.9725 55.9664 78.2715 55.2654 77.41 55.2654H70.8633C70.403 55.2654 69.9659 55.0625 69.6691 54.7106C69.3722 54.3587 69.2456 53.8939 69.323 53.4401C69.4406 52.7506 69.5003 52.0503 69.5003 51.3592C69.5003 48.0208 68.2 44.8819 65.8388 42.5208C63.4778 40.1597 60.3389 38.8593 57.0002 38.8593C53.6616 38.8593 50.5227 40.1596 48.1616 42.5208C45.8006 44.8817 44.5002 48.0206 44.5002 51.3592C44.5002 52.0505 44.5599 52.7506 44.6776 53.4401C44.7551 53.8939 44.6285 54.3587 44.3315 54.7106C44.0346 55.0625 43.5978 55.2654 43.1373 55.2654H36.5904C35.7289 55.2654 35.0279 55.9664 35.0279 56.8279C35.0279 57.6895 35.7289 58.3904 36.5904 58.3904H47.528C48.3896 58.3904 49.0905 57.6895 49.0905 56.8279C49.0905 56.5208 49.0018 56.224 48.8338 55.9695C48.8098 55.9333 48.7873 55.8958 48.7663 55.8575C48.4134 55.2109 48.1357 54.5148 47.9412 53.7887C47.7315 53.0062 47.6251 52.1889 47.6251 51.3592C47.6251 48.8547 48.6002 46.5003 50.3707 44.7299C52.1413 42.9593 54.4955 41.9843 57 41.9843C59.5046 41.9843 61.8588 42.9593 63.6294 44.7299C65.3998 46.5005 66.375 48.8547 66.375 51.3592C66.375 52.1889 66.2686 53.0062 66.0589 53.7889C65.8452 54.5869 65.5317 55.3465 65.1277 56.0467C64.9183 56.4081 64.8627 56.827 64.9695 57.2284C65.0766 57.6298 65.3334 57.9656 65.6927 58.1737C65.9331 58.3129 66.1944 58.3836 66.4694 58.3836C66.47 58.3834 66.4705 58.3834 66.4709 58.3834Z" fill="white"/>
<path d="M77.4098 74.0156H36.5903C34.0056 74.0156 31.9028 71.9128 31.9028 69.3281C31.9028 66.7434 34.0056 64.6406 36.5903 64.6406H77.4098C79.9945 64.6406 82.0973 66.7434 82.0973 69.3281C82.0973 71.9128 79.9945 74.0156 77.4098 74.0156ZM36.5903 67.7656C35.7287 67.7656 35.0278 68.4665 35.0278 69.3281C35.0278 70.1897 35.7287 70.8906 36.5903 70.8906H77.4098C78.2713 70.8906 78.9723 70.1897 78.9723 69.3281C78.9723 68.4665 78.2713 67.7656 77.4098 67.7656H36.5903Z" fill="white"/>
</g>
<defs>
<clipPath id="clip0">
<rect x="17" y="18" width="80" height="80" fill="white"/>
</clipPath>
</defs>
</svg>
