<svg width="115" height="115" viewBox="0 0 115 115" fill="none" xmlns="http://www.w3.org/2000/svg">
<circle cx="57.5" cy="57.5" r="57.5" fill="#FF9226"/>
<g clip-path="url(#clip0)">
<path d="M58 98C47.3157 98 37.2707 93.8394 29.7157 86.2843C22.1608 78.7293 18 68.6845 18 58C18 49.8694 20.427 42.0424 25.0187 35.3652C25.5078 34.6542 26.4806 34.4742 27.1915 34.9632C27.9026 35.4521 28.0826 36.4249 27.5937 37.136C23.3617 43.2899 21.125 50.5046 21.125 58C21.125 78.3329 37.6671 94.8749 58 94.8749C78.3329 94.8749 94.875 78.3327 94.875 58C94.875 37.6671 78.3329 21.125 58 21.125C50.5053 21.125 43.2904 23.362 37.1351 27.5943C36.4238 28.0831 35.4513 27.9034 34.9623 27.192C34.4734 26.4809 34.6534 25.5083 35.3645 25.0192C42.043 20.4272 49.8703 18 58 18C68.6843 18 78.7293 22.1608 86.2843 29.7157C93.8394 37.2707 98 47.3157 98 58C98 68.6843 93.8392 78.7291 86.2843 86.2843C78.7293 93.8392 68.6843 98 58 98Z" fill="white"/>
<path d="M58 91.75C48.9852 91.75 40.5098 88.2394 34.1353 81.8649C27.7606 75.4904 24.25 67.015 24.25 58C24.25 48.9851 27.7606 40.5098 34.1353 34.1351C40.5098 27.7606 48.9852 24.25 58 24.25C67.015 24.25 75.4903 27.7606 81.8649 34.1351C88.2394 40.5096 91.75 48.9851 91.75 58C91.75 64.4262 89.9355 70.6779 86.5026 76.0792C86.0396 76.8074 85.0741 77.0226 84.3457 76.5596C83.6174 76.0968 83.4023 75.131 83.8652 74.4028C86.9791 69.5034 88.6251 63.8314 88.6251 57.9999C88.6251 41.1134 74.8867 27.375 58 27.375C41.1134 27.375 27.375 41.1134 27.375 58C27.375 74.8867 41.1134 88.6249 58 88.6249C63.8319 88.6249 69.5036 86.9793 74.402 83.8659C75.1306 83.4029 76.0962 83.6182 76.5589 84.3463C77.0218 85.0746 76.8067 86.0402 76.0784 86.5032C70.6779 89.9357 64.4266 91.75 58 91.75Z" fill="white"/>
<path d="M30.8195 32.3833C30.4445 32.3833 30.0684 32.2492 29.7691 31.9771C29.1306 31.3966 29.0831 30.4088 29.6636 29.7703L29.6644 29.7696C30.245 29.131 31.2331 29.0839 31.8716 29.6644C32.5102 30.2449 32.5572 31.2332 31.9767 31.8716C31.6684 32.211 31.2447 32.3833 30.8195 32.3833Z" fill="white"/>
<path d="M80.7599 82.3228C80.3371 82.3228 79.916 82.1525 79.6079 81.8164C79.0248 81.1803 79.0673 80.1923 79.7034 79.6092L79.7043 79.6084C80.3402 79.0253 81.329 79.0684 81.9118 79.7044C82.4949 80.3405 82.452 81.3289 81.8159 81.912C81.5159 82.187 81.1373 82.3228 80.7599 82.3228Z" fill="white"/>
<path d="M75.2858 78.2351C74.9474 78.2351 74.6066 78.1982 74.2681 78.1234C71.8485 77.5896 69.6572 76.2289 68.0991 74.2917C66.5383 72.3514 65.6788 69.923 65.6788 67.4537V48.7038C65.6788 48.293 65.5144 47.9026 65.2161 47.6041C64.9177 47.3057 64.5272 47.1415 64.1163 47.1415C63.7055 47.1415 63.3149 47.3059 63.0165 47.6041C62.7182 47.9026 62.5538 48.2932 62.5538 48.7038V67.4537C62.5538 70.0384 60.451 72.1412 57.8663 72.1412C55.2817 72.1412 53.1788 70.0384 53.1788 67.4537V48.7038C53.1788 48.293 53.0145 47.9026 52.7162 47.6041C52.4178 47.3057 52.0273 47.1415 51.6165 47.1415C51.2056 47.1415 50.8149 47.3059 50.5165 47.6041C50.2182 47.9026 50.0539 48.2932 50.0539 48.7038V67.4537C50.0539 70.0384 47.9511 72.1412 45.3664 72.1412C42.7817 72.1412 40.6789 70.0384 40.6789 67.4537V48.7038C40.6789 48.3562 40.568 48.0279 40.3581 47.7546C40.147 47.4796 39.8495 47.2794 39.5201 47.1909C37.0281 46.5249 35.5406 43.9527 36.2073 41.4579C36.8741 38.9631 39.4465 37.4759 41.9409 38.1423C43.1587 38.4703 44.3204 39.0153 45.3595 39.7407C47.1886 38.4601 49.3667 37.7664 51.6165 37.7664C53.8632 37.7664 56.039 38.4584 57.8663 39.7359C59.6938 38.4584 61.8697 37.7664 64.1163 37.7664C67.0305 37.7664 69.7752 38.906 71.8447 40.9756C73.9141 43.0449 75.0538 45.7896 75.0538 48.7038V67.4537C75.0538 67.9098 75.238 68.2347 75.3925 68.4269C75.6253 68.7165 75.9422 68.9175 76.2844 68.993C77.5044 69.2623 78.5459 69.9905 79.2177 71.0431C79.8894 72.0958 80.1111 73.3472 79.8417 74.5665C79.5725 75.7859 78.8444 76.8275 77.7917 77.4993C77.0311 77.9846 76.1669 78.235 75.2858 78.2351ZM64.1163 44.0163C65.3619 44.0163 66.5372 44.5057 67.4258 45.3945C68.3144 46.2829 68.8038 47.4582 68.8038 48.7038V67.4537C68.8038 69.2384 69.4021 70.9256 70.5341 72.3331C71.6482 73.7181 73.2135 74.6907 74.9417 75.072C75.3469 75.1615 75.7616 75.0879 76.1105 74.8651C76.4595 74.6423 76.7009 74.297 76.7903 73.8928C76.8795 73.4882 76.8063 73.0732 76.5834 72.7242C76.3606 72.3751 76.0153 72.1337 75.611 72.0443C74.5769 71.8164 73.6344 71.2272 72.9574 70.3853C72.2941 69.5606 71.9288 68.5195 71.9288 67.4537V48.7038C71.9288 46.6241 71.1141 44.6643 69.6349 43.1851C68.1557 41.7059 66.1958 40.8913 64.1163 40.8913C62.1957 40.8913 60.3466 41.601 58.9096 42.8899C58.316 43.4223 57.4166 43.4223 56.8231 42.8899C55.3862 41.601 53.5371 40.8913 51.6165 40.8913C49.6935 40.8913 47.8428 41.6026 46.405 42.8942C45.8114 43.4274 44.9114 43.4277 44.3176 42.8948C43.4042 42.0756 42.3026 41.4759 41.1312 41.1604C40.304 40.939 39.4481 41.4342 39.2264 42.2645C39.0045 43.0946 39.4995 43.9506 40.3297 44.1723C41.3212 44.4391 42.2106 45.0352 42.837 45.8516C43.4695 46.6755 43.8039 47.6618 43.8039 48.7037V67.4536C43.8039 68.3151 44.5048 69.0161 45.3664 69.0161C46.2279 69.0161 46.9289 68.3151 46.9289 67.4536V48.7037C46.9289 47.4584 47.4182 46.283 48.3068 45.3943C49.1956 44.5055 50.371 44.0162 51.6165 44.0162C52.8621 44.0162 54.0373 44.5055 54.9259 45.3943C55.8145 46.2827 56.3038 47.458 56.3038 48.7037V67.4536C56.3038 68.3151 57.0048 69.0161 57.8663 69.0161C58.7279 69.0161 59.4288 68.3151 59.4288 67.4536V48.7037C59.4288 47.4584 59.9182 46.283 60.8068 45.3943C61.6955 44.5057 62.8708 44.0163 64.1163 44.0163Z" fill="white"/>
</g>
<defs>
<clipPath id="clip0">
<rect x="18" y="18" width="80" height="80" fill="white"/>
</clipPath>
</defs>
</svg>
