<svg width="115" height="115" viewBox="0 0 115 115" fill="none" xmlns="http://www.w3.org/2000/svg">
<circle cx="57.5" cy="57.5" r="57.5" fill="#FF9226"/>
<path d="M57 98C34.9437 98 17 80.0563 17 58C17 35.9437 34.9437 18 57 18C79.0563 18 97 35.9437 97 58C97 80.0563 79.0563 98 57 98ZM57 20.6666C36.4147 20.6666 19.6666 37.4147 19.6666 58C19.6666 78.5853 36.4147 95.3334 57 95.3334C77.5853 95.3334 94.3334 78.5853 94.3334 58C94.3334 37.4147 77.5853 20.6666 57 20.6666Z" fill="white"/>
<path d="M82.3333 80.6666C82.0318 80.6666 81.7296 80.5653 81.48 80.3584C80.9148 79.8866 80.8385 79.0468 81.3091 78.4797C86.2682 72.5306 89.0001 65.2571 89.0001 58C89.0001 40.356 74.6453 25.9999 57 25.9999C52.0598 25.9999 47.3229 27.0948 42.9198 29.2549C42.26 29.5771 41.4599 29.3068 41.1358 28.6451C40.8123 27.9841 41.0839 27.1852 41.7455 26.8611C46.516 24.5216 51.6491 23.3333 57 23.3333C76.1144 23.3333 91.6668 38.8838 91.6668 58C91.6668 65.8802 88.7157 73.7599 83.3574 80.1881C83.0932 80.5043 82.7147 80.6666 82.3333 80.6666Z" fill="white"/>
<path d="M57 92.6667C37.8856 92.6667 22.3333 77.1161 22.3333 57.9999C22.3333 47.8583 26.7559 38.2544 34.4683 31.6516C35.0267 31.1731 35.8696 31.2372 36.3481 31.7975C36.8267 32.3572 36.7614 33.1983 36.2029 33.6774C29.0825 39.773 24.9999 48.6383 24.9999 57.9999C24.9999 75.644 39.3547 90 57 90C63.9891 90 70.6292 87.7881 76.201 83.5999C76.7906 83.1598 77.6256 83.277 78.0681 83.8654C78.5106 84.4532 78.3922 85.2893 77.8026 85.7318C71.7656 90.2692 64.572 92.6667 57 92.6667Z" fill="white"/>
<path d="M70.0664 78.6664L69.8229 78.6639C65.1842 78.5876 61.1016 75.8838 59.1637 71.6064C57.1611 67.1838 57.8533 62.1387 60.9691 58.4436C62.4614 56.6748 63.8707 54.3866 65.0469 51.828C66.2157 49.2853 66.3323 46.524 65.3624 44.256C64.1545 41.4264 61.7052 39.5959 58.8134 39.361C58.5399 39.3463 56.0198 39.3335 55.5974 39.3335C50.6731 39.3335 46.9585 42.7716 46.9585 47.3334V53.3276C52.097 55.0348 55.5999 59.8303 55.5999 65.3333C55.5999 68.7878 54.2333 72.0172 51.7534 74.4263C49.2827 76.828 46.0253 78.0627 42.5945 77.9944C36.2719 77.8119 30.9038 72.7264 30.3771 66.4148C29.8827 60.4999 33.452 55.1587 38.9745 53.3264V47.3334C38.9745 38.3612 46.2761 31.333 55.5974 31.333C55.6292 31.333 58.9214 31.3452 59.4536 31.3867C65.1024 31.8481 69.9614 35.2704 72.4535 40.545C74.5854 45.0543 74.4908 50.4694 72.1947 55.4028C70.7305 58.5492 69.0068 61.3092 67.0696 63.6053C65.7451 65.1758 65.8733 67.0599 66.4348 68.3002C67.1038 69.776 68.3904 70.6384 69.9651 70.6641C72.7147 70.6641 75.0762 68.9117 75.8171 66.3025C76.3237 64.5276 77.8722 63.3331 79.6691 63.3331C80.9264 63.3331 82.0842 63.9093 82.8453 64.9121C83.6144 65.9265 83.8585 67.2119 83.5161 68.4387C81.8346 74.4611 76.3042 78.6664 70.0664 78.6664ZM55.5974 36.6663C55.6267 36.6663 58.6626 36.676 59.0239 36.7023C62.9265 37.0197 66.2108 39.4519 67.8148 43.2092C69.0789 46.1694 68.9519 49.7156 67.4694 52.9425C66.1949 55.7147 64.652 58.2117 63.0083 60.1624C60.5602 63.0652 60.0188 67.0276 61.5923 70.5066C63.0999 73.8348 66.2682 75.9399 69.8589 75.9973L70.0811 75.9998C75.111 75.9998 79.5855 72.5946 80.9465 67.7209C81.0625 67.3041 80.9813 66.8665 80.7201 66.5253C80.4692 66.192 80.0853 65.9998 79.6691 65.9998C79.0758 65.9998 78.5601 66.416 78.3843 67.0319C77.3296 70.741 73.8597 73.3319 69.9468 73.3319C67.3149 73.2892 65.1012 71.8201 64.0068 69.4012C63.1096 67.42 62.9082 64.4049 65.0322 61.8866C66.8163 59.7693 68.4136 57.2095 69.7789 54.2773C71.7388 50.0653 71.8346 45.4742 70.0426 41.6852C67.9625 37.2827 63.9238 34.4281 59.24 34.0466C58.908 34.0198 56.2157 33.9996 55.5974 33.9996C47.7721 33.9996 41.6411 39.8572 41.6411 47.3334V54.3304C41.6411 54.9451 41.2212 55.4797 40.6224 55.6268C35.8123 56.7957 32.6213 61.2396 33.0345 66.1945C33.4508 71.1719 37.6842 75.1849 42.672 75.329C45.3734 75.4388 47.9467 74.4092 49.8949 72.5159C51.8547 70.6122 52.9332 68.0609 52.9332 65.3345C52.9332 60.7092 49.7985 56.7188 45.3093 55.6281C44.7118 55.4828 44.2907 54.9463 44.2907 54.3317V47.3334C44.2931 41.2518 49.1533 36.6663 55.5974 36.6663Z" fill="white"/>
<path d="M42.9998 72.6667C38.9562 72.6667 35.6664 69.3757 35.6664 65.3334C35.6664 61.2904 38.9562 58 42.9998 58C47.0439 58 50.3331 61.2904 50.3331 65.3334C50.3331 69.3757 47.0439 72.6667 42.9998 72.6667ZM42.9998 60.6666C40.4265 60.6666 38.3336 62.7601 38.3336 65.3334C38.3336 67.9066 40.4265 70.0001 42.9998 70.0001C45.5736 70.0001 47.6665 67.9066 47.6665 65.3334C47.6665 62.7601 45.5736 60.6666 42.9998 60.6666Z" fill="white"/>
</svg>
