<svg width="312" height="99" viewBox="0 0 312 99" fill="none" xmlns="http://www.w3.org/2000/svg">
<g opacity="0.4" filter="url(#filter0_f)">
<path d="M11.759 74.4245C8.46335 70.6413 8.48132 65.0016 11.8011 61.2394L28.4398 42.3835C30.3381 40.2323 33.0689 39 35.9379 39L280.062 39C282.931 39 285.662 40.2323 287.56 42.3835L304.199 61.2394C307.519 65.0016 307.537 70.6413 304.241 74.4245L287.564 93.5685C285.665 95.7486 282.915 97 280.024 97L35.9764 97C33.0851 97 30.3353 95.7486 28.4362 93.5685L11.759 74.4245Z" fill="url(#paint0_linear)"/>
</g>
<path opacity="0.3" d="M10.1479 34.5C9.11038 31.6926 9.38486 28.5681 10.896 25.9846L23.1985 4.95116C24.9921 1.8847 28.2779 0 31.8304 0L278.118 0C282.697 0 286.691 3.11014 287.814 7.54958L297.889 47.4144C298.568 50.0984 298.103 52.9436 296.606 55.2723L286.559 70.9014C284.735 73.7381 281.605 75.4646 278.232 75.4935L33.1232 77.5883C28.9062 77.6243 25.1198 75.0109 23.6578 71.0552L10.1479 34.5Z" fill="#BF1888"/>
<path d="M4.56445 43.6087C2.53287 40.5666 2.54469 36.5976 4.59435 33.5676L23.9485 4.95721C25.6225 2.4826 28.4154 1 31.403 1L280.597 1C283.585 1 286.378 2.4826 288.052 4.95721L307.406 33.5676C309.455 36.5976 309.467 40.5667 307.436 43.6087L288.043 72.6467C286.373 75.147 283.565 76.6484 280.559 76.6484L31.4412 76.6484C28.4346 76.6484 25.6266 75.147 23.9568 72.6467L4.56445 43.6087Z" fill="url(#paint1_linear)" stroke="url(#paint2_linear)" stroke-width="2"/>
<g opacity="0.6" filter="url(#filter1_f)">
<path d="M283.069 2.83636L296.116 15.8836L96.4364 2.83636H283.069Z" fill="#FF1E26"/>
</g>
<g opacity="0.3" filter="url(#filter2_f)">
<path d="M24.3927 2.83636L131.04 8.50909L11.3455 14.1818L24.3927 2.83636Z" fill="white"/>
</g>
<g opacity="0.6" filter="url(#filter3_f)">
<path d="M296.116 57.8618L280.8 76.0145L97.3324 72.8945L296.116 57.8618Z" fill="url(#paint3_linear)"/>
</g>
<g opacity="0.5" filter="url(#filter4_f)">
<path d="M8 41L56.5 76H34L8 41Z" fill="url(#paint4_linear)"/>
</g>
<defs>
<filter id="filter0_f" x="7.29919" y="37" width="301.402" height="62" filterUnits="userSpaceOnUse" color-interpolation-filters="sRGB">
<feFlood flood-opacity="0" result="BackgroundImageFix"/>
<feBlend mode="normal" in="SourceGraphic" in2="BackgroundImageFix" result="shape"/>
<feGaussianBlur stdDeviation="1" result="effect1_foregroundBlur"/>
</filter>
<filter id="filter1_f" x="95.4364" y="1.83636" width="201.68" height="15.0473" filterUnits="userSpaceOnUse" color-interpolation-filters="sRGB">
<feFlood flood-opacity="0" result="BackgroundImageFix"/>
<feBlend mode="normal" in="SourceGraphic" in2="BackgroundImageFix" result="shape"/>
<feGaussianBlur stdDeviation="0.5" result="effect1_foregroundBlur"/>
</filter>
<filter id="filter2_f" x="9.34546" y="0.836365" width="123.695" height="15.3455" filterUnits="userSpaceOnUse" color-interpolation-filters="sRGB">
<feFlood flood-opacity="0" result="BackgroundImageFix"/>
<feBlend mode="normal" in="SourceGraphic" in2="BackgroundImageFix" result="shape"/>
<feGaussianBlur stdDeviation="1" result="effect1_foregroundBlur"/>
</filter>
<filter id="filter3_f" x="93.3324" y="53.8618" width="206.784" height="26.1527" filterUnits="userSpaceOnUse" color-interpolation-filters="sRGB">
<feFlood flood-opacity="0" result="BackgroundImageFix"/>
<feBlend mode="normal" in="SourceGraphic" in2="BackgroundImageFix" result="shape"/>
<feGaussianBlur stdDeviation="2" result="effect1_foregroundBlur"/>
</filter>
<filter id="filter4_f" x="6" y="39" width="52.5" height="39" filterUnits="userSpaceOnUse" color-interpolation-filters="sRGB">
<feFlood flood-opacity="0" result="BackgroundImageFix"/>
<feBlend mode="normal" in="SourceGraphic" in2="BackgroundImageFix" result="shape"/>
<feGaussianBlur stdDeviation="1" result="effect1_foregroundBlur"/>
</filter>
<linearGradient id="paint0_linear" x1="158" y1="53" x2="158" y2="110.5" gradientUnits="userSpaceOnUse">
<stop offset="0.513043" stop-color="#8F0050"/>
<stop offset="0.965217" stop-color="#8F0050" stop-opacity="0"/>
</linearGradient>
<linearGradient id="paint1_linear" x1="0" y1="38.8242" x2="312" y2="38.8242" gradientUnits="userSpaceOnUse">
<stop stop-color="#922990"/>
<stop offset="1" stop-color="#DC0B80"/>
</linearGradient>
<linearGradient id="paint2_linear" x1="0" y1="38.8242" x2="312" y2="38.8242" gradientUnits="userSpaceOnUse">
<stop stop-color="#F2A5F9"/>
<stop offset="0.349091" stop-color="#A0618E"/>
<stop offset="0.732727" stop-color="#F8A1EA"/>
<stop offset="1" stop-color="#B9268D"/>
</linearGradient>
<linearGradient id="paint3_linear" x1="302" y1="36" x2="197" y2="105" gradientUnits="userSpaceOnUse">
<stop stop-color="#B91989"/>
<stop offset="1" stop-color="#FF1E26"/>
</linearGradient>
<linearGradient id="paint4_linear" x1="11" y1="44" x2="44.5" y2="79" gradientUnits="userSpaceOnUse">
<stop stop-color="#FFE3E1"/>
<stop offset="1" stop-color="#FF1E13"/>
</linearGradient>
</defs>
</svg>
