<svg width="67" height="67" viewBox="0 0 67 67" fill="none" xmlns="http://www.w3.org/2000/svg">
<circle cx="33.5" cy="33.5" r="33.5" fill="#B20421"/>
<path d="M44.3875 31.5366C44.1893 31.1412 43.7082 30.9813 43.3127 31.1796C42.9174 31.3778 42.7575 31.859 42.9557 32.2543C43.6953 33.7297 44.0703 35.3211 44.0703 36.9844C44.0703 42.8129 39.3284 47.5547 33.5 47.5547C27.6715 47.5547 22.9296 42.8129 22.9296 36.9844C22.9296 31.1559 27.6715 26.414 33.5 26.414C35.1874 26.414 36.7997 26.7995 38.292 27.5599C38.686 27.7606 39.1682 27.604 39.369 27.2099C39.5698 26.8159 39.4132 26.3337 39.0191 26.1329C37.2995 25.2567 35.4427 24.8124 33.5 24.8124C26.7883 24.8124 21.328 30.2727 21.328 36.9844C21.328 43.696 26.7883 49.1562 33.5 49.1562C40.2116 49.1562 45.6718 43.696 45.6718 36.9844C45.6718 35.0697 45.2397 33.2369 44.3875 31.5366Z" fill="white"/>
<path d="M35.3374 21.0748L39.7234 16.6887C40.0361 16.376 40.0361 15.869 39.7234 15.5562L36.4016 12.2345C36.2514 12.0844 36.0478 12 35.8354 12H31.1849C30.9726 12 30.7689 12.0844 30.6187 12.2345C30.6187 12.2345 27.2292 15.6299 27.1974 15.6776C26.9851 15.9953 27.0267 16.4186 27.2969 16.6888L31.6808 21.0727C23.7033 21.9789 17.4844 28.7684 17.4844 36.9844C17.4844 45.8154 24.669 53 33.5 53C42.331 53 49.5156 45.8154 49.5156 36.9844C49.5156 28.7748 43.3062 21.9893 35.3374 21.0748ZM33.5102 20.6371L29.7964 16.9233H37.2238L33.5102 20.6371ZM31.5166 13.6016H35.5036L37.2238 15.3217H29.7964L31.5166 13.6016ZM33.5 51.3984C25.5521 51.3984 19.0859 44.9323 19.0859 36.9844C19.0859 29.0365 25.5521 22.5703 33.5 22.5703C41.4479 22.5703 47.9141 29.0365 47.9141 36.9844C47.9141 44.9323 41.4479 51.3984 33.5 51.3984Z" fill="white"/>
<path d="M41.5671 29.7709C41.7777 29.7709 41.9843 29.686 42.1332 29.5363C42.2822 29.3874 42.3679 29.1808 42.3679 28.9702C42.3679 28.7595 42.2822 28.5529 42.1332 28.404C41.9843 28.2551 41.7777 28.1694 41.5671 28.1694C41.3557 28.1694 41.1499 28.2551 41.001 28.404C40.852 28.5529 40.7664 28.7595 40.7664 28.9702C40.7664 29.1808 40.852 29.3874 41.001 29.5363C41.1499 29.686 41.3565 29.7709 41.5671 29.7709Z" fill="white"/>
</svg>
