<svg width="35" height="35" viewBox="0 0 35 35" fill="none" xmlns="http://www.w3.org/2000/svg">
<rect width="35" height="35" rx="5" fill="#C4C4C4"/>
<g clip-path="url(#clip0)">
<path d="M25.4011 13.1236C25.0418 12.7472 24.5456 12.5247 23.981 12.5247H21.1407V12.4905C21.1407 12.0628 20.9696 11.6521 20.6787 11.3784C20.3878 11.0875 19.9943 10.9164 19.5665 10.9164H14.4335C13.9886 10.9164 13.5951 11.0875 13.3042 11.3784C13.0133 11.6692 12.8422 12.0628 12.8422 12.4905V12.5247H10.019C9.45437 12.5247 8.95817 12.7472 8.59886 13.1236C8.23954 13.4829 8 13.9962 8 14.5438V23.0647C8 23.6293 8.22243 24.1255 8.59886 24.4848C8.95817 24.8441 9.47148 25.0837 10.019 25.0837H23.981C24.5456 25.0837 25.0418 24.8612 25.4011 24.4848C25.7605 24.1255 26 23.6122 26 23.0647V14.5438C26 13.9791 25.7776 13.4829 25.4011 13.1236ZM25.1103 23.0647H25.0932C25.0932 23.3727 24.9734 23.6464 24.7681 23.8517C24.5627 24.0571 24.289 24.1768 23.981 24.1768H10.019C9.71103 24.1768 9.43726 24.0571 9.23194 23.8517C9.02662 23.6464 8.90684 23.3727 8.90684 23.0647V14.5438C8.90684 14.2358 9.02662 13.962 9.23194 13.7567C9.43726 13.5514 9.71103 13.4316 10.019 13.4316H13.3213C13.5779 13.4316 13.7833 13.2263 13.7833 12.9696V12.4734C13.7833 12.2852 13.8517 12.1141 13.9715 11.9943C14.0913 11.8746 14.2624 11.8061 14.4506 11.8061H19.5665C19.7548 11.8061 19.9259 11.8746 20.0456 11.9943C20.1654 12.1141 20.2338 12.2852 20.2338 12.4734V12.9696C20.2338 13.2263 20.4392 13.4316 20.6958 13.4316H23.9981C24.3061 13.4316 24.5798 13.5514 24.7852 13.7567C24.9905 13.962 25.1103 14.2358 25.1103 14.5438V23.0647Z" fill="white"/>
<path d="M16.9999 14.5951C15.8364 14.5951 14.7756 15.0742 14.0227 15.827C13.2527 16.597 12.7908 17.6407 12.7908 18.8042C12.7908 19.9677 13.2699 21.0286 14.0227 21.7814C14.7927 22.5514 15.8364 23.0133 16.9999 23.0133C18.1634 23.0133 19.2242 22.5343 19.9771 21.7814C20.747 21.0114 21.209 19.9677 21.209 18.8042C21.209 17.6407 20.7299 16.5799 19.9771 15.827C19.2242 15.0742 18.1634 14.5951 16.9999 14.5951ZM19.3269 21.1483C18.728 21.7301 17.9067 22.1065 16.9999 22.1065C16.0931 22.1065 15.2718 21.7301 14.6729 21.1483C14.074 20.5495 13.7147 19.7282 13.7147 18.8213C13.7147 17.9145 14.0912 17.0932 14.6729 16.4943C15.2718 15.8955 16.0931 15.5362 16.9999 15.5362C17.9067 15.5362 18.728 15.9126 19.3269 16.4943C19.9258 17.0932 20.2851 17.9145 20.2851 18.8213C20.3022 19.7282 19.9258 20.5495 19.3269 21.1483Z" fill="white"/>
<path d="M23.0913 16.2548C23.5544 16.2548 23.9297 15.8794 23.9297 15.4164C23.9297 14.9534 23.5544 14.578 23.0913 14.578C22.6283 14.578 22.2529 14.9534 22.2529 15.4164C22.2529 15.8794 22.6283 16.2548 23.0913 16.2548Z" fill="white"/>
</g>
<defs>
<clipPath id="clip0">
<rect width="18" height="18" fill="white" transform="translate(8 9)"/>
</clipPath>
</defs>
</svg>
