<svg width="124" height="23" viewBox="0 0 124 23" fill="none" xmlns="http://www.w3.org/2000/svg">
<path d="M11.0144 1.81699C11.3812 1.07374 12.4411 1.07374 12.8079 1.81699L15.0582 6.37671C15.2039 6.67185 15.4855 6.87642 15.8112 6.92375L20.8431 7.65494C21.6633 7.77412 21.9909 8.78209 21.3973 9.36063L17.7562 12.9099C17.5205 13.1396 17.4129 13.4706 17.4686 13.795L18.3281 18.8066C18.4683 19.6235 17.6108 20.2465 16.8772 19.8608L12.3765 17.4946C12.0851 17.3415 11.7371 17.3415 11.4458 17.4946L6.94508 19.8608C6.21145 20.2465 5.35401 19.6235 5.49412 18.8066L6.35369 13.795C6.40932 13.4706 6.30177 13.1396 6.06609 12.9099L2.42493 9.36063C1.83142 8.78209 2.15893 7.77412 2.97915 7.65494L8.0111 6.92375C8.33681 6.87642 8.61838 6.67185 8.76404 6.37671L11.0144 1.81699Z" fill="#E39F53"/>
<path d="M36.0144 1.81699C36.3812 1.07374 37.4411 1.07374 37.8079 1.81699L40.0582 6.37671C40.2039 6.67185 40.4855 6.87642 40.8112 6.92375L45.8431 7.65494C46.6633 7.77412 46.9909 8.78209 46.3973 9.36063L42.7562 12.9099C42.5205 13.1396 42.4129 13.4706 42.4686 13.795L43.3281 18.8066C43.4683 19.6235 42.6108 20.2465 41.8772 19.8608L37.3765 17.4946C37.0851 17.3415 36.7371 17.3415 36.4458 17.4946L31.9451 19.8608C31.2114 20.2465 30.354 19.6235 30.4941 18.8066L31.3537 13.795C31.4093 13.4706 31.3018 13.1396 31.0661 12.9099L27.4249 9.36063C26.8314 8.78209 27.1589 7.77412 27.9791 7.65494L33.0111 6.92375C33.3368 6.87642 33.6184 6.67185 33.764 6.37671L36.0144 1.81699Z" fill="#E39F53"/>
<path d="M61.0144 1.81699C61.3812 1.07374 62.4411 1.07374 62.8079 1.81699L65.0582 6.37671C65.2039 6.67185 65.4855 6.87642 65.8112 6.92375L70.8431 7.65494C71.6633 7.77412 71.9909 8.78209 71.3973 9.36063L67.7562 12.9099C67.5205 13.1396 67.4129 13.4706 67.4686 13.795L68.3281 18.8066C68.4683 19.6235 67.6108 20.2465 66.8772 19.8608L62.3765 17.4946C62.0851 17.3415 61.7371 17.3415 61.4458 17.4946L56.9451 19.8608C56.2114 20.2465 55.354 19.6235 55.4941 18.8066L56.3537 13.795C56.4093 13.4706 56.3018 13.1396 56.0661 12.9099L52.4249 9.36063C51.8314 8.78209 52.1589 7.77412 52.9791 7.65494L58.0111 6.92375C58.3368 6.87642 58.6184 6.67185 58.764 6.37671L61.0144 1.81699Z" fill="#E39F53"/>
<path d="M86.0144 1.81699C86.3812 1.07374 87.4411 1.07374 87.8079 1.81699L90.0582 6.37671C90.2039 6.67185 90.4855 6.87642 90.8112 6.92375L95.8431 7.65494C96.6633 7.77412 96.9909 8.78209 96.3973 9.36063L92.7562 12.9099C92.5205 13.1396 92.4129 13.4706 92.4686 13.795L93.3281 18.8066C93.4683 19.6235 92.6108 20.2465 91.8772 19.8608L87.3765 17.4946C87.0851 17.3415 86.7371 17.3415 86.4458 17.4946L81.9451 19.8608C81.2114 20.2465 80.354 19.6235 80.4941 18.8066L81.3537 13.795C81.4093 13.4706 81.3018 13.1396 81.0661 12.9099L77.4249 9.36063C76.8314 8.78209 77.1589 7.77412 77.9791 7.65494L83.0111 6.92375C83.3368 6.87642 83.6184 6.67185 83.764 6.37671L86.0144 1.81699Z" fill="#E39F53"/>
<path d="M111.014 1.81699C111.381 1.07374 112.441 1.07374 112.808 1.81699L115.058 6.37671C115.204 6.67185 115.485 6.87642 115.811 6.92375L120.843 7.65494C121.663 7.77412 121.991 8.78209 121.397 9.36063L117.756 12.9099C117.52 13.1396 117.413 13.4706 117.469 13.795L118.328 18.8066C118.468 19.6235 117.611 20.2465 116.877 19.8608L112.376 17.4946C112.085 17.3415 111.737 17.3415 111.446 17.4946L106.945 19.8608C106.211 20.2465 105.354 19.6235 105.494 18.8066L106.354 13.795C106.409 13.4706 106.302 13.1396 106.066 12.9099L102.425 9.36063C101.831 8.78209 102.159 7.77412 102.979 7.65494L108.011 6.92375C108.337 6.87642 108.618 6.67185 108.764 6.37671L111.014 1.81699Z" fill="#E39F53"/>
</svg>
