<svg width="67" height="63" viewBox="0 0 67 63" fill="none" xmlns="http://www.w3.org/2000/svg">
<path d="M44.5713 2.41454C45.2091 2.41454 45.7261 1.89749 45.7261 1.26002C45.7261 0.622545 45.2091 0.105225 44.5713 0.105225C43.9336 0.105225 43.4168 0.622275 43.4168 1.26002C43.4168 1.89776 43.9339 2.41454 44.5713 2.41454Z" fill="white"/>
<path d="M60.5 8.56975C61.097 8.56975 61.58 8.08619 61.58 7.48976V5.32976C61.58 4.73333 61.097 4.24976 60.5 4.24976C59.903 4.24976 59.42 4.73333 59.42 5.32976V7.48976C59.42 8.08619 59.903 8.56975 60.5 8.56975Z" fill="white"/>
<path d="M61.58 13.9697V11.8097C61.58 11.2133 61.097 10.7297 60.5 10.7297C59.903 10.7297 59.42 11.2133 59.42 11.8097V13.9697C59.42 14.5662 59.903 15.0497 60.5 15.0497C61.097 15.0497 61.58 14.5662 61.58 13.9697Z" fill="white"/>
<path d="M65.9 17.2097C65.303 17.2097 64.82 17.6933 64.82 18.2897V32.7042C64.82 42.6213 57.3032 50.6897 48.0641 50.6897H34.58V48.5297C34.58 47.9333 34.097 47.4497 33.5 47.4497C32.903 47.4497 32.42 47.9333 32.42 48.5297V50.6897H18.9359C9.69679 50.6897 2.17999 42.6213 2.17999 32.7042V18.2897C2.17999 17.6933 1.69696 17.2097 1.09999 17.2097C0.503019 17.2097 0.019989 17.6933 0.019989 18.2897V32.7042C0.019989 43.8128 8.50609 52.8497 18.9359 52.8497H48.0643C58.4942 52.8497 66.9803 43.8125 66.9803 32.7042V18.2897C66.98 17.6933 66.497 17.2097 65.9 17.2097Z" fill="white"/>
<path d="M56.18 10.7296H58.34C58.937 10.7296 59.42 10.246 59.42 9.64958C59.42 9.05315 58.937 8.56958 58.34 8.56958H56.18C55.583 8.56958 55.1 9.05315 55.1 9.64958C55.1 10.246 55.583 10.7296 56.18 10.7296Z" fill="white"/>
<path d="M62.66 10.7296H64.82C65.417 10.7296 65.9 10.246 65.9 9.64958C65.9 9.05315 65.417 8.56958 64.82 8.56958H62.66C62.063 8.56958 61.58 9.05315 61.58 9.64958C61.58 10.246 62.063 10.7296 62.66 10.7296Z" fill="white"/>
<path d="M10.28 53.9297C8.19587 53.9297 6.5 55.6256 6.5 57.7097C6.5 59.7938 8.19587 61.4897 10.28 61.4897C12.3641 61.4897 14.06 59.7938 14.06 57.7097C14.06 55.6256 12.3641 53.9297 10.28 53.9297ZM10.28 59.3297C9.38657 59.3297 8.66 58.6031 8.66 57.7097C8.66 56.8163 9.38657 56.0897 10.28 56.0897C11.1734 56.0897 11.9 56.8163 11.9 57.7097C11.9 58.6031 11.1734 59.3297 10.28 59.3297Z" fill="white"/>
<path d="M26.2113 60.5854C25.5736 60.5854 25.0568 61.1025 25.0568 61.7402C25.0568 62.378 25.5739 62.8948 26.2113 62.8948C26.8488 62.8948 27.3661 62.3777 27.3661 61.7402C27.3661 61.1028 26.8491 60.5854 26.2113 60.5854Z" fill="white"/>
<path d="M7.84783 25.1378C7.64209 25.3719 7.5484 25.6832 7.58944 25.9915C7.6105 26.1492 8.13565 29.9108 11.1289 34.2271C13.0062 36.9325 15.43 39.252 18.3325 41.122C22.9403 44.092 28.2191 45.5765 33.5 45.5765C38.7799 45.5765 44.0605 44.0915 48.6675 41.1226C51.5859 39.2415 54.0189 36.9076 55.8995 34.1855C58.8673 29.8871 59.3895 26.1481 59.4106 25.9915C59.4516 25.6829 59.3579 25.3719 59.1522 25.1378C58.9475 24.9037 58.6513 24.7698 58.34 24.7698H8.65999C8.34895 24.7698 8.05249 24.9037 7.84783 25.1378ZM47.4968 39.3071C38.994 44.7873 28.006 44.7878 19.5032 39.3066C17.5443 38.0449 15.8307 36.5591 14.3759 34.8805C20.024 35.3241 25.8917 35.5592 32.072 35.5592C38.5811 35.5592 45.4435 35.2998 52.6903 34.8076C51.2231 36.5164 49.4854 38.0257 47.4968 39.3071ZM39.98 33.2696V26.9298H45.38V33.0653C43.5543 33.1506 41.7544 33.2183 39.98 33.2696ZM54.4012 32.5298C52.0693 32.7002 49.7891 32.8393 47.54 32.9591V26.9295H56.9954C56.6517 28.1723 55.9046 30.2386 54.4012 32.5298ZM37.82 26.9298V33.3361C28.8401 33.5286 20.5068 33.2723 12.6274 32.576C11.1148 30.2794 10.3578 28.1864 10.0078 26.93H37.82V26.9298Z" fill="white"/>
<path d="M56.18 22.6098C56.18 23.2062 56.663 23.6898 57.26 23.6898C59.0466 23.6898 60.5 25.1432 60.5 26.9298C60.5 27.5262 60.983 28.0098 61.58 28.0098C62.177 28.0098 62.66 27.5262 62.66 26.9298C62.66 23.9525 60.2373 21.5298 57.26 21.5298C56.663 21.5298 56.18 22.0134 56.18 22.6098Z" fill="white"/>
<path d="M5.42 28.0098C6.01697 28.0098 6.5 27.5262 6.5 26.9298C6.5 25.1432 7.95341 23.6898 9.74 23.6898C10.337 23.6898 10.82 23.2062 10.82 22.6098C10.82 22.0134 10.337 21.5298 9.74 21.5298C6.76271 21.5298 4.34 23.9525 4.34 26.9298C4.34 27.5262 4.82303 28.0098 5.42 28.0098Z" fill="white"/>
</svg>
