<svg width="62" height="87" viewBox="0 0 62 87" fill="none" xmlns="http://www.w3.org/2000/svg">
<path opacity="0.2" d="M61.5 87H1.96875V74.1094L29.3906 45.2812C36.1484 37.5859 39.5273 31.4727 39.5273 26.9414C39.5273 23.2695 38.7266 20.4766 37.125 18.5625C35.5234 16.6484 33.1992 15.6914 30.1523 15.6914C27.1445 15.6914 24.7031 16.9805 22.8281 19.5586C20.9531 22.0977 20.0156 25.2813 20.0156 29.1094H0.210938C0.210938 23.875 1.51953 19.0508 4.13672 14.6367C6.75391 10.1836 10.3867 6.70703 15.0352 4.20703C19.6836 1.70703 24.8789 0.457031 30.6211 0.457031C39.8398 0.457031 46.9297 2.58594 51.8906 6.84375C56.8906 11.1016 59.3906 17.2148 59.3906 25.1836C59.3906 28.543 58.7656 31.8242 57.5156 35.0273C56.2656 38.1914 54.3125 41.5312 51.6562 45.0469C49.0391 48.5234 44.8008 53.1914 38.9414 59.0508L27.9258 71.7656H61.5V87Z" fill="#68D1CB"/>
</svg>
