<svg width="63" height="89" viewBox="0 0 63 89" fill="none" xmlns="http://www.w3.org/2000/svg">
<path opacity="0.2" d="M21.0156 36.082H30.332C37.7148 36.082 41.4062 32.4688 41.4062 25.2422C41.4062 22.4297 40.5273 20.1445 38.7695 18.3867C37.0117 16.5898 34.5312 15.6914 31.3281 15.6914C28.7109 15.6914 26.4258 16.4531 24.4727 17.9766C22.5586 19.5 21.6016 21.3945 21.6016 23.6602H1.85547C1.85547 19.168 3.10547 15.1641 5.60547 11.6484C8.10547 8.13281 11.5625 5.39844 15.9766 3.44531C20.4297 1.45312 25.3125 0.457031 30.625 0.457031C40.1172 0.457031 47.5781 2.625 53.0078 6.96094C58.4375 11.2969 61.1523 17.2539 61.1523 24.832C61.1523 28.5039 60.0195 31.9805 57.7539 35.2617C55.5273 38.5039 52.2656 41.1406 47.9688 43.1719C52.5 44.8125 56.0547 47.3125 58.6328 50.6719C61.2109 53.9922 62.5 58.1133 62.5 63.0352C62.5 70.6523 59.5703 76.7461 53.7109 81.3164C47.8516 85.8867 40.1562 88.1719 30.625 88.1719C25.0391 88.1719 19.8438 87.1172 15.0391 85.0078C10.2734 82.8594 6.66016 79.9102 4.19922 76.1602C1.73828 72.3711 0.507812 68.0742 0.507812 63.2695H20.3711C20.3711 65.8867 21.4258 68.1523 23.5352 70.0664C25.6445 71.9805 28.2422 72.9375 31.3281 72.9375C34.8047 72.9375 37.5781 71.9805 39.6484 70.0664C41.7188 68.1133 42.7539 65.6328 42.7539 62.625C42.7539 58.3281 41.6797 55.2812 39.5312 53.4844C37.3828 51.6875 34.4141 50.7891 30.625 50.7891H21.0156V36.082Z" fill="#68D1CB"/>
</svg>
