<svg width="48" height="48" viewBox="0 0 48 48" fill="none" xmlns="http://www.w3.org/2000/svg">
<circle cx="24" cy="24" r="22.5" fill="white" stroke="url(#paint0_linear)" stroke-width="3"/>
<path d="M30.7134 33H18.5308V30.583L24.2803 24.4551C25.0697 23.5924 25.6515 22.8397 26.0259 22.1968C26.4084 21.5539 26.5996 20.9435 26.5996 20.3657C26.5996 19.5763 26.4002 18.9578 26.0015 18.5103C25.6027 18.0545 25.033 17.8267 24.2925 17.8267C23.495 17.8267 22.8643 18.1034 22.4004 18.6567C21.9447 19.202 21.7168 19.9222 21.7168 20.8174H18.1768C18.1768 19.735 18.4331 18.7463 18.9458 17.8511C19.4666 16.9559 20.1991 16.256 21.1431 15.7515C22.0871 15.2388 23.1572 14.9824 24.3535 14.9824C26.1846 14.9824 27.6047 15.4219 28.6138 16.3008C29.631 17.1797 30.1396 18.4207 30.1396 20.0239C30.1396 20.9028 29.9118 21.798 29.4561 22.7095C29.0003 23.6209 28.2191 24.6829 27.1123 25.8955L23.0718 30.1558H30.7134V33Z" fill="black"/>
<defs>
<linearGradient id="paint0_linear" x1="24" y1="0" x2="24" y2="48" gradientUnits="userSpaceOnUse">
<stop stop-color="#20A6C4"/>
<stop offset="1" stop-color="white" stop-opacity="0"/>
</linearGradient>
</defs>
</svg>
