<svg width="48" height="48" viewBox="0 0 48 48" fill="none" xmlns="http://www.w3.org/2000/svg">
<circle cx="24" cy="24" r="22.5" fill="white" stroke="url(#paint0_linear)" stroke-width="3"/>
<path d="M21.1196 22.5508H22.9995C23.8947 22.5508 24.5579 22.327 24.9893 21.8794C25.4206 21.4318 25.6362 20.8377 25.6362 20.0972C25.6362 19.381 25.4206 18.8236 24.9893 18.4248C24.5661 18.026 23.9801 17.8267 23.2314 17.8267C22.556 17.8267 21.9904 18.0138 21.5347 18.3882C21.0789 18.7544 20.8511 19.2345 20.8511 19.8286H17.3232C17.3232 18.9009 17.5715 18.0708 18.0679 17.3384C18.5724 16.5978 19.2723 16.02 20.1675 15.605C21.0708 15.1899 22.0636 14.9824 23.146 14.9824C25.0259 14.9824 26.4989 15.4341 27.5649 16.3374C28.631 17.2326 29.1641 18.4696 29.1641 20.0483C29.1641 20.8621 28.9159 21.6108 28.4194 22.2944C27.923 22.978 27.272 23.5029 26.4663 23.8691C27.4673 24.2272 28.2119 24.7643 28.7002 25.4805C29.1966 26.1966 29.4448 27.043 29.4448 28.0195C29.4448 29.5983 28.867 30.8638 27.7114 31.8159C26.564 32.7681 25.0422 33.2441 23.146 33.2441C21.3719 33.2441 19.9193 32.7762 18.7881 31.8403C17.665 30.9045 17.1035 29.6675 17.1035 28.1294H20.6313C20.6313 28.7967 20.8796 29.342 21.376 29.7651C21.8805 30.1883 22.499 30.3999 23.2314 30.3999C24.0697 30.3999 24.7248 30.1802 25.1968 29.7407C25.6769 29.2931 25.917 28.7031 25.917 27.9707C25.917 26.1966 24.9404 25.3096 22.9873 25.3096H21.1196V22.5508Z" fill="black"/>
<defs>
<linearGradient id="paint0_linear" x1="24" y1="0" x2="24" y2="48" gradientUnits="userSpaceOnUse">
<stop stop-color="#20A6C4"/>
<stop offset="1" stop-color="white" stop-opacity="0"/>
</linearGradient>
</defs>
</svg>
