<svg width="202" height="42" viewBox="0 0 202 42" fill="none" xmlns="http://www.w3.org/2000/svg">
<path d="M12.93 29.12L7.8 29H6.21C3.89 29 2.22 29.08 1.2 29.24C1.1 29.12 1.05 28.95 1.05 28.73L1.08 28.49C2.12 28.25 2.8 27.88 3.12 27.38C3.38 26.98 3.55 26.48 3.63 25.88C3.87 24.06 3.99 21.58 3.99 18.44C3.99 11.86 3.81 8.51 3.45 8.39C3.07 8.29 2.41 8.24 1.47 8.24C1.43 8.1 1.41 7.94 1.41 7.76C1.41 7.58 1.43 7.43 1.47 7.31L6.03 7.4H9.48L16.56 7.19C16.9 7.19 17.07 7.3 17.07 7.52C17.07 7.54 17.04 7.78 16.98 8.24C16.78 9.48 16.64 10.87 16.56 12.41C16.32 12.53 16.1 12.59 15.9 12.59C15.72 12.59 15.55 12.55 15.39 12.47C15.15 10.65 14.97 9.52 14.85 9.08C13.03 8.66 11.39 8.45 9.93 8.45C8.49 8.45 7.49 8.49 6.93 8.57C6.69 9.85 6.57 12.7 6.57 17.12C6.89 17.2 7.74 17.24 9.12 17.24C10.5 17.24 11.53 17.2 12.21 17.12C12.89 17.04 13.38 16.88 13.68 16.64C14 16.4 14.24 15.91 14.4 15.17C14.82 15.17 15.13 15.23 15.33 15.35C15.13 16.49 15.03 17.33 15.03 17.87L15.09 20.48C14.95 20.58 14.77 20.63 14.55 20.63L14.13 20.57L13.8 18.59C12.72 18.41 11.46 18.32 10.02 18.32C8.58 18.32 7.43 18.37 6.57 18.47V23.84C6.57 25.72 6.63 27.04 6.75 27.8C7.37 27.88 8.08 27.92 8.88 27.92C10.94 27.92 12.98 27.65 15 27.11C15.3 26.63 15.59 26.01 15.87 25.25C16.15 24.47 16.31 24.01 16.35 23.87C16.47 23.85 16.63 23.84 16.83 23.84C17.03 23.84 17.25 23.93 17.49 24.11C17.19 25.53 16.97 27 16.83 28.52C16.81 28.76 16.68 28.89 16.44 28.91C15.56 29.05 14.39 29.12 12.93 29.12ZM32.8024 29.12L27.6724 29H25.6924C23.4324 29 21.7624 29.08 20.6824 29.24C20.5824 29.12 20.5324 28.95 20.5324 28.73L20.5624 28.49C21.6024 28.25 22.2824 27.88 22.6024 27.38C22.8624 26.98 23.0624 26.22 23.2024 25.1C23.3624 23.96 23.4424 21.77 23.4424 18.53V12.47C23.4424 9.73 23.3124 8.35 23.0524 8.33C22.6724 8.27 22.0724 8.24 21.2524 8.24C21.1924 8.1 21.1624 7.94 21.1624 7.76C21.1624 7.58 21.1924 7.43 21.2524 7.31L24.1324 7.4C25.9724 7.4 27.3924 7.32 28.3924 7.16C28.5124 7.32 28.5724 7.48 28.5724 7.64L28.5124 7.91C27.6924 8.13 27.1524 8.41 26.8924 8.75C26.6324 9.07 26.4724 9.54 26.4124 10.16C26.1724 12.62 26.0524 15.29 26.0524 18.17V23.84C26.0524 25.72 26.1124 27.04 26.2324 27.8C26.9524 27.88 27.7924 27.92 28.7524 27.92C30.8124 27.92 32.8524 27.65 34.8724 27.11C35.1924 26.65 35.4824 26.04 35.7424 25.28C36.0224 24.5 36.1924 24.03 36.2524 23.87C36.3524 23.85 36.5024 23.84 36.7024 23.84C36.9024 23.84 37.1224 23.93 37.3624 24.11C37.2824 24.53 37.1524 25.41 36.9724 26.75C36.7924 28.09 36.6824 28.78 36.6424 28.82C36.3824 29.02 35.1024 29.12 32.8024 29.12Z" fill="white"/>
<path d="M99.28 29.09L96.16 29C94 29 92.25 29.08 90.91 29.24C90.81 29.12 90.76 28.95 90.76 28.73L90.79 28.49C91.99 28.21 92.75 27.91 93.07 27.59C93.39 27.27 93.58 26.59 93.64 25.55C93.7 24.51 93.73 23.43 93.73 22.31C93.73 21.17 93.67 19.44 93.55 17.12L93.31 12.2C92.39 13.9 90.95 16.79 88.99 20.87C87.05 24.95 85.79 27.86 85.21 29.6H84.37C80.47 20.78 77.97 15.41 76.87 13.49L75.61 11.33C75.53 13.81 75.49 16.84 75.49 20.42C75.49 23.98 75.61 26.53 75.85 28.07C76.29 28.13 77.07 28.16 78.19 28.16C78.25 28.32 78.28 28.5 78.28 28.7C78.28 28.88 78.25 29.01 78.19 29.09L74.8 29C73.42 29 72.26 29.08 71.32 29.24C71.22 29.12 71.17 28.95 71.17 28.73L71.2 28.49C72.18 28.27 72.83 27.95 73.15 27.53C73.49 27.11 73.71 26.56 73.81 25.88C74.29 22.46 74.57 17.07 74.65 9.71C74.11 9.03 73.52 8.55 72.88 8.27C72.8 8.25 72.24 8.17 71.2 8.03L71.11 7.61C71.11 7.41 71.14 7.25 71.2 7.13L76 7.01C76.3 7.01 76.81 7.54 77.53 8.6C78.27 9.66 79 10.84 79.72 12.14C80.44 13.42 81.27 15.09 82.21 17.15C83.17 19.21 83.97 20.99 84.61 22.49C85.25 23.99 85.61 24.81 85.69 24.95C85.95 24.37 87.18 21.76 89.38 17.12C91.58 12.46 93.03 9.22 93.73 7.4C95.75 7.4 97.36 7.31 98.56 7.13C98.66 7.31 98.71 7.56 98.71 7.88C97.71 8.1 97.04 8.43 96.7 8.87C96.36 9.31 96.17 9.78 96.13 10.28C96.09 10.78 96.07 11.72 96.07 13.1C96.07 14.48 96.13 16.82 96.25 20.12C96.39 23.42 96.6 26.07 96.88 28.07C97.26 28.13 98.06 28.16 99.28 28.16C99.34 28.3 99.37 28.46 99.37 28.64C99.37 28.82 99.34 28.97 99.28 29.09ZM101.909 7.31L104.789 7.4C106.909 7.4 108.509 7.32 109.589 7.16C109.709 7.32 109.769 7.49 109.769 7.67L109.709 7.91C108.649 8.15 107.979 8.46 107.699 8.84C107.479 9.12 107.329 9.56 107.249 10.16C107.009 12.5 106.889 15.82 106.889 20.12C106.889 22.7 107.409 24.71 108.449 26.15C109.489 27.59 111.109 28.31 113.309 28.31C115.929 28.31 117.739 27.61 118.739 26.21C119.759 24.79 120.269 22.63 120.269 19.73V16.01C120.269 12.37 120.169 9.81 119.969 8.33C119.509 8.27 118.649 8.24 117.389 8.24C117.349 8.08 117.329 7.91 117.329 7.73C117.329 7.53 117.349 7.39 117.389 7.31L120.929 7.4C122.449 7.4 123.619 7.32 124.439 7.16C124.539 7.28 124.589 7.45 124.589 7.67L124.559 7.91C123.019 8.25 122.179 9.29 122.039 11.03C121.819 13.61 121.709 16.76 121.709 20.48C121.709 23.42 120.979 25.68 119.519 27.26C118.079 28.82 115.929 29.6 113.069 29.6C111.549 29.6 110.219 29.41 109.079 29.03C107.959 28.65 107.079 28.17 106.439 27.59C105.819 27.01 105.319 26.3 104.939 25.46C104.559 24.62 104.309 23.83 104.189 23.09C104.089 22.33 104.039 21.51 104.039 20.63V16.04C104.039 14.42 103.949 11.85 103.769 8.33C103.389 8.27 102.769 8.24 101.909 8.24C101.869 8.1 101.849 7.94 101.849 7.76C101.849 7.58 101.869 7.43 101.909 7.31ZM133.232 29.09L129.843 29C128.463 29 127.303 29.08 126.363 29.24C126.243 29.08 126.183 28.91 126.183 28.73L126.243 28.49C127.283 28.25 127.973 27.88 128.313 27.38C128.573 26.98 128.743 26.48 128.823 25.88C129.183 23.28 129.413 17.79 129.513 9.41C129.013 8.87 128.573 8.52 128.193 8.36C127.813 8.2 127.203 8.09 126.363 8.03C126.303 7.91 126.273 7.76 126.273 7.58C126.273 7.38 126.303 7.23 126.363 7.13L131.283 7.01C131.883 7.01 133.903 9.07 137.343 13.19C139.303 15.51 142.173 19.21 145.953 24.29C145.893 22.73 145.823 19.95 145.743 15.95C145.683 11.93 145.563 9.39 145.383 8.33C144.943 8.27 144.133 8.24 142.952 8.24C142.873 8.08 142.833 7.92 142.833 7.76C142.833 7.58 142.863 7.43 142.923 7.31L146.313 7.4C147.693 7.4 148.853 7.32 149.793 7.16C149.893 7.28 149.943 7.45 149.943 7.67L149.913 7.91C148.933 8.13 148.283 8.44 147.963 8.84C147.643 9.24 147.453 9.8 147.393 10.52C147.133 14.68 147.003 20.99 147.003 29.45L146.283 29.75L145.623 28.91C141.803 23.87 138.063 19.09 134.403 14.57C132.963 12.81 131.653 11.39 130.473 10.31C130.473 13.01 130.473 16.22 130.473 19.94C130.493 23.66 130.623 26.37 130.863 28.07C131.323 28.13 132.113 28.16 133.232 28.16C133.293 28.32 133.323 28.48 133.323 28.64C133.323 28.8 133.293 28.95 133.232 29.09ZM162.403 29.12L157.963 29C155.243 29 153.213 29.08 151.873 29.24C151.773 29.12 151.723 28.96 151.723 28.76L151.753 28.49C153.153 28.21 154.023 27.82 154.363 27.32C154.543 27.04 154.653 26.82 154.693 26.66C154.733 26.48 154.803 25.79 154.903 24.59C155.023 23.39 155.093 21.34 155.113 18.44V14.96C155.113 10.7 154.943 8.51 154.603 8.39C154.023 8.29 153.333 8.24 152.533 8.24C152.473 8.1 152.443 7.94 152.443 7.76C152.443 7.58 152.473 7.43 152.533 7.31L155.893 7.4H158.773L162.403 7.28C166.143 7.28 168.993 8.29 170.953 10.31C172.933 12.31 173.923 14.9 173.923 18.08C173.923 21.24 172.843 23.87 170.683 25.97C168.523 28.07 165.763 29.12 162.403 29.12ZM160.363 8.45C159.403 8.45 158.653 8.49 158.113 8.57C157.873 9.45 157.753 11.39 157.753 14.39V23.84C157.753 25.62 157.793 26.81 157.873 27.41C159.213 27.75 160.613 27.92 162.073 27.92C164.993 27.92 167.153 27.12 168.553 25.52C169.973 23.9 170.683 21.59 170.683 18.59C170.683 15.87 169.903 13.54 168.343 11.6C167.543 10.64 166.453 9.88 165.073 9.32C163.713 8.74 162.143 8.45 160.363 8.45ZM199.22 18.29C199.22 19.69 199.02 20.98 198.62 22.16C198.24 23.32 197.75 24.28 197.15 25.04C196.57 25.78 195.89 26.45 195.11 27.05C194.33 27.63 193.58 28.08 192.86 28.4C192.16 28.7 191.45 28.95 190.73 29.15C189.67 29.45 188.87 29.6 188.33 29.6C185.41 29.6 182.92 28.52 180.86 26.36C178.8 24.18 177.77 21.49 177.77 18.29C177.77 16.89 177.96 15.61 178.34 14.45C178.74 13.27 179.23 12.3 179.81 11.54C180.41 10.78 181.1 10.11 181.88 9.53C182.66 8.93 183.41 8.47 184.13 8.15C184.85 7.83 185.56 7.57 186.26 7.37C187.3 7.07 188.11 6.92 188.69 6.92C191.59 6.92 194.07 8.03 196.13 10.25C198.19 12.45 199.22 15.13 199.22 18.29ZM189.26 28.04C191.52 28.04 193.23 27.28 194.39 25.76C195.57 24.22 196.16 22.25 196.16 19.85C196.16 17.99 195.82 16.2 195.14 14.48C194.48 12.76 193.5 11.33 192.2 10.19C190.9 9.03 189.44 8.45 187.82 8.45C185.56 8.45 183.82 9.24 182.6 10.82C181.4 12.38 180.8 14.32 180.8 16.64C180.8 18.5 181.14 20.3 181.82 22.04C182.52 23.76 183.53 25.19 184.85 26.33C186.17 27.47 187.64 28.04 189.26 28.04Z" fill="white"/>
<path fill-rule="evenodd" clip-rule="evenodd" d="M53 7V10H45.4501C47.4201 8.14017 50.0769 7 53 7ZM54 7.04483V10H60.5499C58.807 8.35464 56.5267 7.27252 54 7.04483ZM61.4857 11H54V15H63.5859C63.166 13.5152 62.4421 12.1581 61.4857 11ZM63.8186 16H54V20H63.8186C63.9378 19.3514 64 18.683 64 18C64 17.317 63.9378 16.6486 63.8186 16ZM63.5859 21H54V25H61.4857C62.4421 23.8419 63.166 22.4848 63.5859 21ZM60.5499 26H54V28.9552C56.5267 28.7275 58.807 27.6454 60.5499 26ZM53 29V26H45.4501C47.4201 27.8598 50.0769 29 53 29ZM44.5143 25H53V21H42.4141C42.834 22.4848 43.5579 23.8419 44.5143 25ZM42.1814 20H53V16H42.1814C42.0623 16.6486 42 17.317 42 18C42 18.683 42.0623 19.3514 42.1814 20ZM42.4141 15H53V11H44.5143C43.5579 12.1581 42.834 13.5152 42.4141 15Z" fill="white"/>
</svg>
