<svg width="67" height="67" viewBox="0 0 67 67" fill="none" xmlns="http://www.w3.org/2000/svg">
<circle cx="33.5" cy="33.5" r="33.5" fill="#B20421"/>
<g clip-path="url(#clip0)">
<path d="M49.6643 29.0257C48.5112 25.4774 44.6863 23.5287 41.1382 24.6814C40.6695 24.8337 40.195 25.0443 39.726 25.3053C39.8294 24.7788 39.8831 24.2623 39.8831 23.7695C39.8831 20.0024 37.28 17.0032 33.5678 17.0032C29.8502 17.0032 27.117 20.0091 27.117 23.7695C27.117 24.2623 27.1706 24.7787 27.274 25.3053C26.805 25.0444 26.3305 24.8337 25.8618 24.6814C22.3139 23.5285 18.4887 25.4774 17.3357 29.0257C16.1664 32.6247 18.156 36.6325 21.6801 37.7777C22.1488 37.93 22.6564 38.0384 23.1892 38.103C22.7961 38.4683 22.4492 38.8546 22.1595 39.2532C19.9665 42.2717 20.638 46.5115 23.6563 48.7045C26.6733 50.8965 30.5918 50.2358 32.7919 47.2076C33.0816 46.8088 33.3416 46.3595 33.5677 45.8727C33.7938 46.3595 34.0539 46.8088 34.3436 47.2076C36.5466 50.2399 40.3331 50.8918 43.3435 48.7045C46.362 46.5115 47.0335 42.2716 44.8405 39.2532C44.5509 38.8545 44.2038 38.4683 43.8108 38.1029C44.3434 38.0384 44.8514 37.9299 45.3201 37.7777C48.8441 36.6326 50.8336 32.6247 49.6643 29.0257ZM33.5678 18.9364C36.1069 18.9364 37.9498 20.969 37.9498 23.7695C37.9498 25.03 37.4565 26.584 36.6304 27.9265C36.5304 28.089 36.4842 28.2701 36.4872 28.4485L35.4807 30.1906C35.1797 30.0603 34.8503 29.9593 34.5215 29.8924V25.9287C34.5215 25.3949 34.1016 24.9621 33.5678 24.9621C33.034 24.9621 32.6012 25.3949 32.6012 25.9287V29.8924C32.2647 29.961 31.9413 30.0655 31.634 30.2002L30.5102 28.3597C30.4989 28.2105 30.453 28.062 30.3696 27.9265C29.5434 26.584 29.0502 25.03 29.0502 23.7695C29.0502 21.0142 30.9923 18.9364 33.5678 18.9364ZM22.2774 35.9391C19.7935 35.1319 18.3434 32.1806 19.1743 29.6231C19.9979 27.0886 22.7297 25.6966 25.2644 26.52C26.305 26.8581 27.4411 27.6186 28.3912 28.599L30.0512 31.3179C29.7873 31.598 29.5565 31.9095 29.365 32.2463L25.5927 31.0206C25.0846 30.8555 24.5396 31.1335 24.3747 31.6412C24.2096 32.1489 24.4876 32.6942 24.9952 32.8592L28.7661 34.0845C28.7224 34.4725 28.7253 34.8206 28.7684 35.1907L26.354 36.0331C24.907 36.3368 23.4023 36.3045 22.2774 35.9391ZM32.6011 41.9624C32.4761 43.5243 31.964 45.0582 31.228 46.0713C29.655 48.2362 26.9439 48.7034 24.7927 47.1405C22.6368 45.574 22.1572 42.5456 23.7236 40.3895C25.0034 38.6278 27.2265 37.8274 27.3951 37.7175L29.3746 37.0269C29.5528 37.3373 29.7637 37.6267 30.0039 37.8889L27.6723 41.0982C27.3585 41.5301 27.4542 42.1346 27.8861 42.4483C28.3177 42.762 28.9223 42.6665 29.2362 42.2346L31.5672 39.0261C31.8942 39.1755 32.2401 39.2905 32.601 39.3641V41.9624H32.6011ZM33.5678 37.5281C31.9689 37.5281 30.6679 36.2273 30.6679 34.6282C30.6679 33.0292 31.9688 31.7284 33.5678 31.7284C35.1668 31.7284 36.4677 33.0292 36.4677 34.6282C36.4677 36.2273 35.1668 37.5281 33.5678 37.5281ZM42.2072 47.1405C39.9857 48.7546 37.4293 48.1655 35.9075 46.0713C35.1715 45.0582 34.6466 43.5243 34.5215 41.9625V39.3641C34.8824 39.2905 35.2411 39.1756 35.5682 39.0262L37.8991 42.2346C38.2129 42.6665 38.8175 42.7622 39.2493 42.4484C39.6812 42.1346 39.777 41.5301 39.4631 41.0982L37.1316 37.8891C37.3697 37.6289 37.5791 37.3423 37.7564 37.0348L39.5581 37.6839C39.7802 37.8486 41.9778 38.6021 43.2763 40.3895C44.8429 42.5456 44.3633 45.574 42.2072 47.1405ZM40.7195 36.0474L38.366 35.1994C38.411 34.8192 38.4127 34.4687 38.3694 34.0844L42.1403 32.8591C42.648 32.6941 42.9258 32.1489 42.7608 31.6411C42.5958 31.1333 42.0505 30.8555 41.5428 31.0205L37.7705 32.2462C37.5756 31.9036 37.3401 31.5872 37.0705 31.3033L38.6669 28.5403C39.6051 27.5885 40.7159 26.8513 41.7355 26.52C44.2699 25.6966 47.002 27.0885 47.8256 29.623C48.6565 32.1805 47.2065 35.1319 44.7225 35.939H44.7226C43.6167 36.2984 42.1438 36.3348 40.7195 36.0474Z" fill="white"/>
</g>
<defs>
<clipPath id="clip0">
<rect width="33" height="33" fill="white" transform="translate(17 17)"/>
</clipPath>
</defs>
</svg>
