<svg width="15" height="15" viewBox="0 0 15 15" fill="none" xmlns="http://www.w3.org/2000/svg">
<g clip-path="url(#clip0)">
<path d="M1.56249 8.4375C0.70125 8.4375 0 7.73625 0 6.87501V1.875C0 1.01376 0.70125 0.31251 1.56249 0.31251H3.43749C3.78938 0.31251 4.11311 0.431252 4.37499 0.628771V8.4375H1.56249Z" fill="#418ED2"/>
<path d="M15 6.09374C15 6.46936 14.8513 6.81937 14.5931 7.0775C14.885 7.39687 15.0338 7.82501 14.9931 8.27062C14.92 9.065 14.2044 9.6875 13.3631 9.6875H9.5025C9.69375 10.2681 9.99999 11.3325 9.99999 12.1875C9.99999 13.5431 8.84812 14.6875 8.12499 14.6875C7.47562 14.6875 7.01185 14.3219 6.99187 14.3069C6.91813 14.2475 6.87501 14.1575 6.87501 14.0625V11.9431L5.07501 8.04374L5.00001 8.00563V1.30687C5.50875 1.06687 6.15249 0.937493 6.5625 0.937493H12.2994C12.98 0.937493 13.5756 1.39625 13.7156 2.02936C13.7875 2.35499 13.7456 2.68312 13.6025 2.96812C14.0644 3.20062 14.375 3.67625 14.375 4.21874C14.375 4.43999 14.3244 4.65187 14.2281 4.84373C14.69 5.07623 15 5.55187 15 6.09374Z" fill="#418ED2"/>
</g>
<defs>
<clipPath id="clip0">
<rect width="15" height="15" fill="white" transform="matrix(1 0 0 -1 0 15)"/>
</clipPath>
</defs>
</svg>
