<svg width="18" height="18" viewBox="0 0 18 18" fill="none" xmlns="http://www.w3.org/2000/svg">
<g clip-path="url(#clip0)">
<path d="M17.9333 8.78625C17.7916 8.58077 14.3851 3.7501 9.00023 3.7501C4.37954 3.7501 0.262107 8.55303 0.0888595 8.75778C-0.0296504 8.89728 -0.0296504 9.10202 0.0888595 9.24226C0.262107 9.44701 4.37954 14.2499 9.00023 14.2499C13.6209 14.2499 17.7384 9.44701 17.9116 9.24226C18.0203 9.1125 18.0301 8.92575 17.9333 8.78625ZM9.00023 11.9999C7.34577 11.9999 6.00029 10.6545 6.00029 9C6.00029 7.34554 7.34577 6.00006 9.00023 6.00006C10.6547 6.00006 12.0002 7.34554 12.0002 9C12.0002 10.6545 10.6547 11.9999 9.00023 11.9999Z" fill="#418ED2"/>
</g>
<defs>
<clipPath id="clip0">
<rect width="18" height="18" fill="white"/>
</clipPath>
</defs>
</svg>
