<svg width="18" height="22" viewBox="0 0 18 22" fill="none" xmlns="http://www.w3.org/2000/svg">
<path fill-rule="evenodd" clip-rule="evenodd" d="M5.4 4.53509H3.6V3.49458H1.8V6.61611H16.2V3.49458H14.4V4.53509H12.6V3.49458H5.4V4.53509ZM16.2 8.69713H1.8V19.1022H16.2V8.69713ZM12.6 1.41356H5.4V0.373047H3.6V1.41356H1.8C0.805887 1.41356 0 2.34526 0 3.49458V19.1022C0 20.2516 0.805887 21.1833 1.8 21.1833H16.2C17.1941 21.1833 18 20.2516 18 19.1022V3.49458C18 2.34526 17.1941 1.41356 16.2 1.41356H14.4V0.373047H12.6V1.41356ZM4.5 12.8592V10.7782H6.3V12.8592H4.5ZM8.1 12.8592H9.9V10.7782H8.1V12.8592ZM11.7 12.8592V10.7782H13.5V12.8592H11.7ZM4.5 14.9402V17.0212H6.3V14.9402H4.5ZM9.9 17.0212H8.1V14.9402H9.9V17.0212Z" fill="#BBBBBB"/>
</svg>
