<svg width="15" height="15" viewBox="0 0 15 15" fill="none" xmlns="http://www.w3.org/2000/svg">
<g clip-path="url(#clip0)">
<path d="M1.56249 6.5625C0.70125 6.5625 0 7.26375 0 8.12499V13.125C0 13.9862 0.70125 14.6875 1.56249 14.6875H3.43749C3.78938 14.6875 4.11311 14.5687 4.37499 14.3712V6.5625H1.56249Z" fill="#418ED2"/>
<path d="M15 8.90625C15 8.53064 14.8513 8.18063 14.5931 7.92249C14.885 7.60313 15.0338 7.17498 14.9931 6.72938C14.92 5.93499 14.2044 5.31249 13.3631 5.31249H9.5025C9.69375 4.73186 9.99999 3.6675 9.99999 2.8125C9.99999 1.45688 8.84812 0.312511 8.12499 0.312511C7.47562 0.312511 7.01185 0.678136 6.99187 0.693136C6.91813 0.752521 6.87501 0.842521 6.87501 0.937502V3.05687L5.07501 6.95625L5.00001 6.99437V13.6931C5.50875 13.9331 6.15249 14.0625 6.5625 14.0625H12.2994C12.98 14.0625 13.5756 13.6037 13.7156 12.9706C13.7875 12.645 13.7456 12.3169 13.6025 12.0319C14.0644 11.7994 14.375 11.3237 14.375 10.7813C14.375 10.56 14.3244 10.3481 14.2281 10.1563C14.69 9.92376 15 9.44813 15 8.90625Z" fill="#418ED2"/>
</g>
<defs>
<clipPath id="clip0">
<rect width="15" height="15" fill="white"/>
</clipPath>
</defs>
</svg>
