<svg width="222" height="106" viewBox="0 0 222 106" fill="none" xmlns="http://www.w3.org/2000/svg">
<path opacity="0.5" fill-rule="evenodd" clip-rule="evenodd" d="M21 12.3652C15.4771 12.3652 11 16.8424 11 22.3652V85.603C11 85.843 11.0211 86.0781 11.0617 86.3064C11.0207 86.5259 11 86.7464 11 86.9677C11 97.2953 55.9883 105.667 111.484 105.667C166.98 105.667 211.968 97.2953 211.968 86.9677C211.968 86.7464 211.948 86.5259 211.907 86.3064C211.947 86.0781 211.968 85.843 211.968 85.603V22.3652C211.968 16.8424 207.491 12.3652 201.968 12.3652H21Z" fill="#FFAF00"/>
<path fill-rule="evenodd" clip-rule="evenodd" d="M10 0C4.47715 0 0 4.47715 0 9.99999V75.0576C0 75.3983 0.0426034 75.7291 0.122774 76.0449C0.0412278 76.3697 0 76.6965 0 77.0251C0 88.4335 49.6964 97.6817 111 97.6817C172.304 97.6817 222 88.4335 222 77.0251C222 76.6965 221.959 76.3697 221.877 76.0449C221.957 75.7291 222 75.3983 222 75.0576V10C222 4.47715 217.523 0 212 0H10Z" fill="#FFAF00"/>
<mask id="path-3-inside-1" fill="white">
<path fill-rule="evenodd" clip-rule="evenodd" d="M16 6.2627C10.4772 6.2627 6 10.7398 6 16.2627V71.0372C6 71.4422 6.0602 71.8332 6.17215 72.2017C6.0579 72.5486 6 72.8981 6 73.25C6 83.2836 53.0808 91.4174 111.158 91.4174C169.235 91.4174 216.316 83.2836 216.316 73.25C216.316 72.8981 216.258 72.5486 216.144 72.2017C216.256 71.8332 216.316 71.4422 216.316 71.0372V16.2627C216.316 10.7398 211.839 6.2627 206.316 6.2627H16Z"/>
</mask>
<path fill-rule="evenodd" clip-rule="evenodd" d="M16 6.2627C10.4772 6.2627 6 10.7398 6 16.2627V71.0372C6 71.4422 6.0602 71.8332 6.17215 72.2017C6.0579 72.5486 6 72.8981 6 73.25C6 83.2836 53.0808 91.4174 111.158 91.4174C169.235 91.4174 216.316 83.2836 216.316 73.25C216.316 72.8981 216.258 72.5486 216.144 72.2017C216.256 71.8332 216.316 71.4422 216.316 71.0372V16.2627C216.316 10.7398 211.839 6.2627 206.316 6.2627H16Z" fill="#FFAF00"/>
<path d="M6.17215 72.2017L7.12197 72.5144L7.22097 72.2138L7.12896 71.911L6.17215 72.2017ZM216.144 72.2017L215.187 71.911L215.095 72.2138L215.194 72.5144L216.144 72.2017ZM7 16.2627C7 11.2921 11.0294 7.2627 16 7.2627V5.2627C9.92487 5.2627 5 10.1876 5 16.2627H7ZM7 71.0372V16.2627H5V71.0372H7ZM7.12896 71.911C7.04533 71.6357 7 71.3426 7 71.0372H5C5 71.5418 5.07507 72.0307 5.21533 72.4923L7.12896 71.911ZM7 73.25C7 73.0098 7.03923 72.7657 7.12197 72.5144L5.22232 71.8889C5.07657 72.3315 5 72.7864 5 73.25H7ZM111.158 90.4174C82.1583 90.4174 55.9285 88.3862 36.9703 85.1109C27.4831 83.4718 19.865 81.5292 14.642 79.3958C12.0259 78.3272 10.0683 77.2336 8.78154 76.1472C7.48617 75.0536 7 74.0826 7 73.25H5C5 74.9257 5.98511 76.4038 7.49133 77.6754C9.00615 78.9544 11.1805 80.1423 13.8857 81.2473C19.3052 83.4609 27.0872 85.4331 36.6298 87.0817C55.7312 90.3817 82.0804 92.4174 111.158 92.4174V90.4174ZM215.316 73.25C215.316 74.0826 214.83 75.0536 213.534 76.1472C212.247 77.2336 210.29 78.3272 207.674 79.3958C202.451 81.5292 194.833 83.4718 185.346 85.1109C166.387 88.3862 140.157 90.4174 111.158 90.4174V92.4174C140.235 92.4174 166.585 90.3817 185.686 87.0817C195.229 85.4331 203.011 83.4609 208.43 81.2473C211.135 80.1423 213.31 78.9544 214.824 77.6754C216.331 76.4038 217.316 74.9257 217.316 73.25H215.316ZM215.194 72.5144C215.277 72.7657 215.316 73.0098 215.316 73.25H217.316C217.316 72.7864 217.239 72.3315 217.093 71.8889L215.194 72.5144ZM215.316 71.0372C215.316 71.3426 215.27 71.6357 215.187 71.911L217.1 72.4923C217.241 72.0307 217.316 71.5418 217.316 71.0372H215.316ZM215.316 16.2627V71.0372H217.316V16.2627H215.316ZM206.316 7.2627C211.286 7.2627 215.316 11.2921 215.316 16.2627H217.316C217.316 10.1876 212.391 5.2627 206.316 5.2627V7.2627ZM16 7.2627H206.316V5.2627H16V7.2627Z" fill="white" mask="url(#path-3-inside-1)"/>
</svg>
