<svg width="437" height="324" viewBox="0 0 437 324" fill="none" xmlns="http://www.w3.org/2000/svg">
<path d="M0.727539 13.9287V12.459L5.10938 6.00586H7.05762V12.2881H8.26074V13.9287H7.05762V16H4.99316V13.9287H0.727539ZM2.58691 12.2881H4.99316V10.5928C4.99316 10.3102 5.00456 9.90007 5.02734 9.3623C5.05013 8.82454 5.06836 8.51237 5.08203 8.42578H5.02734C4.85872 8.79948 4.65592 9.16406 4.41895 9.51953L2.58691 12.2881ZM9.00586 11.0029C9.00586 9.23926 9.29069 7.94043 9.86035 7.10645C10.43 6.2679 11.3073 5.84863 12.4922 5.84863C13.6452 5.84863 14.5156 6.28613 15.1035 7.16113C15.696 8.03613 15.9922 9.31673 15.9922 11.0029C15.9922 12.7484 15.7051 14.0404 15.1309 14.8789C14.5612 15.7174 13.6816 16.1367 12.4922 16.1367C11.3392 16.1367 10.4688 15.7038 9.88086 14.8379C9.29753 13.972 9.00586 12.6937 9.00586 11.0029ZM11.1045 11.0029C11.1045 12.2288 11.2093 13.1084 11.4189 13.6416C11.6331 14.1702 11.9909 14.4346 12.4922 14.4346C12.9844 14.4346 13.3398 14.1657 13.5586 13.6279C13.7773 13.0902 13.8867 12.2152 13.8867 11.0029C13.8867 9.77702 13.7751 8.89746 13.5518 8.36426C13.333 7.8265 12.9798 7.55762 12.4922 7.55762C11.9954 7.55762 11.64 7.8265 11.4258 8.36426C11.2116 8.89746 11.1045 9.77702 11.1045 11.0029Z" fill="#424242"/>
<path d="M1.02148 49.5967V47.7988C1.40885 47.9948 1.83496 48.1543 2.2998 48.2773C2.76465 48.4004 3.22493 48.4619 3.68066 48.4619C4.37793 48.4619 4.8929 48.3434 5.22559 48.1064C5.55827 47.8695 5.72461 47.4889 5.72461 46.9648C5.72461 46.4954 5.5332 46.1628 5.15039 45.9668C4.76758 45.7708 4.1569 45.6729 3.31836 45.6729H2.55957V44.0527H3.33203C4.10677 44.0527 4.67188 43.9525 5.02734 43.752C5.38737 43.5469 5.56738 43.1982 5.56738 42.7061C5.56738 41.9495 5.09342 41.5713 4.14551 41.5713C3.81738 41.5713 3.48242 41.626 3.14062 41.7354C2.80339 41.8447 2.42741 42.0339 2.0127 42.3027L1.03516 40.8467C1.94661 40.1904 3.03353 39.8623 4.2959 39.8623C5.3304 39.8623 6.14616 40.0719 6.74316 40.4912C7.34473 40.9105 7.64551 41.4938 7.64551 42.2412C7.64551 42.8656 7.45638 43.3965 7.07812 43.834C6.69987 44.2715 6.16895 44.5723 5.48535 44.7363V44.7773C6.29199 44.8776 6.90267 45.1237 7.31738 45.5156C7.7321 45.903 7.93945 46.4271 7.93945 47.0879C7.93945 48.0495 7.59082 48.7992 6.89355 49.3369C6.19629 49.8701 5.20052 50.1367 3.90625 50.1367C2.82161 50.1367 1.86003 49.9567 1.02148 49.5967ZM9.18359 49.5967V47.7715C9.54362 47.9629 9.96289 48.1201 10.4414 48.2432C10.9199 48.3617 11.3734 48.4209 11.8018 48.4209C13.0915 48.4209 13.7363 47.8923 13.7363 46.835C13.7363 45.8278 13.0687 45.3242 11.7334 45.3242C11.4919 45.3242 11.2253 45.3493 10.9336 45.3994C10.6419 45.445 10.4049 45.4951 10.2227 45.5498L9.38184 45.0986L9.75781 40.0059H15.1787V41.7969H11.6104L11.4258 43.7588L11.665 43.7109C11.943 43.6471 12.2871 43.6152 12.6973 43.6152C13.6634 43.6152 14.4313 43.8864 15.001 44.4287C15.5752 44.971 15.8623 45.7139 15.8623 46.6572C15.8623 47.7738 15.5182 48.6328 14.8301 49.2344C14.1419 49.8359 13.1576 50.1367 11.877 50.1367C10.765 50.1367 9.86719 49.9567 9.18359 49.5967Z" fill="#424242"/>
<path d="M1.02148 83.5967V81.7988C1.40885 81.9948 1.83496 82.1543 2.2998 82.2773C2.76465 82.4004 3.22493 82.4619 3.68066 82.4619C4.37793 82.4619 4.8929 82.3434 5.22559 82.1064C5.55827 81.8695 5.72461 81.4889 5.72461 80.9648C5.72461 80.4954 5.5332 80.1628 5.15039 79.9668C4.76758 79.7708 4.1569 79.6729 3.31836 79.6729H2.55957V78.0527H3.33203C4.10677 78.0527 4.67188 77.9525 5.02734 77.752C5.38737 77.5469 5.56738 77.1982 5.56738 76.7061C5.56738 75.9495 5.09342 75.5713 4.14551 75.5713C3.81738 75.5713 3.48242 75.626 3.14062 75.7354C2.80339 75.8447 2.42741 76.0339 2.0127 76.3027L1.03516 74.8467C1.94661 74.1904 3.03353 73.8623 4.2959 73.8623C5.3304 73.8623 6.14616 74.0719 6.74316 74.4912C7.34473 74.9105 7.64551 75.4938 7.64551 76.2412C7.64551 76.8656 7.45638 77.3965 7.07812 77.834C6.69987 78.2715 6.16895 78.5723 5.48535 78.7363V78.7773C6.29199 78.8776 6.90267 79.1237 7.31738 79.5156C7.7321 79.903 7.93945 80.4271 7.93945 81.0879C7.93945 82.0495 7.59082 82.7992 6.89355 83.3369C6.19629 83.8701 5.20052 84.1367 3.90625 84.1367C2.82161 84.1367 1.86003 83.9567 1.02148 83.5967ZM9.00586 79.0029C9.00586 77.2393 9.29069 75.9404 9.86035 75.1064C10.43 74.2679 11.3073 73.8486 12.4922 73.8486C13.6452 73.8486 14.5156 74.2861 15.1035 75.1611C15.696 76.0361 15.9922 77.3167 15.9922 79.0029C15.9922 80.7484 15.7051 82.0404 15.1309 82.8789C14.5612 83.7174 13.6816 84.1367 12.4922 84.1367C11.3392 84.1367 10.4688 83.7038 9.88086 82.8379C9.29753 81.972 9.00586 80.6937 9.00586 79.0029ZM11.1045 79.0029C11.1045 80.2288 11.2093 81.1084 11.4189 81.6416C11.6331 82.1702 11.9909 82.4346 12.4922 82.4346C12.9844 82.4346 13.3398 82.1657 13.5586 81.6279C13.7773 81.0902 13.8867 80.2152 13.8867 79.0029C13.8867 77.777 13.7751 76.8975 13.5518 76.3643C13.333 75.8265 12.9798 75.5576 12.4922 75.5576C11.9954 75.5576 11.64 75.8265 11.4258 76.3643C11.2116 76.8975 11.1045 77.777 11.1045 79.0029Z" fill="#424242"/>
<path d="M1.02148 109.291C1.51367 108.872 1.92155 108.576 2.24512 108.402C2.56868 108.229 2.92188 108.097 3.30469 108.006C3.6875 107.91 4.11589 107.862 4.58984 107.862C5.21419 107.862 5.76562 107.976 6.24414 108.204C6.72266 108.432 7.09408 108.751 7.3584 109.161C7.62272 109.571 7.75488 110.041 7.75488 110.569C7.75488 111.03 7.67285 111.463 7.50879 111.868C7.34928 112.269 7.09863 112.682 6.75684 113.105C6.4196 113.529 5.82259 114.133 4.96582 114.917L3.68066 116.127V116.223H8.03516V118H1.04883V116.53L3.55762 113.994C4.30046 113.233 4.78581 112.707 5.01367 112.415C5.24154 112.119 5.4056 111.845 5.50586 111.595C5.60612 111.344 5.65625 111.084 5.65625 110.815C5.65625 110.414 5.5446 110.116 5.32129 109.92C5.10254 109.724 4.80859 109.626 4.43945 109.626C4.05208 109.626 3.67611 109.715 3.31152 109.893C2.94694 110.07 2.56641 110.323 2.16992 110.651L1.02148 109.291ZM9.18359 117.597V115.771C9.54362 115.963 9.96289 116.12 10.4414 116.243C10.9199 116.362 11.3734 116.421 11.8018 116.421C13.0915 116.421 13.7363 115.892 13.7363 114.835C13.7363 113.828 13.0687 113.324 11.7334 113.324C11.4919 113.324 11.2253 113.349 10.9336 113.399C10.6419 113.445 10.4049 113.495 10.2227 113.55L9.38184 113.099L9.75781 108.006H15.1787V109.797H11.6104L11.4258 111.759L11.665 111.711C11.943 111.647 12.2871 111.615 12.6973 111.615C13.6634 111.615 14.4313 111.886 15.001 112.429C15.5752 112.971 15.8623 113.714 15.8623 114.657C15.8623 115.774 15.5182 116.633 14.8301 117.234C14.1419 117.836 13.1576 118.137 11.877 118.137C10.765 118.137 9.86719 117.957 9.18359 117.597Z" fill="#424242"/>
<path d="M1.02148 143.291C1.51367 142.872 1.92155 142.576 2.24512 142.402C2.56868 142.229 2.92188 142.097 3.30469 142.006C3.6875 141.91 4.11589 141.862 4.58984 141.862C5.21419 141.862 5.76562 141.976 6.24414 142.204C6.72266 142.432 7.09408 142.751 7.3584 143.161C7.62272 143.571 7.75488 144.041 7.75488 144.569C7.75488 145.03 7.67285 145.463 7.50879 145.868C7.34928 146.269 7.09863 146.682 6.75684 147.105C6.4196 147.529 5.82259 148.133 4.96582 148.917L3.68066 150.127V150.223H8.03516V152H1.04883V150.53L3.55762 147.994C4.30046 147.233 4.78581 146.707 5.01367 146.415C5.24154 146.119 5.4056 145.845 5.50586 145.595C5.60612 145.344 5.65625 145.084 5.65625 144.815C5.65625 144.414 5.5446 144.116 5.32129 143.92C5.10254 143.724 4.80859 143.626 4.43945 143.626C4.05208 143.626 3.67611 143.715 3.31152 143.893C2.94694 144.07 2.56641 144.323 2.16992 144.651L1.02148 143.291ZM9.00586 147.003C9.00586 145.239 9.29069 143.94 9.86035 143.106C10.43 142.268 11.3073 141.849 12.4922 141.849C13.6452 141.849 14.5156 142.286 15.1035 143.161C15.696 144.036 15.9922 145.317 15.9922 147.003C15.9922 148.748 15.7051 150.04 15.1309 150.879C14.5612 151.717 13.6816 152.137 12.4922 152.137C11.3392 152.137 10.4688 151.704 9.88086 150.838C9.29753 149.972 9.00586 148.694 9.00586 147.003ZM11.1045 147.003C11.1045 148.229 11.2093 149.108 11.4189 149.642C11.6331 150.17 11.9909 150.435 12.4922 150.435C12.9844 150.435 13.3398 150.166 13.5586 149.628C13.7773 149.09 13.8867 148.215 13.8867 147.003C13.8867 145.777 13.7751 144.897 13.5518 144.364C13.333 143.826 12.9798 143.558 12.4922 143.558C11.9954 143.558 11.64 143.826 11.4258 144.364C11.2116 144.897 11.1045 145.777 11.1045 147.003Z" fill="#424242"/>
<path d="M1.31543 178.569L4.53516 176.006H6.27148V186H4.15918V180.217L4.17969 179.267L4.21387 178.228C3.86296 178.578 3.61914 178.809 3.48242 178.918L2.33398 179.841L1.31543 178.569ZM9.18359 185.597V183.771C9.54362 183.963 9.96289 184.12 10.4414 184.243C10.9199 184.362 11.3734 184.421 11.8018 184.421C13.0915 184.421 13.7363 183.892 13.7363 182.835C13.7363 181.828 13.0687 181.324 11.7334 181.324C11.4919 181.324 11.2253 181.349 10.9336 181.399C10.6419 181.445 10.4049 181.495 10.2227 181.55L9.38184 181.099L9.75781 176.006H15.1787V177.797H11.6104L11.4258 179.759L11.665 179.711C11.943 179.647 12.2871 179.615 12.6973 179.615C13.6634 179.615 14.4313 179.886 15.001 180.429C15.5752 180.971 15.8623 181.714 15.8623 182.657C15.8623 183.774 15.5182 184.633 14.8301 185.234C14.1419 185.836 13.1576 186.137 11.877 186.137C10.765 186.137 9.86719 185.957 9.18359 185.597Z" fill="#424242"/>
<path d="M1.31543 212.569L4.53516 210.006H6.27148V220H4.15918V214.217L4.17969 213.267L4.21387 212.228C3.86296 212.578 3.61914 212.809 3.48242 212.918L2.33398 213.841L1.31543 212.569ZM9.00586 215.003C9.00586 213.239 9.29069 211.94 9.86035 211.106C10.43 210.268 11.3073 209.849 12.4922 209.849C13.6452 209.849 14.5156 210.286 15.1035 211.161C15.696 212.036 15.9922 213.317 15.9922 215.003C15.9922 216.748 15.7051 218.04 15.1309 218.879C14.5612 219.717 13.6816 220.137 12.4922 220.137C11.3392 220.137 10.4688 219.704 9.88086 218.838C9.29753 217.972 9.00586 216.694 9.00586 215.003ZM11.1045 215.003C11.1045 216.229 11.2093 217.108 11.4189 217.642C11.6331 218.17 11.9909 218.435 12.4922 218.435C12.9844 218.435 13.3398 218.166 13.5586 217.628C13.7773 217.09 13.8867 216.215 13.8867 215.003C13.8867 213.777 13.7751 212.897 13.5518 212.364C13.333 211.826 12.9798 211.558 12.4922 211.558C11.9954 211.558 11.64 211.826 11.4258 212.364C11.2116 212.897 11.1045 213.777 11.1045 215.003Z" fill="#424242"/>
<path d="M5.17773 253.597V251.771C5.53776 251.963 5.95703 252.12 6.43555 252.243C6.91406 252.362 7.36751 252.421 7.7959 252.421C9.08561 252.421 9.73047 251.892 9.73047 250.835C9.73047 249.828 9.06283 249.324 7.72754 249.324C7.486 249.324 7.2194 249.349 6.92773 249.399C6.63607 249.445 6.39909 249.495 6.2168 249.55L5.37598 249.099L5.75195 244.006H11.1729V245.797H7.60449L7.41992 247.759L7.65918 247.711C7.93717 247.647 8.28125 247.615 8.69141 247.615C9.65755 247.615 10.4255 247.886 10.9951 248.429C11.5693 248.971 11.8564 249.714 11.8564 250.657C11.8564 251.774 11.5124 252.633 10.8242 253.234C10.1361 253.836 9.15169 254.137 7.87109 254.137C6.75911 254.137 5.86133 253.957 5.17773 253.597Z" fill="#424242"/>
<path d="M5 283.003C5 281.239 5.28483 279.94 5.85449 279.106C6.42415 278.268 7.30143 277.849 8.48633 277.849C9.63932 277.849 10.5098 278.286 11.0977 279.161C11.6901 280.036 11.9863 281.317 11.9863 283.003C11.9863 284.748 11.6992 286.04 11.125 286.879C10.5553 287.717 9.67578 288.137 8.48633 288.137C7.33333 288.137 6.46289 287.704 5.875 286.838C5.29167 285.972 5 284.694 5 283.003ZM7.09863 283.003C7.09863 284.229 7.20345 285.108 7.41309 285.642C7.62728 286.17 7.98503 286.435 8.48633 286.435C8.97852 286.435 9.33398 286.166 9.55273 285.628C9.77148 285.09 9.88086 284.215 9.88086 283.003C9.88086 281.777 9.76921 280.897 9.5459 280.364C9.32715 279.826 8.97396 279.558 8.48633 279.558C7.98958 279.558 7.63411 279.826 7.41992 280.364C7.20573 280.897 7.09863 281.777 7.09863 283.003Z" fill="#424242"/>
<path d="M44.3213 311.569L47.541 309.006H49.2773V319H47.165V313.217L47.1855 312.267L47.2197 311.228C46.8688 311.578 46.625 311.809 46.4883 311.918L45.3398 312.841L44.3213 311.569Z" fill="#424242"/>
<path d="M116.027 310.291C116.52 309.872 116.927 309.576 117.251 309.402C117.575 309.229 117.928 309.097 118.311 309.006C118.693 308.91 119.122 308.862 119.596 308.862C120.22 308.862 120.771 308.976 121.25 309.204C121.729 309.432 122.1 309.751 122.364 310.161C122.629 310.571 122.761 311.041 122.761 311.569C122.761 312.03 122.679 312.463 122.515 312.868C122.355 313.269 122.104 313.682 121.763 314.105C121.425 314.529 120.828 315.133 119.972 315.917L118.687 317.127V317.223H123.041V319H116.055V317.53L118.563 314.994C119.306 314.233 119.792 313.707 120.02 313.415C120.247 313.119 120.411 312.845 120.512 312.595C120.612 312.344 120.662 312.084 120.662 311.815C120.662 311.414 120.55 311.116 120.327 310.92C120.108 310.724 119.814 310.626 119.445 310.626C119.058 310.626 118.682 310.715 118.317 310.893C117.953 311.07 117.572 311.323 117.176 311.651L116.027 310.291Z" fill="#424242"/>
<path d="M188.027 318.597V316.799C188.415 316.995 188.841 317.154 189.306 317.277C189.771 317.4 190.231 317.462 190.687 317.462C191.384 317.462 191.899 317.343 192.231 317.106C192.564 316.869 192.73 316.489 192.73 315.965C192.73 315.495 192.539 315.163 192.156 314.967C191.773 314.771 191.163 314.673 190.324 314.673H189.565V313.053H190.338C191.113 313.053 191.678 312.952 192.033 312.752C192.393 312.547 192.573 312.198 192.573 311.706C192.573 310.95 192.099 310.571 191.151 310.571C190.823 310.571 190.488 310.626 190.146 310.735C189.809 310.845 189.433 311.034 189.019 311.303L188.041 309.847C188.952 309.19 190.039 308.862 191.302 308.862C192.336 308.862 193.152 309.072 193.749 309.491C194.351 309.91 194.651 310.494 194.651 311.241C194.651 311.866 194.462 312.396 194.084 312.834C193.706 313.271 193.175 313.572 192.491 313.736V313.777C193.298 313.878 193.909 314.124 194.323 314.516C194.738 314.903 194.945 315.427 194.945 316.088C194.945 317.049 194.597 317.799 193.899 318.337C193.202 318.87 192.206 319.137 190.912 319.137C189.827 319.137 188.866 318.957 188.027 318.597Z" fill="#424242"/>
<path d="M259.733 316.929V315.459L264.115 309.006H266.063V315.288H267.267V316.929H266.063V319H263.999V316.929H259.733ZM261.593 315.288H263.999V313.593C263.999 313.31 264.01 312.9 264.033 312.362C264.056 311.825 264.074 311.512 264.088 311.426H264.033C263.865 311.799 263.662 312.164 263.425 312.52L261.593 315.288Z" fill="#424242"/>
<path d="M332.178 318.597V316.771C332.538 316.963 332.957 317.12 333.436 317.243C333.914 317.362 334.368 317.421 334.796 317.421C336.086 317.421 336.73 316.892 336.73 315.835C336.73 314.828 336.063 314.324 334.728 314.324C334.486 314.324 334.219 314.349 333.928 314.399C333.636 314.445 333.399 314.495 333.217 314.55L332.376 314.099L332.752 309.006H338.173V310.797H334.604L334.42 312.759L334.659 312.711C334.937 312.647 335.281 312.615 335.691 312.615C336.658 312.615 337.425 312.886 337.995 313.429C338.569 313.971 338.856 314.714 338.856 315.657C338.856 316.774 338.512 317.633 337.824 318.234C337.136 318.836 336.152 319.137 334.871 319.137C333.759 319.137 332.861 318.957 332.178 318.597Z" fill="#424242"/>
<path d="M403.986 314.755C403.986 312.777 404.403 311.305 405.237 310.339C406.076 309.373 407.329 308.89 408.997 308.89C409.567 308.89 410.013 308.924 410.337 308.992V310.681C409.931 310.59 409.53 310.544 409.134 310.544C408.409 310.544 407.817 310.653 407.356 310.872C406.901 311.091 406.559 311.414 406.331 311.843C406.103 312.271 405.969 312.88 405.928 313.668H406.017C406.468 312.893 407.19 312.506 408.184 312.506C409.077 312.506 409.776 312.786 410.282 313.347C410.788 313.907 411.041 314.682 411.041 315.671C411.041 316.737 410.74 317.583 410.139 318.207C409.537 318.827 408.703 319.137 407.637 319.137C406.898 319.137 406.254 318.966 405.702 318.624C405.155 318.282 404.731 317.783 404.431 317.127C404.134 316.471 403.986 315.68 403.986 314.755ZM406.085 315.514C406.085 316.056 406.226 316.514 406.509 316.888C406.796 317.261 407.158 317.448 407.596 317.448C408.047 317.448 408.393 317.298 408.635 316.997C408.876 316.692 408.997 316.259 408.997 315.698C408.997 315.211 408.883 314.828 408.655 314.55C408.432 314.267 408.092 314.126 407.637 314.126C407.208 314.126 406.841 314.265 406.536 314.543C406.235 314.821 406.085 315.145 406.085 315.514Z" fill="#424242"/>
<path d="M17 11H429" stroke="#F2F2F2"/>
<path d="M17 45H429" stroke="#F2F2F2"/>
<path d="M17 79H429" stroke="#F2F2F2"/>
<path d="M17 113H429" stroke="#F2F2F2"/>
<path d="M17 147H429" stroke="#F2F2F2"/>
<path d="M17 181H429" stroke="#F2F2F2"/>
<path d="M17 215H429" stroke="#F2F2F2"/>
<path d="M17 249H429" stroke="#F2F2F2"/>
<path d="M17 283H429" stroke="#F2F2F2"/>
<path d="M115.084 229.847C95.037 229.847 62.0084 243.887 48 250.907V284H409V107C369.846 123.547 352.618 172.686 335.651 182.212C318.685 191.739 287.1 202.269 262.564 202.269C238.027 202.269 201.484 205.779 188.432 208.788C175.381 211.796 140.142 229.847 115.084 229.847Z" fill="url(#paint0_linear)"/>
<path d="M48 250C62.0084 243.024 95.037 229.073 115.084 229.073C140.142 229.073 175.381 211.136 188.432 208.146C201.484 205.157 238.027 201.669 262.564 201.669C287.1 201.669 318.685 191.206 335.651 181.739C352.618 172.272 369.846 123.443 409 107" stroke="#8BC5FF" stroke-width="2"/>
<circle opacity="0.3" cx="48" cy="250" r="10" fill="#4492E0"/>
<circle opacity="0.3" cx="120" cy="229" r="10" fill="#4492E0"/>
<circle opacity="0.3" cx="192" cy="208" r="10" fill="#4492E0"/>
<circle cx="48" cy="250" r="6" fill="#4492E0"/>
<circle cx="120" cy="229" r="6" fill="#4492E0"/>
<circle cx="192" cy="208" r="6" fill="#4492E0"/>
<g filter="url(#filter0_d)">
<path d="M34 224C34 221.791 35.7909 220 38 220H58C60.2091 220 62 221.791 62 224V237.825C62 239.274 61.2167 240.61 59.9522 241.317L48 248L36.0478 241.317C34.7833 240.61 34 239.274 34 237.825V224Z" fill="white"/>
</g>
<g filter="url(#filter1_d)">
<path d="M106 203C106 200.791 107.791 199 110 199H130C132.209 199 134 200.791 134 203V216.825C134 218.274 133.217 219.61 131.952 220.317L120 227L108.048 220.317C106.783 219.61 106 218.274 106 216.825V203Z" fill="white"/>
</g>
<g filter="url(#filter2_d)">
<path d="M178 182C178 179.791 179.791 178 182 178H202C204.209 178 206 179.791 206 182V195.825C206 197.274 205.217 198.61 203.952 199.317L192 206L180.048 199.317C178.783 198.61 178 197.274 178 195.825V182Z" fill="white"/>
</g>
<path d="M44.376 236.597V235.435C44.7132 235.635 45.1188 235.795 45.5928 235.913C46.0667 236.032 46.5293 236.091 46.9805 236.091C47.7643 236.091 48.3704 235.904 48.7988 235.53C49.2272 235.157 49.4414 234.623 49.4414 233.931C49.4414 232.582 48.6074 231.907 46.9395 231.907C46.4017 231.907 45.832 231.976 45.2305 232.112L44.6152 231.723L44.9912 227.006H50.002V228.127H46.0439L45.8047 231.025C46.3288 230.921 46.8415 230.868 47.3428 230.868C48.3864 230.868 49.2067 231.13 49.8037 231.654C50.4053 232.178 50.7061 232.896 50.7061 233.808C50.7061 234.847 50.3757 235.662 49.7148 236.255C49.054 236.843 48.138 237.137 46.9668 237.137C45.8503 237.137 44.9867 236.957 44.376 236.597Z" fill="#4492E0"/>
<path d="M116.178 213.45C116.178 212.311 116.868 211.42 118.249 210.777C117.629 210.422 117.183 210.039 116.909 209.629C116.636 209.219 116.499 208.756 116.499 208.241C116.499 207.517 116.77 206.94 117.312 206.512C117.859 206.079 118.584 205.862 119.486 205.862C120.398 205.862 121.125 206.074 121.667 206.498C122.209 206.922 122.48 207.507 122.48 208.255C122.48 208.756 122.328 209.205 122.022 209.602C121.722 209.998 121.239 210.367 120.573 210.709C121.38 211.101 121.952 211.511 122.289 211.939C122.631 212.363 122.802 212.853 122.802 213.409C122.802 214.239 122.508 214.902 121.92 215.398C121.332 215.891 120.535 216.137 119.527 216.137C118.461 216.137 117.636 215.904 117.053 215.439C116.469 214.975 116.178 214.312 116.178 213.45ZM117.381 213.464C117.381 213.993 117.568 214.407 117.941 214.708C118.32 215.009 118.839 215.159 119.5 215.159C120.152 215.159 120.664 215.007 121.038 214.701C121.412 214.391 121.599 213.965 121.599 213.423C121.599 212.985 121.421 212.596 121.065 212.254C120.71 211.912 120.113 211.589 119.274 211.283C118.614 211.566 118.133 211.88 117.832 212.227C117.531 212.573 117.381 212.985 117.381 213.464ZM117.709 208.303C117.709 208.59 117.771 208.843 117.894 209.062C118.017 209.28 118.194 209.476 118.427 209.649C118.659 209.823 119.031 210.016 119.541 210.23C120.165 209.971 120.607 209.686 120.867 209.376C121.132 209.066 121.264 208.708 121.264 208.303C121.264 207.847 121.102 207.494 120.778 207.243C120.455 206.988 120.02 206.86 119.473 206.86C118.935 206.86 118.507 206.988 118.188 207.243C117.868 207.498 117.709 207.852 117.709 208.303Z" fill="#4492E0"/>
<path d="M184.732 187.104L187.439 185.006H188.458V195H187.255V188.014C187.255 187.394 187.273 186.82 187.31 186.291C187.182 186.428 187.045 186.555 186.899 186.674C186.435 187.061 185.926 187.48 185.375 187.932L184.732 187.104ZM192.744 187.104L195.451 185.006H196.47V195H195.267V188.014C195.267 187.394 195.285 186.82 195.321 186.291C195.194 186.428 195.057 186.555 194.911 186.674C194.446 187.061 193.938 187.48 193.387 187.932L192.744 187.104Z" fill="#4492E0"/>
<circle opacity="0.3" cx="408" cy="106" r="10" fill="#4492E0"/>
<circle cx="408" cy="106" r="6" fill="#4492E0"/>
<g filter="url(#filter3_d)">
<path d="M394 80C394 77.7909 395.791 76 398 76H418C420.209 76 422 77.7909 422 80V93.8253C422 95.2741 421.217 96.6095 419.952 97.3166L408 104L396.048 97.3166C394.783 96.6095 394 95.2741 394 93.8253V80Z" fill="white"/>
</g>
<path d="M400.158 93V91.9746L402.776 89.3291C403.565 88.5316 404.087 87.9619 404.342 87.6201C404.597 87.2783 404.786 86.9479 404.909 86.6289C405.037 86.3099 405.101 85.9658 405.101 85.5967C405.101 85.068 404.943 84.6556 404.629 84.3594C404.314 84.0632 403.884 83.915 403.337 83.915C402.927 83.915 402.537 83.9834 402.168 84.1201C401.803 84.2568 401.391 84.5052 400.931 84.8652L400.274 84.0381C401.209 83.2542 402.229 82.8623 403.337 82.8623C404.267 82.8623 405.003 83.1016 405.545 83.5801C406.092 84.054 406.365 84.7012 406.365 85.5215C406.365 85.959 406.285 86.3828 406.126 86.793C405.966 87.1986 405.727 87.6133 405.408 88.0371C405.089 88.4564 404.554 89.0329 403.802 89.7666L401.717 91.8242V91.8789H406.769V93H400.158ZM408.272 88.7275C408.272 84.8174 409.797 82.8623 412.846 82.8623C413.374 82.8623 413.787 82.9056 414.083 82.9922V84.0381C413.737 83.9287 413.333 83.874 412.873 83.874C411.811 83.874 410.998 84.1976 410.433 84.8447C409.872 85.4919 409.562 86.5173 409.503 87.9209H409.585C410.086 87.137 410.875 86.7451 411.95 86.7451C412.853 86.7451 413.561 87.0186 414.076 87.5654C414.591 88.1123 414.849 88.8506 414.849 89.7803C414.849 90.8148 414.564 91.6328 413.994 92.2344C413.424 92.8359 412.65 93.1367 411.67 93.1367C410.986 93.1367 410.387 92.9635 409.872 92.6172C409.362 92.2708 408.967 91.765 408.689 91.0996C408.411 90.4297 408.272 89.639 408.272 88.7275ZM409.517 89.541C409.517 89.9967 409.608 90.4251 409.79 90.8262C409.972 91.2227 410.225 91.5348 410.549 91.7627C410.872 91.9906 411.242 92.1045 411.656 92.1045C412.29 92.1045 412.777 91.9017 413.119 91.4961C413.461 91.0905 413.632 90.5186 413.632 89.7803C413.632 89.1149 413.465 88.6045 413.133 88.249C412.8 87.889 412.322 87.709 411.697 87.709C411.301 87.709 410.936 87.791 410.604 87.9551C410.275 88.1191 410.011 88.347 409.811 88.6387C409.615 88.9303 409.517 89.2311 409.517 89.541Z" fill="#4492E0"/>
<circle opacity="0.3" cx="336" cy="181" r="10" fill="#4492E0"/>
<circle cx="336" cy="181" r="6" fill="#4492E0"/>
<g filter="url(#filter4_d)">
<path d="M322 155C322 152.791 323.791 151 326 151H346C348.209 151 350 152.791 350 155V168.825C350 170.274 349.217 171.61 347.952 172.317L336 179L324.048 172.317C322.783 171.61 322 170.274 322 168.825V155Z" fill="white"/>
</g>
<path d="M328.158 168V166.975L330.776 164.329C331.565 163.532 332.087 162.962 332.342 162.62C332.597 162.278 332.786 161.948 332.909 161.629C333.037 161.31 333.101 160.966 333.101 160.597C333.101 160.068 332.943 159.656 332.629 159.359C332.314 159.063 331.884 158.915 331.337 158.915C330.927 158.915 330.537 158.983 330.168 159.12C329.803 159.257 329.391 159.505 328.931 159.865L328.274 159.038C329.209 158.254 330.229 157.862 331.337 157.862C332.267 157.862 333.003 158.102 333.545 158.58C334.092 159.054 334.365 159.701 334.365 160.521C334.365 160.959 334.285 161.383 334.126 161.793C333.966 162.199 333.727 162.613 333.408 163.037C333.089 163.456 332.554 164.033 331.802 164.767L329.717 166.824V166.879H334.769V168H328.158ZM336.184 162.989C336.184 161.248 336.452 159.956 336.99 159.113C337.533 158.27 338.367 157.849 339.492 157.849C340.577 157.849 341.402 158.286 341.967 159.161C342.536 160.036 342.821 161.312 342.821 162.989C342.821 164.726 342.546 166.018 341.994 166.865C341.447 167.713 340.613 168.137 339.492 168.137C338.408 168.137 337.585 167.701 337.024 166.831C336.464 165.956 336.184 164.675 336.184 162.989ZM337.421 162.989C337.421 164.438 337.585 165.484 337.913 166.127C338.246 166.77 338.772 167.091 339.492 167.091C340.221 167.091 340.75 166.763 341.078 166.106C341.411 165.446 341.577 164.407 341.577 162.989C341.577 161.586 341.411 160.553 341.078 159.893C340.75 159.232 340.221 158.901 339.492 158.901C338.763 158.901 338.234 159.225 337.906 159.872C337.583 160.519 337.421 161.558 337.421 162.989Z" fill="#4492E0"/>
<circle opacity="0.3" cx="264" cy="201" r="10" fill="#4492E0"/>
<circle cx="264" cy="201" r="6" fill="#4492E0"/>
<g filter="url(#filter5_d)">
<path d="M250 175C250 172.791 251.791 171 254 171H274C276.209 171 278 172.791 278 175V188.825C278 190.274 277.217 191.61 275.952 192.317L264 199L252.048 192.317C250.783 191.61 250 190.274 250 188.825V175Z" fill="white"/>
</g>
<path d="M256.732 180.104L259.439 178.006H260.458V188H259.255V181.014C259.255 180.394 259.273 179.82 259.31 179.291C259.182 179.428 259.045 179.555 258.899 179.674C258.435 180.061 257.926 180.48 257.375 180.932L256.732 180.104ZM264.17 188V186.975L266.788 184.329C267.576 183.532 268.098 182.962 268.354 182.62C268.609 182.278 268.798 181.948 268.921 181.629C269.049 181.31 269.112 180.966 269.112 180.597C269.112 180.068 268.955 179.656 268.641 179.359C268.326 179.063 267.896 178.915 267.349 178.915C266.938 178.915 266.549 178.983 266.18 179.12C265.815 179.257 265.403 179.505 264.942 179.865L264.286 179.038C265.22 178.254 266.241 177.862 267.349 177.862C268.278 177.862 269.014 178.102 269.557 178.58C270.104 179.054 270.377 179.701 270.377 180.521C270.377 180.959 270.297 181.383 270.138 181.793C269.978 182.199 269.739 182.613 269.42 183.037C269.101 183.456 268.565 184.033 267.813 184.767L265.729 186.824V186.879H270.78V188H264.17Z" fill="#4492E0"/>
<defs>
<filter id="filter0_d" x="19" y="209" width="58" height="58" filterUnits="userSpaceOnUse" color-interpolation-filters="sRGB">
<feFlood flood-opacity="0" result="BackgroundImageFix"/>
<feColorMatrix in="SourceAlpha" type="matrix" values="0 0 0 0 0 0 0 0 0 0 0 0 0 0 0 0 0 0 127 0"/>
<feOffset dy="4"/>
<feGaussianBlur stdDeviation="7.5"/>
<feColorMatrix type="matrix" values="0 0 0 0 0.529167 0 0 0 0 0.529167 0 0 0 0 0.529167 0 0 0 0.25 0"/>
<feBlend mode="normal" in2="BackgroundImageFix" result="effect1_dropShadow"/>
<feBlend mode="normal" in="SourceGraphic" in2="effect1_dropShadow" result="shape"/>
</filter>
<filter id="filter1_d" x="91" y="188" width="58" height="58" filterUnits="userSpaceOnUse" color-interpolation-filters="sRGB">
<feFlood flood-opacity="0" result="BackgroundImageFix"/>
<feColorMatrix in="SourceAlpha" type="matrix" values="0 0 0 0 0 0 0 0 0 0 0 0 0 0 0 0 0 0 127 0"/>
<feOffset dy="4"/>
<feGaussianBlur stdDeviation="7.5"/>
<feColorMatrix type="matrix" values="0 0 0 0 0.529167 0 0 0 0 0.529167 0 0 0 0 0.529167 0 0 0 0.25 0"/>
<feBlend mode="normal" in2="BackgroundImageFix" result="effect1_dropShadow"/>
<feBlend mode="normal" in="SourceGraphic" in2="effect1_dropShadow" result="shape"/>
</filter>
<filter id="filter2_d" x="163" y="167" width="58" height="58" filterUnits="userSpaceOnUse" color-interpolation-filters="sRGB">
<feFlood flood-opacity="0" result="BackgroundImageFix"/>
<feColorMatrix in="SourceAlpha" type="matrix" values="0 0 0 0 0 0 0 0 0 0 0 0 0 0 0 0 0 0 127 0"/>
<feOffset dy="4"/>
<feGaussianBlur stdDeviation="7.5"/>
<feColorMatrix type="matrix" values="0 0 0 0 0.529167 0 0 0 0 0.529167 0 0 0 0 0.529167 0 0 0 0.25 0"/>
<feBlend mode="normal" in2="BackgroundImageFix" result="effect1_dropShadow"/>
<feBlend mode="normal" in="SourceGraphic" in2="effect1_dropShadow" result="shape"/>
</filter>
<filter id="filter3_d" x="379" y="65" width="58" height="58" filterUnits="userSpaceOnUse" color-interpolation-filters="sRGB">
<feFlood flood-opacity="0" result="BackgroundImageFix"/>
<feColorMatrix in="SourceAlpha" type="matrix" values="0 0 0 0 0 0 0 0 0 0 0 0 0 0 0 0 0 0 127 0"/>
<feOffset dy="4"/>
<feGaussianBlur stdDeviation="7.5"/>
<feColorMatrix type="matrix" values="0 0 0 0 0.529167 0 0 0 0 0.529167 0 0 0 0 0.529167 0 0 0 0.25 0"/>
<feBlend mode="normal" in2="BackgroundImageFix" result="effect1_dropShadow"/>
<feBlend mode="normal" in="SourceGraphic" in2="effect1_dropShadow" result="shape"/>
</filter>
<filter id="filter4_d" x="307" y="140" width="58" height="58" filterUnits="userSpaceOnUse" color-interpolation-filters="sRGB">
<feFlood flood-opacity="0" result="BackgroundImageFix"/>
<feColorMatrix in="SourceAlpha" type="matrix" values="0 0 0 0 0 0 0 0 0 0 0 0 0 0 0 0 0 0 127 0"/>
<feOffset dy="4"/>
<feGaussianBlur stdDeviation="7.5"/>
<feColorMatrix type="matrix" values="0 0 0 0 0.529167 0 0 0 0 0.529167 0 0 0 0 0.529167 0 0 0 0.25 0"/>
<feBlend mode="normal" in2="BackgroundImageFix" result="effect1_dropShadow"/>
<feBlend mode="normal" in="SourceGraphic" in2="effect1_dropShadow" result="shape"/>
</filter>
<filter id="filter5_d" x="235" y="160" width="58" height="58" filterUnits="userSpaceOnUse" color-interpolation-filters="sRGB">
<feFlood flood-opacity="0" result="BackgroundImageFix"/>
<feColorMatrix in="SourceAlpha" type="matrix" values="0 0 0 0 0 0 0 0 0 0 0 0 0 0 0 0 0 0 127 0"/>
<feOffset dy="4"/>
<feGaussianBlur stdDeviation="7.5"/>
<feColorMatrix type="matrix" values="0 0 0 0 0.529167 0 0 0 0 0.529167 0 0 0 0 0.529167 0 0 0 0.25 0"/>
<feBlend mode="normal" in2="BackgroundImageFix" result="effect1_dropShadow"/>
<feBlend mode="normal" in="SourceGraphic" in2="effect1_dropShadow" result="shape"/>
</filter>
<linearGradient id="paint0_linear" x1="214.796" y1="107.501" x2="262.567" y2="274.24" gradientUnits="userSpaceOnUse">
<stop offset="0.136045" stop-color="#A9C1FF"/>
<stop offset="0.944807" stop-color="white" stop-opacity="0"/>
</linearGradient>
</defs>
</svg>
