<svg width="837" height="293" viewBox="0 0 837 293" fill="none" xmlns="http://www.w3.org/2000/svg">
<path d="M0.727539 13.9287V12.459L5.10938 6.00586H7.05762V12.2881H8.26074V13.9287H7.05762V16H4.99316V13.9287H0.727539ZM2.58691 12.2881H4.99316V10.5928C4.99316 10.3102 5.00456 9.90007 5.02734 9.3623C5.05013 8.82454 5.06836 8.51237 5.08203 8.42578H5.02734C4.85872 8.79948 4.65592 9.16406 4.41895 9.51953L2.58691 12.2881ZM9.00586 11.0029C9.00586 9.23926 9.29069 7.94043 9.86035 7.10645C10.43 6.2679 11.3073 5.84863 12.4922 5.84863C13.6452 5.84863 14.5156 6.28613 15.1035 7.16113C15.696 8.03613 15.9922 9.31673 15.9922 11.0029C15.9922 12.7484 15.7051 14.0404 15.1309 14.8789C14.5612 15.7174 13.6816 16.1367 12.4922 16.1367C11.3392 16.1367 10.4688 15.7038 9.88086 14.8379C9.29753 13.972 9.00586 12.6937 9.00586 11.0029ZM11.1045 11.0029C11.1045 12.2288 11.2093 13.1084 11.4189 13.6416C11.6331 14.1702 11.9909 14.4346 12.4922 14.4346C12.9844 14.4346 13.3398 14.1657 13.5586 13.6279C13.7773 13.0902 13.8867 12.2152 13.8867 11.0029C13.8867 9.77702 13.7751 8.89746 13.5518 8.36426C13.333 7.8265 12.9798 7.55762 12.4922 7.55762C11.9954 7.55762 11.64 7.8265 11.4258 8.36426C11.2116 8.89746 11.1045 9.77702 11.1045 11.0029Z" fill="#424242"/>
<path d="M1.02148 49.5967V47.7988C1.40885 47.9948 1.83496 48.1543 2.2998 48.2773C2.76465 48.4004 3.22493 48.4619 3.68066 48.4619C4.37793 48.4619 4.8929 48.3434 5.22559 48.1064C5.55827 47.8695 5.72461 47.4889 5.72461 46.9648C5.72461 46.4954 5.5332 46.1628 5.15039 45.9668C4.76758 45.7708 4.1569 45.6729 3.31836 45.6729H2.55957V44.0527H3.33203C4.10677 44.0527 4.67188 43.9525 5.02734 43.752C5.38737 43.5469 5.56738 43.1982 5.56738 42.7061C5.56738 41.9495 5.09342 41.5713 4.14551 41.5713C3.81738 41.5713 3.48242 41.626 3.14062 41.7354C2.80339 41.8447 2.42741 42.0339 2.0127 42.3027L1.03516 40.8467C1.94661 40.1904 3.03353 39.8623 4.2959 39.8623C5.3304 39.8623 6.14616 40.0719 6.74316 40.4912C7.34473 40.9105 7.64551 41.4938 7.64551 42.2412C7.64551 42.8656 7.45638 43.3965 7.07812 43.834C6.69987 44.2715 6.16895 44.5723 5.48535 44.7363V44.7773C6.29199 44.8776 6.90267 45.1237 7.31738 45.5156C7.7321 45.903 7.93945 46.4271 7.93945 47.0879C7.93945 48.0495 7.59082 48.7992 6.89355 49.3369C6.19629 49.8701 5.20052 50.1367 3.90625 50.1367C2.82161 50.1367 1.86003 49.9567 1.02148 49.5967ZM9.18359 49.5967V47.7715C9.54362 47.9629 9.96289 48.1201 10.4414 48.2432C10.9199 48.3617 11.3734 48.4209 11.8018 48.4209C13.0915 48.4209 13.7363 47.8923 13.7363 46.835C13.7363 45.8278 13.0687 45.3242 11.7334 45.3242C11.4919 45.3242 11.2253 45.3493 10.9336 45.3994C10.6419 45.445 10.4049 45.4951 10.2227 45.5498L9.38184 45.0986L9.75781 40.0059H15.1787V41.7969H11.6104L11.4258 43.7588L11.665 43.7109C11.943 43.6471 12.2871 43.6152 12.6973 43.6152C13.6634 43.6152 14.4313 43.8864 15.001 44.4287C15.5752 44.971 15.8623 45.7139 15.8623 46.6572C15.8623 47.7738 15.5182 48.6328 14.8301 49.2344C14.1419 49.8359 13.1576 50.1367 11.877 50.1367C10.765 50.1367 9.86719 49.9567 9.18359 49.5967Z" fill="#424242"/>
<path d="M1.02148 83.5967V81.7988C1.40885 81.9948 1.83496 82.1543 2.2998 82.2773C2.76465 82.4004 3.22493 82.4619 3.68066 82.4619C4.37793 82.4619 4.8929 82.3434 5.22559 82.1064C5.55827 81.8695 5.72461 81.4889 5.72461 80.9648C5.72461 80.4954 5.5332 80.1628 5.15039 79.9668C4.76758 79.7708 4.1569 79.6729 3.31836 79.6729H2.55957V78.0527H3.33203C4.10677 78.0527 4.67188 77.9525 5.02734 77.752C5.38737 77.5469 5.56738 77.1982 5.56738 76.7061C5.56738 75.9495 5.09342 75.5713 4.14551 75.5713C3.81738 75.5713 3.48242 75.626 3.14062 75.7354C2.80339 75.8447 2.42741 76.0339 2.0127 76.3027L1.03516 74.8467C1.94661 74.1904 3.03353 73.8623 4.2959 73.8623C5.3304 73.8623 6.14616 74.0719 6.74316 74.4912C7.34473 74.9105 7.64551 75.4938 7.64551 76.2412C7.64551 76.8656 7.45638 77.3965 7.07812 77.834C6.69987 78.2715 6.16895 78.5723 5.48535 78.7363V78.7773C6.29199 78.8776 6.90267 79.1237 7.31738 79.5156C7.7321 79.903 7.93945 80.4271 7.93945 81.0879C7.93945 82.0495 7.59082 82.7992 6.89355 83.3369C6.19629 83.8701 5.20052 84.1367 3.90625 84.1367C2.82161 84.1367 1.86003 83.9567 1.02148 83.5967ZM9.00586 79.0029C9.00586 77.2393 9.29069 75.9404 9.86035 75.1064C10.43 74.2679 11.3073 73.8486 12.4922 73.8486C13.6452 73.8486 14.5156 74.2861 15.1035 75.1611C15.696 76.0361 15.9922 77.3167 15.9922 79.0029C15.9922 80.7484 15.7051 82.0404 15.1309 82.8789C14.5612 83.7174 13.6816 84.1367 12.4922 84.1367C11.3392 84.1367 10.4688 83.7038 9.88086 82.8379C9.29753 81.972 9.00586 80.6937 9.00586 79.0029ZM11.1045 79.0029C11.1045 80.2288 11.2093 81.1084 11.4189 81.6416C11.6331 82.1702 11.9909 82.4346 12.4922 82.4346C12.9844 82.4346 13.3398 82.1657 13.5586 81.6279C13.7773 81.0902 13.8867 80.2152 13.8867 79.0029C13.8867 77.777 13.7751 76.8975 13.5518 76.3643C13.333 75.8265 12.9798 75.5576 12.4922 75.5576C11.9954 75.5576 11.64 75.8265 11.4258 76.3643C11.2116 76.8975 11.1045 77.777 11.1045 79.0029Z" fill="#424242"/>
<path d="M1.02148 109.291C1.51367 108.872 1.92155 108.576 2.24512 108.402C2.56868 108.229 2.92188 108.097 3.30469 108.006C3.6875 107.91 4.11589 107.862 4.58984 107.862C5.21419 107.862 5.76562 107.976 6.24414 108.204C6.72266 108.432 7.09408 108.751 7.3584 109.161C7.62272 109.571 7.75488 110.041 7.75488 110.569C7.75488 111.03 7.67285 111.463 7.50879 111.868C7.34928 112.269 7.09863 112.682 6.75684 113.105C6.4196 113.529 5.82259 114.133 4.96582 114.917L3.68066 116.127V116.223H8.03516V118H1.04883V116.53L3.55762 113.994C4.30046 113.233 4.78581 112.707 5.01367 112.415C5.24154 112.119 5.4056 111.845 5.50586 111.595C5.60612 111.344 5.65625 111.084 5.65625 110.815C5.65625 110.414 5.5446 110.116 5.32129 109.92C5.10254 109.724 4.80859 109.626 4.43945 109.626C4.05208 109.626 3.67611 109.715 3.31152 109.893C2.94694 110.07 2.56641 110.323 2.16992 110.651L1.02148 109.291ZM9.18359 117.597V115.771C9.54362 115.963 9.96289 116.12 10.4414 116.243C10.9199 116.362 11.3734 116.421 11.8018 116.421C13.0915 116.421 13.7363 115.892 13.7363 114.835C13.7363 113.828 13.0687 113.324 11.7334 113.324C11.4919 113.324 11.2253 113.349 10.9336 113.399C10.6419 113.445 10.4049 113.495 10.2227 113.55L9.38184 113.099L9.75781 108.006H15.1787V109.797H11.6104L11.4258 111.759L11.665 111.711C11.943 111.647 12.2871 111.615 12.6973 111.615C13.6634 111.615 14.4313 111.886 15.001 112.429C15.5752 112.971 15.8623 113.714 15.8623 114.657C15.8623 115.774 15.5182 116.633 14.8301 117.234C14.1419 117.836 13.1576 118.137 11.877 118.137C10.765 118.137 9.86719 117.957 9.18359 117.597Z" fill="#424242"/>
<path d="M1.02148 143.291C1.51367 142.872 1.92155 142.576 2.24512 142.402C2.56868 142.229 2.92188 142.097 3.30469 142.006C3.6875 141.91 4.11589 141.862 4.58984 141.862C5.21419 141.862 5.76562 141.976 6.24414 142.204C6.72266 142.432 7.09408 142.751 7.3584 143.161C7.62272 143.571 7.75488 144.041 7.75488 144.569C7.75488 145.03 7.67285 145.463 7.50879 145.868C7.34928 146.269 7.09863 146.682 6.75684 147.105C6.4196 147.529 5.82259 148.133 4.96582 148.917L3.68066 150.127V150.223H8.03516V152H1.04883V150.53L3.55762 147.994C4.30046 147.233 4.78581 146.707 5.01367 146.415C5.24154 146.119 5.4056 145.845 5.50586 145.595C5.60612 145.344 5.65625 145.084 5.65625 144.815C5.65625 144.414 5.5446 144.116 5.32129 143.92C5.10254 143.724 4.80859 143.626 4.43945 143.626C4.05208 143.626 3.67611 143.715 3.31152 143.893C2.94694 144.07 2.56641 144.323 2.16992 144.651L1.02148 143.291ZM9.00586 147.003C9.00586 145.239 9.29069 143.94 9.86035 143.106C10.43 142.268 11.3073 141.849 12.4922 141.849C13.6452 141.849 14.5156 142.286 15.1035 143.161C15.696 144.036 15.9922 145.317 15.9922 147.003C15.9922 148.748 15.7051 150.04 15.1309 150.879C14.5612 151.717 13.6816 152.137 12.4922 152.137C11.3392 152.137 10.4688 151.704 9.88086 150.838C9.29753 149.972 9.00586 148.694 9.00586 147.003ZM11.1045 147.003C11.1045 148.229 11.2093 149.108 11.4189 149.642C11.6331 150.17 11.9909 150.435 12.4922 150.435C12.9844 150.435 13.3398 150.166 13.5586 149.628C13.7773 149.09 13.8867 148.215 13.8867 147.003C13.8867 145.777 13.7751 144.897 13.5518 144.364C13.333 143.826 12.9798 143.558 12.4922 143.558C11.9954 143.558 11.64 143.826 11.4258 144.364C11.2116 144.897 11.1045 145.777 11.1045 147.003Z" fill="#424242"/>
<path d="M1.31543 178.569L4.53516 176.006H6.27148V186H4.15918V180.217L4.17969 179.267L4.21387 178.228C3.86296 178.578 3.61914 178.809 3.48242 178.918L2.33398 179.841L1.31543 178.569ZM9.18359 185.597V183.771C9.54362 183.963 9.96289 184.12 10.4414 184.243C10.9199 184.362 11.3734 184.421 11.8018 184.421C13.0915 184.421 13.7363 183.892 13.7363 182.835C13.7363 181.828 13.0687 181.324 11.7334 181.324C11.4919 181.324 11.2253 181.349 10.9336 181.399C10.6419 181.445 10.4049 181.495 10.2227 181.55L9.38184 181.099L9.75781 176.006H15.1787V177.797H11.6104L11.4258 179.759L11.665 179.711C11.943 179.647 12.2871 179.615 12.6973 179.615C13.6634 179.615 14.4313 179.886 15.001 180.429C15.5752 180.971 15.8623 181.714 15.8623 182.657C15.8623 183.774 15.5182 184.633 14.8301 185.234C14.1419 185.836 13.1576 186.137 11.877 186.137C10.765 186.137 9.86719 185.957 9.18359 185.597Z" fill="#424242"/>
<path d="M1.31543 212.569L4.53516 210.006H6.27148V220H4.15918V214.217L4.17969 213.267L4.21387 212.228C3.86296 212.578 3.61914 212.809 3.48242 212.918L2.33398 213.841L1.31543 212.569ZM9.00586 215.003C9.00586 213.239 9.29069 211.94 9.86035 211.106C10.43 210.268 11.3073 209.849 12.4922 209.849C13.6452 209.849 14.5156 210.286 15.1035 211.161C15.696 212.036 15.9922 213.317 15.9922 215.003C15.9922 216.748 15.7051 218.04 15.1309 218.879C14.5612 219.717 13.6816 220.137 12.4922 220.137C11.3392 220.137 10.4688 219.704 9.88086 218.838C9.29753 217.972 9.00586 216.694 9.00586 215.003ZM11.1045 215.003C11.1045 216.229 11.2093 217.108 11.4189 217.642C11.6331 218.17 11.9909 218.435 12.4922 218.435C12.9844 218.435 13.3398 218.166 13.5586 217.628C13.7773 217.09 13.8867 216.215 13.8867 215.003C13.8867 213.777 13.7751 212.897 13.5518 212.364C13.333 211.826 12.9798 211.558 12.4922 211.558C11.9954 211.558 11.64 211.826 11.4258 212.364C11.2116 212.897 11.1045 213.777 11.1045 215.003Z" fill="#424242"/>
<path d="M5.17773 253.597V251.771C5.53776 251.963 5.95703 252.12 6.43555 252.243C6.91406 252.362 7.36751 252.421 7.7959 252.421C9.08561 252.421 9.73047 251.892 9.73047 250.835C9.73047 249.828 9.06283 249.324 7.72754 249.324C7.486 249.324 7.2194 249.349 6.92773 249.399C6.63607 249.445 6.39909 249.495 6.2168 249.55L5.37598 249.099L5.75195 244.006H11.1729V245.797H7.60449L7.41992 247.759L7.65918 247.711C7.93717 247.647 8.28125 247.615 8.69141 247.615C9.65755 247.615 10.4255 247.886 10.9951 248.429C11.5693 248.971 11.8564 249.714 11.8564 250.657C11.8564 251.774 11.5124 252.633 10.8242 253.234C10.1361 253.836 9.15169 254.137 7.87109 254.137C6.75911 254.137 5.86133 253.957 5.17773 253.597Z" fill="#424242"/>
<path d="M5 283.003C5 281.239 5.28483 279.94 5.85449 279.106C6.42415 278.268 7.30143 277.849 8.48633 277.849C9.63932 277.849 10.5098 278.286 11.0977 279.161C11.6901 280.036 11.9863 281.317 11.9863 283.003C11.9863 284.748 11.6992 286.04 11.125 286.879C10.5553 287.717 9.67578 288.137 8.48633 288.137C7.33333 288.137 6.46289 287.704 5.875 286.838C5.29167 285.972 5 284.694 5 283.003ZM7.09863 283.003C7.09863 284.229 7.20345 285.108 7.41309 285.642C7.62728 286.17 7.98503 286.435 8.48633 286.435C8.97852 286.435 9.33398 286.166 9.55273 285.628C9.77148 285.09 9.88086 284.215 9.88086 283.003C9.88086 281.777 9.76921 280.897 9.5459 280.364C9.32715 279.826 8.97396 279.558 8.48633 279.558C7.98958 279.558 7.63411 279.826 7.41992 280.364C7.20573 280.897 7.09863 281.777 7.09863 283.003Z" fill="#424242"/>
<path d="M37 11H837" stroke="#F2F2F2"/>
<path d="M37 45H837" stroke="#F2F2F2"/>
<path d="M37 79H837" stroke="#F2F2F2"/>
<path d="M37 113H837" stroke="#F2F2F2"/>
<path d="M37 147H837" stroke="#F2F2F2"/>
<path d="M37 181H837" stroke="#F2F2F2"/>
<path d="M37 215H837" stroke="#F2F2F2"/>
<path d="M37 249H837" stroke="#F2F2F2"/>
<path d="M37 283H837" stroke="#F2F2F2"/>
<path d="M220 229C181.6 229 118.333 243 91.5 250V283H783V106.5C708 123 675 172 642.5 181.5C610 191 549.5 201.5 502.5 201.5C455.5 201.5 385.5 205 360.5 208C335.5 211 268 229 220 229Z" fill="url(#paint0_linear)"/>
<path d="M91.5 250C118.333 243 181.6 229 220 229C268 229 335.5 211 360.5 208C385.5 205 455.5 201.5 502.5 201.5C549.5 201.5 610 191 642.5 181.5C675 172 708 123 783 106.5" stroke="#8BC5FF" stroke-width="2"/>
<circle opacity="0.3" cx="91" cy="250" r="10" fill="#4492E0"/>
<circle opacity="0.3" cx="220" cy="229" r="10" fill="#4492E0"/>
<circle opacity="0.3" cx="361" cy="208" r="10" fill="#4492E0"/>
<circle opacity="0.3" cx="502" cy="201" r="10" fill="#4492E0"/>
<circle opacity="0.3" cx="643" cy="181" r="10" fill="#4492E0"/>
<circle opacity="0.3" cx="783" cy="106" r="10" fill="#4492E0"/>
<circle cx="91" cy="250" r="6" fill="#4492E0"/>
<circle cx="220" cy="229" r="6" fill="#4492E0"/>
<circle cx="361" cy="208" r="6" fill="#4492E0"/>
<circle cx="502" cy="201" r="6" fill="#4492E0"/>
<circle cx="643" cy="181" r="6" fill="#4492E0"/>
<circle cx="783" cy="106" r="6" fill="#4492E0"/>
<g filter="url(#filter0_d)">
<path d="M77 224C77 221.791 78.7909 220 81 220H101C103.209 220 105 221.791 105 224V237.825C105 239.274 104.217 240.61 102.952 241.317L91 248L79.0478 241.317C77.7833 240.61 77 239.274 77 237.825V224Z" fill="white"/>
</g>
<g filter="url(#filter1_d)">
<path d="M206 203C206 200.791 207.791 199 210 199H230C232.209 199 234 200.791 234 203V216.825C234 218.274 233.217 219.61 231.952 220.317L220 227L208.048 220.317C206.783 219.61 206 218.274 206 216.825V203Z" fill="white"/>
</g>
<g filter="url(#filter2_d)">
<path d="M347 182C347 179.791 348.791 178 351 178H371C373.209 178 375 179.791 375 182V195.825C375 197.274 374.217 198.61 372.952 199.317L361 206L349.048 199.317C347.783 198.61 347 197.274 347 195.825V182Z" fill="white"/>
</g>
<g filter="url(#filter3_d)">
<path d="M488 175C488 172.791 489.791 171 492 171H512C514.209 171 516 172.791 516 175V188.825C516 190.274 515.217 191.61 513.952 192.317L502 199L490.048 192.317C488.783 191.61 488 190.274 488 188.825V175Z" fill="white"/>
</g>
<g filter="url(#filter4_d)">
<path d="M629 155C629 152.791 630.791 151 633 151H653C655.209 151 657 152.791 657 155V168.825C657 170.274 656.217 171.61 654.952 172.317L643 179L631.048 172.317C629.783 171.61 629 170.274 629 168.825V155Z" fill="white"/>
</g>
<g filter="url(#filter5_d)">
<path d="M769 80C769 77.7909 770.791 76 773 76H793C795.209 76 797 77.7909 797 80V93.8253C797 95.2741 796.217 96.6095 794.952 97.3166L783 104L771.048 97.3166C769.783 96.6095 769 95.2741 769 93.8253V80Z" fill="white"/>
</g>
<path d="M87.376 236.597V235.435C87.7132 235.635 88.1188 235.795 88.5928 235.913C89.0667 236.032 89.5293 236.091 89.9805 236.091C90.7643 236.091 91.3704 235.904 91.7988 235.53C92.2272 235.157 92.4414 234.623 92.4414 233.931C92.4414 232.582 91.6074 231.907 89.9395 231.907C89.4017 231.907 88.832 231.976 88.2305 232.112L87.6152 231.723L87.9912 227.006H93.002V228.127H89.0439L88.8047 231.025C89.3288 230.921 89.8415 230.868 90.3428 230.868C91.3864 230.868 92.2067 231.13 92.8037 231.654C93.4053 232.178 93.7061 232.896 93.7061 233.808C93.7061 234.847 93.3757 235.662 92.7148 236.255C92.054 236.843 91.138 237.137 89.9668 237.137C88.8503 237.137 87.9867 236.957 87.376 236.597Z" fill="#4492E0"/>
<path d="M216.178 213.45C216.178 212.311 216.868 211.42 218.249 210.777C217.629 210.422 217.183 210.039 216.909 209.629C216.636 209.219 216.499 208.756 216.499 208.241C216.499 207.517 216.77 206.94 217.312 206.512C217.859 206.079 218.584 205.862 219.486 205.862C220.398 205.862 221.125 206.074 221.667 206.498C222.209 206.922 222.48 207.507 222.48 208.255C222.48 208.756 222.328 209.205 222.022 209.602C221.722 209.998 221.239 210.367 220.573 210.709C221.38 211.101 221.952 211.511 222.289 211.939C222.631 212.363 222.802 212.853 222.802 213.409C222.802 214.239 222.508 214.902 221.92 215.398C221.332 215.891 220.535 216.137 219.527 216.137C218.461 216.137 217.636 215.904 217.053 215.439C216.469 214.975 216.178 214.312 216.178 213.45ZM217.381 213.464C217.381 213.993 217.568 214.407 217.941 214.708C218.32 215.009 218.839 215.159 219.5 215.159C220.152 215.159 220.664 215.007 221.038 214.701C221.412 214.391 221.599 213.965 221.599 213.423C221.599 212.985 221.421 212.596 221.065 212.254C220.71 211.912 220.113 211.589 219.274 211.283C218.614 211.566 218.133 211.88 217.832 212.227C217.531 212.573 217.381 212.985 217.381 213.464ZM217.709 208.303C217.709 208.59 217.771 208.843 217.894 209.062C218.017 209.28 218.194 209.476 218.427 209.649C218.659 209.823 219.031 210.016 219.541 210.23C220.165 209.971 220.607 209.686 220.867 209.376C221.132 209.066 221.264 208.708 221.264 208.303C221.264 207.847 221.102 207.494 220.778 207.243C220.455 206.988 220.02 206.86 219.473 206.86C218.935 206.86 218.507 206.988 218.188 207.243C217.868 207.498 217.709 207.852 217.709 208.303Z" fill="#4492E0"/>
<path d="M353.732 187.104L356.439 185.006H357.458V195H356.255V188.014C356.255 187.394 356.273 186.82 356.31 186.291C356.182 186.428 356.045 186.555 355.899 186.674C355.435 187.061 354.926 187.48 354.375 187.932L353.732 187.104ZM361.744 187.104L364.451 185.006H365.47V195H364.267V188.014C364.267 187.394 364.285 186.82 364.321 186.291C364.194 186.428 364.057 186.555 363.911 186.674C363.446 187.061 362.938 187.48 362.387 187.932L361.744 187.104Z" fill="#4492E0"/>
<path d="M494.732 180.104L497.439 178.006H498.458V188H497.255V181.014C497.255 180.394 497.273 179.82 497.31 179.291C497.182 179.428 497.045 179.555 496.899 179.674C496.435 180.061 495.926 180.48 495.375 180.932L494.732 180.104ZM502.17 188V186.975L504.788 184.329C505.576 183.532 506.098 182.962 506.354 182.62C506.609 182.278 506.798 181.948 506.921 181.629C507.049 181.31 507.112 180.966 507.112 180.597C507.112 180.068 506.955 179.656 506.641 179.359C506.326 179.063 505.896 178.915 505.349 178.915C504.938 178.915 504.549 178.983 504.18 179.12C503.815 179.257 503.403 179.505 502.942 179.865L502.286 179.038C503.22 178.254 504.241 177.862 505.349 177.862C506.278 177.862 507.014 178.102 507.557 178.58C508.104 179.054 508.377 179.701 508.377 180.521C508.377 180.959 508.297 181.383 508.138 181.793C507.978 182.199 507.739 182.613 507.42 183.037C507.101 183.456 506.565 184.033 505.813 184.767L503.729 186.824V186.879H508.78V188H502.17Z" fill="#4492E0"/>
<path d="M635.158 168V166.975L637.776 164.329C638.565 163.532 639.087 162.962 639.342 162.62C639.597 162.278 639.786 161.948 639.909 161.629C640.037 161.31 640.101 160.966 640.101 160.597C640.101 160.068 639.943 159.656 639.629 159.359C639.314 159.063 638.884 158.915 638.337 158.915C637.927 158.915 637.537 158.983 637.168 159.12C636.803 159.257 636.391 159.505 635.931 159.865L635.274 159.038C636.209 158.254 637.229 157.862 638.337 157.862C639.267 157.862 640.003 158.102 640.545 158.58C641.092 159.054 641.365 159.701 641.365 160.521C641.365 160.959 641.285 161.383 641.126 161.793C640.966 162.199 640.727 162.613 640.408 163.037C640.089 163.456 639.554 164.033 638.802 164.767L636.717 166.824V166.879H641.769V168H635.158ZM643.184 162.989C643.184 161.248 643.452 159.956 643.99 159.113C644.533 158.27 645.367 157.849 646.492 157.849C647.577 157.849 648.402 158.286 648.967 159.161C649.536 160.036 649.821 161.312 649.821 162.989C649.821 164.726 649.546 166.018 648.994 166.865C648.447 167.713 647.613 168.137 646.492 168.137C645.408 168.137 644.585 167.701 644.024 166.831C643.464 165.956 643.184 164.675 643.184 162.989ZM644.421 162.989C644.421 164.438 644.585 165.484 644.913 166.127C645.246 166.77 645.772 167.091 646.492 167.091C647.221 167.091 647.75 166.763 648.078 166.106C648.411 165.446 648.577 164.407 648.577 162.989C648.577 161.586 648.411 160.553 648.078 159.893C647.75 159.232 647.221 158.901 646.492 158.901C645.763 158.901 645.234 159.225 644.906 159.872C644.583 160.519 644.421 161.558 644.421 162.989Z" fill="#4492E0"/>
<path d="M775.158 93V91.9746L777.776 89.3291C778.565 88.5316 779.087 87.9619 779.342 87.6201C779.597 87.2783 779.786 86.9479 779.909 86.6289C780.037 86.3099 780.101 85.9658 780.101 85.5967C780.101 85.068 779.943 84.6556 779.629 84.3594C779.314 84.0632 778.884 83.915 778.337 83.915C777.927 83.915 777.537 83.9834 777.168 84.1201C776.803 84.2568 776.391 84.5052 775.931 84.8652L775.274 84.0381C776.209 83.2542 777.229 82.8623 778.337 82.8623C779.267 82.8623 780.003 83.1016 780.545 83.5801C781.092 84.054 781.365 84.7012 781.365 85.5215C781.365 85.959 781.285 86.3828 781.126 86.793C780.966 87.1986 780.727 87.6133 780.408 88.0371C780.089 88.4564 779.554 89.0329 778.802 89.7666L776.717 91.8242V91.8789H781.769V93H775.158ZM783.272 88.7275C783.272 84.8174 784.797 82.8623 787.846 82.8623C788.374 82.8623 788.787 82.9056 789.083 82.9922V84.0381C788.737 83.9287 788.333 83.874 787.873 83.874C786.811 83.874 785.998 84.1976 785.433 84.8447C784.872 85.4919 784.562 86.5173 784.503 87.9209H784.585C785.086 87.137 785.875 86.7451 786.95 86.7451C787.853 86.7451 788.561 87.0186 789.076 87.5654C789.591 88.1123 789.849 88.8506 789.849 89.7803C789.849 90.8148 789.564 91.6328 788.994 92.2344C788.424 92.8359 787.65 93.1367 786.67 93.1367C785.986 93.1367 785.387 92.9635 784.872 92.6172C784.362 92.2708 783.967 91.765 783.689 91.0996C783.411 90.4297 783.272 89.639 783.272 88.7275ZM784.517 89.541C784.517 89.9967 784.608 90.4251 784.79 90.8262C784.972 91.2227 785.225 91.5348 785.549 91.7627C785.872 91.9906 786.242 92.1045 786.656 92.1045C787.29 92.1045 787.777 91.9017 788.119 91.4961C788.461 91.0905 788.632 90.5186 788.632 89.7803C788.632 89.1149 788.465 88.6045 788.133 88.249C787.8 87.889 787.322 87.709 786.697 87.709C786.301 87.709 785.936 87.791 785.604 87.9551C785.275 88.1191 785.011 88.347 784.811 88.6387C784.615 88.9303 784.517 89.2311 784.517 89.541Z" fill="#4492E0"/>
<defs>
<filter id="filter0_d" x="62" y="209" width="58" height="58" filterUnits="userSpaceOnUse" color-interpolation-filters="sRGB">
<feFlood flood-opacity="0" result="BackgroundImageFix"/>
<feColorMatrix in="SourceAlpha" type="matrix" values="0 0 0 0 0 0 0 0 0 0 0 0 0 0 0 0 0 0 127 0"/>
<feOffset dy="4"/>
<feGaussianBlur stdDeviation="7.5"/>
<feColorMatrix type="matrix" values="0 0 0 0 0.529167 0 0 0 0 0.529167 0 0 0 0 0.529167 0 0 0 0.25 0"/>
<feBlend mode="normal" in2="BackgroundImageFix" result="effect1_dropShadow"/>
<feBlend mode="normal" in="SourceGraphic" in2="effect1_dropShadow" result="shape"/>
</filter>
<filter id="filter1_d" x="191" y="188" width="58" height="58" filterUnits="userSpaceOnUse" color-interpolation-filters="sRGB">
<feFlood flood-opacity="0" result="BackgroundImageFix"/>
<feColorMatrix in="SourceAlpha" type="matrix" values="0 0 0 0 0 0 0 0 0 0 0 0 0 0 0 0 0 0 127 0"/>
<feOffset dy="4"/>
<feGaussianBlur stdDeviation="7.5"/>
<feColorMatrix type="matrix" values="0 0 0 0 0.529167 0 0 0 0 0.529167 0 0 0 0 0.529167 0 0 0 0.25 0"/>
<feBlend mode="normal" in2="BackgroundImageFix" result="effect1_dropShadow"/>
<feBlend mode="normal" in="SourceGraphic" in2="effect1_dropShadow" result="shape"/>
</filter>
<filter id="filter2_d" x="332" y="167" width="58" height="58" filterUnits="userSpaceOnUse" color-interpolation-filters="sRGB">
<feFlood flood-opacity="0" result="BackgroundImageFix"/>
<feColorMatrix in="SourceAlpha" type="matrix" values="0 0 0 0 0 0 0 0 0 0 0 0 0 0 0 0 0 0 127 0"/>
<feOffset dy="4"/>
<feGaussianBlur stdDeviation="7.5"/>
<feColorMatrix type="matrix" values="0 0 0 0 0.529167 0 0 0 0 0.529167 0 0 0 0 0.529167 0 0 0 0.25 0"/>
<feBlend mode="normal" in2="BackgroundImageFix" result="effect1_dropShadow"/>
<feBlend mode="normal" in="SourceGraphic" in2="effect1_dropShadow" result="shape"/>
</filter>
<filter id="filter3_d" x="473" y="160" width="58" height="58" filterUnits="userSpaceOnUse" color-interpolation-filters="sRGB">
<feFlood flood-opacity="0" result="BackgroundImageFix"/>
<feColorMatrix in="SourceAlpha" type="matrix" values="0 0 0 0 0 0 0 0 0 0 0 0 0 0 0 0 0 0 127 0"/>
<feOffset dy="4"/>
<feGaussianBlur stdDeviation="7.5"/>
<feColorMatrix type="matrix" values="0 0 0 0 0.529167 0 0 0 0 0.529167 0 0 0 0 0.529167 0 0 0 0.25 0"/>
<feBlend mode="normal" in2="BackgroundImageFix" result="effect1_dropShadow"/>
<feBlend mode="normal" in="SourceGraphic" in2="effect1_dropShadow" result="shape"/>
</filter>
<filter id="filter4_d" x="614" y="140" width="58" height="58" filterUnits="userSpaceOnUse" color-interpolation-filters="sRGB">
<feFlood flood-opacity="0" result="BackgroundImageFix"/>
<feColorMatrix in="SourceAlpha" type="matrix" values="0 0 0 0 0 0 0 0 0 0 0 0 0 0 0 0 0 0 127 0"/>
<feOffset dy="4"/>
<feGaussianBlur stdDeviation="7.5"/>
<feColorMatrix type="matrix" values="0 0 0 0 0.529167 0 0 0 0 0.529167 0 0 0 0 0.529167 0 0 0 0.25 0"/>
<feBlend mode="normal" in2="BackgroundImageFix" result="effect1_dropShadow"/>
<feBlend mode="normal" in="SourceGraphic" in2="effect1_dropShadow" result="shape"/>
</filter>
<filter id="filter5_d" x="754" y="65" width="58" height="58" filterUnits="userSpaceOnUse" color-interpolation-filters="sRGB">
<feFlood flood-opacity="0" result="BackgroundImageFix"/>
<feColorMatrix in="SourceAlpha" type="matrix" values="0 0 0 0 0 0 0 0 0 0 0 0 0 0 0 0 0 0 127 0"/>
<feOffset dy="4"/>
<feGaussianBlur stdDeviation="7.5"/>
<feColorMatrix type="matrix" values="0 0 0 0 0.529167 0 0 0 0 0.529167 0 0 0 0 0.529167 0 0 0 0.25 0"/>
<feBlend mode="normal" in2="BackgroundImageFix" result="effect1_dropShadow"/>
<feBlend mode="normal" in="SourceGraphic" in2="effect1_dropShadow" result="shape"/>
</filter>
<linearGradient id="paint0_linear" x1="411" y1="107" x2="437.25" y2="283" gradientUnits="userSpaceOnUse">
<stop offset="0.136045" stop-color="#A9C1FF"/>
<stop offset="0.944807" stop-color="white" stop-opacity="0"/>
</linearGradient>
</defs>
</svg>
