<svg width="165" height="43" viewBox="0 0 165 43" fill="none" xmlns="http://www.w3.org/2000/svg">
<circle cx="21.5" cy="21.5" r="21.5" fill="#216087"/>
<circle cx="82.5" cy="21.5" r="21.5" fill="#216087"/>
<circle cx="143.5" cy="21.5" r="21.5" fill="#216087"/>
<path d="M29 21.5C29 17.3574 25.6426 14 21.5 14C17.3574 14 14 17.3574 14 21.5C14 25.6426 17.3574 29 21.5 29C21.5439 29 21.5879 29 21.6318 28.9971V23.1611H20.0205V21.2832H21.6318V19.9004C21.6318 18.2979 22.6104 17.4248 24.04 17.4248C24.7256 17.4248 25.3145 17.4746 25.4844 17.498V19.1738H24.5C23.7236 19.1738 23.5713 19.543 23.5713 20.085V21.2803H25.4316L25.1885 23.1582H23.5713V28.71C26.7061 27.8105 29 24.9248 29 21.5Z" fill="white"/>
<g clip-path="url(#clip0)">
<path d="M90 17.039C89.405 17.3 88.771 17.473 88.11 17.557C88.79 17.151 89.309 16.513 89.553 15.744C88.919 16.122 88.219 16.389 87.473 16.538C86.871 15.897 86.013 15.5 85.077 15.5C83.261 15.5 81.799 16.974 81.799 18.781C81.799 19.041 81.821 19.291 81.875 19.529C79.148 19.396 76.735 18.089 75.114 16.098C74.831 16.589 74.665 17.151 74.665 17.756C74.665 18.892 75.25 19.899 76.122 20.482C75.595 20.472 75.078 20.319 74.64 20.078C74.64 20.088 74.64 20.101 74.64 20.114C74.64 21.708 75.777 23.032 77.268 23.337C77.001 23.41 76.71 23.445 76.408 23.445C76.198 23.445 75.986 23.433 75.787 23.389C76.212 24.688 77.418 25.643 78.852 25.674C77.736 26.547 76.319 27.073 74.785 27.073C74.516 27.073 74.258 27.061 74 27.028C75.453 27.965 77.175 28.5 79.032 28.5C85.068 28.5 88.368 23.5 88.368 19.166C88.368 19.021 88.363 18.881 88.356 18.742C89.007 18.28 89.554 17.703 90 17.039Z" fill="white"/>
</g>
<path d="M144 15C140.134 15 137 18.134 137 22C137 25.866 140.134 29 144 29C147.866 29 151 25.866 151 22C151 18.134 147.866 15 144 15ZM144.805 24.3251C144.158 24.3251 143.549 23.975 143.34 23.5776C143.34 23.5776 142.992 24.959 142.919 25.2255C142.659 26.1679 141.895 27.1106 141.836 27.1878C141.795 27.2415 141.703 27.2248 141.694 27.1534C141.678 27.0334 141.482 25.8445 141.712 24.8749C141.827 24.3879 142.483 21.6074 142.483 21.6074C142.483 21.6074 142.292 21.2246 142.292 20.6586C142.292 19.7699 142.807 19.1065 143.448 19.1065C143.993 19.1065 144.257 19.5159 144.257 20.0068C144.257 20.555 143.908 21.3748 143.728 22.1345C143.577 22.7705 144.046 23.2894 144.674 23.2894C145.81 23.2894 146.575 21.8303 146.575 20.1012C146.575 18.7872 145.69 17.8033 144.08 17.8033C142.261 17.8033 141.127 19.1598 141.127 20.6752C141.127 21.1974 141.282 21.5662 141.523 21.851C141.634 21.9821 141.65 22.0348 141.609 22.1852C141.58 22.2956 141.515 22.5611 141.487 22.6661C141.447 22.8182 141.324 22.8724 141.187 22.8164C140.349 22.4745 139.959 21.557 139.959 20.5257C139.959 18.8223 141.395 16.7798 144.244 16.7798C146.534 16.7798 148.041 18.4363 148.041 20.2149C148.041 22.5677 146.733 24.3251 144.805 24.3251Z" fill="white"/>
<defs>
<clipPath id="clip0">
<rect width="16" height="16" fill="white" transform="translate(74 14)"/>
</clipPath>
</defs>
</svg>
