<svg width="197" height="62" viewBox="0 0 197 62" fill="none" xmlns="http://www.w3.org/2000/svg">
<rect width="197" height="62" fill="white"/>
<path d="M13.28 46C12.9867 46 12.7333 45.9067 12.52 45.72C12.3067 45.5067 12.2 45.24 12.2 44.92V19.08C12.2 18.7867 12.3067 18.5333 12.52 18.32C12.7333 18.1067 12.9867 18 13.28 18H21.12C21.4133 18 21.6667 18.1067 21.88 18.32C22.0933 18.5333 22.2 18.7867 22.2 19.08V27.48H28.68V19.08C28.68 18.7867 28.7867 18.5333 29 18.32C29.2133 18.1067 29.4667 18 29.76 18H37.6C37.8933 18 38.1467 18.1067 38.36 18.32C38.5733 18.5333 38.68 18.7867 38.68 19.08V44.92C38.68 45.2133 38.5733 45.4667 38.36 45.68C38.1467 45.8933 37.8933 46 37.6 46H29.76C29.4667 46 29.2133 45.8933 29 45.68C28.7867 45.4667 28.68 45.2133 28.68 44.92V36.28H22.2V44.92C22.2 45.2133 22.0933 45.4667 21.88 45.68C21.6667 45.8933 21.4133 46 21.12 46H13.28ZM44.1784 46C43.8851 46 43.6318 45.8933 43.4184 45.68C43.2051 45.4667 43.0984 45.2133 43.0984 44.92V19.08C43.0984 18.7867 43.2051 18.5333 43.4184 18.32C43.6318 18.1067 43.8851 18 44.1784 18H64.6984C64.9918 18 65.2451 18.1067 65.4584 18.32C65.6718 18.5333 65.7784 18.7867 65.7784 19.08V24.72C65.7784 25.0133 65.6718 25.2667 65.4584 25.48C65.2451 25.6933 64.9918 25.8 64.6984 25.8H52.6984V28.32H63.8184C64.1118 28.32 64.3651 28.4267 64.5784 28.64C64.7918 28.8533 64.8984 29.1067 64.8984 29.4V34.6C64.8984 34.8933 64.7918 35.1467 64.5784 35.36C64.3651 35.5733 64.1118 35.68 63.8184 35.68H52.6984V38.2H65.0184C65.3118 38.2 65.5651 38.3067 65.7784 38.52C65.9918 38.7333 66.0984 38.9867 66.0984 39.28V44.92C66.0984 45.2133 65.9918 45.4667 65.7784 45.68C65.5651 45.8933 65.3118 46 65.0184 46H44.1784ZM82.2628 46.4C78.2361 46.4 75.0361 45.52 72.6628 43.76C70.2895 41.9733 69.0228 39.24 68.8628 35.56C68.8361 34.84 68.8228 33.6667 68.8228 32.04C68.8228 30.3867 68.8361 29.1867 68.8628 28.44C69.0228 24.8667 70.3161 22.1733 72.7428 20.36C75.1695 18.52 78.3428 17.6 82.2628 17.6C84.6628 17.6 86.8628 17.96 88.8628 18.68C90.8895 19.4 92.5295 20.5333 93.7828 22.08C95.0628 23.6 95.7161 25.52 95.7428 27.84C95.7428 28.08 95.6495 28.2933 95.4628 28.48C95.3028 28.64 95.1028 28.72 94.8628 28.72H86.7028C86.2761 28.72 85.9561 28.64 85.7428 28.48C85.5561 28.32 85.3828 28.0133 85.2228 27.56C84.9295 26.76 84.5428 26.2 84.0628 25.88C83.5828 25.56 82.9695 25.4 82.2228 25.4C81.2895 25.4 80.5695 25.6533 80.0628 26.16C79.5561 26.64 79.2895 27.4667 79.2628 28.64C79.2361 29.36 79.2228 30.4667 79.2228 31.96C79.2228 33.4533 79.2361 34.5867 79.2628 35.36C79.2895 36.5333 79.5561 37.3733 80.0628 37.88C80.5695 38.36 81.2895 38.6 82.2228 38.6C83.7428 38.6 84.7428 37.88 85.2228 36.44C85.3561 35.9867 85.5161 35.68 85.7028 35.52C85.9161 35.36 86.2495 35.28 86.7028 35.28H94.8628C95.1028 35.28 95.3028 35.3733 95.4628 35.56C95.6495 35.72 95.7428 35.92 95.7428 36.16C95.7161 38.48 95.0628 40.4133 93.7828 41.96C92.5295 43.48 90.8895 44.6 88.8628 45.32C86.8628 46.04 84.6628 46.4 82.2628 46.4ZM99.9988 46C99.7054 46 99.4521 45.9067 99.2388 45.72C99.0254 45.5067 98.9188 45.24 98.9188 44.92V19.08C98.9188 18.7867 99.0254 18.5333 99.2388 18.32C99.4521 18.1067 99.7054 18 99.9988 18H107.839C108.132 18 108.385 18.1067 108.599 18.32C108.812 18.5333 108.919 18.7867 108.919 19.08V27.48H115.399V19.08C115.399 18.7867 115.505 18.5333 115.719 18.32C115.932 18.1067 116.185 18 116.479 18H124.319C124.612 18 124.865 18.1067 125.079 18.32C125.292 18.5333 125.399 18.7867 125.399 19.08V44.92C125.399 45.2133 125.292 45.4667 125.079 45.68C124.865 45.8933 124.612 46 124.319 46H116.479C116.185 46 115.932 45.8933 115.719 45.68C115.505 45.4667 115.399 45.2133 115.399 44.92V36.28H108.919V44.92C108.919 45.2133 108.812 45.4667 108.599 45.68C108.385 45.8933 108.132 46 107.839 46H99.9988ZM142.457 46.4C138.457 46.4 135.271 45.48 132.897 43.64C130.524 41.8 129.257 39.12 129.097 35.6C129.071 34.88 129.057 33.72 129.057 32.12C129.057 30.4933 129.071 29.3067 129.097 28.56C129.177 26.2667 129.777 24.2933 130.897 22.64C132.044 20.9867 133.604 19.7333 135.577 18.88C137.551 18.0267 139.844 17.6 142.457 17.6C145.071 17.6 147.364 18.0267 149.337 18.88C151.311 19.7333 152.857 20.9867 153.977 22.64C155.124 24.2933 155.737 26.2667 155.817 28.56C155.871 30.0533 155.897 31.24 155.897 32.12C155.897 33 155.871 34.16 155.817 35.6C155.657 39.12 154.391 41.8 152.017 43.64C149.644 45.48 146.457 46.4 142.457 46.4ZM142.457 38.6C143.364 38.6 144.071 38.3333 144.577 37.8C145.111 37.2667 145.391 36.4533 145.417 35.36C145.471 33.8133 145.497 32.68 145.497 31.96C145.497 31.1867 145.471 30.08 145.417 28.64C145.391 27.5467 145.111 26.7333 144.577 26.2C144.044 25.6667 143.337 25.4 142.457 25.4C141.577 25.4 140.871 25.6667 140.337 26.2C139.804 26.7333 139.524 27.5467 139.497 28.64C139.471 29.36 139.457 30.4667 139.457 31.96C139.457 33.4533 139.471 34.5867 139.497 35.36C139.524 36.4533 139.791 37.2667 140.297 37.8C140.831 38.3333 141.551 38.6 142.457 38.6ZM171.185 46.4C168.358 46.4 165.958 46.0133 163.985 45.24C162.038 44.4667 160.571 43.44 159.585 42.16C158.598 40.8533 158.078 39.4267 158.025 37.88C158.025 37.64 158.105 37.44 158.265 37.28C158.451 37.0933 158.665 37 158.905 37H166.505C166.878 37 167.171 37.0533 167.385 37.16C167.625 37.24 167.905 37.4133 168.225 37.68C168.998 38.2933 169.985 38.6 171.185 38.6C172.091 38.6 172.811 38.5067 173.345 38.32C173.905 38.1067 174.185 37.8267 174.185 37.48C174.185 37 173.825 36.64 173.105 36.4C172.385 36.1333 171.025 35.8667 169.025 35.6C162.145 34.6933 158.705 31.76 158.705 26.8C158.705 25.0133 159.211 23.4267 160.225 22.04C161.265 20.6267 162.705 19.5333 164.545 18.76C166.385 17.9867 168.505 17.6 170.905 17.6C173.411 17.6 175.611 18.0267 177.505 18.88C179.398 19.7333 180.851 20.8133 181.865 22.12C182.878 23.4 183.411 24.6533 183.465 25.88C183.465 26.12 183.371 26.3333 183.185 26.52C183.025 26.68 182.838 26.76 182.625 26.76H174.625C174.251 26.76 173.958 26.72 173.745 26.64C173.531 26.5333 173.291 26.36 173.025 26.12C172.465 25.64 171.758 25.4 170.905 25.4C169.625 25.4 168.985 25.7733 168.985 26.52C168.985 26.92 169.291 27.2533 169.905 27.52C170.545 27.7867 171.718 28.0267 173.425 28.24C176.091 28.5867 178.225 29.1067 179.825 29.8C181.451 30.4933 182.625 31.4267 183.345 32.6C184.091 33.7467 184.465 35.2 184.465 36.96C184.465 38.8533 183.891 40.52 182.745 41.96C181.598 43.3733 180.011 44.4667 177.985 45.24C175.985 46.0133 173.718 46.4 171.185 46.4Z" fill="#DC513A"/>
</svg>
