<svg width="54" height="54" viewBox="0 0 54 54" fill="none" xmlns="http://www.w3.org/2000/svg">
<path d="M54 20.0391C54 8.98956 45.0104 0 33.9609 0C30.1731 0 26.4842 1.06293 23.2929 3.07425C22.8002 3.38489 22.6523 4.03624 22.9629 4.52898C23.2736 5.02171 23.9249 5.16962 24.4177 4.85898C27.2719 3.06024 30.5719 2.10938 33.9609 2.10938C43.8474 2.10938 51.8906 10.1526 51.8906 20.0391C51.8906 29.9255 43.8474 37.9688 33.9609 37.9688C24.3534 37.9688 16.4733 30.3536 16.051 20.8424C16.7283 20.636 17.4279 20.4811 18.1452 20.3814C18.3281 28.9471 25.3521 35.8594 33.9609 35.8594C34.2522 35.8594 34.5414 35.8507 34.8286 35.8351C34.8315 35.8351 34.8344 35.8347 34.8372 35.8347C36.3999 35.749 37.9024 35.4354 39.3131 34.9266C39.3617 34.9126 39.4095 34.8953 39.4548 34.8747C45.478 32.6372 49.7812 26.8315 49.7812 20.0391C49.7812 11.3156 42.6844 4.21875 33.9609 4.21875C30.6519 4.21875 27.4824 5.22977 24.7955 7.14262C22.368 8.87132 20.5025 11.2089 19.3634 13.9346C18.5712 13.961 17.79 14.0323 17.0233 14.1489C17.467 12.8721 18.0553 11.6485 18.7817 10.4954C19.0923 10.0026 18.9444 9.35129 18.4517 9.04106C17.9594 8.73042 17.3076 8.87833 16.9974 9.37106C15.96 11.0174 15.1743 12.793 14.6556 14.6573C6.21236 17.0151 0 24.7757 0 33.9609C0 45.0104 8.98956 54 20.0391 54C23.8273 54 27.5166 52.9367 30.7079 50.9253C31.2006 50.6147 31.3481 49.9633 31.0379 49.4706C30.7272 48.9779 30.0759 48.8304 29.5832 49.1406C26.7289 50.9398 23.4289 51.8906 20.0391 51.8906C10.1526 51.8906 2.10938 43.8474 2.10938 33.9609C2.10938 24.0745 10.1526 16.0312 20.0391 16.0312C29.6466 16.0312 37.5267 23.6464 37.949 33.1576C37.2717 33.364 36.5721 33.5189 35.8548 33.6186C35.6719 25.0529 28.6479 18.1406 20.0391 18.1406C19.7498 18.1406 19.4627 18.1489 19.1776 18.1645C19.1681 18.1649 19.1591 18.1658 19.15 18.1662C17.5919 18.2531 16.0935 18.5662 14.6869 19.0734C14.6379 19.0874 14.5905 19.1047 14.5448 19.1253C8.52196 21.3628 4.21875 27.1685 4.21875 33.9609C4.21875 42.6844 11.3156 49.7812 20.0391 49.7812C26.4166 49.7812 32.1923 45.9061 34.6374 40.0654C35.4293 40.039 36.2104 39.9673 36.9767 39.8511C36.533 41.127 35.9447 42.3506 35.2183 43.5038C34.9081 43.9965 35.056 44.6479 35.5487 44.9581C35.7234 45.0681 35.9179 45.1208 36.1099 45.1208C36.4601 45.1208 36.8028 44.9462 37.0031 44.6281C38.0404 42.9814 38.8261 41.2057 39.3444 39.3427C47.7876 36.9849 54 29.2243 54 20.0391ZM34.1921 19.775C30.7936 16.3839 26.3911 14.3631 21.6565 13.987C23.9418 9.35294 28.7159 6.32812 33.9609 6.32812C41.5213 6.32812 47.6719 12.4787 47.6719 20.0391C47.6719 25.4283 44.5457 30.1006 40.0122 32.3398C39.6344 27.5904 37.6008 23.1763 34.1921 19.775ZM33.7471 33.7471C26.3565 33.6334 20.3666 27.6435 20.2529 20.2529C27.6435 20.3666 33.6334 26.3565 33.7471 33.7471ZM20.0391 47.6719C12.4787 47.6719 6.32812 41.5213 6.32812 33.9609C6.32812 28.5717 9.45428 23.8994 13.9874 21.6602C14.3656 26.41 16.3992 30.8241 19.8079 34.225C23.2064 37.6161 27.6089 39.6369 32.3435 40.013C30.0586 44.6471 25.2845 47.6719 20.0391 47.6719Z" fill="#FF9226"/>
<path d="M20.5372 7.66957C20.8227 7.66957 21.1073 7.55422 21.315 7.32721C21.7088 6.89792 21.6796 6.23091 21.2503 5.83746C20.821 5.4436 20.154 5.47286 19.7601 5.90215L19.7597 5.90256C19.3663 6.33185 19.3955 6.99886 19.8248 7.3923C20.0271 7.57811 20.2825 7.66957 20.5372 7.66957Z" fill="#FF9226"/>
<path d="M32.7538 46.604L32.7534 46.6044C32.3225 46.9962 32.2912 47.6628 32.683 48.0942C32.891 48.3228 33.1765 48.439 33.4633 48.439C33.7166 48.439 33.9708 48.3484 34.1727 48.1646C34.6036 47.7728 34.6358 47.1058 34.244 46.6749C33.8518 46.2439 33.1848 46.2122 32.7538 46.604Z" fill="#FF9226"/>
</svg>
