<svg width="53" height="53" viewBox="0 0 53 53" fill="none" xmlns="http://www.w3.org/2000/svg">
<path d="M34.9801 25.4648C35.5518 25.4648 36.0153 25.0014 36.0153 24.4297C36.0153 23.858 35.5518 23.3945 34.9801 23.3945C34.4084 23.3945 33.9449 23.858 33.9449 24.4297C33.9449 25.0014 34.4084 25.4648 34.9801 25.4648Z" fill="#FF9226"/>
<path d="M35.1577 28.8651C34.5926 28.7812 34.0658 29.1719 33.9821 29.7374C33.6992 31.6478 32.0843 33.2322 29.6625 33.9759C27.0739 34.7708 23.4808 34.5043 21.2888 32.1174C20.9021 31.6963 20.2472 31.6685 19.8262 32.0551C19.4051 32.4418 19.3773 33.0966 19.7639 33.5176C21.0328 34.8995 22.7563 35.8412 24.7479 36.2411C25.4512 36.3823 26.1808 36.4524 26.9151 36.4524C28.0494 36.4524 29.1949 36.2852 30.2702 35.955C33.474 34.9713 35.6273 32.7604 36.0301 30.0407C36.1138 29.4752 35.7232 28.9489 35.1577 28.8651Z" fill="#FF9226"/>
<path d="M49.5453 19.7105C47.6638 17.5293 45.067 16.1151 41.9412 15.5471C44.9338 13.5275 47.5151 11.5177 49.3556 9.7639C52.1618 7.08999 53.1028 5.21098 52.3171 3.85088C51.4428 2.33604 48.919 2.34649 44.374 3.88411C40.5339 5.18323 35.75 7.43956 30.9039 10.2376C30.0667 10.7208 29.2375 11.2156 28.4261 11.7142C27.8244 10.0148 28.2212 8.0736 29.5489 6.39033C30.5434 5.12951 30.7655 3.52812 30.1285 2.21089C29.4608 0.830299 27.9955 0.00372656 26.2062 0H26.1576C19.8425 0 13.6656 2.49172 8.76487 7.01619C3.85802 11.5462 0.853997 17.5431 0.306192 23.902C-0.352892 31.5601 2.09505 38.8407 7.19888 44.4027C12.2126 49.8665 19.3205 53 26.7 53C30.6729 53 34.4026 52.2731 37.7852 50.8393C40.8782 49.5283 43.6249 47.6563 45.949 45.2751C48.1039 43.0673 49.8029 40.5256 50.9988 37.7207C52.1369 35.0516 52.7586 32.2232 52.7971 29.5412C52.8531 25.6409 51.7286 22.2416 49.5453 19.7105ZM28.5471 14.0769C29.6427 13.3859 30.7838 12.6974 31.9389 12.0306C36.4197 9.44352 40.8816 7.31265 44.5029 6.03041C48.4893 4.61897 50.1214 4.7111 50.5019 4.89329C50.469 5.13417 50.1699 6.20587 47.5539 8.61488C45.3695 10.6265 42.1797 12.9921 38.5721 15.276C37.4317 15.9982 36.2447 16.716 35.0445 17.4092C33.3898 18.3642 31.7363 19.2572 30.1135 20.0749C29.7897 19.1299 29.3747 18.2128 28.8697 17.3379C28.3801 16.49 27.8124 15.694 27.1777 14.9575C27.6269 14.6631 28.0839 14.3687 28.5471 14.0769ZM28.238 20.9932C25.315 22.3794 22.633 23.4361 20.4911 24.0492C20.3796 23.5137 20.1836 22.9961 19.9054 22.5139C19.6418 22.0569 19.311 21.6483 18.9288 21.296C20.5322 19.7485 22.7891 17.9556 25.4465 16.1214C26.0635 16.8109 26.6104 17.5652 27.0768 18.3729C27.5591 19.2083 27.9472 20.0869 28.238 20.9932ZM50.727 29.5115C50.5794 39.8121 41.3513 50.9297 26.7 50.9297C19.8988 50.9297 13.347 48.0406 8.72439 43.0031C4.01723 37.8735 1.76028 31.1529 2.36895 24.0796C3.41435 11.9436 14.0859 2.07031 26.1576 2.07031H26.204C27.1944 2.07238 27.9455 2.45208 28.2646 3.1122C28.5581 3.71901 28.4306 4.46515 27.9233 5.10819C26.0577 7.47352 25.5898 10.3826 26.6439 12.8354C26.0889 13.193 25.5435 13.5521 25.0165 13.9083C25.014 13.9099 25.0115 13.9116 25.0092 13.9132C21.7175 16.1344 18.9379 18.3437 17.0885 20.2029C15.6858 19.7236 14.1447 19.8633 12.8348 20.6194C10.6841 21.8617 7.86024 27.6508 7.31606 28.7987C7.17031 29.1059 7.18491 29.4652 7.35488 29.7597C7.52496 30.0542 7.82878 30.2464 8.16769 30.274C8.73982 30.3203 10.3645 30.4375 12.1728 30.4375C14.3671 30.4375 16.8316 30.2649 18.0107 29.5838C19.2879 28.8466 20.1731 27.6148 20.4797 26.1987C23.0182 25.5323 26.335 24.2288 29.9272 22.4786C31.9398 21.4991 34.0097 20.3967 36.0796 19.2021C37.1296 18.5958 38.1676 17.9706 39.1765 17.3401C39.1826 17.3404 39.1885 17.3414 39.1946 17.3416C47.8226 17.589 50.8091 23.7904 50.727 29.5115ZM18.5233 25.2961C18.457 26.3372 17.8786 27.2696 16.9755 27.7909C15.9966 28.3564 12.6336 28.4326 9.87228 28.3063C11.1429 25.8526 12.8902 22.9784 13.8702 22.4124C14.7954 21.8782 15.914 21.8548 16.863 22.35C17.3846 22.6216 17.8165 23.036 18.1121 23.5485C18.4197 24.0816 18.5618 24.6859 18.5233 25.2961Z" fill="#FF9226"/>
<path d="M18.4177 6.40143C16.1346 6.40143 14.2771 8.25891 14.2771 10.5421C14.2771 12.8252 16.1346 14.6827 18.4177 14.6827C20.7008 14.6827 22.5583 12.8252 22.5583 10.5421C22.5583 8.25891 20.7008 6.40143 18.4177 6.40143ZM18.4177 12.6124C17.2761 12.6124 16.3474 11.6836 16.3474 10.5421C16.3474 9.40048 17.2761 8.47174 18.4177 8.47174C19.5593 8.47174 20.488 9.40048 20.488 10.5421C20.488 11.6836 19.5593 12.6124 18.4177 12.6124Z" fill="#FF9226"/>
<path d="M13.2419 34.2171C10.9588 34.2171 9.1013 36.0746 9.1013 38.3577C9.1013 40.6409 10.9588 42.4984 13.2419 42.4984C15.5251 42.4984 17.3826 40.6409 17.3826 38.3577C17.3826 36.0746 15.5251 34.2171 13.2419 34.2171ZM13.2419 40.428C12.1004 40.428 11.1716 39.4993 11.1716 38.3577C11.1716 37.2162 12.1004 36.2874 13.2419 36.2874C14.3835 36.2874 15.3122 37.2162 15.3122 38.3577C15.3122 39.4993 14.3835 40.428 13.2419 40.428Z" fill="#FF9226"/>
<path d="M23.5935 40.428C21.3103 40.428 19.4529 42.2855 19.4529 44.5687C19.4529 46.8518 21.3103 48.7093 23.5935 48.7093C25.8766 48.7093 27.7341 46.8518 27.7341 44.5687C27.7341 42.2855 25.8766 40.428 23.5935 40.428ZM23.5935 46.639C22.4519 46.639 21.5232 45.7102 21.5232 44.5687C21.5232 43.4271 22.4519 42.4984 23.5935 42.4984C24.7351 42.4984 25.6638 43.4271 25.6638 44.5687C25.6638 45.7102 24.7351 46.639 23.5935 46.639Z" fill="#FF9226"/>
<path d="M36.0154 38.3577C33.7322 38.3577 31.8747 40.2152 31.8747 42.4984C31.8747 44.7815 33.7322 46.639 36.0154 46.639C38.2985 46.639 40.156 44.7815 40.156 42.4984C40.156 40.2152 38.2985 38.3577 36.0154 38.3577ZM36.0154 44.5687C34.8738 44.5687 33.945 43.6399 33.945 42.4984C33.945 41.3568 34.8738 40.428 36.0154 40.428C37.1569 40.428 38.0857 41.3568 38.0857 42.4984C38.0857 43.6399 37.1569 44.5687 36.0154 44.5687Z" fill="#FF9226"/>
<path d="M44.2966 28.0062C42.0135 28.0062 40.156 29.8636 40.156 32.1468C40.156 34.4299 42.0135 36.2874 44.2966 36.2874C46.5797 36.2874 48.4372 34.4299 48.4372 32.1468C48.4372 29.8636 46.5797 28.0062 44.2966 28.0062ZM44.2966 34.2171C43.155 34.2171 42.2263 33.2884 42.2263 32.1468C42.2263 31.0052 43.155 30.0765 44.2966 30.0765C45.4382 30.0765 46.3669 31.0052 46.3669 32.1468C46.3669 33.2884 45.4382 34.2171 44.2966 34.2171Z" fill="#FF9226"/>
</svg>
