<svg width="116" height="116" viewBox="0 0 116 116" fill="none" xmlns="http://www.w3.org/2000/svg">
<circle cx="58" cy="58" r="58" fill="#FF9226"/>
<g clip-path="url(#clip0)">
<path d="M57.3031 71.1174C57.6841 71.4981 57.6841 72.1165 57.3031 72.498C56.9212 72.8791 56.3032 72.8791 55.9225 72.498C55.5407 72.1165 55.5407 71.4981 55.9225 71.1174C56.3032 70.7356 56.9212 70.7356 57.3031 71.1174Z" fill="white"/>
<path d="M32.2598 69.4216L39.6741 63.117C39.7084 63.088 39.7446 63.0613 39.7824 63.0373C41.7275 61.7991 44.225 62.0733 45.8558 63.7037L49.8982 67.7458C50.1782 68.0262 50.5959 68.109 50.9621 67.9579C55.5268 66.0696 59.2766 63.2269 62.1075 59.5095C64.2663 56.6748 65.0445 54.4222 65.1471 54.1048C65.1593 54.0369 65.1787 53.9694 65.2062 53.9034C65.3577 53.5372 65.2749 53.1202 64.9941 52.8403L60.9521 48.7971C59.3213 47.1663 59.0474 44.6688 60.2856 42.7237C60.2955 42.708 60.3058 42.6928 60.3165 42.6775L65.6708 35.237C67.3554 32.6235 71.0248 32.2287 73.227 34.4305L74.0365 35.24C74.0369 35.2408 74.0376 35.2415 74.0384 35.2419L76.9284 38.1319C80.3746 41.5785 80.9384 46.7573 78.5584 53.1096C76.5198 58.5508 72.4389 64.506 67.0674 69.8774C61.5689 75.3759 55.4528 79.5324 49.846 81.5813C44.2963 83.6088 38.3931 83.8587 34.2148 79.6801L31.4892 76.9548C29.2969 74.7622 29.6796 71.1168 32.2598 69.4216ZM40.8841 64.6513L33.4763 70.9505C33.4424 70.9795 33.4061 71.0062 33.3684 71.0302C31.786 72.0377 31.5465 74.2502 32.8705 75.5739L33.0727 75.7765L45.7074 66.3168L44.4749 65.0847C43.5116 64.1211 42.0438 63.9467 40.8841 64.6513ZM67.3024 36.31C67.2925 36.3257 67.2822 36.3413 67.2715 36.3562L61.9195 43.7941C61.1924 44.9579 61.3606 46.4438 62.333 47.4161L63.5274 48.6109L72.0753 36.0407L71.8461 35.8114C70.5166 34.482 68.306 34.7334 67.3024 36.31ZM49.1761 79.7468C54.5212 77.7937 60.3848 73.7982 65.6865 68.4965C70.8653 63.3181 74.7872 57.6101 76.73 52.4244C78.1884 48.5319 79.1669 43.1322 75.5475 39.5132L73.4811 37.4464L64.9331 50.0166L66.3747 51.4589C67.1948 52.2776 67.4527 53.4891 67.0434 54.5679C66.7351 55.8329 65.3168 58.4585 63.8859 60.3933C61.7802 63.2406 57.9583 67.177 51.7087 69.7626C50.6104 70.217 49.3581 69.9675 48.5173 69.1271L47.1024 67.7118L34.4678 77.1715L35.5958 78.2991C39.4757 82.1795 45.1222 81.2281 49.1761 79.7468Z" fill="white"/>
<path d="M59.1356 68.7858C60.1671 67.8814 61.9512 66.3257 62.8908 65.3591C65.1948 62.9913 67.6122 60.1211 69.0496 58.0475C69.3567 57.6042 69.9651 57.4936 70.4084 57.801C70.8517 58.1081 70.9619 58.7166 70.6548 59.1598C68.8421 61.7752 66.1786 64.7804 64.2908 66.7206C63.2989 67.7414 61.4995 69.3107 60.4234 70.2541C60.0187 70.6089 59.4018 70.57 59.0452 70.1637C58.6896 69.7586 58.7301 69.1414 59.1356 68.7858Z" fill="white"/>
</g>
<defs>
<clipPath id="clip0">
<rect width="50" height="50" transform="matrix(-1 0 0 1 80.0066 33)" fill="white"/>
</clipPath>
</defs>
</svg>
