<svg width="116" height="116" viewBox="0 0 116 116" fill="none" xmlns="http://www.w3.org/2000/svg">
<circle cx="58" cy="58" r="58" fill="#FF9226"/>
<g clip-path="url(#clip0)">
<path d="M47.0624 70.4688C46.4586 70.4688 45.9686 70.9588 45.9686 71.5625C45.9686 72.1662 46.4586 72.6562 47.0624 72.6562C47.6661 72.6562 48.1561 72.1662 48.1561 71.5625C48.1561 70.9588 47.6661 70.4688 47.0624 70.4688Z" fill="white"/>
<path d="M79.2342 50.7821L85.6796 44.3368C85.9507 44.0656 86.06 43.6723 85.9678 43.3002C85.8756 42.928 85.5951 42.6314 85.2287 42.5183L69.5334 37.6741C68.1185 33.1261 63.9133 30.001 59.0934 30.001C54.613 30.001 50.6059 32.7315 48.9475 36.8506L30.7678 42.5193C30.4024 42.6332 30.1231 42.9301 30.0315 43.3019C29.94 43.6735 30.0494 44.0662 30.3201 44.3369L36.9349 50.9518L32.7629 57.9053C32.5922 58.1898 32.5599 58.5364 32.675 58.8475C32.7901 59.1587 33.0402 59.4008 33.355 59.5056L39.4059 61.5225V78.3446C39.4059 78.8005 39.6888 79.2086 40.1157 79.3687C43.8155 80.756 57.5623 85.9117 57.6361 85.9379C57.8531 86.0143 58.0976 86.0247 58.3359 85.9476C58.3391 85.9465 58.3424 85.9458 58.3455 85.9448L78.033 79.3823C78.4796 79.2334 78.7809 78.8154 78.7809 78.3446V61.0721L85.2339 59.0443C85.5987 58.9297 85.8772 58.6328 85.9683 58.2614C86.0593 57.89 85.9498 57.498 85.6794 57.2275L79.2342 50.7821ZM70.0309 40.9385C70.0309 40.6606 70.0192 40.3833 69.9984 40.1069L82.8493 44.0734L77.3918 49.5308L68.4746 46.5587C69.4844 44.8709 70.0309 42.9234 70.0309 40.9385ZM50.8167 38.0917C52.0309 34.5608 55.3571 32.1885 59.0934 32.1885C63.1186 32.1885 66.6096 34.911 67.5829 38.8092C67.7558 39.5018 67.8434 40.2182 67.8434 40.9385C67.8434 42.97 67.1693 44.8741 65.8935 46.4457C64.2226 48.5066 61.744 49.6885 59.0934 49.6885C56.2283 49.6885 53.5408 48.2821 51.9039 45.9255C50.8831 44.4593 50.3434 42.7346 50.3434 40.9385C50.3434 39.9616 50.5026 39.0039 50.8167 38.0917ZM33.1459 44.0691L48.2724 39.3524C48.1965 39.875 48.1559 40.4044 48.1559 40.9384C48.1559 42.6994 48.5731 44.4051 49.3683 45.9441L38.6076 49.5308L33.1459 44.0691ZM35.3403 57.8615L38.7987 52.0972L56.3603 57.9511L52.9019 63.7154C51.0267 63.0903 37.3425 58.5288 35.3403 57.8615ZM56.9059 83.3289L41.5934 77.5868V62.2517C53.6411 66.2463 53.0528 66.1244 53.3882 66.1244C53.7643 66.1244 54.1243 65.9298 54.3263 65.5932L56.9059 61.2936V83.3289ZM57.9997 56.1918L41.7711 50.7823L50.6079 47.8369C52.6762 50.3795 55.7898 51.876 59.0934 51.876C62.1496 51.876 65.0219 50.6183 67.0879 48.4023L74.2283 50.7822L57.9997 56.1918ZM76.5934 77.5563L59.0934 83.3896V60.4625L62.9709 65.3089C63.253 65.6614 63.7225 65.8042 64.1529 65.669L76.5934 61.7596V77.5563ZM64.2113 63.3578L59.8337 57.8862L77.3918 52.0336L82.8566 57.4984L64.2113 63.3578Z" fill="white"/>
<path d="M54.009 72.8966L51.5765 71.9844C51.0109 71.7725 50.3805 72.0589 50.1683 72.6245C49.9562 73.1902 50.2428 73.8206 50.8084 74.0327L53.2409 74.9449C53.8077 75.1573 54.4373 74.8694 54.6491 74.3048C54.8612 73.7392 54.5746 73.1087 54.009 72.8966Z" fill="white"/>
<path d="M54.0089 77.569L47.4464 75.108C46.8809 74.8959 46.2504 75.1825 46.0382 75.7481C45.826 76.3137 46.1127 76.9442 46.6783 77.1563L53.2408 79.6172C53.3673 79.6647 53.4971 79.6872 53.6247 79.6872C54.0676 79.6872 54.4843 79.4163 54.649 78.9772C54.8612 78.4115 54.5746 77.781 54.0089 77.569Z" fill="white"/>
<path d="M65.3359 36.8829C64.9088 36.4557 64.2162 36.4558 63.789 36.8829L57.9999 42.6721L56.5858 41.258C56.1587 40.8309 55.4661 40.8309 55.0389 41.258C54.6117 41.6851 54.6118 42.3777 55.0389 42.8049L57.2265 44.9923C57.6536 45.4194 58.3462 45.4194 58.7734 44.9923L65.3359 38.4298C65.763 38.0027 65.763 37.3101 65.3359 36.8829Z" fill="white"/>
</g>
<defs>
<clipPath id="clip0">
<rect x="30" y="30" width="56" height="56" fill="white"/>
</clipPath>
</defs>
</svg>
