<svg width="41" height="41" viewBox="0 0 41 41" fill="none" xmlns="http://www.w3.org/2000/svg">
<rect width="41" height="41" rx="5" transform="matrix(-1 0 0 1 41 0)" fill="#FF9226"/>
<path d="M32.3536 20.6464C32.5488 20.8417 32.5488 21.1583 32.3536 21.3536L29.1716 24.5355C28.9763 24.7308 28.6597 24.7308 28.4645 24.5355C28.2692 24.3403 28.2692 24.0237 28.4645 23.8284L31.2929 21L28.4645 18.1716C28.2692 17.9763 28.2692 17.6597 28.4645 17.4645C28.6597 17.2692 28.9763 17.2692 29.1716 17.4645L32.3536 20.6464ZM10 20.5L32 20.5L32 21.5L10 21.5L10 20.5Z" fill="white"/>
</svg>
