<svg width="69" height="38" viewBox="0 0 69 38" fill="none" xmlns="http://www.w3.org/2000/svg">
<path d="M17.1856 0H69V38H17.1856L0 20.6619L17.1856 0Z" fill="url(#paint0_linear)"/>
<path d="M24.58 16.26C26.5533 16.26 28.0067 16.6533 28.94 17.44C29.8867 18.2267 30.36 19.28 30.36 20.6C30.36 21.4533 30.1467 22.2333 29.72 22.94C29.2933 23.6333 28.64 24.1933 27.76 24.62C26.8933 25.0333 25.82 25.24 24.54 25.24C23.5533 25.24 22.58 25.1133 21.62 24.86C20.6733 24.5933 19.8667 24.22 19.2 23.74L20.48 21.26C21.0133 21.66 21.6267 21.9733 22.32 22.2C23.0133 22.4133 23.7267 22.52 24.46 22.52C25.2733 22.52 25.9133 22.36 26.38 22.04C26.8467 21.72 27.08 21.2733 27.08 20.7C27.08 20.1 26.8333 19.6467 26.34 19.34C25.86 19.0333 25.02 18.88 23.82 18.88L20.24 18.88L20.96 11L29.5 11L29.5 13.6L23.66 13.6L23.44 16.26L24.58 16.26ZM37.6745 25.24C36.5145 25.24 35.4812 24.9533 34.5745 24.38C33.6679 23.8067 32.9545 22.98 32.4345 21.9C31.9279 20.8067 31.6745 19.5067 31.6745 18C31.6745 16.4933 31.9279 15.2 32.4345 14.12C32.9545 13.0267 33.6679 12.1933 34.5745 11.62C35.4812 11.0467 36.5145 10.76 37.6745 10.76C38.8345 10.76 39.8679 11.0467 40.7745 11.62C41.6812 12.1933 42.3879 13.0267 42.8945 14.12C43.4145 15.2 43.6745 16.4933 43.6745 18C43.6745 19.5067 43.4145 20.8067 42.8945 21.9C42.3879 22.98 41.6812 23.8067 40.7745 24.38C39.8679 24.9533 38.8345 25.24 37.6745 25.24ZM37.6745 22.5C38.5279 22.5 39.1945 22.1333 39.6745 21.4C40.1679 20.6667 40.4145 19.5333 40.4145 18C40.4145 16.4667 40.1679 15.3333 39.6745 14.6C39.1945 13.8667 38.5279 13.5 37.6745 13.5C36.8345 13.5 36.1679 13.8667 35.6745 14.6C35.1945 15.3333 34.9545 16.4667 34.9545 18C34.9545 19.5333 35.1945 20.6667 35.6745 21.4C36.1679 22.1333 36.8345 22.5 37.6745 22.5ZM48.4887 18.56C47.4621 18.56 46.6221 18.2133 45.9687 17.52C45.3287 16.8133 45.0087 15.8733 45.0087 14.7C45.0087 13.5267 45.3287 12.5933 45.9687 11.9C46.6221 11.1933 47.4621 10.84 48.4888 10.84C49.5154 10.84 50.3488 11.1933 50.9888 11.9C51.6288 12.5933 51.9488 13.5267 51.9488 14.7C51.9488 15.8733 51.6288 16.8133 50.9887 17.52C50.3488 18.2133 49.5154 18.56 48.4887 18.56ZM56.8288 11L59.2088 11L49.6487 25L47.2687 25L56.8288 11ZM48.4887 16.92C48.9421 16.92 49.2954 16.7333 49.5488 16.36C49.8154 15.9867 49.9488 15.4333 49.9488 14.7C49.9488 13.9667 49.8154 13.4133 49.5488 13.04C49.2954 12.6667 48.9421 12.48 48.4888 12.48C48.0488 12.48 47.6954 12.6733 47.4287 13.06C47.1621 13.4333 47.0288 13.98 47.0288 14.7C47.0288 15.42 47.1621 15.9733 47.4287 16.36C47.6954 16.7333 48.0488 16.92 48.4887 16.92ZM57.9888 25.16C57.3221 25.16 56.7221 25.0067 56.1888 24.7C55.6688 24.38 55.2621 23.9267 54.9688 23.34C54.6754 22.7533 54.5288 22.0733 54.5288 21.3C54.5288 20.5267 54.6754 19.8467 54.9688 19.26C55.2621 18.6733 55.6688 18.2267 56.1888 17.92C56.7221 17.6 57.3221 17.44 57.9888 17.44C59.0154 17.44 59.8488 17.7933 60.4888 18.5C61.1421 19.1933 61.4688 20.1267 61.4688 21.3C61.4688 22.4733 61.1421 23.4133 60.4888 24.12C59.8488 24.8133 59.0154 25.16 57.9888 25.16ZM57.9888 23.52C58.4421 23.52 58.7954 23.3333 59.0488 22.96C59.3154 22.5733 59.4488 22.02 59.4488 21.3C59.4488 20.58 59.3154 20.0333 59.0488 19.66C58.7954 19.2733 58.4421 19.08 57.9888 19.08C57.5488 19.08 57.1954 19.2667 56.9288 19.64C56.6621 20.0133 56.5288 20.5667 56.5288 21.3C56.5288 22.0333 56.6621 22.5867 56.9288 22.96C57.1954 23.3333 57.5488 23.52 57.9888 23.52Z" fill="white"/>
<defs>
<linearGradient id="paint0_linear" x1="-4.03093" y1="19" x2="41.0231" y2="53.8695" gradientUnits="userSpaceOnUse">
<stop stop-color="#7128E7"/>
<stop offset="1" stop-color="#E7288F"/>
</linearGradient>
</defs>
</svg>
