<svg width="72" height="400" viewBox="0 0 72 400" fill="none" xmlns="http://www.w3.org/2000/svg">
<path d="M36 373L36 23" stroke="#FF521C" stroke-opacity="0.5" stroke-width="3" stroke-linecap="round" stroke-dasharray="10 10"/>
<circle cx="37" cy="35" r="35" fill="#F42362"/>
<path d="M35.9902 47V26.5039H35.8848L29.416 30.9688V26.1875L35.9727 21.6348H41.2461V47H35.9902Z" fill="white"/>
<circle cx="37" cy="145" r="35" fill="#F42362"/>
<path d="M27.6309 138.264C27.6309 135.861 28.498 133.898 30.2324 132.375C31.9785 130.84 34.2344 130.072 37 130.072C39.6602 130.072 41.8281 130.764 43.5039 132.146C45.1797 133.518 46.0176 135.27 46.0176 137.402C46.0176 138.164 45.9004 138.902 45.666 139.617C45.4434 140.32 45.0801 141.029 44.5762 141.744C44.084 142.447 43.5859 143.086 43.082 143.66C42.5781 144.223 41.9219 144.908 41.1133 145.717L34.9258 151.676V151.781H46.3691V156H27.9297V152.432L37.4922 143.221C38.7812 141.932 39.6602 140.895 40.1289 140.109C40.6094 139.324 40.8496 138.492 40.8496 137.613C40.8496 136.652 40.4688 135.844 39.707 135.188C38.9453 134.531 37.9844 134.203 36.8242 134.203C35.5938 134.203 34.5742 134.59 33.7656 135.363C32.957 136.125 32.5527 137.092 32.5527 138.264V138.352H27.6309V138.264Z" fill="white"/>
<circle cx="37" cy="255" r="35" fill="#F42362"/>
<path d="M33.125 252.926V249.094H36.2012C37.4082 249.094 38.3867 248.766 39.1367 248.109C39.8867 247.453 40.2617 246.604 40.2617 245.561C40.2617 244.518 39.9043 243.691 39.1895 243.082C38.4746 242.461 37.4668 242.15 36.166 242.15C34.9355 242.15 33.9395 242.484 33.1777 243.152C32.416 243.82 32 244.711 31.9297 245.824H27.043C27.1367 243.469 28.0332 241.588 29.7324 240.182C31.4316 238.775 33.6523 238.072 36.3945 238.072C39.043 238.072 41.1816 238.693 42.8105 239.936C44.4512 241.178 45.2715 242.812 45.2715 244.84C45.2715 246.375 44.791 247.676 43.8301 248.742C42.8691 249.809 41.6035 250.482 40.0332 250.764V250.869C41.9434 251.033 43.4551 251.66 44.5684 252.75C45.6934 253.828 46.2559 255.24 46.2559 256.986C46.2559 259.248 45.3242 261.076 43.4609 262.471C41.6094 263.865 39.2129 264.562 36.2715 264.562C33.4238 264.562 31.1211 263.848 29.3633 262.418C27.6172 260.988 26.6797 259.096 26.5508 256.74H31.6309C31.7129 257.818 32.1699 258.68 33.002 259.324C33.8457 259.969 34.959 260.291 36.3418 260.291C37.666 260.291 38.75 259.951 39.5938 259.271C40.4375 258.592 40.8594 257.719 40.8594 256.652C40.8594 255.492 40.4492 254.584 39.6289 253.928C38.8086 253.26 37.6836 252.926 36.2539 252.926H33.125Z" fill="white"/>
<circle cx="35" cy="365" r="35" fill="#FECD4D"/>
<path d="M37.2148 374V369.482H24.5938V364.965C26.6562 361.027 30.0488 355.584 34.7715 348.635H42.2598V365.229H45.5645V369.482H42.2598V374H37.2148ZM29.252 365.246V365.387H37.3203V352.396H37.2148C35.2578 355.256 33.6875 357.641 32.5039 359.551C31.3203 361.449 30.2363 363.348 29.252 365.246Z" fill="black"/>
</svg>
