<svg width="48" height="48" viewBox="0 0 48 48" fill="none" xmlns="http://www.w3.org/2000/svg">
<path d="M29.3416 28.36V31H18.7616V28.9L24.1616 23.8C24.7349 23.2533 25.1216 22.7867 25.3216 22.4C25.5216 22 25.6216 21.6067 25.6216 21.22C25.6216 20.66 25.4282 20.2333 25.0416 19.94C24.6682 19.6333 24.1149 19.48 23.3816 19.48C22.7682 19.48 22.2149 19.6 21.7216 19.84C21.2282 20.0667 20.8149 20.4133 20.4816 20.88L18.1216 19.36C18.6682 18.5467 19.4216 17.9133 20.3816 17.46C21.3416 16.9933 22.4416 16.76 23.6816 16.76C24.7216 16.76 25.6282 16.9333 26.4016 17.28C27.1882 17.6133 27.7949 18.0933 28.2216 18.72C28.6616 19.3333 28.8816 20.06 28.8816 20.9C28.8816 21.66 28.7216 22.3733 28.4016 23.04C28.0816 23.7067 27.4616 24.4667 26.5416 25.32L23.3216 28.36H29.3416Z" fill="#64FCFF" fill-opacity="0.7"/>
<circle cx="24" cy="24" r="23" stroke="#64FCFF" stroke-opacity="0.7" stroke-width="2"/>
</svg>
