<svg width="48" height="48" viewBox="0 0 48 48" fill="none" xmlns="http://www.w3.org/2000/svg">
<path d="M25.402 22.7C26.6287 22.9 27.5687 23.36 28.222 24.08C28.8754 24.7867 29.202 25.6667 29.202 26.72C29.202 27.5333 28.9887 28.2867 28.562 28.98C28.1354 29.66 27.482 30.2067 26.602 30.62C25.7354 31.0333 24.6687 31.24 23.402 31.24C22.4154 31.24 21.442 31.1133 20.482 30.86C19.5354 30.5933 18.7287 30.22 18.062 29.74L19.322 27.26C19.8554 27.66 20.4687 27.9733 21.162 28.2C21.8687 28.4133 22.5887 28.52 23.322 28.52C24.1354 28.52 24.7754 28.3667 25.242 28.06C25.7087 27.74 25.942 27.2933 25.942 26.72C25.942 25.5733 25.0687 25 23.322 25H21.842V22.86L24.722 19.6H18.762V17H28.562V19.1L25.402 22.7Z" fill="#64FCFF" fill-opacity="0.7"/>
<circle cx="24" cy="24" r="23" stroke="#64FCFF" stroke-opacity="0.7" stroke-width="2"/>
</svg>
