<svg width="123" height="22" viewBox="0 0 123 22" fill="none" xmlns="http://www.w3.org/2000/svg">
<path d="M112.237 0L115.401 6.40898L122.473 7.4367L117.355 12.4254L118.564 19.4695L112.237 16.1437L105.911 19.4695L107.12 12.4254L102.002 7.4367L109.074 6.40898L112.237 0Z" fill="#FF3E13"/>
<path d="M86.8687 0L90.0318 6.40898L97.1045 7.4367L91.9866 12.4254L93.1948 19.4695L86.8687 16.1437L80.5427 19.4695L81.7509 12.4254L76.633 7.4367L83.7057 6.40898L86.8687 0Z" fill="#FF3E13"/>
<path d="M61.5 0L64.663 6.40898L71.7357 7.4367L66.6179 12.4254L67.826 19.4695L61.5 16.1437L55.174 19.4695L56.3821 12.4254L51.2643 7.4367L58.337 6.40898L61.5 0Z" fill="#FF3E13"/>
<path d="M36.1312 0L39.2943 6.40898L46.367 7.4367L41.2491 12.4254L42.4573 19.4695L36.1312 16.1437L29.8052 19.4695L31.0134 12.4254L25.8955 7.4367L32.9682 6.40898L36.1312 0Z" fill="#FF3E13"/>
<path d="M10.7625 0L13.9255 6.40898L20.9982 7.4367L15.8804 12.4254L17.0885 19.4695L10.7625 16.1437L4.43646 19.4695L5.64463 12.4254L0.526754 7.4367L7.59948 6.40898L10.7625 0Z" fill="#FF3E13"/>
</svg>
