<svg width="64" height="64" viewBox="0 0 64 64" fill="none" xmlns="http://www.w3.org/2000/svg">
<g clip-path="url(#clip0)">
<path d="M21.385 54.7811C12.7799 54.2942 5.9282 47.1399 5.9282 38.4142C5.9282 29.3745 13.282 22.0201 22.321 22.0201C26.3636 22.0201 30.2454 23.5035 33.2515 26.1969C36.7232 29.3021 38.715 33.7556 38.715 38.4141C38.715 42.3209 37.3135 46.083 34.813 49.0278C36.5864 50.1769 38.6224 50.8633 40.7443 51.0198C43.298 47.3024 44.6432 42.9648 44.6432 38.4141C44.6432 33.5387 43.0997 28.9078 40.1798 25.0222C37.8596 21.9336 34.7717 19.4885 31.2496 17.9509C29.2975 17.097 27.2564 16.5354 25.154 16.2704C29.4036 13.1422 31.0286 10.5203 31.0286 8.23348C31.0286 5.48931 28.804 3.26477 26.0599 3.26477C24.5688 3.26477 23.2322 3.92243 22.3215 4.96244C21.4107 3.92243 20.074 3.26477 18.583 3.26477C15.8389 3.26477 13.6143 5.48931 13.6143 8.23348C13.6143 10.5207 15.2398 13.1429 19.4909 16.2718C8.51446 17.6669 0 27.065 0 38.4142C0 50.722 10.0131 60.7352 22.321 60.7352C24.0226 60.7352 25.6932 60.5464 27.3194 60.1742C25.085 58.6967 23.0783 56.878 21.385 54.7811Z" fill="black"/>
<path d="M41.9654 16.0935C40.2636 16.0935 38.5931 16.2823 36.9668 16.6544C39.2012 18.132 41.208 19.9507 42.9014 22.0476C51.5065 22.5345 58.3581 29.6888 58.3581 38.4143C58.3581 47.454 51.0045 54.8085 41.9655 54.8085C37.923 54.8085 34.0411 53.3251 31.0348 50.6317C27.5631 47.5263 25.5714 43.0728 25.5714 38.4143C25.5714 34.5075 26.9729 30.7453 29.4733 27.8006C27.6999 26.6516 25.6639 25.9652 23.542 25.8086C20.9883 29.526 19.6432 33.8635 19.6432 38.4142C19.6432 43.2898 21.1866 47.9205 24.1067 51.8062C26.4267 54.8949 29.5146 57.34 33.0367 58.8776C35.8554 60.1104 38.859 60.7352 41.9655 60.7352C54.2733 60.7352 64.2863 50.7221 64.2863 38.4142C64.2862 26.1066 54.2731 16.0935 41.9654 16.0935Z" fill="black"/>
</g>
<defs>
<clipPath id="clip0">
<rect width="64" height="64" fill="white"/>
</clipPath>
</defs>
</svg>
