<svg width="480" height="971" viewBox="0 0 480 971" fill="none" xmlns="http://www.w3.org/2000/svg">
<path d="M316.34 113.16C304.81 89.6928 297.274 64.4458 311.05 39.9361C319.551 24.867 327.328 5.98572 344.209 0.950707C358.949 -3.45493 370.148 8.37735 381.12 17.4404C386.471 21.864 391.143 26.4315 397.699 28.2297C415.138 33.1748 418.454 51.6065 424.272 69.5887C450.361 40.1698 481.832 54.6455 511.871 55.7065L509.067 63.6186C536.966 75.379 536.122 107.729 531.6 129.937C526.581 154.95 503.762 169.228 480.701 175.738C491.252 175.738 501.411 172.339 511.705 178.237C531.57 189.656 533.047 194.619 515.428 211.414C507.771 218.715 504.319 225.099 504.546 236.391C504.953 257.089 491.162 265.001 479.692 276.24C466.835 288.828 454.958 286.742 441.65 280.736C437.128 278.668 433.315 274.981 427.618 275.431C426.077 275.373 424.553 275.833 423.221 276.759C421.889 277.684 420.801 279.037 420.081 280.664C410.481 301.99 394.368 301.829 377.97 298.16C362.627 294.726 347.826 290.877 331.789 294.078C318.767 296.668 306.332 289.097 304.011 273.183C302.504 262.717 308.231 250.705 310.929 239.466C311.442 237.327 312.934 235.546 314.125 233.334C278.69 230.008 257.845 210.713 253.414 177.374C248.817 173.634 242.321 172.447 240 164.013C246.451 146.247 251.53 125.873 265.803 114.598C276.188 106.416 289.919 105.733 302.73 109.509C307.252 110.84 311.773 111.865 316.205 113.106C316.197 113.207 316.197 113.31 316.205 113.411L316.34 113.16ZM249.42 169.606H249.269L249.465 169.336C249.586 171.368 250.4 171.763 252.389 170.451L249.42 169.606ZM396.494 137.238C399.614 135.439 398.996 132.562 398.001 129.613C403.713 122.205 412.395 117.403 413.706 106.111C414.46 99.547 412.304 91.9046 414.369 86.3301C421.408 67.1791 419.464 47.3627 404.18 36.987C392.123 28.8231 378.859 22.6013 368.173 11.9738C360.532 4.45724 352.815 5.42827 344.329 4.94275C342.988 14.3115 336.537 19.1307 333.507 26.8271L325.594 25.874C308.186 43.1189 300.092 72.4839 317.878 108.376C326.921 126.538 354.94 140.151 372.665 133.12C364.315 123.535 350.418 124.291 344.344 111.092C353.101 120.227 364.45 122.96 377.669 131.465C363.531 99.2953 331.201 91.1134 323.409 54.142C331.427 71.6926 339.627 83.8486 351.307 93.7028C366.199 106.182 383.14 118.734 379.779 145.599C385.31 150.85 385.31 150.85 388.159 150.167C375.393 143.729 385.144 133.983 385.144 124.578C373.961 104.492 377.97 82.1942 382.688 56.3358C386.034 80.414 373.72 103.593 390.224 122.169C393.751 113.951 392.605 102.802 400.292 92.9836C397.097 103.665 394.79 111.829 394.896 120.442C398.016 124.74 398.016 124.74 398.137 129.901C397.609 132.418 397.097 134.954 396.629 137.489C396.629 137.903 396.72 138.317 396.795 138.712L396.494 137.238ZM505.013 160.812L514.403 149.304C507.997 151.983 505.616 155.346 505.103 160.669H504.787L505.013 160.812ZM376.493 165.811C382.341 163.618 386.576 166.459 389.651 173.004C391.61 165.506 386.636 164.175 384.255 160.992L377.865 161.118L376.478 165.757C374.142 165.901 371.052 165.074 372.65 171.332L376.493 165.811ZM314.893 284.746V284.422V284.638C324.856 292.01 355.874 291.543 359.537 283.954C366.289 293.773 389.425 299.815 399.478 293.557C391.188 296.524 386.787 285.231 380.351 285.806C367.947 286.939 360.396 282.768 359.25 266.404C356.012 271.006 352.581 275.411 348.971 279.603C338.737 290.482 326.74 287.407 314.893 284.746ZM316.988 196.201H317.109C333.372 185.951 348.082 171.026 368.354 172.393C368.279 169.714 368.218 167.376 368.188 166.459C345.309 165.344 330.9 144.88 312.708 134.217C329.363 138.982 340.561 157.144 357.924 160.776C360.004 155.544 361.18 149.502 367.585 146.121C349.68 137.004 332.543 130.027 316.868 118.878C309.967 114.167 302.226 111.479 294.284 111.035C286.341 110.591 278.424 112.404 271.184 116.324C255.524 124.56 250.309 145.294 244.386 164.067C254.258 164.912 259.458 169.462 257.619 182.175C257.092 185.951 259.684 190.986 261.855 194.565C266.858 202.837 272.254 210.749 277.906 218.481C288.02 232.166 306.905 230.763 315.165 216.054C318.3 210.461 322.294 205.39 328.202 205.444C345.113 205.588 357.517 192.982 371.7 184.585L369.771 177.662C361.783 176.349 354.262 175.863 346.695 180.395C336.989 186.239 326.906 191.022 316.988 196.201ZM505.781 58.3498C488.554 64.266 472.11 51.157 453.135 56.6595C430.526 63.1331 413.495 82.3201 418.469 108.412C420.473 119.004 425.417 128.768 425.296 142.776C433.707 124.794 431.732 103.719 444.604 91.2033C438.575 98.2883 438.575 108.646 435.44 117.259C432.305 125.873 433.571 137.04 426.758 144.538C419.614 145.168 415.258 150.221 415.53 157.863C421.001 160.399 423.488 153.224 427.587 152.289C433.119 153.35 432.41 159.032 433.707 162.682C438.967 166.8 443.609 171.799 449.065 174.443C460.867 180.143 494.613 171.674 501.983 155.526C505.555 147.685 511.027 143.154 517.568 146.103C543.055 128.588 521.276 103.989 525.39 87.8766C524.396 69.6606 505.887 75.0733 505.781 58.3858V58.3498ZM404.271 182.427C409.621 196.057 406.502 205.39 405.205 214.975C405.101 216.132 405.215 217.302 405.539 218.401C405.862 219.499 406.387 220.497 407.074 221.322C420.639 233.46 428.703 248.458 424.709 269.101C428.793 270.684 431.868 271.547 434.747 273.021C460.475 286.274 460.61 286.274 480.596 263.832C481.635 262.715 482.849 261.854 484.168 261.297C499.979 254.571 505.932 234.647 497.567 216.845C495.713 212.889 491.885 209.652 493.829 202.945C505.329 205.93 515.533 202.783 523.823 192.785C522.496 188.055 519.467 186.94 516.98 184.908C503.023 173.346 487.198 180.863 472.336 178.795C454.913 176.385 437.475 186.311 420.262 179.586L413.721 185.987C423.337 191.688 430.557 199.762 434.822 216.557C430.165 206.703 425.688 202.171 422.071 197.01C417.956 191.076 411.686 190.933 404.286 182.445L404.271 182.427ZM420.76 273.201C422.915 259.517 425.176 244.429 414.023 235.115C404.045 226.789 399.553 213.536 390.736 202.477C386.486 217.906 391.143 228.839 397.383 239.448C403.834 250.418 405.778 268.22 401.091 275.053C405.235 247.199 377.654 228.21 388.053 199.924C385.31 197.82 384.436 199.222 383.215 200.787C378.121 207.458 372.484 208.159 365.279 204.689C359.552 201.938 353.222 197.136 347.087 206.649C343.244 212.637 337.004 216.881 331.231 220.567C314.652 231.123 309.874 249.464 307.387 269.461C306.95 272.967 309.226 275.539 311.909 277.319C329.393 288.648 342.942 285.213 355.015 266.53C356.251 264.623 358.18 263.329 361.994 259.588C359.386 287.695 378.663 277.948 388.159 285.123C401.799 295.499 411.822 286.724 420.76 273.219V273.201ZM444.544 176.727C440.61 167.646 428.477 168.635 429.471 154.608L420.428 162.79C421.061 167.142 421.649 171.098 422.237 175.18C429.532 177.841 436.585 180.898 444.544 176.745V176.727ZM407.436 132.616C413.751 132.526 414.972 140.439 420.187 142.327L422.553 135.943C420.443 128.75 418.484 122.133 415.967 113.609C412.033 122.6 401.935 123.14 401.769 135.457L407.436 132.616ZM339.566 208.789C326.273 207.368 317.621 212.547 313.748 227.976C323.311 223.628 332.078 217.112 339.566 208.789ZM361.421 198C376.915 203.718 376.915 203.718 382.296 188.217C375.242 191.598 366.365 187.84 361.421 198.089V198ZM377.382 149.448C374.368 153.476 370.555 150.724 366.937 150.598C363.923 153.404 362.069 156.443 364.224 161.604C370.374 159.913 375.724 154.806 382.311 156.335C382.296 152.684 380.578 151.246 377.382 149.538V149.448ZM404.753 183.614L409.471 175.522C401.422 173.867 396.886 186.203 388.837 180.916C388.37 178.777 387.933 176.87 387.435 174.677C382.914 177.14 384.496 180.611 385.401 184.711L404.753 183.614ZM388.671 126.97C387.797 134.163 385.446 140.439 390.977 147.11L396.298 126.88L388.671 126.97ZM401.814 196.201C402.824 192.101 402.568 189.008 400.111 189.116C395.228 189.116 390.344 190.339 382.627 191.472C390.721 197.298 396.343 194.996 401.814 196.201ZM516.558 204.149C510.348 207.242 504.953 210.173 497.703 208.177C499.768 212.313 500.958 214.705 502.42 217.6C506.188 211.414 514.312 213.644 516.558 204.077V204.149ZM409.652 158.259C410.571 153.206 406.336 153.53 405.13 150.491C405.462 147.577 405.838 144.359 406.185 141.266C403.894 139.467 402.161 139.575 400.458 141.949C400.292 146.624 400.458 151.336 402.703 155.382L409.652 158.259ZM387.315 156.587L393.826 164.571C395.861 162.035 397.895 159.931 397.323 155.723C396.81 154.416 395.945 153.352 394.866 152.7C393.787 152.048 392.556 151.846 391.369 152.127L387.315 156.587ZM382.507 170.577C377.232 168.689 376.086 173.076 374.971 176.727C373.855 180.377 374.805 183.65 379.236 185.088C380.382 180.179 381.376 175.612 382.507 170.505V170.577ZM404.663 199.348L395.619 201.596C397.654 205.57 399.342 208.789 401.739 213.536C402.779 208.07 403.638 204.239 404.663 199.33V199.348ZM406.697 169.408C406.351 165.937 406.095 163.564 405.763 160.291L399.237 163.186C400.051 166.567 400.744 169.192 401.498 172.609L406.697 169.408ZM329.483 20.875C335.015 18.3035 338.119 13.5742 337.773 5.82388C335.02 10.8469 332.256 15.8639 329.483 20.875ZM415.771 162.934C414.083 171.116 413.043 176.115 411.611 183.11C417.715 177.356 417.293 171.961 415.771 162.88V162.934ZM393.163 178.525C397.428 176.421 396.614 172.95 396.795 168.742C391.791 170.577 393.027 174.263 393.133 178.471L393.163 178.525ZM410.209 138.658C412.139 141.23 406.863 147.218 413.103 148.836C413.887 143.855 413.54 140.582 410.209 138.658ZM366.259 140.007C368.339 141.895 371.263 147.452 372.288 139.126L366.259 140.007ZM395.966 146.75H396.373L396.237 145.42H395.83L395.966 146.75Z" fill="#F5D4D4"/>
<path d="M435.078 134.612C446.186 119.328 456.692 102.838 480.536 101.507C458.44 106.093 447.859 122.259 435.078 134.612Z" fill="#F5D4D4"/>
<path d="M433.797 149.448L452.11 158.888C443.293 160.237 438.65 154.519 433.797 149.448Z" fill="#F5D4D4"/>
<path d="M275.781 161.082C292.948 164.768 310.055 168.742 327.539 162.79C333.568 160.722 339.807 161.532 345.625 168.886C327.102 159.985 309.452 172.303 292.074 167.088C286.588 165.434 280.499 166.189 275.962 160.992L275.781 161.082Z" fill="#F5D4D4"/>
<path d="M275.887 160.938C270.476 160.74 264.583 162.197 261.342 154.77L261.207 154.878C266.06 156.946 270.913 159.032 275.766 161.082L275.887 160.938Z" fill="#F5D4D4"/>
<path d="M441.966 207.512C449.352 216.215 456.842 224.793 464.092 233.676C469.036 239.736 473.874 245.634 485.344 241.948C472.336 250.094 449.517 229.037 442.057 207.368L441.966 207.512Z" fill="#F5D4D4"/>
<path d="M476.135 203.125C458.048 204.437 443.88 188.091 426.05 188.056C444.619 184.459 458.741 201.218 476.135 203.125Z" fill="#F5D4D4"/>
<path d="M434.083 215.568C437.36 229.537 441.351 243.253 446.036 256.639C437.324 245.077 435.455 230.493 434.083 215.568Z" fill="#F5D4D4"/>
<path d="M371.519 213.392C354.684 217.816 343.485 231.68 332.076 245.203C343.078 231.015 351.639 212.727 371.519 213.392Z" fill="#F5D4D4"/>
<path d="M382.281 230.026C378.317 243.567 383.426 257.323 382.1 271.816C376.387 259.786 376.764 233.946 382.235 230.08L382.281 230.026Z" fill="#F5D4D4"/>
<path d="M40.9538 808.764C30.9924 788.49 24.4816 766.678 36.3832 745.503C43.7274 732.484 50.4464 716.171 65.0305 711.821C77.7655 708.015 87.4405 718.238 96.9201 726.068C101.543 729.889 105.579 733.835 111.244 735.389C126.31 739.661 129.174 755.585 134.201 771.121C156.741 745.705 183.93 758.211 209.881 759.127L207.459 765.963C231.562 776.123 230.833 804.072 226.927 823.258C222.59 844.868 202.876 857.204 182.953 862.828C192.068 862.828 200.845 859.891 209.738 864.987C226.9 874.852 228.177 879.14 212.954 893.65C206.34 899.958 203.358 905.473 203.553 915.229C203.905 933.111 191.99 939.947 182.081 949.656C170.973 960.531 160.712 958.729 149.214 953.54C145.308 951.754 142.013 948.569 137.091 948.957C135.76 948.908 134.444 949.305 133.293 950.104C132.142 950.904 131.202 952.073 130.581 953.478C122.286 971.903 108.366 971.764 94.1986 968.594C80.9427 965.627 68.1557 962.302 54.3008 965.068C43.0502 967.305 32.3075 960.764 30.3022 947.015C29.0001 937.974 33.9482 927.596 36.2791 917.886C36.7218 916.037 38.0109 914.499 39.0396 912.588C8.42613 909.714 -9.58257 893.044 -13.4109 864.241C-17.3824 861.01 -22.9947 859.985 -25 852.698C-19.4268 837.349 -15.0386 819.747 -2.70723 810.007C6.26457 802.938 18.1271 802.347 29.1954 805.61C33.1018 806.76 37.0083 807.645 40.8366 808.717C40.8303 808.805 40.8303 808.893 40.8366 808.981L40.9538 808.764ZM-16.8616 857.53H-16.9918L-16.8225 857.297C-16.7183 859.053 -16.0152 859.394 -14.2963 858.26L-16.8616 857.53ZM110.202 829.566C112.897 828.012 112.364 825.527 111.504 822.979C116.439 816.578 123.94 812.43 125.073 802.674C125.724 797.003 123.862 790.401 125.645 785.585C131.727 769.039 130.047 751.919 116.843 742.955C106.426 735.902 94.9669 730.526 85.7346 721.345C79.1328 714.851 72.4658 715.69 65.1347 715.27C63.9758 723.364 58.4026 727.528 55.7852 734.177L48.949 733.354C33.9092 748.252 26.9166 773.622 42.282 804.631C50.0949 820.322 74.3018 832.083 89.615 826.008C82.4011 817.728 70.3953 818.38 65.1477 806.977C72.7132 814.869 82.5183 817.231 93.9382 824.579C81.724 796.786 53.793 789.717 47.0609 757.776C53.9883 772.939 61.072 783.441 71.1636 791.954C84.0288 802.736 98.665 813.58 95.7612 836.79C100.54 841.326 100.54 841.326 103.001 840.736C91.9719 835.174 100.397 826.754 100.397 818.629C90.7349 801.276 94.1986 782.011 98.2743 759.671C101.165 780.473 90.5265 800.499 104.785 816.547C107.832 809.447 106.842 799.815 113.483 791.333C110.723 800.561 108.731 807.614 108.822 815.056C111.517 818.769 111.517 818.769 111.621 823.227C111.166 825.402 110.723 827.593 110.319 829.783C110.319 830.141 110.397 830.498 110.462 830.84L110.202 829.566ZM203.957 849.933L212.069 839.99C206.535 842.305 204.477 845.21 204.035 849.809H203.761L203.957 849.933ZM92.9225 854.252C97.9748 852.357 101.634 854.811 104.29 860.466C105.983 853.988 101.686 852.838 99.6286 850.088L94.1075 850.197L92.9095 854.205C90.8912 854.33 88.2217 853.615 89.602 859.021L92.9225 854.252ZM39.7037 957.005V956.725V956.911C48.3109 963.281 75.1091 962.877 78.2733 956.321C84.107 964.804 104.095 970.024 112.78 964.617C105.618 967.181 101.816 957.424 96.256 957.921C85.5393 958.9 79.0156 955.296 78.0259 941.158C75.2279 945.135 72.2639 948.941 69.1453 952.561C60.3037 961.961 49.9386 959.304 39.7037 957.005ZM41.5137 880.507H41.6179C55.6681 871.652 68.377 858.757 85.8909 859.938C85.8258 857.623 85.7737 855.604 85.7477 854.811C65.9811 853.848 53.5325 836.169 37.8156 826.956C52.2043 831.073 61.8793 846.764 76.88 849.902C78.677 845.381 79.6927 840.161 85.2268 837.24C69.7573 829.364 54.9519 823.336 41.4095 813.704C35.4473 809.634 28.76 807.311 21.8983 806.928C15.0365 806.544 8.19654 808.111 1.94144 811.498C-11.5879 818.613 -16.0933 836.526 -21.2107 852.745C-12.6817 853.475 -8.18927 857.406 -9.77789 868.389C-10.2336 871.652 -7.99395 876.002 -6.11886 879.093C-1.79573 886.24 2.86596 893.076 7.74902 899.756C16.4864 911.578 32.8023 910.367 39.9381 897.659C42.6466 892.827 46.0973 888.446 51.2017 888.493C65.8118 888.617 76.5285 877.726 88.7817 870.471L87.1149 864.49C80.2135 863.356 73.7158 862.936 67.179 866.851C58.7932 871.9 50.0818 876.033 41.5137 880.507ZM204.621 761.411C189.737 766.522 175.531 755.197 159.137 759.951C139.605 765.544 124.89 782.12 129.187 804.662C130.919 813.813 135.19 822.249 135.086 834.351C142.352 818.815 140.646 800.607 151.767 789.795C146.558 795.916 146.558 804.864 143.85 812.306C141.141 819.747 142.235 829.395 136.349 835.873C130.177 836.417 126.414 840.783 126.648 847.385C131.375 849.576 133.523 843.377 137.065 842.569C141.844 843.486 141.232 848.395 142.352 851.549C146.897 855.106 150.907 859.425 155.621 861.709C165.817 866.634 194.972 859.317 201.339 845.366C204.425 838.592 209.152 834.677 214.804 837.225C236.823 822.093 218.007 800.841 221.562 786.921C220.702 771.183 204.712 775.859 204.621 761.442V761.411ZM116.921 868.607C121.544 880.383 118.848 888.446 117.728 896.726C117.639 897.726 117.737 898.737 118.016 899.686C118.296 900.635 118.749 901.497 119.343 902.211C131.062 912.697 138.029 925.654 134.578 943.489C138.107 944.856 140.763 945.602 143.251 946.875C165.478 958.325 165.595 958.325 182.862 938.937C183.76 937.972 184.809 937.227 185.948 936.746C199.607 930.936 204.751 913.722 197.524 898.342C195.922 894.924 192.615 892.128 194.295 886.333C204.23 888.912 213.046 886.193 220.207 877.555C219.062 873.47 216.444 872.506 214.296 870.751C202.238 860.761 188.565 867.255 175.726 865.469C160.673 863.387 145.607 871.963 130.737 866.152L125.086 871.683C133.393 876.608 139.631 883.583 143.316 898.094C139.292 889.58 135.425 885.665 132.299 881.206C128.745 876.08 123.328 875.955 116.934 868.622L116.921 868.607ZM131.167 947.031C133.029 935.208 134.982 922.174 125.346 914.126C116.726 906.933 112.845 895.484 105.228 885.929C101.556 899.259 105.579 908.704 110.97 917.87C116.543 927.347 118.223 942.727 114.174 948.631C117.754 924.566 93.9252 908.161 102.91 883.723C100.54 881.905 99.7848 883.117 98.7301 884.469C94.3288 890.233 89.4588 890.838 83.2345 887.84C78.2864 885.463 72.8173 881.315 67.5176 889.533C64.1971 894.707 58.8062 898.373 53.819 901.558C39.4954 910.677 35.3676 926.524 33.219 943.799C32.8414 946.829 34.8076 949.05 37.1255 950.588C52.2304 960.376 63.9367 957.409 74.3669 941.267C75.4347 939.62 77.1014 938.502 80.3958 935.27C78.1431 959.553 94.7976 951.132 103.001 957.331C114.786 966.295 123.445 958.714 131.167 947.046V947.031ZM151.714 863.682C148.316 855.837 137.834 856.691 138.693 844.573L130.88 851.642C131.427 855.402 131.935 858.819 132.443 862.346C138.745 864.645 144.839 867.286 151.714 863.698V863.682ZM119.656 825.573C125.112 825.496 126.166 832.331 130.672 833.962L132.716 828.447C130.893 822.233 129.2 816.516 127.026 809.152C123.627 816.92 114.903 817.386 114.76 828.028L119.656 825.573ZM61.0199 891.382C49.5349 890.155 42.0606 894.629 38.7141 907.959C46.9762 904.202 54.5507 898.573 61.0199 891.382ZM79.901 882.061C93.2871 887.001 93.2871 887.001 97.9358 873.609C91.8417 876.53 84.1721 873.283 79.901 882.138V882.061ZM93.6908 840.115C91.0865 843.595 87.792 841.218 84.6669 841.109C82.0626 843.532 80.4609 846.158 82.323 850.617C87.6358 849.156 92.2584 844.744 97.9488 846.065C97.9358 842.911 96.4513 841.668 93.6908 840.192V840.115ZM117.338 869.632L121.413 862.641C114.46 861.212 110.541 871.869 103.587 867.302C103.183 865.453 102.806 863.806 102.376 861.911C98.4697 864.039 99.8369 867.038 100.618 870.58L117.338 869.632ZM103.444 820.695C102.689 826.909 100.657 832.331 105.436 838.095L110.033 820.617L103.444 820.695ZM114.799 880.507C115.671 876.965 115.45 874.293 113.327 874.386C109.108 874.386 104.889 875.443 98.2222 876.421C105.215 881.455 110.072 879.466 114.799 880.507ZM213.931 887.374C208.566 890.046 203.905 892.578 197.641 890.854C199.425 894.427 200.454 896.493 201.717 898.995C204.972 893.65 211.991 895.577 213.931 887.312V887.374ZM121.57 847.727C122.364 843.362 118.705 843.641 117.663 841.016C117.95 838.499 118.275 835.718 118.575 833.046C116.596 831.492 115.098 831.586 113.627 833.636C113.483 837.676 113.627 841.746 115.567 845.241L121.57 847.727ZM102.272 846.282L107.897 853.18C109.655 850.99 111.413 849.172 110.918 845.537C110.475 844.407 109.728 843.488 108.796 842.924C107.863 842.361 106.8 842.187 105.775 842.429L102.272 846.282ZM98.1181 858.369C93.5606 856.738 92.5709 860.528 91.6073 863.682C90.6437 866.836 91.4641 869.663 95.2924 870.906C96.282 866.665 97.1415 862.719 98.1181 858.307V858.369ZM117.26 883.226L109.447 885.168C111.205 888.601 112.663 891.382 114.733 895.484C115.632 890.761 116.374 887.452 117.26 883.21V883.226ZM119.018 857.359C118.718 854.361 118.497 852.31 118.21 849.483L112.572 851.984C113.275 854.905 113.874 857.173 114.525 860.124L119.018 857.359ZM52.3085 729.035C57.0874 726.813 59.7698 722.727 59.4703 716.032C57.0917 720.371 54.7045 724.706 52.3085 729.035ZM126.856 851.766C125.398 858.835 124.5 863.154 123.263 869.197C128.536 864.226 128.172 859.565 126.856 851.72V851.766ZM107.324 865.236C111.009 863.418 110.306 860.42 110.462 856.784C106.139 858.369 107.207 861.554 107.298 865.189L107.324 865.236ZM122.052 830.793C123.718 833.015 119.161 838.188 124.552 839.586C125.229 835.283 124.929 832.456 122.052 830.793ZM84.0809 831.958C85.8779 833.59 88.404 838.39 89.2895 831.197L84.0809 831.958ZM109.746 837.784H110.098L109.981 836.635H109.629L109.746 837.784Z" fill="#F5D4D4"/>
<path d="M143.537 827.298C153.134 814.092 162.21 799.846 182.81 798.697C163.72 802.658 154.579 816.625 143.537 827.298Z" fill="#F5D4D4"/>
<path d="M142.43 840.115L158.251 848.271C150.634 849.436 146.623 844.496 142.43 840.115Z" fill="#F5D4D4"/>
<path d="M5.91296 850.166C20.7444 853.351 35.5238 856.784 50.6287 851.642C55.8373 849.855 61.2282 850.555 66.2545 856.909C50.2511 849.219 35.0029 859.86 19.9892 855.355C15.2494 853.926 9.98869 854.578 6.06922 850.089L5.91296 850.166Z" fill="#F5D4D4"/>
<path d="M6.00422 850.042C1.3295 849.871 -3.7619 851.129 -6.56152 844.713L-6.67871 844.806C-2.48579 846.593 1.70712 848.395 5.90004 850.166L6.00422 850.042Z" fill="#F5D4D4"/>
<path d="M149.488 890.279C155.868 897.798 162.34 905.209 168.603 912.883C172.874 918.119 177.054 923.215 186.964 920.03C175.726 927.068 156.012 908.875 149.566 890.155L149.488 890.279Z" fill="#F5D4D4"/>
<path d="M179.008 886.489C163.382 887.623 151.142 873.501 135.737 873.47C151.78 870.363 163.981 884.842 179.008 886.489Z" fill="#F5D4D4"/>
<path d="M142.677 897.239C145.508 909.308 148.957 921.158 153.004 932.723C145.477 922.733 143.862 910.134 142.677 897.239Z" fill="#F5D4D4"/>
<path d="M88.6255 895.359C74.0806 899.181 64.4056 911.159 54.5483 922.842C64.054 910.584 71.4502 894.785 88.6255 895.359Z" fill="#F5D4D4"/>
<path d="M97.9226 909.73C94.498 921.428 98.9123 933.313 97.7664 945.835C92.8312 935.441 93.1568 913.117 97.8836 909.777L97.9226 909.73Z" fill="#F5D4D4"/>
</svg>
