<svg width="22" height="21" viewBox="0 0 22 21" fill="none" xmlns="http://www.w3.org/2000/svg">
<path d="M3.57365 6.70557H0.714746C0.321713 6.70557 0 7.02565 0 7.42027V20.2854C0 20.6798 0.320302 21 0.714746 21H3.57365C3.96809 21 4.28839 20.6798 4.28839 20.2854V7.42027C4.28839 7.02565 3.96664 6.70557 3.57365 6.70557Z" fill="#2036FF"/>
<path d="M20.1077 6.70545C19.9926 6.68595 14.6031 6.70545 14.6031 6.70545L15.3559 4.65169C15.8753 3.23323 15.539 1.0674 14.0978 0.297406C13.6285 0.0466717 12.9729 -0.0792513 12.4442 0.0538123C12.1411 0.130093 11.8747 0.3308 11.7158 0.599706C11.5332 0.908976 11.5521 1.26998 11.487 1.6129C11.3221 2.48269 10.9111 3.30968 10.2747 3.9304C9.16502 5.01265 5.7179 8.13486 5.7179 8.13486V19.5705H17.63C19.2374 19.5715 20.2908 17.7765 19.498 16.3744C20.443 15.7692 20.7662 14.4943 20.2128 13.5155C21.1578 12.9103 21.481 11.6354 20.9275 10.6566C22.558 9.61232 22.0129 7.02768 20.1077 6.70545Z" fill="#2036FF"/>
</svg>
