<svg width="67" height="65" viewBox="0 0 67 65" fill="none" xmlns="http://www.w3.org/2000/svg">
<path d="M1.6 23.4089C0.915015 23.4089 0.359955 23.9643 0.359955 24.6493C0.359955 25.3342 0.915305 25.8893 1.6 25.8893C2.28469 25.8893 2.84033 25.334 2.84033 24.6493C2.84033 23.9646 2.28498 23.4089 1.6 23.4089Z" fill="white"/>
<path d="M7.10855 4.66002C7.74974 4.66002 8.26855 4.14063 8.26855 3.50002V1.18002C8.26855 0.539409 7.74974 0.0200195 7.10855 0.0200195C6.46736 0.0200195 5.94855 0.539409 5.94855 1.18002V3.50002C5.94855 4.14063 6.46736 4.66002 7.10855 4.66002Z" fill="white"/>
<path d="M8.26855 10.46V8.13998C8.26855 7.49937 7.74974 6.97998 7.10855 6.97998C6.46736 6.97998 5.94855 7.49937 5.94855 8.13998V10.46C5.94855 11.1006 6.46736 11.62 7.10855 11.62C7.74974 11.62 8.26855 11.1006 8.26855 10.46Z" fill="white"/>
<path d="M4.78853 4.66016H2.46853C1.82734 4.66016 1.30853 5.17955 1.30853 5.82016C1.30853 6.46077 1.82734 6.98016 2.46853 6.98016H4.78853C5.42972 6.98016 5.94853 6.46077 5.94853 5.82016C5.94853 5.17955 5.42943 4.66016 4.78853 4.66016Z" fill="white"/>
<path d="M9.42856 6.98016H11.7486C12.3897 6.98016 12.9086 6.46077 12.9086 5.82016C12.9086 5.17955 12.3897 4.66016 11.7486 4.66016H9.42856C8.78737 4.66016 8.26855 5.17955 8.26855 5.82016C8.26855 6.46077 8.78737 6.98016 9.42856 6.98016Z" fill="white"/>
<path d="M58.7285 51.0601C56.49 51.0601 54.6685 52.8815 54.6685 55.1201C54.6685 57.3586 56.49 59.18 58.7285 59.18C60.967 59.18 62.7885 57.3586 62.7885 55.1201C62.7885 52.8815 60.9668 51.0601 58.7285 51.0601ZM58.7285 56.8601C57.7689 56.8601 56.9885 56.0797 56.9885 55.1201C56.9885 54.1604 57.7689 53.3801 58.7285 53.3801C59.6882 53.3801 60.4685 54.1604 60.4685 55.1201C60.4685 56.0797 59.6879 56.8601 58.7285 56.8601Z" fill="white"/>
<path d="M65.4 36.1687C64.715 36.1687 64.1599 36.724 64.1599 37.409C64.1599 38.094 64.7153 38.6491 65.4 38.6491C66.0847 38.6491 66.6403 38.0937 66.6403 37.409C66.6403 36.7243 66.085 36.1687 65.4 36.1687Z" fill="white"/>
<path d="M56.8073 24.2012C56.0788 17.1159 50.4215 11.3455 43.3528 10.4807C39.3957 9.99352 35.4514 11.0233 32.2614 13.3755C32.1448 13.4634 31.9761 13.4639 31.8569 13.3761C28.6657 11.0227 24.7214 9.99642 20.7655 10.4807C13.6968 11.3455 8.03946 17.1162 7.31098 24.2012C6.87366 28.4607 8.14357 32.5909 10.8884 35.8316C11.8944 37.0172 12.6351 38.2462 13.093 39.4856C14.193 42.461 14.8034 44.9072 14.8139 46.3737C14.8591 53.0527 15.6317 58.2823 17.1089 61.916C17.8655 63.7778 19.6928 64.9801 21.7637 64.9801C24.5561 64.9801 26.8286 62.7083 26.8286 59.9153V47.0001C26.8286 44.1216 29.17 41.7801 32.0486 41.7801C34.9271 41.7801 37.2686 44.1216 37.2686 47.0001V59.9022C37.2686 62.7019 39.5465 64.9801 42.347 64.9801C44.4223 64.9801 46.2542 63.7743 47.0131 61.9079C48.4881 58.2756 49.2595 53.0492 49.3047 46.3737C49.3105 45.578 49.486 44.5137 49.8293 43.2104C50.5329 40.5233 51.9023 37.7802 54.0152 34.823C56.2044 31.7574 57.1956 27.9854 56.8073 24.2012ZM52.1276 33.4742C49.8473 36.6648 48.3611 39.657 47.585 42.6217C47.1929 44.1114 46.9914 45.3683 46.9847 46.3578C46.9427 52.6482 46.2087 57.7232 44.8631 61.0344C44.4678 62.0065 43.4572 62.6598 42.347 62.6598C40.8257 62.6598 39.5886 61.4227 39.5886 59.9019V47.0001C39.5886 42.8427 36.206 39.4601 32.0486 39.4601C27.8911 39.4601 24.5086 42.8427 24.5086 47.0001V59.9153C24.5086 61.4288 23.2772 62.6601 21.7637 62.6601C20.6591 62.6601 19.6522 62.0099 19.259 61.0419C17.9111 57.7295 17.1756 52.6516 17.1339 46.3578C17.1191 44.1419 16.1122 40.9606 15.2703 38.6812C14.7176 37.1877 13.8395 35.7241 12.658 34.3312C10.3255 31.5773 9.24702 28.064 9.61967 24.4378C10.2371 18.4198 15.0435 13.5182 21.0463 12.7833C24.421 12.3715 27.7708 13.2433 30.4791 15.2431C31.4103 15.9289 32.7074 15.926 33.6386 15.2425C36.3484 13.2435 39.6924 12.3721 43.0715 12.7833C49.0742 13.5179 53.8806 18.4198 54.498 24.4381C54.8304 27.6603 53.9876 30.8695 52.1276 33.4742Z" fill="white"/>
<path d="M40.8176 23.22L36.1085 23.2896V18.5104C36.1085 17.2695 35.0993 16.26 33.8576 16.26H30.2392C28.9977 16.26 27.9883 17.2692 27.9883 18.5104L28.0573 23.22H23.2789C22.0374 23.22 21.028 24.2292 21.028 25.4704V29.0896C21.028 30.3305 22.0372 31.34 23.2789 31.34L27.988 31.2704V36.0496C27.988 37.2905 28.9972 38.3 30.2389 38.3H33.8573C35.0988 38.3 36.1083 37.2908 36.1083 36.0496L36.0392 31.34H40.8176C42.0591 31.34 43.0685 30.3308 43.0685 29.0896V25.4704C43.0685 24.2292 42.0591 23.22 40.8176 23.22ZM36.0392 29.02C34.7977 29.02 33.7883 30.0292 33.7883 31.2704L33.8573 35.98L30.3083 36.0496V31.2704C30.3083 30.0295 29.299 29.02 28.0573 29.02L23.3482 29.0896L23.2792 25.54H28.0576C29.2991 25.54 30.3085 24.5308 30.3085 23.2896L30.2392 18.58L33.7883 18.5104V23.2896C33.7883 24.5305 34.7975 25.54 36.0392 25.54H40.7494L40.8173 29.02H36.0392Z" fill="white"/>
<path d="M32.6285 9.30002C33.2697 9.30002 33.7885 8.78063 33.7885 8.14002V1.18002C33.7885 0.53941 33.2697 0.0200195 32.6285 0.0200195C31.9873 0.0200195 31.4685 0.53941 31.4685 1.18002V8.14002C31.4685 8.78063 31.9873 9.30002 32.6285 9.30002Z" fill="white"/>
<path d="M37.2686 8.14003C37.5652 8.14003 37.8622 8.02664 38.0887 7.80015L42.7287 3.16015C43.1817 2.70717 43.1817 1.97289 42.7287 1.51991C42.2757 1.06693 41.5414 1.06693 41.0884 1.51991L36.4484 6.15991C35.9955 6.61289 35.9955 7.34717 36.4484 7.80015C36.6749 8.02664 36.9716 8.14003 37.2686 8.14003Z" fill="white"/>
<path d="M27.1682 7.80015C27.3946 8.02664 27.6916 8.14003 27.9883 8.14003C28.2849 8.14003 28.5819 8.02664 28.8084 7.80015C29.2614 7.34717 29.2614 6.61289 28.8084 6.15991L24.1684 1.51991C23.7154 1.06693 22.9811 1.06693 22.5282 1.51991C22.0752 1.97289 22.0752 2.70717 22.5282 3.16015L27.1682 7.80015Z" fill="white"/>
</svg>
