<svg width="275" height="53" viewBox="0 0 275 53" fill="none" xmlns="http://www.w3.org/2000/svg">
<path d="M54.0693 30V29.3408L56.3252 29.1943V9.90234L54.0693 9.75586V9.09668H68.498L68.6445 15.0586H68.0293C67.9121 14.3945 67.7852 13.833 67.6484 13.374C67.5215 12.9053 67.3359 12.4365 67.0918 11.9678C66.8477 11.499 66.5596 11.1279 66.2275 10.8545C65.9053 10.5713 65.4854 10.3418 64.9678 10.166C64.46 9.99023 63.8691 9.90234 63.1953 9.90234C62.3652 9.90234 61.3252 9.95117 60.0752 10.0488V18.75C60.3682 18.7793 60.9004 18.7939 61.6719 18.7939C62.6973 18.7939 63.4297 18.5449 63.8691 18.0469C64.3086 17.5391 64.5283 16.6211 64.5283 15.293H65.334V23.1592H64.5283C64.5283 21.8311 64.3037 20.9082 63.8545 20.3906C63.415 19.8633 62.6875 19.5996 61.6719 19.5996C60.9199 19.5996 60.3877 19.6143 60.0752 19.6436V29.0479C61.3252 29.1455 62.5654 29.1943 63.7959 29.1943C64.3721 29.1943 64.8799 29.1504 65.3193 29.0625C65.7588 28.9648 66.1396 28.8086 66.4619 28.5938C66.7842 28.3789 67.0576 28.1396 67.2822 27.876C67.5068 27.6025 67.7021 27.2559 67.8682 26.8359C68.0439 26.416 68.1855 25.9961 68.293 25.5762C68.4004 25.1562 68.5127 24.6387 68.6299 24.0234H69.2598L69.0986 30H54.0693ZM70.5635 9.75586V9.09668H78.7666V9.75586L76.5693 9.90234L81.1689 17.373H81.1982L85.6953 9.90234L83.8057 9.75586V9.09668H88.6543V9.75586L86.7354 9.90234L81.7402 18.252L88.5371 29.1943L90.793 29.3408V30H81.6377V29.3408L84.1865 29.1943L79.4404 21.4014H79.4111L74.7383 29.1943L76.9355 29.3408V30H71.7354V29.3408L73.6543 29.1943L78.8691 20.5225L72.3652 9.90234L70.5635 9.75586ZM91.5107 30V29.3408L93.7666 29.1943V9.90234L91.5107 9.75586V9.09668H99.4648C100.539 9.09668 101.53 9.21387 102.438 9.44824C103.356 9.67285 104.182 10.0195 104.914 10.4883C105.646 10.9473 106.218 11.5674 106.628 12.3486C107.048 13.1201 107.258 14.0137 107.258 15.0293C107.258 15.9668 107.097 16.8115 106.774 17.5635C106.462 18.3154 106.037 18.9453 105.5 19.4531C104.963 19.9609 104.313 20.3857 103.552 20.7275C102.8 21.0596 101.999 21.3037 101.149 21.46C100.31 21.6064 99.416 21.6797 98.4688 21.6797C98.2637 21.6797 97.9463 21.6699 97.5166 21.6504V29.1943L99.7725 29.3408V30H91.5107ZM97.5166 20.8154C97.8584 20.8447 98.2051 20.8594 98.5566 20.8594C101.76 20.8594 103.361 18.9062 103.361 15C103.361 14.0527 103.254 13.2471 103.039 12.583C102.824 11.9092 102.512 11.3916 102.102 11.0303C101.701 10.6592 101.252 10.3955 100.754 10.2393C100.266 10.0732 99.7041 9.99023 99.0693 9.99023C98.5908 9.99023 98.0732 10.0293 97.5166 10.1074V20.8154ZM109.03 30V29.3408L111.286 29.1943V9.90234L109.03 9.75586V9.09668H116.838C117.922 9.09668 118.898 9.18945 119.768 9.375C120.646 9.56055 121.428 9.85352 122.111 10.2539C122.805 10.6543 123.337 11.1963 123.708 11.8799C124.089 12.5537 124.279 13.3545 124.279 14.2822C124.279 15.9521 123.718 17.2559 122.595 18.1934C121.472 19.1211 119.953 19.7217 118.039 19.9951V20.0244C118.859 20.0342 119.567 20.166 120.163 20.4199C120.769 20.6738 121.247 21.001 121.599 21.4014C121.96 21.792 122.302 22.2998 122.624 22.9248C122.839 23.3545 123.142 24.0137 123.532 24.9023C123.933 25.7812 124.328 26.5625 124.719 27.2461C125.031 27.8027 125.358 28.2324 125.7 28.5352C126.042 28.8379 126.33 29.0234 126.564 29.0918C126.799 29.1602 127.067 29.1943 127.37 29.1943V30H124.938C124.196 30 123.61 29.9561 123.181 29.8682C122.751 29.7705 122.321 29.5459 121.892 29.1943C121.472 28.8428 121.096 28.3594 120.764 27.7441C120.432 27.1191 119.865 25.8203 119.064 23.8477C118.947 23.5547 118.776 23.1787 118.552 22.7197C118.337 22.251 118.146 21.8994 117.98 21.665C117.824 21.4209 117.634 21.167 117.409 20.9033C117.194 20.6396 116.97 20.4541 116.735 20.3467C116.511 20.2295 116.271 20.1709 116.018 20.1709C115.588 20.1709 115.261 20.1758 115.036 20.1855V29.1943L117.292 29.3408V30H109.03ZM115.036 19.3506C115.144 19.3604 115.344 19.3652 115.637 19.3652C117.375 19.3652 118.596 18.9453 119.299 18.1055C120.012 17.2559 120.368 15.9912 120.368 14.3115C120.368 13.4717 120.266 12.7588 120.061 12.1729C119.865 11.5869 119.582 11.1328 119.211 10.8105C118.84 10.4883 118.43 10.2588 117.98 10.1221C117.531 9.98535 117.019 9.91699 116.442 9.91699C116.062 9.91699 115.593 9.95605 115.036 10.0342V19.3506ZM127.927 30V29.3408L130.183 29.1943V9.90234L127.927 9.75586V9.09668H142.355L142.502 15.0586H141.887C141.77 14.3945 141.643 13.833 141.506 13.374C141.379 12.9053 141.193 12.4365 140.949 11.9678C140.705 11.499 140.417 11.1279 140.085 10.8545C139.763 10.5713 139.343 10.3418 138.825 10.166C138.317 9.99023 137.727 9.90234 137.053 9.90234C136.223 9.90234 135.183 9.95117 133.933 10.0488V18.75C134.226 18.7793 134.758 18.7939 135.529 18.7939C136.555 18.7939 137.287 18.5449 137.727 18.0469C138.166 17.5391 138.386 16.6211 138.386 15.293H139.191V23.1592H138.386C138.386 21.8311 138.161 20.9082 137.712 20.3906C137.272 19.8633 136.545 19.5996 135.529 19.5996C134.777 19.5996 134.245 19.6143 133.933 19.6436V29.0479C135.183 29.1455 136.423 29.1943 137.653 29.1943C138.229 29.1943 138.737 29.1504 139.177 29.0625C139.616 28.9648 139.997 28.8086 140.319 28.5938C140.642 28.3789 140.915 28.1396 141.14 27.876C141.364 27.6025 141.56 27.2559 141.726 26.8359C141.901 26.416 142.043 25.9961 142.15 25.5762C142.258 25.1562 142.37 24.6387 142.487 24.0234H143.117L142.956 30H127.927ZM153.005 9.38965C152.302 9.38965 151.682 9.47266 151.145 9.63867C150.617 9.80469 150.173 10.0391 149.812 10.3418C149.45 10.6445 149.177 11.0107 148.991 11.4404C148.815 11.8604 148.728 12.3242 148.728 12.832C148.728 13.1934 148.776 13.5498 148.874 13.9014C148.972 14.2529 149.182 14.6143 149.504 14.9854C149.826 15.3467 150.29 15.7227 150.896 16.1133C151.511 16.5039 152.336 16.9238 153.371 17.373C154.562 17.9199 155.568 18.4326 156.389 18.9111C157.219 19.3896 157.893 19.8975 158.41 20.4346C158.928 20.9717 159.299 21.5771 159.523 22.251C159.758 22.915 159.875 23.7109 159.875 24.6387C159.875 25.3418 159.733 26.0449 159.45 26.748C159.167 27.4512 158.737 28.0811 158.161 28.6377C157.595 29.1943 156.877 29.6484 156.008 30C155.148 30.3418 154.138 30.5127 152.976 30.5127C151.687 30.5127 150.603 30.3906 149.724 30.1465C148.845 29.9121 148.137 29.6045 147.6 29.2236C147.072 28.8428 146.691 28.4131 146.457 27.9346C146.223 27.4463 146.105 26.958 146.105 26.4697C146.105 26.1475 146.154 25.8496 146.252 25.5762C146.35 25.293 146.491 25.0488 146.677 24.8438C146.872 24.6289 147.106 24.4629 147.38 24.3457C147.663 24.2188 147.98 24.1553 148.332 24.1553C148.654 24.1553 148.947 24.2139 149.211 24.3311C149.475 24.4385 149.694 24.5898 149.87 24.7852C150.056 24.9707 150.197 25.1953 150.295 25.459C150.402 25.7129 150.456 25.9912 150.456 26.2939C150.456 26.9873 150.256 27.5098 149.855 27.8613C149.455 28.2129 148.938 28.3887 148.303 28.3887V28.4473C148.371 28.5254 148.503 28.6328 148.698 28.7695C148.903 28.9062 149.182 29.043 149.533 29.1797C149.895 29.3164 150.334 29.4385 150.852 29.5459C151.379 29.6436 151.999 29.6924 152.712 29.6924C153.298 29.6924 153.879 29.6143 154.455 29.458C155.041 29.3018 155.559 29.0771 156.008 28.7842C156.467 28.4912 156.838 28.1348 157.121 27.7148C157.404 27.2949 157.546 26.8213 157.546 26.2939C157.546 25.8447 157.463 25.4248 157.297 25.0342C157.131 24.6436 156.818 24.248 156.359 23.8477C155.9 23.4375 155.261 23.0029 154.44 22.5439C153.63 22.0752 152.57 21.5479 151.262 20.9619C150.295 20.5518 149.499 20.1025 148.874 19.6143C148.259 19.1162 147.771 18.5938 147.409 18.0469C147.058 17.4902 146.813 16.9141 146.677 16.3184C146.54 15.7129 146.472 15.0928 146.472 14.458C146.472 13.6572 146.618 12.9004 146.911 12.1875C147.204 11.4746 147.629 10.8545 148.186 10.3271C148.742 9.79004 149.426 9.36523 150.236 9.05273C151.057 8.74023 151.989 8.58398 153.034 8.58398C154.04 8.58398 154.914 8.70117 155.656 8.93555C156.408 9.16992 157.028 9.48242 157.517 9.87305C158.005 10.2539 158.371 10.7031 158.615 11.2207C158.859 11.7285 158.981 12.2607 158.981 12.8174C158.981 13.1104 158.933 13.3936 158.835 13.667C158.737 13.9307 158.596 14.165 158.41 14.3701C158.225 14.5654 157.995 14.7266 157.722 14.8535C157.448 14.9707 157.136 15.0293 156.784 15.0293C156.462 15.0293 156.169 14.9756 155.905 14.8682C155.642 14.7607 155.412 14.6143 155.217 14.4287C155.031 14.2432 154.885 14.0234 154.777 13.7695C154.68 13.5156 154.631 13.2373 154.631 12.9346C154.631 12.5928 154.689 12.29 154.807 12.0264C154.924 11.7529 155.08 11.5283 155.275 11.3525C155.48 11.167 155.72 11.0303 155.993 10.9424C156.267 10.8447 156.56 10.7959 156.872 10.7959V10.7373C156.813 10.6689 156.696 10.5615 156.521 10.415C156.345 10.2588 156.101 10.1074 155.788 9.96094C155.476 9.80469 155.09 9.67285 154.631 9.56543C154.172 9.44824 153.63 9.38965 153.005 9.38965ZM169.411 9.38965C168.708 9.38965 168.088 9.47266 167.551 9.63867C167.023 9.80469 166.579 10.0391 166.218 10.3418C165.856 10.6445 165.583 11.0107 165.397 11.4404C165.222 11.8604 165.134 12.3242 165.134 12.832C165.134 13.1934 165.183 13.5498 165.28 13.9014C165.378 14.2529 165.588 14.6143 165.91 14.9854C166.232 15.3467 166.696 15.7227 167.302 16.1133C167.917 16.5039 168.742 16.9238 169.777 17.373C170.969 17.9199 171.975 18.4326 172.795 18.9111C173.625 19.3896 174.299 19.8975 174.816 20.4346C175.334 20.9717 175.705 21.5771 175.93 22.251C176.164 22.915 176.281 23.7109 176.281 24.6387C176.281 25.3418 176.14 26.0449 175.856 26.748C175.573 27.4512 175.144 28.0811 174.567 28.6377C174.001 29.1943 173.283 29.6484 172.414 30C171.555 30.3418 170.544 30.5127 169.382 30.5127C168.093 30.5127 167.009 30.3906 166.13 30.1465C165.251 29.9121 164.543 29.6045 164.006 29.2236C163.479 28.8428 163.098 28.4131 162.863 27.9346C162.629 27.4463 162.512 26.958 162.512 26.4697C162.512 26.1475 162.561 25.8496 162.658 25.5762C162.756 25.293 162.897 25.0488 163.083 24.8438C163.278 24.6289 163.513 24.4629 163.786 24.3457C164.069 24.2188 164.387 24.1553 164.738 24.1553C165.061 24.1553 165.354 24.2139 165.617 24.3311C165.881 24.4385 166.101 24.5898 166.276 24.7852C166.462 24.9707 166.604 25.1953 166.701 25.459C166.809 25.7129 166.862 25.9912 166.862 26.2939C166.862 26.9873 166.662 27.5098 166.262 27.8613C165.861 28.2129 165.344 28.3887 164.709 28.3887V28.4473C164.777 28.5254 164.909 28.6328 165.104 28.7695C165.31 28.9062 165.588 29.043 165.939 29.1797C166.301 29.3164 166.74 29.4385 167.258 29.5459C167.785 29.6436 168.405 29.6924 169.118 29.6924C169.704 29.6924 170.285 29.6143 170.861 29.458C171.447 29.3018 171.965 29.0771 172.414 28.7842C172.873 28.4912 173.244 28.1348 173.527 27.7148C173.811 27.2949 173.952 26.8213 173.952 26.2939C173.952 25.8447 173.869 25.4248 173.703 25.0342C173.537 24.6436 173.225 24.248 172.766 23.8477C172.307 23.4375 171.667 23.0029 170.847 22.5439C170.036 22.0752 168.977 21.5479 167.668 20.9619C166.701 20.5518 165.905 20.1025 165.28 19.6143C164.665 19.1162 164.177 18.5938 163.815 18.0469C163.464 17.4902 163.22 16.9141 163.083 16.3184C162.946 15.7129 162.878 15.0928 162.878 14.458C162.878 13.6572 163.024 12.9004 163.317 12.1875C163.61 11.4746 164.035 10.8545 164.592 10.3271C165.148 9.79004 165.832 9.36523 166.643 9.05273C167.463 8.74023 168.396 8.58398 169.44 8.58398C170.446 8.58398 171.32 8.70117 172.062 8.93555C172.814 9.16992 173.435 9.48242 173.923 9.87305C174.411 10.2539 174.777 10.7031 175.021 11.2207C175.266 11.7285 175.388 12.2607 175.388 12.8174C175.388 13.1104 175.339 13.3936 175.241 13.667C175.144 13.9307 175.002 14.165 174.816 14.3701C174.631 14.5654 174.401 14.7266 174.128 14.8535C173.854 14.9707 173.542 15.0293 173.19 15.0293C172.868 15.0293 172.575 14.9756 172.312 14.8682C172.048 14.7607 171.818 14.6143 171.623 14.4287C171.438 14.2432 171.291 14.0234 171.184 13.7695C171.086 13.5156 171.037 13.2373 171.037 12.9346C171.037 12.5928 171.096 12.29 171.213 12.0264C171.33 11.7529 171.486 11.5283 171.682 11.3525C171.887 11.167 172.126 11.0303 172.399 10.9424C172.673 10.8447 172.966 10.7959 173.278 10.7959V10.7373C173.22 10.6689 173.103 10.5615 172.927 10.415C172.751 10.2588 172.507 10.1074 172.194 9.96094C171.882 9.80469 171.496 9.67285 171.037 9.56543C170.578 9.44824 170.036 9.38965 169.411 9.38965Z" fill="#016980"/>
<path d="M192.614 9.38965C191.911 9.38965 191.291 9.47266 190.754 9.63867C190.227 9.80469 189.782 10.0391 189.421 10.3418C189.06 10.6445 188.786 11.0107 188.601 11.4404C188.425 11.8604 188.337 12.3242 188.337 12.832C188.337 13.1934 188.386 13.5498 188.483 13.9014C188.581 14.2529 188.791 14.6143 189.113 14.9854C189.436 15.3467 189.899 15.7227 190.505 16.1133C191.12 16.5039 191.945 16.9238 192.98 17.373C194.172 17.9199 195.178 18.4326 195.998 18.9111C196.828 19.3896 197.502 19.8975 198.02 20.4346C198.537 20.9717 198.908 21.5771 199.133 22.251C199.367 22.915 199.484 23.7109 199.484 24.6387C199.484 25.3418 199.343 26.0449 199.06 26.748C198.776 27.4512 198.347 28.0811 197.771 28.6377C197.204 29.1943 196.486 29.6484 195.617 30C194.758 30.3418 193.747 30.5127 192.585 30.5127C191.296 30.5127 190.212 30.3906 189.333 30.1465C188.454 29.9121 187.746 29.6045 187.209 29.2236C186.682 28.8428 186.301 28.4131 186.066 27.9346C185.832 27.4463 185.715 26.958 185.715 26.4697C185.715 26.1475 185.764 25.8496 185.861 25.5762C185.959 25.293 186.101 25.0488 186.286 24.8438C186.481 24.6289 186.716 24.4629 186.989 24.3457C187.272 24.2188 187.59 24.1553 187.941 24.1553C188.264 24.1553 188.557 24.2139 188.82 24.3311C189.084 24.4385 189.304 24.5898 189.479 24.7852C189.665 24.9707 189.807 25.1953 189.904 25.459C190.012 25.7129 190.065 25.9912 190.065 26.2939C190.065 26.9873 189.865 27.5098 189.465 27.8613C189.064 28.2129 188.547 28.3887 187.912 28.3887V28.4473C187.98 28.5254 188.112 28.6328 188.308 28.7695C188.513 28.9062 188.791 29.043 189.143 29.1797C189.504 29.3164 189.943 29.4385 190.461 29.5459C190.988 29.6436 191.608 29.6924 192.321 29.6924C192.907 29.6924 193.488 29.6143 194.064 29.458C194.65 29.3018 195.168 29.0771 195.617 28.7842C196.076 28.4912 196.447 28.1348 196.73 27.7148C197.014 27.2949 197.155 26.8213 197.155 26.2939C197.155 25.8447 197.072 25.4248 196.906 25.0342C196.74 24.6436 196.428 24.248 195.969 23.8477C195.51 23.4375 194.87 23.0029 194.05 22.5439C193.239 22.0752 192.18 21.5479 190.871 20.9619C189.904 20.5518 189.108 20.1025 188.483 19.6143C187.868 19.1162 187.38 18.5938 187.019 18.0469C186.667 17.4902 186.423 16.9141 186.286 16.3184C186.149 15.7129 186.081 15.0928 186.081 14.458C186.081 13.6572 186.228 12.9004 186.521 12.1875C186.813 11.4746 187.238 10.8545 187.795 10.3271C188.352 9.79004 189.035 9.36523 189.846 9.05273C190.666 8.74023 191.599 8.58398 192.644 8.58398C193.649 8.58398 194.523 8.70117 195.266 8.93555C196.018 9.16992 196.638 9.48242 197.126 9.87305C197.614 10.2539 197.98 10.7031 198.225 11.2207C198.469 11.7285 198.591 12.2607 198.591 12.8174C198.591 13.1104 198.542 13.3936 198.444 13.667C198.347 13.9307 198.205 14.165 198.02 14.3701C197.834 14.5654 197.604 14.7266 197.331 14.8535C197.058 14.9707 196.745 15.0293 196.394 15.0293C196.071 15.0293 195.778 14.9756 195.515 14.8682C195.251 14.7607 195.021 14.6143 194.826 14.4287C194.641 14.2432 194.494 14.0234 194.387 13.7695C194.289 13.5156 194.24 13.2373 194.24 12.9346C194.24 12.5928 194.299 12.29 194.416 12.0264C194.533 11.7529 194.689 11.5283 194.885 11.3525C195.09 11.167 195.329 11.0303 195.603 10.9424C195.876 10.8447 196.169 10.7959 196.481 10.7959V10.7373C196.423 10.6689 196.306 10.5615 196.13 10.415C195.954 10.2588 195.71 10.1074 195.397 9.96094C195.085 9.80469 194.699 9.67285 194.24 9.56543C193.781 9.44824 193.239 9.38965 192.614 9.38965ZM201.667 30V29.3408L203.923 29.1943V9.90234L201.667 9.75586V9.09668H207.937L214.045 24.6826H214.074L219.816 9.09668H225.822V9.75586L223.566 9.90234V29.1943L225.822 29.3408V30H217.561V29.3408L219.816 29.1943L219.846 11.2793H219.816L212.858 30.293H212.316L204.582 10.5908H204.553L204.772 29.1943L206.984 29.3408V30H201.667ZM227.976 30V29.3408L230.231 29.1943V9.90234L227.976 9.75586V9.09668H236.237V9.75586L233.981 9.90234V29.1943L236.237 29.3408V30H227.976ZM238.376 30V29.3408L240.632 29.1943V9.90234L238.376 9.75586V9.09668H246.638V9.75586L244.382 9.90234V29.0479C245.974 29.1553 247.062 29.209 247.648 29.209C248.186 29.209 248.654 29.1943 249.055 29.165C249.465 29.1357 249.836 29.0723 250.168 28.9746C250.51 28.877 250.793 28.7744 251.018 28.667C251.252 28.5596 251.472 28.3936 251.677 28.1689C251.882 27.9346 252.048 27.71 252.175 27.4951C252.302 27.2705 252.468 26.8408 252.673 26.2061C252.878 25.5615 253.059 24.834 253.215 24.0234H253.713V30H238.376ZM255.456 30V29.3408L257.712 29.1943V9.90234L255.456 9.75586V9.09668H269.885L270.031 15.0586H269.416C269.299 14.3945 269.172 13.833 269.035 13.374C268.908 12.9053 268.723 12.4365 268.479 11.9678C268.234 11.499 267.946 11.1279 267.614 10.8545C267.292 10.5713 266.872 10.3418 266.354 10.166C265.847 9.99023 265.256 9.90234 264.582 9.90234C263.752 9.90234 262.712 9.95117 261.462 10.0488V18.75C261.755 18.7793 262.287 18.7939 263.059 18.7939C264.084 18.7939 264.816 18.5449 265.256 18.0469C265.695 17.5391 265.915 16.6211 265.915 15.293H266.721V23.1592H265.915C265.915 21.8311 265.69 20.9082 265.241 20.3906C264.802 19.8633 264.074 19.5996 263.059 19.5996C262.307 19.5996 261.774 19.6143 261.462 19.6436V29.0479C262.712 29.1455 263.952 29.1943 265.183 29.1943C265.759 29.1943 266.267 29.1504 266.706 29.0625C267.146 28.9648 267.526 28.8086 267.849 28.5938C268.171 28.3789 268.444 28.1396 268.669 27.876C268.894 27.6025 269.089 27.2559 269.255 26.8359C269.431 26.416 269.572 25.9961 269.68 25.5762C269.787 25.1562 269.899 24.6387 270.017 24.0234H270.646L270.485 30H255.456Z" fill="black"/>
<path d="M38.542 17.0631L27.6673 23.0236L19.6134 27.4375H19.6057L19.5678 27.4603C18.4077 27.5891 17.1107 28.264 16.6634 31.4265C15.8973 36.9246 14.358 43.9999 12.0603 43.9999C11.7465 44.0009 11.4357 43.9442 11.1425 43.8331C9.47396 43.1962 8.82193 40.8377 8.38971 39.2451C7.75345 36.7148 7.3172 34.1386 7.08532 31.5402C6.76082 29.1284 5.98395 26.7999 4.795 24.677C3.69531 22.6142 2.31508 20.7715 1.45063 18.5722C-0.490682 13.62 -0.945725 6.98434 3.18725 3.02586C5.17722 1.19394 7.75681 0.13419 10.4599 0.0378789C11.4049 -0.0151424 12.3532 0.0304962 13.2888 0.174459C13.2962 0.166741 13.3113 0.174459 13.3267 0.174459C15.3724 0.48017 17.312 1.2822 18.9762 2.51008C19.2416 2.7074 19.492 2.91948 19.7346 3.13962C19.8638 3.01814 20 2.90438 20.1366 2.79062C22.2387 1.12314 24.8125 0.160029 27.4928 0.0378789C30.7093 -0.221523 33.8903 0.859709 36.2823 3.02586C40.0055 6.59775 40.0055 12.3385 38.542 17.0631Z" fill="#004D48"/>
<path d="M37.0252 17.063L27.6673 23.0236L20.7812 27.4069C20.7812 27.4069 20.2353 27.4146 19.6134 27.4374H19.6057C19.1205 27.4525 18.5896 27.4753 18.2104 27.4982C17.012 27.5891 15.5942 28.2639 15.1466 31.4264C14.4489 36.4316 13.1066 42.7485 11.1425 43.8331C9.47396 43.1961 8.82193 40.8377 8.38971 39.2451C7.75345 36.7148 7.3172 34.1386 7.08532 31.5402C6.76081 29.1284 5.98395 26.7998 4.795 24.677C3.69531 22.6142 2.31508 20.7715 1.45063 18.5721C-0.490682 13.62 -0.945725 6.9843 3.18725 3.02583C5.17722 1.19391 7.75681 0.134153 10.4599 0.0378418C12.3344 0.134824 14.167 0.628458 15.8368 1.48619C16.6996 1.9305 17.5003 2.48622 18.2181 3.13959C18.4607 2.91945 18.7111 2.70736 18.9762 2.51004C19.1128 2.404 19.2571 2.30534 19.401 2.20668C19.5604 2.32044 19.7121 2.4493 19.9168 2.61608C19.9926 2.67682 20.0608 2.73756 20.1366 2.79059C22.2387 1.1231 24.8125 0.159992 27.4928 0.0378418C30.1959 0.134153 32.7755 1.19391 34.7654 3.02583C38.489 6.59771 38.489 12.3384 37.0252 17.063Z" fill="#00A49A"/>
<path d="M27.538 6.77969C27.538 7.19849 27.1988 7.53809 26.7796 7.53809C26.1793 7.53205 25.5826 7.44547 25.0051 7.28037C23.1792 6.71693 21.4758 5.81389 19.9849 4.61857C19.2644 4.07224 18.5667 3.48834 17.8613 2.92725C17.219 2.40308 16.5425 1.92153 15.8368 1.48628C15.5224 1.29299 15.1982 1.11581 14.866 0.9554C14.6005 0.826538 14.2972 0.773516 14.0317 0.636936C13.9485 0.591633 12.9854 0.432234 12.97 0.318473C12.9475 0.17451 13.0837 0.151691 13.2887 0.17451C13.2961 0.166792 13.3112 0.17451 13.3267 0.17451C13.4327 0.189611 13.5539 0.204712 13.6753 0.219813C15.4193 0.418475 17.1127 0.93258 18.6731 1.73662C18.9238 1.88059 19.1667 2.03764 19.401 2.20677C19.5604 2.32053 19.712 2.44939 19.9167 2.61617C19.9926 2.67691 20.0607 2.73765 20.1365 2.79067C20.6708 3.23867 21.2278 3.65881 21.805 4.04976C23.246 5.02797 24.9826 6.02128 26.7796 6.02128C26.981 6.02128 27.1739 6.10115 27.3159 6.24343C27.4582 6.38572 27.538 6.57867 27.538 6.77969Z" fill="#004C48"/>
<path d="M3.61944 15.1195C3.27749 15.1195 2.97782 14.8906 2.88788 14.5604C0.851598 7.08539 6.08426 4.47594 6.13493 4.45077C6.50944 4.28265 6.95005 4.44272 7.12858 4.81252C7.30744 5.18233 7.15945 5.62697 6.79468 5.8159C6.61347 5.90617 2.65801 7.95286 4.35134 14.1577C4.41375 14.3859 4.3661 14.6302 4.22281 14.8181C4.07918 15.0064 3.85602 15.1164 3.61944 15.1164V15.1195Z" fill="white"/>
<path d="M9.87594 3.80678C9.87594 4.22591 9.53634 4.56518 9.11754 4.56518C8.69874 4.56518 8.35913 4.22591 8.35913 3.80678C8.35913 3.38798 8.69874 3.04871 9.11754 3.04871C9.53634 3.04871 9.87594 3.38798 9.87594 3.80678Z" fill="white"/>
<path d="M43.1222 28.3476C42.5108 29.6403 41.8249 30.896 41.0672 32.1091C40.3329 33.4145 39.854 34.8481 39.6567 36.333C39.5144 37.9317 39.2456 39.5167 38.8527 41.0727C38.5419 42.2177 38.0413 44 36.5929 44C36.2516 44 35.9332 43.7423 35.6449 43.3023C34.7502 41.9449 34.1207 38.8281 33.7643 36.2649C33.514 34.5206 32.7707 34.0199 32.1035 33.8837C32.0277 33.8682 31.9519 33.8531 31.876 33.8457H31.8683C31.4354 33.8773 31.0297 34.0692 30.7307 34.384C30.2924 34.9182 30.03 35.5753 29.98 36.2649C29.5099 39.6472 28.5619 44 27.1437 44C26.6148 43.9946 26.1209 43.7349 25.8165 43.3023C25.3665 42.6261 25.052 41.8691 24.8913 41.0727C24.4591 39.5257 25.7863 37.9257 25.6044 36.333C25.4034 34.8491 24.9249 33.4159 24.1936 32.1091C23.4366 30.8947 22.748 29.6386 22.1312 28.3476C20.9405 25.3066 20.6597 21.219 23.2003 18.7847C24.2393 17.791 24.0725 17.2071 25.498 17.0101C25.8725 16.9581 26.2501 16.9326 26.6279 16.9343C28.0699 16.9273 29.4877 17.3011 30.7384 18.0186C31.1414 18.2588 31.52 18.5384 31.8683 18.8528C33.0116 17.8474 34.4301 17.2081 35.9409 17.0175C36.8046 16.896 37.6825 16.9115 38.5419 17.0632C39.8584 17.2722 41.0816 17.8719 42.0531 18.7847C44.6011 21.219 44.3206 25.3066 43.1222 28.3476Z" fill="#00A49A"/>
<path d="M40.8473 28.3476C40.2359 29.6403 39.5497 30.896 38.7923 32.1091C38.0577 33.4145 37.5792 34.8481 37.3815 36.333C37.2396 37.9317 36.9708 39.5167 36.5778 41.0727C36.411 41.8684 36.0942 42.6251 35.6449 43.3023C34.7502 41.9449 34.1207 38.828 33.7643 36.2649C33.514 34.5206 32.7707 34.0199 32.1035 33.8836C32.0257 33.8665 31.9475 33.8538 31.8683 33.8457C31.7378 33.8457 31.6099 33.8206 31.4807 33.8108C31.1173 33.7823 30.7525 33.7753 30.3881 33.7893C30.0317 33.79 29.676 33.8253 29.3263 33.8951C29.1679 33.9303 29.0149 33.9867 28.8713 34.0625C28.5666 34.2394 28.3172 34.4974 28.1508 34.8078C28.0424 35.0048 27.9551 35.2125 27.8907 35.4276C27.8504 35.5558 27.8149 35.686 27.7883 35.8172C27.7481 35.9636 27.7226 36.1136 27.7125 36.2649C27.3561 38.828 26.7266 41.9449 25.8242 43.3023C25.3739 42.6261 25.0598 41.8691 24.899 41.0727C24.5061 39.5167 24.2373 37.9317 24.0953 36.333C23.8943 34.8491 23.4158 33.4158 22.6846 32.1091C21.9275 30.8947 21.2389 29.6386 20.6218 28.3476C19.4311 25.3066 19.1506 21.2189 21.6912 18.7847C22.7443 17.8065 24.0792 17.1856 25.5058 17.0101C27.0219 17.2014 28.4461 17.8434 29.5934 18.8528C29.9421 18.5323 30.3263 18.2524 30.7384 18.0185C31.1414 18.2588 31.52 18.5384 31.8683 18.8528C33.0116 17.8474 34.4301 17.2081 35.9409 17.0175C36.0503 17.0249 36.1593 17.04 36.2667 17.0632C37.5832 17.2722 38.8064 17.8719 39.7782 18.7847C42.3262 21.2189 42.0454 25.3066 40.8473 28.3476Z" fill="#78CCDE"/>
<path d="M35.2999 21.5638C32.3727 21.5638 29.7327 18.9856 29.5934 18.8527C29.2944 18.5594 28.1404 17.7151 28.4337 17.4117C28.7273 17.1084 30.3545 17.804 30.7384 18.0184C31.7462 18.5812 33.3851 20.047 35.2999 20.047C35.7187 20.047 36.0583 20.3866 36.0583 20.8054C36.0583 21.2242 35.7187 21.5638 35.2999 21.5638Z" fill="#00A49A"/>
<path d="M23.239 27.3601C22.9162 27.3604 22.6282 27.1557 22.5225 26.8507C21.2067 23.0647 23.0601 20.817 24.2232 20.1572C24.587 19.9492 25.0504 20.075 25.2585 20.4388C25.4665 20.8022 25.3407 21.2656 24.9773 21.4737C24.8726 21.5361 22.7417 22.861 23.9548 26.3523C24.0356 26.5842 23.9994 26.8409 23.8571 27.0409C23.7148 27.2413 23.4846 27.3601 23.239 27.3601Z" fill="white"/>
<path d="M27.3183 19.7326C27.3183 20.1514 26.9787 20.4907 26.5599 20.4907C26.1411 20.4907 25.8015 20.1514 25.8015 19.7326C25.8015 19.3135 26.1411 18.9742 26.5599 18.9742C26.9787 18.9742 27.3183 19.3135 27.3183 19.7326Z" fill="white"/>
</svg>
