<svg width="48" height="48" viewBox="0 0 48 48" fill="none" xmlns="http://www.w3.org/2000/svg">
<circle cx="24" cy="24" r="22.5" fill="white" stroke="url(#paint0_linear)" stroke-width="3"/>
<path d="M27.1011 15.0435V17.9487H26.7593C25.1642 17.9731 23.8784 18.3882 22.9019 19.1938C21.9334 19.9995 21.3516 21.1185 21.1562 22.5508C22.1003 21.5905 23.2925 21.1104 24.7329 21.1104C26.2791 21.1104 27.508 21.6637 28.4194 22.7705C29.3309 23.8773 29.7866 25.334 29.7866 27.1406C29.7866 28.2962 29.5343 29.342 29.0298 30.2778C28.5334 31.2137 27.8254 31.9421 26.9058 32.4629C25.9943 32.9837 24.9608 33.2441 23.8052 33.2441C21.9334 33.2441 20.4198 32.5931 19.2642 31.291C18.1167 29.9889 17.543 28.2515 17.543 26.0786V24.8091C17.543 22.8804 17.9051 21.1795 18.6294 19.7065C19.3618 18.2254 20.4076 17.082 21.7666 16.2764C23.1338 15.4626 24.7166 15.0516 26.5151 15.0435H27.1011ZM23.6587 23.9424C23.089 23.9424 22.5723 24.0929 22.1084 24.394C21.6445 24.687 21.3027 25.0776 21.083 25.5659V26.6401C21.083 27.8201 21.3149 28.7438 21.7788 29.4111C22.2427 30.0703 22.8937 30.3999 23.7319 30.3999C24.4888 30.3999 25.0991 30.1029 25.563 29.5088C26.035 28.9066 26.271 28.1294 26.271 27.1772C26.271 26.2088 26.035 25.4276 25.563 24.8335C25.091 24.2394 24.4562 23.9424 23.6587 23.9424Z" fill="black"/>
<defs>
<linearGradient id="paint0_linear" x1="24" y1="0" x2="24" y2="48" gradientUnits="userSpaceOnUse">
<stop stop-color="#20A6C4"/>
<stop offset="1" stop-color="white" stop-opacity="0"/>
</linearGradient>
</defs>
</svg>
