<svg width="48" height="48" viewBox="0 0 48 48" fill="none" xmlns="http://www.w3.org/2000/svg">
<circle cx="24" cy="24" r="22.5" fill="white" stroke="url(#paint0_linear)" stroke-width="3"/>
<path d="M18.0557 24.2598L19.0811 15.2266H29.042V18.1685H21.9741L21.5347 21.9893C22.3729 21.5417 23.264 21.3179 24.208 21.3179C25.9007 21.3179 27.2272 21.8428 28.1875 22.8926C29.1478 23.9424 29.6279 25.4113 29.6279 27.2993C29.6279 28.4468 29.3838 29.4762 28.8955 30.3877C28.4154 31.291 27.7236 31.995 26.8203 32.4995C25.917 32.9959 24.8509 33.2441 23.6221 33.2441C22.5479 33.2441 21.5509 33.0285 20.6313 32.5972C19.7118 32.1577 18.9834 31.5433 18.4463 30.7539C17.9173 29.9645 17.6366 29.0653 17.604 28.0562H21.0952C21.1685 28.7967 21.4248 29.3745 21.8643 29.7896C22.3118 30.1965 22.8937 30.3999 23.6099 30.3999C24.4074 30.3999 25.0218 30.1151 25.4531 29.5454C25.8844 28.9676 26.1001 28.1538 26.1001 27.104C26.1001 26.0949 25.8519 25.3218 25.3555 24.7847C24.859 24.2476 24.1551 23.979 23.2437 23.979C22.4054 23.979 21.7259 24.1987 21.2051 24.6382L20.8633 24.9556L18.0557 24.2598Z" fill="black"/>
<defs>
<linearGradient id="paint0_linear" x1="24" y1="0" x2="24" y2="48" gradientUnits="userSpaceOnUse">
<stop stop-color="#20A6C4"/>
<stop offset="1" stop-color="white" stop-opacity="0"/>
</linearGradient>
</defs>
</svg>
