<svg width="47" height="47" fill="none" xmlns="http://www.w3.org/2000/svg"><mask id="a" fill="#fff"><path fill-rule="evenodd" clip-rule="evenodd" d="M35.673 30.027l9.314 6.212a2.705 2.705 0 0 1 .82 3.647l-2.343 3.892a5.489 5.489 0 0 1-3.25 2.505 13.584 13.584 0 0 1-3.605.47c-5.288 0-12.981-2.778-23.316-13.112C.302 20.648-.753 11.83.65 6.72a5.494 5.494 0 0 1 2.505-3.251l3.895-2.34a2.704 2.704 0 0 1 3.645.82l6.211 9.314a2.72 2.72 0 0 1-.591 3.64l-3.486 2.713a1.16 1.16 0 0 0-.307 1.492l.283.516c.932 1.708 2.096 3.838 6.385 8.128 4.288 4.29 6.417 5.452 8.128 6.384l.516.285a1.16 1.16 0 0 0 1.487-.313l2.713-3.489a2.718 2.718 0 0 1 3.64-.59zm6.476 12.966l2.336-3.894a1.173 1.173 0 0 0-.356-1.582l-9.313-6.212a1.181 1.181 0 0 0-1.58.257l-2.711 3.486a2.684 2.684 0 0 1-3.445.711l-.504-.277-.002-.002c-1.796-.98-4.031-2.198-8.478-6.644s-5.666-6.682-6.646-8.48v-.002l-.278-.502a2.684 2.684 0 0 1 .711-3.445l3.487-2.712a1.18 1.18 0 0 0 .256-1.58l-2.832-4.247L9.42 2.802a1.173 1.173 0 0 0-1.582-.356L3.943 4.783a3.97 3.97 0 0 0-1.815 2.342c-1.295 4.718-.222 12.959 12.25 25.431C26.851 45.03 35.092 46.101 39.81 44.806a3.963 3.963 0 0 0 2.339-1.813zm-2.86-21.544c-.009-7.197-5.84-13.028-13.037-13.036a.767.767 0 1 1 0-1.534c8.043.009 14.561 6.527 14.57 14.57a.767.767 0 1 1-1.534 0zm-13.037-8.435a8.445 8.445 0 0 1 8.435 8.435.767.767 0 1 0 1.534 0c-.006-5.503-4.466-9.963-9.969-9.969a.767.767 0 1 0 0 1.534zm3.835 8.435a3.839 3.839 0 0 0-3.835-3.834.767.767 0 1 1 0-1.534 5.374 5.374 0 0 1 5.368 5.368.767.767 0 0 1-1.534 0z"/></mask><path fill-rule="evenodd" clip-rule="evenodd" d="M35.673 30.027l9.314 6.212a2.705 2.705 0 0 1 .82 3.647l-2.343 3.892a5.489 5.489 0 0 1-3.25 2.505 13.584 13.584 0 0 1-3.605.47c-5.288 0-12.981-2.778-23.316-13.112C.302 20.648-.753 11.83.65 6.72a5.494 5.494 0 0 1 2.505-3.251l3.895-2.34a2.704 2.704 0 0 1 3.645.82l6.211 9.314a2.72 2.72 0 0 1-.591 3.64l-3.486 2.713a1.16 1.16 0 0 0-.307 1.492l.283.516c.932 1.708 2.096 3.838 6.385 8.128 4.288 4.29 6.417 5.452 8.128 6.384l.516.285a1.16 1.16 0 0 0 1.487-.313l2.713-3.489a2.718 2.718 0 0 1 3.64-.59zm6.476 12.966l2.336-3.894a1.173 1.173 0 0 0-.356-1.582l-9.313-6.212a1.181 1.181 0 0 0-1.58.257l-2.711 3.486a2.684 2.684 0 0 1-3.445.711l-.504-.277-.002-.002c-1.796-.98-4.031-2.198-8.478-6.644s-5.666-6.682-6.646-8.48v-.002l-.278-.502a2.684 2.684 0 0 1 .711-3.445l3.487-2.712a1.18 1.18 0 0 0 .256-1.58l-2.832-4.247L9.42 2.802a1.173 1.173 0 0 0-1.582-.356L3.943 4.783a3.97 3.97 0 0 0-1.815 2.342c-1.295 4.718-.222 12.959 12.25 25.431C26.851 45.03 35.092 46.101 39.81 44.806a3.963 3.963 0 0 0 2.339-1.813zm-2.86-21.544c-.009-7.197-5.84-13.028-13.037-13.036a.767.767 0 1 1 0-1.534c8.043.009 14.561 6.527 14.57 14.57a.767.767 0 1 1-1.534 0zm-13.037-8.435a8.445 8.445 0 0 1 8.435 8.435.767.767 0 1 0 1.534 0c-.006-5.503-4.466-9.963-9.969-9.969a.767.767 0 1 0 0 1.534zm3.835 8.435a3.839 3.839 0 0 0-3.835-3.834.767.767 0 1 1 0-1.534 5.374 5.374 0 0 1 5.368 5.368.767.767 0 0 1-1.534 0z" fill="#000000"/><path d="M44.987 36.239l-.555.831v.001l.555-.832zm-9.314-6.212l.555-.832-.004-.002-.551.834zm10.133 9.858l-.856-.515.856.516zm-2.341 3.893l-.857-.516-.006.01.863.506zm-3.252 2.505l.261.965.01-.002-.27-.963zm-3.604.47l.004-1h-.004v1zM13.293 33.642l-.707.707.707-.707zM.65 6.72l-.963-.27-.001.005.964.265zm2.505-3.251l.507.862.008-.005-.515-.857zm3.895-2.34l.515.857-.515-.857zm3.645.82l-.832.554v.001l.832-.554zm6.211 9.314l.835-.55-.002-.004-.832.554zm-.591 3.64l.614.79.002-.002-.616-.787zm-3.486 2.713l.607.794.007-.005-.614-.79zm-.307 1.492l.877-.48-.006-.01-.871.49zm.283.516l-.877.48.009.016.868-.496zm0 0l.878-.48-.01-.016-.868.496zm6.385 8.128l-.708.707.707-.707zm8.128 6.384l.482-.876-.004-.002-.478.878zm.516.285l.485-.875-.002-.001-.483.876zm1.487-.313l-.79-.614-.007.01.797.604zm2.713-3.489l-.788-.616-.002.003.79.613zm12.452 8.48l-.856-.515-.002.001.858.515zm-2.336 3.895l-.858-.514-.006.01.864.504zm1.98-5.476l-.554.832h.001l.553-.832zm-9.313-6.212l.555-.831-.004-.003-.55.834zm-1.58.257l-.786-.618-.003.004.79.614zm-2.711 3.486l-.79-.614-.005.007.794.607zm-3.445.711l.489-.872-.006-.004-.483.876zm-.504-.277l.483-.876-.005-.003-.478.879zm-.002-.002l-.479.878h.001l.478-.877zm-8.478-6.644l-.707.707.707-.707zm-6.646-8.48l-.878.479.878-.479zm0-.002l.877-.478-.002-.004-.876.483zm-.278-.502l.876-.483-.004-.007-.872.49zm.711-3.445l.608.794.006-.005-.614-.79zm3.487-2.712l.614.789.003-.002-.617-.787zm.256-1.58l.834-.552-.002-.003-.832.555zm-2.832-4.247l-.832.554.832-.554zM9.42 2.802l-.833.554.833-.554zm-1.582-.356l.514.858h.002l-.516-.858zM3.943 4.783l.505.863.01-.006-.515-.857zM2.128 7.125l-.962-.274-.002.009.964.265zM39.81 44.806l.264.965.009-.003-.273-.962zM26.252 8.413l.002-1h-.002v1zm13.036 13.036h1v-.001h-1zM26.252 6.879l.002-1h-.002v1zm14.57 14.57h1v-.001h-1zm-6.135 0h1v-.001h-1zm-8.435-8.435l.002-1h-.002v1zm9.969 8.435h1v-.001h-1zm-9.969-9.969l.002-1h-.002v1zm0 6.135l.002-1h-.002v1zm3.835 3.834h1v-.002l-1 .002zm-3.835-5.368l.002-1h-.002v1zm5.368 5.368h1v-.002l-1 .002zm13.921 13.957l-9.313-6.21-1.11 1.663 9.314 6.211 1.11-1.663zm1.122 4.995a3.705 3.705 0 0 0-1.123-4.995l-1.107 1.665c.76.505.987 1.518.517 2.299l1.713 1.031zm-2.342 3.892l2.342-3.892-1.713-1.031-2.342 3.892 1.713 1.031zm-3.838 2.953a6.49 6.49 0 0 0 3.844-2.962l-1.725-1.013a4.488 4.488 0 0 1-2.659 2.05l.54 1.925zm-3.878.508a14.587 14.587 0 0 0 3.87-.506l-.523-1.93c-1.088.294-2.211.44-3.339.436l-.008 2zM12.586 34.348C23.018 44.78 30.951 47.754 36.61 47.754v-2c-4.917 0-12.371-2.583-22.609-12.82l-1.414 1.414zM-.315 6.454c-1.537 5.601-.217 14.775 12.901 27.894L14 32.934C1.135 20.068.346 11.603 1.613 6.984l-1.928-.53zm2.962-3.848a6.494 6.494 0 0 0-2.96 3.843l1.925.54a4.494 4.494 0 0 1 2.05-2.66L2.646 2.607zM6.534.27L2.639 2.61l1.03 1.714 3.895-2.34L6.534.271zm4.993 1.124A3.704 3.704 0 0 0 6.534.271l1.03 1.714a1.704 1.704 0 0 1 2.298.517l1.665-1.107zm6.21 9.313l-6.21-9.314-1.665 1.11 6.212 9.313 1.663-1.11zm-.807 4.982a3.72 3.72 0 0 0 .81-4.979l-1.669 1.103a1.72 1.72 0 0 1-.374 2.301l1.233 1.575zm-3.488 2.714l3.486-2.712-1.229-1.579-3.485 2.713 1.228 1.578zm-.05.212a.161.161 0 0 1 .043-.207L12.22 16.82a2.161 2.161 0 0 0-.57 2.778l1.742-.982zm.289.526l-.283-.516-1.754.962.283.516 1.754-.962zm-.009-.015l-1.736.992 1.736-.992zm6.224 7.917c-4.214-4.215-5.322-6.266-6.214-7.9l-1.756.958c.973 1.782 2.191 3.991 6.555 8.356l1.415-1.414zm7.9 6.213c-1.637-.892-3.687-1.997-7.9-6.213l-1.415 1.414c4.364 4.366 6.572 5.582 8.357 6.555l.957-1.756zm.52.287l-.517-.285-.965 1.752.516.284.966-1.751zm.207-.042a.16.16 0 0 1-.205.043l-.97 1.749a2.16 2.16 0 0 0 2.768-.583l-1.593-1.209zm2.72-3.498l-2.713 3.489 1.579 1.228 2.713-3.489-1.579-1.227zm4.982-.81a3.718 3.718 0 0 0-4.98.808l1.575 1.233a1.719 1.719 0 0 1 2.301-.374l1.103-1.668zm7.402 9.39l-2.336 3.895 1.715 1.029 2.337-3.895-1.716-1.029zm-.05-.234c.076.05.1.153.052.233l1.713 1.032c.6-.996.31-2.288-.66-2.931l-1.106 1.666zm-9.315-6.212l9.313 6.21 1.11-1.663-9.314-6.211-1.11 1.664zm-.239.041a.18.18 0 0 1 .242-.039l1.102-1.669a2.181 2.181 0 0 0-2.917.473l1.573 1.235zm-2.71 3.483l2.713-3.486-1.579-1.228-2.712 3.486 1.579 1.228zm-4.722.97c1.6.896 3.614.48 4.728-.976L29.73 34.44a1.683 1.683 0 0 1-2.161.446l-.978 1.744zm-.497-.275l.503.278.966-1.752-.504-.277-.965 1.751zm.002.002h.002l.956-1.756h-.002l-.956 1.756zm-8.707-6.816c4.523 4.522 6.838 5.796 8.707 6.815l.957-1.755c-1.723-.94-3.88-2.105-8.25-6.475l-1.414 1.415zm-6.817-8.708c1.02 1.87 2.294 4.186 6.817 8.708l1.414-1.415c-4.37-4.37-5.535-6.526-6.475-8.25l-1.756.957zm0-.002v.002l1.756-.957v-.002l-1.757.957zm-.276-.5l.277.504 1.752-.965-.277-.503-1.752.965zm.98-4.72a3.684 3.684 0 0 0-.976 4.727l1.744-.978a1.684 1.684 0 0 1 .447-2.16l-1.215-1.59zm3.48-2.708l-3.487 2.713 1.228 1.578 3.487-2.712-1.228-1.579zm.036-.238a.18.18 0 0 1-.04.24l1.235 1.575a2.18 2.18 0 0 0 .473-2.919l-1.668 1.104zm-2.83-4.245l2.832 4.248 1.664-1.11-2.832-4.247-1.664 1.11zM8.588 3.356l3.374 5.066 1.664-1.109-3.374-5.065-1.664 1.108zm-.234-.053a.173.173 0 0 1 .233.053l1.666-1.108a2.173 2.173 0 0 0-2.93-.659l1.03 1.714zM4.458 5.64l3.894-2.336-1.028-1.715-3.895 2.336L4.458 5.64zM3.09 7.398a2.97 2.97 0 0 1 1.358-1.752L3.438 3.92a4.97 4.97 0 0 0-2.272 2.932l1.924.547zm11.995 24.451C2.725 19.49 1.935 11.604 3.093 7.39l-1.929-.53c-1.433 5.223-.078 13.82 12.507 26.404l1.414-1.414zm24.46 11.993c-4.214 1.157-12.1.367-24.46-11.993l-1.414 1.414c12.585 12.585 21.182 13.941 26.404 12.508l-.53-1.93zm1.74-1.353a2.963 2.963 0 0 1-1.748 1.355l.546 1.924a4.963 4.963 0 0 0 2.929-2.27l-1.727-1.01zM26.251 9.413c6.645.007 12.03 5.392 12.037 12.037l2-.002C40.28 13.7 34.001 7.42 26.254 7.413l-.003 2zm-1.765-1.767c0 .976.79 1.767 1.766 1.767v-2c.13 0 .234.104.234.233h-2zm1.766-1.767c-.975 0-1.766.791-1.766 1.767h2a.233.233 0 0 1-.234.233v-2zm15.57 15.569c-.01-8.595-6.974-15.56-15.569-15.569l-.002 2c7.492.008 13.563 6.08 13.57 13.57l2-.001zm-1.767 1.767c.976 0 1.767-.79 1.767-1.766h-2c0-.129.104-.234.233-.234v2zm-1.767-1.766c0 .975.791 1.766 1.767 1.766v-2c.129 0 .233.105.233.234h-2zm-2.6-.001a9.445 9.445 0 0 0-9.435-9.434l-.002 2a7.445 7.445 0 0 1 7.436 7.436l2-.002zm-.234-.232c.129 0 .233.104.233.233h-2c0 .976.791 1.767 1.767 1.767v-2zm-.233.233c0-.129.104-.233.233-.233v2c.976 0 1.767-.791 1.767-1.767h-2zm-8.97-8.969a8.98 8.98 0 0 1 8.97 8.97l2-.002c-.007-6.055-4.913-10.96-10.967-10.968l-.003 2zm.235-.233a.233.233 0 0 1-.234.233v-2c-.975 0-1.766.791-1.766 1.767h2zm-.234-.233c.13 0 .234.104.234.233h-2c0 .976.79 1.767 1.766 1.767v-2zm0 6.6a2.839 2.839 0 0 1 2.835 2.836l2-.002a4.839 4.839 0 0 0-4.833-4.833l-.003 2zm-1.766-1.766c0 .976.79 1.767 1.766 1.767v-2c.13 0 .234.104.234.233h-2zm1.766-1.767c-.975 0-1.766.791-1.766 1.767h2a.233.233 0 0 1-.234.233v-2zm6.368 6.367a6.374 6.374 0 0 0-6.366-6.367l-.003 2a4.374 4.374 0 0 1 4.37 4.369l2-.002zm-1.767 1.767c.976 0 1.767-.79 1.767-1.766h-2c0-.13.104-.234.233-.234v2zm-1.767-1.766c0 .976.792 1.766 1.767 1.766v-2c.13 0 .233.105.233.234h-2z" fill="#000000" mask="url(#a)"/></svg>