<svg width="325" height="57" viewBox="0 0 325 57" fill="none" xmlns="http://www.w3.org/2000/svg">
<path d="M3.3125 54.5859C1.61979 54.5859 0.773438 54.1042 0.773438 53.1406C0.773438 52.3854 1.24219 52.0078 2.17969 52.0078L4.09375 52.2031C5.65625 52.2031 6.69792 51.3307 7.21875 49.5859C7.6875 48.1016 7.92188 45.4453 7.92188 41.6172V14.1172C7.92188 10.263 7.73958 7.76302 7.375 6.61719C7.01042 5.44531 6.56771 4.65104 6.04688 4.23438C5.55208 3.79167 4.90104 3.57031 4.09375 3.57031L2.17969 3.76562C1.24219 3.76562 0.773438 3.375 0.773438 2.59375C0.773438 1.57812 1.61979 1.07031 3.3125 1.07031L8.42969 1.65625C9.52344 1.65625 10.5 1.57812 11.3594 1.42188L47.3359 43.2578V14.0391C47.3359 10.237 47.1276 7.73698 46.7109 6.53906C46.3203 5.34115 45.8646 4.53385 45.3438 4.11719C44.8229 3.67448 44.1458 3.45312 43.3125 3.45312L41.3984 3.60938C40.4609 3.60938 39.9922 3.23177 39.9922 2.47656C39.9922 1.51302 40.8385 1.03125 42.5312 1.03125C43.1823 1.03125 44.0547 1.1224 45.1484 1.30469C46.5286 1.53906 47.7786 1.65625 48.8984 1.65625C50.0182 1.65625 51.112 1.55208 52.1797 1.34375C53.2474 1.13542 54.4974 1.03125 55.9297 1.03125C57.362 1.03125 58.0781 1.51302 58.0781 2.47656C58.0781 3.23177 57.6094 3.60938 56.6719 3.60938L54.7578 3.45312C53.1693 3.45312 52.1146 4.32552 51.5938 6.07031C51.151 7.45052 50.9297 10.1068 50.9297 14.0391V53.4922C50.9297 54.3776 50.8516 54.9635 50.6953 55.25C50.5391 55.5365 50.2917 55.6797 49.9531 55.6797C49.4844 55.6797 48.7422 55.1328 47.7266 54.0391L11.7109 12.3203V41.6172C11.7109 45.5495 11.8802 48.0885 12.2188 49.2344C12.5833 50.3542 13.013 51.1354 13.5078 51.5781C14.0286 51.9948 14.7057 52.2031 15.5391 52.2031L17.4141 52.0078C18.3516 52.0078 18.8203 52.3854 18.8203 53.1406C18.8203 54.1042 18.0651 54.5859 16.5547 54.5859C15.0703 54.5859 13.7422 54.4818 12.5703 54.2734C11.4245 54.0911 10.3047 54 9.21094 54C8.11719 54 7.03646 54.0911 5.96875 54.2734C4.92708 54.4818 4.04167 54.5859 3.3125 54.5859ZM63.4688 54.5859C62.0365 54.5859 61.3203 54.1042 61.3203 53.1406C61.3203 52.3854 61.7891 52.0078 62.7266 52.0078L64.6406 52.2031C66.099 52.2031 67.0885 51.5781 67.6094 50.3281C68.1823 48.8958 68.4688 46.0312 68.4688 41.7344V14.0391C68.4688 9.76823 68.2604 7.08594 67.8438 5.99219C67.4531 4.8724 67.0104 4.16927 66.5156 3.88281C66.0208 3.59635 65.3958 3.45312 64.6406 3.45312L62.7266 3.60938C61.7891 3.60938 61.3203 3.23177 61.3203 2.47656C61.3203 1.51302 62.0104 1.03125 63.3906 1.03125C64.7969 1.03125 65.9427 1.07031 66.8281 1.14844C67.7396 1.20052 68.651 1.26562 69.5625 1.34375C71.9844 1.55208 73.8854 1.65625 75.2656 1.65625C76.6719 1.65625 78.1562 1.63021 79.7188 1.57812C81.2812 1.5 83.026 1.42188 84.9531 1.34375C90.0312 1.13542 93.5469 1.03125 95.5 1.03125C97.4792 1.03125 98.5729 1.14844 98.7812 1.38281C99.0156 1.61719 99.1328 1.94271 99.1328 2.35938C99.1328 2.75 99.1198 3.1276 99.0938 3.49219C99.0938 3.85677 99.0807 4.26042 99.0547 4.70312C99.0286 5.30208 98.9505 6.20052 98.8203 7.39844C98.6901 8.57031 98.5339 9.36458 98.3516 9.78125C98.1693 10.1719 97.9089 10.3672 97.5703 10.3672C97.2318 10.3672 96.9974 10.2891 96.8672 10.1328C96.737 9.95052 96.5547 9.5599 96.3203 8.96094C96.112 8.33594 95.7214 7.75 95.1484 7.20312C94.6016 6.63021 93.7292 6.16146 92.5312 5.79688C90.1875 5.09375 85.8516 4.74219 79.5234 4.74219H76.0469C75.4219 4.74219 75.0182 4.83333 74.8359 5.01562C74.6797 5.19792 74.6016 5.61458 74.6016 6.26562V22.7109C77.7005 23.0755 80.2656 23.2578 82.2969 23.2578C84.3542 23.2578 85.8125 23.2448 86.6719 23.2188C87.5573 23.1927 88.2865 23.1146 88.8594 22.9844C89.875 22.8021 90.6042 22.3464 91.0469 21.6172C91.9323 20.237 92.6484 19.5469 93.1953 19.5469C93.8984 19.5469 94.25 19.9115 94.25 20.6406L92.8828 26.1875L93.0391 29.1562C93.0391 31.0312 92.5964 31.9688 91.7109 31.9688C90.9557 31.9688 90.5781 31.474 90.5781 30.4844C90.5781 29.4688 90.513 28.7135 90.3828 28.2188C90.2786 27.724 89.9531 27.3333 89.4062 27.0469C88.5729 26.6302 86.5417 26.4219 83.3125 26.4219C80.0833 26.4219 77.1797 26.5651 74.6016 26.8516V36.1094C74.6016 41.8646 74.7318 46.6172 74.9922 50.3672C77.1016 50.8359 79.3932 51.0703 81.8672 51.0703C84.3411 51.0703 86.4505 51.0052 88.1953 50.875C89.9661 50.7448 91.4896 50.4844 92.7656 50.0938C95.2917 49.3385 97.1536 47.8932 98.3516 45.7578C98.8724 44.8203 99.3932 44.3516 99.9141 44.3516C100.435 44.3516 100.695 44.7292 100.695 45.4844C100.695 45.7969 100.604 46.2005 100.422 46.6953C100.214 47.3724 99.9141 48.388 99.5234 49.7422C99.1328 51.0703 98.8333 52.0339 98.625 52.6328C98.4167 53.2318 98.1823 53.6875 97.9219 54C97.5312 54.5208 96.763 54.7812 95.6172 54.7812C94.4714 54.7812 93.3646 54.7682 92.2969 54.7422C91.2292 54.7422 90.1094 54.7292 88.9375 54.7031C87.5833 54.651 85.487 54.5469 82.6484 54.3906C75.5651 54.0521 71.4115 53.9349 70.1875 54.0391C68.9635 54.1432 68.0391 54.2214 67.4141 54.2734C66.7891 54.3516 66.1771 54.4167 65.5781 54.4688C64.9792 54.5469 64.276 54.5859 63.4688 54.5859ZM180.422 1.03125C182.062 1.03125 182.883 1.5 182.883 2.4375C182.883 3.34896 182.336 3.80469 181.242 3.80469C179.888 3.80469 178.898 4.09115 178.273 4.66406C177.284 5.60156 176.333 7.26823 175.422 9.66406L158.664 53.6484C158.013 55.263 157.388 56.0703 156.789 56.0703C156.034 56.0703 155.331 55.1458 154.68 53.2969L145.461 26.1484L133.977 53.6484C133.326 55.263 132.74 56.0703 132.219 56.0703C131.542 56.0703 130.839 55.1458 130.109 53.2969L111.906 9.82031C110.812 7.32031 110.005 5.78385 109.484 5.21094C108.625 4.27344 107.596 3.80469 106.398 3.80469C105.227 3.80469 104.641 3.33594 104.641 2.39844C104.641 2.03385 104.849 1.72135 105.266 1.46094C105.682 1.17448 106.255 1.03125 106.984 1.03125C107.714 1.03125 108.312 1.07031 108.781 1.14844C109.25 1.20052 109.719 1.26562 110.188 1.34375C111.49 1.55208 112.792 1.65625 114.094 1.65625L120.852 1.03125C122.544 1.03125 123.391 1.47396 123.391 2.35938C123.391 2.72396 123.247 3.04948 122.961 3.33594C122.674 3.6224 122.18 3.76562 121.477 3.76562C120.799 3.76562 120.214 3.81771 119.719 3.92188C119.25 4 118.885 4.13021 118.625 4.3125C118.208 4.57292 118 5.01562 118 5.64062C118 6.96875 118.521 8.86979 119.562 11.3438L133.742 45.3672L143.742 21.1484L140.07 10.25C139.211 7.72396 138.391 6.10938 137.609 5.40625C136.438 4.39062 135.148 3.86979 133.742 3.84375C132.336 3.79167 131.633 3.3099 131.633 2.39844C131.633 2.03385 131.841 1.72135 132.258 1.46094C132.674 1.17448 133.247 1.03125 133.977 1.03125C134.706 1.03125 135.305 1.07031 135.773 1.14844C136.242 1.20052 136.724 1.26562 137.219 1.34375C138.495 1.55208 139.784 1.65625 141.086 1.65625L149.758 1.03125C151.451 1.03125 152.297 1.46094 152.297 2.32031C152.297 3.17969 151.594 3.60938 150.188 3.60938C147.479 3.60938 146.125 4.45573 146.125 6.14844C146.125 7.6849 146.646 9.95052 147.688 12.9453L158.664 45.0156L170.695 11.4609C171.451 9.32552 171.828 7.77604 171.828 6.8125C171.828 4.67708 170.214 3.60938 166.984 3.60938C165.865 3.60938 165.305 3.17969 165.305 2.32031C165.305 1.46094 166.151 1.03125 167.844 1.03125C168.677 1.03125 169.615 1.13542 170.656 1.34375C171.724 1.55208 173.026 1.65625 174.562 1.65625L180.422 1.03125ZM214.055 2.24219L215.695 2.00781C216.424 2.00781 216.828 2.60677 216.906 3.80469C216.984 4.97656 217.089 5.9401 217.219 6.69531C217.349 7.45052 217.479 8.1276 217.609 8.72656C217.74 9.32552 217.844 9.83333 217.922 10.25C218.026 10.6667 218.078 11.0182 218.078 11.3047C218.078 11.5651 217.922 11.8255 217.609 12.0859C217.323 12.3203 217.01 12.4375 216.672 12.4375C216.073 12.4375 215.487 11.7995 214.914 10.5234C213.82 8.10156 212.909 6.53906 212.18 5.83594C210.487 4.32552 208 3.57031 204.719 3.57031C200.135 3.57031 197.062 4.9375 195.5 7.67188C195.005 8.55729 194.758 9.63802 194.758 10.9141C194.758 12.1901 195.057 13.388 195.656 14.5078C196.281 15.6276 197.219 16.7604 198.469 17.9062C199.745 19.026 201.359 20.237 203.312 21.5391C205.266 22.8411 207.362 24.2604 209.602 25.7969C211.841 27.3333 213.586 28.7266 214.836 29.9766C216.086 31.2005 217.102 32.4245 217.883 33.6484C219.367 35.9661 220.109 38.2188 220.109 40.4062C220.109 42.5938 219.797 44.5469 219.172 46.2656C218.547 47.9583 217.531 49.4427 216.125 50.7188C213.078 53.5573 208.573 54.9766 202.609 54.9766C199.589 54.9766 196.255 54.3125 192.609 52.9844C191.776 52.6979 191.255 52.3724 191.047 52.0078C190.812 51.5651 190.604 50.7318 190.422 49.5078C190.24 48.2839 190.018 47.1771 189.758 46.1875C189.523 45.1979 189.302 44.3125 189.094 43.5312L188.547 41.5C188.391 40.901 188.312 40.4062 188.312 40.0156C188.312 39.0781 188.664 38.6094 189.367 38.6094C190.305 38.6094 190.982 39.3255 191.398 40.7578C192.128 43.3099 192.779 44.9635 193.352 45.7188C195.565 48.6354 198.13 50.5365 201.047 51.4219C201.906 51.6823 203.052 51.8125 204.484 51.8125C205.943 51.8125 207.362 51.6042 208.742 51.1875C210.148 50.7448 211.307 50.1589 212.219 49.4297C213.938 48.0234 214.797 46.3177 214.797 44.3125C214.797 42.2812 214.146 40.4583 212.844 38.8438C211.568 37.2031 210.018 35.7839 208.195 34.5859C206.398 33.362 205.044 32.4635 204.133 31.8906C203.247 31.3177 202.414 30.7708 201.633 30.25C195.044 25.849 191.151 21.474 189.953 17.125C189.641 15.9792 189.484 14.6641 189.484 13.1797C189.484 11.6953 189.849 10.1719 190.578 8.60938C191.307 7.04688 192.349 5.67969 193.703 4.50781C196.698 1.95573 200.565 0.679688 205.305 0.679688C207.466 0.679688 209.198 0.901042 210.5 1.34375C212.323 1.94271 213.508 2.24219 214.055 2.24219ZM233.039 54.9766C231.659 54.9766 230.578 54.5599 229.797 53.7266C229.016 52.8672 228.625 51.9557 228.625 50.9922C228.625 50.0026 228.742 49.2474 228.977 48.7266C229.237 48.1797 229.589 47.7109 230.031 47.3203C230.917 46.513 231.997 46.1094 233.273 46.1094C234.576 46.1094 235.617 46.526 236.398 47.3594C237.206 48.1927 237.609 49.0781 237.609 50.0156C237.609 50.9531 237.505 51.6953 237.297 52.2422C237.089 52.763 236.776 53.2318 236.359 53.6484C235.526 54.5339 234.419 54.9766 233.039 54.9766ZM247.375 54.5859C245.943 54.5859 245.227 54.1042 245.227 53.1406C245.227 52.3854 245.695 52.0078 246.633 52.0078L248.547 52.2031C250.005 52.2031 250.995 51.5781 251.516 50.3281C252.089 48.8958 252.375 46.0312 252.375 41.7344V14.0391C252.375 9.76823 252.167 7.08594 251.75 5.99219C251.359 4.8724 250.917 4.16927 250.422 3.88281C249.927 3.59635 249.302 3.45312 248.547 3.45312L246.633 3.60938C245.695 3.60938 245.227 3.23177 245.227 2.47656C245.227 1.51302 245.917 1.03125 247.297 1.03125C248.703 1.03125 249.849 1.07031 250.734 1.14844C251.646 1.20052 252.557 1.26562 253.469 1.34375C255.891 1.55208 257.792 1.65625 259.172 1.65625C260.578 1.65625 262.062 1.63021 263.625 1.57812C265.188 1.5 266.932 1.42188 268.859 1.34375C273.938 1.13542 277.453 1.03125 279.406 1.03125C281.385 1.03125 282.479 1.14844 282.688 1.38281C282.922 1.61719 283.039 1.94271 283.039 2.35938C283.039 2.75 283.026 3.1276 283 3.49219C283 3.85677 282.987 4.26042 282.961 4.70312C282.935 5.30208 282.857 6.20052 282.727 7.39844C282.596 8.57031 282.44 9.36458 282.258 9.78125C282.076 10.1719 281.815 10.3672 281.477 10.3672C281.138 10.3672 280.904 10.2891 280.773 10.1328C280.643 9.95052 280.461 9.5599 280.227 8.96094C280.018 8.33594 279.628 7.75 279.055 7.20312C278.508 6.63021 277.635 6.16146 276.438 5.79688C274.094 5.09375 269.758 4.74219 263.43 4.74219H259.953C259.328 4.74219 258.924 4.83333 258.742 5.01562C258.586 5.19792 258.508 5.61458 258.508 6.26562V22.7109C261.607 23.0755 264.172 23.2578 266.203 23.2578C268.26 23.2578 269.719 23.2448 270.578 23.2188C271.464 23.1927 272.193 23.1146 272.766 22.9844C273.781 22.8021 274.51 22.3464 274.953 21.6172C275.839 20.237 276.555 19.5469 277.102 19.5469C277.805 19.5469 278.156 19.9115 278.156 20.6406L276.789 26.1875L276.945 29.1562C276.945 31.0312 276.503 31.9688 275.617 31.9688C274.862 31.9688 274.484 31.474 274.484 30.4844C274.484 29.4688 274.419 28.7135 274.289 28.2188C274.185 27.724 273.859 27.3333 273.312 27.0469C272.479 26.6302 270.448 26.4219 267.219 26.4219C263.99 26.4219 261.086 26.5651 258.508 26.8516V36.1094C258.508 41.8646 258.638 46.6172 258.898 50.3672C261.008 50.8359 263.299 51.0703 265.773 51.0703C268.247 51.0703 270.357 51.0052 272.102 50.875C273.872 50.7448 275.396 50.4844 276.672 50.0938C279.198 49.3385 281.06 47.8932 282.258 45.7578C282.779 44.8203 283.299 44.3516 283.82 44.3516C284.341 44.3516 284.602 44.7292 284.602 45.4844C284.602 45.7969 284.51 46.2005 284.328 46.6953C284.12 47.3724 283.82 48.388 283.43 49.7422C283.039 51.0703 282.74 52.0339 282.531 52.6328C282.323 53.2318 282.089 53.6875 281.828 54C281.438 54.5208 280.669 54.7812 279.523 54.7812C278.378 54.7812 277.271 54.7682 276.203 54.7422C275.135 54.7422 274.016 54.7292 272.844 54.7031C271.49 54.651 269.393 54.5469 266.555 54.3906C259.471 54.0521 255.318 53.9349 254.094 54.0391C252.87 54.1432 251.945 54.2214 251.32 54.2734C250.695 54.3516 250.083 54.4167 249.484 54.4688C248.885 54.5469 248.182 54.5859 247.375 54.5859ZM318.117 2.24219L319.758 2.00781C320.487 2.00781 320.891 2.60677 320.969 3.80469C321.047 4.97656 321.151 5.9401 321.281 6.69531C321.411 7.45052 321.542 8.1276 321.672 8.72656C321.802 9.32552 321.906 9.83333 321.984 10.25C322.089 10.6667 322.141 11.0182 322.141 11.3047C322.141 11.5651 321.984 11.8255 321.672 12.0859C321.385 12.3203 321.073 12.4375 320.734 12.4375C320.135 12.4375 319.549 11.7995 318.977 10.5234C317.883 8.10156 316.971 6.53906 316.242 5.83594C314.549 4.32552 312.062 3.57031 308.781 3.57031C304.198 3.57031 301.125 4.9375 299.562 7.67188C299.068 8.55729 298.82 9.63802 298.82 10.9141C298.82 12.1901 299.12 13.388 299.719 14.5078C300.344 15.6276 301.281 16.7604 302.531 17.9062C303.807 19.026 305.422 20.237 307.375 21.5391C309.328 22.8411 311.424 24.2604 313.664 25.7969C315.904 27.3333 317.648 28.7266 318.898 29.9766C320.148 31.2005 321.164 32.4245 321.945 33.6484C323.43 35.9661 324.172 38.2188 324.172 40.4062C324.172 42.5938 323.859 44.5469 323.234 46.2656C322.609 47.9583 321.594 49.4427 320.188 50.7188C317.141 53.5573 312.635 54.9766 306.672 54.9766C303.651 54.9766 300.318 54.3125 296.672 52.9844C295.839 52.6979 295.318 52.3724 295.109 52.0078C294.875 51.5651 294.667 50.7318 294.484 49.5078C294.302 48.2839 294.081 47.1771 293.82 46.1875C293.586 45.1979 293.365 44.3125 293.156 43.5312L292.609 41.5C292.453 40.901 292.375 40.4062 292.375 40.0156C292.375 39.0781 292.727 38.6094 293.43 38.6094C294.367 38.6094 295.044 39.3255 295.461 40.7578C296.19 43.3099 296.841 44.9635 297.414 45.7188C299.628 48.6354 302.193 50.5365 305.109 51.4219C305.969 51.6823 307.115 51.8125 308.547 51.8125C310.005 51.8125 311.424 51.6042 312.805 51.1875C314.211 50.7448 315.37 50.1589 316.281 49.4297C318 48.0234 318.859 46.3177 318.859 44.3125C318.859 42.2812 318.208 40.4583 316.906 38.8438C315.63 37.2031 314.081 35.7839 312.258 34.5859C310.461 33.362 309.107 32.4635 308.195 31.8906C307.31 31.3177 306.477 30.7708 305.695 30.25C299.107 25.849 295.214 21.474 294.016 17.125C293.703 15.9792 293.547 14.6641 293.547 13.1797C293.547 11.6953 293.911 10.1719 294.641 8.60938C295.37 7.04688 296.411 5.67969 297.766 4.50781C300.76 1.95573 304.628 0.679688 309.367 0.679688C311.529 0.679688 313.26 0.901042 314.562 1.34375C316.385 1.94271 317.57 2.24219 318.117 2.24219Z" fill="white"/>
</svg>
