<svg width="16" height="16" viewBox="0 0 16 16" fill="none" xmlns="http://www.w3.org/2000/svg">
<path d="M7.99999 3.99255C5.79025 3.99255 3.99255 5.7906 3.99255 8.00035C3.99255 10.2101 5.79025 12.0081 7.99999 12.0081C10.2094 12.0081 12.0074 10.2104 12.0074 8.00035C12.0074 5.79025 10.2094 3.99255 7.99999 3.99255Z" fill="white"/>
<path d="M7.99995 2.81453C7.56806 2.81453 7.21802 2.46448 7.21802 2.03295V0.781931C7.21802 0.350044 7.56806 0 7.99995 0C8.43184 0 8.78188 0.350044 8.78188 0.781931V2.03295C8.78188 2.46448 8.43148 2.81453 7.99995 2.81453Z" fill="white"/>
<path d="M7.99995 13.1851C7.56806 13.1851 7.21802 13.5352 7.21802 13.9671V15.2177C7.21802 15.65 7.56806 16 7.99995 16C8.43184 16 8.78188 15.65 8.78188 15.2177V13.9671C8.78188 13.5352 8.43148 13.1851 7.99995 13.1851Z" fill="white"/>
<path d="M11.6663 4.33339C11.3612 4.02798 11.3612 3.53303 11.6663 3.22763L12.551 2.34295C12.856 2.0379 13.3513 2.0379 13.6567 2.34295C13.9621 2.64836 13.9621 3.14366 13.6567 3.44871L12.772 4.33339C12.467 4.63879 11.972 4.63879 11.6663 4.33339Z" fill="white"/>
<path d="M4.33337 11.667C4.02796 11.3612 3.53301 11.3612 3.22761 11.667L2.34293 12.5513C2.03788 12.8563 2.03753 13.352 2.34293 13.6571C2.64834 13.9621 3.14364 13.9621 3.44869 13.6571L4.33337 12.772C4.63877 12.467 4.63877 11.9717 4.33337 11.667Z" fill="white"/>
<path d="M13.1852 8.00001C13.1852 7.56812 13.5352 7.21808 13.9671 7.21808H15.2181C15.65 7.21808 16.0001 7.56812 16.0001 8.00001C16.0001 8.4319 15.65 8.78159 15.2181 8.78159H13.9671C13.5352 8.78159 13.1852 8.4319 13.1852 8.00001Z" fill="white"/>
<path d="M2.81453 8.00001C2.81453 7.56812 2.46448 7.21808 2.0326 7.21808H0.781931C0.350044 7.21808 0 7.56812 0 8.00001C0 8.4319 0.350044 8.78159 0.781931 8.78159H2.03295C2.46448 8.78159 2.81453 8.4319 2.81453 8.00001Z" fill="white"/>
<path d="M11.6662 11.667C11.9716 11.3619 12.4669 11.3619 12.7719 11.667L13.6566 12.5516C13.962 12.8563 13.962 13.352 13.6566 13.657C13.3512 13.9621 12.8563 13.9621 12.5509 13.657L11.6662 12.7724C11.3608 12.467 11.3608 11.972 11.6662 11.667Z" fill="white"/>
<path d="M4.33338 4.33339C4.63878 4.02799 4.63878 3.53304 4.33338 3.22763L3.4487 2.34331C3.1433 2.03791 2.64835 2.03791 2.34294 2.34331C2.03754 2.64836 2.03754 3.14366 2.34294 3.44871L3.22762 4.33339C3.53302 4.63915 4.02797 4.63915 4.33338 4.33339Z" fill="white"/>
</svg>
