<svg width="116" height="116" viewBox="0 0 116 116" fill="none" xmlns="http://www.w3.org/2000/svg">
<circle cx="58" cy="58" r="56.5" stroke="white" stroke-width="3"/>
<g clip-path="url(#clip0)">
<path d="M78.5062 37.4938C73.0287 32.0166 65.7462 29 58 29C50.2538 29 42.9713 32.0166 37.4938 37.4938C32.0166 42.9713 29 50.2538 29 58C29 65.7462 32.0166 73.0287 37.4938 78.5062C42.9713 83.9834 50.2538 87 58 87C65.7462 87 73.0287 83.9834 78.5062 78.5062C83.9834 73.0287 87 65.7462 87 58C87 50.2538 83.9834 42.9713 78.5062 37.4938ZM68.2378 46.063C71.9974 46.063 75.056 49.1216 75.056 52.8812H71.6575C71.6575 50.9955 70.1235 49.4614 68.2378 49.4614C66.3521 49.4614 64.8181 50.9955 64.8181 52.8812H61.4196C61.4197 49.1216 64.4783 46.063 68.2378 46.063ZM47.7622 46.063C51.5218 46.063 54.5804 49.1216 54.5804 52.8812H51.1819C51.1819 50.9955 49.6479 49.4614 47.7622 49.4614C45.8765 49.4614 44.3425 50.9955 44.3425 52.8812H40.944C40.9441 49.1216 44.0027 46.063 47.7622 46.063ZM58 76.7622C50.5391 76.7622 43.7875 72.3438 40.7998 65.5057L43.9139 64.1449C46.3608 69.7451 51.8898 73.3637 58 73.3637C64.1101 73.3637 69.6391 69.7451 72.0861 64.1451L75.2002 65.5058C72.2124 72.3438 65.4609 76.7622 58 76.7622Z" fill="white"/>
</g>
<defs>
<clipPath id="clip0">
<rect width="58" height="58" fill="white" transform="translate(29 29)"/>
</clipPath>
</defs>
</svg>
