<svg width="116" height="116" viewBox="0 0 116 116" fill="none" xmlns="http://www.w3.org/2000/svg">
<circle cx="58" cy="58" r="56.5" stroke="white" stroke-width="3"/>
<g clip-path="url(#clip0)">
<path d="M58.5126 45.8448C61.0662 45.8448 63.5593 46.4948 65.759 47.7094C65.9206 47.7987 66.1154 47.7987 66.2772 47.7094C70.2208 45.5314 74.8505 45.3002 78.8342 46.8143C79.2324 46.9656 79.6331 46.6055 79.5315 46.1919C77.9866 39.9053 72.2178 35.2209 65.3579 35.2209C61.6648 35.2209 58.1509 36.5877 55.4723 39.0206C52.7936 36.5877 49.2798 35.2209 45.5866 35.2209C31.785 35.2209 21.1805 54.5324 45.6276 70.4562C46.097 70.7619 46.6591 70.2219 46.3681 69.7433C39.2774 58.0797 47.1508 45.8448 58.5126 45.8448Z" fill="white"/>
<path d="M79.8679 51.1073C75.5738 48.2898 69.898 48.6649 66.0181 51.97C63.9469 50.2056 61.2946 49.2196 58.5126 49.2196C47.8602 49.2196 40.0382 63.5475 56.6176 75.5588C61.0183 78.7458 65.3516 80.5122 65.7175 80.6588C66.1276 80.8219 66.5835 80.819 66.9915 80.6503C67.1728 80.5744 71.4819 78.7679 75.8457 75.4744C78.4505 73.5066 80.5365 71.4122 82.0456 69.2471C86.921 62.2526 85.4627 54.771 79.8679 51.1073Z" fill="white"/>
</g>
<defs>
<clipPath id="clip0">
<rect width="54" height="54" fill="white" transform="translate(31 31)"/>
</clipPath>
</defs>
</svg>
