<svg width="116" height="116" viewBox="0 0 116 116" fill="none" xmlns="http://www.w3.org/2000/svg">
<circle cx="58" cy="58" r="56.5" stroke="white" stroke-width="3"/>
<g clip-path="url(#clip0)">
<path d="M63.75 47.4583C62.692 47.4583 61.8334 46.5996 61.8334 45.5416V42.6666H54.1667V45.5416C54.1667 46.5996 53.308 47.4583 52.25 47.4583C51.192 47.4583 50.3334 46.5996 50.3334 45.5416V42.6666C50.3334 40.5525 52.0526 38.8333 54.1667 38.8333H61.8334C63.9475 38.8333 65.6667 40.5525 65.6667 42.6666V45.5416C65.6667 46.5996 64.808 47.4583 63.75 47.4583Z" fill="white"/>
<path d="M59.3608 64.4784C59.0158 64.6126 58.5175 64.7084 58 64.7084C57.4825 64.7084 56.9842 64.6126 56.5242 64.4401L35 57.2717V71.8959C35 74.8092 37.3575 77.1667 40.2708 77.1667H75.7292C78.6425 77.1667 81 74.8092 81 71.8959V57.2717L59.3608 64.4784Z" fill="white"/>
<path d="M81 49.8541V54.2433L58.46 61.7566C58.3067 61.8141 58.1533 61.8333 58 61.8333C57.8467 61.8333 57.6933 61.8141 57.54 61.7566L35 54.2433V49.8541C35 46.9408 37.3575 44.5833 40.2708 44.5833H75.7292C78.6425 44.5833 81 46.9408 81 49.8541Z" fill="white"/>
</g>
<defs>
<clipPath id="clip0">
<rect width="46" height="46" fill="white" transform="translate(35 35)"/>
</clipPath>
</defs>
</svg>
