<svg width="326" height="6" viewBox="0 0 326 6" fill="none" xmlns="http://www.w3.org/2000/svg">
<path d="M65.866 0.181198L68.9362 0.302534C69.8716 0.227036 71.5267 0.214901 73.0378 0.183893C74.0452 0.200071 75.0526 0.220295 76.108 0.235125C77.1634 0.249955 78.8904 0.198723 80.1617 0.259391C80.3056 0.266132 81.0972 0.243214 81.5049 0.227036C83.064 0.159627 83.04 0.159626 84.4312 0.255347C84.7064 0.267821 85.0039 0.278663 85.3187 0.287702C86.2542 0.262086 87.2856 0.23108 88.3889 0.205465C89.4923 0.179849 90.7876 0.162323 91.9629 0.138056C92.5681 0.179299 93.416 0.207004 94.3531 0.216154C95.2903 0.225303 96.2547 0.215293 97.0719 0.187938C98.1273 0.155581 98.727 0.210859 99.6864 0.240519C100.07 0.214903 100.478 0.189285 100.934 0.162322C102.493 0.189285 103.908 0.264786 105.731 0.198725C106.238 0.193402 106.761 0.199191 107.194 0.214903C108.034 0.246792 109.031 0.262925 110.044 0.260987C111.056 0.25905 112.032 0.239139 112.831 0.204115C113.568 0.181374 114.389 0.168459 115.229 0.166366C115.686 0.161224 116.118 0.15077 116.498 0.135678C116.878 0.120585 117.198 0.101189 117.436 0.0787354C119.043 0.103003 119.403 0.190635 120.506 0.235125L123.697 0.170411L125.615 0.240519C126.215 0.217599 126.695 0.18659 127.27 0.179849C127.94 0.176283 128.612 0.184781 129.189 0.204115C129.884 0.232854 130.527 0.265367 131.108 0.301184L131.372 0.313317L131.012 0.306578C131.244 0.289467 131.528 0.274849 131.852 0.263435C132.479 0.254577 133.089 0.24239 133.675 0.227036C134.127 0.202497 134.5 0.173764 134.778 0.1421C136.625 0.239169 136.961 0.245911 138.856 0.189287C139.106 0.178183 139.404 0.170968 139.72 0.168366C140.036 0.165763 140.358 0.167862 140.655 0.174455C141.326 0.191981 141.902 0.174457 142.526 0.155583C143.797 0.131315 145.116 0.109744 145.932 0.20142C146.148 0.225687 147.035 0.239169 147.659 0.247258C148.453 0.253781 149.255 0.256937 150.057 0.256696C149.913 0.256696 150.489 0.285008 150.057 0.256696L151.233 0.136706C151.904 0.173107 152.408 0.202767 152.936 0.233775C153.655 0.210856 154.135 0.165018 155.214 0.178499C156.294 0.191981 157.013 0.196027 157.949 0.205465L158.596 0.11109C159.326 0.142307 160.086 0.171118 160.875 0.197376C162.89 0.255348 163.274 0.249956 165.432 0.156932L166.992 0.204115L167.807 0.154233C168.383 0.187938 168.886 0.24456 170.206 0.204115C170.685 0.165018 169.75 0.144798 169.774 0.109745C171.501 0.057166 171.333 0.174458 172.58 0.198725L174.403 0.116484C174.667 0.159626 174.931 0.200073 175.171 0.236474C177.042 0.258045 176.922 0.150189 177.569 0.1421C178.961 0.12727 178.985 0.160974 179.248 0.183893C179.443 0.199627 179.732 0.210884 180.063 0.21559C180.393 0.220296 180.743 0.218136 181.047 0.209509C182.894 0.140752 184.957 0.20142 186.9 0.175804C187.476 0.169064 188.291 0.208161 189.083 0.227036L191.146 0.150189L194.576 0.241864L200.932 0.155583L204.842 0.249953L206.785 0.186588L209.183 0.286356C210.443 0.281739 211.695 0.271367 212.925 0.255347C213.911 0.230209 214.844 0.19901 215.707 0.162322C215.707 0.182545 215.875 0.201418 215.971 0.220293C216.187 0.267479 216.955 0.30523 217.674 0.294445C219.062 0.274936 220.504 0.270816 221.92 0.282312C222.807 0.282312 223.791 0.237819 224.894 0.208159C225.518 0.24456 226.069 0.283657 226.741 0.317362C226.957 0.329495 227.437 0.329497 227.796 0.336238C227.796 0.342979 227.796 0.349718 227.796 0.355111C227.796 0.360503 227.94 0.361852 228.036 0.364549L227.7 0.341632C227.7 0.306579 227.509 0.262088 228.564 0.268829C229.619 0.27557 230.363 0.295794 231.178 0.248607C231.37 0.236474 232.114 0.248607 232.618 0.248607H234.728C235.208 0.291749 235.4 0.361854 236.791 0.383425C237.271 0.427915 237.895 0.429263 238.926 0.383425H236.671C236.671 0.349721 236.671 0.31332 237.775 0.324105C238.273 0.330159 238.788 0.330159 239.286 0.324105C240.005 0.316016 240.365 0.240517 241.229 0.276918C242.092 0.313319 243.939 0.29849 244.371 0.383425C244.371 0.392862 244.755 0.400949 244.971 0.410386C246.05 0.410386 246.074 0.332194 247.369 0.336238C248.664 0.340283 247.969 0.235123 249.12 0.212204C249.12 0.25939 249.336 0.306578 249.48 0.365898L251.879 0.276918C253.126 0.293096 252.094 0.376684 253.342 0.38747V0.380726C253.51 0.413083 253.342 0.46971 254.277 0.460272C255.812 0.442746 257.179 0.483188 258.643 0.477795C259.032 0.473215 259.417 0.467367 259.794 0.460272C259.794 0.387471 258.211 0.413085 257.851 0.365898C258.235 0.326801 258.691 0.293098 259.698 0.303883C261.113 0.318713 262.624 0.322758 263.464 0.400952C263.851 0.425435 264.305 0.446359 264.807 0.462967L267.206 0.301184L271.043 0.419825C271.235 0.406399 271.443 0.393782 271.667 0.382076C272.603 0.338934 273.514 0.347022 273.802 0.402298C273.965 0.438601 274.077 0.475564 274.138 0.512849C274.937 0.515221 275.737 0.515221 276.536 0.512849C277.999 0.512849 279.055 0.4751 278.791 0.449485C278.287 0.40095 277.376 0.422521 276.632 0.41578C276.496 0.415369 276.364 0.413053 276.248 0.409041C276.105 0.398899 275.991 0.387517 275.913 0.375336C275.913 0.375336 276.105 0.357811 276.129 0.359159C277.496 0.386123 278.095 0.294445 279.367 0.302534C279.87 0.33489 280.374 0.367245 280.902 0.398253L285.699 0.337588C286.658 0.326802 287.81 0.324106 288.361 0.367248C288.913 0.41039 289.393 0.413083 290.304 0.394209C291.216 0.375334 291.216 0.431959 291.767 0.462967C292.319 0.448137 292.919 0.433307 293.447 0.41578C294.169 0.392807 294.966 0.378333 295.791 0.373234C296.616 0.368135 297.45 0.372518 298.244 0.38612C300.506 0.415716 302.841 0.423917 305.152 0.410386C306.664 0.410221 308.174 0.417895 309.661 0.433307L308.174 0.498021L312.971 0.526332C312.348 0.537117 311.724 0.538463 311.556 0.553293C310.597 0.63688 309.709 0.723164 308.894 0.810796C308.796 0.821943 308.74 0.834121 308.731 0.846541C308.722 0.858961 308.76 0.871349 308.841 0.882908C308.923 0.894466 309.046 0.904935 309.204 0.913646C309.362 0.922357 309.55 0.929114 309.757 0.933481C309.973 0.933481 310.429 0.933483 310.525 0.944268C312.324 1.08987 315.514 1.08987 318.44 1.14515L316.665 1.22199C316.377 1.25839 317.049 1.27053 317.241 1.29345C317.407 1.31721 317.512 1.34217 317.553 1.36759L312.995 1.50241C312.995 1.54555 313.403 1.55634 314.003 1.56173C315.617 1.57153 317.219 1.58684 318.8 1.60757C320.692 1.6408 322.649 1.66073 324.629 1.66689C325.012 1.71003 324.772 1.72891 324.197 1.74374C323.621 1.75857 322.83 1.78418 322.038 1.8071L325.276 1.94192C324.628 2.00663 324.077 2.06191 323.525 2.11449C323.55 2.12875 323.607 2.14279 323.693 2.15628C324.117 2.18971 324.418 2.22755 324.579 2.2676C324.739 2.30765 324.756 2.3491 324.629 2.38952C324.365 2.46097 324.629 2.53782 324.413 2.61197C324.365 2.62944 324.39 2.6473 324.486 2.66414C324.582 2.68097 324.745 2.69634 324.964 2.70903C325.828 2.74678 325.78 2.79667 325.948 2.84385C326.116 2.89104 325.948 2.89239 324.413 2.95845C322.686 2.87756 322.326 2.75352 320.959 2.65376C319.677 2.6782 318.349 2.69404 317.001 2.70095C315.715 2.69263 314.413 2.69812 313.163 2.71712C312.875 2.8061 314.195 2.85194 315.058 2.91531C314.051 2.91531 312.995 2.90587 312.659 2.92609C311.604 2.98406 309.493 2.94362 308.87 3.05012L317.097 3.12293L315.634 3.27797L316.809 3.37773H313.547C312.827 3.33594 312.683 3.29954 313.547 3.26988L313.811 3.28066L313.451 3.27392C312.755 3.18629 311.052 3.16472 309.637 3.13236C308.222 3.1 307.239 3.08922 305.967 3.069C304.96 3.11483 305.128 3.15393 306.135 3.18899L305.2 3.2564L306.807 3.28606C305.871 3.37908 305.607 3.48559 304 3.55569C303.665 3.57052 302.681 3.55569 302.753 3.54086C302.945 3.48693 302.201 3.46536 301.578 3.42627C298.604 3.50446 295.198 3.52468 292.175 3.60692C291.029 3.64894 289.681 3.67011 288.313 3.66759C287.911 3.66934 287.524 3.67676 287.186 3.68916C286.931 3.69689 286.717 3.70837 286.568 3.72237C286.419 3.73638 286.341 3.75239 286.341 3.7687C286.341 3.78502 286.419 3.80103 286.568 3.81503C286.717 3.82904 286.931 3.84051 287.186 3.84824C287.766 3.86737 288.398 3.88104 289.057 3.88869C289.893 3.89482 290.694 3.91146 291.4 3.93736C292.106 3.96327 292.699 3.99778 293.135 4.03834L291.216 4.11923C292.223 4.19473 294.166 4.1435 295.245 4.20552C295.701 4.27427 293.518 4.30258 294.31 4.37673C294.675 4.42664 294.775 4.48143 294.598 4.53447C292.991 4.58435 293.135 4.44953 291.791 4.48189C291.791 4.49268 291.791 4.50616 291.791 4.51425C292.103 4.5466 292.463 4.57896 293.231 4.58165C294.461 4.5857 295.694 4.5857 296.924 4.58165C297.74 4.58165 298.028 4.54795 297.788 4.49133C297.476 4.50481 297.284 4.51964 297.044 4.52233C296.805 4.52503 296.133 4.52233 296.037 4.52233C295.198 4.45088 295.701 4.38752 297.188 4.38752C298.676 4.38752 300.379 4.37808 302.465 4.37134C303.521 4.41718 305.584 4.42257 307.263 4.49807L304.024 4.54256C304.672 4.65176 306.567 4.67737 308.054 4.73265C307.862 4.75692 307.79 4.79467 307.454 4.8041C306.255 4.83511 305.056 4.85668 303.641 4.8823L305.895 5.05217C307.143 5.09531 308.846 5.05217 310.045 5.10205C310.045 5.11419 310.045 5.12767 310.045 5.12767L305.488 5.20586C305.523 5.19336 305.523 5.18062 305.488 5.16811C305.406 5.15844 305.292 5.14975 305.152 5.1425C305.152 5.15328 304.984 5.16542 305.152 5.17351C305.32 5.1816 305.488 5.19103 305.679 5.20047L303.928 5.41483C303.233 5.38113 302.297 5.35551 301.938 5.31372C301.29 5.24631 299.851 5.28271 299.011 5.23687C298.172 5.19103 297.164 5.23687 296.445 5.26114C295.15 5.31102 293.47 5.27462 292.199 5.32046C289.105 5.30698 286.083 5.38787 282.941 5.34742C281.541 5.37684 280.011 5.38014 278.575 5.35686C277.352 5.33529 275.985 5.39865 274.881 5.32181C274.497 5.37034 274.306 5.39596 274.09 5.42157H274.21L271.259 5.40135L269.532 5.48224C268.237 5.45932 267.709 5.37034 266.102 5.37573L262.289 5.39056C262.025 5.42157 261.737 5.45932 261.425 5.49572C259.626 5.51055 258.643 5.41888 256.868 5.40135L255.716 5.50651C254.709 5.52134 253.749 5.44449 252.694 5.50651C252.574 5.51325 251.926 5.50651 251.591 5.49302C251.255 5.47954 251.039 5.46202 250.727 5.44988C249.696 5.41079 249.384 5.41618 248.161 5.48629L247.345 5.43775L246.793 5.40674L247.489 5.35012L245.69 5.23957L246.17 5.16676C245.906 5.15733 245.714 5.1452 245.522 5.1452C243.124 5.1452 240.893 5.1452 238.566 5.1452C238.134 5.1452 237.367 5.17485 237.391 5.18968C237.391 5.25979 236.527 5.24496 235.76 5.2517C234.992 5.25844 234.752 5.19912 233.913 5.18025C232.138 5.28945 233.697 5.42831 232.642 5.55369C232.402 5.50786 232.186 5.47011 232.018 5.43101C231.853 5.38225 231.637 5.33408 231.37 5.28675C231.033 5.24016 230.632 5.19509 230.171 5.15194C230.082 5.14414 229.96 5.13773 229.815 5.13329C229.67 5.12885 229.508 5.12653 229.344 5.12653C229.179 5.12653 229.017 5.12885 228.872 5.13329C228.727 5.13773 228.605 5.14414 228.516 5.15194C228.324 5.16137 228.252 5.1762 228.084 5.18699C227.921 5.19799 227.745 5.20834 227.557 5.218C226.549 5.12362 225.158 5.16002 223.599 5.1762C222.927 5.23283 223.887 5.26788 224.175 5.31102C226.285 5.32315 226.285 5.32315 226.213 5.41213C226.213 5.44045 226.213 5.46876 226.213 5.49707C226.213 5.52538 225.949 5.51864 225.806 5.52942C224.366 5.55639 224.318 5.45393 223.167 5.45393V5.46067C222.927 5.4391 222.711 5.4027 222.448 5.40135C222.298 5.39996 222.144 5.40069 222.001 5.40347C221.857 5.40626 221.729 5.41102 221.626 5.41731C221.524 5.4236 221.451 5.43124 221.414 5.43951C221.377 5.44779 221.378 5.45646 221.416 5.46471C221.428 5.47774 221.428 5.49079 221.416 5.50381C220.145 5.52134 219.377 5.48089 218.538 5.4391C218.178 5.46741 217.962 5.50381 217.458 5.51864C216.736 5.53129 215.984 5.53766 215.228 5.53751C215.028 5.50869 214.735 5.48219 214.364 5.45932C213.812 5.43958 213.215 5.42416 212.589 5.41348C213.189 5.31237 213.189 5.31237 211.822 5.26249C211.131 5.33962 210.7 5.42326 210.55 5.5092L207.264 5.49168L205.369 5.57931L202.971 5.51999C201.747 5.54561 201.244 5.60762 200.308 5.65481C199.973 5.64133 199.565 5.63189 199.397 5.61571C198.917 5.56718 198.509 5.5146 198.054 5.46337C197.358 5.47685 196.471 5.51055 196.063 5.49842C194.741 5.46615 193.253 5.46278 191.889 5.48898L190.21 5.61571C188.579 5.59549 189.898 5.47011 187.955 5.45528L186.588 5.55774L185.773 5.51325C185.615 5.50257 185.471 5.49131 185.341 5.47954C184.142 5.54156 184.142 5.54156 182.726 5.53212C182.577 5.54328 182.441 5.55499 182.319 5.56717C182.319 5.57931 182.103 5.59279 182.007 5.60492C180.88 5.56987 179.8 5.53347 178.649 5.49976C178.381 5.48937 178.078 5.48215 177.758 5.47856C177.439 5.47496 177.11 5.47505 176.791 5.47884C176.472 5.48262 176.171 5.49002 175.905 5.50057C175.638 5.51112 175.413 5.52461 175.243 5.54021C174.739 5.58201 173.468 5.59818 172.532 5.62515C171.883 5.6229 171.266 5.60835 170.782 5.58387C170.299 5.55938 169.977 5.52641 169.87 5.49033C168.845 5.49831 167.809 5.50102 166.776 5.49842C166.107 5.49472 165.432 5.50001 164.806 5.51384C164.181 5.52766 163.623 5.54964 163.178 5.57796L161.691 5.48224L160.515 5.53482C159.251 5.49553 157.8 5.4795 156.366 5.48898C155.914 5.49632 155.439 5.49795 154.974 5.49375C154.51 5.48956 154.068 5.47964 153.679 5.46471C153.535 5.45663 153.08 5.44853 152.96 5.45393C150.729 5.54156 148.378 5.4755 146.028 5.46337C145.62 5.51055 145.26 5.55504 144.828 5.59818C144.748 5.60406 144.644 5.60882 144.526 5.61209C144.407 5.61536 144.277 5.61706 144.145 5.61706C144.013 5.61706 143.882 5.61536 143.764 5.61209C143.645 5.60882 143.542 5.60406 143.461 5.59818C143.149 5.55909 142.933 5.51999 142.67 5.47954C141.446 5.47954 140.271 5.50785 139.144 5.47954C138.952 5.47954 138.352 5.50651 137.92 5.52134C136.322 5.50174 134.657 5.50829 133.123 5.54021C132.294 5.5633 131.342 5.56807 130.454 5.5536C129.565 5.53912 128.806 5.50644 128.326 5.46202C128.326 5.46202 128.086 5.46202 127.942 5.45258C126.767 5.4364 126.599 5.51729 125.28 5.52269C123.96 5.52808 122.713 5.4391 120.938 5.46606L118.372 5.37978C117.124 5.39596 117.34 5.44449 117.22 5.48494H113.047L111.943 5.42022C111.416 5.4364 110.888 5.46606 110.384 5.46606C109.728 5.4579 109.103 5.4433 108.537 5.42292L107.674 5.46202L104.076 5.37034C103.14 5.38113 103.86 5.4337 103.044 5.4337C100.965 5.41438 98.9248 5.38367 96.952 5.34203L93.6899 5.47685C93.2153 5.44481 92.7024 5.41463 92.1548 5.38652C91.5851 5.36478 90.9833 5.34583 90.3558 5.3299C90.7792 5.31066 91.2578 5.29561 91.771 5.2854C93.0902 5.27327 94.4575 5.26788 95.8007 5.26249C96.2953 5.262 96.7752 5.25293 97.1745 5.23652C97.5739 5.22011 97.8732 5.19715 98.0314 5.17081C97.269 5.13399 96.468 5.09978 95.6328 5.06835C94.584 5.03809 93.3893 5.02768 92.2267 5.03869C91.0466 5.04229 89.8821 5.02222 88.9406 4.98206C89.2902 4.97426 89.6273 4.96479 89.9481 4.95375C90.0433 4.94975 90.118 4.94439 90.1643 4.93823C90.2107 4.93208 90.2271 4.92533 90.2119 4.9187C90.2119 4.91061 89.8041 4.90252 89.5883 4.90387C89.4756 4.90477 89.3686 4.9072 89.2766 4.91096C89.1846 4.91472 89.1104 4.9197 89.0606 4.92544C89.0243 4.94606 89.0243 4.96684 89.0606 4.98746C87.8852 4.98746 86.8299 5.01577 85.5106 4.98746C84.2042 4.96196 82.7754 4.96485 81.5049 4.99555C79.8175 5.00194 78.1229 4.99237 76.4918 4.96724C75.8704 4.95363 75.2281 4.94324 74.5729 4.93623C73.1817 4.9214 71.8145 4.97398 70.6392 4.96589C69.4639 4.9578 68.2406 4.92005 66.7534 4.95375C65.8748 4.9706 64.9216 4.9706 64.043 4.95375C62.5538 4.92309 60.9752 4.90846 59.3897 4.91061C57.7727 4.89934 56.1703 4.88222 54.5925 4.85938C52.6976 4.84859 50.7547 4.85938 48.8598 4.84995C47.3487 4.84995 45.8855 4.83107 44.3984 4.82028C42.9112 4.8095 40.8964 4.79062 39.1454 4.78119C38.6356 4.78424 38.1399 4.79246 37.6822 4.80545L35.2836 4.84051C34.4441 4.78658 35.4035 4.70569 34.1083 4.66659C34.3482 4.65176 34.588 4.63558 34.9478 4.61536C35.3316 4.64232 35.6194 4.66524 35.9552 4.68547C36.291 4.70569 37.1785 4.73265 37.7062 4.70029C37.9442 4.68205 38.2674 4.66786 38.6399 4.6593C39.0124 4.65073 39.4198 4.64813 39.817 4.65176C41.1682 4.65984 42.533 4.65711 43.8707 4.64367C46.8689 4.63019 49.8192 4.65446 52.8175 4.65176C53.8489 4.65176 54.6644 4.63019 54.7604 4.56683C54.7604 4.55334 55.1681 4.53986 55.36 4.52773C55.5938 4.54135 55.8028 4.55626 55.9837 4.57222C56.1674 4.58996 56.3278 4.60843 56.4634 4.62749C58.1664 4.63423 58.7421 4.56008 59.9893 4.5102C57.5907 4.41852 54.4006 4.46976 52.4577 4.35247C52.0899 4.37859 51.605 4.39873 51.0527 4.41082C50.5004 4.4229 49.9007 4.42649 49.3155 4.42122C46.653 4.39021 43.9186 4.37538 41.2562 4.34572C38.785 4.30339 36.169 4.29507 33.6286 4.32146C33.4951 4.32352 33.3542 4.32352 33.2208 4.32146C31.4938 4.26214 29.479 4.31067 27.3922 4.2891L29.383 4.24326C29.383 4.22709 29.383 4.20551 29.1911 4.20282C27.656 4.17585 26.1209 4.15159 24.5618 4.12732C24.4384 4.12461 24.3014 4.12461 24.178 4.12732C21.9953 4.18933 20.3642 4.09092 18.4693 4.07474C17.9416 4.07474 17.5579 4.02216 17.8697 4.00868C18.1815 3.9952 18.5893 4.00868 18.9491 3.99789C19.182 3.99436 19.4072 3.98939 19.6207 3.98306C19.1585 3.90384 18.6056 3.82639 17.9656 3.75118C17.3437 3.70443 16.6274 3.6619 15.8309 3.62445C15.3271 3.59479 14.8474 3.56243 14.2718 3.52603L16.1667 3.44783C17.7018 3.5085 19.9085 3.50851 21.3237 3.60288L20.0044 3.63523C19.7882 3.64196 19.5869 3.6501 19.4048 3.6595C19.4048 3.68646 19.6686 3.71343 19.8365 3.74983L22.6909 3.71073L25.5213 3.72556C26.3608 3.70803 27.0084 3.62445 28.1118 3.70804C29.5749 3.6986 30.7982 3.77544 32.3333 3.73635C32.3333 3.72556 32.1894 3.71073 32.0215 3.70264C31.8536 3.69455 32.0215 3.65411 32.2134 3.65681C34.2042 3.67164 36.1951 3.60153 38.018 3.66354C39.1694 3.62849 38.6177 3.52199 40.4167 3.52873C40.4167 3.57456 40.4167 3.62175 40.4167 3.69185C40.9683 3.6595 41.4241 3.64332 41.4001 3.63119C41.4279 3.60958 41.3244 3.58807 41.1065 3.57019C40.8887 3.55232 40.5694 3.53912 40.2008 3.53277C39.9609 3.51659 39.745 3.48828 39.5052 3.48828C35.4035 3.48828 31.3979 3.43031 27.2483 3.43975C25.1855 3.43975 22.8348 3.47615 20.9879 3.38447C20.796 3.37503 20.2203 3.38447 19.8126 3.38447C18.7572 3.37773 17.7018 3.36829 16.6944 3.3602C16.3585 3.24831 16.3825 3.24291 17.27 3.23617C18.1575 3.22943 18.3014 3.24831 18.6852 3.31167L23.6264 3.2564C19.8845 3.17011 15.9748 3.17416 12.4488 3.1054C12.2569 3.1054 11.9451 3.11214 11.4654 3.12023L13.0725 3.23482C13.0725 3.2901 12.2329 3.30089 11.1536 3.31572C9.60066 3.26845 8.21141 3.20589 7.05192 3.13102C6.54821 3.09057 5.58877 3.06765 4.94114 3.0326C4.4765 3.00126 4.0818 2.96685 3.76582 2.93013H7.07591C6.88403 2.89913 6.88403 2.87486 6.64416 2.86542C5.20499 2.80476 3.69386 2.74813 2.25469 2.68611C1.66245 2.66719 1.1557 2.64085 0.773723 2.60914C0.391745 2.57743 0.144795 2.5412 0.0520177 2.50327C-0.0407593 2.46533 0.0231278 2.4267 0.238723 2.39038C0.454319 2.35405 0.815837 2.321 1.29525 2.29379C1.99085 2.25335 3.47799 2.2493 3.69387 2.29379C4.31751 2.40434 5.66072 2.41783 7.50766 2.39491L9.06676 2.37738C9.06676 2.2884 9.06676 2.27897 7.77151 2.27897C6.47625 2.27897 5.99654 2.26413 5.82863 2.22234C5.39688 2.11044 3.78981 2.06056 2.08679 2.01337C1.63106 2.00124 1.15133 1.99045 0.767556 1.98236L3.02225 1.9554C2.57892 1.7935 1.7057 1.63626 0.431751 1.48893C0.239862 1.45657 0.143917 1.42287 0 1.39052L2.39861 1.29749C2.52266 1.31761 2.70947 1.33633 2.95029 1.35277C3.66988 1.38917 4.86919 1.32311 5.51681 1.38108C5.8071 1.40085 6.1744 1.4166 6.59032 1.42712C7.00623 1.43764 7.45962 1.44265 7.91543 1.44175C8.87487 1.44175 9.83432 1.44983 10.7938 1.45118C11.7532 1.45253 12.7127 1.45118 13.6721 1.44444H17.6538L14.7035 1.39321C14.8714 1.38647 14.9674 1.37973 15.1113 1.37838L19.045 1.32176C19.0597 1.32847 19.1007 1.33492 19.1649 1.34063C19.1649 1.34063 19.3328 1.34063 19.4048 1.34063L18.9491 1.32311C18.9491 1.26783 17.8937 1.28805 17.318 1.27457C17.4379 1.2503 17.4379 1.20986 17.7258 1.20177C18.4047 1.17892 19.1905 1.16812 19.9805 1.17076C20.5705 1.18038 21.1924 1.1821 21.7964 1.17578C22.4003 1.16946 22.9696 1.15527 23.4584 1.13436C23.4584 1.08448 22.2831 1.09392 21.8034 1.0656C21.2937 1.03944 20.73 1.01681 20.1244 0.998195L19.3088 1.09122C18.4453 1.03594 17.6538 0.986063 16.9102 0.932135C17.342 0.874164 17.7977 0.817536 18.2295 0.759564C18.7572 0.759564 19.3328 0.759567 19.5487 0.787879C19.5723 0.800427 19.5723 0.81308 19.5487 0.825628C20.6935 0.819206 21.8497 0.825155 22.9547 0.843155C22.9547 0.843155 23.4584 0.806753 23.3625 0.800012C22.8108 0.760915 22.9787 0.737995 23.3625 0.693505C24.202 0.616659 24.3699 0.519591 25.7611 0.458923C26.2352 0.432988 26.7875 0.411991 27.3922 0.396908C29.4142 0.355181 31.5289 0.329321 33.6766 0.320061C35.4199 0.318739 37.147 0.300964 38.7856 0.26748C39.3147 0.259171 39.8511 0.252422 40.3927 0.247258L42.2396 0.3268C43.8227 0.344326 43.343 0.231081 45.3098 0.236474C45.2385 0.255136 45.2385 0.274434 45.3098 0.293095C45.3583 0.301672 45.4495 0.309289 45.5725 0.315049C45.6955 0.32081 45.8453 0.324477 46.0041 0.325611C46.163 0.326745 46.3243 0.325301 46.469 0.321451C46.6137 0.317602 46.7358 0.311506 46.821 0.303883C46.9649 0.293098 47.1568 0.278265 47.1328 0.26748C46.9889 0.216249 47.6365 0.208161 48.3561 0.205465C49.161 0.2038 49.9533 0.217064 50.6108 0.243213C52.2658 0.301185 52.6256 0.297142 54.1367 0.23243C54.302 0.221313 54.4542 0.209603 54.5925 0.197376C54.7164 0.193735 54.8446 0.190581 54.9762 0.187938C55.9117 0.187938 55.5039 0.243214 55.8637 0.268829C56.2235 0.294445 56.4634 0.307927 56.7752 0.328149C57.8546 0.286356 56.0796 0.20007 57.9745 0.186588L59.2937 0.280962C59.6318 0.286588 59.9934 0.28581 60.3229 0.278745C60.6523 0.27168 60.9312 0.258718 61.1167 0.241864C61.4036 0.217503 61.7914 0.197418 62.2468 0.18333C62.7021 0.169241 63.2115 0.161572 63.7312 0.160976C63.7923 0.166778 63.833 0.173183 63.8511 0.179849C63.8511 0.198723 63.8511 0.227034 63.8511 0.233775C63.9594 0.238168 64.0822 0.241307 64.2123 0.243008C64.3424 0.244709 64.4772 0.244941 64.6089 0.243687C64.7406 0.242432 64.8665 0.239716 64.9794 0.235701C65.0923 0.231685 65.1898 0.226446 65.2663 0.220293C65.4451 0.202009 65.5821 0.182533 65.6741 0.162322L65.866 0.181198ZM285.243 0.944268L285.051 0.955052V0.938875L285.771 0.930786L285.459 0.909214L285.243 0.944268ZM152.432 3.96149C152.432 3.96149 152.432 3.95071 152.432 3.94531C152.432 3.93992 152.432 3.94531 152.24 3.94531L152.576 3.96149C152.556 3.96728 152.556 3.97323 152.576 3.97902C152.576 3.97902 152.72 3.97902 152.792 3.97902L152.432 3.96149ZM296.805 3.36695C296.205 3.36695 295.989 3.38312 295.989 3.41009C295.989 3.41009 295.557 3.42492 295.869 3.41009L296.685 3.36695L297.548 3.3238C298.316 3.33459 299.083 3.34672 299.659 3.30358C298.795 3.27123 298.004 3.2537 297.644 3.32785L296.805 3.36695ZM26.3848 2.93957L26.1929 2.91126L25.8811 2.92744L26.4807 2.93553C26.4573 2.94084 26.4573 2.94639 26.4807 2.95171C26.4807 2.95171 26.6246 2.95171 26.6966 2.95171L26.3848 2.93957ZM220.169 5.1061C219.977 5.11688 219.713 5.12497 219.617 5.13576C219.521 5.14654 219.809 5.15329 219.929 5.16137C220.001 5.15575 220.05 5.14931 220.073 5.1425C220.096 5.1286 220.096 5.1146 220.073 5.1007C220.073 5.1007 220.481 5.08588 220.169 5.1061ZM264.711 4.89443C264.536 4.88632 264.333 4.88031 264.116 4.87678C263.898 4.87325 263.669 4.87228 263.444 4.87392C263.219 4.87557 263.003 4.87979 262.808 4.88633C262.613 4.89288 262.445 4.9016 262.312 4.91196C263.368 4.94162 264.231 4.96319 264.711 4.89039C264.903 4.87691 265.095 4.86343 264.855 4.8796C264.951 4.85938 264.807 4.87691 264.711 4.89443ZM6.62017 2.55804C6.28437 2.53108 5.92458 2.50546 5.13303 2.5459L6.71612 2.55265C7.00395 2.59309 7.33976 2.63084 8.2992 2.63758C9.25865 2.64432 9.64243 2.63758 9.93026 2.59713H10.8177C10.6738 2.64702 11.1296 2.67398 12.065 2.68477C13.0005 2.69555 14.0079 2.6578 14.6076 2.72252C14.3677 2.76027 14.1039 2.79936 13.888 2.83846C13.6721 2.87756 13.5762 2.88025 13.7201 2.89508C13.9574 2.91776 14.3076 2.93604 14.7275 2.94766C14.7275 2.94766 15.4711 2.92474 15.543 2.90856C15.7009 2.85637 15.805 2.8037 15.8548 2.75083L18.5653 2.67398L14.6315 2.63219L10.6978 2.60118L11.1056 2.53647C11.6316 2.53985 12.1627 2.53985 12.6887 2.53647C14.4877 2.50881 16.3766 2.50512 18.2055 2.52568C19.933 2.54715 21.7385 2.53577 23.3385 2.49333C20.3874 2.44873 17.3806 2.41674 14.3437 2.39761C10.1461 2.37738 10.0262 2.38412 10.0262 2.60388L6.62017 2.55804ZM316.545 2.42322C316.809 2.42322 317.121 2.42322 317.313 2.42322C317.505 2.42322 317.984 2.39895 317.984 2.38682C317.984 2.37468 317.577 2.35446 317.289 2.35042C316.892 2.34957 316.495 2.3523 316.113 2.35851C316.329 2.38547 316.497 2.40974 316.665 2.43266C316.555 2.43453 316.45 2.43725 316.353 2.44074C316.353 2.44074 316.353 2.44749 316.353 2.45018L316.545 2.42322ZM216.979 5.19373C216.979 5.20721 216.979 5.23957 217.506 5.20991L216.907 5.19642C217.033 5.17099 217.09 5.14462 217.075 5.11823C217.075 5.10475 216.643 5.09127 216.355 5.08453C216.067 5.07779 215.875 5.09666 215.779 5.10744C215.228 5.14654 215.563 5.16811 216.979 5.19373ZM184.885 4.90252C184.45 4.8863 183.973 4.87402 183.47 4.86612C183.345 4.86433 183.214 4.8641 183.087 4.86545C182.96 4.8668 182.839 4.8697 182.734 4.87394C182.629 4.87817 182.542 4.88365 182.478 4.88999C182.415 4.89632 182.377 4.90336 182.367 4.91061C182.358 4.92055 182.391 4.93046 182.461 4.93958C182.532 4.9487 182.639 4.95678 182.774 4.96319C182.948 4.9675 183.136 4.96973 183.326 4.96973C183.516 4.96973 183.704 4.9675 183.878 4.96319C184.232 4.94387 184.532 4.92158 184.765 4.89713L185.365 4.8796L185.053 4.87017L184.885 4.90252ZM108.921 5.15598L108.058 5.11284C108.058 5.07104 108.345 5.03329 109.353 5.01981C109.857 5.01172 109.785 4.96724 109.353 4.95106C108.759 4.92891 108.062 4.9171 107.35 4.9171C106.637 4.9171 105.941 4.92891 105.347 4.95106L105.563 5.06565V5.05891C102.493 5.05891 102.493 5.05891 102.373 5.22339C103.424 5.2387 104.533 5.23524 105.548 5.21349C106.562 5.19175 107.431 5.1528 108.034 5.10205L108.873 5.14654C108.815 5.16708 108.815 5.18801 108.873 5.20856C108.873 5.22608 109.257 5.249 109.545 5.2517C109.717 5.251 109.884 5.24793 110.03 5.24276C110.177 5.23759 110.298 5.23047 110.384 5.22204C110.514 5.18339 110.57 5.14407 110.552 5.10475L108.921 5.15598ZM24.0821 3.8806L22.6909 3.84555C22.5661 3.85477 22.4757 3.86531 22.425 3.87653C22.3742 3.88776 22.3642 3.89945 22.3956 3.9109C22.4269 3.92235 22.4989 3.93332 22.6074 3.94317C22.7158 3.95302 22.8584 3.96155 23.0267 3.96823C23.2988 3.98274 23.6485 3.99179 24.0214 3.99399C24.3944 3.99618 24.7699 3.99139 25.0895 3.98037L23.8422 3.87251C24.1061 3.87251 24.7057 3.87251 24.202 3.8469L24.0821 3.8806ZM241.708 0.526332C240.389 0.549251 240.605 0.613963 240.269 0.669239L242.668 0.735298C242.308 0.6598 241.445 0.600481 241.66 0.520938C241.9 0.520938 242.5 0.530376 242.092 0.496672L241.708 0.526332ZM136.169 4.64232C135.21 4.61806 134.274 4.59109 133.267 4.57087C133.027 4.57087 132.571 4.57896 132.284 4.5884C131.996 4.59784 132.284 4.61805 132.404 4.62749C133.459 4.69625 134.634 4.6976 136.073 4.63424C136.419 4.64385 136.78 4.65152 137.153 4.65715C137.321 4.65715 137.561 4.64772 137.728 4.63963C137.896 4.63154 137.728 4.6221 137.728 4.6221C137.542 4.61414 137.315 4.60987 137.081 4.60997C136.714 4.61647 136.361 4.62505 136.025 4.63558L136.169 4.64232ZM127.918 4.51829C127.93 4.51292 127.93 4.50748 127.918 4.50211C127.918 4.50211 127.75 4.50211 127.678 4.50211L128.014 4.51964C127.744 4.57029 127.638 4.62327 127.702 4.67603C128.281 4.68737 128.908 4.68855 129.499 4.6794C130.09 4.67025 130.618 4.6512 131.012 4.6248C130.538 4.59183 129.999 4.56198 129.405 4.53582C128.902 4.5102 128.23 4.51964 127.774 4.51155L127.918 4.51829ZM155.142 5.02251L158.165 4.96454C157.181 4.91331 156.486 4.85938 154.807 4.86342C154.807 4.87421 154.423 4.89039 154.231 4.90792C154.075 4.92539 153.939 4.9434 153.823 4.96184L155.262 5.02925C154.872 5.02654 154.477 5.02654 154.087 5.02925C153.771 5.03596 153.496 5.04766 153.295 5.06296C153.295 5.06296 153.559 5.08992 153.727 5.09127C154.08 5.09549 154.448 5.09213 154.759 5.08183C154.879 5.05891 154.879 5.03464 154.998 5.01577L155.142 5.02251ZM101.677 5.0306L99.2787 5.00094C98.8229 5.07105 100.43 5.12227 99.4226 5.18833C99.0868 5.20991 99.7584 5.23418 100.358 5.23687C100.958 5.23957 101.821 5.2153 101.725 5.18295C101.629 5.15059 100.814 5.07913 101.725 5.02386C102.23 5.02026 102.723 5.01254 103.188 5.00094C103.534 4.98373 103.798 4.96195 103.956 4.93758C103.956 4.93758 103.644 4.916 103.452 4.91465C102.781 4.91465 102.085 4.91466 101.845 4.95106C101.67 4.97418 101.565 4.99879 101.533 5.02386L101.677 5.0306ZM306.855 2.98541L307.143 2.99485H306.759C306.744 2.96779 306.704 2.94079 306.639 2.91396C306.639 2.88295 306.279 2.85329 306.135 2.82768C305.5 2.81972 304.838 2.82166 304.221 2.8333C303.603 2.84495 303.055 2.86584 302.633 2.89373C302.825 2.93283 303.089 2.96788 304.096 2.97328L306.855 2.98541ZM257.371 0.862027H258.619L260.058 0.673283C261.641 0.673283 261.641 0.673284 262.696 0.623401C260.561 0.600482 258.643 0.580258 257.107 0.681372C257.227 0.746084 257.347 0.8081 257.443 0.870116C257.205 0.86818 256.962 0.86818 256.724 0.870116C256.513 0.875046 256.319 0.881876 256.148 0.890338C256.148 0.890338 256.316 0.902472 256.412 0.903821C256.632 0.907272 256.864 0.907272 257.084 0.903821C257.108 0.879553 257.131 0.867422 257.227 0.855288L257.371 0.862027ZM40.5366 3.92509C40.5504 3.91973 40.5504 3.91428 40.5366 3.90891C40.5366 3.90891 40.3927 3.90891 40.3207 3.90891L40.7045 3.92374C40.2487 3.93588 39.769 3.96284 39.3613 3.96015C36.5554 3.95152 33.7694 3.9285 31.0381 3.89139C30.7982 3.89139 30.4384 3.90083 29.7668 3.91431L32.3333 4.00733L27.3922 3.96688C27.1763 3.96688 26.7446 3.98441 26.7685 3.98846C26.7925 3.9925 27.0564 4.0343 27.2962 4.03699C29.2871 4.05722 31.3019 4.07339 33.2928 4.08957C33.3211 4.10226 33.3611 4.11486 33.4127 4.12732C33.4127 4.12732 33.6526 4.13541 33.7965 4.13811C33.9404 4.1408 33.7965 4.12462 33.7965 4.12058C33.6287 4.111 33.4439 4.10241 33.2448 4.09496C33.2448 4.06126 33.3887 4.0289 33.4367 3.99789C34.684 3.98711 35.0677 4.0262 35.5475 4.05856C35.6754 4.06919 35.8416 4.07819 36.0354 4.08497C36.2291 4.09176 36.446 4.09619 36.6721 4.09797C36.8982 4.09975 37.1284 4.09884 37.3479 4.0953C37.5673 4.09177 37.7711 4.08568 37.9461 4.07744L37.1785 4.01003C38.4498 4.02351 39.4572 4.03699 40.4886 4.04643C40.6496 4.04788 40.8147 4.04681 40.9656 4.04334C41.1165 4.03987 41.2475 4.03412 41.3442 4.02674C41.4408 4.01936 41.4994 4.01062 41.5135 4.00149C41.5276 3.99236 41.4967 3.98318 41.4241 3.97497C41.0163 3.94666 40.6325 3.93318 40.3927 3.91835L40.5366 3.92509ZM113.982 4.59918C115.661 4.64232 117.268 4.71243 119.211 4.62884C119.211 4.62884 119.715 4.62884 119.907 4.63963C120.26 4.65782 120.723 4.6679 121.202 4.6679C121.681 4.6679 122.144 4.65782 122.497 4.63963C123.193 4.60727 123.601 4.63963 124.2 4.65311C124.8 4.66659 125.759 4.65985 126.143 4.60727L124.944 4.49402L120.267 4.54121C119.456 4.50067 118.532 4.46788 117.532 4.44414C116.279 4.44029 115.022 4.44527 113.79 4.45897C113.79 4.5075 113.982 4.55469 114.054 4.60188C113.664 4.55833 113.232 4.51603 112.759 4.47515C112.261 4.4528 111.659 4.43901 111.025 4.43542C110.391 4.43183 109.752 4.4386 109.185 4.45493C108.969 4.51155 108.753 4.56413 108.489 4.62884C110.264 4.63019 112.159 4.67468 113.838 4.59649L113.982 4.59918ZM287.666 5.05891C288.34 5.06051 288.991 5.07326 289.538 5.09556C290.084 5.11786 290.501 5.14873 290.736 5.18429C291.523 5.17667 292.278 5.16114 292.967 5.13845C293.415 5.11707 293.943 5.10162 294.512 5.09322C295.08 5.08482 295.675 5.08369 296.253 5.08992C297.732 5.08899 299.205 5.07858 300.642 5.05891C301.314 5.05217 301.362 5.01442 300.81 4.9551L296.829 4.97263C296.829 4.91735 297.668 4.87152 297.02 4.82028L291.456 4.86342C290.76 4.82028 290.088 4.84185 289.393 4.86342C288.697 4.88499 287.738 4.91061 286.994 4.93488C286.826 4.9192 286.616 4.9051 286.371 4.89308C286.371 4.89308 285.963 4.90252 285.747 4.90657C285.92 4.91782 286.133 4.927 286.371 4.93353C286.562 4.93353 286.85 4.93353 287.09 4.93353L287.882 5.06835L286.275 5.02521C286.27 5.06769 286.334 5.11011 286.467 5.15194C286.467 5.16407 287.114 5.18025 287.402 5.17755C287.574 5.17498 287.731 5.17006 287.861 5.16324C287.991 5.15642 288.088 5.14791 288.146 5.13845C288.072 5.11054 287.909 5.0836 287.666 5.05891ZM70.4953 4.65446C70.903 4.60457 70.975 4.56278 71.8145 4.56008C72.7318 4.54917 73.6796 4.54917 74.5969 4.56008C75.6225 4.57998 76.7024 4.58957 77.7871 4.5884C79.4181 4.5884 81.0492 4.60323 82.5843 4.60727C82.9201 4.60727 83.2559 4.58705 83.7596 4.57087C83.2167 4.51614 82.5993 4.46385 81.9127 4.41448C81.1451 4.3619 80.1377 4.37134 79.2502 4.42796L78.2908 4.48863C77.3074 4.44414 76.6357 4.39426 75.3645 4.42931C74.0932 4.46436 73.2537 4.42931 72.1983 4.41853C71.1429 4.40774 69.5598 4.35786 68.4085 4.4374C68.4085 4.44684 67.6649 4.4374 67.3051 4.4374C66.9453 4.4374 65.9859 4.41987 65.3143 4.41718C64.5574 4.41132 63.7865 4.417 63.082 4.4336C62.3774 4.4502 61.765 4.47712 61.3086 4.51155C62.7717 4.57491 64.4987 4.49133 65.9619 4.53717C67.4251 4.583 69.5358 4.53042 70.4953 4.65446ZM270.852 5.11284L262.648 5.07509C261.473 5.11823 260.25 5.09127 259.194 5.07509C258.019 5.1398 256.34 5.11823 254.397 5.13441L259.362 5.31237L261.977 5.23687C262.688 5.21253 263.479 5.19642 264.303 5.18947C265.127 5.18253 265.967 5.18489 266.774 5.19642C268.429 5.22608 269.58 5.17351 270.852 5.11554V5.11284ZM104.891 4.42122C104.412 4.42122 103.908 4.4347 103.404 4.44414C102.901 4.45358 102.949 4.48594 102.445 4.46571C101.15 4.41448 100.046 4.5129 98.679 4.47515C98.4871 4.47515 97.8635 4.50616 97.4317 4.52233L95.9926 4.57491C96.482 4.59886 97.0651 4.61598 97.6945 4.62488C98.3238 4.63379 98.9816 4.63422 99.6145 4.62615C100.91 4.59514 102.013 4.62615 103.14 4.62615C103.684 4.62819 104.228 4.62819 104.771 4.62615C105.306 4.62186 105.811 4.60959 106.233 4.59062C106.655 4.57165 106.978 4.54668 107.17 4.51829L104.891 4.42122ZM94.6493 4.5884C94.1936 4.49807 92.8264 4.48594 91.6751 4.45358C91.0192 4.43644 90.2992 4.42846 89.5767 4.43034C88.8541 4.43222 88.1504 4.44389 87.5254 4.46436C86.6643 4.49003 85.8594 4.52125 85.1268 4.55739C85.3097 4.58328 85.654 4.60453 86.0955 4.61719C86.5369 4.62984 87.0453 4.63303 87.5254 4.62615C89.6842 4.61401 92.0828 4.60053 94.6493 4.5884ZM237.007 4.01138C237.583 4.08957 237.607 4.08553 238.278 4.10305C240.269 4.15698 241.54 4.07609 243.076 4.03025L245.018 4.07204C245.672 4.09028 246.425 4.09389 247.124 4.08212C247.823 4.07036 248.416 4.04411 248.784 4.00868C244.823 3.99292 240.846 3.99382 236.887 4.01138H237.007ZM53.0334 4.07474C53.044 4.04968 53.1084 4.02478 53.2253 4.00059C53.2784 3.99401 53.3055 3.98686 53.3046 3.97963C53.3037 3.9724 53.2749 3.96527 53.2201 3.95873C53.1654 3.95219 53.086 3.9464 52.9875 3.94176C52.889 3.93711 52.7737 3.93373 52.6496 3.93183C52.1497 3.92491 51.6223 3.92826 51.1624 3.94127C50.278 3.99133 49.57 4.05034 49.0757 4.11519C51.0788 4.13469 53.1172 4.14012 55.1441 4.13136C55.312 4.13136 55.5039 4.11923 55.8637 4.1044L53.0334 4.07474ZM253.222 5.16272C252.286 5.1371 251.567 5.11958 250.823 5.09935C250.524 5.09093 250.19 5.08723 249.856 5.08865C249.522 5.09008 249.201 5.09657 248.928 5.10744C248.527 5.12278 248.237 5.14577 248.113 5.17216C248.133 5.18241 248.198 5.19222 248.303 5.2007C248.408 5.20917 248.548 5.21605 248.712 5.22069C249.84 5.24227 251.111 5.25035 251.567 5.32315C251.567 5.32315 251.926 5.32315 252.07 5.33124L253.222 5.16272ZM280.782 4.25674L278.959 4.31741C279.798 4.33224 280.686 4.33494 281.094 4.35921C282.341 4.4374 284.044 4.41448 285.579 4.42122C285.901 4.42164 286.213 4.4152 286.453 4.40319C286.694 4.39118 286.844 4.37451 286.874 4.35651C285.923 4.32939 284.916 4.30901 283.876 4.29584C282.365 4.3619 281.741 4.29449 280.662 4.25674H280.782ZM57.183 3.89004C57.183 3.92779 56.8951 3.95745 57.183 3.97767C57.2998 3.99043 57.4624 4.00169 57.6606 4.01074C57.8588 4.01979 58.0882 4.02643 58.3343 4.03025C59.6712 4.03229 61.0091 4.02959 62.34 4.02216C62.4839 4.02216 62.7238 4.00059 62.6998 3.98981C62.6758 3.97902 62.4359 3.96284 62.268 3.96284C62.1001 3.96284 61.2366 3.97497 60.7809 3.96284C60.1767 3.94912 59.5914 3.9329 59.0299 3.91431C58.3343 3.90892 57.8306 3.90352 57.063 3.89004H57.183ZM269.34 0.853939L271.547 0.953703C271.547 0.90382 271.547 0.878206 271.547 0.853939C271.415 0.828866 271.415 0.802164 271.547 0.777091C272.315 0.68946 272.075 0.678676 269.772 0.669239C269.748 0.725862 269.436 0.785181 269.22 0.853939H269.34ZM226.885 4.96049C228.012 4.94297 228.876 4.92679 229.739 4.91735C230.603 4.90792 231.514 4.90791 232.498 4.90252V4.81354C231.083 4.81354 229.835 4.85129 228.492 4.82163C228.132 4.81489 227.293 4.84725 226.909 4.87017C226.525 4.89309 226.765 4.92409 226.765 4.96049H226.885ZM278.863 5.1816C280.542 5.19643 282.005 5.2126 283.468 5.22204C284.14 5.22204 284.404 5.20182 284.26 5.16676L280.854 5.06026C279.966 5.08857 278.959 5.10475 278.743 5.1816H278.863ZM267.661 4.31337C266.373 4.29385 265.016 4.29385 263.728 4.31337C263.561 4.31746 263.418 4.32401 263.312 4.33232C263.207 4.34062 263.143 4.35038 263.128 4.36056C263.128 4.37808 263.488 4.40774 263.752 4.40909C264.543 4.41802 265.359 4.41802 266.15 4.40909C266.726 4.39156 267.589 4.37269 267.541 4.31337H267.661ZM231.682 4.01542C230.651 4.00868 229.619 3.99789 228.564 3.9952C228.391 3.99687 228.227 4.00095 228.089 4.00707C227.951 4.01319 227.842 4.02116 227.772 4.03025C227.741 4.04031 227.756 4.05065 227.814 4.06031C227.873 4.06997 227.974 4.07864 228.108 4.08553C228.674 4.10469 229.289 4.11879 229.931 4.12732C231.107 4.1408 231.37 4.11519 231.658 4.01542H231.682ZM260.154 4.35786C260.086 4.3427 259.914 4.32967 259.676 4.32159C259.438 4.31351 259.153 4.31105 258.882 4.31472C257.443 4.32281 256.004 4.33494 254.565 4.34842C254.397 4.34842 254.277 4.36864 254.133 4.37943C254.397 4.38886 254.781 4.40909 254.925 4.40504C255.674 4.38519 256.523 4.38089 257.323 4.39291C257.813 4.39809 258.316 4.39766 258.802 4.39164C259.289 4.38561 259.748 4.37412 260.154 4.35786ZM216.019 4.96724C216.57 4.9726 217.137 4.96912 217.655 4.9572C218.173 4.94528 218.62 4.92539 218.946 4.89983C219.011 4.89446 219.045 4.88812 219.045 4.88163C219.045 4.87513 219.011 4.86879 218.946 4.86342C218.476 4.84927 217.941 4.84337 217.41 4.8465C216.88 4.84962 216.379 4.86163 215.971 4.88095C215.83 4.88639 215.713 4.89361 215.629 4.90203C215.546 4.91046 215.499 4.91986 215.492 4.92949C215.468 4.94432 215.875 4.9578 216.043 4.96724H216.019ZM254.205 4.9187C256.724 4.95375 256.724 4.9524 258.451 4.90522C256.364 4.78927 255.908 4.78928 254.229 4.92409L254.205 4.9187ZM176.514 5.28271L174.595 5.18429C174.22 5.19825 173.874 5.21453 173.564 5.23283C173.406 5.25074 173.293 5.26979 173.228 5.28945C175.051 5.36899 175.051 5.36899 176.538 5.28271H176.514ZM152.216 4.53042C151.76 4.55199 151.185 4.56817 151.113 4.5884C151.11 4.60151 151.163 4.61446 151.267 4.62619C151.371 4.63791 151.524 4.64807 151.712 4.65581C152.163 4.67063 152.678 4.6781 153.2 4.67738C153.39 4.67646 153.573 4.67305 153.735 4.66743C153.898 4.66181 154.035 4.65414 154.135 4.64502C154.203 4.63571 154.225 4.62556 154.2 4.61561C154.174 4.60566 154.102 4.59627 153.991 4.5884C153.431 4.56617 152.837 4.54676 152.216 4.53042ZM276.392 3.67433C275.724 3.64899 274.971 3.63162 274.179 3.62327C273.387 3.61492 272.573 3.61578 271.787 3.6258C271.682 3.6282 271.59 3.63205 271.518 3.637C271.447 3.64195 271.399 3.64784 271.379 3.65411C271.384 3.66067 271.414 3.6671 271.468 3.67292C271.522 3.67875 271.598 3.68383 271.691 3.68781C272.454 3.70479 273.272 3.71238 274.092 3.71006C274.911 3.70773 275.712 3.69555 276.44 3.67433H276.392ZM266.942 0.863377C266.678 0.841806 266.582 0.826976 266.39 0.821584C266.278 0.818586 266.155 0.817029 266.03 0.817029C265.906 0.817029 265.783 0.818586 265.671 0.821584C265.328 0.830306 265.043 0.844934 264.857 0.863352C264.672 0.881771 264.595 0.903023 264.639 0.924042C264.687 0.933945 264.775 0.943104 264.895 0.950814C265.016 0.958525 265.166 0.964585 265.335 0.968535C265.502 0.970403 265.676 0.969902 265.839 0.967078C266.002 0.964254 266.15 0.959197 266.27 0.952357C266.56 0.924062 266.801 0.894264 266.99 0.863377H266.942ZM266.582 3.69455C268.117 3.68512 269.508 3.72421 270.468 3.62175C269.077 3.63388 267.709 3.60018 266.63 3.6986L266.582 3.69455ZM195.727 5.29215L193.76 5.14924C193.208 5.20452 192.417 5.23418 192.777 5.29215H195.727ZM185.725 5.29215C185.725 5.27732 185.725 5.25709 185.485 5.2517C185.032 5.23716 184.519 5.22951 183.998 5.22951C183.476 5.22951 182.964 5.23716 182.511 5.2517C182.367 5.2517 182.511 5.27597 182.367 5.29215C182.88 5.3099 183.467 5.31974 184.069 5.32068C184.671 5.32163 185.267 5.31365 185.797 5.29754L185.725 5.29215ZM140.871 4.65446C140.271 4.59244 140.271 4.59244 138.664 4.54526C138.352 4.66524 138.64 4.67872 140.871 4.65446ZM257.299 3.97093C257.299 3.9952 257.299 4.02486 257.539 4.02621C258.571 4.03834 259.602 4.04643 260.657 4.05317C261.233 4.05317 261.689 4.05317 261.665 4.00733C260.993 4.00733 260.322 4.00733 259.674 4.00733C259.026 4.00733 258.211 3.98037 257.299 3.97228V3.97093ZM62.8197 4.15967C62.4839 4.11923 62.4359 4.10035 62.292 4.09766C61.1167 4.08148 61.1167 4.08283 58.7421 4.12597L62.8197 4.15967ZM286.97 0.979318L287.522 1.00359C288.15 0.981639 288.751 0.957315 289.321 0.930786C289.465 0.924045 289.321 0.88899 289.105 0.878205C288.889 0.867419 288.218 0.868768 288.098 0.878205C287.665 0.910292 287.288 0.944599 286.97 0.980668V0.979318ZM220.96 5.31506C220.96 5.2517 220.649 5.23148 219.569 5.23283C219.257 5.23283 218.73 5.249 218.706 5.25979C218.706 5.30832 219.617 5.36225 220.361 5.35012C220.649 5.34607 220.816 5.32855 220.96 5.31506ZM226.573 0.751476C226.32 0.721381 226.024 0.692522 225.686 0.665194C225.686 0.658453 224.87 0.665192 224.75 0.675978C224.63 0.686763 224.51 0.724515 224.75 0.733953C225.173 0.748777 225.647 0.758423 226.141 0.762263C226.141 0.762263 226.285 0.756868 226.573 0.751476ZM273.13 0.976623C273.586 0.987409 274.042 0.998194 274.497 1.00628C274.818 1.01121 275.159 1.01005 275.467 1.00298C275.775 0.995911 276.033 0.983328 276.2 0.967185C276.512 0.948311 275.745 0.925392 274.785 0.921348C274.43 0.917023 274.059 0.920288 273.744 0.930506C273.429 0.940724 273.193 0.957165 273.082 0.976623H273.13ZM222.759 4.85264C221.824 4.85264 221.32 4.87826 221.248 4.916C221.247 4.92294 221.28 4.92975 221.344 4.9357C221.407 4.94164 221.499 4.94649 221.608 4.94971C221.78 4.95442 221.969 4.95665 222.16 4.95621C222.351 4.95576 222.537 4.95267 222.701 4.94718C222.865 4.9417 223.002 4.93401 223.101 4.9248C223.199 4.91559 223.255 4.90516 223.263 4.89443C223.215 4.8796 222.855 4.86477 222.711 4.85264H222.759ZM146.004 4.56952C145.591 4.55334 145.138 4.54062 144.66 4.53177C144.48 4.53038 144.296 4.53123 144.122 4.53426C143.948 4.53729 143.788 4.54242 143.653 4.5493C143.565 4.55791 143.518 4.56767 143.518 4.57761C143.518 4.58755 143.565 4.59732 143.653 4.60592C143.801 4.6124 143.971 4.61706 144.153 4.61961C144.335 4.62217 144.524 4.62255 144.708 4.62075C145.02 4.61536 145.404 4.59648 146.004 4.56952ZM157.589 4.61671C157.071 4.59605 156.516 4.57843 155.934 4.56413C155.934 4.56413 155.286 4.5884 155.238 4.60458C155.19 4.62075 155.886 4.66524 156.534 4.65985C157.181 4.65446 157.013 4.63828 157.589 4.61671ZM317.72 1.8435V1.86372C318.464 1.86372 319.232 1.86373 319.975 1.85429C319.975 1.85429 320.311 1.83137 320.263 1.82463C320.197 1.8189 320.109 1.8141 320.005 1.81059C319.901 1.80709 319.784 1.80497 319.663 1.8044C319.16 1.81519 318.488 1.83002 317.72 1.8435ZM288.17 1.08178L288.289 1.10335C288.909 1.10289 289.526 1.09973 290.136 1.09391C290.328 1.09391 290.4 1.0656 290.544 1.05077C290.304 1.05077 290.017 1.03459 289.849 1.03864C289.306 1.05128 288.778 1.06568 288.266 1.08178H288.17ZM163.586 5.24766C163.606 5.26014 163.68 5.27217 163.801 5.28271C163.87 5.289 163.963 5.29438 164.072 5.29848C164.182 5.30258 164.305 5.3053 164.435 5.30645C164.565 5.3076 164.698 5.30716 164.825 5.30516C164.951 5.30315 165.069 5.29964 165.169 5.29484C165.301 5.28817 165.401 5.27973 165.46 5.2703C165.518 5.26087 165.534 5.25077 165.504 5.24092C165.313 5.20182 164.713 5.21934 164.233 5.22743C164.038 5.23316 163.853 5.23994 163.681 5.24766H163.586ZM294.886 0.988757C294.646 0.973927 294.502 0.959095 294.358 0.957747C293.614 0.957747 292.895 1.00359 293.255 1.03729C293.376 1.04307 293.518 1.04728 293.672 1.04961C293.825 1.05194 293.986 1.05234 294.142 1.05077C294.474 1.03249 294.757 1.0116 294.982 0.988757H294.886ZM273.562 0.636884L276.416 0.580258C275.998 0.565175 275.517 0.556493 275.02 0.555075C274.524 0.553656 274.029 0.559549 273.586 0.57217C273.514 0.577562 273.658 0.60992 273.658 0.636884H273.562ZM277.016 4.8459C276.798 4.83346 276.547 4.823 276.272 4.81489C276.129 4.81489 275.793 4.82298 275.625 4.83107C275.455 4.84145 275.354 4.85476 275.337 4.86882C275.347 4.8879 275.447 4.90649 275.625 4.92274C275.865 4.93892 276.68 4.92274 276.872 4.89308C276.988 4.87801 277.069 4.86215 277.112 4.8459H277.016ZM52.8175 4.72456C51.1145 4.63963 50.131 4.65041 48.9557 4.71243L52.8175 4.72456ZM139.168 3.9561C139.551 3.93588 139.935 3.92509 140.007 3.91161C140.034 3.9048 140.032 3.89773 140.001 3.89098C139.97 3.88422 139.912 3.87797 139.83 3.87272C139.748 3.86747 139.646 3.86338 139.531 3.86076C139.416 3.85815 139.291 3.8571 139.168 3.85768C138.808 3.85768 138.448 3.88465 138.088 3.89948L139.168 3.9561ZM250.943 4.01138C251.306 4.03452 251.8 4.04995 252.341 4.0551C252.882 4.06025 253.439 4.05481 253.917 4.03969C254.02 4.0355 254.089 4.0292 254.109 4.02216C254.097 4.01926 254.073 4.01654 254.04 4.01421C254.007 4.01188 253.965 4.00999 253.917 4.00868C253.459 3.9948 252.945 3.98776 252.424 3.98823C251.903 3.98871 251.393 3.99668 250.943 4.01138ZM213.932 4.96589L214.316 4.93218C214.057 4.90998 213.742 4.89001 213.381 4.87286C213.165 4.86477 212.709 4.87286 212.373 4.87286C212.038 4.87286 212.373 4.916 212.373 4.92409C212.865 4.94114 213.387 4.95515 213.932 4.96589ZM268.621 0.533071C268.093 0.553294 267.733 0.561386 267.709 0.569475C267.725 0.59507 267.833 0.620219 268.026 0.643397C268.22 0.666574 268.496 0.687295 268.837 0.704293C268.765 0.643625 268.693 0.597784 268.621 0.533071ZM151.64 4.9551C150.897 4.89039 150.369 4.87017 149.77 4.89174C149.635 4.89741 149.532 4.90511 149.473 4.91394C149.414 4.92277 149.4 4.93237 149.434 4.94162C149.65 4.97937 150.153 4.98207 151.64 4.9551ZM290.136 0.72586C290.784 0.72586 291.648 0.701595 291.576 0.677327C291.504 0.65306 291.264 0.657104 291.096 0.655756C290.208 0.655756 289.513 0.673285 289.633 0.700248C289.753 0.727212 289.969 0.717771 290.136 0.72586ZM221.584 4.10305C221.128 4.07339 220.96 4.05182 220.649 4.04643C220.483 4.04413 220.31 4.04429 220.146 4.04689C219.982 4.04949 219.833 4.05444 219.713 4.06126C219.713 4.07204 219.713 4.1071 219.953 4.10979C220.499 4.11104 221.047 4.10878 221.584 4.10305ZM224.942 4.10305C225.326 4.07878 225.71 4.0653 225.71 4.05182C225.716 4.04481 225.694 4.0378 225.644 4.03135C225.595 4.0249 225.52 4.01918 225.425 4.01462C225.33 4.01005 225.217 4.00678 225.096 4.00505C224.975 4.00332 224.848 4.00318 224.726 4.00463C224.462 4.00463 224.007 4.0343 224.055 4.04508C224.103 4.05587 224.558 4.08013 224.942 4.1044V4.10305ZM273.178 3.89139C273.034 3.91565 272.77 3.93453 272.818 3.95206C272.92 3.97146 273.141 3.98819 273.442 3.99924C273.676 4.00143 273.916 3.99854 274.114 3.99115C274.243 3.97344 274.243 3.95359 274.114 3.93588C273.994 3.92105 273.586 3.91026 273.178 3.89274V3.89139ZM173.348 4.94836C174.163 4.97802 174.763 4.98072 175.291 4.94836C175.375 4.94399 175.437 4.93845 175.471 4.93229C175.505 4.92613 175.509 4.91958 175.483 4.91331C175.483 4.90387 175.003 4.89174 174.883 4.89578C174.35 4.91181 173.838 4.92982 173.348 4.94971V4.94836ZM129.909 5.218C130.341 5.19912 130.772 5.18834 130.868 5.17216C130.964 5.15598 130.581 5.1398 130.437 5.12363C130.149 5.13441 129.717 5.1425 129.621 5.15733C129.525 5.17216 129.765 5.19373 129.909 5.21395V5.218ZM257.227 3.70399C258.379 3.70399 258.882 3.70399 259.386 3.70399C259.89 3.70399 260.106 3.68781 259.794 3.66489C259.482 3.64197 259.314 3.64332 259.17 3.64602C258.507 3.6621 257.858 3.6801 257.227 3.69995V3.70399ZM219.641 0.812145V0.783835C219.122 0.776712 218.592 0.772199 218.058 0.770352C217.147 0.770352 216.955 0.800012 217.41 0.841805L219.641 0.812145ZM308.75 2.8061L309.469 2.79397C309.252 2.77883 309.002 2.76524 308.726 2.75352C308.726 2.75352 308.198 2.76296 308.102 2.7724C307.838 2.80071 308.414 2.79667 308.75 2.80206V2.8061ZM246.386 4.90927C246.242 4.89039 246.146 4.86747 246.074 4.86747C245.723 4.87066 245.378 4.87563 245.042 4.8823C245.186 4.89848 245.306 4.91465 245.426 4.93083L246.386 4.90927ZM175.842 4.58705C175.518 4.58323 175.183 4.58323 174.859 4.58705C174.643 4.59379 174.595 4.61671 174.475 4.63154C174.859 4.63289 175.243 4.63289 175.627 4.63154C175.627 4.63154 175.818 4.60188 175.914 4.583L175.842 4.58705ZM11.7052 2.918C11.9691 2.90317 12.161 2.89508 12.137 2.89239C11.9447 2.8701 11.7284 2.84849 11.4894 2.82768C11.4894 2.82768 11.1056 2.82768 10.8897 2.83576L11.7052 2.918ZM270.876 4.08957C271.12 4.07566 271.338 4.06029 271.523 4.04373C271.523 4.04373 271.163 4.01677 271.019 4.01812C270.703 4.0242 270.404 4.03282 270.132 4.04373L270.876 4.08957ZM265.958 3.95475C265.664 3.94514 265.36 3.93659 265.047 3.92914C265.047 3.92914 264.807 3.94262 264.831 3.94397C265.016 3.95899 265.216 3.97339 265.431 3.98711L265.958 3.95475ZM274.066 5.12228C273.848 5.10469 273.59 5.08882 273.298 5.07509C273.179 5.07407 273.057 5.07451 272.941 5.07637C272.826 5.07823 272.718 5.08147 272.627 5.08588C272.574 5.09075 272.546 5.09634 272.546 5.10205C272.546 5.10776 272.574 5.11336 272.627 5.11823C272.97 5.12714 273.333 5.13348 273.706 5.1371C273.706 5.1371 273.97 5.12227 274.066 5.11688V5.12228ZM199.133 5.15868C199.469 5.12632 199.853 5.1061 199.757 5.09262C199.661 5.07913 199.037 5.05622 198.485 5.0643C198.317 5.0643 198.078 5.08857 198.126 5.09397C198.439 5.11489 198.776 5.1347 199.133 5.15329V5.15868ZM167.951 4.96858C167.652 4.95367 167.287 4.94356 166.895 4.93929C166.502 4.93502 166.097 4.93676 165.72 4.94431C165.6 4.94431 165.504 4.95241 165.408 4.9551C165.313 4.9578 165.696 4.97802 165.84 4.97802C166.608 4.97263 167.087 4.96724 168.071 4.96319L167.951 4.96858ZM145.74 4.96858C145.424 4.96049 145.094 4.95417 144.756 4.94971C144.756 4.94971 144.517 4.96724 144.397 4.97667L145.308 5.00633L145.74 4.96858ZM233.769 0.609918C233.577 0.627445 233.457 0.632838 233.457 0.639579C233.409 0.664222 233.409 0.689084 233.457 0.713727C233.457 0.720468 233.865 0.729907 234.057 0.728559C234.249 0.727211 234.513 0.711031 234.465 0.705638C234.262 0.673078 234.03 0.64113 233.769 0.609918ZM236.168 0.818885C236.028 0.84583 235.924 0.87332 235.856 0.901126C235.852 0.90759 235.879 0.913994 235.934 0.919681C235.988 0.925368 236.069 0.930131 236.168 0.933481C236.28 0.936479 236.403 0.938035 236.527 0.938035C236.652 0.938035 236.775 0.936479 236.887 0.933481C236.955 0.92912 237.002 0.923855 237.023 0.918188C237.044 0.912521 237.038 0.906644 237.007 0.901126C236.777 0.871773 236.496 0.843774 236.168 0.817539V0.818885ZM180.328 0.622052C180.328 0.622052 180.568 0.609919 180.568 0.605874C180.568 0.60183 180.376 0.566778 180.28 0.547903C180.04 0.547903 179.608 0.560038 179.608 0.56543C179.68 0.583676 179.81 0.601034 179.992 0.616658C179.992 0.616658 180.16 0.619354 180.28 0.620702L180.328 0.622052ZM251.471 0.941569C251.471 0.870116 251.759 0.829673 250.823 0.771702C250.584 0.799646 250.514 0.831197 250.622 0.861595C250.73 0.891994 251.011 0.919591 251.423 0.940224L251.471 0.941569ZM194.168 0.655756C194.168 0.655756 194.432 0.655756 194.456 0.655756C194.648 0.632837 194.791 0.609917 194.959 0.586998C194.72 0.586998 194.432 0.573518 194.24 0.576214C193.616 0.591044 193.832 0.618006 193.952 0.642273C194.001 0.646608 194.057 0.650671 194.12 0.654407L194.168 0.655756ZM208.224 5.32181L208.895 5.30024C208.703 5.29215 208.488 5.27462 208.368 5.27597C208.083 5.28165 207.815 5.28984 207.576 5.30024L208.224 5.32181ZM259.89 1.00763C260.074 1.00266 260.251 0.996792 260.418 0.990106C260.31 0.974497 260.146 0.960281 259.938 0.948313C259.938 0.948313 259.53 0.956401 259.29 0.960446L259.89 1.00763ZM162.026 0.59509C161.835 0.584305 161.619 0.569472 161.571 0.57082C161.299 0.578548 161.061 0.589607 160.875 0.603179C160.875 0.603179 161.067 0.620703 161.187 0.63014L162.026 0.59509ZM250.775 0.709682C250.565 0.703214 250.339 0.698667 250.104 0.696204C249.984 0.696204 249.84 0.705639 249.696 0.711032C249.815 0.711642 249.936 0.711642 250.056 0.711032L250.775 0.709682ZM146.244 0.759564V0.739343L144.66 0.746086V0.769003L146.244 0.759564ZM207.336 0.636884L206.569 0.666544C206.764 0.675333 206.995 0.681341 207.24 0.684067C207.456 0.684067 207.672 0.673285 207.912 0.666544L207.336 0.636884ZM192.009 0.436002C191.697 0.426565 191.433 0.415782 191.146 0.409041C190.858 0.4023 190.93 0.409038 190.834 0.418475L191.505 0.461618L192.009 0.436002ZM183.11 0.510154C182.83 0.501642 182.542 0.493989 182.247 0.487234C182.247 0.487234 182.007 0.487236 181.911 0.493977L182.487 0.53577L183.11 0.510154ZM201.628 4.33359C201.316 4.34438 201.004 4.34842 200.884 4.35921C200.764 4.36999 201.508 4.39291 202.083 4.38482C202.275 4.38482 202.395 4.36864 202.539 4.35921L201.628 4.33359ZM96.0885 4.48054L95.129 4.44145C95.129 4.44145 94.8892 4.45493 94.9132 4.45627C95.0615 4.47234 95.256 4.48691 95.4888 4.49942C95.7219 4.49369 95.9465 4.48693 96.1605 4.4792L96.0885 4.48054ZM20.5321 2.68477L20.2443 2.66185L19.4528 2.6996C19.4528 2.6996 19.6926 2.71173 19.7166 2.71038C19.9962 2.70265 20.2684 2.6941 20.5321 2.68477ZM28.3516 3.89813V3.88195H27.0084V3.90217L28.3516 3.89813ZM265.215 3.68242V3.66489L263.92 3.65815C263.8 3.65815 263.704 3.66624 263.608 3.67029C263.512 3.67433 263.92 3.69185 264.087 3.69185C264.465 3.69334 264.844 3.69198 265.215 3.68781V3.68242ZM245.186 3.66489C245.834 3.70399 246.362 3.70129 247.177 3.66489H245.186ZM123.217 4.97128C123.488 4.96771 123.753 4.96274 124.008 4.95645C123.954 4.93844 123.866 4.92082 123.745 4.90387C123.457 4.90387 122.977 4.91331 122.929 4.92274C122.881 4.93218 123.097 4.9605 123.217 4.97667V4.97128ZM171.909 4.6248L172.556 4.60727C172.364 4.60053 172.149 4.5884 171.933 4.5884C171.717 4.5884 171.501 4.59918 171.285 4.60458L171.909 4.6248ZM116.429 4.87017C116.429 4.87017 116.621 4.88365 116.717 4.88365C116.813 4.88365 117.628 4.88365 118.108 4.87691V4.86612C117.647 4.86202 117.183 4.85932 116.717 4.85803C116.717 4.85803 116.525 4.86612 116.429 4.87017ZM21.9953 2.65645V2.63893H21.5635C21.5635 2.63893 21.5635 2.65106 21.6835 2.65511C21.8034 2.65915 21.9233 2.6578 21.9953 2.65645ZM311.7 2.37334L312.036 2.3639C312.036 2.3639 311.82 2.35177 311.724 2.35311C311.628 2.35446 311.46 2.36255 311.316 2.36795L311.7 2.37334ZM318.536 2.18729C318.308 2.18385 318.076 2.18159 317.84 2.18055C317.84 2.18055 317.648 2.18864 317.553 2.19268L318.512 2.20077L318.536 2.18729ZM321.462 2.16841L322.182 2.15224C322.182 2.15224 321.966 2.13875 321.87 2.13875C321.774 2.13875 321.39 2.13875 321.127 2.13875L321.462 2.16841ZM275.697 4.3255V4.31337C275.57 4.31195 275.44 4.31195 275.313 4.31337V4.32415C275.441 4.32478 275.569 4.32478 275.697 4.32415V4.3255ZM38.4498 4.14889C38.2505 4.14388 38.0411 4.14026 37.8262 4.13811C37.8262 4.13811 37.6582 4.1381 37.5623 4.14889C37.7711 4.15372 37.9881 4.15733 38.2099 4.15967C38.2099 4.15967 38.3778 4.15159 38.4498 4.14754V4.14889ZM105.107 4.1017H104.412C104.496 4.1062 104.593 4.10986 104.7 4.11249C104.817 4.11456 104.942 4.11456 105.059 4.11249C105.059 4.11249 105.107 4.1044 105.107 4.10036V4.1017ZM55.0242 4.01138L54.7844 4.02351C54.9749 4.02857 55.1766 4.0322 55.384 4.03429C55.384 4.03429 55.5519 4.02755 55.6479 4.02351L55.0242 4.01138ZM46.1014 4.04104L45.8135 4.01003C45.8135 4.01003 45.5257 4.01003 45.5257 4.01677C45.5026 4.02751 45.5026 4.03838 45.5257 4.04913L46.1014 4.04104ZM70.6632 3.98037C70.4578 3.97781 70.2449 3.97781 70.0395 3.98037C69.6558 3.98037 69.6558 3.9952 70.0395 4.00194C70.254 4.0039 70.4727 4.0039 70.6872 4.00194L70.6632 3.98037ZM44.2784 4.03699C44.3686 4.02645 44.4486 4.01565 44.5183 4.00463C44.5183 4.00463 44.3744 3.9952 44.2784 3.98981C44.1825 3.98441 43.8946 4.00463 43.8946 4.01272C43.8946 4.02081 44.1345 4.02351 44.2784 4.0316V4.03699ZM282.605 3.97767L282.365 3.94262C282.365 3.94262 282.077 3.95206 282.101 3.9561C282.143 3.96726 282.208 3.97811 282.293 3.98846C282.411 3.98401 282.516 3.97855 282.605 3.97228V3.97767ZM74.5729 3.89813C74.5729 3.89813 74.5729 3.88869 74.381 3.88869C74.2703 3.88738 74.156 3.88738 74.0452 3.88869C74.0452 3.88869 74.0452 3.90083 74.2611 3.90217C74.477 3.90352 74.453 3.89543 74.5729 3.89274V3.89813ZM279.127 3.81184C279.127 3.81184 278.935 3.82263 278.935 3.82802C278.935 3.83342 278.935 3.84151 278.935 3.8469C278.935 3.85229 279.127 3.83611 279.151 3.83072C279.17 3.82262 279.162 3.81438 279.127 3.80645V3.81184ZM255.596 3.67703L255.093 3.6959C255.093 3.6959 255.309 3.70804 255.38 3.70804C255.611 3.70588 255.836 3.70226 256.052 3.69725L255.596 3.67703ZM254.541 0.879554C254.541 0.879554 254.349 0.864724 254.301 0.866072C254.084 0.869607 253.874 0.874587 253.677 0.880904C253.677 0.880904 253.869 0.894382 253.917 0.894382C254.133 0.890591 254.342 0.885626 254.541 0.879554ZM193.304 0.321406C193.085 0.317976 192.86 0.315721 192.633 0.314667C192.633 0.314667 192.441 0.32141 192.345 0.325455L193.28 0.332194L193.304 0.321406ZM244.539 0.860678L244.251 0.87416C244.464 0.880485 244.69 0.88546 244.923 0.888993C244.923 0.888993 245.114 0.880904 245.21 0.876859L244.539 0.860678ZM232.042 0.499367C232.042 0.499367 231.922 0.487232 231.826 0.485884C231.706 0.485259 231.586 0.485259 231.466 0.485884C231.54 0.493159 231.629 0.499946 231.73 0.50611C231.73 0.50611 231.922 0.506107 232.042 0.503411V0.499367ZM249.84 0.554643L250.463 0.538465C250.247 0.538465 250.056 0.522288 249.84 0.522288C249.624 0.522288 249.432 0.530377 249.216 0.53577L249.84 0.554643ZM186.876 0.554643C186.708 0.554643 186.372 0.565429 186.372 0.57217C186.372 0.57891 186.54 0.59374 186.636 0.605874C186.732 0.618008 187.092 0.593738 187.116 0.586998C187.14 0.580257 186.972 0.574866 186.876 0.564081V0.554643ZM221.536 0.588347L222.28 0.574864C222.088 0.568124 221.896 0.557337 221.704 0.557337C221.512 0.557337 221.392 0.569473 221.248 0.576214L221.536 0.588347ZM147.179 0.612613C147.179 0.612613 147.035 0.60048 146.963 0.60048C146.744 0.602992 146.528 0.606143 146.315 0.609918C146.315 0.609918 146.507 0.62205 146.579 0.620702C146.801 0.623076 147.027 0.623532 147.251 0.622052L147.179 0.612613ZM229.763 0.78653H230.075H229.763C229.763 0.78653 229.859 0.793272 229.835 0.795968L229.763 0.78653ZM237.799 0.618007C237.799 0.618007 237.679 0.628792 237.799 0.634185C237.919 0.639577 237.991 0.654407 238.134 0.634185C238.158 0.629329 238.158 0.624212 238.134 0.619357C238.134 0.619357 237.943 0.628794 237.871 0.627445L237.799 0.618007ZM247.873 0.680022L247.729 0.663845C247.729 0.663845 247.513 0.671935 247.537 0.673283C247.594 0.68176 247.667 0.689889 247.753 0.697549L247.873 0.680022ZM165.217 0.81484H165.456C165.465 0.808559 165.465 0.80225 165.456 0.795968C165.456 0.795968 165.217 0.795966 165.217 0.802707C165.217 0.809448 165.265 0.82293 165.289 0.828323L165.217 0.81484ZM282.245 0.655756C282.245 0.655756 282.245 0.644971 282.245 0.643623C282.13 0.640999 282.001 0.640999 281.885 0.643623C281.549 0.650364 281.573 0.657105 281.885 0.66115C282.015 0.665753 282.164 0.668528 282.317 0.669239L282.245 0.655756ZM138.904 0.778441C139.135 0.78456 139.376 0.789521 139.623 0.793269C139.623 0.793269 139.815 0.785183 139.911 0.77979C140.007 0.774398 139.719 0.766309 139.623 0.767657C139.394 0.774545 139.177 0.782672 138.976 0.791924L138.904 0.778441ZM280.758 1.02651C280.758 1.02651 280.758 1.03729 280.758 1.03864C280.877 1.03995 280.999 1.03995 281.118 1.03864V1.01842L280.758 1.02651ZM116.237 5.07913L115.925 5.04273C115.925 5.04273 115.613 5.05217 115.637 5.05622C115.705 5.06836 115.793 5.08009 115.901 5.09127L116.237 5.07913ZM119.835 4.96184V4.94971H119.499V4.96049C119.593 4.9619 119.69 4.96236 119.787 4.96184H119.835ZM198.341 4.96184C198.341 4.96184 198.629 4.9524 198.605 4.94836C198.538 4.93622 198.449 4.92448 198.341 4.91331C198.241 4.92498 198.16 4.93717 198.102 4.94971C198.102 4.94971 198.198 4.96319 198.293 4.96724L198.341 4.96184ZM284.02 4.85264C283.9 4.86208 283.66 4.87016 283.66 4.88095C283.66 4.89174 283.852 4.90117 283.972 4.91061C284.092 4.92005 284.308 4.89174 284.308 4.8823C284.308 4.87286 284.14 4.86747 283.972 4.85803L284.02 4.85264ZM133.507 5.25709L133.267 5.24226C133.16 5.25204 133.071 5.26244 133.003 5.27327C133.003 5.27327 133.147 5.28271 133.219 5.2881L133.507 5.25709ZM112.135 5.19373L111.799 5.16407C111.656 5.17351 111.44 5.18294 111.44 5.19238C111.44 5.20182 111.656 5.2126 111.751 5.22339C111.893 5.21407 112.021 5.20415 112.135 5.19373ZM282.437 4.90252L282.149 4.91465C282.149 4.91465 282.317 4.92949 282.413 4.92949C282.509 4.92949 282.605 4.9214 282.701 4.91735L282.437 4.90252ZM142.622 4.61806C142.622 4.61806 142.478 4.60592 142.382 4.60592C142.286 4.60592 142.214 4.60592 142.118 4.61536C142.022 4.6248 142.262 4.62749 142.358 4.62749C142.454 4.62749 142.406 4.62075 142.622 4.61806ZM216.571 5.29215L216.427 5.30293H216.643L216.571 5.29215ZM284.931 5.05352L285.051 5.04543H284.835L284.931 5.05352ZM321.438 2.03225L321.223 2.02551V2.03629L321.438 2.03225ZM86.542 4.45897C86.542 4.45897 86.3981 4.44684 86.3021 4.44684C86.2062 4.44684 86.1343 4.44684 86.0383 4.45627C85.9424 4.46571 86.1822 4.46706 86.2782 4.46706C86.3741 4.46706 86.3501 4.45088 86.4221 4.44819L86.542 4.45897ZM187.524 4.36999L187.74 4.37673V4.36594L187.524 4.36999ZM278.311 3.67433V3.70669L278.623 3.69455L278.311 3.67433ZM309.733 0.60183L309.877 0.589697H309.637L309.733 0.60183ZM191.889 0.60183L192.033 0.588347H191.793L191.889 0.60183ZM244.059 0.550598C244.059 0.550598 243.843 0.535767 243.795 0.537116C243.363 0.543856 243.363 0.554642 243.795 0.562731C244.227 0.57082 243.843 0.54251 243.939 0.538465L244.059 0.550598ZM20.2923 1.24626L20.1484 1.26109H20.2923V1.24626ZM260.945 0.781136V0.806751L261.209 0.795968L260.945 0.781136ZM217.626 0.667889C217.626 0.667889 217.434 0.653058 217.362 0.654407C217.291 0.655755 216.979 0.66924 217.362 0.678677C217.746 0.688114 217.482 0.670586 217.578 0.667889H217.626Z" fill="#3DB39E"/>
</svg>
