<svg width="72" height="72" viewBox="0 0 72 72" fill="none" xmlns="http://www.w3.org/2000/svg">
<path d="M47.7015 2.66331C48.4101 2.66331 48.9846 2.08881 48.9846 1.38051C48.9846 0.672212 48.4101 0.0974121 47.7015 0.0974121C46.9929 0.0974121 46.4187 0.671912 46.4187 1.38051C46.4187 2.08911 46.9932 2.66331 47.7015 2.66331Z" fill="white"/>
<path d="M65.4 9.50239C66.0633 9.50239 66.6 8.96509 66.6 8.30239V5.90239C66.6 5.23969 66.0633 4.70239 65.4 4.70239C64.7367 4.70239 64.2 5.23969 64.2 5.90239V8.30239C64.2 8.96509 64.7367 9.50239 65.4 9.50239Z" fill="white"/>
<path d="M65.4 11.9023C64.7367 11.9023 64.2 12.4396 64.2 13.1023V15.5023C64.2 16.165 64.7367 16.7023 65.4 16.7023C66.0633 16.7023 66.6 16.165 66.6 15.5023V13.1023C66.6 12.4396 66.0633 11.9023 65.4 11.9023Z" fill="white"/>
<path d="M60.6 11.9024H63C63.6633 11.9024 64.2 11.3651 64.2 10.7024C64.2 10.0397 63.6633 9.50244 63 9.50244H60.6C59.9367 9.50244 59.4 10.0397 59.4 10.7024C59.4 11.3651 59.9367 11.9024 60.6 11.9024Z" fill="white"/>
<path d="M70.2 9.50244H67.8C67.1367 9.50244 66.6 10.0397 66.6 10.7024C66.6 11.3651 67.1367 11.9024 67.8 11.9024H70.2C70.8633 11.9024 71.4 11.3651 71.4 10.7024C71.4 10.0397 70.8633 9.50244 70.2 9.50244Z" fill="white"/>
<path d="M4.79998 63.5024C2.48428 63.5024 0.599976 65.3867 0.599976 67.7024C0.599976 70.0181 2.48428 71.9024 4.79998 71.9024C7.11568 71.9024 8.99998 70.0181 8.99998 67.7024C8.99998 65.3867 7.11568 63.5024 4.79998 63.5024ZM4.79998 69.5024C3.80728 69.5024 2.99998 68.6951 2.99998 67.7024C2.99998 66.7097 3.80728 65.9024 4.79998 65.9024C5.79268 65.9024 6.59998 66.7097 6.59998 67.7024C6.59998 68.6951 5.79268 69.5024 4.79998 69.5024Z" fill="white"/>
<path d="M26.1015 66.0974C25.3929 66.0974 24.8187 66.6719 24.8187 67.3805C24.8187 68.0891 25.3932 68.6633 26.1015 68.6633C26.8098 68.6633 27.3846 68.0888 27.3846 67.3805C27.3846 66.6722 26.8101 66.0974 26.1015 66.0974Z" fill="white"/>
<path d="M64.7835 20.908C47.4984 15.9466 29.967 15.7741 12.6816 20.3905L11.931 19.9798L10.0524 16.5445C9.63295 15.7759 8.36725 15.7759 7.94755 16.5445L6.06895 19.9798L2.63305 21.8584C2.24755 22.0687 2.00845 22.4725 2.00845 22.9114C2.00845 23.3503 2.24755 23.7541 2.63305 23.9644L6.06895 25.843L7.80535 29.0182C7.80535 29.0278 7.79995 29.0356 7.79995 29.0452V35.3089C7.79995 37.621 9.68186 39.5026 11.994 39.5026H12.6V43.1026H11.994C9.68186 43.1026 7.79995 44.9839 7.79995 47.2963V56.1151C7.79995 58.1959 9.34345 59.9818 11.3895 60.2707C19.7943 61.4566 28.4205 62.0503 37.2105 62.0503C46.05 62.0503 55.0536 61.4503 64.1589 60.2503C66.2343 59.9773 67.8 58.1866 67.8 56.0854V47.2963C67.8 44.9842 65.9181 43.1026 63.606 43.1026H63V39.5026H63.606C65.9181 39.5026 67.8 37.6213 67.8 35.3089V24.9412C67.8 23.0761 66.5589 21.4171 64.7835 20.908ZM7.52815 23.9056L5.70955 22.9114L7.52815 21.9172C7.72975 21.8071 7.89505 21.6412 8.00515 21.4402L8.99995 19.6213L9.99476 21.4399C10.1049 21.6409 10.2702 21.8068 10.4718 21.9169L12.2904 22.9111L10.4718 23.9053C10.2702 24.0154 10.1049 24.1813 9.99476 24.3823L8.99995 26.2015L8.00515 24.3829C7.89475 24.1816 7.72975 24.016 7.52815 23.9056ZM17.4 49.1023C16.077 49.1023 15 48.0259 15 46.7023V41.9023H19.8V46.7023C19.8 48.0259 18.723 49.1023 17.4 49.1023ZM22.2 46.7023V44.3023H27V49.1023C27 50.4259 25.923 51.5023 24.6 51.5023C23.277 51.5023 22.2 50.4259 22.2 49.1023V46.7023ZM29.4 44.3023H36.6V49.1023C36.6 51.0874 34.9851 52.7023 33 52.7023C31.0149 52.7023 29.4 51.0874 29.4 49.1023V44.3023ZM39 44.3023H46.2V49.1023C46.2 51.0874 44.5851 52.7023 42.6 52.7023C40.6149 52.7023 39 51.0874 39 49.1023V44.3023ZM48.6 44.3023H53.4V46.7023V49.1023C53.4 50.4259 52.323 51.5023 51 51.5023C49.677 51.5023 48.6 50.4259 48.6 49.1023V44.3023ZM55.8 41.9023H60.6V46.7023C60.6 48.0259 59.523 49.1023 58.2 49.1023C56.877 49.1023 55.8 48.0259 55.8 46.7023V41.9023ZM60.6 39.5023H55.8V35.9023V34.7023C55.8 33.3787 56.877 32.3023 58.2 32.3023C59.523 32.3023 60.6 33.3787 60.6 34.7023V39.5023ZM53.4 41.9023H48.6V35.9023C48.6 34.5787 49.677 33.5023 51 33.5023C52.323 33.5023 53.4 34.5787 53.4 35.9023V41.9023ZM46.2 41.9023H39V35.9023C39 33.9172 40.6149 32.3023 42.6 32.3023C44.5851 32.3023 46.2 33.9172 46.2 35.9023V41.9023ZM36.6 41.9023H29.4V35.9023C29.4 33.9172 31.0149 32.3023 33 32.3023C34.9851 32.3023 36.6 33.9172 36.6 35.9023V41.9023ZM27 41.9023H22.2V35.9023C22.2 34.5787 23.277 33.5023 24.6 33.5023C25.923 33.5023 27 34.5787 27 35.9023V41.9023ZM19.8 39.5023H15V34.7023C15 33.3787 16.077 32.3023 17.4 32.3023C18.723 32.3023 19.8 33.3787 19.8 34.7023V39.5023ZM63.606 45.5023C64.5951 45.5023 65.4 46.3069 65.4 47.296V56.0851C65.4 56.9863 64.7319 57.7537 63.8448 57.871C45.9021 60.2353 28.3662 60.2434 11.7246 57.8938C10.8552 57.7714 10.2 57.0067 10.2 56.1148V47.296C10.2 46.3069 11.0052 45.5023 11.994 45.5023H12.6V46.7023C12.6 49.3489 14.7528 51.5023 17.4 51.5023C18.3948 51.5023 19.3197 51.1975 20.0871 50.6773C20.7426 52.5484 22.5072 53.9023 24.6 53.9023C25.9425 53.9023 27.1542 53.3455 28.026 52.4545C29.1054 54.0508 30.9324 55.1023 33 55.1023C34.9695 55.1023 36.7053 54.1354 37.8 52.6651C38.8947 54.1354 40.6305 55.1023 42.6 55.1023C44.6679 55.1023 46.4946 54.0508 47.574 52.4545C48.4458 53.3455 49.6575 53.9023 51 53.9023C53.0928 53.9023 54.8574 52.5484 55.5129 50.6773C56.2803 51.1975 57.2052 51.5023 58.2 51.5023C60.8472 51.5023 63 49.3489 63 46.7023V45.5023H63.606ZM65.4 35.3086C65.4 36.2977 64.5948 37.1023 63.606 37.1023H63V34.7023C63 32.0557 60.8472 29.9023 58.2 29.9023C56.448 29.9023 54.9288 30.8554 54.0906 32.2603C53.253 31.5484 52.1829 31.1023 51 31.1023C49.6575 31.1023 48.4458 31.6591 47.574 32.5501C46.4946 30.9538 44.6676 29.9023 42.6 29.9023C40.6305 29.9023 38.8947 30.8692 37.8 32.3395C36.7053 30.8692 34.9695 29.9023 33 29.9023C30.9321 29.9023 29.1054 30.9538 28.026 32.5501C27.1542 31.6591 25.9425 31.1023 24.6 31.1023C23.4171 31.1023 22.347 31.5484 21.5094 32.2603C20.6712 30.8554 19.152 29.9023 17.4 29.9023C14.7528 29.9023 12.6 32.0557 12.6 34.7023V37.1023H11.994C11.0049 37.1023 10.2 36.2977 10.2 35.3086V29.0449C10.2 29.0353 10.1946 29.0275 10.1946 29.0179L11.931 25.8427L15.3669 23.9641C15.7524 23.7538 15.9915 23.35 15.9915 22.9111C15.9915 22.6108 15.873 22.3321 15.6789 22.1152C31.7691 18.2401 48.0513 18.6013 64.1217 23.2144C64.8741 23.4301 65.4003 24.1402 65.4003 24.9406V35.3086H65.4Z" fill="white"/>
<path d="M42.5754 25.281C40.6569 25.281 38.8536 26.028 37.4988 27.384C37.0302 27.8526 37.0302 28.6128 37.4988 29.0814C37.7331 29.3151 38.0403 29.4324 38.3472 29.4324C38.6541 29.4324 38.9613 29.3151 39.1956 29.0808C40.098 28.1778 41.298 27.681 42.5754 27.681C43.7544 27.681 44.8875 28.1139 45.7653 28.8996C46.2576 29.3427 47.0157 29.301 47.4597 28.8069C47.9016 28.3131 47.8605 27.5541 47.3661 27.1125C46.0476 25.9314 44.346 25.281 42.5754 25.281Z" fill="white"/>
</svg>
