<svg xmlns="http://www.w3.org/2000/svg" width="256.434" height="133.823" viewBox="0 0 256.434 133.823"><defs><style>.a,.i{fill:#fff;}.a,.d{stroke:#00a4f6;}.a,.d,.f,.g,.h{stroke-miterlimit:10;}.b{fill:#00a4f6;}.c{fill:#0b2650;}.d,.f,.g,.h{fill:none;}.e{fill:#03a9f4;}.f,.g,.h{stroke:#0b2650;}.g{stroke-width:0.5px;}.h{stroke-width:0.75px;}</style></defs><g transform="translate(-17.449 -180.5)"><rect class="a" width="31.949" height="31.949" transform="translate(172.29 218.915)"/><rect class="a" width="33.09" height="30.986" transform="translate(171.149 184.505)"/><rect class="a" width="31.949" height="25.483" transform="translate(133.495 184.684)"/><path class="b" d="M136.194,286.578l-3.281-10.865,4.1.065c-.076-.146,7.316,0,7.316,0l5.16,15.829,1.9,5.127h-4.346" transform="translate(-66.962 -58.999)"/><path class="a" d="M141.5,288.1s11.41-7.226,9.509-4.564-5.928,5.052-3.8,3.8,3.423-2.662,4.184-1.9-4.184,4.564.761,2.662c0,2.662-1.521,2.662.761,2.662,1.141,1.521-.761,4.944-.761,4.944l-.633,4.747,1.014,5.142,9.509,36.893L179.3,309.308l17.676,4.366s-25.048,56.965-37.219,47.076c-16.077-13.062-17.5-54.389-17.5-55.15-.38-1.9-1.141-16.355.084-17.686" transform="translate(-72.283 -63.485)"/><path class="c" d="M271.642,276.187s-5.859-5.642-.283-9.658a25.542,25.542,0,0,0,6.978-7.585l5.73,1.121s5.427,13.3,2.651,14.24S280.883,270.564,271.642,276.187Z" transform="translate(-151.259 -48.608)"/><path class="c" d="M312,271.057l-2.662,3.8-3.477-4.382S309.334,272.578,312,271.057Z" transform="translate(-174.128 -55.756)"/><path class="d" d="M370,308.056h38.034s-5.478-3.4-8.692-2.858-3.9.954-6.219-.059-7.4-3.325-13.412-1.707A28.373,28.373,0,0,0,370,308.056Z" transform="translate(-213.875 -75.829)"/><path class="d" d="M354,203.553h27s-3.889-2.417-6.171-2.03-2.773.677-4.415-.042-5.254-2.361-9.523-1.212A20.145,20.145,0,0,0,354,203.553Z" transform="translate(-203.96 -12.004)"/><path class="d" d="M478.711,337.342A28.375,28.375,0,0,0,469,341.966h10.2" transform="translate(-275.221 -97.188)"/><path class="e" d="M287.687,473.968c-.852-.782-14.309,21.912-14.309,21.912l69.356.28-10.772-18.384" transform="translate(-154.002 -181.837)"/><path class="c" d="M195.594,379.249v8.077a6.818,6.818,0,0,0,7.191,5.711,8.732,8.732,0,0,0,8.368-5.325v-8.463Z" transform="translate(-105.803 -123.156)"/><path class="f" d="M236.5,387.353s7.227-4.564,5.705-7.607-5.705,1.331-5.705,1.331" transform="translate(-131.15 -122.797)"/><rect class="c" width="15.214" height="1.521" transform="translate(91.277 269.88)"/><path class="c" d="M321.22,440.717l-1.348,4.08s18.714,13.577,18.387,13.4,22.732-10,22.732-10l-12.115-8.373S333.344,446.968,321.22,440.717Z" transform="translate(-182.813 -160.691)"/><path class="a" d="M276.318,364.208s-12.486,39-12.691,37.765c-.142-.853-29.114-6.4-47.446-11.433a.768.768,0,0,0-.1-.125c-1.521-1.521-6.085-2.134-9.128-5.325-1.837-1.927-4.184,1.9-7.661-.19-2.777-1.671-3.749.19-3.749.19l3.581,2.81H196.6s-3.684-2.81-5.721-4.712-3.287,0-3.287,0,6.085,6.085,7.662,7.607,2.586,1.639,4.853,1.9c2.749.318,6.187,2.047,8.487,3.371l1.035,1.035,63.123,25.788h0l21.679-53.248Z" transform="translate(-100.845 -113.836)"/><path class="a" d="M310.592,221.614s-1.711-.271-1.836,0c-2.233,4.86-7.677,7.091-12.16,4.985a8.748,8.748,0,0,1-4.685-5.712,10.167,10.167,0,0,1,.611-6.9c.124-.27-1.483-1.265-1.339-1.518l2.953-2.252,3.15-6.354a8.959,8.959,0,0,1,11.333-3.429,9.153,9.153,0,0,1,4.717,10.971l.259,3.7Z" transform="translate(-165.03 -11.838)"/><path class="g" d="M312.774,222.665a1.558,1.558,0,0,0-2.225.414" transform="translate(-177.035 -25.938)"/><path class="h" d="M295.568,247.353a1.511,1.511,0,0,0,2.3.625" transform="matrix(0.809, -0.588, 0.588, 0.809, -256.754, 180.369)"/><ellipse class="c" cx="0.566" cy="0.571" rx="0.566" ry="0.571" transform="translate(133.568 198.874) rotate(-10.547)"/><path class="c" d="M255.706,309.915s1.184,9.541.982,12.982-1.405,17.688,14.379,24.724c12.741,8.558,27.765-.761,27.765-.761s-1.712,4.754-.19.19,7.607-23.2,7.607-23.2l22.06.761h0c-3.8-20.919-25.483-34.611-33.09-34.611-16.1,0-11.377,10.929-19.017,10.65s-8.116-7.1-8.116-7.1-19.269-8.873-29.2,22.029l18.056,4.366Z" transform="translate(-132.628 -67.853)"/><path class="d" d="M137.054,208.259l5.495,11.845,16.771-8.933-5.229-11.566-5.837,11.751Z" transform="translate(-69.528 -11.839)"/><line class="d" x1="16.735" y2="8.748" transform="translate(67.696 187.727)"/><rect class="d" width="10.65" height="10.65" transform="translate(86.268 208.817) rotate(17.413)"/><rect class="d" width="8.748" height="8.748" transform="translate(52.482 205.983)"/><path class="c" d="M312.952,213.222s2.8-3.074,5.551-1.884,1.612,8.208-2.543,8.982c-.815.152-3.177,5.621.563,7.553.673.348-.76,9.5,5.4,10.906S332.22,235.2,332.22,235.2s2.768,7.323,11.364,5.188,6.651-11.945,4.21-16.633c-5.25-10.083-11.971-5.429-14.673-10.881s-3.952-14.7-21.143-13.931a8.546,8.546,0,0,0-8.425,6.6c-.865,4.415,8.07.546,8.07.546Z" transform="translate(-172.664 -11.398)"/><line class="f" x2="3.423" y2="11.41" transform="translate(170.198 244.588)"/><path class="d" d="M133.572,273.486l11.742-.008,7.438,21.5" transform="translate(-67.37 -57.614)"/><circle class="c" cx="0.666" cy="0.666" r="0.666" transform="translate(71.499 219.105)"/><circle class="d" cx="8.177" cy="8.177" r="8.177" transform="translate(182.559 191.91)"/><rect class="i" width="4.944" height="21.299" transform="translate(165.824 180.5)"/><rect class="a" width="42.408" height="3.423" transform="translate(217.011 285.474)"/><rect class="a" width="23.434" height="3.423" transform="translate(249.949 248.581)"/><rect class="a" width="23.434" height="3.423" transform="translate(17.949 252.581)"/></g></svg>