<svg xmlns="http://www.w3.org/2000/svg" width="105" height="28" viewBox="0 0 105 28"><defs><style>.a,.g{fill:#1f2f3a;}.a{fill-rule:evenodd;}.b{fill:none;stroke:#fff;stroke-miterlimit:10;}.c{fill:#0c5991;}.d{fill:#fff;}.e{fill:#223542;}.f{fill:#03a9f4;}</style></defs><g transform="translate(73 1)"><g transform="translate(-73 -1)"><g transform="translate(30.509)"><path class="a" d="M183.224,3.408c0,1.44-.386,2.881-.913,2.881s-.913-1.3-.913-2.881.422-2.881.913-2.881.913,1.3.913,2.881m1.9,0c0-1.862-1.265-3.408-2.811-3.408A3.148,3.148,0,0,0,179.5,3.408a3.148,3.148,0,0,0,2.811,3.408c1.546,0,2.811-1.546,2.811-3.408" transform="translate(-147.143)"/><path class="a" d="M166.216,3.3h1.019c.422,0,.738-.6.738-1.23,0-.562-.386-1.159-.843-1.159h-.913V3.3Zm0,.984V6.745H164.6V0h2.951a2.019,2.019,0,0,1,1.757,2.248,1.984,1.984,0,0,1-1.651,2.038Z" transform="translate(-137.478)"/><path class="a" d="M148.684,6.745H147.7V0h.984l1.651,3.3,1.23-3.3h1.511V6.745h-1.616V3.2l-1.265,3.548h-.211l-1.3-3.338V6.745" transform="translate(-126.515)"/><path class="a" d="M136.1,0h3.619V.878H137.54V2.038h1.616v.773H137.54V5.9h2.178V6.71H136.1V0" transform="translate(-118.991)"/><path class="a" d="M129.7,0h1.44V6.745H129.7Z" transform="translate(-114.839)"/><path class="a" d="M114.9,0h4.567V.949h-1.476v5.8h-1.546V.878H114.9V0" transform="translate(-105.239)"/><path class="a" d="M100.1,0h1.476V5.937h2.108v.808H100.1V0" transform="translate(-95.638)"/><path class="a" d="M87.4,0h3.619V.878H88.876V2h1.546v.808H88.84V5.937h2.143v.808H87.4V0" transform="translate(-87.4)"/></g><line class="b" x2="13.983" transform="translate(8.502 9.205)"/><g transform="translate(2.248 7.294)"><path class="c" d="M10.475,25.678l8.151,6.781a1.609,1.609,0,0,0,1.476.492h.07a2.748,2.748,0,0,0,.7-.457c1.405-1.265,5.3-4.392,11.629-9.31v-.668A1.643,1.643,0,0,0,30.993,20.9H7.876a2.372,2.372,0,0,0-.492.07,1.248,1.248,0,0,0-.562.386,1.667,1.667,0,0,0-.422.984l.281.246,2.635,2.178.773.632" transform="translate(-6.4 -20.9)"/><path class="c" d="M17,33.6l.351.316" transform="translate(-13.276 -29.138)"/></g><g transform="translate(6.148 0.211)"><path class="d" d="M35.207,18.517a6.392,6.392,0,0,1,1.019-3.654V.6H17.5V22.944H36.226v-.492a7.114,7.114,0,0,1-1.019-3.9Z" transform="translate(-17.5 -0.6)"/></g><g transform="translate(5.937)"><path class="e" d="M17.322,16.864H16.9V0H36.047V4.919h-.422V.422h-18.3Z" transform="translate(-16.9)"/></g><g transform="translate(8.502 3.267)"><rect class="e" width="13.983" height="0.422"/></g><g transform="translate(8.502 5.425)"><rect class="e" width="13.983" height="0.422"/></g><g transform="translate(0 10.715)"><path class="e" d="M18.515,48.085H1.721A1.763,1.763,0,0,1,0,46.293V30.8l.422.035h0V46.293a1.368,1.368,0,0,0,1.3,1.405H18.48Z" transform="translate(0 -30.8)"/></g><path class="f" d="M31.163,70.581H8.011A1.561,1.561,0,0,1,6.5,69h0a1.643,1.643,0,0,0,1.511,1.616q11.594,0,23.152-.035a1.474,1.474,0,0,0,1.44-1.3h0A1.474,1.474,0,0,1,31.163,70.581Z" transform="translate(-4.216 -44.865)"/><path class="f" d="M6.5,24.9h0V40.358h0V24.9Z" transform="translate(-4.216 -16.258)"/><path class="f" d="M8.046,41.974H31.2a1.474,1.474,0,0,0,1.44-1.3c-2.53-.668-4.532-2.6-4.532-6.359V34.28A5.836,5.836,0,0,1,32.638,28.2V25.743c-6.324,4.919-10.224,8.045-11.629,9.31a5.037,5.037,0,0,1-.7.457h-.07a1.523,1.523,0,0,1-1.476-.492L10.54,28.273l-.351-.316-.773-.632L6.781,25.146,6.5,24.9V40.358A1.6,1.6,0,0,0,8.046,41.974Z" transform="translate(-4.216 -16.258)"/><g transform="translate(8.853 8.572)"><path class="g" d="M105.4,39.3h.316c.773,0,.913-.176.913-.949V29.286c0-1.054-.386-1.23-1.124-1.23h-.07V26.3h4.743V38.386c0,.7.141.913,1.019.913h.281v1.616h-6.043V39.3Z" transform="translate(-77.358 -25.738)"/><path class="g" d="M131.956,45.264a7,7,0,0,0,2.881-.632V45.9a5.364,5.364,0,0,1-4.075,1.44c-3.619,0-5.762-1.932-5.762-5.551v-.035a5.19,5.19,0,0,1,5.446-5.551c3.232,0,4.883,1.792,4.883,4.427a4.1,4.1,0,0,1-.316,1.686h-6.394C128.724,44.491,129.778,45.264,131.956,45.264Zm-3.338-4.427h3.548v-.176c0-2.073-.527-2.881-1.651-2.881C129.321,37.781,128.689,38.589,128.619,40.837Z" transform="translate(-90.114 -32.16)"/><path class="g" d="M158.47,39.994V34.232H157.1v-1.44c2-.176,2.635-1.019,3.162-3.092h1.721v2.811h3.057v1.721h-3.057v5.446c0,1.546.562,1.862,1.757,1.862a3.4,3.4,0,0,0,1.37-.246v1.019a3.772,3.772,0,0,1-3.092,1.089C160.086,43.4,158.47,42.629,158.47,39.994Z" transform="translate(-110.987 -27.943)"/><path class="g" d="M187.762,38.261h.316v1.616H182V38.261h.316c.773,0,.913-.176.913-.949V32.359c0-1.054-.386-1.23-1.124-1.23H182v-1.9h4.778v8.08C186.778,38.121,186.919,38.261,187.762,38.261Zm-4.778-11.7a1.862,1.862,0,0,1,3.724,0,1.822,1.822,0,0,1-1.862,1.827A1.8,1.8,0,0,1,182.984,26.562Z" transform="translate(-127.176 -24.7)"/><path class="g" d="M214.064,46.175h.141v1.616h-6.078V46.175h.211c.913,0,1.124-.07,1.124-.773V40.835c0-1.159-.492-1.757-1.511-1.757-1.3,0-2.108,1.054-2.108,2.846v3.443c0,.668.141.773,1.124.773h.211v1.616H201.1V46.14h.281c.773,0,.913-.176.913-.949V40.273c0-1.054-.386-1.23-1.124-1.23h-.07v-1.9h4.181c.07.211.176.422.246.7a7.2,7.2,0,0,1,.246,1.721v.176a3.644,3.644,0,0,1,3.759-2.846c2.108,0,3.443,1.23,3.443,3.829V45.3C213.01,45.929,213.115,46.175,214.064,46.175Z" transform="translate(-139.622 -32.614)"/><path class="g" d="M247.756,45.264a7,7,0,0,0,2.881-.632V45.9a5.364,5.364,0,0,1-4.075,1.44c-3.619,0-5.762-1.932-5.762-5.551v-.035a5.19,5.19,0,0,1,5.445-5.551c3.232,0,4.883,1.792,4.883,4.427a4.1,4.1,0,0,1-.316,1.686h-6.429C244.524,44.491,245.543,45.264,247.756,45.264Zm-3.373-4.427h3.548v-.176c0-2.073-.527-2.881-1.651-2.881C245.086,37.781,244.454,38.589,244.383,40.837Z" transform="translate(-165.487 -32.16)"/><path class="g" d="M275.667,46.167a3.691,3.691,0,0,1-.246.808c-.07.105-.105.211-.141.246H273.7v-3.3h2.038a2.358,2.358,0,0,0,2.494,1.967c1.019,0,1.722-.386,1.722-1.23,0-.668-.316-.843-.913-.984a18.664,18.664,0,0,1-3.689-.808,2.982,2.982,0,0,1-1.651-2.986c0-2.635,2.284-3.478,3.97-3.478,1.476,0,2.319.457,2.74,1.3a4.553,4.553,0,0,1,.246-.808.566.566,0,0,1,.141-.246h1.546V39.7h-1.967a2.134,2.134,0,0,0-2.213-1.616c-.878,0-1.546.316-1.546,1.159a.951.951,0,0,0,.843.984c1.054.281,2.811.281,3.9.878a2.907,2.907,0,0,1,1.616,2.881c0,2.354-1.721,3.548-4.146,3.548A3.846,3.846,0,0,1,275.667,46.167Z" transform="translate(-186.828 -32.29)"/><path class="g" d="M70.7,41.646V41.61c0-3.478,2.389-5.41,5.621-5.41s5.621,1.967,5.621,5.41v.035c0,4.075-2.74,5.691-5.621,5.691C73.405,47.337,70.7,45.721,70.7,41.646ZM78.359,42v-.773c0-2.389-.808-3.3-2.038-3.3s-2.038.913-2.038,3.3V42c0,3.021.913,3.724,2.038,3.724S78.359,45.018,78.359,42Z" transform="translate(-54.796 -32.16)"/><path class="g" d="M34.686,32.043v-.07c2.6-.281,3.9-1.124,3.9-3.338,0-2.775-2.038-3.935-5.691-3.935H25.2v1.932h.562c.843,0,1.23.176,1.23,1.265v8.924c0,1.089-.422,1.265-1.23,1.265H25.2v1.827h7.553c5.024-.035,6.429-1.616,6.429-4.251C39.183,33.448,37.672,32.253,34.686,32.043Zm-1.967,6.043H30.927V33.026h1.721c2,0,2.635.808,2.635,2.494C35.318,37.137,34.932,38.085,32.718,38.085Zm2.178-9.24c0,1.721-.562,2.459-2.248,2.459H30.927V26.632h1.932C34.264,26.632,34.9,27.265,34.9,28.846Z" transform="translate(-25.2 -24.7)"/><path class="d" d="M45.892,50.894c0,1.616-.386,2.565-2.6,2.565H41.5V48.4h1.721C45.259,48.4,45.892,49.208,45.892,50.894Z" transform="translate(-35.773 -40.074)"/><path class="d" d="M45.47,32.413c0,1.721-.562,2.459-2.248,2.459H41.5V30.2h1.932C44.838,30.2,45.47,30.832,45.47,32.413Z" transform="translate(-35.773 -28.268)"/></g></g></g></svg>