<?xml version="1.0" encoding="UTF-8"?>
<svg width="37px" height="37px" viewBox="0 0 37 37" version="1.1" xmlns="http://www.w3.org/2000/svg" xmlns:xlink="http://www.w3.org/1999/xlink">
    <!-- Generator: Sketch 55.2 (78181) - https://sketchapp.com -->
    <title>contact-icon-phone</title>
    <desc>Created with Sketch.</desc>
    <g id="Page-1" stroke="none" stroke-width="1" fill="none" fill-rule="evenodd">
        <g id="et-servicio-al-cliente-validaciones-moviles" transform="translate(-19.000000, -1469.000000)" stroke="#393939" stroke-width="2">
            <g id="contact-icon-phone" transform="translate(20.000000, 1470.000000)">
                <path d="M8.7779701,0.988451732 C8.10370608,0.212659586 7.0670326,-0.143794943 6.05889143,0.0535113426 C3.44322857,0.435123196 1.31393466,2.35492808 0.662101009,4.9193425 C-0.769830412,8.77218884 0.397989214,11.4495905 1.5546716,14.3165287 C3.54542523,19.143252 6.53732035,23.4917774 10.3324112,27.0744035 C13.8029619,30.6141351 18.1821115,33.1262797 22.9875029,34.334128 C26.7582556,35.3248144 28.4399795,35.2897741 31.3117976,33.6858815 C34.1836156,32.0819888 34.8120744,30.398459 34.9711779,28.9602117 C35.1302814,27.5219644 34.6354695,26.8896453 33.3674147,26.1139792 C32.0993598,25.3383132 27.6174145,22.7293995 27.6174145,22.7293995 C27.6174145,22.7293995 26.0693375,21.5858097 24.7376413,23.6308922 C23.4059451,25.6759748 21.9199185,27.6239 21.0973534,27.0744035 C18.457166,25.5253806 15.9552828,23.7513992 13.6194893,21.7721607 C11.7405667,19.7107036 10.1161235,17.4305116 8.78115217,14.9807027 C7.80584777,13.5918304 7.64356221,13.0821525 8.78115217,12.3144502 C9.95096598,11.4062087 11.0621417,10.4247068 12.1080062,9.3758386 C12.1080062,9.3758386 13.0339885,8.67821698 12.1080062,6.96123957 C11.1820239,5.24426216 8.7779701,0.988451732 8.7779701,0.988451732 Z" id="Trazado_22"></path>
            </g>
        </g>
    </g>
</svg>