<?xml version="1.0" standalone="no"?>
<!DOCTYPE svg PUBLIC "-//W3C//DTD SVG 1.1//EN" "http://www.w3.org/Graphics/SVG/1.1/DTD/svg11.dtd" >
<svg xmlns="http://www.w3.org/2000/svg" xmlns:xlink="http://www.w3.org/1999/xlink" version="1.1">
<metadata>
Created by FontForge 20170731 at Mon Oct 26 10:03:53 2020
 By Aleksey,,,
Copyright (c) 2014 Commercial Type.
</metadata>
<defs>
<font id="DuplicateIonic-Regular" horiz-adv-x="819" >
  <font-face 
    font-family="Duplicate Ionic Regular"
    font-weight="400"
    font-stretch="normal"
    units-per-em="2048"
    panose-1="0 0 0 0 0 0 0 0 0 0"
    ascent="1749"
    descent="-299"
    x-height="981"
    cap-height="1309"
    bbox="-369 -403 2335 2075"
    underline-thickness="102"
    underline-position="-263"
    unicode-range="U+0020-FB04"
  />
<missing-glyph horiz-adv-x="1024" 
 />
    <glyph glyph-name="f_b" unicode="fb" horiz-adv-x="1810" 
d="M57 981h148v59q0 95 31 165.5t85.5 110t120 58.5t142.5 19q172 0 233 -86q8 19 17.5 37t14.5 26l5 8h100v-647q35 125 133 200t242 75q187 0 293.5 -136t106.5 -362v-2q0 -252 -116.5 -390.5t-297.5 -138.5q-140 0 -232.5 67.5t-130.5 188.5q-4 -83 -18 -141t-26 -75
l-11 -17h-115v1133h-18q-46 0 -72 25t-26 73v65q-37 11 -86 11q-105 0 -154 -62.5t-49 -187.5v-76h278v-98h-278v-711q0 -60 21.5 -76t105.5 -16h49v-80h-490v80h56q54 0 70 17t16 71v715h-148v98zM1276 84q268 0 268 395v74q0 164 -67.5 250t-200.5 86q-131 0 -226.5 -98.5
t-95.5 -253.5v-41q0 -100 26.5 -180t71.5 -130t102.5 -76t121.5 -26z" />
    <glyph glyph-name="f_f_b" unicode="ffb" horiz-adv-x="2387" 
d="M57 981h148v53q0 78 22.5 138.5t58.5 97t86 60t99 32t104 8.5q106 0 175 -34.5t79 -100.5q47 81 135 119.5t197 38.5q82 0 143.5 -22.5t90.5 -63.5q8 19 17.5 37t14.5 26l5 8h100v-647q35 125 133 200t242 75q186 0 292.5 -136t106.5 -362v-2q0 -252 -116.5 -390.5
t-297.5 -138.5q-140 0 -232 67.5t-130 188.5q-4 -83 -18 -141t-26 -75l-11 -17h-115v1133h-19q-46 0 -72 25t-26 73v65q-37 11 -86 11q-105 0 -154 -62.5t-49 -187.5v-76h279v-98h-279v-711q0 -60 21.5 -76t105.5 -16h49v-80h-489v80h55q54 0 70 17t16 71v715h-405v-711
q0 -60 21.5 -76t105.5 -16h49v-80h-490v80h56q54 0 70 17t16 71v715h-148v98zM1853 84q269 0 269 395v74q0 164 -68 250t-201 86q-131 0 -226 -98.5t-95 -253.5v-41q0 -100 26.5 -180t71.5 -130t102 -76t121 -26zM377 981h405v59q0 50 9 93q-26 -15 -52 -15q-92 0 -92 99v61
q-24 6 -63 6q-106 0 -156.5 -53.5t-50.5 -179.5v-70z" />
    <glyph glyph-name="f_f_h" unicode="ffh" horiz-adv-x="2369" 
d="M1161 1393q82 0 143.5 -22.5t90.5 -63.5q8 19 17.5 37t14.5 26l5 8h100v-665q24 138 122.5 215.5t229.5 77.5q146 0 232 -86.5t86 -249.5v-508q0 -47 20.5 -64.5t91.5 -17.5h21v-80h-461v80h49q66 0 86.5 13t20.5 61v548q0 177 -193 177q-131 0 -218 -91t-87 -245v-389
q0 -46 19 -60t87 -14h50v-80h-463v80h49q54 0 70 17t16 71v965h-19q-46 0 -72 25t-26 73v65q-37 11 -86 11q-105 0 -154 -62.5t-49 -187.5v-76h279v-98h-279v-711q0 -60 21.5 -76t105.5 -16h49v-80h-489v80h55q54 0 70 17t16 71v715h-405v-711q0 -60 21.5 -76t105.5 -16h49
v-80h-490v80h56q54 0 70 17t16 71v715h-148v98h148v53q0 78 22.5 138.5t58.5 97t86 60t99 32t104 8.5q106 0 175 -34.5t79 -100.5q47 81 135 119.5t197 38.5zM377 981h405v59q0 50 9 93q-26 -15 -52 -15q-92 0 -92 99v61q-24 6 -63 6q-106 0 -156.5 -53.5t-50.5 -179.5v-70z
" />
    <glyph glyph-name="f_f_j" unicode="ffj" horiz-adv-x="1695" 
d="M575 1370q104 0 172 -33t80 -96q91 152 324 152q136 0 215.5 -51t79.5 -134q0 -49 -26.5 -76.5t-71.5 -27.5q-99 0 -99 98v88q-49 17 -100 17q-99 0 -147 -57t-48 -189v-80h578v-1049q0 -123 -69 -184t-187 -61q-102 0 -163.5 45.5t-61.5 115.5q0 38 26.5 62t67.5 24
t61.5 -24t20.5 -66v-67q15 -6 43 -6q50 0 70 35t20 114v846q0 74 -23.5 95.5t-97.5 21.5h-285v-711q0 -60 21.5 -76t105.5 -16h45v-80h-485v80h55q54 0 70 17t16 71v715h-405v-711q0 -60 21.5 -76t105.5 -16h49v-80h-490v80h56q54 0 70 17t16 71v715h-148v98h148v53
q0 78 22.5 138.5t58.5 97t86 60t99 32t104 8.5zM377 981h405v63q0 48 9 89q-21 -15 -52 -15q-92 0 -92 99v61q-24 6 -63 6q-106 0 -156.5 -53.5t-50.5 -179.5v-70z" />
    <glyph glyph-name="f_f_k" unicode="ffk" horiz-adv-x="2271" 
d="M57 981h148v53q0 78 22.5 138.5t58.5 97t86 60t99 32t104 8.5q106 0 175 -34.5t79 -100.5q47 81 135 119.5t197 38.5q82 0 143.5 -22.5t90.5 -63.5q8 19 17.5 37t14.5 26l5 8h100v-868l313 295q36 34 28 56t-50 22h-70v98h432v-98h-39q-51 0 -85 -16.5t-95 -71.5
l-270 -248l385 -373q66 -65 89 -79.5t62 -14.5h4v-80h-428v80h39q50 0 55.5 24.5t-38.5 67.5l-332 330v-348q0 -46 19 -60t87 -14h50v-80h-463v80h49q54 0 70 17t16 71v965h-19q-46 0 -72 25t-26 73v65q-37 11 -86 11q-105 0 -154 -62.5t-49 -187.5v-76h279v-98h-279v-711
q0 -60 21.5 -76t105.5 -16h49v-80h-489v80h55q54 0 70 17t16 71v715h-405v-711q0 -60 21.5 -76t105.5 -16h49v-80h-490v80h56q54 0 70 17t16 71v715h-148v98zM377 981h405v59q0 50 9 93q-26 -15 -52 -15q-92 0 -92 99v61q-24 6 -63 6q-106 0 -156.5 -53.5t-50.5 -179.5v-70z
" />
    <glyph glyph-name="f_h" unicode="fh" horiz-adv-x="1792" 
d="M584 1393q172 0 233 -86q8 19 17.5 37t14.5 26l5 8h100v-665q24 138 123 215.5t230 77.5q146 0 231.5 -86.5t85.5 -249.5v-508q0 -47 21 -64.5t92 -17.5h20v-80h-461v80h50q65 0 85.5 13t20.5 61v548q0 90 -47.5 133.5t-144.5 43.5q-132 0 -219 -91t-87 -245v-389
q0 -46 19.5 -60t87.5 -14h49v-80h-463v80h49q54 0 70 17t16 71v965h-18q-46 0 -72 25t-26 73v65q-37 11 -86 11q-105 0 -154 -62.5t-49 -187.5v-76h278v-98h-278v-711q0 -60 21.5 -76t105.5 -16h49v-80h-490v80h56q54 0 70 17t16 71v715h-148v98h148v59q0 95 31 165.5
t85.5 110t120 58.5t142.5 19z" />
    <glyph glyph-name="f_j" unicode="fj" horiz-adv-x="1118" 
d="M57 981h148v63q0 81 22 143.5t57.5 100.5t85 62.5t99 33.5t104.5 9q136 0 215.5 -51t79.5 -134q0 -49 -26.5 -76.5t-71.5 -27.5q-98 0 -98 98v88q-49 17 -101 17q-99 0 -146.5 -57t-47.5 -189v-80h577v-1049q0 -123 -69 -184t-187 -61q-102 0 -163.5 45.5t-61.5 115.5
q0 38 26.5 62t67.5 24t61.5 -24t20.5 -66v-67q15 -6 43 -6q50 0 70 35t20 114v846q0 68 -20.5 91t-79.5 26h-305v-711q0 -60 21.5 -76t105.5 -16h45v-80h-486v80h56q54 0 70 17t16 71v715h-148v98z" />
    <glyph glyph-name="f_k" unicode="fk" horiz-adv-x="1693" 
d="M57 981h148v59q0 95 31 165.5t85.5 110t120 58.5t142.5 19q172 0 233 -86q8 19 17.5 37t14.5 26l5 8h100v-868l314 295q35 34 27.5 56t-50.5 22h-69v98h432v-98h-39q-51 0 -85 -16.5t-95 -71.5l-271 -248l385 -373q66 -64 89.5 -79t62.5 -15h4v-80h-428v80h39
q50 0 55 24.5t-39 67.5l-332 330v-348q0 -46 19.5 -60t87.5 -14h49v-80h-463v80h49q54 0 70 17t16 71v965h-18q-46 0 -72 25t-26 73v65q-37 11 -86 11q-105 0 -154 -62.5t-49 -187.5v-76h278v-98h-278v-711q0 -60 21.5 -76t105.5 -16h49v-80h-490v80h56q54 0 70 17t16 71
v715h-148v98z" />
    <glyph glyph-name="f_f" unicode="ff" horiz-adv-x="1304" 
d="M57 981h148v53q0 78 22.5 138.5t58.5 97t86 60t99 32t104 8.5q206 0 248 -108q40 68 112.5 99.5t156.5 31.5q99 0 160 -40.5t61 -117.5q0 -41 -25.5 -67.5t-66.5 -26.5q-93 0 -93 98v57q-22 11 -41 11q-68 0 -100.5 -48.5t-32.5 -150.5v-127h279v-98h-279v-711
q0 -60 21.5 -76t105.5 -16h49v-80h-489v80h55q54 0 70 17t16 71v715h-405v-711q0 -60 21.5 -76t105.5 -16h49v-80h-490v80h56q54 0 70 17t16 71v715h-148v98zM377 981h405v111v36q-15 -10 -43 -10q-92 0 -92 99v61q-24 6 -63 6q-106 0 -156.5 -53.5t-50.5 -179.5v-70z" />
    <glyph glyph-name="f_i" unicode="fi" horiz-adv-x="1138" 
d="M954 981v-813q0 -57 19 -72.5t88 -15.5h41v-80h-459v80h53q54 0 70 17t16 71v598q0 74 -23.5 95.5t-96.5 21.5h-285v-711q0 -60 21.5 -76t105.5 -16h45v-80h-486v80h56q54 0 70 17t16 71v715h-148v98h148v63q0 81 22 143.5t57.5 100.5t85 62.5t99 33.5t104.5 9
q136 0 215.5 -51t79.5 -134q0 -49 -26.5 -76.5t-71.5 -27.5q-98 0 -98 98v88q-49 17 -101 17q-99 0 -146.5 -57t-47.5 -189v-80h577z" />
    <glyph glyph-name="f_l" unicode="fl" horiz-adv-x="1138" 
d="M57 981h148v59q0 95 31 165.5t85.5 110t120 58.5t142.5 19q172 0 233 -86q8 19 17.5 37t14.5 26l5 8h100v-1202q0 -63 19 -79.5t88 -16.5h41v-80h-455v80h49q54 0 70 17t16 71v965h-18q-46 0 -72 25t-26 73v65q-37 11 -86 11q-105 0 -154 -62.5t-49 -187.5v-76h278v-98
h-278v-711q0 -60 21.5 -76t105.5 -16h49v-80h-490v80h56q54 0 70 17t16 71v715h-148v98z" />
    <glyph glyph-name="f_f_i" unicode="ffi" horiz-adv-x="1716" 
d="M57 981h148v53q0 78 22.5 138.5t58.5 97t86 60t99 32t104 8.5q104 0 172 -33t80 -96q91 152 324 152q136 0 215.5 -51t79.5 -134q0 -49 -26.5 -76.5t-71.5 -27.5q-99 0 -99 98v88q-49 17 -100 17q-99 0 -147 -57t-48 -189v-80h578v-813q0 -57 18.5 -72.5t87.5 -15.5h41
v-80h-458v80h53q54 0 70 17t16 71v598q0 74 -23.5 95.5t-97.5 21.5h-285v-711q0 -60 21.5 -76t105.5 -16h45v-80h-485v80h55q54 0 70 17t16 71v715h-405v-711q0 -60 21.5 -76t105.5 -16h49v-80h-490v80h56q54 0 70 17t16 71v715h-148v98zM377 981h405v63q0 48 9 89
q-21 -15 -52 -15q-92 0 -92 99v61q-24 6 -63 6q-106 0 -156.5 -53.5t-50.5 -179.5v-70z" />
    <glyph glyph-name="f_f_l" unicode="ffl" horiz-adv-x="1716" 
d="M57 981h148v53q0 78 22.5 138.5t58.5 97t86 60t99 32t104 8.5q106 0 175 -34.5t79 -100.5q47 81 135 119.5t197 38.5q82 0 143.5 -22.5t90.5 -63.5q8 19 17.5 37t14.5 26l5 8h100v-1202q0 -63 18.5 -79.5t87.5 -16.5h41v-80h-454v80h49q54 0 70 17t16 71v965h-19
q-46 0 -72 25t-26 73v65q-37 11 -86 11q-105 0 -154 -62.5t-49 -187.5v-76h279v-98h-279v-711q0 -60 21.5 -76t105.5 -16h49v-80h-489v80h55q54 0 70 17t16 71v715h-405v-711q0 -60 21.5 -76t105.5 -16h49v-80h-490v80h56q54 0 70 17t16 71v715h-148v98zM377 981h405v59
q0 50 9 93q-26 -15 -52 -15q-92 0 -92 99v61q-24 6 -63 6q-106 0 -156.5 -53.5t-50.5 -179.5v-70z" />
    <glyph glyph-name=".notdef" horiz-adv-x="1024" 
 />
    <glyph glyph-name=".null" horiz-adv-x="0" 
 />
    <glyph glyph-name="nonmarkingreturn" horiz-adv-x="682" 
 />
    <glyph glyph-name="space" unicode=" " horiz-adv-x="409" 
 />
    <glyph glyph-name="exclam" unicode="!" horiz-adv-x="446" 
d="M223 -14q-48 0 -84.5 34.5t-36.5 83.5t36.5 85t84.5 36q51 0 86 -35.5t35 -85.5t-35 -84t-86 -34zM117 1204q-12 160 104 160q117 0 105 -160l-64 -854h-82z" />
    <glyph glyph-name="quotedbl" unicode="&#x22;" horiz-adv-x="649" 
d="M502 903h-82l-53 271q-11 58 15 96.5t79 38.5t79 -38.5t15 -96.5zM229 903h-82l-53 271q-11 58 15 96.5t79 38.5t79.5 -38.5t15.5 -96.5z" />
    <glyph glyph-name="numbersign" unicode="#" horiz-adv-x="995" 
d="M815 1309l-57 -355h168v-143h-191l-45 -279h178v-143h-202l-62 -389h-106l61 389h-217l-61 -389h-107l62 389h-168v143h192l45 279h-180v143h203l57 355h107l-58 -355h217l58 355h106zM412 811l-45 -279h217l45 279h-217z" />
    <glyph glyph-name="dollar" unicode="$" horiz-adv-x="1058" 
d="M504 -219h-101l17 192q-155 13 -246.5 81.5t-91.5 166.5q0 52 26 80.5t70 28.5q47 0 74 -31t27 -88v-74q57 -42 153 -47l47 508q-115 24 -174 57q-85 46 -127.5 118t-42.5 185q0 92 33 164t90.5 116.5t130.5 69t158 27.5l12 135h100l-12 -137q133 -15 217 -77.5
t84 -153.5q0 -52 -26 -80.5t-70 -28.5q-47 0 -73.5 30.5t-26.5 88.5v72q-50 27 -117 33l-43 -486q64 -13 95 -20t79 -24.5t82 -41.5q129 -93 129 -276q0 -99 -35.5 -175.5t-98.5 -124t-144 -72.5t-179 -28zM750 512q-43 33 -172 63l-46 -487q134 9 204.5 74t70.5 200
q0 106 -57 150zM385 797q43 -26 109 -43l41 463q-232 -22 -232 -250q0 -124 82 -170z" />
    <glyph glyph-name="percent" unicode="%" horiz-adv-x="1357" 
d="M221 1049v-70q0 -121 34.5 -172t96.5 -51q63 0 97 50.5t34 172.5v70q0 196 -131 196t-131 -196zM352 672q-122 0 -204 83.5t-82 245.5v17q0 149 79.5 234t206.5 85q129 0 208 -85t79 -234v-17q0 -163 -81.5 -246t-205.5 -83zM874 281q0 -224 132 -224q63 0 97 51t34 173
v69q0 197 -131 197q-132 0 -132 -197v-69zM1292 303q0 -163 -81 -246.5t-205 -83.5q-122 0 -204.5 84t-82.5 246v16q0 149 80 234.5t207 85.5q128 0 207 -85t79 -235v-16zM1192 1309l-901 -1309h-119l901 1309h119z" />
    <glyph glyph-name="ampersand" unicode="&#x26;" horiz-adv-x="1294" 
d="M481 -23q-204 0 -312 91.5t-108 246.5q0 58 16.5 107t42.5 85t69.5 70t84.5 58t101 53q-66 82 -101.5 157t-35.5 167q0 141 85 232t236 91q144 0 227.5 -81t83.5 -212q0 -63 -20.5 -115t-61.5 -93.5t-89 -73t-117 -66.5l299 -358q49 100 69 239q6 52 -9 66t-77 14h-51
v103h399v-103h-49q-51 0 -71 -11.5t-27 -47.5q-28 -219 -104 -354l71 -86q36 -42 65.5 -53t94.5 -11h20v-92h-258l-94 113q-145 -136 -379 -136zM512 94q163 0 274 105l-354 422q-192 -115 -192 -297q0 -103 70.5 -166.5t201.5 -63.5zM403 1034q0 -77 30.5 -138.5
t94.5 -139.5q172 107 172 280q0 86 -37 136.5t-108 50.5q-69 0 -110.5 -50t-41.5 -139z" />
    <glyph glyph-name="quotesingle" unicode="'" horiz-adv-x="376" 
d="M229 903h-82l-53 271q-11 58 15 96.5t79 38.5t79.5 -38.5t15.5 -96.5z" />
    <glyph glyph-name="parenleft" unicode="(" horiz-adv-x="610" 
d="M264 612v-63q0 -387 275 -666v-80q-50 25 -104.5 67t-117 111t-111.5 149.5t-81.5 190.5t-32.5 226v67q0 122 32.5 235t81.5 195t111.5 152t117 111.5t104.5 66.5v-80q-275 -241 -275 -682z" />
    <glyph glyph-name="parenright" unicode=")" horiz-adv-x="610" 
d="M346 549v63q0 442 -274 682v80q50 -25 104.5 -66.5t117 -111.5t111 -152t81 -195t32.5 -235v-67q0 -116 -32.5 -226t-81 -190.5t-111 -149.5t-117 -111t-104.5 -67v80q274 278 274 666z" />
    <glyph glyph-name="asterisk" unicode="*" horiz-adv-x="665" 
d="M395 821q8 -40 -10 -66t-53 -26t-53.5 26t-10.5 66l37 154l-112 -109q-31 -27 -62.5 -25.5t-50.5 31.5q-17 32 -3 61.5t52 41.5l150 43l-150 45q-38 14 -52 41.5t3 58.5q19 31 50.5 34t62.5 -23l112 -111l-37 154q-8 40 10.5 66t53.5 26t53 -26t10 -66l-39 -156l115 110
q31 27 62.5 25.5t50.5 -31.5q17 -32 3 -61t-52 -41l-152 -45l152 -43q38 -14 52 -42t-3 -59q-19 -31 -50.5 -33.5t-62.5 23.5l-115 111z" />
    <glyph glyph-name="plus" unicode="+" horiz-adv-x="978" 
d="M547 1051v-353h330v-106h-330v-354h-115v354h-330v106h330v353h115z" />
    <glyph glyph-name="comma" unicode="," horiz-adv-x="479" 
d="M119 109q0 49 35 82.5t86 33.5q56 0 92.5 -42.5t36.5 -127.5q0 -126 -70.5 -206t-198.5 -99v72q66 17 104 62.5t38 107.5q-60 -3 -91.5 30.5t-31.5 86.5z" />
    <glyph glyph-name="hyphen" unicode="-" horiz-adv-x="638" 
d="M113 475v152h413v-152h-413z" />
    <glyph glyph-name="period" unicode="." horiz-adv-x="479" 
d="M240 -14q-48 0 -84.5 34.5t-36.5 83.5t36.5 85t84.5 36q51 0 85.5 -35.5t34.5 -85.5t-34.5 -84t-85.5 -34z" />
    <glyph glyph-name="slash" unicode="/" horiz-adv-x="626" 
d="M575 1378l-450 -1579h-115l451 1579h114z" />
    <glyph glyph-name="zero" unicode="0" horiz-adv-x="1204" 
d="M602 -31q-105 0 -196.5 38t-165 114.5t-116 206t-42.5 297.5v88q0 302 142.5 463t377.5 161t377.5 -161t142.5 -463v-88q0 -169 -42 -298t-115 -205.5t-164.5 -114.5t-198.5 -38zM602 74q60 0 110.5 17t94 56.5t73.5 100t47 151.5t17 207v146q0 234 -90 353.5t-252 119.5
t-252 -119.5t-90 -353.5v-146q0 -116 17 -207t47 -151.5t73.5 -100t94 -56.5t110.5 -17z" />
    <glyph glyph-name="one" unicode="1" horiz-adv-x="815" 
d="M760 0h-633v92h127q58 0 82 21.5t24 87.5v956l-243 -289v152l243 289h179v-1108q0 -66 24 -87.5t82 -21.5h115v-92z" />
    <glyph glyph-name="two" unicode="2" horiz-adv-x="1005" 
d="M924 0h-846v150q333 221 488 403t155 379q0 156 -81.5 224.5t-215.5 68.5q-96 0 -156 -35v-78q0 -58 -26.5 -88.5t-73.5 -30.5q-43 0 -69.5 28.5t-26.5 78.5q0 105 113 171t286 66q198 0 316 -98t118 -295q0 -95 -31 -183t-84 -163.5t-139 -154t-181 -147.5t-226 -151
h469q55 0 76.5 22t21.5 79v53h113v-299z" />
    <glyph glyph-name="three" unicode="3" horiz-adv-x="993" 
d="M451 -20q-183 0 -301.5 69.5t-118.5 171.5q0 46 27 73.5t69 27.5q96 0 96 -119v-74q75 -41 191 -41q159 0 244 68.5t85 203.5q0 254 -303 254h-174v121h174q129 0 193.5 65t64.5 179q0 246 -288 246q-103 0 -160 -35v-78q0 -58 -26.5 -88.5t-73.5 -30.5q-44 0 -70.5 28.5
t-26.5 78.5q0 104 109.5 170.5t273.5 66.5q196 0 316 -96t120 -252q0 -129 -74 -208.5t-212 -98.5v-6q156 -18 246 -105t90 -233q0 -167 -124.5 -262.5t-346.5 -95.5z" />
    <glyph glyph-name="four" unicode="4" horiz-adv-x="1097" 
d="M72 367v108l585 834h179v-834h182v-108h-182v-166q0 -66 24 -87.5t82 -21.5h94v-92h-592v92h107q58 0 82 21.5t24 87.5v166h-585zM657 1122l-454 -647h454v647z" />
    <glyph glyph-name="five" unicode="5" horiz-adv-x="1003" 
d="M461 -20q-183 0 -301.5 69.5t-118.5 171.5q0 46 27 73.5t69 27.5q96 0 96 -119v-74q75 -41 187 -41q160 0 247 84t87 236q0 133 -73 208.5t-230 75.5q-164 0 -275 -96h-53v713h754v-299h-113v61q0 55 -20.5 73.5t-77.5 18.5h-420v-418q120 60 254 60q67 0 129 -14
t117.5 -44.5t96.5 -75.5t65 -112t24 -149q0 -195 -127 -312.5t-344 -117.5z" />
    <glyph glyph-name="six" unicode="6" horiz-adv-x="1153" 
d="M1081 424q0 -205 -138 -330t-357 -125q-112 0 -203.5 35.5t-159 106t-104.5 182.5t-37 258v108q0 144 29 259t80 192.5t124 129t157.5 74.5t184.5 23q174 0 284 -66.5t110 -170.5q0 -50 -26.5 -78.5t-70.5 -28.5q-47 0 -73.5 30.5t-26.5 88.5v76q-61 37 -172 37
q-202 0 -312 -130.5t-110 -406.5v-41q40 97 134 154t237 57q109 0 196 -35t141.5 -94.5t83.5 -135t29 -159.5v-10zM592 86q145 0 228 88t83 246v16q0 138 -74 221.5t-225 83.5q-148 0 -246 -77t-98 -197v-10q0 -95 26.5 -168t73 -116.5t105 -65t127.5 -21.5z" />
    <glyph glyph-name="seven" unicode="7" horiz-adv-x="968" 
d="M430 0q-37 0 -60.5 23.5t-23.5 64.5q0 27 16 70l422 999h-493q-48 0 -67 -17.5t-19 -68.5v-70h-113v308h815v-166l-375 -1045q-18 -52 -41 -75t-61 -23z" />
    <glyph glyph-name="eight" unicode="8" horiz-adv-x="1079" 
d="M541 -29q-128 0 -234 45t-170.5 133.5t-64.5 204.5v17q0 123 78 208t215 119q-114 32 -182 107t-68 186v10q0 147 119 240.5t307 93.5q187 0 305.5 -93t118.5 -238v-13q0 -111 -68.5 -186t-181.5 -107q136 -34 214.5 -119t78.5 -206v-17q0 -117 -64.5 -206t-170 -134
t-232.5 -45zM541 92q134 0 211 64t77 202v33q0 111 -77 178.5t-211 67.5q-135 0 -213 -67.5t-78 -178.5v-33q0 -138 77.5 -202t213.5 -64zM541 752q120 0 189 54t69 161v30q0 101 -69 160.5t-189 59.5q-122 0 -191 -59.5t-69 -160.5v-30q0 -107 69.5 -161t190.5 -54z" />
    <glyph glyph-name="nine" unicode="9" horiz-adv-x="1153" 
d="M549 565q148 0 246 77.5t98 197.5v10q0 186 -94 280.5t-238 94.5q-145 0 -228 -90t-83 -248v-17q0 -138 74 -221.5t225 -83.5zM496 -31q-174 0 -284 66.5t-110 171.5q0 50 26.5 78t70.5 28q47 0 73.5 -30.5t26.5 -87.5v-76q61 -37 172 -37q202 0 312 130t110 406v41
q-40 -97 -134 -153.5t-237 -56.5q-109 0 -196 35t-141.5 94t-83.5 134.5t-29 159.5v11q0 205 138 329.5t357 124.5q112 0 203.5 -35.5t159 -105.5t104.5 -182t37 -258v-109q0 -144 -29 -259t-80 -192.5t-124 -129t-157.5 -74.5t-184.5 -23z" />
    <glyph glyph-name="colon" unicode=":" horiz-adv-x="479" 
d="M240 -14q-48 0 -84.5 34.5t-36.5 83.5t36.5 85t84.5 36q51 0 85.5 -35.5t34.5 -85.5t-34.5 -84t-85.5 -34zM240 621q-48 0 -84.5 34.5t-36.5 83.5t36.5 85t84.5 36q51 0 85.5 -35.5t34.5 -85.5t-34.5 -84t-85.5 -34z" />
    <glyph glyph-name="semicolon" unicode=";" horiz-adv-x="479" 
d="M119 109q0 -53 31.5 -86.5t91.5 -30.5q0 -62 -38 -107.5t-104 -62.5v-72q128 19 198.5 99t70.5 206q0 85 -36.5 127.5t-92.5 42.5q-51 0 -86 -33.5t-35 -82.5zM240 621q-48 0 -84.5 34.5t-36.5 83.5t36.5 85t84.5 36q51 0 85.5 -35.5t34.5 -85.5t-34.5 -84t-85.5 -34z
" />
    <glyph glyph-name="less" unicode="&#x3c;" horiz-adv-x="966" 
d="M102 705l762 368v-117l-641 -311l641 -309v-119l-762 369v119z" />
    <glyph glyph-name="equal" unicode="=" horiz-adv-x="1048" 
d="M113 535h823v-107h-823v107zM113 862h823v-106h-823v106z" />
    <glyph glyph-name="greater" unicode="&#x3e;" horiz-adv-x="966" 
d="M864 705v-119l-762 -369v119l641 309l-641 311v117z" />
    <glyph glyph-name="question" unicode="?" horiz-adv-x="806" 
d="M391 350h-90v49q0 85 23 155t57 114.5t74.5 89t74.5 80t57 87t23 109.5q0 98 -59.5 162t-175.5 64q-78 0 -139 -27v-90q0 -119 -97 -119q-42 0 -69 27t-27 73q0 93 104 167.5t265 74.5q163 0 266.5 -85.5t103.5 -250.5q0 -71 -21.5 -129t-56 -98t-76 -75t-83.5 -68.5
t-76.5 -69t-56 -85.5t-21.5 -110v-45zM469 104q0 -50 -35 -84t-86 -34q-48 0 -84.5 34.5t-36.5 83.5t36.5 85t84.5 36q51 0 86 -35.5t35 -85.5z" />
    <glyph glyph-name="at" unicode="@" horiz-adv-x="1779" 
d="M811 168q93 0 169 81.5t97 223.5l4 29q13 86 0.5 151t-44 101t-71.5 53.5t-87 17.5t-88.5 -22.5t-77.5 -70.5t-57 -134.5t-21 -202.5q0 -108 44.5 -167.5t131.5 -59.5zM940 1335q161 0 300 -48t240.5 -135.5t159.5 -218.5t58 -290q0 -265 -106 -420t-281 -155
q-112 0 -175 56.5t-69 145.5q-33 -101 -110 -157t-175 -56q-151 0 -234 100.5t-83 266.5q0 139 47.5 256.5t144 192.5t224.5 75q108 0 169 -65.5t72 -165.5q5 47 22 99.5t32 81.5l14 28h133l-90 -555q-36 -207 92 -207q104 0 172 129t68 354q0 149 -49.5 264t-136.5 184.5
t-198.5 104.5t-242.5 35q-207 0 -371.5 -101.5t-256 -281.5t-91.5 -406q0 -312 180.5 -491.5t485.5 -179.5q160 0 309.5 47.5t232.5 116.5v-101q-78 -70 -225.5 -117t-324.5 -47q-232 0 -411 90.5t-281.5 266t-102.5 413.5q0 203 69.5 373t188 282t273.5 174t327 62z" />
    <glyph glyph-name="A" unicode="A" horiz-adv-x="1415" 
d="M1020 209l-70 199h-544l-58 -172q-26 -74 -1 -109t110 -35h90v-92h-498v92h35q60 0 81.5 22t51.5 107l375 1088h229l379 -1096q28 -80 49 -100.5t80 -20.5h43v-92h-559v92h90q93 0 117.5 22t-0.5 95zM678 1204l-236 -688h471z" />
    <glyph glyph-name="B" unicode="B" horiz-adv-x="1265" 
d="M51 0v92h76q58 0 82 21.5t24 87.5v897q0 65 -24 86.5t-82 21.5h-76v103h639q189 0 295.5 -81t106.5 -247q0 -277 -297 -313v-6q158 -11 251 -92.5t93 -217.5q0 -68 -13 -121t-45 -97.5t-84 -73t-131 -44.5t-184 -16h-631zM412 711h243q135 0 199 58.5t64 188.5
q0 129 -61.5 184.5t-186.5 55.5h-258v-487zM412 100h247q119 0 185.5 27.5t91.5 79.5t25 141q0 137 -71.5 195.5t-234.5 58.5h-243v-502z" />
    <glyph glyph-name="C" unicode="C" horiz-adv-x="1306" 
d="M688 -31q-260 0 -423 181.5t-163 508.5v5q0 309 162 491t436 182q230 0 342 -153q6 36 16 67.5t16 44.5l7 13h86v-379h-118q-13 156 -97 225.5t-245 69.5q-108 0 -190.5 -39.5t-131.5 -110t-73.5 -161t-24.5 -199.5v-82q0 -261 102.5 -403t319.5 -142q164 0 258 75.5
t108 213.5h109v-377h-86q-21 45 -35 139q-120 -170 -375 -170z" />
    <glyph glyph-name="D" unicode="D" horiz-adv-x="1368" 
d="M412 100h245q116 0 200 37.5t135 110.5t74.5 172t23.5 229v74q0 111 -18 193t-61 148t-121.5 100t-191.5 34h-286v-1098zM51 1309h668q279 0 418 -166t139 -465v-4q0 -326 -150 -500t-446 -174h-629v92h76q58 0 82 21.5t24 87.5v897q0 65 -24 86.5t-82 21.5h-76v103z" />
    <glyph glyph-name="E" unicode="E" horiz-adv-x="1206" 
d="M1104 0h-1053v92h76q58 0 82 21.5t24 87.5v897q0 65 -24 86.5t-82 21.5h-76v103h1024v-357h-112v33q0 73 -7.5 113.5t-32.5 63t-58 28.5t-97 6h-356v-479h227q59 0 84 12.5t36 55t11 139.5v20h100v-575h-100v26q0 74 -4.5 114t-20.5 63.5t-39 29.5t-67 6h-227v-504h362
q71 0 109.5 8t65 34.5t34.5 71t8 124.5v47h113v-389z" />
    <glyph glyph-name="F" unicode="F" horiz-adv-x="1161" 
d="M412 580v-373q0 -74 26.5 -94.5t100.5 -20.5h102v-92h-590v92h76q58 0 82 21.5t24 87.5v897q0 65 -24 86.5t-82 21.5h-76v103h1049v-377h-113v53q0 72 -9 113.5t-36 63.5t-61.5 28t-98.5 6h-370v-508h235q58 0 83.5 15t36.5 57t11 135v20h105v-575h-105v27
q0 128 -25 170.5t-106 42.5h-235z" />
    <glyph glyph-name="G" unicode="G" horiz-adv-x="1331" 
d="M682 1337q224 0 330 -151q7 36 17 67t16 43l6 13h86v-379h-119q-13 156 -93.5 225.5t-236.5 69.5q-105 0 -184 -39.5t-125.5 -110t-69 -160.5t-22.5 -200v-82q0 -545 403 -545q189 0 301 90v260q0 62 -18 78t-88 16h-62v103h467v-103h-14q-63 0 -85 -20.5t-22 -87.5v-424
h-86q-23 25 -39 127q-120 -158 -366 -158q-263 0 -419.5 180t-156.5 510v5q0 310 157 491.5t423 181.5z" />
    <glyph glyph-name="H" unicode="H" horiz-adv-x="1464" 
d="M1053 612h-641v-426q0 -59 27 -76.5t100 -17.5h90v-92h-578v92h76q58 0 82 21.5t24 87.5v897q0 65 -24 86.5t-82 21.5h-76v103h578v-103h-90q-73 0 -100 -17.5t-27 -76.5v-391h641v391q0 59 -27 76.5t-100 17.5h-90v103h577v-103h-76q-58 0 -82 -21.5t-24 -86.5v-897
q0 -66 24 -87.5t82 -21.5h76v-92h-577v92h90q73 0 100 17.5t27 76.5v426z" />
    <glyph glyph-name="I" unicode="I" horiz-adv-x="665" 
d="M614 0h-563v92h86q58 0 82.5 22t24.5 87v897q0 65 -24.5 86.5t-82.5 21.5h-86v103h563v-103h-86q-58 0 -82 -21.5t-24 -86.5v-897q0 -66 24 -87.5t82 -21.5h86v-92z" />
    <glyph glyph-name="J" unicode="J" horiz-adv-x="923" 
d="M258 143v-69q24 -4 47 -4q105 0 160 64.5t55 223.5v754q0 59 -27 76.5t-100 17.5h-61v103h540v-103h-67q-58 0 -82.5 -21.5t-24.5 -86.5v-756q0 -179 -95 -274t-277 -95q-129 0 -205 53t-76 144q0 42 30.5 73t74.5 31q108 0 108 -131z" />
    <glyph glyph-name="K" unicode="K" horiz-adv-x="1355" 
d="M877 190l-465 465v-469q0 -59 27 -76.5t100 -17.5h90v-92h-578v92h76q58 0 82 21.5t24 87.5v897q0 65 -24 86.5t-82 21.5h-76v103h578v-103h-90q-73 0 -100 -17.5t-27 -76.5v-446l489 434q32 29 41.5 53t-7.5 38.5t-61 14.5h-73v103h495v-103h-43q-56 0 -92 -20t-108 -84
l-457 -402l508 -507q30 -29 43.5 -41t39 -29.5t50.5 -24t57 -6.5h21v-92h-527v92h68q44 0 51 30.5t-30 67.5z" />
    <glyph glyph-name="L" unicode="L" horiz-adv-x="1153" 
d="M51 0v92h76q58 0 82 21.5t24 87.5v897q0 65 -24 86.5t-82 21.5h-76v103h578v-103h-90q-73 0 -100 -17.5t-27 -76.5v-1008h309q76 0 119.5 10.5t71.5 43t37 84t9 141.5v35h113v-418h-1020z" />
    <glyph glyph-name="M" unicode="M" horiz-adv-x="1716" 
d="M51 1309h461l346 -1133l352 1133h455v-103h-76q-58 0 -82 -21.5t-24 -86.5v-897q0 -66 24 -87.5t82 -21.5h76v-92h-549v92h62q73 0 100 17.5t27 76.5v1039l-387 -1225h-175l-385 1223v-1037q0 -59 27.5 -76.5t99.5 -17.5h62v-92h-496v92h76q58 0 82 21.5t24 87.5v897
q0 65 -24 86.5t-82 21.5h-76v103z" />
    <glyph glyph-name="N" unicode="N" horiz-adv-x="1435" 
d="M1225 1098v-1098h-224l-643 1219v-1033q0 -59 27 -76.5t100 -17.5h90v-92h-524v92h76q58 0 82 21.5t24 87.5v897q0 65 -24 86.5t-82 21.5h-76v103h461l588 -1143v946q0 59 -27 76.5t-100 17.5h-90v103h512v-103h-64q-58 0 -82 -21.5t-24 -86.5z" />
    <glyph glyph-name="O" unicode="O" horiz-adv-x="1396" 
d="M698 -31q-131 0 -239.5 43.5t-188 127.5t-124 216t-44.5 301v5q0 313 155 494t441 181t441 -181t155 -494v-5q0 -169 -43.5 -300.5t-123 -216t-188.5 -128t-241 -43.5zM698 86q206 0 309 135.5t103 417.5v66q0 244 -101 382t-311 138t-310.5 -138t-100.5 -382v-66
q0 -281 102.5 -417t308.5 -136z" />
    <glyph glyph-name="P" unicode="P" horiz-adv-x="1202" 
d="M412 643h231q166 0 233.5 69.5t67.5 213.5q0 139 -60 205.5t-206 66.5h-266v-555zM51 1309h647q212 0 320 -97t108 -288q0 -383 -462 -383h-252v-334q0 -74 26.5 -94.5t100.5 -20.5h102v-92h-590v92h76q58 0 82 21.5t24 87.5v897q0 65 -24 86.5t-82 21.5h-76v103z" />
    <glyph glyph-name="Q" unicode="Q" horiz-adv-x="1396" 
d="M698 -31q-131 0 -239.5 43.5t-188 127.5t-124 216t-44.5 301v5q0 313 155 494t441 181t441 -181t155 -494v-5q0 -392 -225 -569q52 -76 100.5 -113.5t110.5 -37.5q41 0 71 13.5t74 45.5v-62q-64 -104 -204 -104q-180 0 -306 174q-100 -35 -217 -35zM287 639
q0 -327 139 -463q31 90 107 144.5t178 54.5q97 0 166 -49t131 -142q102 119 102 455v66q0 244 -101 382t-311 138t-310.5 -138t-100.5 -382v-66zM698 80q100 0 160 16q-29 47 -46.5 71t-42.5 47.5t-52 32.5t-64 9q-67 0 -104.5 -31t-67.5 -92q85 -53 217 -53z" />
    <glyph glyph-name="R" unicode="R" horiz-adv-x="1282" 
d="M774 627v-6q118 -16 168.5 -67.5t75.5 -156.5l51 -213q23 -96 105 -96q48 0 88 16v-63q-45 -64 -156 -64q-200 0 -225 226l-23 190q-11 95 -62 135.5t-171 40.5h-213v-383q0 -59 27 -76.5t100 -17.5h90v-92h-578v92h76q58 0 82 21.5t24 87.5v897q0 65 -24 86.5t-82 21.5
h-76v103h625q208 0 315 -91.5t107 -256.5q0 -142 -91.5 -228t-232.5 -106zM412 678h235q147 0 206.5 69.5t59.5 208.5q0 128 -56 185t-202 57h-243v-520z" />
    <glyph glyph-name="S" unicode="S" horiz-adv-x="1132" 
d="M565 96q64 0 119 14t100 42.5t71 77t26 112.5t-21 103.5t-65 68.5q-48 31 -238 74.5t-252 75.5q-90 45 -132 115t-42 184q0 91 34 163t91.5 115t127.5 65.5t148 22.5q212 0 304 -143q6 36 15.5 66.5t16.5 43.5l6 13h87v-340h-123q-38 248 -295 248q-48 0 -92.5 -13
t-83 -39.5t-61.5 -73t-23 -106.5q0 -64 21.5 -101t74.5 -65q59 -33 162 -55.5t201.5 -46.5t156.5 -62q141 -92 141 -290q0 -129 -62 -218t-162.5 -129.5t-231.5 -40.5q-130 0 -219 48.5t-138 126.5q-9 -44 -20.5 -82t-18.5 -54l-8 -16h-88v387h129q43 -291 344 -291z" />
    <glyph glyph-name="T" unicode="T" horiz-adv-x="1210" 
d="M819 1196h-125v-995q0 -65 24.5 -87t82.5 -22h78v-92h-547v92h78q58 0 82 21.5t24 87.5v995h-125q-67 0 -105.5 -8.5t-65.5 -35t-36.5 -73t-9.5 -125.5v-63h-113v418h1088v-418h-113v63q0 79 -9.5 125.5t-36.5 73t-65.5 35t-105.5 8.5z" />
    <glyph glyph-name="U" unicode="U" horiz-adv-x="1388" 
d="M1192 1057v-557q0 -121 -24 -213.5t-66.5 -152.5t-105.5 -97.5t-135 -52.5t-161 -15q-88 0 -160.5 15.5t-137.5 53.5t-109.5 97.5t-70 152.5t-25.5 214v596q0 65 -24.5 86.5t-82.5 21.5h-49v103h551v-103h-90q-73 0 -100 -17.5t-27 -76.5v-649q0 -202 82.5 -286.5
t267.5 -84.5q171 0 250.5 84.5t79.5 284.5v610q0 84 -31 109.5t-123 25.5h-63v103h510v-103h-50q-57 0 -81.5 -31.5t-24.5 -117.5z" />
    <glyph glyph-name="V" unicode="V" horiz-adv-x="1415" 
d="M401 1100l334 -987l322 936q29 78 4 117.5t-109 39.5h-90v103h512v-103h-35q-62 0 -83 -18.5t-50 -100.5l-385 -1087h-219l-389 1096q-27 77 -47.5 93.5t-81.5 16.5h-43v103h555v-103h-82q-50 0 -73.5 -2.5t-39 -13.5t-14.5 -31.5t14 -58.5z" />
    <glyph glyph-name="W" unicode="W" horiz-adv-x="1980" 
d="M1780 1087l-248 -1087h-244l-284 1096l-285 -1096h-256l-250 1096q-27 77 -47.5 93.5t-81.5 16.5h-43v103h547v-103h-82q-92 0 -111 -16.5t-2 -89.5l215 -994l316 1203h190l311 -1203l207 943q19 84 -5 120.5t-107 36.5h-90v103h509v-103h-34q-64 0 -84.5 -18.5
t-40.5 -100.5z" />
    <glyph glyph-name="X" unicode="X" horiz-adv-x="1335" 
d="M1069 1118l-285 -432l357 -524q29 -42 55.5 -56t73.5 -14h14v-92h-502v92h60q44 0 68 6t29 19.5t-1 29.5t-23 41l-272 410l-231 -344q-66 -97 -55.5 -129.5t112.5 -32.5h66v-92h-484v92h25q54 0 77 15.5t66 78.5l334 488l-289 409q-52 76 -79 99.5t-76 23.5h-43v103h495
v-103h-41q-58 0 -81 -12t-18.5 -32t28.5 -54l243 -354l205 317q53 77 42.5 106t-99.5 29h-45v103h458v-103h-49q-53 0 -74.5 -14.5t-60.5 -73.5z" />
    <glyph glyph-name="Y" unicode="Y" horiz-adv-x="1226" 
d="M1024 1087l-322 -567v-319q0 -65 24.5 -87t82.5 -22h78v-92h-547v92h78q58 0 82 21.5t24 87.5v323l-321 572q-40 71 -64.5 90.5t-75.5 19.5h-26v103h491v-103h-61q-70 0 -84 -31t23 -98l237 -430l223 402q49 85 33.5 121t-106.5 36h-50v103h447v-103h-25q-50 0 -73 -20
t-68 -99z" />
    <glyph glyph-name="Z" unicode="Z" horiz-adv-x="1132" 
d="M1049 1309v-140l-801 -1065h475q71 0 109.5 8t65 34.5t34.5 71t8 124.5v47h113v-389h-981v139l792 1057h-432q-64 0 -97 -6t-57.5 -28.5t-32 -63t-7.5 -113.5v-33h-113v357h924z" />
    <glyph glyph-name="bracketleft" unicode="[" horiz-adv-x="739" 
d="M657 -201h-503v1579h503v-78h-342v-1431h342v-70z" />
    <glyph glyph-name="backslash" unicode="\" horiz-adv-x="647" 
d="M61 1378h115l451 -1579h-115z" />
    <glyph glyph-name="bracketright" unicode="]" horiz-adv-x="739" 
d="M586 -201h-504v70h342v1431h-342v78h504v-1579z" />
    <glyph glyph-name="asciicircum" unicode="^" horiz-adv-x="843" 
d="M752 891h-101l-229 244l-229 -244h-101l264 418h131z" />
    <glyph glyph-name="underscore" unicode="_" horiz-adv-x="751" 
d="M-16 -264v102h784v-102h-784z" />
    <glyph glyph-name="grave" unicode="`" 
d="M508 1120l-35 -39l-240 129q-92 49 -92 123q0 42 25 67t67 25q38 0 68 -22.5t64 -71.5z" />
    <glyph glyph-name="a" unicode="a" horiz-adv-x="1048" 
d="M887 -23q-205 0 -205 207v9q-29 -109 -107.5 -164.5t-197.5 -55.5q-132 0 -213.5 70.5t-81.5 196.5v2q0 86 48.5 144.5t150.5 100.5q29 12 87 29t107.5 32.5t99 36.5t78.5 51.5t29 68.5q0 93 -52 145.5t-179 52.5q-78 0 -127 -24v-74q0 -117 -97 -117q-41 0 -68.5 27.5
t-27.5 70.5q0 67 51.5 118t131 76.5t171.5 25.5q369 0 369 -365v-432q0 -70 21.5 -100.5t74.5 -30.5q48 0 88 18v-63q-56 -56 -151 -56zM424 80q102 0 178 74t80 206v228q-28 -28 -63.5 -51t-60 -34t-68.5 -28.5t-62 -25.5q-47 -21 -72.5 -35t-51 -36.5t-36 -51t-10.5 -68.5
v-10q0 -85 44 -126.5t122 -41.5z" />
    <glyph glyph-name="b" unicode="b" horiz-adv-x="1183" 
d="M328 1378v-647q35 125 132.5 200t241.5 75q187 0 293.5 -136t106.5 -362v-2q0 -252 -116.5 -390.5t-297.5 -138.5q-140 0 -232 67.5t-130 188.5q-4 -83 -18 -141t-26 -75l-12 -17h-114v1163q0 74 -23.5 95.5t-97.5 21.5h-21v98h314zM649 84q269 0 269 395v74
q0 164 -68 250t-201 86q-131 0 -226 -98.5t-95 -253.5v-41q0 -100 26.5 -180t71.5 -130t102 -76t121 -26z" />
    <glyph glyph-name="c" unicode="c" horiz-adv-x="1003" 
d="M885 100q-43 -53 -126.5 -88t-203.5 -35q-219 0 -346 143t-127 376v2q0 127 41 227t109 160t150 90.5t171 30.5q144 0 241 -61t97 -163q0 -44 -25.5 -71t-70.5 -27q-105 0 -105 119v65q-40 35 -131 35q-127 0 -211 -86.5t-84 -267.5v-74q0 -196 82 -288.5t256 -92.5
q143 0 283 90v-84z" />
    <glyph glyph-name="d" unicode="d" horiz-adv-x="1206" 
d="M535 887q-132 0 -200.5 -80.5t-68.5 -261.5v-74q0 -187 68.5 -288t200.5 -101q131 0 226 108t95 277v37q0 185 -93 284t-228 99zM856 745v418q0 74 -23.5 95.5t-97.5 21.5h-39v98h332v-1216q0 -47 21 -64.5t92 -17.5h30v-80h-284q-31 117 -31 246q-34 -128 -127 -199.5
t-231 -71.5q-191 0 -303.5 147.5t-112.5 393.5v2q0 116 33.5 210t91.5 153.5t132.5 91t158.5 31.5q142 0 231 -68t127 -191z" />
    <glyph glyph-name="e" unicode="e" horiz-adv-x="1046" 
d="M930 461h-666q4 -198 88.5 -282.5t263.5 -84.5q87 0 171.5 23.5t130.5 54.5v-82q-39 -43 -129.5 -78t-215.5 -35q-230 0 -360.5 135t-130.5 382v2q0 224 128.5 367t330.5 143q106 0 186 -33t126 -90.5t68.5 -128.5t22.5 -154q0 -73 -14 -139zM541 899
q-127 0 -200.5 -86.5t-76.5 -253.5h518v29q0 311 -241 311z" />
    <glyph glyph-name="f" unicode="f" horiz-adv-x="727" 
d="M57 981h148v111q0 84 27.5 145.5t74 94t98 47t109.5 14.5q99 0 160 -40.5t61 -117.5q0 -41 -25.5 -67.5t-66.5 -26.5q-92 0 -92 98v57q-14 11 -41 11q-68 0 -100.5 -48.5t-32.5 -150.5v-127h278v-98h-278v-711q0 -60 21.5 -76t105.5 -16h49v-80h-490v80h56q54 0 70 17
t16 71v715h-148v98z" />
    <glyph glyph-name="g" unicode="g" horiz-adv-x="968" 
d="M444 1006q84 0 164 -27q71 2 158.5 16.5t105.5 14.5q33 0 52.5 -19t19.5 -55q0 -35 -19.5 -54.5t-52.5 -19.5q-23 0 -72.5 20.5t-86.5 24.5q121 -81 121 -235v-2q0 -71 -22.5 -126.5t-59 -89.5t-87.5 -55.5t-102 -30t-108 -8.5h-127q-44 0 -68 -17t-24 -48q0 -59 86 -62
l274 -12q165 -7 236 -70.5t71 -191.5v-2q0 -64 -23 -112.5t-61.5 -78.5t-96 -48.5t-119 -25.5t-138.5 -7q-445 0 -445 239v2q0 71 60.5 120.5t146.5 62.5q-116 33 -116 139q0 126 168 155q-89 18 -144 92.5t-55 198.5v2q0 79 31.5 140.5t84.5 97.5t116 54t132 18zM455 459
q211 0 211 215v37q0 54 -18.5 93.5t-50 60t-66.5 29.5t-76 9q-40 0 -74.5 -9t-65.5 -29.5t-49 -60t-18 -93.5v-37q0 -54 13 -94t32.5 -62.5t48.5 -36t55 -18t58 -4.5zM459 -217q158 0 225.5 40.5t67.5 123.5v2q0 63 -37 93t-133 34l-197 8q-110 4 -158.5 -31t-48.5 -110v-2
q0 -82 63 -120t218 -38z" />
    <glyph glyph-name="h" unicode="h" horiz-adv-x="1183" 
d="M1016 670v-508q0 -47 20.5 -64.5t91.5 -17.5h21v-80h-461v80h49q66 0 86.5 13t20.5 61v548q0 177 -193 177q-131 0 -218 -91t-87 -245v-389q0 -46 19.5 -60t87.5 -14h49v-80h-463v80h49q54 0 70 17t16 71v995q0 74 -23.5 95.5t-97.5 21.5h-14v98h307v-665
q24 138 122.5 215.5t229.5 77.5q146 0 232 -86.5t86 -249.5z" />
    <glyph glyph-name="i" unicode="i" horiz-adv-x="540" 
d="M250 1135q-46 0 -79.5 32.5t-33.5 77.5q0 46 33.5 79.5t79.5 33.5t79 -33.5t33 -79.5t-33 -78t-79 -32zM356 981v-813q0 -57 19 -72.5t88 -15.5h41v-80h-463v80h57q54 0 70 17t16 71v598q0 74 -23.5 95.5t-97.5 21.5h-22v98h315z" />
    <glyph glyph-name="j" unicode="j" horiz-adv-x="518" 
d="M49 -156v-67q15 -6 43 -6q50 0 70 35t20 114v846q0 74 -23.5 95.5t-97.5 21.5h-22v98h315v-1049q0 -123 -69 -184t-187 -61q-102 0 -163.5 45.5t-61.5 115.5q0 38 26.5 62t67.5 24t61.5 -24t20.5 -66zM248 1135q-46 0 -79.5 32.5t-33.5 77.5q0 46 33.5 79.5t79.5 33.5
t79 -33.5t33 -79.5t-33 -78t-79 -32z" />
    <glyph glyph-name="k" unicode="k" horiz-adv-x="1085" 
d="M1051 0h-428v80h39q50 0 55 24.5t-39 67.5l-332 330v-348q0 -46 19.5 -60t87.5 -14h49v-80h-463v80h49q54 0 70 17t16 71v995q0 74 -23.5 95.5t-97.5 21.5h-14v98h307v-868l313 295q36 34 28 56t-50 22h-70v98h432v-98h-38q-51 0 -85.5 -16.5t-95.5 -71.5l-270 -248
l385 -373q66 -64 89.5 -79t62.5 -15h4v-80z" />
    <glyph glyph-name="l" unicode="l" horiz-adv-x="540" 
d="M504 0h-455v80h49q54 0 70 17t16 71v995q0 74 -23.5 95.5t-97.5 21.5h-14v98h307v-1202q0 -63 19 -79.5t88 -16.5h41v-80z" />
    <glyph glyph-name="m" unicode="m" horiz-adv-x="1763" 
d="M676 1006q130 0 201.5 -77.5t74.5 -226.5q25 144 123 224t225 80q139 0 217 -86t78 -250v-508q0 -47 21 -64.5t92 -17.5h21v-80h-449v80h37q65 0 85.5 13t20.5 61v559q0 87 -38.5 128.5t-127.5 41.5q-130 0 -208 -91.5t-78 -248.5v-389q0 -46 19 -60t87 -14h37v-80h-461
v80h39q66 0 86.5 13t20.5 61v559q0 87 -38.5 128.5t-127.5 41.5q-127 0 -207 -92t-80 -248v-389q0 -46 19.5 -60t87.5 -14h36v-80h-450v80h49q54 0 70 17t16 71v598q0 74 -23.5 95.5t-97.5 21.5h-14v98h278q29 -117 29 -240v-18q25 134 117 208.5t213 74.5z" />
    <glyph glyph-name="n" unicode="n" horiz-adv-x="1183" 
d="M1016 670v-508q0 -47 20.5 -64.5t91.5 -17.5h21v-80h-461v80h49q66 0 86.5 13t20.5 61v548q0 177 -193 177q-131 0 -218 -91t-87 -245v-389q0 -46 19.5 -60t87.5 -14h49v-80h-463v80h49q54 0 70 17t16 71v598q0 74 -23.5 95.5t-97.5 21.5h-14v98h278q29 -117 29 -240v-28
q24 138 122.5 215.5t229.5 77.5q146 0 232 -86.5t86 -249.5z" />
    <glyph glyph-name="o" unicode="o" horiz-adv-x="1101" 
d="M551 -23q-97 0 -181 33t-148.5 96t-102 165t-37.5 231v2q0 228 129 365t340 137t340 -136.5t129 -363.5v-2q0 -130 -37.5 -232t-102 -165.5t-148.5 -96.5t-181 -33zM551 86q285 0 285 389v78q0 167 -75 254.5t-210 87.5t-210 -87.5t-75 -254.5v-78q0 -389 285 -389z" />
    <glyph glyph-name="p" unicode="p" horiz-adv-x="1202" 
d="M668 84q268 0 268 395v74q0 164 -67.5 250t-200.5 86q-131 0 -226.5 -98.5t-95.5 -253.5v-41q0 -100 26.5 -180t71.5 -130t102.5 -76t121.5 -26zM39 981h278q29 -117 29 -240v-10q35 125 133 200t242 75q186 0 292.5 -136t106.5 -362v-2q0 -252 -116 -390.5t-297 -138.5
q-139 0 -232 67.5t-129 188.5v-378q0 -46 19.5 -60t87.5 -14h55v-80h-469v80h49q54 0 70 17t16 71v897q0 74 -23.5 95.5t-97.5 21.5h-14v98z" />
    <glyph glyph-name="q" unicode="q" horiz-adv-x="1169" 
d="M1028 981v-1112q0 -54 16 -71t70 -17h49v-80h-469v80h56q68 0 87 14t19 60v391q-34 -128 -127 -199.5t-231 -71.5q-191 0 -303.5 147.5t-112.5 393.5v2q0 116 33.5 210t91.5 153.5t132.5 91t158.5 31.5q278 0 358 -261q0 55 18 114.5t36 91.5l18 32h100zM535 887
q-132 0 -200.5 -80.5t-68.5 -261.5v-74q0 -187 68.5 -288t200.5 -101q131 0 226 108t95 277v37q0 185 -93 284t-228 99z" />
    <glyph glyph-name="r" unicode="r" horiz-adv-x="831" 
d="M537 0h-498v80h49q54 0 70 17t16 71v598q0 74 -23.5 95.5t-97.5 21.5h-14v98h278q29 -117 29 -240v-49q14 80 47 141.5t76 95t86.5 50t85.5 16.5q61 0 95 -31t34 -87q0 -49 -29 -77t-73 -28q-37 0 -63.5 24.5t-33.5 77.5q-91 -9 -158 -146t-67 -308v-244q0 -62 22 -79
t93 -17h76v-80z" />
    <glyph glyph-name="s" unicode="s" horiz-adv-x="925" 
d="M498 -23q-228 0 -295 150q-5 -40 -15.5 -71.5t-17.5 -43.5l-8 -12h-88v311h112q15 -109 89.5 -167t197.5 -58q109 0 167 48t58 132q0 73 -55 107q-38 23 -190 49.5t-203 50.5q-76 35 -114 95t-38 159q0 133 95 206t229 73q96 0 158 -36t82 -102q5 36 13.5 64t14.5 38
l6 11h90v-279h-104q-21 89 -86.5 141t-165.5 52q-92 0 -139 -37t-47 -123q0 -44 16 -71.5t55 -45.5q52 -23 204 -45.5t210 -60.5q119 -77 119 -236q0 -142 -101.5 -220.5t-248.5 -78.5z" />
    <glyph glyph-name="t" unicode="t" horiz-adv-x="770" 
d="M494 -27q-67 0 -116.5 13.5t-90 46t-61.5 92.5t-21 147v611h-148v69q26 1 47 3.5t39 10t31 13t25 21t19.5 24.5t15 34.5t11.5 39t10.5 49t9 55.5t9.5 66h103v-287h315v-98h-315v-619q0 -99 39 -138.5t119 -39.5q87 0 174 33v-62q-22 -35 -78.5 -59.5t-136.5 -24.5z" />
    <glyph glyph-name="u" unicode="u" horiz-adv-x="1177" 
d="M827 434v332q0 74 -23.5 95.5t-96.5 21.5h-15v98h307v-819q0 -47 21 -64.5t92 -17.5h31v-80h-291q-25 117 -25 240v12q-24 -128 -117 -202.5t-214 -74.5q-158 0 -245 93.5t-87 285.5v412q0 74 -23.5 95.5t-97.5 21.5h-4v98h297v-653q0 -228 196 -228q129 0 212 94t83 240
z" />
    <glyph glyph-name="v" unicode="v" horiz-adv-x="1089" 
d="M946 786l-305 -786h-178l-318 791q-24 62 -43 77t-69 15h-4v98h420v-98h-56q-102 0 -57 -117l246 -633l215 588q26 63 20.5 99t-29 49.5t-73.5 13.5h-31v98h371v-98h-4q-40 0 -61 -19t-44 -78z" />
    <glyph glyph-name="w" unicode="w" horiz-adv-x="1513" 
d="M559 0h-205l-209 770q-19 71 -42 92t-70 21h-4v98h403v-98h-55q-51 0 -63 -27t5 -90l160 -643l213 858h170l225 -858l144 598q24 103 9 132.5t-85 29.5h-37v98h361v-98h-4q-43 0 -65.5 -22.5t-41.5 -96.5l-201 -764h-209l-202 776z" />
    <glyph glyph-name="x" unicode="x" horiz-adv-x="1081" 
d="M700 172l-186 270l-190 -270q-36 -52 -25.5 -72t68.5 -20h45v-80h-373v80h14q53 0 77 15t69 79l229 322l-205 297q-42 60 -65 75t-78 15h-29v98h451v-98h-62q-82 0 -26 -82l157 -234l156 226q33 51 23 70.5t-58 19.5h-47v98h387v-98h-20q-56 0 -88.5 -16t-71.5 -74
l-195 -287l238 -332q42 -59 67 -76.5t76 -17.5h9v-80h-429v80h46q99 0 36 92z" />
    <glyph glyph-name="y" unicode="y" horiz-adv-x="1079" 
d="M301 -319q-96 0 -151.5 41t-55.5 116q0 44 28.5 68t74.5 24q43 0 63.5 -25.5t20.5 -68.5v-57q8 -4 32 -4q124 0 195 190l12 35h-78l-295 791q-23 62 -42 77t-70 15h-4v98h411v-98h-51q-53 0 -66 -30t9 -87l235 -645l217 600q33 100 18.5 131t-85.5 31h-41v98h366v-98h-4
q-41 0 -62 -19t-42 -78l-303 -798q-61 -161 -136 -234t-196 -73z" />
    <glyph glyph-name="z" unicode="z" horiz-adv-x="944" 
d="M872 854l-641 -756h336q66 0 102.5 7.5t61 32.5t32 66t7.5 115v23h107v-342h-824v123l635 754h-311q-60 0 -92 -6t-56 -27.5t-31.5 -60.5t-7.5 -109v-12h-106v319h788v-127z" />
    <glyph glyph-name="braceleft" unicode="{" horiz-adv-x="622" 
d="M152 596v-6q140 -7 200 -71.5t60 -160.5q0 -55 -28 -164.5t-28 -168.5q0 -86 40.5 -120t133.5 -28v-70q-342 -11 -342 216q0 67 43 170t43 167q0 77 -48 124.5t-165 54.5v108q213 13 213 172q0 55 -43 161t-43 173q0 228 342 217v-78q-93 6 -133.5 -27t-40.5 -114
q0 -55 28 -162t28 -162q0 -44 -12.5 -81.5t-41 -70.5t-81 -54t-125.5 -25z" />
    <glyph glyph-name="bar" unicode="|" horiz-adv-x="483" 
d="M299 1378v-1579h-115v1579h115z" />
    <glyph glyph-name="braceright" unicode="}" horiz-adv-x="622" 
d="M471 590v6q-73 4 -125.5 25t-81 54t-41 70.5t-12.5 81.5q0 55 27.5 162t27.5 162q0 81 -40.5 114t-133.5 27v78q342 11 342 -217q0 -67 -43 -173t-43 -161q0 -159 213 -172v-108q-117 -7 -165 -54.5t-48 -124.5q0 -64 43 -167t43 -170q0 -227 -342 -216v70
q93 -6 133.5 28t40.5 120q0 59 -27.5 168.5t-27.5 164.5q0 96 60 160.5t200 71.5z" />
    <glyph glyph-name="asciitilde" unicode="~" horiz-adv-x="741" 
d="M106 459q-16 98 23.5 160.5t134.5 62.5q46 0 87.5 -19t77 -38t67.5 -19t44 19t17 67h76q16 -98 -18 -160.5t-119 -62.5q-50 0 -125 38t-117 38q-37 0 -53 -20t-19 -66h-76z" />
    <glyph glyph-name="uni00A0" unicode="&#xa0;" horiz-adv-x="409" 
 />
    <glyph glyph-name="exclamdown" unicode="&#xa1;" horiz-adv-x="446" 
d="M223 981q48 0 84.5 -35t36.5 -84t-36.5 -85t-84.5 -36q-51 0 -86 35.5t-35 85.5t35 84.5t86 34.5zM330 -238q12 -159 -105 -159q-116 0 -104 159l63 854h82z" />
    <glyph glyph-name="cent" unicode="&#xa2;" horiz-adv-x="983" 
d="M508 -219h-100l16 213q-161 38 -251.5 172t-90.5 330v2q0 119 36 214.5t97 155.5t135.5 94t157.5 42l14 172h101l-15 -172q129 -11 211 -70.5t82 -151.5q0 -44 -25.5 -71t-70.5 -27q-105 0 -105 119v65q-32 28 -100 33l-65 -803q20 -4 67 -4q153 0 293 90v-84
q-43 -53 -129.5 -88t-210.5 -35q-16 0 -31 3zM264 475q0 -276 172 -352l64 774q-105 -19 -170.5 -104.5t-65.5 -243.5v-74z" />
    <glyph glyph-name="sterling" unicode="&#xa3;" horiz-adv-x="1028" 
d="M113 580v114h110l-6 201q-7 212 110.5 327t303.5 115q145 0 229 -68.5t84 -168.5q0 -49 -26.5 -77t-69.5 -28q-44 0 -71 30t-27 85v98q-58 15 -109 15q-122 0 -186.5 -78.5t-67.5 -267.5l-4 -183h342v-114h-344l-2 -129q-2 -96 -20.5 -156.5t-50.5 -93t-87 -56.5h524
q56 0 77.5 22t21.5 79v53h112v-299h-884v145q83 15 124 72.5t37 196.5l-6 166h-114z" />
    <glyph glyph-name="yen" unicode="&#xa5;" horiz-adv-x="1107" 
d="M121 401h344v129h-344v109h328l-252 457q-40 70 -65 90t-75 20h-26v103h491v-103h-61q-71 0 -85.5 -31t23.5 -98l185 -346l186 318q49 85 33 121t-107 36h-28v103h426v-103h-25q-50 0 -73.5 -20.5t-67.5 -98.5l-262 -448h321v-109h-344v-129h344v-108h-344v-92
q0 -65 24.5 -87t82.5 -22h77v-92h-546v92h77q58 0 82.5 22t24.5 87v92h-344v108z" />
    <glyph glyph-name="brokenbar" unicode="&#xa6;" horiz-adv-x="483" 
d="M299 1378v-710h-115v710h115zM184 545h115v-746h-115v746z" />
    <glyph glyph-name="section" unicode="&#xa7;" horiz-adv-x="1026" 
d="M866 1102q0 -52 -26 -80.5t-70 -28.5q-47 0 -73.5 30.5t-26.5 88.5v94q-55 19 -123 19q-109 0 -168.5 -42t-59.5 -120q0 -61 41 -97.5t117 -60.5q41 -12 131.5 -31t130.5 -30q102 -30 158.5 -82.5t56.5 -149.5q0 -93 -66.5 -154t-166.5 -85q69 -27 107 -86t38 -146
q0 -147 -105.5 -224t-289.5 -77q-168 0 -262 63t-94 169q0 51 26 79.5t70 28.5q47 0 73.5 -30.5t26.5 -88.5v-86q59 -26 150 -26q256 0 256 162q0 111 -150 159q-47 15 -150.5 35.5t-150.5 34.5q-91 26 -142.5 77t-51.5 144q0 108 69.5 174t165.5 74q-63 28 -99 86.5
t-36 136.5q0 149 100.5 225t262.5 76q152 0 241.5 -63t89.5 -168zM639 422q64 0 111 38.5t47 108.5q0 46 -28.5 80t-106.5 58q-57 18 -142 37.5t-127 19.5q-69 0 -121.5 -39t-52.5 -109q0 -80 86 -122q61 -28 161.5 -50t172.5 -22z" />
    <glyph glyph-name="dieresis" unicode="&#xa8;" 
d="M233 1128q-44 0 -76 31.5t-32 75.5q0 43 32 74.5t76 31.5q43 0 75 -31.5t32 -74.5q0 -44 -32 -75.5t-75 -31.5zM586 1128q-43 0 -75 31.5t-32 75.5q0 43 32 74.5t75 31.5q44 0 76 -31.5t32 -74.5q0 -44 -32 -75.5t-76 -31.5z" />
    <glyph glyph-name="copyright" unicode="&#xa9;" horiz-adv-x="1515" 
d="M758 -29q-191 0 -349 91.5t-247.5 247t-89.5 339.5q0 185 89.5 342t247.5 249.5t349 92.5q144 0 272.5 -54.5t218.5 -146.5t142.5 -218t52.5 -265q0 -138 -52.5 -263t-142.5 -216t-218.5 -145t-272.5 -54zM758 55q123 0 233.5 48t188 128t123 189.5t45.5 228.5
q0 120 -45.5 230t-123 191.5t-188 130t-233.5 48.5q-162 0 -298.5 -82t-214 -220t-77.5 -298q0 -159 77.5 -295.5t213.5 -217.5t299 -81zM739 266q124 0 197 76q6 -18 15.5 -32.5t15.5 -19.5l6 -5h51v241h-96q-7 -87 -49.5 -126.5t-122.5 -39.5q-195 0 -195 283v43
q0 117 48 190.5t147 73.5q75 0 112.5 -38.5t44.5 -127.5h101v240h-49q-23 -18 -37 -53q-69 69 -189 69q-149 0 -242.5 -104t-93.5 -277v-2q0 -184 95.5 -287.5t240.5 -103.5z" />
    <glyph glyph-name="ordfeminine" unicode="&#xaa;" horiz-adv-x="759" 
d="M623 612q-71 0 -108.5 36t-37.5 106v4q-20 -73 -74 -110.5t-135 -37.5q-92 0 -148.5 49t-56.5 136v2q0 117 146 172q20 7 61.5 18.5t73 22t64.5 25t51 35t18 46.5q0 61 -33.5 96t-115.5 35q-51 0 -82 -16v-49q0 -88 -76 -88q-31 0 -51.5 20.5t-20.5 52.5q0 72 75.5 114
t178.5 42q140 0 203 -66.5t63 -191.5v-283q0 -48 14.5 -68t49.5 -20q22 0 55 11v-50q-43 -43 -114 -43zM313 692q66 0 113.5 47.5t48.5 132.5v156q-17 -18 -39.5 -33t-37 -22t-43.5 -19t-38 -16q-58 -27 -83 -52t-25 -75v-8q0 -55 27.5 -83t76.5 -28z" />
    <glyph glyph-name="guillemotleft" unicode="&#xab;" horiz-adv-x="739" 
d="M688 174h-110l-244 328l244 329h110l-184 -327zM406 174h-111l-244 328l244 329h111l-185 -327z" />
    <glyph glyph-name="registered" unicode="&#xae;" horiz-adv-x="763" 
d="M498 854q-60 0 -66 66l-6 43q-3 20 -13 29t-32 9h-37v-90q0 -12 4.5 -15t18.5 -3h32v-33h-163v33h30q15 0 15 14v226q0 16 -15 16h-30v35h161q54 0 83.5 -23.5t29.5 -64.5q0 -62 -72 -80q41 -11 49 -47l13 -54q3 -16 18 -16q9 0 33 8v-30q-23 -23 -53 -23zM389 1149h-45
v-117h39q31 0 44 14.5t13 45.5q0 29 -11.5 43t-39.5 14zM383 768q109 0 177.5 71.5t68.5 178.5t-68.5 179.5t-177.5 72.5q-108 0 -178 -72.5t-70 -179.5t70 -178.5t178 -71.5zM383 713q-131 0 -221 89t-90 216q0 126 90 216.5t221 90.5q132 0 220.5 -90.5t88.5 -216.5
q0 -127 -88.5 -216t-220.5 -89z" />
    <glyph glyph-name="macron" unicode="&#xaf;" 
d="M168 1171v95h483v-95h-483z" />
    <glyph glyph-name="degree" unicode="&#xb0;" horiz-adv-x="733" 
d="M72 1036q0 123 84 208t209 85t211 -85.5t86 -207.5t-86 -207.5t-211 -85.5t-209 85t-84 208zM176 1036q0 -92 54.5 -150.5t134.5 -58.5q83 0 137.5 58t54.5 151q0 88 -55.5 149.5t-136.5 61.5q-78 0 -133.5 -61.5t-55.5 -149.5z" />
    <glyph glyph-name="plusminus" unicode="&#xb1;" horiz-adv-x="978" 
d="M547 1051v-322h330v-106h-330v-324h-115v324h-330v106h330v322h115zM102 0v106h775v-106h-775z" />
    <glyph glyph-name="acute" unicode="&#xb4;" 
d="M362 1083l-36 37l133 211q33 51 58 72.5t65 21.5q43 0 66.5 -25t23.5 -65q0 -38 -20 -62t-58 -48z" />
    <glyph glyph-name="paragraph" unicode="&#xb6;" horiz-adv-x="1071" 
d="M604 -201h-117v797h-49q-180 0 -275 93.5t-95 266.5q0 166 93 259.5t263 93.5h575v-123h-8q-73 0 -100 -17.5t-27 -76.5v-1293h-116v1387h-144v-1387z" />
    <glyph glyph-name="periodcentered" unicode="&#xb7;" horiz-adv-x="479" 
d="M240 498q-48 0 -84.5 34.5t-36.5 83.5t36.5 85t84.5 36q51 0 85.5 -35.5t34.5 -85.5t-34.5 -84t-85.5 -34z" />
    <glyph glyph-name="cedilla" unicode="&#xb8;" 
d="M303 0h111v-80q170 -16 170 -156q0 -70 -51.5 -108.5t-141.5 -38.5q-100 0 -141 41v61q50 -20 96 -20q94 0 94 78q0 86 -137 88v135z" />
    <glyph glyph-name="ordmasculine" unicode="&#xba;" horiz-adv-x="794" 
d="M397 612q-143 0 -237 93t-94 270v2q0 158 91 252t240 94t240.5 -93.5t91.5 -250.5v-2q0 -178 -94.5 -271.5t-237.5 -93.5zM397 694q183 0 183 262v54q0 115 -48 173t-135 58t-134.5 -58t-47.5 -173v-54q0 -262 182 -262z" />
    <glyph glyph-name="guillemotright" unicode="&#xbb;" horiz-adv-x="739" 
d="M334 174l184 328l-184 329h110l244 -327l-244 -330h-110zM51 174l185 328l-185 329h111l244 -327l-244 -330h-111z" />
    <glyph glyph-name="onequarter" unicode="&#xbc;" horiz-adv-x="1452" 
d="M807 215v78l342 477h137v-477h100v-78h-100v-82q0 -39 14 -51t48 -12h49v-70h-369v70h53q35 0 49.5 12t14.5 51v82h-338zM485 539h-393v69h68q35 0 49 12.5t14 51.5v530l-143 -160v107l143 160h142v-637q0 -39 14 -51.5t47 -12.5h59v-69zM1307 1309l-990 -1309h-92
l989 1309h93zM1145 639l-248 -346h248v346z" />
    <glyph glyph-name="onehalf" unicode="&#xbd;" horiz-adv-x="1538" 
d="M485 539h-393v69h68q35 0 49 12.5t14 51.5v530l-143 -160v107l143 160h142v-637q0 -39 14 -51.5t47 -12.5h59v-69zM1278 1309l-989 -1309h-92l989 1309h92zM1468 0h-514v113q186 118 273.5 220t87.5 216q0 81 -40.5 119.5t-107.5 38.5q-45 0 -77 -19v-39q0 -38 -19.5 -58
t-50.5 -20q-30 0 -49 19.5t-19 52.5q0 64 67.5 103.5t174.5 39.5q121 0 194.5 -58t73.5 -177q0 -68 -27 -128t-82 -115t-122.5 -101.5t-165.5 -102.5h258q36 0 49.5 13.5t13.5 46.5v26h82v-190z" />
    <glyph glyph-name="threequarters" unicode="&#xbe;" horiz-adv-x="1525" 
d="M881 215v78l342 477h137v-477h100v-78h-100v-82q0 -39 14 -51t47 -12h49v-70h-368v70h53q35 0 49.5 12t14.5 51v82h-338zM293 526q-114 0 -184 41.5t-70 106.5q0 30 18.5 47.5t48.5 17.5q70 0 70 -75v-41q34 -19 92 -19q82 0 127 38t45 110q0 71 -39.5 106t-126.5 35h-92
v82h90q74 0 111 36.5t37 100.5q0 133 -148 133q-50 0 -77 -18v-39q0 -38 -19.5 -58t-50.5 -20t-50.5 19.5t-19.5 52.5q0 64 66 103.5t170 39.5q119 0 192.5 -55t73.5 -150q0 -76 -45.5 -123t-132.5 -59v-2q98 -11 152.5 -60t54.5 -135q0 -102 -77.5 -158.5t-215.5 -56.5z
M1350 1309l-990 -1309h-92l989 1309h93zM1219 639l-248 -346h248v346z" />
    <glyph glyph-name="questiondown" unicode="&#xbf;" horiz-adv-x="806" 
d="M471 616h90v-49q0 -100 -32 -179t-77.5 -130t-90.5 -96.5t-77 -103t-32 -126.5q0 -98 59 -161.5t176 -63.5q79 0 140 27v90q0 119 96 119q42 0 69 -27.5t27 -73.5q0 -93 -103.5 -167t-264.5 -74q-163 0 -267 85.5t-104 250.5q0 71 21.5 129t56 97.5t76 75t83.5 68.5
t76.5 68.5t56 85.5t21.5 110v45zM393 862q0 50 35 84.5t86 34.5q48 0 84.5 -35t36.5 -84t-36.5 -85t-84.5 -36q-51 0 -86 35.5t-35 85.5z" />
    <glyph glyph-name="Agrave" unicode="&#xc0;" horiz-adv-x="1415" 
d="M1020 209l-70 199h-544l-58 -172q-26 -74 -1 -109t110 -35h90v-92h-498v92h35q60 0 81.5 22t51.5 107l375 1088h229l379 -1096q28 -80 49 -100.5t80 -20.5h43v-92h-559v92h90q93 0 117.5 22t-0.5 95zM678 1204l-236 -688h471zM698 1602l113 -185l-29 -35l-204 101
q-82 40 -82 108q0 40 25 66t63 26q36 0 61.5 -19t52.5 -62z" />
    <glyph glyph-name="Aacute" unicode="&#xc1;" horiz-adv-x="1415" 
d="M1020 209l-70 199h-544l-58 -172q-26 -74 -1 -109t110 -35h90v-92h-498v92h35q60 0 81.5 22t51.5 107l375 1088h229l379 -1096q28 -80 49 -100.5t80 -20.5h43v-92h-559v92h90q93 0 117.5 22t-0.5 95zM678 1204l-236 -688h471zM641 1382l-33 31l101 189q23 44 48 62.5
t62 18.5q38 0 63 -26t25 -66q0 -66 -82 -108z" />
    <glyph glyph-name="Acircumflex" unicode="&#xc2;" horiz-adv-x="1415" 
d="M1020 209l-70 199h-544l-58 -172q-26 -74 -1 -109t110 -35h90v-92h-498v92h35q60 0 81.5 22t51.5 107l375 1088h229l379 -1096q28 -80 49 -100.5t80 -20.5h43v-92h-559v92h90q93 0 117.5 22t-0.5 95zM678 1204l-236 -688h471zM938 1393l-223 84l-223 -84l-46 45l224 202
h90l223 -202z" />
    <glyph glyph-name="Atilde" unicode="&#xc3;" horiz-adv-x="1415" 
d="M1020 209l-70 199h-544l-58 -172q-26 -74 -1 -109t110 -35h90v-92h-498v92h35q60 0 81.5 22t51.5 107l375 1088h229l379 -1096q28 -80 49 -100.5t80 -20.5h43v-92h-559v92h90q93 0 117.5 22t-0.5 95zM678 1204l-236 -688h471zM461 1405q-8 59 -1 109t43.5 83t96.5 33
q46 0 91.5 -20t84.5 -40t70 -20q33 0 45.5 21t15.5 67h62q8 -59 2.5 -109t-38 -83t-87.5 -33q-48 0 -131.5 40t-124.5 40q-37 0 -50 -20.5t-18 -67.5h-61z" />
    <glyph glyph-name="Adieresis" unicode="&#xc4;" horiz-adv-x="1415" 
d="M1020 209l-70 199h-544l-58 -172q-26 -74 -1 -109t110 -35h90v-92h-498v92h35q60 0 81.5 22t51.5 107l375 1088h229l379 -1096q28 -80 49 -100.5t80 -20.5h43v-92h-559v92h90q93 0 117.5 22t-0.5 95zM678 1204l-236 -688h471zM520 1395q-44 0 -76 31t-32 75q0 43 32 75
t76 32q43 0 75 -32t32 -75q0 -44 -32 -75t-75 -31zM895 1395q-43 0 -75 31t-32 75q0 43 32 75t75 32q44 0 76.5 -32t32.5 -75q0 -44 -32 -75t-77 -31z" />
    <glyph glyph-name="Aring" unicode="&#xc5;" horiz-adv-x="1415" 
d="M1020 209l-70 199h-544l-58 -172q-26 -74 -1 -109t110 -35h90v-92h-498v92h35q60 0 81.5 22t51.5 107l375 1088h229l379 -1096q28 -80 49 -100.5t80 -20.5h43v-92h-559v92h90q93 0 117.5 22t-0.5 95zM678 1204l-236 -688h471zM516 1532q0 77 53.5 131.5t132.5 54.5
t134 -54.5t55 -131.5t-55 -130.5t-134 -53.5t-132.5 53.5t-53.5 130.5zM606 1532q0 -123 96 -123q49 0 74 32.5t25 90.5t-25 90.5t-74 32.5q-96 0 -96 -123z" />
    <glyph glyph-name="AE" unicode="&#xc6;" horiz-adv-x="1855" 
d="M508 0h-488v92h35q38 0 63 24.5t75 104.5l503 885q57 100 -41 100h-77v103h1146v-357h-112v33q0 73 -7.5 113.5t-32.5 63t-58 28.5t-97 6h-356v-479h227q59 0 84 12.5t36 55t11 139.5v20h101v-575h-101v26q0 74 -4.5 114t-20.5 63.5t-39 29.5t-67 6h-227v-504h362
q71 0 109.5 8t65 34.5t34.5 71t8 124.5v47h113v-389h-1053v92h76q58 0 82.5 22t24.5 87v207h-451l-96 -172q-43 -66 -22.5 -105t104.5 -39h90v-92zM494 516h389v686z" />
    <glyph glyph-name="Ccedilla" unicode="&#xc7;" horiz-adv-x="1306" 
d="M688 -31h-2v-49q170 -16 170 -156q0 -70 -51 -108.5t-141 -38.5q-101 0 -142 41v61q50 -20 96 -20q95 0 95 78q0 86 -138 88v115q-216 36 -344.5 212.5t-128.5 466.5v5q0 309 162 491t436 182q230 0 342 -153q6 36 16 67.5t16 44.5l7 13h86v-379h-118q-13 156 -97 225.5
t-245 69.5q-108 0 -190.5 -39.5t-131.5 -110t-73.5 -161t-24.5 -199.5v-82q0 -261 102.5 -403t319.5 -142q164 0 258 75.5t108 213.5h109v-377h-86q-21 45 -35 139q-120 -170 -375 -170z" />
    <glyph glyph-name="Egrave" unicode="&#xc8;" horiz-adv-x="1206" 
d="M1104 0h-1053v92h76q58 0 82 21.5t24 87.5v897q0 65 -24 86.5t-82 21.5h-76v103h1024v-357h-112v33q0 73 -7.5 113.5t-32.5 63t-58 28.5t-97 6h-356v-479h227q59 0 84 12.5t36 55t11 139.5v20h100v-575h-100v26q0 74 -4.5 114t-20.5 63.5t-39 29.5t-67 6h-227v-504h362
q71 0 109.5 8t65 34.5t34.5 71t8 124.5v47h113v-389zM608 1602l113 -185l-29 -35l-205 101q-81 40 -81 108q0 40 25 66t63 26q36 0 61.5 -19t52.5 -62z" />
    <glyph glyph-name="Eacute" unicode="&#xc9;" horiz-adv-x="1206" 
d="M1104 0h-1053v92h76q58 0 82 21.5t24 87.5v897q0 65 -24 86.5t-82 21.5h-76v103h1024v-357h-112v33q0 73 -7.5 113.5t-32.5 63t-58 28.5t-97 6h-356v-479h227q59 0 84 12.5t36 55t11 139.5v20h100v-575h-100v26q0 74 -4.5 114t-20.5 63.5t-39 29.5t-67 6h-227v-504h362
q71 0 109.5 8t65 34.5t34.5 71t8 124.5v47h113v-389zM551 1382l-33 31l100 189q23 44 48.5 62.5t62.5 18.5q38 0 63 -26t25 -66q0 -66 -82 -108z" />
    <glyph glyph-name="Ecircumflex" unicode="&#xca;" horiz-adv-x="1206" 
d="M1104 0h-1053v92h76q58 0 82 21.5t24 87.5v897q0 65 -24 86.5t-82 21.5h-76v103h1024v-357h-112v33q0 73 -7.5 113.5t-32.5 63t-58 28.5t-97 6h-356v-479h227q59 0 84 12.5t36 55t11 139.5v20h100v-575h-100v26q0 74 -4.5 114t-20.5 63.5t-39 29.5t-67 6h-227v-504h362
q71 0 109.5 8t65 34.5t34.5 71t8 124.5v47h113v-389zM834 1393l-224 84l-223 -84l-45 45l223 202h90l224 -202z" />
    <glyph glyph-name="Edieresis" unicode="&#xcb;" horiz-adv-x="1206" 
d="M1104 0h-1053v92h76q58 0 82 21.5t24 87.5v897q0 65 -24 86.5t-82 21.5h-76v103h1024v-357h-112v33q0 73 -7.5 113.5t-32.5 63t-58 28.5t-97 6h-356v-479h227q59 0 84 12.5t36 55t11 139.5v20h100v-575h-100v26q0 74 -4.5 114t-20.5 63.5t-39 29.5t-67 6h-227v-504h362
q71 0 109.5 8t65 34.5t34.5 71t8 124.5v47h113v-389zM422 1395q-45 0 -77 31t-32 75q0 43 32.5 75t76.5 32q43 0 74.5 -32t31.5 -75q0 -44 -31.5 -75t-74.5 -31zM797 1395q-43 0 -75 31t-32 75q0 43 32 75t75 32q44 0 76 -32t32 -75q0 -44 -32 -75t-76 -31z" />
    <glyph glyph-name="Igrave" unicode="&#xcc;" horiz-adv-x="665" 
d="M614 0h-563v92h86q58 0 82.5 22t24.5 87v897q0 65 -24.5 86.5t-82.5 21.5h-86v103h563v-103h-86q-58 0 -82 -21.5t-24 -86.5v-897q0 -66 24 -87.5t82 -21.5h86v-92zM317 1602l113 -185l-29 -35l-204 101q-82 40 -82 108q0 40 25 66t63 26q36 0 61.5 -19t52.5 -62z" />
    <glyph glyph-name="Iacute" unicode="&#xcd;" horiz-adv-x="665" 
d="M614 0h-563v92h86q58 0 82.5 22t24.5 87v897q0 65 -24.5 86.5t-82.5 21.5h-86v103h563v-103h-86q-58 0 -82 -21.5t-24 -86.5v-897q0 -66 24 -87.5t82 -21.5h86v-92zM260 1382l-33 31l101 189q23 44 48 62.5t62 18.5q38 0 63 -26t25 -66q0 -66 -82 -108z" />
    <glyph glyph-name="Icircumflex" unicode="&#xce;" horiz-adv-x="665" 
d="M614 0h-563v92h86q58 0 82.5 22t24.5 87v897q0 65 -24.5 86.5t-82.5 21.5h-86v103h563v-103h-86q-58 0 -82 -21.5t-24 -86.5v-897q0 -66 24 -87.5t82 -21.5h86v-92zM557 1393l-223 84l-223 -84l-45 45l223 202h90l223 -202z" />
    <glyph glyph-name="Idieresis" unicode="&#xcf;" horiz-adv-x="665" 
d="M614 0h-563v92h86q58 0 82.5 22t24.5 87v897q0 65 -24.5 86.5t-82.5 21.5h-86v103h563v-103h-86q-58 0 -82 -21.5t-24 -86.5v-897q0 -66 24 -87.5t82 -21.5h86v-92zM145 1395q-44 0 -76 31t-32 75q0 43 32 75t76 32q43 0 75 -32t32 -75q0 -44 -32 -75t-75 -31zM520 1395
q-43 0 -74.5 31t-31.5 75q0 43 31.5 75t74.5 32q44 0 76.5 -32t32.5 -75q0 -44 -32 -75t-77 -31z" />
    <glyph glyph-name="Eth" unicode="&#xd0;" horiz-adv-x="1378" 
d="M88 596v109h145v393q0 65 -24 86.5t-82 21.5h-76v103h668q279 0 418 -166t139 -465v-4q0 -326 -150 -500t-446 -174h-629v92h76q58 0 82 21.5t24 87.5v395h-145zM412 100h245q116 0 200 37.5t135 110.5t74.5 172t23.5 229v74q0 111 -18 193t-61 148t-121.5 100t-191.5 34
h-286v-493h350v-109h-350v-496z" />
    <glyph glyph-name="Ntilde" unicode="&#xd1;" horiz-adv-x="1435" 
d="M1225 1098v-1098h-224l-643 1219v-1033q0 -59 27 -76.5t100 -17.5h90v-92h-524v92h76q58 0 82 21.5t24 87.5v897q0 65 -24 86.5t-82 21.5h-76v103h461l588 -1143v946q0 59 -27 76.5t-100 17.5h-90v103h512v-103h-64q-58 0 -82 -21.5t-24 -86.5zM469 1405q-8 59 -1 109
t43.5 83t96.5 33q46 0 91.5 -20t84.5 -40t70 -20q33 0 45.5 21t15.5 67h62q8 -59 2.5 -109t-38 -83t-87.5 -33q-48 0 -131.5 40t-124.5 40q-37 0 -50 -20.5t-18 -67.5h-61z" />
    <glyph glyph-name="Ograve" unicode="&#xd2;" horiz-adv-x="1396" 
d="M698 -31q-131 0 -239.5 43.5t-188 127.5t-124 216t-44.5 301v5q0 313 155 494t441 181t441 -181t155 -494v-5q0 -169 -43.5 -300.5t-123 -216t-188.5 -128t-241 -43.5zM698 86q206 0 309 135.5t103 417.5v66q0 244 -101 382t-311 138t-310.5 -138t-100.5 -382v-66
q0 -281 102.5 -417t308.5 -136zM702 1602l113 -185l-29 -35l-204 101q-82 40 -82 108q0 40 25 66t63 26q36 0 61.5 -19t52.5 -62z" />
    <glyph glyph-name="Oacute" unicode="&#xd3;" horiz-adv-x="1396" 
d="M698 -31q-131 0 -239.5 43.5t-188 127.5t-124 216t-44.5 301v5q0 313 155 494t441 181t441 -181t155 -494v-5q0 -169 -43.5 -300.5t-123 -216t-188.5 -128t-241 -43.5zM698 86q206 0 309 135.5t103 417.5v66q0 244 -101 382t-311 138t-310.5 -138t-100.5 -382v-66
q0 -281 102.5 -417t308.5 -136zM633 1382l-33 31l100 189q23 44 48.5 62.5t62.5 18.5q38 0 63 -26t25 -66q0 -66 -82 -108z" />
    <glyph glyph-name="Ocircumflex" unicode="&#xd4;" horiz-adv-x="1396" 
d="M698 -31q-131 0 -239.5 43.5t-188 127.5t-124 216t-44.5 301v5q0 313 155 494t441 181t441 -181t155 -494v-5q0 -169 -43.5 -300.5t-123 -216t-188.5 -128t-241 -43.5zM698 86q206 0 309 135.5t103 417.5v66q0 244 -101 382t-311 138t-310.5 -138t-100.5 -382v-66
q0 -281 102.5 -417t308.5 -136zM922 1393l-224 84l-223 -84l-45 45l223 202h90l224 -202z" />
    <glyph glyph-name="Otilde" unicode="&#xd5;" horiz-adv-x="1396" 
d="M698 -31q-131 0 -239.5 43.5t-188 127.5t-124 216t-44.5 301v5q0 313 155 494t441 181t441 -181t155 -494v-5q0 -169 -43.5 -300.5t-123 -216t-188.5 -128t-241 -43.5zM698 86q206 0 309 135.5t103 417.5v66q0 244 -101 382t-311 138t-310.5 -138t-100.5 -382v-66
q0 -281 102.5 -417t308.5 -136zM463 1405q-8 59 -1 109t43.5 83t96.5 33q46 0 91.5 -20t84.5 -40t70 -20q33 0 45.5 21t15.5 67h62q8 -59 2.5 -109t-38 -83t-87.5 -33q-48 0 -131.5 40t-124.5 40q-37 0 -50 -20.5t-18 -67.5h-61z" />
    <glyph glyph-name="Odieresis" unicode="&#xd6;" horiz-adv-x="1396" 
d="M698 -31q-131 0 -239.5 43.5t-188 127.5t-124 216t-44.5 301v5q0 313 155 494t441 181t441 -181t155 -494v-5q0 -169 -43.5 -300.5t-123 -216t-188.5 -128t-241 -43.5zM698 86q206 0 309 135.5t103 417.5v66q0 244 -101 382t-311 138t-310.5 -138t-100.5 -382v-66
q0 -281 102.5 -417t308.5 -136zM487 1395q-44 0 -76 31t-32 75q0 43 32 75t76 32q43 0 75 -32t32 -75q0 -44 -32 -75t-75 -31zM862 1395q-43 0 -74.5 31t-31.5 75q0 43 31.5 75t74.5 32q44 0 76.5 -32t32.5 -75q0 -44 -32 -75t-77 -31z" />
    <glyph glyph-name="multiply" unicode="&#xd7;" horiz-adv-x="921" 
d="M809 905l-274 -274l274 -275l-74 -73l-274 274l-275 -274l-73 73l274 275l-274 274l73 74l275 -274l274 274z" />
    <glyph glyph-name="Oslash" unicode="&#xd8;" horiz-adv-x="1396" 
d="M698 -31q-235 0 -389 133l-110 -141h-123l166 213q-140 183 -140 483v5q0 313 155 494t441 181q219 0 363 -110l90 116h123l-141 -180q161 -181 161 -501v-5q0 -169 -43.5 -300.5t-123 -216t-188.5 -128t-241 -43.5zM698 86q206 0 309 135.5t103 417.5v66q0 206 -72 335
l-643 -825q100 -129 303 -129zM287 639q0 -208 55 -336l637 817q-102 105 -281 105q-210 0 -310.5 -138t-100.5 -382v-66z" />
    <glyph glyph-name="Ugrave" unicode="&#xd9;" horiz-adv-x="1388" 
d="M1192 1057v-557q0 -121 -24 -213.5t-66.5 -152.5t-105.5 -97.5t-135 -52.5t-161 -15q-88 0 -160.5 15.5t-137.5 53.5t-109.5 97.5t-70 152.5t-25.5 214v596q0 65 -24.5 86.5t-82.5 21.5h-49v103h551v-103h-90q-73 0 -100 -17.5t-27 -76.5v-649q0 -202 82.5 -286.5
t267.5 -84.5q171 0 250.5 84.5t79.5 284.5v610q0 84 -31 109.5t-123 25.5h-63v103h510v-103h-50q-57 0 -81.5 -31.5t-24.5 -117.5zM694 1602l113 -185l-29 -35l-205 101q-81 40 -81 108q0 40 25 66t63 26q36 0 61.5 -19t52.5 -62z" />
    <glyph glyph-name="Uacute" unicode="&#xda;" horiz-adv-x="1388" 
d="M1192 1057v-557q0 -121 -24 -213.5t-66.5 -152.5t-105.5 -97.5t-135 -52.5t-161 -15q-88 0 -160.5 15.5t-137.5 53.5t-109.5 97.5t-70 152.5t-25.5 214v596q0 65 -24.5 86.5t-82.5 21.5h-49v103h551v-103h-90q-73 0 -100 -17.5t-27 -76.5v-649q0 -202 82.5 -286.5
t267.5 -84.5q171 0 250.5 84.5t79.5 284.5v610q0 84 -31 109.5t-123 25.5h-63v103h510v-103h-50q-57 0 -81.5 -31.5t-24.5 -117.5zM698 1382l-32 31l100 189q23 44 48.5 62.5t62.5 18.5q38 0 63 -26t25 -66q0 -66 -82 -108z" />
    <glyph glyph-name="Ucircumflex" unicode="&#xdb;" horiz-adv-x="1388" 
d="M1192 1057v-557q0 -121 -24 -213.5t-66.5 -152.5t-105.5 -97.5t-135 -52.5t-161 -15q-88 0 -160.5 15.5t-137.5 53.5t-109.5 97.5t-70 152.5t-25.5 214v596q0 65 -24.5 86.5t-82.5 21.5h-49v103h551v-103h-90q-73 0 -100 -17.5t-27 -76.5v-649q0 -202 82.5 -286.5
t267.5 -84.5q171 0 250.5 84.5t79.5 284.5v610q0 84 -31 109.5t-123 25.5h-63v103h510v-103h-50q-57 0 -81.5 -31.5t-24.5 -117.5zM934 1393l-223 84l-224 -84l-45 45l224 202h90l223 -202z" />
    <glyph glyph-name="Udieresis" unicode="&#xdc;" horiz-adv-x="1388" 
d="M1192 1057v-557q0 -121 -24 -213.5t-66.5 -152.5t-105.5 -97.5t-135 -52.5t-161 -15q-88 0 -160.5 15.5t-137.5 53.5t-109.5 97.5t-70 152.5t-25.5 214v596q0 65 -24.5 86.5t-82.5 21.5h-49v103h551v-103h-90q-73 0 -100 -17.5t-27 -76.5v-649q0 -202 82.5 -286.5
t267.5 -84.5q171 0 250.5 84.5t79.5 284.5v610q0 84 -31 109.5t-123 25.5h-63v103h510v-103h-50q-57 0 -81.5 -31.5t-24.5 -117.5zM522 1395q-44 0 -76 31t-32 75q0 43 32 75t76 32q43 0 75 -32t32 -75q0 -44 -32 -75t-75 -31zM897 1395q-43 0 -74.5 31t-31.5 75
q0 43 31.5 75t74.5 32q44 0 76.5 -32t32.5 -75q0 -44 -32 -75t-77 -31z" />
    <glyph glyph-name="Yacute" unicode="&#xdd;" horiz-adv-x="1226" 
d="M1024 1087l-322 -567v-319q0 -65 24.5 -87t82.5 -22h78v-92h-547v92h78q58 0 82 21.5t24 87.5v323l-321 572q-40 71 -64.5 90.5t-75.5 19.5h-26v103h491v-103h-61q-70 0 -84 -31t23 -98l237 -430l223 402q49 85 33.5 121t-106.5 36h-50v103h447v-103h-25q-50 0 -73 -20
t-68 -99zM557 1382l-33 31l101 189q23 44 48 62.5t62 18.5q38 0 63 -26t25 -66q0 -66 -82 -108z" />
    <glyph glyph-name="Thorn" unicode="&#xde;" horiz-adv-x="1212" 
d="M614 0h-563v92h86q58 0 82.5 22t24.5 87v897q0 65 -24.5 86.5t-82.5 21.5h-86v103h563v-103h-86q-58 0 -82 -21.5t-24 -86.5v-86h321q183 0 285 -92t102 -252q0 -170 -113.5 -263.5t-307.5 -93.5h-287v-110q0 -66 24 -87.5t82 -21.5h86v-92zM723 901h-301v-487h266
q138 0 202 62t64 186q0 122 -56 180.5t-175 58.5z" />
    <glyph glyph-name="germandbls" unicode="&#xdf;" horiz-adv-x="1169" 
d="M57 877v104h148v4q0 103 32.5 182.5t90.5 128t133.5 73t165.5 24.5q51 0 98 -7.5t96.5 -27.5t85.5 -51t59 -83t23 -118q0 -58 -16.5 -104t-43.5 -75t-59 -52.5t-64.5 -41.5t-59.5 -36t-43.5 -42.5t-16.5 -54.5q0 -29 15 -47t53 -35q28 -13 111.5 -44t107.5 -44
q75 -41 115 -102t40 -154q0 -143 -93 -220t-242 -77q-141 0 -233.5 65t-92.5 155q0 42 22.5 65t61.5 23q84 0 84 -103v-73q61 -23 125 -23q96 0 151.5 41.5t55.5 128.5q0 92 -72 135q-24 15 -57 28.5t-82 32t-84 33.5q-144 61 -144 181q0 42 16 73.5t42 52.5t57 39.5
t62.5 40.5t57.5 49t42 72t16 103q0 106 -51.5 158.5t-144.5 52.5q-122 0 -185 -85.5t-63 -238.5v-983h-314v80h56q54 0 70 17t16 71v709h-148z" />
    <glyph glyph-name="agrave" unicode="&#xe0;" horiz-adv-x="1048" 
d="M887 -23q-205 0 -205 207v9q-29 -109 -107.5 -164.5t-197.5 -55.5q-132 0 -213.5 70.5t-81.5 196.5v2q0 86 48.5 144.5t150.5 100.5q29 12 87 29t107.5 32.5t99 36.5t78.5 51.5t29 68.5q0 93 -52 145.5t-179 52.5q-78 0 -127 -24v-74q0 -117 -97 -117q-41 0 -68.5 27.5
t-27.5 70.5q0 67 51.5 118t131 76.5t171.5 25.5q369 0 369 -365v-432q0 -70 21.5 -100.5t74.5 -30.5q48 0 88 18v-63q-56 -56 -151 -56zM424 80q102 0 178 74t80 206v228q-28 -28 -63.5 -51t-60 -34t-68.5 -28.5t-62 -25.5q-47 -21 -72.5 -35t-51 -36.5t-36 -51t-10.5 -68.5
v-10q0 -85 44 -126.5t122 -41.5zM627 1120l-35 -39l-240 129q-92 49 -92 123q0 42 25 67t67 25q38 0 67.5 -22t63.5 -72z" />
    <glyph glyph-name="aacute" unicode="&#xe1;" horiz-adv-x="1048" 
d="M887 -23q-205 0 -205 207v9q-29 -109 -107.5 -164.5t-197.5 -55.5q-132 0 -213.5 70.5t-81.5 196.5v2q0 86 48.5 144.5t150.5 100.5q29 12 87 29t107.5 32.5t99 36.5t78.5 51.5t29 68.5q0 93 -52 145.5t-179 52.5q-78 0 -127 -24v-74q0 -117 -97 -117q-41 0 -68.5 27.5
t-27.5 70.5q0 67 51.5 118t131 76.5t171.5 25.5q369 0 369 -365v-432q0 -70 21.5 -100.5t74.5 -30.5q48 0 88 18v-63q-56 -56 -151 -56zM424 80q102 0 178 74t80 206v228q-28 -28 -63.5 -51t-60 -34t-68.5 -28.5t-62 -25.5q-47 -21 -72.5 -35t-51 -36.5t-36 -51t-10.5 -68.5
v-10q0 -85 44 -126.5t122 -41.5zM395 1083l-37 37l134 211q33 52 57.5 73t64.5 21q43 0 67 -25t24 -65q0 -38 -20 -62t-58 -48z" />
    <glyph glyph-name="acircumflex" unicode="&#xe2;" horiz-adv-x="1048" 
d="M887 -23q-205 0 -205 207v9q-29 -109 -107.5 -164.5t-197.5 -55.5q-132 0 -213.5 70.5t-81.5 196.5v2q0 86 48.5 144.5t150.5 100.5q29 12 87 29t107.5 32.5t99 36.5t78.5 51.5t29 68.5q0 93 -52 145.5t-179 52.5q-78 0 -127 -24v-74q0 -117 -97 -117q-41 0 -68.5 27.5
t-27.5 70.5q0 67 51.5 118t131 76.5t171.5 25.5q369 0 369 -365v-432q0 -70 21.5 -100.5t74.5 -30.5q48 0 88 18v-63q-56 -56 -151 -56zM424 80q102 0 178 74t80 206v228q-28 -28 -63.5 -51t-60 -34t-68.5 -28.5t-62 -25.5q-47 -21 -72.5 -35t-51 -36.5t-36 -51t-10.5 -68.5
v-10q0 -85 44 -126.5t122 -41.5zM711 1085l-224 132l-223 -132l-39 45l217 261h90l218 -261z" />
    <glyph glyph-name="atilde" unicode="&#xe3;" horiz-adv-x="1048" 
d="M887 -23q-205 0 -205 207v9q-29 -109 -107.5 -164.5t-197.5 -55.5q-132 0 -213.5 70.5t-81.5 196.5v2q0 86 48.5 144.5t150.5 100.5q29 12 87 29t107.5 32.5t99 36.5t78.5 51.5t29 68.5q0 93 -52 145.5t-179 52.5q-78 0 -127 -24v-74q0 -117 -97 -117q-41 0 -68.5 27.5
t-27.5 70.5q0 67 51.5 118t131 76.5t171.5 25.5q369 0 369 -365v-432q0 -70 21.5 -100.5t74.5 -30.5q48 0 88 18v-63q-56 -56 -151 -56zM424 80q102 0 178 74t80 206v228q-28 -28 -63.5 -51t-60 -34t-68.5 -28.5t-62 -25.5q-47 -21 -72.5 -35t-51 -36.5t-36 -51t-10.5 -68.5
v-10q0 -85 44 -126.5t122 -41.5zM233 1145q-8 59 -1 109t44 83t97 33q46 0 91.5 -20t84 -40t69.5 -20q33 0 46 21.5t16 66.5h61q8 -59 2.5 -109t-38 -83t-87.5 -33q-48 0 -131.5 40t-124.5 40q-37 0 -49.5 -20.5t-17.5 -67.5h-62z" />
    <glyph glyph-name="adieresis" unicode="&#xe4;" horiz-adv-x="1048" 
d="M887 -23q-205 0 -205 207v9q-29 -109 -107.5 -164.5t-197.5 -55.5q-132 0 -213.5 70.5t-81.5 196.5v2q0 86 48.5 144.5t150.5 100.5q29 12 87 29t107.5 32.5t99 36.5t78.5 51.5t29 68.5q0 93 -52 145.5t-179 52.5q-78 0 -127 -24v-74q0 -117 -97 -117q-41 0 -68.5 27.5
t-27.5 70.5q0 67 51.5 118t131 76.5t171.5 25.5q369 0 369 -365v-432q0 -70 21.5 -100.5t74.5 -30.5q48 0 88 18v-63q-56 -56 -151 -56zM424 80q102 0 178 74t80 206v228q-28 -28 -63.5 -51t-60 -34t-68.5 -28.5t-62 -25.5q-47 -21 -72.5 -35t-51 -36.5t-36 -51t-10.5 -68.5
v-10q0 -85 44 -126.5t122 -41.5zM313 1128q-44 0 -76 31.5t-32 75.5q0 43 32 74.5t76 31.5q43 0 75 -31.5t32 -74.5q0 -44 -32 -75.5t-75 -31.5zM666 1128q-43 0 -75 31.5t-32 75.5q0 43 32 74.5t75 31.5q44 0 76 -31.5t32 -74.5q0 -44 -32 -75.5t-76 -31.5z" />
    <glyph glyph-name="aring" unicode="&#xe5;" horiz-adv-x="1048" 
d="M887 -23q-205 0 -205 207v9q-29 -109 -107.5 -164.5t-197.5 -55.5q-132 0 -213.5 70.5t-81.5 196.5v2q0 86 48.5 144.5t150.5 100.5q29 12 87 29t107.5 32.5t99 36.5t78.5 51.5t29 68.5q0 93 -52 145.5t-179 52.5q-78 0 -127 -24v-74q0 -117 -97 -117q-41 0 -68.5 27.5
t-27.5 70.5q0 67 51.5 118t131 76.5t171.5 25.5q369 0 369 -365v-432q0 -70 21.5 -100.5t74.5 -30.5q48 0 88 18v-63q-56 -56 -151 -56zM424 80q102 0 178 74t80 206v228q-28 -28 -63.5 -51t-60 -34t-68.5 -28.5t-62 -25.5q-47 -21 -72.5 -35t-51 -36.5t-36 -51t-10.5 -68.5
v-10q0 -85 44 -126.5t122 -41.5zM305 1284q0 77 54 131.5t133 54.5t133.5 -54.5t54.5 -131.5t-54.5 -130.5t-133.5 -53.5t-133 53.5t-54 130.5zM395 1284q0 -58 25 -90.5t72 -32.5t72.5 32.5t25.5 90.5t-25.5 90.5t-72.5 32.5t-72 -32.5t-25 -90.5z" />
    <glyph glyph-name="ae" unicode="&#xe6;" horiz-adv-x="1646" 
d="M1141 899q-130 0 -207.5 -88.5t-77.5 -251.5h526v29q0 311 -241 311zM424 80q107 0 180.5 73t77.5 207v228q-28 -28 -63.5 -51t-60 -34t-68.5 -28.5t-62 -25.5q-47 -21 -72.5 -35t-51 -36.5t-36 -51t-10.5 -68.5v-10q0 -85 44 -126.5t122 -41.5zM1518 90
q-40 -43 -129.5 -78t-214.5 -35q-164 0 -280.5 71t-170.5 204q-25 -145 -116 -212t-224 -67q-136 0 -218.5 70.5t-82.5 196.5v2q0 86 48.5 144.5t150.5 100.5q29 12 87 29t107.5 32.5t99 36.5t78.5 51.5t29 68.5q0 92 -51 145t-176 53q-87 0 -131 -35v-63q0 -117 -97 -117
q-41 0 -68.5 27.5t-27.5 70.5q0 67 51.5 118t131 76.5t171.5 25.5q244 0 312 -179q114 179 344 179q106 0 186 -33t126 -90.5t68.5 -128.5t22.5 -154q0 -73 -14 -139h-674q4 -197 92.5 -282t268.5 -85q87 0 171 23t130 55v-82z" />
    <glyph glyph-name="ccedilla" unicode="&#xe7;" horiz-adv-x="1003" 
d="M885 100q-43 -53 -126.5 -88t-203.5 -35h-27v-57q170 -16 170 -156q0 -70 -51 -108.5t-141 -38.5q-100 0 -141 41v61q50 -20 96 -20q94 0 94 78q0 86 -137 88v131q-159 41 -247.5 174t-88.5 326v2q0 127 41 227t109 160t150 90.5t171 30.5q144 0 241 -61t97 -163
q0 -44 -25.5 -71t-70.5 -27q-105 0 -105 119v65q-40 35 -131 35q-127 0 -211 -86.5t-84 -267.5v-74q0 -196 82 -288.5t256 -92.5q143 0 283 90v-84z" />
    <glyph glyph-name="egrave" unicode="&#xe8;" horiz-adv-x="1046" 
d="M930 461h-666q4 -198 88.5 -282.5t263.5 -84.5q87 0 171.5 23.5t130.5 54.5v-82q-39 -43 -129.5 -78t-215.5 -35q-230 0 -360.5 135t-130.5 382v2q0 224 128.5 367t330.5 143q106 0 186 -33t126 -90.5t68.5 -128.5t22.5 -154q0 -73 -14 -139zM541 899
q-127 0 -200.5 -86.5t-76.5 -253.5h518v29q0 311 -241 311zM690 1120l-35 -39l-239 129q-92 49 -92 123q0 42 25 67t67 25q38 0 67.5 -22t63.5 -72z" />
    <glyph glyph-name="eacute" unicode="&#xe9;" horiz-adv-x="1046" 
d="M930 461h-666q4 -198 88.5 -282.5t263.5 -84.5q87 0 171.5 23.5t130.5 54.5v-82q-39 -43 -129.5 -78t-215.5 -35q-230 0 -360.5 135t-130.5 382v2q0 224 128.5 367t330.5 143q106 0 186 -33t126 -90.5t68.5 -128.5t22.5 -154q0 -73 -14 -139zM541 899
q-127 0 -200.5 -86.5t-76.5 -253.5h518v29q0 311 -241 311zM442 1081l-36 37l133 211q33 51 58 72.5t65 21.5q43 0 66.5 -25t23.5 -65q0 -38 -20 -62t-58 -48z" />
    <glyph glyph-name="ecircumflex" unicode="&#xea;" horiz-adv-x="1046" 
d="M930 461h-666q4 -198 88.5 -282.5t263.5 -84.5q87 0 171.5 23.5t130.5 54.5v-82q-39 -43 -129.5 -78t-215.5 -35q-230 0 -360.5 135t-130.5 382v2q0 224 128.5 367t330.5 143q106 0 186 -33t126 -90.5t68.5 -128.5t22.5 -154q0 -73 -14 -139zM541 899
q-127 0 -200.5 -86.5t-76.5 -253.5h518v29q0 311 -241 311zM756 1085l-224 132l-223 -132l-39 45l217 261h91l217 -261z" />
    <glyph glyph-name="edieresis" unicode="&#xeb;" horiz-adv-x="1046" 
d="M930 461h-666q4 -198 88.5 -282.5t263.5 -84.5q87 0 171.5 23.5t130.5 54.5v-82q-39 -43 -129.5 -78t-215.5 -35q-230 0 -360.5 135t-130.5 382v2q0 224 128.5 367t330.5 143q106 0 186 -33t126 -90.5t68.5 -128.5t22.5 -154q0 -73 -14 -139zM541 899
q-127 0 -200.5 -86.5t-76.5 -253.5h518v29q0 311 -241 311zM367 1128q-44 0 -76.5 31.5t-32.5 75.5q0 43 32.5 74.5t76.5 31.5q43 0 74.5 -31.5t31.5 -74.5q0 -44 -31.5 -75.5t-74.5 -31.5zM719 1128q-43 0 -75 31.5t-32 75.5q0 43 32 74.5t75 31.5q44 0 76 -31.5t32 -74.5
q0 -44 -32 -75.5t-76 -31.5z" />
    <glyph glyph-name="igrave" unicode="&#xec;" horiz-adv-x="540" 
d="M504 0h-463v80h57q54 0 70 17t16 71v598q0 74 -23.5 95.5t-97.5 21.5h-22v98h315v-813q0 -57 19 -72.5t88 -15.5h41v-80zM358 1120l-34 -39l-240 129q-92 49 -92 123q0 42 25 67t67 25q38 0 67.5 -22t63.5 -72z" />
    <glyph glyph-name="iacute" unicode="&#xed;" horiz-adv-x="540" 
d="M504 0h-463v80h57q54 0 70 17t16 71v598q0 74 -23.5 95.5t-97.5 21.5h-22v98h315v-813q0 -57 19 -72.5t88 -15.5h41v-80zM154 1083l-37 37l133 211q33 51 58 72.5t65 21.5q43 0 66.5 -25t23.5 -65q0 -38 -20 -62t-58 -48z" />
    <glyph glyph-name="icircumflex" unicode="&#xee;" horiz-adv-x="540" 
d="M504 0h-463v80h57q54 0 70 17t16 71v598q0 74 -23.5 95.5t-97.5 21.5h-22v98h315v-813q0 -57 19 -72.5t88 -15.5h41v-80zM455 1085l-224 132l-223 -132l-39 45l217 261h90l218 -261z" />
    <glyph glyph-name="idieresis" unicode="&#xef;" horiz-adv-x="540" 
d="M76 1128q-44 0 -76.5 31.5t-32.5 75.5q0 43 32.5 74.5t76.5 31.5q43 0 74.5 -31.5t31.5 -74.5q0 -44 -31.5 -75.5t-74.5 -31.5zM387 1128q-43 0 -74.5 31.5t-31.5 75.5q0 43 31.5 74.5t74.5 31.5q44 0 76.5 -31.5t32.5 -74.5q0 -44 -32.5 -75.5t-76.5 -31.5zM504 0h-463
v80h57q54 0 70 17t16 71v598q0 74 -23.5 95.5t-97.5 21.5h-22v98h315v-813q0 -57 19 -72.5t88 -15.5h41v-80z" />
    <glyph glyph-name="eth" unicode="&#xf0;" horiz-adv-x="1136" 
d="M795 1358l32 -74l-165 -63q171 -122 276.5 -296t105.5 -395v-26q0 -129 -38.5 -231.5t-105.5 -166t-152.5 -96.5t-184.5 -33q-98 0 -184 33t-153 96t-105.5 165t-38.5 231v2q0 111 34.5 204.5t92.5 155.5t135 96.5t162 34.5q169 0 287 -131l2 2q-90 164 -271 301
l-293 -112l-32 73l250 97q-127 83 -259 143v10h164q122 -42 226 -104zM565 86q138 0 221.5 93.5t83.5 291.5v80q0 150 -91 242t-214 92q-137 0 -221 -89.5t-84 -244.5v-80q0 -198 83.5 -291.5t221.5 -93.5z" />
    <glyph glyph-name="ntilde" unicode="&#xf1;" horiz-adv-x="1183" 
d="M1016 670v-508q0 -47 20.5 -64.5t91.5 -17.5h21v-80h-461v80h49q66 0 86.5 13t20.5 61v548q0 177 -193 177q-131 0 -218 -91t-87 -245v-389q0 -46 19.5 -60t87.5 -14h49v-80h-463v80h49q54 0 70 17t16 71v598q0 74 -23.5 95.5t-97.5 21.5h-14v98h278q29 -117 29 -240v-28
q24 138 122.5 215.5t229.5 77.5q146 0 232 -86.5t86 -249.5zM328 1145q-8 59 -1 109t43.5 83t96.5 33q46 0 91.5 -20t84.5 -40t70 -20q33 0 45.5 21t15.5 67h62q8 -59 2.5 -109t-38 -83t-87.5 -33q-48 0 -131.5 40t-124.5 40q-37 0 -50 -20.5t-18 -67.5h-61z" />
    <glyph glyph-name="ograve" unicode="&#xf2;" horiz-adv-x="1101" 
d="M551 -23q-97 0 -181 33t-148.5 96t-102 165t-37.5 231v2q0 228 129 365t340 137t340 -136.5t129 -363.5v-2q0 -130 -37.5 -232t-102 -165.5t-148.5 -96.5t-181 -33zM551 86q285 0 285 389v78q0 167 -75 254.5t-210 87.5t-210 -87.5t-75 -254.5v-78q0 -389 285 -389z
M713 1120l-35 -39l-240 129q-92 49 -92 123q0 42 25 67t67 25q38 0 67.5 -22t63.5 -72z" />
    <glyph glyph-name="oacute" unicode="&#xf3;" horiz-adv-x="1101" 
d="M551 -23q-97 0 -181 33t-148.5 96t-102 165t-37.5 231v2q0 228 129 365t340 137t340 -136.5t129 -363.5v-2q0 -130 -37.5 -232t-102 -165.5t-148.5 -96.5t-181 -33zM551 86q285 0 285 389v78q0 167 -75 254.5t-210 87.5t-210 -87.5t-75 -254.5v-78q0 -389 285 -389z
M457 1083l-37 37l133 211q33 51 58 72.5t65 21.5q43 0 66.5 -25t23.5 -65q0 -38 -20 -62t-58 -48z" />
    <glyph glyph-name="ocircumflex" unicode="&#xf4;" horiz-adv-x="1101" 
d="M551 -23q-97 0 -181 33t-148.5 96t-102 165t-37.5 231v2q0 228 129 365t340 137t340 -136.5t129 -363.5v-2q0 -130 -37.5 -232t-102 -165.5t-148.5 -96.5t-181 -33zM551 86q285 0 285 389v78q0 167 -75 254.5t-210 87.5t-210 -87.5t-75 -254.5v-78q0 -389 285 -389z
M776 1085l-223 132l-223 -132l-39 45l217 261h90l217 -261z" />
    <glyph glyph-name="otilde" unicode="&#xf5;" horiz-adv-x="1101" 
d="M551 -23q-97 0 -181 33t-148.5 96t-102 165t-37.5 231v2q0 228 129 365t340 137t340 -136.5t129 -363.5v-2q0 -130 -37.5 -232t-102 -165.5t-148.5 -96.5t-181 -33zM551 86q285 0 285 389v78q0 167 -75 254.5t-210 87.5t-210 -87.5t-75 -254.5v-78q0 -389 285 -389z
M309 1145q-8 59 -1 109t44 83t97 33q46 0 91.5 -20t84 -40t69.5 -20q33 0 46 21.5t16 66.5h61q8 -59 2.5 -109t-38 -83t-87.5 -33q-48 0 -131.5 40t-124.5 40q-37 0 -49.5 -20.5t-17.5 -67.5h-62z" />
    <glyph glyph-name="odieresis" unicode="&#xf6;" horiz-adv-x="1101" 
d="M551 -23q-97 0 -181 33t-148.5 96t-102 165t-37.5 231v2q0 228 129 365t340 137t340 -136.5t129 -363.5v-2q0 -130 -37.5 -232t-102 -165.5t-148.5 -96.5t-181 -33zM551 86q285 0 285 389v78q0 167 -75 254.5t-210 87.5t-210 -87.5t-75 -254.5v-78q0 -389 285 -389z
M375 1128q-44 0 -76.5 31.5t-32.5 75.5q0 43 32.5 74.5t76.5 31.5q43 0 74.5 -31.5t31.5 -74.5q0 -44 -31.5 -75.5t-74.5 -31.5zM727 1128q-43 0 -74.5 31.5t-31.5 75.5q0 43 31.5 74.5t74.5 31.5q44 0 76.5 -31.5t32.5 -74.5q0 -44 -32.5 -75.5t-76.5 -31.5z" />
    <glyph glyph-name="divide" unicode="&#xf7;" horiz-adv-x="978" 
d="M102 698h775v-106h-775v106zM489 209q-48 0 -84 35t-36 84t36 85t84 36q51 0 86 -35.5t35 -85.5t-35 -84.5t-86 -34.5zM489 840q-48 0 -84 34.5t-36 83.5t36 85t84 36q51 0 86 -35.5t35 -85.5t-35 -84t-86 -34z" />
    <glyph glyph-name="oslash" unicode="&#xf8;" horiz-adv-x="1101" 
d="M551 -23q-161 0 -279 86l-79 -102h-115l127 162q-123 142 -123 379v2q0 228 129 365t340 137q158 0 278 -84l80 102h115l-127 -162q123 -139 123 -356v-2q0 -130 -37.5 -232t-102 -165.5t-148.5 -96.5t-181 -33zM551 86q285 0 285 389v78q0 111 -35 186l-451 -575
q72 -78 201 -78zM266 475q0 -140 35 -227l449 571q-73 76 -199 76q-135 0 -210 -87.5t-75 -254.5v-78z" />
    <glyph glyph-name="ugrave" unicode="&#xf9;" horiz-adv-x="1177" 
d="M827 434v332q0 74 -23.5 95.5t-96.5 21.5h-15v98h307v-819q0 -47 21 -64.5t92 -17.5h31v-80h-291q-25 117 -25 240v12q-24 -128 -117 -202.5t-214 -74.5q-158 0 -245 93.5t-87 285.5v412q0 74 -23.5 95.5t-97.5 21.5h-4v98h297v-653q0 -228 196 -228q129 0 212 94t83 240
zM674 1120l-35 -39l-240 129q-92 49 -92 123q0 42 25 67t67 25q38 0 67.5 -22t63.5 -72z" />
    <glyph glyph-name="uacute" unicode="&#xfa;" horiz-adv-x="1177" 
d="M827 434v332q0 74 -23.5 95.5t-96.5 21.5h-15v98h307v-819q0 -47 21 -64.5t92 -17.5h31v-80h-291q-25 117 -25 240v12q-24 -128 -117 -202.5t-214 -74.5q-158 0 -245 93.5t-87 285.5v412q0 74 -23.5 95.5t-97.5 21.5h-4v98h297v-653q0 -228 196 -228q129 0 212 94t83 240
zM483 1083l-37 37l134 211q33 52 57.5 73t64.5 21q43 0 67 -25t24 -65q0 -38 -20 -62t-58 -48z" />
    <glyph glyph-name="ucircumflex" unicode="&#xfb;" horiz-adv-x="1177" 
d="M827 434v332q0 74 -23.5 95.5t-96.5 21.5h-15v98h307v-819q0 -47 21 -64.5t92 -17.5h31v-80h-291q-25 117 -25 240v12q-24 -128 -117 -202.5t-214 -74.5q-158 0 -245 93.5t-87 285.5v412q0 74 -23.5 95.5t-97.5 21.5h-4v98h297v-653q0 -228 196 -228q129 0 212 94t83 240
zM770 1085l-223 132l-223 -132l-39 45l217 261h90l217 -261z" />
    <glyph glyph-name="udieresis" unicode="&#xfc;" horiz-adv-x="1177" 
d="M827 434v332q0 74 -23.5 95.5t-96.5 21.5h-15v98h307v-819q0 -47 21 -64.5t92 -17.5h31v-80h-291q-25 117 -25 240v12q-24 -128 -117 -202.5t-214 -74.5q-158 0 -245 93.5t-87 285.5v412q0 74 -23.5 95.5t-97.5 21.5h-4v98h297v-653q0 -228 196 -228q129 0 212 94t83 240
zM371 1128q-44 0 -76.5 31.5t-32.5 75.5q0 43 32.5 74.5t76.5 31.5q43 0 74.5 -31.5t31.5 -74.5q0 -44 -31.5 -75.5t-74.5 -31.5zM723 1128q-43 0 -75 31.5t-32 75.5q0 43 32 74.5t75 31.5q44 0 76 -31.5t32 -74.5q0 -44 -32 -75.5t-76 -31.5z" />
    <glyph glyph-name="yacute" unicode="&#xfd;" horiz-adv-x="1079" 
d="M301 -319q-96 0 -151.5 41t-55.5 116q0 44 28.5 68t74.5 24q43 0 63.5 -25.5t20.5 -68.5v-57q8 -4 32 -4q124 0 195 190l12 35h-78l-295 791q-23 62 -42 77t-70 15h-4v98h411v-98h-51q-53 0 -66 -30t9 -87l235 -645l217 600q33 100 18.5 131t-85.5 31h-41v98h366v-98h-4
q-41 0 -62 -19t-42 -78l-303 -798q-61 -161 -136 -234t-196 -73zM467 1083l-37 37l133 211q33 51 58 72.5t65 21.5q43 0 66.5 -25t23.5 -65q0 -38 -20 -62t-58 -48z" />
    <glyph glyph-name="thorn" unicode="&#xfe;" horiz-adv-x="1202" 
d="M668 84q268 0 268 395v74q0 164 -67.5 250t-200.5 86q-131 0 -226.5 -98.5t-95.5 -253.5v-41q0 -100 26.5 -180t71.5 -130t102.5 -76t121.5 -26zM508 -219v-80h-469v80h49q54 0 70 17t16 71v1294q0 74 -23.5 95.5t-97.5 21.5h-14v98h307v-647q35 125 133 200t242 75
q186 0 292.5 -136t106.5 -362v-2q0 -252 -116 -390.5t-297 -138.5q-139 0 -232 67.5t-129 188.5v-378q0 -46 19.5 -60t87.5 -14h55z" />
    <glyph glyph-name="ydieresis" unicode="&#xff;" horiz-adv-x="1079" 
d="M301 -319q-96 0 -151.5 41t-55.5 116q0 44 28.5 68t74.5 24q43 0 63.5 -25.5t20.5 -68.5v-57q8 -4 32 -4q124 0 195 190l12 35h-78l-295 791q-23 62 -42 77t-70 15h-4v98h411v-98h-51q-53 0 -66 -30t9 -87l235 -645l217 600q33 100 18.5 131t-85.5 31h-41v98h366v-98h-4
q-41 0 -62 -19t-42 -78l-303 -798q-61 -161 -136 -234t-196 -73zM395 1128q-44 0 -76 31.5t-32 75.5q0 43 32 74.5t76 31.5q43 0 75 -31.5t32 -74.5q0 -44 -32 -75.5t-75 -31.5zM748 1128q-43 0 -75 31.5t-32 75.5q0 43 32 74.5t75 31.5q44 0 76 -31.5t32 -74.5
q0 -44 -32 -75.5t-76 -31.5z" />
    <glyph glyph-name="Amacron" unicode="&#x100;" horiz-adv-x="1415" 
d="M1020 209l-70 199h-544l-58 -172q-26 -74 -1 -109t110 -35h90v-92h-498v92h35q60 0 81.5 22t51.5 107l375 1088h229l379 -1096q28 -80 49 -100.5t80 -20.5h43v-92h-559v92h90q93 0 117.5 22t-0.5 95zM678 1204l-236 -688h471zM473 1452v94h483v-94h-483z" />
    <glyph glyph-name="amacron" unicode="&#x101;" horiz-adv-x="1048" 
d="M887 -23q-205 0 -205 207v9q-29 -109 -107.5 -164.5t-197.5 -55.5q-132 0 -213.5 70.5t-81.5 196.5v2q0 86 48.5 144.5t150.5 100.5q29 12 87 29t107.5 32.5t99 36.5t78.5 51.5t29 68.5q0 93 -52 145.5t-179 52.5q-78 0 -127 -24v-74q0 -117 -97 -117q-41 0 -68.5 27.5
t-27.5 70.5q0 67 51.5 118t131 76.5t171.5 25.5q369 0 369 -365v-432q0 -70 21.5 -100.5t74.5 -30.5q48 0 88 18v-63q-56 -56 -151 -56zM424 80q102 0 178 74t80 206v228q-28 -28 -63.5 -51t-60 -34t-68.5 -28.5t-62 -25.5q-47 -21 -72.5 -35t-51 -36.5t-36 -51t-10.5 -68.5
v-10q0 -85 44 -126.5t122 -41.5zM248 1171v95h483v-95h-483z" />
    <glyph glyph-name="Abreve" unicode="&#x102;" horiz-adv-x="1415" 
d="M1020 209l-70 199h-544l-58 -172q-26 -74 -1 -109t110 -35h90v-92h-498v92h35q60 0 81.5 22t51.5 107l375 1088h229l379 -1096q28 -80 49 -100.5t80 -20.5h43v-92h-559v92h90q93 0 117.5 22t-0.5 95zM678 1204l-236 -688h471zM858 1618h80q8 -97 -50 -167.5t-173 -70.5
t-173 70.5t-50 167.5h79q3 -46 39 -75.5t105 -29.5t104.5 29.5t38.5 75.5z" />
    <glyph glyph-name="abreve" unicode="&#x103;" horiz-adv-x="1048" 
d="M887 -23q-205 0 -205 207v9q-29 -109 -107.5 -164.5t-197.5 -55.5q-132 0 -213.5 70.5t-81.5 196.5v2q0 86 48.5 144.5t150.5 100.5q29 12 87 29t107.5 32.5t99 36.5t78.5 51.5t29 68.5q0 93 -52 145.5t-179 52.5q-78 0 -127 -24v-74q0 -117 -97 -117q-41 0 -68.5 27.5
t-27.5 70.5q0 67 51.5 118t131 76.5t171.5 25.5q369 0 369 -365v-432q0 -70 21.5 -100.5t74.5 -30.5q48 0 88 18v-63q-56 -56 -151 -56zM424 80q102 0 178 74t80 206v228q-28 -28 -63.5 -51t-60 -34t-68.5 -28.5t-62 -25.5q-47 -21 -72.5 -35t-51 -36.5t-36 -51t-10.5 -68.5
v-10q0 -85 44 -126.5t122 -41.5zM655 1378h74q6 -50 -5 -98.5t-37.5 -89t-75.5 -65.5t-113 -25q-84 0 -140 42.5t-76 104t-12 131.5h74q-3 -64 33 -104.5t121 -40.5t122 40.5t35 104.5z" />
    <glyph glyph-name="Aogonek" unicode="&#x104;" horiz-adv-x="1415" 
d="M993 -317q-67 0 -107 37t-40 108q0 68 58 131t169 98l-121 351h-546l-58 -172q-26 -74 -1 -109t110 -35h90v-92h-498v92h35q60 0 81.5 22t51.5 107l375 1088h229l379 -1096q28 -80 49 -100.5t80 -20.5h43v-92h-149q-57 0 -101.5 -10t-69.5 -25.5t-41 -36t-21 -38
t-5 -35.5q0 -60 70 -60q31 0 69 17v-52q-11 -31 -44 -54t-87 -23zM678 1204l-236 -688h473z" />
    <glyph glyph-name="aogonek" unicode="&#x105;" horiz-adv-x="1048" 
d="M864 -317q-63 0 -103 39.5t-40 93.5q0 104 135 164q-174 12 -174 204v9q-29 -109 -107.5 -164.5t-197.5 -55.5q-132 0 -213.5 70.5t-81.5 196.5v2q0 86 48.5 144.5t150.5 100.5q29 12 87 29t107.5 32.5t99 36.5t78.5 51.5t29 68.5q0 93 -52 145.5t-179 52.5
q-78 0 -127 -24v-74q0 -117 -97 -117q-41 0 -68.5 27.5t-27.5 70.5q0 67 51.5 118t131 76.5t171.5 25.5q369 0 369 -365v-432q0 -70 21.5 -100.5t74.5 -30.5q48 0 88 18v-69q-103 -50 -142.5 -89.5t-39.5 -82.5q0 -60 70 -60q31 0 69 17v-52q-11 -31 -44 -54t-87 -23z
M424 80q102 0 178 74t80 206v228q-28 -28 -63.5 -51t-60 -34t-68.5 -28.5t-62 -25.5q-47 -21 -72.5 -35t-51 -36.5t-36 -51t-10.5 -68.5v-10q0 -85 44 -126.5t122 -41.5z" />
    <glyph glyph-name="Cacute" unicode="&#x106;" horiz-adv-x="1306" 
d="M688 -31q-260 0 -423 181.5t-163 508.5v5q0 309 162 491t436 182q230 0 342 -153q6 36 16 67.5t16 44.5l7 13h86v-379h-118q-13 156 -97 225.5t-245 69.5q-108 0 -190.5 -39.5t-131.5 -110t-73.5 -161t-24.5 -199.5v-82q0 -261 102.5 -403t319.5 -142q164 0 258 75.5
t108 213.5h109v-377h-86q-21 45 -35 139q-120 -170 -375 -170zM616 1382l-32 31l100 189q23 44 48.5 62.5t62.5 18.5q38 0 63 -26t25 -66q0 -66 -82 -108z" />
    <glyph glyph-name="cacute" unicode="&#x107;" horiz-adv-x="1003" 
d="M885 100q-43 -53 -126.5 -88t-203.5 -35q-219 0 -346 143t-127 376v2q0 127 41 227t109 160t150 90.5t171 30.5q144 0 241 -61t97 -163q0 -44 -25.5 -71t-70.5 -27q-105 0 -105 119v65q-40 35 -131 35q-127 0 -211 -86.5t-84 -267.5v-74q0 -196 82 -288.5t256 -92.5
q143 0 283 90v-84zM453 1083l-37 37l133 211q33 51 58 72.5t65 21.5q43 0 66.5 -25t23.5 -65q0 -38 -20 -62t-58 -48z" />
    <glyph glyph-name="Ccircumflex" unicode="&#x108;" horiz-adv-x="1306" 
d="M688 -31q-260 0 -423 181.5t-163 508.5v5q0 309 162 491t436 182q230 0 342 -153q6 36 16 67.5t16 44.5l7 13h86v-379h-118q-13 156 -97 225.5t-245 69.5q-108 0 -190.5 -39.5t-131.5 -110t-73.5 -161t-24.5 -199.5v-82q0 -261 102.5 -403t319.5 -142q164 0 258 75.5
t108 213.5h109v-377h-86q-21 45 -35 139q-120 -170 -375 -170zM913 1393l-223 84l-223 -84l-45 45l223 202h90l223 -202z" />
    <glyph glyph-name="ccircumflex" unicode="&#x109;" horiz-adv-x="1003" 
d="M885 100q-43 -53 -126.5 -88t-203.5 -35q-219 0 -346 143t-127 376v2q0 127 41 227t109 160t150 90.5t171 30.5q144 0 241 -61t97 -163q0 -44 -25.5 -71t-70.5 -27q-105 0 -105 119v65q-40 35 -131 35q-127 0 -211 -86.5t-84 -267.5v-74q0 -196 82 -288.5t256 -92.5
q143 0 283 90v-84zM772 1085l-223 132l-223 -132l-39 45l217 261h90l217 -261z" />
    <glyph glyph-name="Cdotaccent" unicode="&#x10a;" horiz-adv-x="1306" 
d="M688 -31q-260 0 -423 181.5t-163 508.5v5q0 309 162 491t436 182q230 0 342 -153q6 36 16 67.5t16 44.5l7 13h86v-379h-118q-13 156 -97 225.5t-245 69.5q-108 0 -190.5 -39.5t-131.5 -110t-73.5 -161t-24.5 -199.5v-82q0 -261 102.5 -403t319.5 -142q164 0 258 75.5
t108 213.5h109v-377h-86q-21 45 -35 139q-120 -170 -375 -170zM676 1417q-46 0 -79.5 32.5t-33.5 78.5t33.5 79t79.5 33t79 -33t33 -79t-33 -78.5t-79 -32.5z" />
    <glyph glyph-name="cdotaccent" unicode="&#x10b;" horiz-adv-x="1003" 
d="M885 100q-43 -53 -126.5 -88t-203.5 -35q-219 0 -346 143t-127 376v2q0 127 41 227t109 160t150 90.5t171 30.5q144 0 241 -61t97 -163q0 -44 -25.5 -71t-70.5 -27q-105 0 -105 119v65q-40 35 -131 35q-127 0 -211 -86.5t-84 -267.5v-74q0 -196 82 -288.5t256 -92.5
q143 0 283 90v-84zM549 1128q-46 0 -79.5 32.5t-33.5 78.5t33.5 79.5t79.5 33.5t79.5 -33.5t33.5 -79.5t-33.5 -78.5t-79.5 -32.5z" />
    <glyph glyph-name="Ccaron" unicode="&#x10c;" horiz-adv-x="1306" 
d="M688 -31q-260 0 -423 181.5t-163 508.5v5q0 309 162 491t436 182q230 0 342 -153q6 36 16 67.5t16 44.5l7 13h86v-379h-118q-13 156 -97 225.5t-245 69.5q-108 0 -190.5 -39.5t-131.5 -110t-73.5 -161t-24.5 -199.5v-82q0 -261 102.5 -403t319.5 -142q164 0 258 75.5
t108 213.5h109v-377h-86q-21 45 -35 139q-120 -170 -375 -170zM422 1595l45 45l223 -84l223 84l45 -45l-223 -202h-90z" />
    <glyph glyph-name="ccaron" unicode="&#x10d;" horiz-adv-x="1003" 
d="M885 100q-43 -53 -126.5 -88t-203.5 -35q-219 0 -346 143t-127 376v2q0 127 41 227t109 160t150 90.5t171 30.5q144 0 241 -61t97 -163q0 -44 -25.5 -71t-70.5 -27q-105 0 -105 119v65q-40 35 -131 35q-127 0 -211 -86.5t-84 -267.5v-74q0 -196 82 -288.5t256 -92.5
q143 0 283 90v-84zM287 1364l39 45l223 -133l223 133l39 -45l-217 -260h-90z" />
    <glyph glyph-name="Dcaron" unicode="&#x10e;" horiz-adv-x="1368" 
d="M51 1309h668q279 0 418 -166t139 -465v-4q0 -326 -150 -500t-446 -174h-629v92h76q58 0 82 21.5t24 87.5v897q0 65 -24 86.5t-82 21.5h-76v103zM412 100h245q116 0 200 37.5t135 110.5t74.5 172t23.5 229v74q0 111 -18 193t-61 148t-121.5 100t-191.5 34h-286v-1098z
M367 1595l45 45l223 -84l223 84l45 -45l-223 -202h-90z" />
    <glyph glyph-name="dcaron" unicode="&#x10f;" horiz-adv-x="1206" 
d="M535 887q-132 0 -200.5 -80.5t-68.5 -261.5v-74q0 -187 68.5 -288t200.5 -101q131 0 226 108t95 277v37q0 185 -93 284t-228 99zM856 745v418q0 74 -23.5 95.5t-97.5 21.5h-39v98h332v-1216q0 -47 21 -64.5t92 -17.5h30v-80h-284q-31 117 -31 246q-34 -128 -127 -199.5
t-231 -71.5q-191 0 -303.5 147.5t-112.5 393.5v2q0 116 33.5 210t91.5 153.5t132.5 91t158.5 31.5q142 0 231 -68t127 -191zM1171 1108h-73v195q0 50 23 80t65 30q48 0 68 -39t-7 -102z" />
    <glyph glyph-name="Dcroat" unicode="&#x110;" horiz-adv-x="1368" 
d="M88 596v109h145v393q0 65 -24 86.5t-82 21.5h-76v103h668q279 0 418 -166t139 -465v-4q0 -326 -150 -500t-446 -174h-629v92h76q58 0 82 21.5t24 87.5v395h-145zM412 100h245q116 0 200 37.5t135 110.5t74.5 172t23.5 229v74q0 111 -18 193t-61 148t-121.5 100t-191.5 34
h-286v-493h350v-109h-350v-496z" />
    <glyph glyph-name="dcroat" unicode="&#x111;" horiz-adv-x="1206" 
d="M856 745v371h-330v103h330v159h172v-159h141v-103h-141v-954q0 -47 21 -64.5t92 -17.5h30v-80h-284q-31 117 -31 246q-34 -128 -127 -199.5t-231 -71.5q-191 0 -303.5 147.5t-112.5 393.5v2q0 116 33.5 210t91.5 153.5t132.5 91t158.5 31.5q142 0 231 -68t127 -191z
M535 887q-132 0 -200.5 -80.5t-68.5 -261.5v-74q0 -187 68.5 -288t200.5 -101q131 0 226 108t95 277v37q0 185 -93 284t-228 99z" />
    <glyph glyph-name="Emacron" unicode="&#x112;" horiz-adv-x="1206" 
d="M1104 0h-1053v92h76q58 0 82 21.5t24 87.5v897q0 65 -24 86.5t-82 21.5h-76v103h1024v-357h-112v33q0 73 -7.5 113.5t-32.5 63t-58 28.5t-97 6h-356v-479h227q59 0 84 12.5t36 55t11 139.5v20h100v-575h-100v26q0 74 -4.5 114t-20.5 63.5t-39 29.5t-67 6h-227v-504h362
q71 0 109.5 8t65 34.5t34.5 71t8 124.5v47h113v-389zM369 1452v94h483v-94h-483z" />
    <glyph glyph-name="emacron" unicode="&#x113;" horiz-adv-x="1046" 
d="M930 461h-666q4 -198 88.5 -282.5t263.5 -84.5q87 0 171.5 23.5t130.5 54.5v-82q-39 -43 -129.5 -78t-215.5 -35q-230 0 -360.5 135t-130.5 382v2q0 224 128.5 367t330.5 143q106 0 186 -33t126 -90.5t68.5 -128.5t22.5 -154q0 -73 -14 -139zM541 899
q-127 0 -200.5 -86.5t-76.5 -253.5h518v29q0 311 -241 311zM281 1171v95h483v-95h-483z" />
    <glyph glyph-name="Ebreve" unicode="&#x114;" horiz-adv-x="1206" 
d="M1104 0h-1053v92h76q58 0 82 21.5t24 87.5v897q0 65 -24 86.5t-82 21.5h-76v103h1024v-357h-112v33q0 73 -7.5 113.5t-32.5 63t-58 28.5t-97 6h-356v-479h227q59 0 84 12.5t36 55t11 139.5v20h100v-575h-100v26q0 74 -4.5 114t-20.5 63.5t-39 29.5t-67 6h-227v-504h362
q71 0 109.5 8t65 34.5t34.5 71t8 124.5v47h113v-389zM754 1618h80q8 -97 -50.5 -167.5t-173.5 -70.5t-173 70.5t-50 167.5h80q3 -46 38.5 -75.5t104.5 -29.5t105 29.5t39 75.5z" />
    <glyph glyph-name="ebreve" unicode="&#x115;" horiz-adv-x="1046" 
d="M930 461h-666q4 -198 88.5 -282.5t263.5 -84.5q87 0 171.5 23.5t130.5 54.5v-82q-39 -43 -129.5 -78t-215.5 -35q-230 0 -360.5 135t-130.5 382v2q0 224 128.5 367t330.5 143q106 0 186 -33t126 -90.5t68.5 -128.5t22.5 -154q0 -73 -14 -139zM541 899
q-127 0 -200.5 -86.5t-76.5 -253.5h518v29q0 311 -241 311zM678 1378h74q8 -69 -12.5 -130.5t-78 -104.5t-141.5 -43t-139.5 42.5t-75.5 104t-12 131.5h74q-3 -64 32.5 -104.5t120.5 -40.5t122.5 41t35.5 104z" />
    <glyph glyph-name="Edotaccent" unicode="&#x116;" horiz-adv-x="1206" 
d="M1104 0h-1053v92h76q58 0 82 21.5t24 87.5v897q0 65 -24 86.5t-82 21.5h-76v103h1024v-357h-112v33q0 73 -7.5 113.5t-32.5 63t-58 28.5t-97 6h-356v-479h227q59 0 84 12.5t36 55t11 139.5v20h100v-575h-100v26q0 74 -4.5 114t-20.5 63.5t-39 29.5t-67 6h-227v-504h362
q71 0 109.5 8t65 34.5t34.5 71t8 124.5v47h113v-389zM610 1417q-46 0 -79 32.5t-33 78.5t33 79t79 33t79.5 -33t33.5 -79t-33.5 -78.5t-79.5 -32.5z" />
    <glyph glyph-name="edotaccent" unicode="&#x117;" horiz-adv-x="1046" 
d="M930 461h-666q4 -198 88.5 -282.5t263.5 -84.5q87 0 171.5 23.5t130.5 54.5v-82q-39 -43 -129.5 -78t-215.5 -35q-230 0 -360.5 135t-130.5 382v2q0 224 128.5 367t330.5 143q106 0 186 -33t126 -90.5t68.5 -128.5t22.5 -154q0 -73 -14 -139zM541 899
q-127 0 -200.5 -86.5t-76.5 -253.5h518v29q0 311 -241 311zM512 1128q-46 0 -79.5 32.5t-33.5 78.5t33.5 79.5t79.5 33.5t79.5 -33.5t33.5 -79.5t-33.5 -78.5t-79.5 -32.5z" />
    <glyph glyph-name="Eogonek" unicode="&#x118;" horiz-adv-x="1206" 
d="M1104 0h-66q-88 -3 -143 -47.5t-55 -97.5q0 -60 69 -60q32 0 70 17v-52q-11 -31 -44 -54t-87 -23q-63 0 -103 39.5t-40 93.5q0 68 47.5 118t101.5 66h-803v92h76q58 0 82 21.5t24 87.5v897q0 65 -24 86.5t-82 21.5h-76v103h1024v-357h-112v33q0 73 -7.5 113.5t-32.5 63
t-58 28.5t-97 6h-356v-479h227q59 0 84 12.5t36 55t11 139.5v20h100v-575h-100v26q0 74 -4.5 114t-20.5 63.5t-39 29.5t-67 6h-227v-504h362q71 0 109.5 8t65 34.5t34.5 71t8 124.5v47h113v-389z" />
    <glyph glyph-name="eogonek" unicode="&#x119;" horiz-adv-x="1046" 
d="M807 -240q-11 -31 -44 -54t-87 -23q-63 0 -103.5 39.5t-40.5 93.5t36.5 97.5t88.5 70.5q-47 -7 -84 -7q-230 0 -360.5 135t-130.5 382v2q0 224 128.5 367t330.5 143q106 0 186 -33t126 -90.5t68.5 -128.5t22.5 -154q0 -73 -14 -139h-666q6 -198 90.5 -282.5t261.5 -84.5
q87 0 171.5 23.5t130.5 54.5v-82q-20 -23 -66 -50.5t-84.5 -49t-69 -57.5t-30.5 -78q0 -60 69 -60q32 0 70 17v-52zM264 559h518v29q0 311 -241 311q-129 0 -203 -88t-74 -252z" />
    <glyph glyph-name="Ecaron" unicode="&#x11a;" horiz-adv-x="1206" 
d="M1104 0h-1053v92h76q58 0 82 21.5t24 87.5v897q0 65 -24 86.5t-82 21.5h-76v103h1024v-357h-112v33q0 73 -7.5 113.5t-32.5 63t-58 28.5t-97 6h-356v-479h227q59 0 84 12.5t36 55t11 139.5v20h100v-575h-100v26q0 74 -4.5 114t-20.5 63.5t-39 29.5t-67 6h-227v-504h362
q71 0 109.5 8t65 34.5t34.5 71t8 124.5v47h113v-389zM342 1595l45 45l223 -84l224 84l45 -45l-224 -202h-90z" />
    <glyph glyph-name="ecaron" unicode="&#x11b;" horiz-adv-x="1046" 
d="M930 461h-666q4 -198 88.5 -282.5t263.5 -84.5q87 0 171.5 23.5t130.5 54.5v-82q-39 -43 -129.5 -78t-215.5 -35q-230 0 -360.5 135t-130.5 382v2q0 224 128.5 367t330.5 143q106 0 186 -33t126 -90.5t68.5 -128.5t22.5 -154q0 -73 -14 -139zM541 899
q-127 0 -200.5 -86.5t-76.5 -253.5h518v29q0 311 -241 311zM272 1364l39 45l224 -133l223 133l39 -45l-217 -260h-91z" />
    <glyph glyph-name="Gcircumflex" unicode="&#x11c;" horiz-adv-x="1331" 
d="M682 1337q224 0 330 -151q7 36 17 67t16 43l6 13h86v-379h-119q-13 156 -93.5 225.5t-236.5 69.5q-105 0 -184 -39.5t-125.5 -110t-69 -160.5t-22.5 -200v-82q0 -545 403 -545q189 0 301 90v260q0 62 -18 78t-88 16h-62v103h467v-103h-14q-63 0 -85 -20.5t-22 -87.5v-424
h-86q-23 25 -39 127q-120 -158 -366 -158q-263 0 -419.5 180t-156.5 510v5q0 310 157 491.5t423 181.5zM881 1393l-224 84l-223 -84l-45 45l223 202h90l224 -202z" />
    <glyph glyph-name="gcircumflex" unicode="&#x11d;" horiz-adv-x="968" 
d="M444 1006q84 0 164 -27q71 2 158.5 16.5t105.5 14.5q33 0 52.5 -19t19.5 -55q0 -35 -19.5 -54.5t-52.5 -19.5q-23 0 -72.5 20.5t-86.5 24.5q121 -81 121 -235v-2q0 -71 -22.5 -126.5t-59 -89.5t-87.5 -55.5t-102 -30t-108 -8.5h-127q-44 0 -68 -17t-24 -48q0 -59 86 -62
l274 -12q165 -7 236 -70.5t71 -191.5v-2q0 -64 -23 -112.5t-61.5 -78.5t-96 -48.5t-119 -25.5t-138.5 -7q-445 0 -445 239v2q0 71 60.5 120.5t146.5 62.5q-116 33 -116 139q0 126 168 155q-89 18 -144 92.5t-55 198.5v2q0 79 31.5 140.5t84.5 97.5t116 54t132 18zM455 459
q211 0 211 215v37q0 54 -18.5 93.5t-50 60t-66.5 29.5t-76 9q-40 0 -74.5 -9t-65.5 -29.5t-49 -60t-18 -93.5v-37q0 -54 13 -94t32.5 -62.5t48.5 -36t55 -18t58 -4.5zM459 -217q158 0 225.5 40.5t67.5 123.5v2q0 63 -37 93t-133 34l-197 8q-110 4 -158.5 -31t-48.5 -110v-2
q0 -82 63 -120t218 -38zM690 1085l-223 132l-223 -132l-39 45l217 261h90l217 -261z" />
    <glyph glyph-name="Gbreve" unicode="&#x11e;" horiz-adv-x="1331" 
d="M682 1337q224 0 330 -151q7 36 17 67t16 43l6 13h86v-379h-119q-13 156 -93.5 225.5t-236.5 69.5q-105 0 -184 -39.5t-125.5 -110t-69 -160.5t-22.5 -200v-82q0 -545 403 -545q189 0 301 90v260q0 62 -18 78t-88 16h-62v103h467v-103h-14q-63 0 -85 -20.5t-22 -87.5v-424
h-86q-23 25 -39 127q-120 -158 -366 -158q-263 0 -419.5 180t-156.5 510v5q0 310 157 491.5t423 181.5zM801 1618h80q8 -97 -50.5 -167.5t-173.5 -70.5t-173 70.5t-50 167.5h80q3 -46 38.5 -75.5t104.5 -29.5t105 29.5t39 75.5z" />
    <glyph glyph-name="gbreve" unicode="&#x11f;" horiz-adv-x="968" 
d="M444 1006q84 0 164 -27q71 2 158.5 16.5t105.5 14.5q33 0 52.5 -19t19.5 -55q0 -35 -19.5 -54.5t-52.5 -19.5q-23 0 -72.5 20.5t-86.5 24.5q121 -81 121 -235v-2q0 -71 -22.5 -126.5t-59 -89.5t-87.5 -55.5t-102 -30t-108 -8.5h-127q-44 0 -68 -17t-24 -48q0 -59 86 -62
l274 -12q165 -7 236 -70.5t71 -191.5v-2q0 -64 -23 -112.5t-61.5 -78.5t-96 -48.5t-119 -25.5t-138.5 -7q-445 0 -445 239v2q0 71 60.5 120.5t146.5 62.5q-116 33 -116 139q0 126 168 155q-89 18 -144 92.5t-55 198.5v2q0 79 31.5 140.5t84.5 97.5t116 54t132 18zM455 459
q211 0 211 215v37q0 54 -18.5 93.5t-50 60t-66.5 29.5t-76 9q-40 0 -74.5 -9t-65.5 -29.5t-49 -60t-18 -93.5v-37q0 -54 13 -94t32.5 -62.5t48.5 -36t55 -18t58 -4.5zM459 -217q158 0 225.5 40.5t67.5 123.5v2q0 63 -37 93t-133 34l-197 8q-110 4 -158.5 -31t-48.5 -110v-2
q0 -82 63 -120t218 -38zM625 1378h73q6 -50 -5 -98.5t-37.5 -89t-75.5 -65.5t-113 -25q-84 0 -139.5 42.5t-75.5 104t-12 131.5h73q-3 -64 33 -104.5t121 -40.5t122.5 41t35.5 104z" />
    <glyph glyph-name="Gdotaccent" unicode="&#x120;" horiz-adv-x="1331" 
d="M682 1337q224 0 330 -151q7 36 17 67t16 43l6 13h86v-379h-119q-13 156 -93.5 225.5t-236.5 69.5q-105 0 -184 -39.5t-125.5 -110t-69 -160.5t-22.5 -200v-82q0 -545 403 -545q189 0 301 90v260q0 62 -18 78t-88 16h-62v103h467v-103h-14q-63 0 -85 -20.5t-22 -87.5v-424
h-86q-23 25 -39 127q-120 -158 -366 -158q-263 0 -419.5 180t-156.5 510v5q0 310 157 491.5t423 181.5zM657 1417q-46 0 -79 32.5t-33 78.5t33 79t79 33t79.5 -33t33.5 -79t-33.5 -78.5t-79.5 -32.5z" />
    <glyph glyph-name="gdotaccent" unicode="&#x121;" horiz-adv-x="968" 
d="M444 1006q84 0 164 -27q71 2 158.5 16.5t105.5 14.5q33 0 52.5 -19t19.5 -55q0 -35 -19.5 -54.5t-52.5 -19.5q-23 0 -72.5 20.5t-86.5 24.5q121 -81 121 -235v-2q0 -71 -22.5 -126.5t-59 -89.5t-87.5 -55.5t-102 -30t-108 -8.5h-127q-44 0 -68 -17t-24 -48q0 -59 86 -62
l274 -12q165 -7 236 -70.5t71 -191.5v-2q0 -64 -23 -112.5t-61.5 -78.5t-96 -48.5t-119 -25.5t-138.5 -7q-445 0 -445 239v2q0 71 60.5 120.5t146.5 62.5q-116 33 -116 139q0 126 168 155q-89 18 -144 92.5t-55 198.5v2q0 79 31.5 140.5t84.5 97.5t116 54t132 18zM455 459
q211 0 211 215v37q0 54 -18.5 93.5t-50 60t-66.5 29.5t-76 9q-40 0 -74.5 -9t-65.5 -29.5t-49 -60t-18 -93.5v-37q0 -54 13 -94t32.5 -62.5t48.5 -36t55 -18t58 -4.5zM459 -217q158 0 225.5 40.5t67.5 123.5v2q0 63 -37 93t-133 34l-197 8q-110 4 -158.5 -31t-48.5 -110v-2
q0 -82 63 -120t218 -38zM467 1128q-46 0 -79.5 32.5t-33.5 78.5t33.5 79.5t79.5 33.5t79.5 -33.5t33.5 -79.5t-33.5 -78.5t-79.5 -32.5z" />
    <glyph glyph-name="Gcommaaccent" unicode="&#x122;" horiz-adv-x="1331" 
d="M682 1337q224 0 330 -151q7 36 17 67t16 43l6 13h86v-379h-119q-13 156 -93.5 225.5t-236.5 69.5q-105 0 -184 -39.5t-125.5 -110t-69 -160.5t-22.5 -200v-82q0 -545 403 -545q189 0 301 90v260q0 62 -18 78t-88 16h-62v103h467v-103h-14q-63 0 -85 -20.5t-22 -87.5v-424
h-86q-23 25 -39 127q-120 -158 -366 -158q-263 0 -419.5 180t-156.5 510v5q0 310 157 491.5t423 181.5zM582 -178q0 -42 22 -68.5t66 -27.5q-21 -54 -103 -74v-55q105 15 162 64t57 130q0 59 -29.5 90t-76.5 31q-37 0 -67.5 -27t-30.5 -63z" />
    <glyph glyph-name="gcommaaccent" unicode="&#x123;" horiz-adv-x="968" 
d="M444 1006q84 0 164 -27q71 2 158.5 16.5t105.5 14.5q33 0 52.5 -19t19.5 -55q0 -35 -19.5 -54.5t-52.5 -19.5q-23 0 -72.5 20.5t-86.5 24.5q121 -81 121 -235v-2q0 -71 -22.5 -126.5t-59 -89.5t-87.5 -55.5t-102 -30t-108 -8.5h-127q-44 0 -68 -17t-24 -48q0 -59 86 -62
l274 -12q165 -7 236 -70.5t71 -191.5v-2q0 -64 -23 -112.5t-61.5 -78.5t-96 -48.5t-119 -25.5t-138.5 -7q-445 0 -445 239v2q0 71 60.5 120.5t146.5 62.5q-116 33 -116 139q0 126 168 155q-89 18 -144 92.5t-55 198.5v2q0 79 31.5 140.5t84.5 97.5t116 54t132 18zM455 459
q211 0 211 215v37q0 54 -18.5 93.5t-50 60t-66.5 29.5t-76 9q-40 0 -74.5 -9t-65.5 -29.5t-49 -60t-18 -93.5v-37q0 -54 13 -94t32.5 -62.5t48.5 -36t55 -18t58 -4.5zM459 -217q158 0 225.5 40.5t67.5 123.5v2q0 63 -37 93t-133 34l-197 8q-110 4 -158.5 -31t-48.5 -110v-2
q0 -82 63 -120t218 -38zM557 1217q0 -36 -30.5 -63.5t-67.5 -27.5q-47 0 -77 31t-30 90q0 82 57 131t162 64v-56q-83 -20 -104 -73q45 -1 67.5 -27.5t22.5 -68.5z" />
    <glyph glyph-name="Hcircumflex" unicode="&#x124;" horiz-adv-x="1464" 
d="M1053 612h-641v-426q0 -59 27 -76.5t100 -17.5h90v-92h-578v92h76q58 0 82 21.5t24 87.5v897q0 65 -24 86.5t-82 21.5h-76v103h578v-103h-90q-73 0 -100 -17.5t-27 -76.5v-391h641v391q0 59 -27 76.5t-100 17.5h-90v103h577v-103h-76q-58 0 -82 -21.5t-24 -86.5v-897
q0 -66 24 -87.5t82 -21.5h76v-92h-577v92h90q73 0 100 17.5t27 76.5v426zM956 1413l-223 84l-223 -84l-45 45l223 203h90l223 -203z" />
    <glyph glyph-name="hcircumflex" unicode="&#x125;" horiz-adv-x="1183" 
d="M1016 670v-508q0 -47 20.5 -64.5t91.5 -17.5h21v-80h-461v80h49q66 0 86.5 13t20.5 61v548q0 177 -193 177q-131 0 -218 -91t-87 -245v-389q0 -46 19.5 -60t87.5 -14h49v-80h-463v80h49q54 0 70 17t16 71v995q0 74 -23.5 95.5t-97.5 21.5h-14v98h307v-665
q24 138 122.5 215.5t229.5 77.5q146 0 232 -86.5t86 -249.5zM850 1454l-223 84l-224 -84l-45 45l224 203h90l223 -203z" />
    <glyph glyph-name="Hbar" unicode="&#x126;" horiz-adv-x="1464" 
d="M31 918v108h202v72q0 65 -24 86.5t-82 21.5h-76v103h578v-103h-90q-73 0 -100 -17.5t-27 -76.5v-86h641v86q0 59 -27 76.5t-100 17.5h-90v103h577v-103h-76q-58 0 -82 -21.5t-24 -86.5v-72h203v-108h-203v-717q0 -66 24 -87.5t82 -21.5h76v-92h-577v92h90q73 0 100 17.5
t27 76.5v426h-641v-426q0 -59 27 -76.5t100 -17.5h90v-92h-578v92h76q58 0 82 21.5t24 87.5v717h-202zM412 721h641v197h-641v-197z" />
    <glyph glyph-name="hbar" unicode="&#x127;" horiz-adv-x="1183" 
d="M35 1116v103h139v159h172v-159h332v-103h-332v-403q24 138 122.5 215.5t229.5 77.5q146 0 232 -86.5t86 -249.5v-508q0 -47 20.5 -64.5t91.5 -17.5h21v-80h-461v80h49q66 0 86.5 13t20.5 61v548q0 177 -193 177q-131 0 -218 -91t-87 -245v-389q0 -46 19.5 -60t87.5 -14
h49v-80h-463v80h49q54 0 70 17t16 71v948h-139z" />
    <glyph glyph-name="Itilde" unicode="&#x128;" horiz-adv-x="665" 
d="M614 0h-563v92h86q58 0 82.5 22t24.5 87v897q0 65 -24.5 86.5t-82.5 21.5h-86v103h563v-103h-86q-58 0 -82 -21.5t-24 -86.5v-897q0 -66 24 -87.5t82 -21.5h86v-92zM80 1405q-8 59 -1 109t43.5 83t96.5 33q46 0 91.5 -20t84.5 -40t70 -20q33 0 45.5 21t15.5 67h62
q8 -59 2.5 -109t-38 -83t-87.5 -33q-48 0 -131.5 40t-124.5 40q-37 0 -50 -20.5t-18 -67.5h-61z" />
    <glyph glyph-name="itilde" unicode="&#x129;" horiz-adv-x="540" 
d="M504 0h-463v80h57q54 0 70 17t16 71v598q0 74 -23.5 95.5t-97.5 21.5h-22v98h315v-813q0 -57 19 -72.5t88 -15.5h41v-80zM-23 1145q-8 59 -1 109t44 83t97 33q46 0 91.5 -20t84 -40t69.5 -20q33 0 46 21.5t16 66.5h61q8 -59 2.5 -109t-38 -83t-87.5 -33q-48 0 -131.5 40
t-124.5 40q-37 0 -49.5 -20.5t-17.5 -67.5h-62z" />
    <glyph glyph-name="Imacron" unicode="&#x12a;" horiz-adv-x="665" 
d="M614 0h-563v92h86q58 0 82.5 22t24.5 87v897q0 65 -24.5 86.5t-82.5 21.5h-86v103h563v-103h-86q-58 0 -82 -21.5t-24 -86.5v-897q0 -66 24 -87.5t82 -21.5h86v-92zM92 1452v94h483v-94h-483z" />
    <glyph glyph-name="imacron" unicode="&#x12b;" horiz-adv-x="540" 
d="M25 1171v95h419v-95h-419zM504 0h-463v80h57q54 0 70 17t16 71v598q0 74 -23.5 95.5t-97.5 21.5h-22v98h315v-813q0 -57 19 -72.5t88 -15.5h41v-80z" />
    <glyph glyph-name="Ibreve" unicode="&#x12c;" horiz-adv-x="665" 
d="M614 0h-563v92h86q58 0 82.5 22t24.5 87v897q0 65 -24.5 86.5t-82.5 21.5h-86v103h563v-103h-86q-58 0 -82 -21.5t-24 -86.5v-897q0 -66 24 -87.5t82 -21.5h86v-92zM477 1618h80q8 -97 -50 -167.5t-173 -70.5t-173 70.5t-50 167.5h79q3 -46 39 -75.5t105 -29.5
t104.5 29.5t38.5 75.5z" />
    <glyph glyph-name="ibreve" unicode="&#x12d;" horiz-adv-x="540" 
d="M504 0h-463v80h57q54 0 70 17t16 71v598q0 74 -23.5 95.5t-97.5 21.5h-22v98h315v-813q0 -57 19 -72.5t88 -15.5h41v-80zM387 1378h74q8 -69 -12.5 -130.5t-78 -104.5t-141.5 -43t-139.5 42.5t-75.5 104t-12 131.5h74q-3 -64 32.5 -104.5t120.5 -40.5t122.5 41t35.5 104z
" />
    <glyph glyph-name="Iogonek" unicode="&#x12e;" horiz-adv-x="665" 
d="M614 0h-39q-88 -3 -143 -47.5t-55 -97.5q0 -60 69 -60q32 0 70 17v-52q-11 -31 -44 -54t-87 -23q-63 0 -103 39.5t-40 93.5q0 68 47.5 118t101.5 66h-340v92h86q58 0 82.5 22t24.5 87v897q0 65 -24.5 86.5t-82.5 21.5h-86v103h563v-103h-86q-58 0 -82 -21.5t-24 -86.5
v-897q0 -66 24 -87.5t82 -21.5h86v-92z" />
    <glyph glyph-name="iogonek" unicode="&#x12f;" horiz-adv-x="540" 
d="M356 981v-813q0 -57 19 -72.5t88 -15.5h41v-80h-12q-71 -1 -122 -45.5t-51 -99.5q0 -60 70 -60q32 0 70 17v-52q-11 -31 -44 -54t-87 -23q-63 0 -103.5 39.5t-40.5 93.5q0 47 30 87t66.5 62t77.5 35h-317v80h57q54 0 70 17t16 71v598q0 74 -23.5 95.5t-97.5 21.5h-22v98
h315zM250 1135q-46 0 -79.5 32.5t-33.5 77.5q0 46 33.5 79.5t79.5 33.5t79 -33.5t33 -79.5t-33 -78t-79 -32z" />
    <glyph glyph-name="Idotaccent" unicode="&#x130;" horiz-adv-x="665" 
d="M614 0h-563v92h86q58 0 82.5 22t24.5 87v897q0 65 -24.5 86.5t-82.5 21.5h-86v103h563v-103h-86q-58 0 -82 -21.5t-24 -86.5v-897q0 -66 24 -87.5t82 -21.5h86v-92zM334 1417q-46 0 -79.5 32.5t-33.5 78.5t33.5 79t79.5 33t79 -33t33 -79t-33 -78.5t-79 -32.5z" />
    <glyph glyph-name="dotlessi" unicode="&#x131;" horiz-adv-x="540" 
d="M504 0h-463v80h57q54 0 70 17t16 71v598q0 74 -23.5 95.5t-97.5 21.5h-22v98h315v-813q0 -57 19 -72.5t88 -15.5h41v-80z" />
    <glyph glyph-name="IJ" unicode="&#x132;" horiz-adv-x="1425" 
d="M852 143v-71q82 11 126 77t44 209v754q0 59 -27 76.5t-100 17.5h-61v103h540v-103h-67q-58 0 -82.5 -21.5t-24.5 -86.5v-756q0 -176 -89 -272.5t-243 -96.5q-112 0 -170.5 49t-58.5 125q0 59 29.5 93t74.5 34q109 0 109 -131zM614 0h-563v92h86q58 0 82.5 22t24.5 87v897
q0 65 -24.5 86.5t-82.5 21.5h-86v103h563v-103h-86q-58 0 -82 -21.5t-24 -86.5v-897q0 -66 24 -87.5t82 -21.5h86v-92z" />
    <glyph glyph-name="ij" unicode="&#x133;" horiz-adv-x="1071" 
d="M582 -156v-67q15 -6 43 -6q50 0 70 35t20 114v846q0 74 -23.5 95.5t-97.5 21.5h-23v98h316v-1049q0 -123 -69 -184t-187 -61q-102 0 -163.5 45.5t-61.5 115.5q0 38 26.5 62t67.5 24t61.5 -24t20.5 -66zM356 981v-813q0 -57 19 -72.5t88 -15.5h41v-80h-463v80h57
q54 0 70 17t16 71v598q0 74 -23.5 95.5t-97.5 21.5h-22v98h315zM250 1135q-46 0 -79.5 32.5t-33.5 77.5q0 46 33.5 79.5t79.5 33.5t79 -33.5t33 -79.5t-33 -78t-79 -32zM780 1135q-46 0 -79 32t-33 78t33 79.5t79 33.5t79.5 -33.5t33.5 -79.5q0 -45 -33.5 -77.5t-79.5 -32.5
z" />
    <glyph glyph-name="Jcircumflex" unicode="&#x134;" horiz-adv-x="923" 
d="M258 143v-69q24 -4 47 -4q105 0 160 64.5t55 223.5v754q0 59 -27 76.5t-100 17.5h-61v103h540v-103h-67q-58 0 -82.5 -21.5t-24.5 -86.5v-756q0 -179 -95 -274t-277 -95q-129 0 -205 53t-76 144q0 42 30.5 73t74.5 31q108 0 108 -131zM831 1393l-223 84l-223 -84l-45 45
l223 202h90l224 -202z" />
    <glyph glyph-name="jcircumflex" unicode="&#x135;" horiz-adv-x="518" 
d="M51 -156v-67q15 -6 43 -6q50 0 70 35t20 114v846q0 74 -23.5 95.5t-97.5 21.5h-22v98h315v-1049q0 -123 -69 -184t-187 -61q-102 0 -163.5 45.5t-61.5 115.5q0 38 26.5 62t67.5 24t61.5 -24t20.5 -66zM465 1085l-223 132l-224 -132l-38 45l217 261h90l217 -261z" />
    <glyph glyph-name="Kcommaaccent" unicode="&#x136;" horiz-adv-x="1355" 
d="M877 190l-465 465v-469q0 -59 27 -76.5t100 -17.5h90v-92h-578v92h76q58 0 82 21.5t24 87.5v897q0 65 -24 86.5t-82 21.5h-76v103h578v-103h-90q-73 0 -100 -17.5t-27 -76.5v-446l489 434q32 29 41.5 53t-7.5 38.5t-61 14.5h-73v103h495v-103h-43q-56 0 -92 -20t-108 -84
l-457 -402l508 -507q30 -29 43.5 -41t39 -29.5t50.5 -24t57 -6.5h21v-92h-527v92h68q44 0 51 30.5t-30 67.5zM621 -178q0 -42 22 -68.5t66 -27.5q-21 -54 -103 -74v-55q105 15 162 64t57 130q0 59 -29.5 90t-76.5 31q-37 0 -67.5 -27t-30.5 -63z" />
    <glyph glyph-name="kcommaaccent" unicode="&#x137;" horiz-adv-x="1085" 
d="M1051 0h-428v80h39q50 0 55 24.5t-39 67.5l-332 330v-348q0 -46 19.5 -60t87.5 -14h49v-80h-463v80h49q54 0 70 17t16 71v995q0 74 -23.5 95.5t-97.5 21.5h-14v98h307v-868l313 295q36 34 28 56t-50 22h-70v98h432v-98h-38q-51 0 -85.5 -16.5t-95.5 -71.5l-270 -248
l385 -373q66 -64 89.5 -79t62.5 -15h4v-80zM465 -178q0 -42 22 -68.5t66 -27.5q-21 -54 -102 -74v-55q105 15 162 64t57 130q0 59 -30 90t-77 31q-37 0 -67.5 -27t-30.5 -63z" />
    <glyph glyph-name="Lacute" unicode="&#x139;" horiz-adv-x="1153" 
d="M51 0v92h76q58 0 82 21.5t24 87.5v897q0 65 -24 86.5t-82 21.5h-76v103h578v-103h-90q-73 0 -100 -17.5t-27 -76.5v-1008h309q76 0 119.5 10.5t71.5 43t37 84t9 141.5v35h113v-418h-1020zM301 1382l-33 31l101 189q23 44 48 62.5t62 18.5q38 0 63 -26t25 -66
q0 -66 -82 -108z" />
    <glyph glyph-name="lacute" unicode="&#x13a;" horiz-adv-x="540" 
d="M504 0h-455v80h49q54 0 70 17t16 71v995q0 74 -23.5 95.5t-97.5 21.5h-14v98h307v-1202q0 -63 19 -79.5t88 -16.5h41v-80zM203 1450l-33 31l100 188q23 44 48.5 63t62.5 19q38 0 63 -26t25 -66q0 -67 -82 -109z" />
    <glyph glyph-name="Lcommaaccent" unicode="&#x13b;" horiz-adv-x="1153" 
d="M51 0v92h76q58 0 82 21.5t24 87.5v897q0 65 -24 86.5t-82 21.5h-76v103h578v-103h-90q-73 0 -100 -17.5t-27 -76.5v-1008h309q76 0 119.5 10.5t71.5 43t37 84t9 141.5v35h113v-418h-1020zM526 -178q0 -42 22 -68.5t66 -27.5q-21 -54 -102 -74v-55q105 15 162 64t57 130
q0 59 -29.5 90t-76.5 31q-38 0 -68.5 -27t-30.5 -63z" />
    <glyph glyph-name="lcommaaccent" unicode="&#x13c;" horiz-adv-x="540" 
d="M504 0h-455v80h49q54 0 70 17t16 71v995q0 74 -23.5 95.5t-97.5 21.5h-14v98h307v-1202q0 -63 19 -79.5t88 -16.5h41v-80zM180 -178q0 -42 22 -68.5t66 -27.5q-21 -54 -102 -74v-55q105 15 162 64t57 130q0 59 -29.5 90t-76.5 31q-38 0 -68.5 -27t-30.5 -63z" />
    <glyph glyph-name="Lcaron" unicode="&#x13d;" horiz-adv-x="1153" 
d="M51 0v92h76q58 0 82 21.5t24 87.5v897q0 65 -24 86.5t-82 21.5h-76v103h578v-103h-90q-73 0 -100 -17.5t-27 -76.5v-1008h309q76 0 119.5 10.5t71.5 43t37 84t9 141.5v35h113v-418h-1020zM809 1047h-74v194q0 51 23 81t65 30q48 0 68.5 -39.5t-6.5 -102.5z" />
    <glyph glyph-name="lcaron" unicode="&#x13e;" horiz-adv-x="540" 
d="M504 0h-455v80h49q54 0 70 17t16 71v995q0 74 -23.5 95.5t-97.5 21.5h-14v98h307v-1202q0 -63 19 -79.5t88 -16.5h41v-80zM500 1108h-74v195q0 50 23 80t65 30q48 0 68 -39t-7 -102z" />
    <glyph glyph-name="Ldot" unicode="&#x13f;" horiz-adv-x="1153" 
d="M924 582q-48 0 -84.5 34.5t-36.5 83.5t36.5 85t84.5 36q51 0 85.5 -35.5t34.5 -85.5t-34.5 -84t-85.5 -34zM51 0v92h76q58 0 82 21.5t24 87.5v897q0 65 -24 86.5t-82 21.5h-76v103h578v-103h-90q-73 0 -100 -17.5t-27 -76.5v-1008h309q76 0 119.5 10.5t71.5 43t37 84
t9 141.5v35h113v-418h-1020z" />
    <glyph glyph-name="ldot" unicode="&#x140;" horiz-adv-x="688" 
d="M596 559q-48 0 -84.5 35t-36.5 84t36.5 85t84.5 36q51 0 86 -35.5t35 -85.5t-35 -84.5t-86 -34.5zM504 0h-455v80h49q54 0 70 17t16 71v995q0 74 -23.5 95.5t-97.5 21.5h-14v98h307v-1202q0 -63 19 -79.5t88 -16.5h41v-80z" />
    <glyph glyph-name="Lslash" unicode="&#x141;" horiz-adv-x="1153" 
d="M51 0v92h76q58 0 82 21.5t24 87.5v260l-188 -107v111l188 106v527q0 65 -24 86.5t-82 21.5h-76v103h578v-103h-90q-73 0 -100 -17.5t-27 -76.5v-438l381 217v-111l-381 -217v-459h309q76 0 119.5 10.5t71.5 43t37 84t9 141.5v35h113v-418h-1020z" />
    <glyph glyph-name="lslash" unicode="&#x142;" horiz-adv-x="561" 
d="M514 0h-455v80h50q54 0 70 17t16 71v455l-134 -101v107l134 100v434q0 74 -23.5 95.5t-97.5 21.5h-15v98h308v-518l135 103v-107l-135 -102v-578q0 -63 18.5 -79.5t87.5 -16.5h41v-80z" />
    <glyph glyph-name="Nacute" unicode="&#x143;" horiz-adv-x="1435" 
d="M1225 1098v-1098h-224l-643 1219v-1033q0 -59 27 -76.5t100 -17.5h90v-92h-524v92h76q58 0 82 21.5t24 87.5v897q0 65 -24 86.5t-82 21.5h-76v103h461l588 -1143v946q0 59 -27 76.5t-100 17.5h-90v103h512v-103h-64q-58 0 -82 -21.5t-24 -86.5zM649 1382l-33 31l101 189
q23 44 48 62.5t62 18.5q38 0 63 -26t25 -66t-22 -64.5t-59 -43.5z" />
    <glyph glyph-name="nacute" unicode="&#x144;" horiz-adv-x="1183" 
d="M1016 670v-508q0 -47 20.5 -64.5t91.5 -17.5h21v-80h-461v80h49q66 0 86.5 13t20.5 61v548q0 177 -193 177q-131 0 -218 -91t-87 -245v-389q0 -46 19.5 -60t87.5 -14h49v-80h-463v80h49q54 0 70 17t16 71v598q0 74 -23.5 95.5t-97.5 21.5h-14v98h278q29 -117 29 -240v-28
q24 138 122.5 215.5t229.5 77.5q146 0 232 -86.5t86 -249.5zM477 1083l-37 37l133 211q33 51 58 72.5t65 21.5q43 0 66.5 -25t23.5 -65q0 -38 -20 -62t-57 -48z" />
    <glyph glyph-name="Ncommaaccent" unicode="&#x145;" horiz-adv-x="1435" 
d="M1225 1098v-1098h-224l-643 1219v-1033q0 -59 27 -76.5t100 -17.5h90v-92h-524v92h76q58 0 82 21.5t24 87.5v897q0 65 -24 86.5t-82 21.5h-76v103h461l588 -1143v946q0 59 -27 76.5t-100 17.5h-90v103h512v-103h-64q-58 0 -82 -21.5t-24 -86.5zM645 -178q0 -42 22 -68.5
t66 -27.5q-21 -54 -102 -74v-55q105 15 162 64t57 130q0 59 -30 90t-77 31q-37 0 -67.5 -27t-30.5 -63z" />
    <glyph glyph-name="ncommaaccent" unicode="&#x146;" horiz-adv-x="1183" 
d="M1016 670v-508q0 -47 20.5 -64.5t91.5 -17.5h21v-80h-461v80h49q66 0 86.5 13t20.5 61v548q0 177 -193 177q-131 0 -218 -91t-87 -245v-389q0 -46 19.5 -60t87.5 -14h49v-80h-463v80h49q54 0 70 17t16 71v598q0 74 -23.5 95.5t-97.5 21.5h-14v98h278q29 -117 29 -240v-28
q24 138 122.5 215.5t229.5 77.5q146 0 232 -86.5t86 -249.5zM498 -178q0 -42 22 -68.5t66 -27.5q-21 -54 -103 -74v-55q105 15 162 64t57 130q0 59 -29.5 90t-76.5 31q-37 0 -67.5 -27t-30.5 -63z" />
    <glyph glyph-name="Ncaron" unicode="&#x147;" horiz-adv-x="1435" 
d="M1225 1098v-1098h-224l-643 1219v-1033q0 -59 27 -76.5t100 -17.5h90v-92h-524v92h76q58 0 82 21.5t24 87.5v897q0 65 -24 86.5t-82 21.5h-76v103h461l588 -1143v946q0 59 -27 76.5t-100 17.5h-90v103h512v-103h-64q-58 0 -82 -21.5t-24 -86.5zM489 1595l46 45l223 -84
l223 84l45 -45l-223 -202h-90z" />
    <glyph glyph-name="ncaron" unicode="&#x148;" horiz-adv-x="1183" 
d="M1016 670v-508q0 -47 20.5 -64.5t91.5 -17.5h21v-80h-461v80h49q66 0 86.5 13t20.5 61v548q0 177 -193 177q-131 0 -218 -91t-87 -245v-389q0 -46 19.5 -60t87.5 -14h49v-80h-463v80h49q54 0 70 17t16 71v598q0 74 -23.5 95.5t-97.5 21.5h-14v98h278q29 -117 29 -240v-28
q24 138 122.5 215.5t229.5 77.5q146 0 232 -86.5t86 -249.5zM311 1364l39 45l223 -133l224 133l39 -45l-218 -260h-90z" />
    <glyph glyph-name="napostrophe" unicode="&#x149;" horiz-adv-x="1323" 
d="M1155 670v-508q0 -47 21 -64.5t92 -17.5h20v-80h-461v80h50q65 0 85.5 13t20.5 61v548q0 90 -47.5 133.5t-144.5 43.5q-132 0 -219 -91t-87 -245v-389q0 -46 19.5 -60t87.5 -14h49v-80h-463v80h49q54 0 70 17t16 71v598q0 74 -23.5 95.5t-96.5 21.5h-15v98h279
q28 -117 28 -240v-28q24 138 123 215.5t230 77.5q146 0 231.5 -86.5t85.5 -249.5zM-109 1210q0 49 33.5 81t83.5 32q52 0 88.5 -41.5t36.5 -114.5q0 -115 -62.5 -189.5t-181.5 -92.5v71q53 13 85 51.5t38 90.5q-59 -3 -90 29.5t-31 82.5z" />
    <glyph glyph-name="Eng" unicode="&#x14a;" horiz-adv-x="1435" 
d="M809 -145v-72q11 0 33 -1t30 -1q88 0 149 54t75 165h-95l-643 1219v-1033q0 -59 27 -76.5t100 -17.5h90v-92h-524v92h76q58 0 82 21.5t24 87.5v897q0 65 -24 86.5t-82 21.5h-76v103h461l588 -1143v946q0 59 -27 76.5t-100 17.5h-90v103h512v-103h-64q-58 0 -82 -21.5
t-24 -86.5v-1026q0 -183 -92 -285t-267 -102q-127 0 -198.5 51.5t-71.5 134.5q0 53 29.5 84t74.5 31q109 0 109 -131z" />
    <glyph glyph-name="eng" unicode="&#x14b;" horiz-adv-x="1159" 
d="M1016 670v-697q0 -150 -69.5 -219t-188.5 -69q-103 0 -163 46t-60 117q0 38 26.5 62t67.5 24t61.5 -24t20.5 -66v-71q12 -4 26 -4q107 0 107 141v792q0 177 -193 177q-131 0 -218 -91t-87 -245v-389q0 -46 19.5 -60t87.5 -14h49v-80h-463v80h49q54 0 70 17t16 71v598
q0 74 -23.5 95.5t-97.5 21.5h-14v98h278q29 -117 29 -240v-28q24 138 122.5 215.5t229.5 77.5q146 0 232 -86.5t86 -249.5z" />
    <glyph glyph-name="Omacron" unicode="&#x14c;" horiz-adv-x="1396" 
d="M698 -31q-131 0 -239.5 43.5t-188 127.5t-124 216t-44.5 301v5q0 313 155 494t441 181t441 -181t155 -494v-5q0 -169 -43.5 -300.5t-123 -216t-188.5 -128t-241 -43.5zM698 86q206 0 309 135.5t103 417.5v66q0 244 -101 382t-311 138t-310.5 -138t-100.5 -382v-66
q0 -281 102.5 -417t308.5 -136zM455 1452v94h483v-94h-483z" />
    <glyph glyph-name="omacron" unicode="&#x14d;" horiz-adv-x="1101" 
d="M551 -23q-97 0 -181 33t-148.5 96t-102 165t-37.5 231v2q0 228 129 365t340 137t340 -136.5t129 -363.5v-2q0 -130 -37.5 -232t-102 -165.5t-148.5 -96.5t-181 -33zM551 86q285 0 285 389v78q0 167 -75 254.5t-210 87.5t-210 -87.5t-75 -254.5v-78q0 -389 285 -389z
M311 1171v95h484v-95h-484z" />
    <glyph glyph-name="Obreve" unicode="&#x14e;" horiz-adv-x="1396" 
d="M698 -31q-131 0 -239.5 43.5t-188 127.5t-124 216t-44.5 301v5q0 313 155 494t441 181t441 -181t155 -494v-5q0 -169 -43.5 -300.5t-123 -216t-188.5 -128t-241 -43.5zM698 86q206 0 309 135.5t103 417.5v66q0 244 -101 382t-311 138t-310.5 -138t-100.5 -382v-66
q0 -281 102.5 -417t308.5 -136zM840 1618h80q8 -97 -50.5 -167.5t-173.5 -70.5t-173 70.5t-50 167.5h80q3 -46 38.5 -75.5t104.5 -29.5t105 29.5t39 75.5z" />
    <glyph glyph-name="obreve" unicode="&#x14f;" horiz-adv-x="1101" 
d="M551 -23q-97 0 -181 33t-148.5 96t-102 165t-37.5 231v2q0 228 129 365t340 137t340 -136.5t129 -363.5v-2q0 -130 -37.5 -232t-102 -165.5t-148.5 -96.5t-181 -33zM551 86q285 0 285 389v78q0 167 -75 254.5t-210 87.5t-210 -87.5t-75 -254.5v-78q0 -389 285 -389z
M709 1378h73q6 -50 -5 -98.5t-37.5 -89t-75.5 -65.5t-113 -25q-84 0 -139.5 42.5t-75.5 104t-12 131.5h73q-3 -64 33 -104.5t121 -40.5t122.5 41t35.5 104z" />
    <glyph glyph-name="Ohungarumlaut" unicode="&#x150;" horiz-adv-x="1396" 
d="M698 -31q-131 0 -239.5 43.5t-188 127.5t-124 216t-44.5 301v5q0 313 155 494t441 181t441 -181t155 -494v-5q0 -169 -43.5 -300.5t-123 -216t-188.5 -128t-241 -43.5zM698 86q206 0 309 135.5t103 417.5v66q0 244 -101 382t-311 138t-310.5 -138t-100.5 -382v-66
q0 -281 102.5 -417t308.5 -136zM836 1403h-62l55 182q15 48 38 73t63 25q39 0 60.5 -22.5t21.5 -56.5q0 -57 -51 -99zM549 1403h-62l56 182q15 49 37.5 73.5t62.5 24.5q39 0 60.5 -22.5t21.5 -56.5q0 -57 -51 -99z" />
    <glyph glyph-name="ohungarumlaut" unicode="&#x151;" horiz-adv-x="1101" 
d="M551 -23q-97 0 -181 33t-148.5 96t-102 165t-37.5 231v2q0 228 129 365t340 137t340 -136.5t129 -363.5v-2q0 -130 -37.5 -232t-102 -165.5t-148.5 -96.5t-181 -33zM551 86q285 0 285 389v78q0 167 -75 254.5t-210 87.5t-210 -87.5t-75 -254.5v-78q0 -389 285 -389z
M723 1104h-70l52 205q15 58 38.5 87t67.5 29q41 0 64.5 -24.5t23.5 -61.5q0 -52 -51 -106zM426 1104h-70l52 205q15 58 38.5 87t67.5 29q41 0 64.5 -24.5t23.5 -61.5q0 -52 -51 -106z" />
    <glyph glyph-name="OE" unicode="&#x152;" horiz-adv-x="1837" 
d="M1735 389v-389h-1037q-296 0 -446 174t-150 500v4q0 299 139 465t418 166h1047v-357h-113v33q0 73 -7.5 113.5t-32 63t-57.5 28.5t-97 6h-357v-479h228q59 0 84 12.5t36 55t11 139.5v20h100v-575h-100v26q0 74 -4.5 114t-20.5 63.5t-39 29.5t-67 6h-228v-504h363
q71 0 109.5 8t65 34.5t34.5 71t8 124.5v47h113zM289 649q0 -266 102.5 -407.5t329.5 -141.5h143v1098h-184q-113 0 -191.5 -34t-121 -100t-60.5 -148t-18 -193v-74z" />
    <glyph glyph-name="oe" unicode="&#x153;" horiz-adv-x="1808" 
d="M551 -23q-97 0 -181 33t-148.5 96t-102 165t-37.5 231v2q0 228 129 365t340 137q137 0 234 -61t149 -173q51 110 145.5 172t223.5 62q106 0 186 -33t126 -90.5t68.5 -128.5t22.5 -154q0 -73 -14 -139h-666q4 -198 88.5 -282.5t263.5 -84.5q87 0 171 23t130 55v-82
q-40 -43 -129.5 -78t-214.5 -35q-302 0 -405 234q-53 -116 -151 -175t-228 -59zM551 86q285 0 285 389v78q0 167 -75 254.5t-210 87.5t-210 -87.5t-75 -254.5v-78q0 -389 285 -389zM1303 899q-127 0 -200.5 -86.5t-76.5 -253.5h518v29q0 311 -241 311z" />
    <glyph glyph-name="Racute" unicode="&#x154;" horiz-adv-x="1282" 
d="M774 627v-6q118 -16 168.5 -67.5t75.5 -156.5l51 -213q23 -96 105 -96q48 0 88 16v-63q-45 -64 -156 -64q-200 0 -225 226l-23 190q-11 95 -62 135.5t-171 40.5h-213v-383q0 -59 27 -76.5t100 -17.5h90v-92h-578v92h76q58 0 82 21.5t24 87.5v897q0 65 -24 86.5t-82 21.5
h-76v103h625q208 0 315 -91.5t107 -256.5q0 -142 -91.5 -228t-232.5 -106zM412 678h235q147 0 206.5 69.5t59.5 208.5q0 128 -56 185t-202 57h-243v-520zM520 1382l-33 31l101 189q23 44 48 62.5t62 18.5q38 0 63 -26t25 -66t-22 -64.5t-59 -43.5z" />
    <glyph glyph-name="racute" unicode="&#x155;" horiz-adv-x="831" 
d="M537 0h-498v80h49q54 0 70 17t16 71v598q0 74 -23.5 95.5t-97.5 21.5h-14v98h278q29 -117 29 -240v-49q14 80 47 141.5t76 95t86.5 50t85.5 16.5q61 0 95 -31t34 -87q0 -49 -29 -77t-73 -28q-37 0 -63.5 24.5t-33.5 77.5q-91 -9 -158 -146t-67 -308v-244q0 -62 22 -79
t93 -17h76v-80zM317 1083l-36 37l133 211q33 51 58 72.5t65 21.5q43 0 66.5 -25t23.5 -65q0 -38 -20 -62t-58 -48z" />
    <glyph glyph-name="Rcommaaccent" unicode="&#x156;" horiz-adv-x="1282" 
d="M774 627v-6q118 -16 168.5 -67.5t75.5 -156.5l51 -213q23 -96 105 -96q48 0 88 16v-63q-45 -64 -156 -64q-200 0 -225 226l-23 190q-11 95 -62 135.5t-171 40.5h-213v-383q0 -59 27 -76.5t100 -17.5h90v-92h-578v92h76q58 0 82 21.5t24 87.5v897q0 65 -24 86.5t-82 21.5
h-76v103h625q208 0 315 -91.5t107 -256.5q0 -142 -91.5 -228t-232.5 -106zM412 678h235q147 0 206.5 69.5t59.5 208.5q0 128 -56 185t-202 57h-243v-520zM633 -178q0 -42 22 -68.5t66 -27.5q-21 -54 -103 -74v-55q105 15 162.5 64t57.5 130q0 59 -30 90t-77 31
q-37 0 -67.5 -27t-30.5 -63z" />
    <glyph glyph-name="rcommaaccent" unicode="&#x157;" horiz-adv-x="831" 
d="M537 0h-498v80h49q54 0 70 17t16 71v598q0 74 -23.5 95.5t-97.5 21.5h-14v98h278q29 -117 29 -240v-49q14 80 47 141.5t76 95t86.5 50t85.5 16.5q61 0 95 -31t34 -87q0 -49 -29 -77t-73 -28q-37 0 -63.5 24.5t-33.5 77.5q-91 -9 -158 -146t-67 -308v-244q0 -62 22 -79
t93 -17h76v-80zM188 -178q0 -42 22 -68.5t66 -27.5q-21 -54 -102 -74v-55q105 15 162 64t57 130q0 59 -29.5 90t-76.5 31q-38 0 -68.5 -27t-30.5 -63z" />
    <glyph glyph-name="Rcaron" unicode="&#x158;" horiz-adv-x="1282" 
d="M774 627v-6q118 -16 168.5 -67.5t75.5 -156.5l51 -213q23 -96 105 -96q48 0 88 16v-63q-45 -64 -156 -64q-200 0 -225 226l-23 190q-11 95 -62 135.5t-171 40.5h-213v-383q0 -59 27 -76.5t100 -17.5h90v-92h-578v92h76q58 0 82 21.5t24 87.5v897q0 65 -24 86.5t-82 21.5
h-76v103h625q208 0 315 -91.5t107 -256.5q0 -142 -91.5 -228t-232.5 -106zM412 678h235q147 0 206.5 69.5t59.5 208.5q0 128 -56 185t-202 57h-243v-520zM326 1595l45 45l223 -84l223 84l45 -45l-223 -202h-90z" />
    <glyph glyph-name="rcaron" unicode="&#x159;" horiz-adv-x="831" 
d="M537 0h-498v80h49q54 0 70 17t16 71v598q0 74 -23.5 95.5t-97.5 21.5h-14v98h278q29 -117 29 -240v-49q14 80 47 141.5t76 95t86.5 50t85.5 16.5q61 0 95 -31t34 -87q0 -49 -29 -77t-73 -28q-37 0 -63.5 24.5t-33.5 77.5q-91 -9 -158 -146t-67 -308v-244q0 -62 22 -79
t93 -17h76v-80zM152 1364l38 45l224 -133l223 133l39 -45l-217 -260h-90z" />
    <glyph glyph-name="Sacute" unicode="&#x15a;" horiz-adv-x="1132" 
d="M565 96q64 0 119 14t100 42.5t71 77t26 112.5t-21 103.5t-65 68.5q-48 31 -238 74.5t-252 75.5q-90 45 -132 115t-42 184q0 91 34 163t91.5 115t127.5 65.5t148 22.5q212 0 304 -143q6 36 15.5 66.5t16.5 43.5l6 13h87v-340h-123q-38 248 -295 248q-48 0 -92.5 -13
t-83 -39.5t-61.5 -73t-23 -106.5q0 -64 21.5 -101t74.5 -65q59 -33 162 -55.5t201.5 -46.5t156.5 -62q141 -92 141 -290q0 -129 -62 -218t-162.5 -129.5t-231.5 -40.5q-130 0 -219 48.5t-138 126.5q-9 -44 -20.5 -82t-18.5 -54l-8 -16h-88v387h129q43 -291 344 -291z
M502 1382l-33 31l100 189q23 44 48.5 62.5t62.5 18.5q38 0 63 -26t25 -66q0 -66 -82 -108z" />
    <glyph glyph-name="sacute" unicode="&#x15b;" horiz-adv-x="925" 
d="M498 -23q-228 0 -295 150q-5 -40 -15.5 -71.5t-17.5 -43.5l-8 -12h-88v311h112q15 -109 89.5 -167t197.5 -58q109 0 167 48t58 132q0 73 -55 107q-38 23 -190 49.5t-203 50.5q-76 35 -114 95t-38 159q0 133 95 206t229 73q96 0 158 -36t82 -102q5 36 13.5 64t14.5 38
l6 11h90v-279h-104q-21 89 -86.5 141t-165.5 52q-92 0 -139 -37t-47 -123q0 -44 16 -71.5t55 -45.5q52 -23 204 -45.5t210 -60.5q119 -77 119 -236q0 -142 -101.5 -220.5t-248.5 -78.5zM356 1083l-37 37l134 211q33 52 57.5 73t64.5 21q43 0 67 -25t24 -65q0 -38 -20 -62
t-58 -48z" />
    <glyph glyph-name="Scircumflex" unicode="&#x15c;" horiz-adv-x="1132" 
d="M565 96q64 0 119 14t100 42.5t71 77t26 112.5t-21 103.5t-65 68.5q-48 31 -238 74.5t-252 75.5q-90 45 -132 115t-42 184q0 91 34 163t91.5 115t127.5 65.5t148 22.5q212 0 304 -143q6 36 15.5 66.5t16.5 43.5l6 13h87v-340h-123q-38 248 -295 248q-48 0 -92.5 -13
t-83 -39.5t-61.5 -73t-23 -106.5q0 -64 21.5 -101t74.5 -65q59 -33 162 -55.5t201.5 -46.5t156.5 -62q141 -92 141 -290q0 -129 -62 -218t-162.5 -129.5t-231.5 -40.5q-130 0 -219 48.5t-138 126.5q-9 -44 -20.5 -82t-18.5 -54l-8 -16h-88v387h129q43 -291 344 -291z
M799 1393l-224 84l-223 -84l-45 45l223 202h91l223 -202z" />
    <glyph glyph-name="scircumflex" unicode="&#x15d;" horiz-adv-x="925" 
d="M498 -23q-228 0 -295 150q-5 -40 -15.5 -71.5t-17.5 -43.5l-8 -12h-88v311h112q15 -109 89.5 -167t197.5 -58q109 0 167 48t58 132q0 73 -55 107q-38 23 -190 49.5t-203 50.5q-76 35 -114 95t-38 159q0 133 95 206t229 73q96 0 158 -36t82 -102q5 36 13.5 64t14.5 38
l6 11h90v-279h-104q-21 89 -86.5 141t-165.5 52q-92 0 -139 -37t-47 -123q0 -44 16 -71.5t55 -45.5q52 -23 204 -45.5t210 -60.5q119 -77 119 -236q0 -142 -101.5 -220.5t-248.5 -78.5zM684 1085l-223 132l-223 -132l-39 45l217 261h90l217 -261z" />
    <glyph glyph-name="Scedilla" unicode="&#x15e;" horiz-adv-x="1132" 
d="M565 96q64 0 119 14t100 42.5t71 77t26 112.5t-21 103.5t-65 68.5q-48 31 -238 74.5t-252 75.5q-90 45 -132 115t-42 184q0 91 34 163t91.5 115t127.5 65.5t148 22.5q212 0 304 -143q6 36 15.5 66.5t16.5 43.5l6 13h87v-340h-123q-38 248 -295 248q-48 0 -92.5 -13
t-83 -39.5t-61.5 -73t-23 -106.5q0 -64 21.5 -101t74.5 -65q59 -33 162 -55.5t201.5 -46.5t156.5 -62q141 -92 141 -290q0 -129 -62 -218t-162.5 -129.5t-231.5 -40.5q-5 0 -15.5 1.5t-15.5 1.5v-60q170 -16 170 -156q0 -70 -51.5 -108.5t-141.5 -38.5q-100 0 -141 41v61
q50 -20 96 -20q95 0 95 78q0 86 -138 88v131q-145 41 -215 156q-9 -44 -20.5 -82t-18.5 -54l-8 -16h-88v387h129q43 -291 344 -291z" />
    <glyph glyph-name="scedilla" unicode="&#x15f;" horiz-adv-x="925" 
d="M498 -23q-9 0 -26.5 1.5t-25.5 1.5v-60q170 -16 170 -156q0 -70 -51 -108.5t-141 -38.5q-100 0 -141 41v61q50 -20 96 -20q94 0 94 78q0 86 -137 88v137q-94 36 -133 125q-5 -40 -15.5 -71.5t-17.5 -43.5l-8 -12h-88v311h112q15 -109 89.5 -167t197.5 -58q109 0 167 48
t58 132q0 73 -55 107q-38 23 -190 49.5t-203 50.5q-76 35 -114 95t-38 159q0 133 95 206t229 73q96 0 158 -36t82 -102q5 36 13.5 64t14.5 38l6 11h90v-279h-104q-21 89 -86.5 141t-165.5 52q-92 0 -139 -37t-47 -123q0 -44 16 -71.5t55 -45.5q52 -23 204 -45.5t210 -60.5
q119 -77 119 -236q0 -142 -101.5 -220.5t-248.5 -78.5z" />
    <glyph glyph-name="Scaron" unicode="&#x160;" horiz-adv-x="1132" 
d="M565 96q64 0 119 14t100 42.5t71 77t26 112.5t-21 103.5t-65 68.5q-48 31 -238 74.5t-252 75.5q-90 45 -132 115t-42 184q0 91 34 163t91.5 115t127.5 65.5t148 22.5q212 0 304 -143q6 36 15.5 66.5t16.5 43.5l6 13h87v-340h-123q-38 248 -295 248q-48 0 -92.5 -13
t-83 -39.5t-61.5 -73t-23 -106.5q0 -64 21.5 -101t74.5 -65q59 -33 162 -55.5t201.5 -46.5t156.5 -62q141 -92 141 -290q0 -129 -62 -218t-162.5 -129.5t-231.5 -40.5q-130 0 -219 48.5t-138 126.5q-9 -44 -20.5 -82t-18.5 -54l-8 -16h-88v387h129q43 -291 344 -291z
M305 1595l45 45l223 -84l224 84l45 -45l-224 -202h-90z" />
    <glyph glyph-name="scaron" unicode="&#x161;" horiz-adv-x="925" 
d="M498 -23q-228 0 -295 150q-5 -40 -15.5 -71.5t-17.5 -43.5l-8 -12h-88v311h112q15 -109 89.5 -167t197.5 -58q109 0 167 48t58 132q0 73 -55 107q-38 23 -190 49.5t-203 50.5q-76 35 -114 95t-38 159q0 133 95 206t229 73q96 0 158 -36t82 -102q5 36 13.5 64t14.5 38
l6 11h90v-279h-104q-21 89 -86.5 141t-165.5 52q-92 0 -139 -37t-47 -123q0 -44 16 -71.5t55 -45.5q52 -23 204 -45.5t210 -60.5q119 -77 119 -236q0 -142 -101.5 -220.5t-248.5 -78.5zM209 1364l39 45l223 -133l223 133l39 -45l-217 -260h-90z" />
    <glyph glyph-name="Tcommaaccent" unicode="&#x162;" horiz-adv-x="1210" 
d="M819 1196h-125v-995q0 -65 24.5 -87t82.5 -22h78v-92h-547v92h78q58 0 82 21.5t24 87.5v995h-125q-67 0 -105.5 -8.5t-65.5 -35t-36.5 -73t-9.5 -125.5v-63h-113v418h1088v-418h-113v63q0 79 -9.5 125.5t-36.5 73t-65.5 35t-105.5 8.5zM510 -178q0 -42 22 -68.5t66 -27.5
q-21 -54 -102 -74v-55q105 15 162 64t57 130q0 59 -30 90t-77 31q-37 0 -67.5 -27t-30.5 -63z" />
    <glyph glyph-name="tcommaaccent" unicode="&#x163;" horiz-adv-x="782" 
d="M494 -27q-67 0 -116.5 13.5t-90 46t-61.5 92.5t-21 147v611h-148v69q26 1 47 3.5t39 10t31 13t25 21t19.5 24.5t15 34.5t11.5 39t10.5 49t9 55.5t9.5 66h103v-287h315v-98h-315v-619q0 -99 39 -138.5t119 -39.5q87 0 174 33v-62q-22 -35 -78.5 -59.5t-136.5 -24.5z
M340 -178q0 -42 22 -68.5t66 -27.5q-21 -54 -102 -74v-55q105 15 162 64t57 130q0 59 -30 90t-77 31q-37 0 -67.5 -27t-30.5 -63z" />
    <glyph glyph-name="Tcaron" unicode="&#x164;" horiz-adv-x="1210" 
d="M819 1196h-125v-995q0 -65 24.5 -87t82.5 -22h78v-92h-547v92h78q58 0 82 21.5t24 87.5v995h-125q-67 0 -105.5 -8.5t-65.5 -35t-36.5 -73t-9.5 -125.5v-63h-113v418h1088v-418h-113v63q0 79 -9.5 125.5t-36.5 73t-65.5 35t-105.5 8.5zM338 1595l45 45l223 -84l223 84
l45 -45l-223 -202h-90z" />
    <glyph glyph-name="tcaron" unicode="&#x165;" horiz-adv-x="770" 
d="M494 -27q-67 0 -116.5 13.5t-90 46t-61.5 92.5t-21 147v611h-148v69q26 1 47 3.5t39 10t31 13t25 21t19.5 24.5t15 34.5t11.5 39t10.5 49t9 55.5t9.5 66h103v-287h315v-98h-315v-619q0 -99 39 -138.5t119 -39.5q87 0 174 33v-62q-22 -35 -78.5 -59.5t-136.5 -24.5z
M575 1108h-73v195q0 50 23 80t65 30q48 0 68 -39t-7 -102z" />
    <glyph glyph-name="Tbar" unicode="&#x166;" horiz-adv-x="1210" 
d="M819 1196h-125v-455h305v-102h-305v-438q0 -65 24.5 -87t82.5 -22h78v-92h-547v92h78q58 0 82 21.5t24 87.5v438h-305v102h305v455h-125q-67 0 -105.5 -8.5t-65.5 -35t-36.5 -73t-9.5 -125.5v-63h-113v418h1088v-418h-113v63q0 79 -9.5 125.5t-36.5 73t-65.5 35
t-105.5 8.5z" />
    <glyph glyph-name="tbar" unicode="&#x167;" horiz-adv-x="770" 
d="M57 543v98h148v242h-148v69q26 1 47 3.5t39 10t31 13t25 21t19.5 24.5t15 34.5t11.5 39t10.5 49t9 55.5t9.5 66h103v-287h315v-98h-315v-242h315v-98h-315v-279q0 -99 39 -138.5t119 -39.5q87 0 174 33v-62q-22 -35 -78.5 -59.5t-136.5 -24.5q-67 0 -116.5 13.5t-90 46
t-61.5 92.5t-21 147v271h-148z" />
    <glyph glyph-name="Utilde" unicode="&#x168;" horiz-adv-x="1388" 
d="M1192 1057v-557q0 -121 -24 -213.5t-66.5 -152.5t-105.5 -97.5t-135 -52.5t-161 -15q-88 0 -160.5 15.5t-137.5 53.5t-109.5 97.5t-70 152.5t-25.5 214v596q0 65 -24.5 86.5t-82.5 21.5h-49v103h551v-103h-90q-73 0 -100 -17.5t-27 -76.5v-649q0 -202 82.5 -286.5
t267.5 -84.5q171 0 250.5 84.5t79.5 284.5v610q0 84 -31 109.5t-123 25.5h-63v103h510v-103h-50q-57 0 -81.5 -31.5t-24.5 -117.5zM457 1405q-8 59 -1 109t43.5 83t96.5 33q46 0 91.5 -20t84.5 -40t70 -20q33 0 45.5 21t15.5 67h62q8 -59 2.5 -109t-38 -83t-87.5 -33
q-48 0 -131.5 40t-124.5 40q-37 0 -50 -20.5t-18 -67.5h-61z" />
    <glyph glyph-name="utilde" unicode="&#x169;" horiz-adv-x="1177" 
d="M827 434v332q0 74 -23.5 95.5t-96.5 21.5h-15v98h307v-819q0 -47 21 -64.5t92 -17.5h31v-80h-291q-25 117 -25 240v12q-24 -128 -117 -202.5t-214 -74.5q-158 0 -245 93.5t-87 285.5v412q0 74 -23.5 95.5t-97.5 21.5h-4v98h297v-653q0 -228 196 -228q129 0 212 94t83 240
zM293 1145q-8 59 -1 109t43.5 83t96.5 33q46 0 91.5 -20t84.5 -40t70 -20q33 0 45.5 21t15.5 67h62q8 -59 2.5 -109t-38 -83t-87.5 -33q-48 0 -131.5 40t-124.5 40q-37 0 -50 -20.5t-18 -67.5h-61z" />
    <glyph glyph-name="Umacron" unicode="&#x16a;" horiz-adv-x="1388" 
d="M1192 1057v-557q0 -121 -24 -213.5t-66.5 -152.5t-105.5 -97.5t-135 -52.5t-161 -15q-88 0 -160.5 15.5t-137.5 53.5t-109.5 97.5t-70 152.5t-25.5 214v596q0 65 -24.5 86.5t-82.5 21.5h-49v103h551v-103h-90q-73 0 -100 -17.5t-27 -76.5v-649q0 -202 82.5 -286.5
t267.5 -84.5q171 0 250.5 84.5t79.5 284.5v610q0 84 -31 109.5t-123 25.5h-63v103h510v-103h-50q-57 0 -81.5 -31.5t-24.5 -117.5zM469 1452v94h483v-94h-483z" />
    <glyph glyph-name="umacron" unicode="&#x16b;" horiz-adv-x="1177" 
d="M827 434v332q0 74 -23.5 95.5t-96.5 21.5h-15v98h307v-819q0 -47 21 -64.5t92 -17.5h31v-80h-291q-25 117 -25 240v12q-24 -128 -117 -202.5t-214 -74.5q-158 0 -245 93.5t-87 285.5v412q0 74 -23.5 95.5t-97.5 21.5h-4v98h297v-653q0 -228 196 -228q129 0 212 94t83 240
zM305 1171v95h483v-95h-483z" />
    <glyph glyph-name="Ubreve" unicode="&#x16c;" horiz-adv-x="1388" 
d="M1192 1057v-557q0 -121 -24 -213.5t-66.5 -152.5t-105.5 -97.5t-135 -52.5t-161 -15q-88 0 -160.5 15.5t-137.5 53.5t-109.5 97.5t-70 152.5t-25.5 214v596q0 65 -24.5 86.5t-82.5 21.5h-49v103h551v-103h-90q-73 0 -100 -17.5t-27 -76.5v-649q0 -202 82.5 -286.5
t267.5 -84.5q171 0 250.5 84.5t79.5 284.5v610q0 84 -31 109.5t-123 25.5h-63v103h510v-103h-50q-57 0 -81.5 -31.5t-24.5 -117.5zM854 1618h80q8 -97 -50 -167.5t-173 -70.5t-173.5 70.5t-50.5 167.5h80q3 -46 39 -75.5t105 -29.5t104.5 29.5t38.5 75.5z" />
    <glyph glyph-name="ubreve" unicode="&#x16d;" horiz-adv-x="1177" 
d="M827 434v332q0 74 -23.5 95.5t-96.5 21.5h-15v98h307v-819q0 -47 21 -64.5t92 -17.5h31v-80h-291q-25 117 -25 240v12q-24 -128 -117 -202.5t-214 -74.5q-158 0 -245 93.5t-87 285.5v412q0 74 -23.5 95.5t-97.5 21.5h-4v98h297v-653q0 -228 196 -228q129 0 212 94t83 240
zM702 1378h74q6 -50 -5 -98.5t-37.5 -89t-75.5 -65.5t-113 -25q-84 0 -140 42.5t-76 104t-12 131.5h74q-3 -64 33 -104.5t121 -40.5t122 40.5t35 104.5z" />
    <glyph glyph-name="Uring" unicode="&#x16e;" horiz-adv-x="1388" 
d="M1192 1057v-557q0 -121 -24 -213.5t-66.5 -152.5t-105.5 -97.5t-135 -52.5t-161 -15q-88 0 -160.5 15.5t-137.5 53.5t-109.5 97.5t-70 152.5t-25.5 214v596q0 65 -24.5 86.5t-82.5 21.5h-49v103h551v-103h-90q-73 0 -100 -17.5t-27 -76.5v-649q0 -202 82.5 -286.5
t267.5 -84.5q171 0 250.5 84.5t79.5 284.5v610q0 84 -31 109.5t-123 25.5h-63v103h510v-103h-50q-57 0 -81.5 -31.5t-24.5 -117.5zM614 1532q0 -123 97 -123q49 0 73.5 32.5t24.5 90.5t-24.5 90.5t-73.5 32.5q-97 0 -97 -123zM524 1532q0 77 54 131.5t133 54.5t133.5 -54.5
t54.5 -131.5t-54.5 -130.5t-133.5 -53.5t-133 53.5t-54 130.5z" />
    <glyph glyph-name="uring" unicode="&#x16f;" horiz-adv-x="1177" 
d="M827 434v332q0 74 -23.5 95.5t-96.5 21.5h-15v98h307v-819q0 -47 21 -64.5t92 -17.5h31v-80h-291q-25 117 -25 240v12q-24 -128 -117 -202.5t-214 -74.5q-158 0 -245 93.5t-87 285.5v412q0 74 -23.5 95.5t-97.5 21.5h-4v98h297v-653q0 -228 196 -228q129 0 212 94t83 240
zM358 1284q0 77 54 131.5t133 54.5t133.5 -54.5t54.5 -131.5t-54.5 -130.5t-133.5 -53.5t-133 53.5t-54 130.5zM449 1284q0 -58 24.5 -90.5t71.5 -32.5t72.5 32.5t25.5 90.5t-25.5 90.5t-72.5 32.5t-71.5 -32.5t-24.5 -90.5z" />
    <glyph glyph-name="Uhungarumlaut" unicode="&#x170;" horiz-adv-x="1388" 
d="M1192 1057v-557q0 -121 -24 -213.5t-66.5 -152.5t-105.5 -97.5t-135 -52.5t-161 -15q-88 0 -160.5 15.5t-137.5 53.5t-109.5 97.5t-70 152.5t-25.5 214v596q0 65 -24.5 86.5t-82.5 21.5h-49v103h551v-103h-90q-73 0 -100 -17.5t-27 -76.5v-649q0 -202 82.5 -286.5
t267.5 -84.5q171 0 250.5 84.5t79.5 284.5v610q0 84 -31 109.5t-123 25.5h-63v103h510v-103h-50q-57 0 -81.5 -31.5t-24.5 -117.5zM866 1403h-61l55 182q15 48 38 73t63 25q39 0 60 -22.5t21 -56.5q0 -57 -51 -99zM580 1403h-62l55 182q15 48 38 73t63 25q39 0 60.5 -22.5
t21.5 -56.5q0 -57 -51 -99z" />
    <glyph glyph-name="uhungarumlaut" unicode="&#x171;" horiz-adv-x="1177" 
d="M827 434v332q0 74 -23.5 95.5t-96.5 21.5h-15v98h307v-819q0 -47 21 -64.5t92 -17.5h31v-80h-291q-25 117 -25 240v12q-24 -128 -117 -202.5t-214 -74.5q-158 0 -245 93.5t-87 285.5v412q0 74 -23.5 95.5t-97.5 21.5h-4v98h297v-653q0 -228 196 -228q129 0 212 94t83 240
zM711 1104h-70l51 205q15 58 39 87t68 29q41 0 64.5 -24.5t23.5 -61.5q0 -52 -51 -106zM414 1104h-70l51 205q15 58 39 87t68 29q41 0 64.5 -24.5t23.5 -61.5q0 -52 -51 -106z" />
    <glyph glyph-name="Uogonek" unicode="&#x172;" horiz-adv-x="1388" 
d="M797 -317q-63 0 -103.5 39.5t-40.5 93.5q0 94 90 153h-43q-88 0 -160.5 15.5t-137.5 53.5t-109.5 97.5t-70 152.5t-25.5 214v596q0 65 -24.5 86.5t-82.5 21.5h-49v103h551v-103h-90q-73 0 -100 -17.5t-27 -76.5v-649q0 -202 82.5 -286.5t267.5 -84.5q171 0 250.5 84.5
t79.5 284.5v610q0 84 -31 109.5t-123 25.5h-63v103h510v-103h-50q-57 0 -81.5 -31.5t-24.5 -117.5v-557q0 -193 -56 -304t-175 -178q-52 -29 -73.5 -42t-50.5 -35t-39 -41.5t-10 -44.5q0 -60 70 -60q32 0 70 17v-52q-11 -31 -44 -54t-87 -23z" />
    <glyph glyph-name="uogonek" unicode="&#x173;" horiz-adv-x="1177" 
d="M838 -317q-63 0 -103.5 39.5t-40.5 93.5q0 64 46.5 110.5t111.5 69.5q-25 137 -25 244v12q-24 -128 -117 -202.5t-214 -74.5q-158 0 -245 93.5t-87 285.5v412q0 74 -23.5 95.5t-97.5 21.5h-4v98h297v-653q0 -228 196 -228q129 0 212 94t83 240v332q0 74 -23.5 95.5
t-96.5 21.5h-15v98h307v-819q0 -47 21 -64.5t92 -17.5h31v-80h-58q-128 0 -192 -40t-64 -105q0 -60 70 -60q32 0 70 17v-52q-11 -31 -44 -54t-87 -23z" />
    <glyph glyph-name="Wcircumflex" unicode="&#x174;" horiz-adv-x="1980" 
d="M1780 1087l-248 -1087h-244l-284 1096l-285 -1096h-256l-250 1096q-27 77 -47.5 93.5t-81.5 16.5h-43v103h547v-103h-82q-92 0 -111 -16.5t-2 -89.5l215 -994l316 1203h190l311 -1203l207 943q19 84 -5 120.5t-107 36.5h-90v103h509v-103h-34q-64 0 -84.5 -18.5
t-40.5 -100.5zM1239 1393l-223 84l-223 -84l-45 45l223 202h90l223 -202z" />
    <glyph glyph-name="wcircumflex" unicode="&#x175;" horiz-adv-x="1513" 
d="M559 0h-205l-209 770q-19 71 -42 92t-70 21h-4v98h403v-98h-55q-51 0 -63 -27t5 -90l160 -643l213 858h170l225 -858l144 598q24 103 9 132.5t-85 29.5h-37v98h361v-98h-4q-43 0 -65.5 -22.5t-41.5 -96.5l-201 -764h-209l-202 776zM1001 1085l-223 132l-223 -132l-39 45
l217 261h90l217 -261z" />
    <glyph glyph-name="Ycircumflex" unicode="&#x176;" horiz-adv-x="1226" 
d="M1024 1087q45 79 68 99t73 20h25v103h-447v-103h50q91 0 106.5 -36t-33.5 -121l-223 -402l-237 430q-37 67 -23 98t84 31h61v103h-491v-103h26q51 0 75.5 -19.5t64.5 -90.5l321 -572v-323q0 -66 -24 -87.5t-82 -21.5h-78v-92h547v92h-78q-58 0 -82.5 22t-24.5 87v319z
M854 1393l-223 84l-223 -84l-46 45l224 202h90l223 -202z" />
    <glyph glyph-name="ycircumflex" unicode="&#x177;" horiz-adv-x="1079" 
d="M301 -319q-96 0 -151.5 41t-55.5 116q0 44 28.5 68t74.5 24q43 0 63.5 -25.5t20.5 -68.5v-57q8 -4 32 -4q124 0 195 190l12 35h-78l-295 791q-23 62 -42 77t-70 15h-4v98h411v-98h-51q-53 0 -66 -30t9 -87l235 -645l217 600q33 100 18.5 131t-85.5 31h-41v98h366v-98h-4
q-41 0 -62 -19t-42 -78l-303 -798q-61 -161 -136 -234t-196 -73zM795 1085l-224 132l-223 -132l-39 45l217 261h90l218 -261z" />
    <glyph glyph-name="Ydieresis" unicode="&#x178;" horiz-adv-x="1226" 
d="M1024 1087q45 79 68 99t73 20h25v103h-447v-103h50q91 0 106.5 -36t-33.5 -121l-223 -402l-237 430q-37 67 -23 98t84 31h61v103h-491v-103h26q51 0 75.5 -19.5t64.5 -90.5l321 -572v-323q0 -66 -24 -87.5t-82 -21.5h-78v-92h547v92h-78q-58 0 -82.5 22t-24.5 87v319z
M817 1395q-43 0 -74.5 31t-31.5 75q0 43 31.5 75t74.5 32q44 0 76.5 -32t32.5 -75q0 -44 -32 -75t-77 -31zM442 1395q-44 0 -76 31t-32 75q0 43 32 75t76 32q43 0 75 -32t32 -75q0 -44 -32 -75t-75 -31z" />
    <glyph glyph-name="Zacute" unicode="&#x179;" horiz-adv-x="1132" 
d="M1053 0h-981v139l792 1057h-432q-64 0 -97 -6t-57.5 -28.5t-32 -63t-7.5 -113.5v-33h-113v357h924v-140l-801 -1065h475q71 0 109.5 8t65 34.5t34.5 71t8 124.5v47h113v-389zM530 1382l-32 31l100 189q23 44 48.5 62.5t62.5 18.5q38 0 63 -26t25 -66q0 -66 -82 -108z" />
    <glyph glyph-name="zacute" unicode="&#x17a;" horiz-adv-x="944" 
d="M872 981v-127l-641 -756h336q66 0 102.5 7.5t61 32.5t32 66t7.5 115v23h107v-342h-824v123l635 754h-311q-60 0 -92 -6t-56 -27.5t-31.5 -60.5t-7.5 -109v-12h-106v319h788zM393 1083l-37 37l133 211q33 51 58 72.5t65 21.5q43 0 66.5 -25t23.5 -65q0 -38 -20 -62
t-57 -48z" />
    <glyph glyph-name="Zdotaccent" unicode="&#x17b;" horiz-adv-x="1132" 
d="M1053 0h-981v139l792 1057h-432q-64 0 -97 -6t-57.5 -28.5t-32 -63t-7.5 -113.5v-33h-113v357h924v-140l-801 -1065h475q71 0 109.5 8t65 34.5t34.5 71t8 124.5v47h113v-389zM604 1417q-46 0 -79 32.5t-33 78.5t33 79t79 33t79.5 -33t33.5 -79t-33.5 -78.5t-79.5 -32.5z
" />
    <glyph glyph-name="zdotaccent" unicode="&#x17c;" horiz-adv-x="944" 
d="M872 854l-641 -756h336q66 0 102.5 7.5t61 32.5t32 66t7.5 115v23h107v-342h-824v123l635 754h-311q-60 0 -92 -6t-56 -27.5t-31.5 -60.5t-7.5 -109v-12h-106v319h788v-127zM487 1128q-46 0 -79 32.5t-33 78.5t33 79.5t79 33.5t79.5 -33.5t33.5 -79.5t-33.5 -78.5
t-79.5 -32.5z" />
    <glyph glyph-name="Zcaron" unicode="&#x17d;" horiz-adv-x="1132" 
d="M1053 0h-981v139l792 1057h-432q-64 0 -97 -6t-57.5 -28.5t-32 -63t-7.5 -113.5v-33h-113v357h924v-140l-801 -1065h475q71 0 109.5 8t65 34.5t34.5 71t8 124.5v47h113v-389zM336 1595l45 45l223 -84l223 84l45 -45l-223 -202h-90z" />
    <glyph glyph-name="zcaron" unicode="&#x17e;" horiz-adv-x="944" 
d="M872 854l-641 -756h336q66 0 102.5 7.5t61 32.5t32 66t7.5 115v23h107v-342h-824v123l635 754h-311q-60 0 -92 -6t-56 -27.5t-31.5 -60.5t-7.5 -109v-12h-106v319h788v-127zM227 1364l39 45l223 -133l224 133l39 -45l-217 -260h-91z" />
    <glyph glyph-name="florin" unicode="&#x192;" horiz-adv-x="868" 
d="M12 -317q-90 0 -144 41.5t-54 111.5q0 44 26 74.5t68 30.5q47 0 72.5 -25t25.5 -72v-84h10q147 0 177 277l75 659h-172v115h187l32 281q8 70 34 124t61 86.5t79.5 53.5t86.5 29t86 8q100 0 164.5 -41.5t64.5 -122.5q0 -43 -29 -71t-74 -28q-104 0 -104 103v74h-25
q-75 0 -117.5 -56.5t-52.5 -142.5l-34 -297h266v-115h-281l-73 -643q-10 -85 -38 -152t-63.5 -107t-81 -66t-87.5 -35.5t-85 -9.5z" />
    <glyph glyph-name="Aringacute" unicode="&#x1fa;" horiz-adv-x="1415" 
d="M1020 209l-70 199h-544l-58 -172q-26 -74 -1 -109t110 -35h90v-92h-498v92h35q60 0 81.5 22t51.5 107l375 1088h229l379 -1096q28 -80 49 -100.5t80 -20.5h43v-92h-559v92h90q93 0 117.5 22t-0.5 95zM678 1204l-236 -688h471zM528 1532q0 77 54 131.5t133 54.5
t133.5 -54.5t54.5 -131.5t-54.5 -130.5t-133.5 -53.5t-133 53.5t-54 130.5zM702 1774l-32 30l100 189q23 44 48.5 63t62.5 19q38 0 63 -26.5t25 -66.5q0 -66 -82 -108zM618 1532q0 -123 97 -123q49 0 73.5 32.5t24.5 90.5t-24.5 90.5t-73.5 32.5q-97 0 -97 -123z" />
    <glyph glyph-name="aringacute" unicode="&#x1fb;" horiz-adv-x="1048" 
d="M887 -23q-205 0 -205 207v9q-29 -109 -107.5 -164.5t-197.5 -55.5q-132 0 -213.5 70.5t-81.5 196.5v2q0 86 48.5 144.5t150.5 100.5q29 12 87 29t107.5 32.5t99 36.5t78.5 51.5t29 68.5q0 93 -52 145.5t-179 52.5q-78 0 -127 -24v-74q0 -117 -97 -117q-41 0 -68.5 27.5
t-27.5 70.5q0 67 51.5 118t131 76.5t171.5 25.5q369 0 369 -365v-432q0 -70 21.5 -100.5t74.5 -30.5q48 0 88 18v-63q-56 -56 -151 -56zM424 80q102 0 178 74t80 206v228q-28 -28 -63.5 -51t-60 -34t-68.5 -28.5t-62 -25.5q-47 -21 -72.5 -35t-51 -36.5t-36 -51t-10.5 -68.5
v-10q0 -85 44 -126.5t122 -41.5zM311 1284q0 77 54 131.5t133 54.5t133.5 -54.5t54.5 -131.5t-54.5 -130.5t-133.5 -53.5t-133 53.5t-54 130.5zM467 1534l-33 31l101 188q23 44 48 63t62 19q38 0 63 -26t25 -66q0 -67 -82 -109zM401 1284q0 -58 25 -90.5t72 -32.5t72.5 32.5
t25.5 90.5t-25.5 90.5t-72.5 32.5t-72 -32.5t-25 -90.5z" />
    <glyph glyph-name="AEacute" unicode="&#x1fc;" horiz-adv-x="1855" 
d="M508 0h-488v92h35q38 0 63 24.5t75 104.5l503 885q57 100 -41 100h-77v103h1146v-357h-112v33q0 73 -7.5 113.5t-32.5 63t-58 28.5t-97 6h-356v-479h227q59 0 84 12.5t36 55t11 139.5v20h101v-575h-101v26q0 74 -4.5 114t-20.5 63.5t-39 29.5t-67 6h-227v-504h362
q71 0 109.5 8t65 34.5t34.5 71t8 124.5v47h113v-389h-1053v92h76q58 0 82.5 22t24.5 87v207h-451l-96 -172q-43 -66 -22.5 -105t104.5 -39h90v-92zM494 516h389v686zM1090 1382l-33 31l100 189q23 44 48.5 62.5t62.5 18.5q38 0 63 -26t25 -66q0 -66 -82 -108z" />
    <glyph glyph-name="aeacute" unicode="&#x1fd;" horiz-adv-x="1646" 
d="M1141 899q-130 0 -207.5 -88.5t-77.5 -251.5h526v29q0 311 -241 311zM424 80q107 0 180.5 73t77.5 207v228q-28 -28 -63.5 -51t-60 -34t-68.5 -28.5t-62 -25.5q-47 -21 -72.5 -35t-51 -36.5t-36 -51t-10.5 -68.5v-10q0 -85 44 -126.5t122 -41.5zM1518 90
q-40 -43 -129.5 -78t-214.5 -35q-164 0 -280.5 71t-170.5 204q-25 -145 -116 -212t-224 -67q-136 0 -218.5 70.5t-82.5 196.5v2q0 86 48.5 144.5t150.5 100.5q29 12 87 29t107.5 32.5t99 36.5t78.5 51.5t29 68.5q0 92 -51 145t-176 53q-87 0 -131 -35v-63q0 -117 -97 -117
q-41 0 -68.5 27.5t-27.5 70.5q0 67 51.5 118t131 76.5t171.5 25.5q244 0 312 -179q114 179 344 179q106 0 186 -33t126 -90.5t68.5 -128.5t22.5 -154q0 -73 -14 -139h-674q4 -197 92.5 -282t268.5 -85q87 0 171 23t130 55v-82zM788 1083l-36 37l133 211q33 51 58 72.5
t65 21.5q43 0 66.5 -25t23.5 -65q0 -38 -20 -62t-58 -48z" />
    <glyph glyph-name="Oslashacute" unicode="&#x1fe;" horiz-adv-x="1396" 
d="M698 -31q-235 0 -389 133l-110 -141h-123l166 213q-140 183 -140 483v5q0 313 155 494t441 181q219 0 363 -110l90 116h123l-141 -180q161 -181 161 -501v-5q0 -169 -43.5 -300.5t-123 -216t-188.5 -128t-241 -43.5zM698 86q206 0 309 135.5t103 417.5v66q0 206 -72 335
l-643 -825q100 -129 303 -129zM287 639q0 -208 55 -336l637 817q-102 105 -281 105q-210 0 -310.5 -138t-100.5 -382v-66zM610 1382l-32 31l100 189q23 44 48 62.5t62 18.5q38 0 63.5 -26t25.5 -66q0 -66 -82 -108z" />
    <glyph glyph-name="oslashacute" unicode="&#x1ff;" horiz-adv-x="1101" 
d="M551 -23q-161 0 -279 86l-79 -102h-115l127 162q-123 142 -123 379v2q0 228 129 365t340 137q158 0 278 -84l80 102h115l-127 -162q123 -139 123 -356v-2q0 -130 -37.5 -232t-102 -165.5t-148.5 -96.5t-181 -33zM551 86q285 0 285 389v78q0 111 -35 186l-451 -575
q72 -78 201 -78zM266 475q0 -140 35 -227l449 571q-73 76 -199 76q-135 0 -210 -87.5t-75 -254.5v-78zM446 1083l-36 37l133 211q33 51 58 72.5t65 21.5q43 0 66.5 -25t23.5 -65q0 -38 -20 -62t-58 -48z" />
    <glyph glyph-name="Scommaaccent" unicode="&#x218;" horiz-adv-x="1132" 
d="M565 96q64 0 119 14t100 42.5t71 77t26 112.5t-21 103.5t-65 68.5q-48 31 -238 74.5t-252 75.5q-90 45 -132 115t-42 184q0 91 34 163t91.5 115t127.5 65.5t148 22.5q212 0 304 -143q6 36 15.5 66.5t16.5 43.5l6 13h87v-340h-123q-38 248 -295 248q-48 0 -92.5 -13
t-83 -39.5t-61.5 -73t-23 -106.5q0 -64 21.5 -101t74.5 -65q59 -33 162 -55.5t201.5 -46.5t156.5 -62q141 -92 141 -290q0 -129 -62 -218t-162.5 -129.5t-231.5 -40.5q-130 0 -219 48.5t-138 126.5q-9 -44 -20.5 -82t-18.5 -54l-8 -16h-88v387h129q43 -291 344 -291z
M481 -178q0 -42 22 -68.5t66 -27.5q-21 -54 -102 -74v-55q105 15 162 64t57 130q0 59 -29.5 90t-76.5 31q-38 0 -68.5 -27t-30.5 -63z" />
    <glyph glyph-name="scommaaccent" unicode="&#x219;" horiz-adv-x="925" 
d="M498 -23q-228 0 -295 150q-5 -40 -15.5 -71.5t-17.5 -43.5l-8 -12h-88v311h112q15 -109 89.5 -167t197.5 -58q109 0 167 48t58 132q0 73 -55 107q-38 23 -190 49.5t-203 50.5q-76 35 -114 95t-38 159q0 133 95 206t229 73q96 0 158 -36t82 -102q5 36 13.5 64t14.5 38
l6 11h90v-279h-104q-21 89 -86.5 141t-165.5 52q-92 0 -139 -37t-47 -123q0 -44 16 -71.5t55 -45.5q52 -23 204 -45.5t210 -60.5q119 -77 119 -236q0 -142 -101.5 -220.5t-248.5 -78.5zM365 -178q0 -42 22 -68.5t66 -27.5q-21 -54 -103 -74v-55q105 15 162 64t57 130
q0 59 -29.5 90t-76.5 31q-37 0 -67.5 -27t-30.5 -63z" />
    <glyph glyph-name="uni021A" unicode="&#x21a;" horiz-adv-x="1210" 
d="M819 1196h-125v-995q0 -65 24.5 -87t82.5 -22h78v-92h-547v92h78q58 0 82 21.5t24 87.5v995h-125q-67 0 -105.5 -8.5t-65.5 -35t-36.5 -73t-9.5 -125.5v-63h-113v418h1088v-418h-113v63q0 79 -9.5 125.5t-36.5 73t-65.5 35t-105.5 8.5zM510 -178q0 -42 22 -68.5t66 -27.5
q-21 -54 -102 -74v-55q105 15 162 64t57 130q0 59 -30 90t-77 31q-37 0 -67.5 -27t-30.5 -63z" />
    <glyph glyph-name="uni021B" unicode="&#x21b;" horiz-adv-x="782" 
d="M494 -27q-67 0 -116.5 13.5t-90 46t-61.5 92.5t-21 147v611h-148v69q26 1 47 3.5t39 10t31 13t25 21t19.5 24.5t15 34.5t11.5 39t10.5 49t9 55.5t9.5 66h103v-287h315v-98h-315v-619q0 -99 39 -138.5t119 -39.5q87 0 174 33v-62q-22 -35 -78.5 -59.5t-136.5 -24.5z
M340 -178q0 -42 22 -68.5t66 -27.5q-21 -54 -102 -74v-55q105 15 162 64t57 130q0 59 -30 90t-77 31q-37 0 -67.5 -27t-30.5 -63z" />
    <glyph glyph-name="uni0237" unicode="&#x237;" horiz-adv-x="520" 
d="M51 -156v-67q15 -6 43 -6q50 0 70 35t20 114v846q0 74 -23.5 95.5t-97.5 21.5h-22v98h315v-1049q0 -123 -69 -184t-187 -61q-102 0 -163.5 45.5t-61.5 115.5q0 38 26.5 62t67.5 24t61.5 -24t20.5 -66z" />
    <glyph glyph-name="circumflex" unicode="&#x2c6;" 
d="M633 1085l-223 132l-224 -132l-39 45l218 261h90l217 -261z" />
    <glyph glyph-name="caron" unicode="&#x2c7;" 
d="M147 1364l39 45l224 -133l223 133l39 -45l-217 -260h-90z" />
    <glyph glyph-name="breve" unicode="&#x2d8;" 
d="M565 1378h74q6 -50 -5 -98.5t-37.5 -89t-75.5 -65.5t-113 -25q-84 0 -140 42.5t-76 104t-12 131.5h74q-3 -64 33 -104.5t121 -40.5t122 40.5t35 104.5z" />
    <glyph glyph-name="dotaccent" unicode="&#x2d9;" 
d="M410 1128q-46 0 -79.5 32.5t-33.5 78.5t33.5 79.5t79.5 33.5t79 -33.5t33 -79.5t-33 -78.5t-79 -32.5z" />
    <glyph glyph-name="ring" unicode="&#x2da;" 
d="M223 1284q0 77 54 131.5t133 54.5t133.5 -54.5t54.5 -131.5t-54.5 -130.5t-133.5 -53.5t-133 53.5t-54 130.5zM313 1284q0 -58 25 -90.5t72 -32.5t72.5 32.5t25.5 90.5t-25.5 90.5t-72.5 32.5t-72 -32.5t-25 -90.5z" />
    <glyph glyph-name="ogonek" unicode="&#x2db;" 
d="M412 -317q-63 0 -103.5 39.5t-40.5 93.5q0 68 48 118t102 66h117q-132 -65 -132 -145q0 -60 70 -60q32 0 70 17v-52q-11 -31 -44 -54t-87 -23z" />
    <glyph glyph-name="tilde" unicode="&#x2dc;" 
d="M154 1145q-8 59 -1 109t43.5 83t96.5 33q46 0 91.5 -20t84.5 -40t70 -20q33 0 45.5 21t15.5 67h62q8 -59 2.5 -109t-38 -83t-87.5 -33q-48 0 -131.5 40t-124.5 40q-37 0 -50 -20.5t-18 -67.5h-61z" />
    <glyph glyph-name="hungarumlaut" unicode="&#x2dd;" 
d="M569 1104h-69l51 205q15 58 38.5 87t67.5 29q41 0 64.5 -24.5t23.5 -61.5q0 -52 -51 -106zM272 1104h-69l51 205q15 58 38.5 87t67.5 29q41 0 65 -24.5t24 -61.5q0 -51 -52 -106z" />
    <glyph glyph-name="Wgrave" unicode="&#x1e80;" horiz-adv-x="1980" 
d="M1780 1087l-248 -1087h-244l-284 1096l-285 -1096h-256l-250 1096q-27 77 -47.5 93.5t-81.5 16.5h-43v103h547v-103h-82q-92 0 -111 -16.5t-2 -89.5l215 -994l316 1203h190l311 -1203l207 943q19 84 -5 120.5t-107 36.5h-90v103h509v-103h-34q-64 0 -84.5 -18.5
t-40.5 -100.5zM999 1602l113 -185l-29 -35l-204 101q-82 40 -82 108q0 40 25 66t63 26q36 0 61.5 -19t52.5 -62z" />
    <glyph glyph-name="wgrave" unicode="&#x1e81;" horiz-adv-x="1513" 
d="M559 0h-205l-209 770q-19 71 -42 92t-70 21h-4v98h403v-98h-55q-51 0 -63 -27t5 -90l160 -643l213 858h170l225 -858l144 598q24 103 9 132.5t-85 29.5h-37v98h361v-98h-4q-43 0 -65.5 -22.5t-41.5 -96.5l-201 -764h-209l-202 776zM905 1120l-35 -39l-239 129
q-92 49 -92 123q0 42 25 67t67 25q38 0 67.5 -22t63.5 -72z" />
    <glyph glyph-name="Wacute" unicode="&#x1e82;" horiz-adv-x="1980" 
d="M1780 1087l-248 -1087h-244l-284 1096l-285 -1096h-256l-250 1096q-27 77 -47.5 93.5t-81.5 16.5h-43v103h547v-103h-82q-92 0 -111 -16.5t-2 -89.5l215 -994l316 1203h190l311 -1203l207 943q19 84 -5 120.5t-107 36.5h-90v103h509v-103h-34q-64 0 -84.5 -18.5
t-40.5 -100.5zM942 1382l-33 31l101 189q23 44 48 62.5t62 18.5q38 0 63 -26t25 -66q0 -66 -82 -108z" />
    <glyph glyph-name="wacute" unicode="&#x1e83;" horiz-adv-x="1513" 
d="M559 0h-205l-209 770q-19 71 -42 92t-70 21h-4v98h403v-98h-55q-51 0 -63 -27t5 -90l160 -643l213 858h170l225 -858l144 598q24 103 9 132.5t-85 29.5h-37v98h361v-98h-4q-43 0 -65.5 -22.5t-41.5 -96.5l-201 -764h-209l-202 776zM674 1083l-37 37l133 211
q33 51 58 72.5t65 21.5q43 0 66.5 -25t23.5 -65q0 -38 -20 -62t-58 -48z" />
    <glyph glyph-name="Wdieresis" unicode="&#x1e84;" horiz-adv-x="1980" 
d="M1780 1087l-248 -1087h-244l-284 1096l-285 -1096h-256l-250 1096q-27 77 -47.5 93.5t-81.5 16.5h-43v103h547v-103h-82q-92 0 -111 -16.5t-2 -89.5l215 -994l316 1203h190l311 -1203l207 943q19 84 -5 120.5t-107 36.5h-90v103h509v-103h-34q-64 0 -84.5 -18.5
t-40.5 -100.5zM827 1395q-44 0 -76 31t-32 75q0 43 32 75t76 32q43 0 75 -32t32 -75q0 -44 -32 -75t-75 -31zM1202 1395q-43 0 -74.5 31t-31.5 75q0 43 31.5 75t74.5 32q44 0 76.5 -32t32.5 -75q0 -44 -32 -75t-77 -31z" />
    <glyph glyph-name="wdieresis" unicode="&#x1e85;" horiz-adv-x="1513" 
d="M559 0h-205l-209 770q-19 71 -42 92t-70 21h-4v98h403v-98h-55q-51 0 -63 -27t5 -90l160 -643l213 858h170l225 -858l144 598q24 103 9 132.5t-85 29.5h-37v98h361v-98h-4q-43 0 -65.5 -22.5t-41.5 -96.5l-201 -764h-209l-202 776zM954 1128q-43 0 -74.5 31.5t-31.5 75.5
q0 43 31.5 74.5t74.5 31.5q44 0 76.5 -31.5t32.5 -74.5q0 -44 -32.5 -75.5t-76.5 -31.5zM602 1128q-44 0 -76 31.5t-32 75.5q0 43 32 74.5t76 31.5q43 0 75 -31.5t32 -74.5q0 -44 -32 -75.5t-75 -31.5z" />
    <glyph glyph-name="Ygrave" unicode="&#x1ef2;" horiz-adv-x="1226" 
d="M1024 1087l-322 -567v-319q0 -65 24.5 -87t82.5 -22h78v-92h-547v92h78q58 0 82 21.5t24 87.5v323l-321 572q-40 71 -64.5 90.5t-75.5 19.5h-26v103h491v-103h-61q-70 0 -84 -31t23 -98l237 -430l223 402q49 85 33.5 121t-106.5 36h-50v103h447v-103h-25q-50 0 -73 -20
t-68 -99zM614 1602l113 -185l-29 -35l-204 101q-82 40 -82 108q0 40 25 66t63 26q36 0 61.5 -19t52.5 -62z" />
    <glyph glyph-name="ygrave" unicode="&#x1ef3;" horiz-adv-x="1079" 
d="M301 -319q-96 0 -151.5 41t-55.5 116q0 44 28.5 68t74.5 24q43 0 63.5 -25.5t20.5 -68.5v-57q8 -4 32 -4q124 0 195 190l12 35h-78l-295 791q-23 62 -42 77t-70 15h-4v98h411v-98h-51q-53 0 -66 -30t9 -87l235 -645l217 600q33 100 18.5 131t-85.5 31h-41v98h366v-98h-4
q-41 0 -62 -19t-42 -78l-303 -798q-61 -161 -136 -234t-196 -73zM698 1120l-34 -39l-240 129q-92 49 -92 123q0 42 25 67t67 25q38 0 67.5 -22t63.5 -72z" />
    <glyph glyph-name="uni2009" unicode="&#x2009;" horiz-adv-x="143" 
 />
    <glyph glyph-name="endash" unicode="&#x2013;" horiz-adv-x="1173" 
d="M113 500v102h948v-102h-948z" />
    <glyph glyph-name="emdash" unicode="&#x2014;" horiz-adv-x="1931" 
d="M113 500v102h1706v-102h-1706z" />
    <glyph glyph-name="quoteleft" unicode="&#x2018;" horiz-adv-x="468" 
d="M354 997q0 -49 -33 -80.5t-83 -31.5q-53 0 -89 41t-36 114q0 115 62 190t181 93v-72q-54 -15 -86.5 -52.5t-38.5 -90.5q60 3 91.5 -29.5t31.5 -81.5z" />
    <glyph glyph-name="quoteright" unicode="&#x2019;" horiz-adv-x="468" 
d="M115 1210q0 49 33 81t83 32q52 0 88.5 -41.5t36.5 -114.5q0 -115 -62 -189.5t-181 -92.5v71q52 13 84.5 51.5t38.5 90.5q-60 -3 -90.5 29t-30.5 83z" />
    <glyph glyph-name="quotesinglbase" unicode="&#x201a;" horiz-adv-x="468" 
d="M115 119q0 49 33 80.5t83 31.5q53 0 89 -41t36 -114q0 -115 -62 -190t-181 -93v72q52 15 84.5 52.5t38.5 88.5q-60 -3 -90.5 29.5t-30.5 83.5z" />
    <glyph glyph-name="quotedblleft" unicode="&#x201c;" horiz-adv-x="796" 
d="M354 997q0 -49 -33 -80.5t-83 -31.5q-53 0 -89 41t-36 114q0 115 62 190t181 93v-72q-54 -15 -86.5 -52.5t-38.5 -90.5q60 3 91.5 -29.5t31.5 -81.5zM682 997q0 -49 -33.5 -80.5t-83.5 -31.5q-53 0 -89 41t-36 114q0 115 62.5 190t181.5 93v-72q-54 -15 -86.5 -52.5
t-38.5 -90.5q60 3 91.5 -29.5t31.5 -81.5z" />
    <glyph glyph-name="quotedblright" unicode="&#x201d;" horiz-adv-x="796" 
d="M115 1210q0 49 33 81t83 32q52 0 88.5 -41.5t36.5 -114.5q0 -115 -62 -189.5t-181 -92.5v71q52 13 84.5 51.5t38.5 90.5q-60 -3 -90.5 29t-30.5 83zM442 1210q0 49 33.5 81t83.5 32q52 0 88.5 -41.5t36.5 -114.5q0 -115 -62.5 -189.5t-181.5 -92.5v71q52 13 84.5 51.5
t38.5 90.5q-60 -3 -90.5 29t-30.5 83z" />
    <glyph glyph-name="quotedblbase" unicode="&#x201e;" horiz-adv-x="796" 
d="M442 119q0 49 33.5 80.5t83.5 31.5q53 0 89 -41t36 -114q0 -115 -62.5 -190t-181.5 -93v72q52 15 84.5 52.5t38.5 88.5q-60 -3 -90.5 29.5t-30.5 83.5zM115 119q0 49 33 80.5t83 31.5q53 0 89 -41t36 -114q0 -115 -62 -190t-181 -93v72q52 15 84.5 52.5t38.5 88.5
q-60 -3 -90.5 29.5t-30.5 83.5z" />
    <glyph glyph-name="dagger" unicode="&#x2020;" horiz-adv-x="786" 
d="M293 1133q-22 83 8 129.5t92 46.5t92.5 -47t8.5 -129l-72 -273l164 53q66 23 106 14.5t57 -32.5t17 -61q0 -38 -17 -61.5t-57.5 -32.5t-107.5 14l-160 51l76 -252l-76 -756h-62l-75 756l75 252l-159 -51q-67 -22 -107.5 -13.5t-58 32.5t-17.5 61t17.5 61t57.5 32t106 -14
l161 -53z" />
    <glyph glyph-name="daggerdbl" unicode="&#x2021;" horiz-adv-x="786" 
d="M203 352l159 -51l-75 252h213l-76 -252l160 51q67 23 107.5 14t57.5 -32.5t17 -61.5q0 -37 -17 -61t-57 -32.5t-106 14.5l-164 51l72 -271q22 -82 -8.5 -129t-92.5 -47t-92 46.5t-8 129.5l69 271l-161 -51q-66 -22 -106 -14t-57.5 32t-17.5 61t18.5 61.5t59 32.5
t105.5 -14zM203 754q-65 -22 -105.5 -14t-59 32.5t-18.5 61.5t18.5 60.5t58.5 31.5t104 -13l161 -53l-69 273q-22 83 8 129.5t92 46.5t92.5 -47t8.5 -129l-72 -273l164 53q66 23 106 14.5t57 -32.5t17 -61q0 -38 -17 -61.5t-57.5 -32.5t-107.5 14l-160 51l76 -252h-213
l75 252z" />
    <glyph glyph-name="bullet" unicode="&#x2022;" horiz-adv-x="663" 
d="M332 344q-96 0 -169 70.5t-73 167.5t73 169t169 72q101 0 171 -71t70 -170t-70 -168.5t-171 -69.5z" />
    <glyph glyph-name="ellipsis" unicode="&#x2026;" horiz-adv-x="1298" 
d="M1059 -14q-48 0 -84.5 34.5t-36.5 83.5t36.5 85t84.5 36q51 0 86 -35.5t35 -85.5t-35 -84t-86 -34zM649 -14q-48 0 -84.5 34.5t-36.5 83.5t36.5 85t84.5 36q51 0 86 -35.5t35 -85.5t-35 -84t-86 -34zM240 -14q-48 0 -84.5 34.5t-36.5 83.5t36.5 85t84.5 36
q51 0 85.5 -35.5t34.5 -85.5t-34.5 -84t-85.5 -34z" />
    <glyph glyph-name="perthousand" unicode="&#x2030;" horiz-adv-x="2013" 
d="M221 1049v-70q0 -121 34.5 -172t96.5 -51q63 0 97 50.5t34 172.5v70q0 196 -131 196t-131 -196zM352 672q-122 0 -204 83.5t-82 245.5v17q0 149 79.5 234t206.5 85q129 0 208 -85t79 -234v-17q0 -163 -81.5 -246t-205.5 -83zM874 350v-69q0 -224 132 -224q63 0 97 51
t34 173v69q0 197 -131 197q-132 0 -132 -197zM1006 -27q-122 0 -204.5 84t-82.5 246v16q0 149 80 234.5t207 85.5q128 0 207 -85t79 -235v-16q0 -163 -81 -246.5t-205 -83.5zM1530 350v-69q0 -224 131 -224q63 0 97 51t34 173v69q0 197 -131 197t-131 -197zM1661 -27
q-122 0 -204.5 84t-82.5 246v16q0 149 80 234.5t207 85.5q129 0 208 -85.5t79 -234.5v-16q0 -163 -81.5 -246.5t-205.5 -83.5zM1192 1309l-901 -1309h-119l901 1309h119z" />
    <glyph glyph-name="uni2032" unicode="&#x2032;" horiz-adv-x="401" 
d="M174 903h-82l17 277q3 63 31 96t75 33q59 0 83 -45.5t-7 -116.5z" />
    <glyph glyph-name="uni2033" unicode="&#x2033;" horiz-adv-x="677" 
d="M451 903h-82l16 277q3 63 31.5 96t75.5 33q59 0 83 -45.5t-8 -116.5zM174 903h-82l17 277q3 63 31 96t75 33q59 0 83 -45.5t-7 -116.5z" />
    <glyph glyph-name="guilsinglleft" unicode="&#x2039;" horiz-adv-x="456" 
d="M406 174h-111l-244 328l244 329h111l-185 -327z" />
    <glyph glyph-name="guilsinglright" unicode="&#x203a;" horiz-adv-x="456" 
d="M51 174l185 328l-185 329h111l244 -327l-244 -330h-111z" />
    <glyph glyph-name="fraction" unicode="&#x2044;" horiz-adv-x="344" 
d="M713 1309l-989 -1309h-93l990 1309h92z" />
    <glyph glyph-name="Euro" unicode="&#x20ac;" horiz-adv-x="1159" 
d="M786 698h-444v-123v-6h444v-108h-438q25 -181 127 -276t268 -95q198 0 328 137v-116q-47 -62 -137.5 -102t-216.5 -40q-219 0 -364.5 127t-180.5 365h-141v108h133v33v96h-133v109h135q19 241 165 385.5t384 144.5q166 0 274.5 -66t108.5 -171q0 -50 -26.5 -78.5
t-70.5 -28.5q-47 0 -73.5 30.5t-26.5 88.5v74q-59 33 -156 33q-105 0 -183.5 -32t-124.5 -90t-69.5 -130t-25.5 -160h444v-109z" />
    <glyph glyph-name="trademark" unicode="&#x2122;" horiz-adv-x="1241" 
d="M543 1309h198l113 -344l109 344h206v-56h-26q-20 0 -28.5 -8t-8.5 -31v-266q0 -25 8 -32t29 -7h26v-53h-231v53h23q25 0 34 6.5t9 28.5v297l-117 -385h-96l-121 371v-283q0 -22 9 -28.5t34 -6.5h20v-53h-190v53h24q22 0 29.5 7t7.5 32v266q0 24 -8 31.5t-29 7.5h-24v56z
M350 1249h-18v-301q0 -24 8 -31.5t25 -7.5h30v-53h-229v53h27q19 0 26.5 7t7.5 32v301h-20q-47 0 -61.5 -15.5t-14.5 -68.5v-22h-59v166h417v-166h-59v22q0 52 -16.5 68t-63.5 16z" />
    <glyph glyph-name="onethird" unicode="&#x2153;" horiz-adv-x="1560" 
d="M485 539h-393v69h68q35 0 49 12.5t14 51.5v530l-143 -160v107l143 160h142v-637q0 -39 14 -51.5t47 -12.5h59v-69zM1290 1309l-989 -1309h-92l989 1309h92zM1202 -12q-115 0 -184.5 41t-69.5 106q0 30 19 48t49 18q69 0 69 -76v-41q32 -18 93 -18q82 0 127 38t45 109
t-39.5 106t-126.5 35h-92v82h90q74 0 110.5 36.5t36.5 100.5q0 134 -147 134q-50 0 -78 -19v-39q0 -38 -19.5 -58t-50.5 -20t-50 19.5t-19 52.5q0 64 65.5 103.5t169.5 39.5q119 0 192.5 -54.5t73.5 -149.5q0 -76 -45.5 -123.5t-132.5 -59.5v-2q98 -11 152.5 -59.5
t54.5 -134.5q0 -102 -77.5 -158.5t-215.5 -56.5z" />
    <glyph glyph-name="twothirds" unicode="&#x2154;" horiz-adv-x="1609" 
d="M575 539h-514v112q186 118 273.5 220t87.5 216q0 81 -40.5 119.5t-107.5 38.5q-47 0 -77 -18v-39q0 -38 -19.5 -58t-50.5 -20q-30 0 -49 19.5t-19 52.5q0 64 67.5 103.5t174.5 39.5q121 0 194.5 -58t73.5 -177q0 -68 -27 -128t-82 -115t-122.5 -101.5t-165.5 -102.5h258
q36 0 50 13t14 46v27h81v-190zM1364 1309l-989 -1309h-92l989 1309h92zM1251 -12q-115 0 -184.5 41t-69.5 106q0 30 19 48t49 18q32 0 51 -18.5t19 -57.5v-41q32 -18 92 -18q82 0 127 38t45 109t-39.5 106t-126.5 35h-92v82h90q74 0 110.5 36.5t36.5 100.5q0 134 -147 134
q-49 0 -78 -19v-39q0 -38 -19.5 -58t-50.5 -20t-50 19.5t-19 52.5q0 64 65.5 103.5t169.5 39.5q119 0 193 -54.5t74 -149.5q0 -76 -46 -123.5t-133 -59.5v-2q98 -11 152.5 -59.5t54.5 -134.5q0 -102 -77.5 -158.5t-215.5 -56.5z" />
    <glyph glyph-name="oneeighth" unicode="&#x215b;" horiz-adv-x="1550" 
d="M1200 -16q-126 0 -208.5 60t-82.5 163v10q0 71 46.5 122t129.5 71q-69 20 -109 62.5t-40 107.5v8q0 86 72.5 141t191.5 55q117 0 189.5 -55t72.5 -141v-8q0 -65 -40.5 -107.5t-110.5 -62.5q84 -20 131 -70.5t47 -120.5v-10q0 -104 -82.5 -164.5t-206.5 -60.5zM485 539
h-393v69h68q35 0 49 12.5t14 51.5v530l-143 -160v107l143 160h142v-637q0 -39 14 -51.5t47 -12.5h59v-69zM1274 1309l-989 -1309h-92l989 1309h92zM1200 66q148 0 148 145v22q0 64 -39.5 101t-108.5 37t-108 -36.5t-39 -101.5v-22q0 -145 147 -145zM1200 442q61 0 96 29.5
t35 89.5v19q0 58 -34.5 90t-96.5 32q-63 0 -97 -31.5t-34 -90.5v-19q0 -60 34.5 -89.5t96.5 -29.5z" />
    <glyph glyph-name="threeeighths" unicode="&#x215c;" horiz-adv-x="1581" 
d="M1231 -16q-126 0 -208.5 60t-82.5 163v10q0 71 46.5 122t129.5 71q-69 20 -109 62.5t-40 107.5v8q0 86 72.5 141t191.5 55q117 0 189.5 -55t72.5 -141v-8q0 -65 -41 -107.5t-111 -62.5q84 -20 131.5 -70.5t47.5 -120.5v-10q0 -104 -82.5 -164.5t-206.5 -60.5zM293 526
q-114 0 -184 41.5t-70 106.5q0 30 18.5 47.5t48.5 17.5q70 0 70 -75v-41q34 -19 92 -19q82 0 127 38t45 110q0 71 -39.5 106t-126.5 35h-92v82h90q74 0 111 36.5t37 100.5q0 133 -148 133q-50 0 -77 -18v-39q0 -38 -19.5 -58t-50.5 -20t-50.5 19.5t-19.5 52.5q0 64 66 103.5
t170 39.5q119 0 192.5 -55t73.5 -150q0 -76 -45.5 -123t-132.5 -59v-2q98 -11 152.5 -60t54.5 -135q0 -102 -77.5 -158.5t-215.5 -56.5zM1315 1309l-989 -1309h-93l990 1309h92zM1231 66q147 0 147 145v22q0 65 -39 101.5t-108 36.5t-108.5 -37t-39.5 -101v-22
q0 -145 148 -145zM1231 442q61 0 96 29.5t35 89.5v19q0 58 -34.5 90t-96.5 32q-63 0 -97 -31.5t-34 -90.5v-19q0 -60 34.5 -89.5t96.5 -29.5z" />
    <glyph glyph-name="fiveeighths" unicode="&#x215d;" horiz-adv-x="1595" 
d="M1245 -16q-126 0 -208.5 60t-82.5 163v10q0 71 46.5 122t129.5 71q-69 20 -109 62.5t-40 107.5v8q0 86 72.5 141t191.5 55q117 0 189.5 -55t72.5 -141v-8q0 -65 -40.5 -107.5t-110.5 -62.5q84 -20 131 -70.5t47 -120.5v-10q0 -104 -82.5 -164.5t-206.5 -60.5zM295 526
q-112 0 -181 41.5t-69 106.5q0 30 19 47.5t49 17.5q67 0 67 -75v-43q35 -17 86 -17q82 0 128 44.5t46 127.5q0 74 -41 117t-127 43q-95 0 -153 -55h-31v428h461v-193h-82v29q0 32 -14.5 43.5t-51.5 11.5h-225v-221q68 35 150 35q112 0 186 -59.5t74 -176.5q0 -116 -78 -184
t-213 -68zM1307 1309l-990 -1309h-92l989 1309h93zM1245 66q148 0 148 145v22q0 64 -39.5 101t-108.5 37t-108 -36.5t-39 -101.5v-22q0 -145 147 -145zM1245 442q61 0 96 29.5t35 89.5v19q0 58 -34.5 90t-96.5 32q-63 0 -97 -31.5t-34 -90.5v-19q0 -60 34.5 -89.5
t96.5 -29.5z" />
    <glyph glyph-name="seveneighths" unicode="&#x215e;" horiz-adv-x="1499" 
d="M1149 -16q-126 0 -208.5 60t-82.5 163v10q0 71 46.5 122t129.5 71q-69 20 -109 62.5t-40 107.5v8q0 86 72.5 141t191.5 55q117 0 189.5 -55t72.5 -141v-8q0 -65 -40.5 -107.5t-110.5 -62.5q84 -20 131 -70.5t47 -120.5v-10q0 -104 -82.5 -164.5t-206.5 -60.5zM264 535
q-30 0 -48.5 17t-18.5 48q0 22 20 62l248 532h-262q-35 0 -48.5 -13t-13.5 -48v-33h-82v209h500v-115l-213 -582q-15 -40 -32.5 -58.5t-49.5 -18.5zM1202 1309l-989 -1309h-92l989 1309h92zM1149 66q147 0 147 145v22q0 65 -39 101.5t-108 36.5t-108.5 -37t-39.5 -101v-22
q0 -145 148 -145zM1149 442q61 0 96 29.5t35 89.5v19q0 58 -34.5 90t-96.5 32q-63 0 -97 -31.5t-34 -90.5v-19q0 -60 34.5 -89.5t96.5 -29.5z" />
    <glyph glyph-name="minus" unicode="&#x2212;" horiz-adv-x="978" 
d="M102 698h775v-106h-775v106z" />
    <glyph glyph-name="approxequal" unicode="&#x2248;" horiz-adv-x="1048" 
d="M336 784q-53 0 -79.5 -20.5t-41.5 -71.5h-113q14 94 65 149.5t159 55.5q84 0 213.5 -34t181.5 -34q51 0 77 21t38 72h110q-23 -205 -205 -205q-80 0 -215.5 33.5t-189.5 33.5zM336 414q-53 0 -79.5 -20.5t-41.5 -71.5h-113q14 94 65 149t159 55q84 0 213.5 -33.5
t181.5 -33.5q51 0 77 20.5t38 71.5h110q-23 -205 -205 -205q-80 0 -215.5 34t-189.5 34z" />
    <glyph glyph-name="notequal" unicode="&#x2260;" horiz-adv-x="1048" 
d="M807 1112l-119 -250h248v-106h-299l-105 -221h404v-107h-455l-125 -264h-114l125 264h-254v107h305l104 221h-409v106h460l119 250h115z" />
    <glyph glyph-name="lessequal" unicode="&#x2264;" horiz-adv-x="966" 
d="M102 725l762 328v-117l-635 -272l635 -308v-118l-762 368v119zM102 0v106h762v-106h-762z" />
    <glyph glyph-name="greaterequal" unicode="&#x2265;" horiz-adv-x="966" 
d="M864 725v-119l-762 -368v118l633 308l-633 272v117zM864 0h-762v106h762v-106z" />
    <glyph glyph-name="uni24C5" unicode="&#x24c5;" horiz-adv-x="1515" 
d="M758 -29q-191 0 -349 91.5t-247.5 247t-89.5 339.5q0 185 89.5 342t247.5 249.5t349 92.5q144 0 272.5 -54.5t218.5 -146.5t142.5 -218t52.5 -265q0 -138 -52.5 -263t-142.5 -216t-218.5 -145t-272.5 -54zM758 55q123 0 233.5 48t188 128t123 189.5t45.5 228.5
q0 120 -45.5 230t-123 191.5t-188 130t-233.5 48.5q-162 0 -298.5 -82t-214 -220t-77.5 -298q0 -159 77.5 -295.5t213.5 -217.5t299 -81zM473 295v72h68q19 0 25.5 7t6.5 27v500q0 23 -6.5 30t-25.5 7h-68v78h363q122 0 184.5 -53t62.5 -152q0 -199 -260 -199h-106v-204
q0 -28 9.5 -34.5t39.5 -6.5h74v-72h-367zM799 938h-82v-260h86q70 0 99.5 33.5t29.5 101.5q0 64 -28.5 94.5t-104.5 30.5z" />
    <glyph glyph-name="f_t" unicode="&#xe22f;" horiz-adv-x="1359" 
d="M1071 -27q-67 0 -116.5 13.5t-90 46t-61.5 92.5t-21 147v611h-405v-711q0 -60 21.5 -76t105.5 -16h49v-80h-490v80h56q54 0 70 17t16 71v715h-148v98h148v111q0 84 27.5 145.5t74 94t98 47t109.5 14.5q99 0 160 -40.5t61 -117.5q0 -41 -25.5 -67.5t-66.5 -26.5
q-92 0 -92 98v57q-14 11 -41 11q-68 0 -100.5 -48.5t-32.5 -150.5v-127h379q42 27 59 85.5t37 201.5h102v-287h316v-98h-316v-619q0 -99 39 -138.5t119 -39.5q87 0 174 33v-62q-22 -35 -78.5 -59.5t-136.5 -24.5z" />
    <glyph glyph-name="f_f_t" unicode="&#xe230;" horiz-adv-x="1937" 
d="M57 981h148v53q0 78 22.5 138.5t58.5 97t86 60t99 32t104 8.5q206 0 248 -108q40 68 112.5 99.5t156.5 31.5q99 0 160 -40.5t61 -117.5q0 -41 -25.5 -67.5t-66.5 -26.5q-93 0 -93 98v61q-18 7 -41 7q-68 0 -100.5 -48.5t-32.5 -150.5v-127h379q42 27 59.5 86t37.5 201
h102v-287h315v-98h-315v-619q0 -99 39 -138.5t119 -39.5q87 0 174 33v-62q-22 -35 -78.5 -59.5t-136.5 -24.5q-67 0 -116.5 13.5t-90 46t-61.5 92.5t-21 147v611h-406v-711q0 -60 21.5 -76t105.5 -16h49v-80h-489v80h55q54 0 70 17t16 71v715h-405v-711q0 -60 21.5 -76
t105.5 -16h49v-80h-490v80h56q54 0 70 17t16 71v715h-148v98zM377 981h405v111v36q-15 -10 -43 -10q-92 0 -92 99v61q-24 6 -63 6q-106 0 -156.5 -53.5t-50.5 -179.5v-70z" />
    <glyph glyph-name="zero.tab" unicode="&#xe44f;" horiz-adv-x="1228" 
d="M614 -31q-105 0 -196.5 38t-165 114.5t-116 206t-42.5 297.5v88q0 302 142.5 463t377.5 161t378 -161.5t143 -462.5v-88q0 -136 -28 -246.5t-76 -185.5t-114.5 -126.5t-142 -74.5t-160.5 -23zM614 74q60 0 110.5 17t94 56.5t73.5 100t47 151.5t17 207v146
q0 234 -90 353.5t-252 119.5t-252 -119.5t-90 -353.5v-146q0 -116 17 -207t47 -151.5t73.5 -100t94 -56.5t110.5 -17z" />
    <glyph glyph-name="one.tab" unicode="&#xe450;" horiz-adv-x="1228" 
d="M1004 0h-738v92h195q58 0 82 21.5t24 87.5v956l-317 -377v152l317 377h178v-1108q0 -65 24.5 -87t82.5 -22h152v-92z" />
    <glyph glyph-name="two.tab" unicode="&#xe451;" horiz-adv-x="1228" 
d="M1071 0h-917v150q128 78 216 135t175.5 122t142 121t98 119t63 128.5t19.5 139.5q0 159 -87 234.5t-238 75.5q-115 0 -183 -35v-78q0 -58 -26.5 -88.5t-73.5 -30.5q-43 0 -69.5 28.5t-26.5 78.5q0 104 120.5 170.5t301.5 66.5q217 0 342 -103t125 -306q0 -73 -18 -139
t-47 -122t-81 -113t-105.5 -103.5t-135 -101.5t-155 -99.5t-179.5 -104.5h528q55 0 76.5 22t21.5 79v53h113v-299z" />
    <glyph glyph-name="three.tab" unicode="&#xe452;" horiz-adv-x="1228" 
d="M590 -20q-183 0 -301.5 69.5t-118.5 171.5q0 46 27 73.5t69 27.5q96 0 96 -119v-74q75 -41 191 -41q159 0 244.5 68.5t85.5 203.5q0 254 -303 254h-174v121h174q129 0 193.5 65t64.5 179q0 246 -289 246q-103 0 -160 -35v-78q0 -58 -26.5 -88.5t-73.5 -30.5
q-43 0 -69.5 28.5t-26.5 78.5q0 104 109.5 170.5t272.5 66.5q196 0 316.5 -96t120.5 -252q0 -129 -74.5 -208.5t-212.5 -98.5v-6q156 -18 246 -105t90 -233q0 -167 -124.5 -262.5t-346.5 -95.5z" />
    <glyph glyph-name="four.tab" unicode="&#xe453;" horiz-adv-x="1228" 
d="M133 367v108l586 834h178v-834h182v-108h-182v-166q0 -65 24.5 -87t82.5 -22h94v-92h-592v92h106q58 0 82.5 22t24.5 87v166h-586zM719 1122l-455 -647h455v647z" />
    <glyph glyph-name="five.tab" unicode="&#xe454;" horiz-adv-x="1228" 
d="M590 -20q-183 0 -301.5 69.5t-118.5 171.5q0 46 27 73.5t69 27.5q96 0 96 -119v-74q75 -41 187 -41q160 0 247 84t87 236q0 133 -73 208.5t-230 75.5q-164 0 -275 -96h-53v713h754v-299h-113v61q0 55 -20.5 73.5t-77.5 18.5h-420v-418q120 60 254 60q67 0 129 -14
t117.5 -44.5t96.5 -75.5t65 -112t24 -149q0 -195 -127 -312.5t-344 -117.5z" />
    <glyph glyph-name="six.tab" unicode="&#xe455;" horiz-adv-x="1228" 
d="M1106 424q0 -205 -134.5 -330t-348.5 -125q-226 0 -359 147t-133 435v108q0 144 28.5 259t78 192.5t121 129t154 74.5t179.5 23q170 0 276.5 -66t106.5 -171q0 -50 -26.5 -78.5t-69.5 -28.5q-47 0 -73.5 30.5t-26.5 88.5v80q-59 33 -162 33q-408 0 -408 -537v-41
q39 97 128.5 154t228.5 57q106 0 191.5 -35t139 -94.5t81.5 -135t28 -159.5v-10zM629 86q141 0 220 88t79 246v16q0 139 -70 222t-217 83q-144 0 -238 -76.5t-94 -197.5v-10q0 -186 89.5 -278.5t230.5 -92.5z" />
    <glyph glyph-name="seven.tab" unicode="&#xe456;" horiz-adv-x="1228" 
d="M532 0q-36 0 -59.5 23t-23.5 65q0 27 16 70l469 999h-561q-48 0 -67 -17.5t-19 -68.5v-70h-113v308h883v-166l-422 -1045q-18 -51 -41.5 -74.5t-61.5 -23.5z" />
    <glyph glyph-name="eight.tab" unicode="&#xe457;" horiz-adv-x="1228" 
d="M616 -29q-128 0 -234 45t-170.5 133.5t-64.5 204.5v17q0 123 78 208t215 119q-114 32 -182 107t-68 186v10q0 147 119 240.5t307 93.5q187 0 305.5 -93t118.5 -238v-13q0 -111 -68 -186t-181 -107q136 -34 214 -119t78 -206v-17q0 -117 -64.5 -206t-170 -134t-232.5 -45z
M616 92q134 0 211.5 64t77.5 202v33q0 111 -77.5 178.5t-211.5 67.5q-135 0 -212.5 -67t-77.5 -179v-33q0 -138 77.5 -202t212.5 -64zM616 752q120 0 189 54t69 161v30q0 101 -69 160.5t-189 59.5q-122 0 -191 -59.5t-69 -160.5v-30q0 -107 69.5 -161t190.5 -54z" />
    <glyph glyph-name="nine.tab" unicode="&#xe458;" horiz-adv-x="1228" 
d="M537 -31q-170 0 -276.5 66.5t-106.5 171.5q0 50 26 78t70 28q47 0 73.5 -30.5t26.5 -87.5v-80q56 -33 162 -33q408 0 408 536v41q-39 -97 -128.5 -153.5t-228.5 -56.5q-106 0 -191 35t-138.5 94t-82 134.5t-28.5 159.5v11q0 205 135 329.5t348 124.5q109 0 198 -35.5
t155 -105.5t102.5 -182t36.5 -258v-109q0 -179 -43 -312.5t-121 -212t-177 -116t-220 -37.5zM588 565q143 0 237.5 77t94.5 198v10q0 95 -25.5 168.5t-70 118t-101 66.5t-123.5 22q-140 0 -219.5 -90t-79.5 -248v-17q0 -139 70 -222t217 -83z" />
    <glyph glyph-name="cent.tab" unicode="&#xe459;" horiz-adv-x="1228" 
d="M631 -219h-101l17 213q-161 38 -251.5 172t-90.5 330v2q0 119 36 214.5t97 155.5t135.5 94t157.5 42l14 172h100l-14 -172q129 -11 211 -70.5t82 -151.5q0 -44 -25.5 -71t-70.5 -27q-105 0 -105 119v65q-32 28 -100 33l-66 -803q20 -4 68 -4q153 0 293 90v-84
q-43 -53 -129.5 -88t-210.5 -35q-16 0 -31 3zM387 475q0 -276 172 -352l64 774q-105 -19 -170.5 -104.5t-65.5 -243.5v-74z" />
    <glyph glyph-name="dollar.tab" unicode="&#xe45a;" horiz-adv-x="1228" 
d="M590 -219h-101l17 192q-155 13 -246.5 81.5t-91.5 166.5q0 52 26 80.5t70 28.5q47 0 74 -31t27 -88v-74q57 -42 153 -47l47 508q-116 24 -174 57q-85 46 -127.5 118t-42.5 185q0 92 33 164t90.5 116.5t130.5 69t158 27.5l12 135h100l-12 -137q133 -15 217 -77.5
t84 -153.5q0 -52 -26 -80.5t-70 -28.5q-47 0 -73.5 30.5t-26.5 88.5v72q-50 27 -117 33l-43 -486q64 -13 95 -20t79 -24.5t82 -41.5q129 -93 129 -276q0 -99 -35.5 -175.5t-98.5 -124t-144 -72.5t-179 -28zM836 512q-43 33 -172 63l-46 -487q134 9 204.5 74t70.5 200
q0 106 -57 150zM471 797q43 -26 109 -43l41 463q-232 -22 -232 -250q0 -124 82 -170z" />
    <glyph glyph-name="Euro.tab" unicode="&#xe45b;" horiz-adv-x="1228" 
d="M836 698h-443v-123v-6h443v-108h-437q25 -182 126.5 -276.5t267.5 -94.5q197 0 327 137l2 -116q-47 -61 -138.5 -101.5t-217.5 -40.5q-219 0 -363.5 127t-179.5 365h-141v108h133v33v96h-133v109h135q19 242 164 386t383 144q166 0 274.5 -66t108.5 -171
q0 -50 -26.5 -78.5t-69.5 -28.5q-47 0 -74 31t-27 88v74q-59 33 -155 33q-84 0 -151.5 -21.5t-113 -58.5t-76.5 -90t-45 -112.5t-16 -129.5h443v-109z" />
    <glyph glyph-name="C.alt" unicode="&#xe482;" horiz-adv-x="1257" 
d="M678 1337q224 0 330 -151q7 36 17 67t16 43l6 13h86v-379h-119q-13 156 -93.5 225.5t-238.5 69.5q-104 0 -182 -39t-123.5 -110t-67.5 -160t-22 -197v-82q0 -553 438 -553q132 0 227.5 38t182.5 114v-95q-53 -69 -165.5 -120.5t-264.5 -51.5q-287 0 -445 181.5
t-158 513.5v4q0 307 155.5 488t420.5 181z" />
    <glyph glyph-name="R.alt" unicode="&#xe491;" horiz-adv-x="1230" 
d="M952 0l-540 602v-416q0 -59 27 -76.5t100 -17.5h90v-92h-578v92h76q58 0 82 21.5t24 87.5v897q0 65 -24 86.5t-82 21.5h-76v103h625q208 0 315 -97t107 -272q0 -173 -110 -264.5t-300 -91.5h-45l344 -381q69 -75 98.5 -93t85.5 -18h39v-92h-258zM412 668h235
q148 0 207 66.5t59 209.5q0 134 -56 194t-202 60h-243v-530z" />
    <glyph glyph-name="a.alt" unicode="&#xe4c0;" horiz-adv-x="1181" 
d="M1004 981v-819q0 -47 20.5 -64.5t91.5 -17.5h31v-80h-285q-31 117 -31 246q-34 -127 -125 -199t-225 -72q-184 0 -291.5 147.5t-107.5 393.5v2q0 116 35 210t94 153t133 91t154 32q135 0 214.5 -67t118.5 -194q0 55 18 114.5t36 91.5l18 32h101zM535 887
q-269 0 -269 -355v-61q0 -187 64 -288t188 -101q126 0 219.5 108t93.5 277v37q0 186 -83.5 284.5t-212.5 98.5z" />
    <glyph glyph-name="g.alt" unicode="&#xe4c6;" horiz-adv-x="1191" 
d="M532 887q-130 0 -201 -80.5t-71 -247.5v-65q0 -344 264 -344q132 0 229 95t97 249v32q0 166 -92.5 263.5t-225.5 97.5zM526 -317q-188 0 -293.5 57t-105.5 156q0 52 32 79t79 27q45 0 74.5 -28.5t29.5 -77.5v-74q52 -37 158 -37q350 0 350 408v96q-35 -120 -128.5 -182
t-234.5 -62q-194 0 -302.5 133t-108.5 357v2q0 210 120 338.5t298 128.5q147 0 233.5 -58.5t122.5 -177.5q3 50 8 103.5t8 81.5l4 28h287v-98h-14q-74 0 -97.5 -21.5t-23.5 -95.5v-549q0 -267 -130.5 -400.5t-365.5 -133.5z" />
    <glyph glyph-name="idotaccent" horiz-adv-x="540" 
d="M250 1135q-46 0 -79.5 32.5t-33.5 77.5q0 46 33.5 79.5t79.5 33.5t79 -33.5t33 -79.5t-33 -78t-79 -32zM356 981v-813q0 -57 19 -72.5t88 -15.5h41v-80h-463v80h57q54 0 70 17t16 71v598q0 74 -23.5 95.5t-97.5 21.5h-22v98h315z" />
    <glyph glyph-name="space_uni0326" 
d="M297 -178q0 36 30.5 63t67.5 27q47 0 77 -31t30 -90q0 -81 -57 -130t-162 -64v55q81 20 102 74q-44 1 -66 27.5t-22 68.5z" />
    <glyph glyph-name="space.tab" horiz-adv-x="614" 
 />
    <glyph glyph-name="sterling.tab" horiz-adv-x="1228" 
d="M213 580v114h111l-7 201q-7 212 110.5 327t303.5 115q145 0 229 -68.5t84 -168.5q0 -49 -26.5 -77t-69.5 -28q-44 0 -71 30t-27 85v98q-58 15 -109 15q-122 0 -186.5 -78.5t-67.5 -267.5l-4 -183h342v-114h-344l-2 -129q-2 -96 -20 -156.5t-50 -93t-87 -56.5h524
q55 0 76.5 22t21.5 79v53h113v-299h-885v145q40 7 68 22t51.5 44t34 80t8.5 123l-6 166h-115z" />
    <glyph glyph-name="yen.tab" horiz-adv-x="1228" 
d="M172 401h346v129h-346v109h330l-252 457q-42 71 -66.5 90.5t-74.5 19.5h-27v103h493v-103h-61q-70 0 -84.5 -31t23.5 -98l184 -346l186 318q49 85 33.5 121t-106.5 36h-29v103h426v-103h-25q-50 0 -73.5 -20.5t-67.5 -98.5l-262 -448h319v-109h-342v-129h344v-108h-344
v-92q0 -65 24.5 -87t82.5 -22h78v-92h-547v92h78q58 0 82 21.5t24 87.5v92h-346v108z" />
    <glyph glyph-name="florin.tab" horiz-adv-x="1228" 
d="M213 -317q-90 0 -144.5 41.5t-54.5 111.5q0 44 26.5 74.5t68.5 30.5q47 0 72.5 -25t25.5 -72v-84h10q146 0 176 277l76 659h-172v115h186l33 281q10 86 46 148t87.5 94t103.5 45.5t109 13.5q100 0 165 -41.5t65 -122.5q0 -43 -29 -71t-74 -28q-104 0 -104 103v74h-25
q-75 0 -117.5 -56.5t-52.5 -142.5l-35 -297h267v-115h-281l-74 -643q-10 -85 -37.5 -152t-63.5 -107t-81.5 -66t-87 -35.5t-84.5 -9.5z" />
    <glyph glyph-name="percent.tab" horiz-adv-x="1433" 
d="M260 1049v-70q0 -121 34.5 -172t96.5 -51q63 0 97 50.5t34 172.5v70q0 196 -131 196t-131 -196zM391 672q-122 0 -204.5 83.5t-82.5 245.5v17q0 149 79.5 234t207.5 85q129 0 208 -85t79 -234v-17q0 -163 -81.5 -246t-205.5 -83zM913 281q0 -224 131 -224q63 0 97.5 51
t34.5 173v69q0 197 -132 197q-131 0 -131 -197v-69zM1331 303q0 -163 -81.5 -246.5t-205.5 -83.5q-122 0 -204 84t-82 246v16q0 149 79.5 234.5t206.5 85.5q129 0 208 -85.5t79 -234.5v-16zM1231 1309l-901 -1309h-119l901 1309h119z" />
    <glyph glyph-name="perthousand.tab" horiz-adv-x="2048" 
d="M240 1049v-70q0 -121 34.5 -172t96.5 -51q63 0 97 50.5t34 172.5v70q0 196 -131 196t-131 -196zM371 672q-122 0 -204.5 83.5t-82.5 245.5v17q0 149 79.5 234t207.5 85q129 0 207.5 -85t78.5 -234v-17q0 -163 -81 -246t-205 -83zM893 350v-69q0 -224 131 -224q63 0 97 51
t34 173v69q0 197 -131 197t-131 -197zM1024 -27q-122 0 -204.5 84t-82.5 246v16q0 149 80 234.5t207 85.5q129 0 208 -85.5t79 -234.5v-16q0 -163 -81.5 -246.5t-205.5 -83.5zM1548 350v-69q0 -224 131 -224q63 0 97 51t34 173v69q0 197 -131 197t-131 -197zM1679 -27
q-122 0 -204 84t-82 246v16q0 149 79.5 234.5t206.5 85.5q129 0 208 -85.5t79 -234.5v-16q0 -163 -81.5 -246.5t-205.5 -83.5zM1210 1309l-901 -1309h-119l902 1309h118z" />
    <glyph glyph-name="plus.tab" horiz-adv-x="1228" 
d="M672 1051v-353h329v-106h-329v-354h-115v354h-330v106h330v353h115z" />
    <glyph glyph-name="minus.tab" horiz-adv-x="1228" 
d="M227 698h774v-106h-774v106z" />
    <glyph glyph-name="plusminus.tab" horiz-adv-x="1228" 
d="M672 1051v-322h329v-106h-329v-324h-115v324h-330v106h330v322h115zM227 0v106h774v-106h-774z" />
    <glyph glyph-name="multiply.tab" horiz-adv-x="1228" 
d="M963 905l-275 -274l275 -275l-74 -73l-275 274l-274 -274l-74 73l275 275l-275 274l74 74l274 -274l275 274z" />
    <glyph glyph-name="divide.tab" horiz-adv-x="1228" 
d="M227 698h774v-106h-774v106zM614 209q-48 0 -84 35t-36 84t36 85t84 36q51 0 86 -35.5t35 -85.5t-35 -84.5t-86 -34.5zM614 840q-48 0 -84 34.5t-36 83.5t36 85t84 36q51 0 86 -35.5t35 -85.5t-35 -84t-86 -34z" />
    <glyph glyph-name="equal.tab" horiz-adv-x="1228" 
d="M203 535h823v-107h-823v107zM203 862h823v-106h-823v106z" />
    <glyph glyph-name="notequal.tab" horiz-adv-x="1228" 
d="M897 1112l-119 -250h248v-106h-299l-104 -221h403v-107h-455l-125 -264h-114l125 264h-254v107h305l104 221h-409v106h461l118 250h115z" />
    <glyph glyph-name="approxequal.tab" horiz-adv-x="1228" 
d="M426 784q-53 0 -79.5 -20.5t-41.5 -71.5h-112q14 95 64.5 150t158.5 55q84 0 213.5 -34t181.5 -34q51 0 77 21t38 72h110q-23 -205 -205 -205q-80 0 -215.5 33.5t-189.5 33.5zM426 414q-53 0 -79.5 -20.5t-41.5 -71.5h-112q6 45 20 79.5t38.5 64t66.5 45t98 15.5
q84 0 213.5 -33.5t181.5 -33.5q51 0 77 20.5t38 71.5h110q-23 -205 -205 -205q-80 0 -215.5 34t-189.5 34z" />
    <glyph glyph-name="less.tab" horiz-adv-x="1228" 
d="M233 705l762 368v-117l-641 -311l641 -309v-119l-762 369v119z" />
    <glyph glyph-name="greater.tab" horiz-adv-x="1228" 
d="M995 705v-119l-762 -369v119l641 309l-641 311v117z" />
    <glyph glyph-name="lessequal.tab" horiz-adv-x="1228" 
d="M233 725l762 328v-117l-635 -272l635 -308v-118l-762 368v119zM233 0v106h762v-106h-762z" />
    <glyph glyph-name="greaterequal.tab" horiz-adv-x="1228" 
d="M995 725v-119l-762 -368v118l633 308l-633 272v117zM995 0h-762v106h762v-106z" />
    <glyph glyph-name="period.tab" horiz-adv-x="614" 
d="M307 -14q-48 0 -84.5 34.5t-36.5 83.5t36.5 85t84.5 36q51 0 86 -35.5t35 -85.5t-35 -84t-86 -34z" />
    <glyph glyph-name="comma.tab" horiz-adv-x="614" 
d="M193 109q0 49 34.5 82.5t85.5 33.5q56 0 92.5 -42.5t36.5 -127.5q0 -126 -70.5 -206t-197.5 -99v72q66 17 103.5 62.5t37.5 107.5q-60 -3 -91 30.5t-31 86.5z" />
    <glyph glyph-name="colon.tab" horiz-adv-x="614" 
d="M307 -14q-48 0 -84.5 34.5t-36.5 83.5t36.5 85t84.5 36q51 0 86 -35.5t35 -85.5t-35 -84t-86 -34zM307 621q-48 0 -84.5 34.5t-36.5 83.5t36.5 85t84.5 36q51 0 86 -35.5t35 -85.5t-35 -84t-86 -34z" />
    <glyph glyph-name="semicolon.tab" horiz-adv-x="614" 
d="M193 109q0 -53 31 -86.5t91 -30.5q0 -62 -37.5 -107.5t-103.5 -62.5v-72q127 19 197.5 99t70.5 206q0 85 -36.5 127.5t-92.5 42.5q-51 0 -85.5 -33.5t-34.5 -82.5zM307 621q-48 0 -84.5 34.5t-36.5 83.5t36.5 85t84.5 36q51 0 86 -35.5t35 -85.5t-35 -84t-86 -34z" />
    <glyph glyph-name="parenleft.tab" horiz-adv-x="614" 
d="M317 612v-63q0 -387 275 -666v-80q-50 25 -104.5 67t-117 111t-111.5 149.5t-81.5 190.5t-32.5 226v67q0 122 32.5 235t81.5 195t111.5 152t117 111.5t104.5 66.5v-80q-275 -241 -275 -682z" />
    <glyph glyph-name="parenright.tab" horiz-adv-x="614" 
d="M297 549v63q0 442 -274 682v80q50 -25 104.5 -66.5t117 -111.5t111 -152t81 -195t32.5 -235v-67q0 -116 -32.5 -226t-81 -190.5t-111 -149.5t-117 -111t-104.5 -67v80q274 278 274 666z" />
    <glyph glyph-name="bracketleft.tab" horiz-adv-x="614" 
d="M621 -201h-463v1579h463v-78h-302v-1431h302v-70z" />
    <glyph glyph-name="bracketright.tab" horiz-adv-x="614" 
d="M457 -201h-463v70h301v1431h-301v78h463v-1579z" />
    <glyph glyph-name="braceleft.tab" horiz-adv-x="614" 
d="M182 596v-6q140 -7 200 -71.5t60 -160.5q0 -55 -27.5 -164.5t-27.5 -168.5q0 -86 40.5 -120t133.5 -28v-70q-342 -11 -342 216q0 67 43 170t43 167q0 77 -48 124.5t-165 54.5v108q213 13 213 172q0 55 -43 161t-43 173q0 228 342 217v-78q-93 6 -133.5 -27t-40.5 -114
q0 -55 27.5 -162t27.5 -162q0 -44 -12.5 -81.5t-41 -70.5t-81 -54t-125.5 -25z" />
    <glyph glyph-name="braceright.tab" horiz-adv-x="614" 
d="M432 590v6q-73 4 -125.5 25t-81 54t-41 70.5t-12.5 81.5q0 55 27.5 162t27.5 162q0 81 -40.5 114t-133.5 27v78q342 11 342 -217q0 -67 -43 -173t-43 -161q0 -159 213 -172v-108q-117 -7 -165 -54.5t-48 -124.5q0 -64 43 -167t43 -170q0 -227 -342 -216v70
q93 -6 133.5 28t40.5 120q0 59 -27.5 168.5t-27.5 164.5q0 96 60 160.5t200 71.5z" />
    <glyph glyph-name="zero.num" horiz-adv-x="761" 
d="M381 598q178 0 178 293v90q0 262 -178 262t-178 -262v-90q0 -293 178 -293zM381 520q-139 0 -231.5 99t-92.5 292v39q0 180 88.5 277.5t235.5 97.5t235.5 -97.5t88.5 -277.5v-39q0 -194 -91.5 -292.5t-232.5 -98.5z" />
    <glyph glyph-name="one.num" horiz-adv-x="518" 
d="M475 539h-393v69h68q35 0 49 12.5t14 51.5v530l-143 -160v107l143 160h141v-637q0 -39 14.5 -51.5t47.5 -12.5h59v-69z" />
    <glyph glyph-name="two.num" horiz-adv-x="624" 
d="M565 539h-514v112q186 118 273.5 220t87.5 216q0 81 -40.5 119.5t-107.5 38.5q-48 0 -78 -18v-39q0 -38 -19 -58t-50 -20q-30 0 -49 19.5t-19 52.5q0 64 67.5 103.5t174.5 39.5q121 0 194.5 -58t73.5 -177q0 -68 -27 -128t-82 -115t-122.5 -101.5t-165.5 -102.5h258
q36 0 49.5 13t13.5 46v27h82v-190z" />
    <glyph glyph-name="three.num" horiz-adv-x="630" 
d="M283 526q-114 0 -184 41.5t-70 106.5q0 30 18.5 47.5t48.5 17.5q70 0 70 -75v-41q34 -19 92 -19q82 0 127 38t45 110q0 71 -39.5 106t-126.5 35h-92v82h90q74 0 111 36.5t37 100.5q0 133 -148 133q-51 0 -78 -18v-39q0 -38 -19 -58t-50 -20t-50.5 19.5t-19.5 52.5
q0 64 66 103.5t170 39.5q119 0 192.5 -55t73.5 -150q0 -76 -45.5 -123t-132.5 -59v-2q98 -11 152 -60t54 -135q0 -102 -77 -158.5t-215 -56.5z" />
    <glyph glyph-name="four.num" horiz-adv-x="684" 
d="M49 754v77l342 478h137v-478h101v-77h-101v-82q0 -39 14.5 -51.5t47.5 -12.5h49v-69h-369v69h54q35 0 49 12.5t14 51.5v82h-338zM387 1178l-248 -347h248v347z" />
    <glyph glyph-name="five.num" horiz-adv-x="632" 
d="M285 526q-112 0 -181 41.5t-69 106.5q0 30 18.5 47.5t48.5 17.5q68 0 68 -75v-43q35 -17 86 -17q82 0 128 44.5t46 127.5q0 74 -41 117t-127 43q-95 0 -153 -55h-31v428h461v-193h-82v29q0 32 -14.5 43.5t-51.5 11.5h-225v-221q68 35 149 35q112 0 186 -59.5t74 -176.5
q0 -116 -77.5 -184t-212.5 -68z" />
    <glyph glyph-name="six.num" horiz-adv-x="724" 
d="M672 786q0 -120 -82.5 -193t-220.5 -73q-147 0 -229.5 90.5t-82.5 259.5v58q0 200 98 298.5t259 98.5q107 0 172 -40t65 -103q0 -33 -18.5 -52.5t-48.5 -19.5q-32 0 -51 20t-19 58v39q-30 18 -84 18q-227 0 -227 -299v-28q50 120 213 120q122 0 189 -70t67 -175v-7z
M371 602q76 0 117.5 45t41.5 133v11q0 78 -38 122.5t-115 44.5t-125.5 -41.5t-48.5 -111.5v-6q0 -100 46 -148.5t122 -48.5z" />
    <glyph glyph-name="seven.num" horiz-adv-x="608" 
d="M254 535q-30 0 -49 17t-19 48q0 20 21 62l248 532h-262q-35 0 -48.5 -13t-13.5 -48v-33h-82v209h500v-115l-213 -582q-15 -40 -32.5 -58.5t-49.5 -18.5z" />
    <glyph glyph-name="eight.num" horiz-adv-x="681" 
d="M342 522q-126 0 -208.5 60t-82.5 163v11q0 71 46.5 121.5t129.5 70.5q-69 20 -109 62.5t-40 107.5v8q0 86 73 141.5t191 55.5q117 0 189.5 -55.5t72.5 -141.5v-8q0 -65 -40.5 -107.5t-110.5 -62.5q84 -20 131 -70t47 -120v-10q0 -104 -82.5 -165t-206.5 -61zM342 604
q147 0 147 146v22q0 64 -39 100.5t-108 36.5t-108 -36.5t-39 -100.5v-22q0 -146 147 -146zM342 981q61 0 96 29.5t35 89.5v18q0 58 -34.5 90.5t-96.5 32.5q-63 0 -97 -32t-34 -91v-18q0 -60 34.5 -89.5t96.5 -29.5z" />
    <glyph glyph-name="nine.num" horiz-adv-x="724" 
d="M348 885q76 0 124 41t48 110v8q0 101 -46 150t-122 49q-75 0 -116 -46.5t-41 -135.5v-10q0 -166 153 -166zM309 520q-105 0 -170 40.5t-65 103.5q0 33 18.5 52t48.5 19q31 0 50.5 -20t19.5 -58v-43q27 -16 84 -16q109 0 168 74t59 227v27q-54 -121 -213 -121
q-122 0 -190 70.5t-68 175.5v6q0 120 83 194t220 74q147 0 229.5 -90.5t82.5 -259.5v-57q0 -199 -97.5 -298.5t-259.5 -99.5z" />
    <glyph glyph-name="zero.den" horiz-adv-x="761" 
d="M381 59q178 0 178 293v90q0 263 -178 263t-178 -263v-90q0 -293 178 -293zM381 -18q-139 0 -231.5 99t-92.5 292v39q0 180 88.5 277t235.5 97t235.5 -97t88.5 -277v-39q0 -194 -91.5 -292.5t-232.5 -98.5z" />
    <glyph glyph-name="one.den" horiz-adv-x="518" 
d="M475 0h-393v70h68q35 0 49 12t14 51v531l-143 -160v106l143 160h141v-637q0 -39 14 -51t48 -12h59v-70z" />
    <glyph glyph-name="two.den" horiz-adv-x="624" 
d="M565 0h-514v113q186 118 273.5 220t87.5 216q0 81 -40.5 119.5t-107.5 38.5q-46 0 -78 -19v-39q0 -38 -19 -58t-50 -20q-30 0 -49 19.5t-19 52.5q0 64 67.5 103.5t174.5 39.5q121 0 194.5 -58t73.5 -177q0 -68 -27 -128t-82 -115t-122.5 -101.5t-165.5 -102.5h258
q36 0 49.5 13.5t13.5 46.5v26h82v-190z" />
    <glyph glyph-name="three.den" horiz-adv-x="630" 
d="M283 -12q-115 0 -184.5 41t-69.5 106q0 30 18.5 48t48.5 18q32 0 51 -18.5t19 -57.5v-41q32 -18 92 -18q82 0 127 38t45 109t-39.5 106t-126.5 35h-92v82h90q74 0 111 36.5t37 100.5q0 134 -148 134q-50 0 -78 -19v-39q0 -38 -19 -58t-50 -20t-50.5 19.5t-19.5 52.5
q0 64 66 103.5t170 39.5q119 0 192.5 -54.5t73.5 -149.5q0 -76 -45.5 -123.5t-132.5 -59.5v-2q98 -11 152 -59.5t54 -134.5q0 -102 -77 -158.5t-215 -56.5z" />
    <glyph glyph-name="four.den" horiz-adv-x="684" 
d="M49 215v78l342 477h137v-477h101v-78h-101v-82q0 -39 14 -51t48 -12h49v-70h-369v70h54q35 0 49 12t14 51v82h-338zM387 639l-248 -346h248v346z" />
    <glyph glyph-name="five.den" horiz-adv-x="632" 
d="M285 -12q-112 0 -181 41t-69 106q0 30 18.5 48t48.5 18q68 0 68 -76v-43q33 -16 86 -16q82 0 128 44.5t46 127.5q0 74 -41 116.5t-127 42.5q-95 0 -153 -55h-31v428h461v-192h-82v28q0 32 -14.5 44t-51.5 12h-225v-222q68 35 149 35q112 0 186 -59t74 -176
q0 -116 -77.5 -184t-212.5 -68z" />
    <glyph glyph-name="six.den" horiz-adv-x="724" 
d="M672 248q0 -120 -82.5 -193t-220.5 -73q-147 0 -229.5 90.5t-82.5 259.5v57q0 200 98 298.5t259 98.5q107 0 172 -40t65 -103q0 -33 -18.5 -52.5t-48.5 -19.5q-32 0 -51 20t-19 58v39q-32 19 -84 19q-227 0 -227 -299v-29q23 55 76.5 88t136.5 33q122 0 189 -70.5
t67 -175.5v-6zM371 63q76 0 117.5 45.5t41.5 133.5v10q0 78 -38 123t-115 45t-125.5 -42t-48.5 -112v-6q0 -100 46 -148.5t122 -48.5z" />
    <glyph glyph-name="seven.den" horiz-adv-x="608" 
d="M254 -4q-30 0 -49 17t-19 48q0 20 21 62l248 532h-262q-35 0 -48.5 -13t-13.5 -48v-33h-82v209h500v-115l-213 -581q-15 -40 -32.5 -59t-49.5 -19z" />
    <glyph glyph-name="eight.den" horiz-adv-x="681" 
d="M342 -16q-126 0 -208.5 60t-82.5 163v10q0 71 46.5 122t129.5 71q-69 20 -109 62.5t-40 107.5v8q0 86 72.5 141t191.5 55q117 0 189.5 -55t72.5 -141v-8q0 -65 -40.5 -107.5t-110.5 -62.5q84 -20 131 -70.5t47 -120.5v-10q0 -104 -82.5 -164.5t-206.5 -60.5zM342 66
q147 0 147 145v22q0 65 -39 101.5t-108 36.5t-108 -36.5t-39 -101.5v-22q0 -145 147 -145zM342 442q61 0 96 29.5t35 89.5v19q0 58 -34.5 90t-96.5 32q-63 0 -97 -31.5t-34 -90.5v-19q0 -60 34.5 -89.5t96.5 -29.5z" />
    <glyph glyph-name="nine.den" horiz-adv-x="724" 
d="M348 346q76 0 124 41t48 111v8q0 101 -46 150t-122 49q-75 0 -116 -47t-41 -136v-10q0 -166 153 -166zM309 -18q-105 0 -170 40t-65 103q0 33 18.5 52.5t48.5 19.5q31 0 50.5 -20t19.5 -58v-43q28 -17 84 -17q109 0 168 74t59 227v27q-54 -121 -213 -121
q-122 0 -190 70.5t-68 175.5v6q0 120 83 194t220 74q147 0 229.5 -90.5t82.5 -259.5v-57q0 -199 -97.5 -298t-259.5 -99z" />
    <glyph glyph-name="zero.sub" horiz-adv-x="761" 
d="M381 -125q178 0 178 293v90q0 262 -178 262t-178 -262v-90q0 -293 178 -293zM381 -203q-139 0 -231.5 99t-92.5 292v39q0 180 88.5 277.5t235.5 97.5t235.5 -97.5t88.5 -277.5v-39q0 -194 -91.5 -292.5t-232.5 -98.5z" />
    <glyph glyph-name="one.sub" horiz-adv-x="518" 
d="M475 -184h-393v69h68q35 0 49 12.5t14 51.5v530l-143 -160v107l143 160h141v-637q0 -39 14.5 -51.5t47.5 -12.5h59v-69z" />
    <glyph glyph-name="two.sub" horiz-adv-x="624" 
d="M565 -184h-514v112q186 118 273.5 220.5t87.5 216.5q0 81 -40.5 119t-107.5 38q-48 0 -78 -18v-39q0 -38 -19 -58t-50 -20q-30 0 -49 19.5t-19 52.5q0 64 67.5 103.5t174.5 39.5q121 0 194.5 -58t73.5 -177q0 -68 -27 -128t-82 -115t-122.5 -101.5t-165.5 -102.5h258
q36 0 49.5 13.5t13.5 46.5v26h82v-190z" />
    <glyph glyph-name="three.sub" horiz-adv-x="630" 
d="M283 -197q-114 0 -184 41.5t-70 106.5q0 30 18.5 47.5t48.5 17.5q70 0 70 -75v-41q34 -19 92 -19q82 0 127 38t45 110q0 71 -39.5 106t-126.5 35h-92v82h90q74 0 111 36.5t37 100.5q0 133 -148 133q-51 0 -78 -18v-39q0 -38 -19 -58t-50 -20t-50.5 19.5t-19.5 52.5
q0 64 66 103.5t170 39.5q119 0 192.5 -55t73.5 -150q0 -76 -45.5 -123t-132.5 -59v-2q98 -11 152 -60t54 -135q0 -102 -77 -158.5t-215 -56.5z" />
    <glyph glyph-name="four.sub" horiz-adv-x="684" 
d="M49 31v78l342 477h137v-477h101v-78h-101v-82q0 -39 14.5 -51.5t47.5 -12.5h49v-69h-369v69h54q35 0 49 12.5t14 51.5v82h-338zM387 455l-248 -346h248v346z" />
    <glyph glyph-name="five.sub" horiz-adv-x="632" 
d="M285 -197q-112 0 -181 41.5t-69 106.5q0 30 18.5 47.5t48.5 17.5q68 0 68 -75v-43q35 -17 86 -17q82 0 128 44.5t46 127.5q0 74 -41 117t-127 43q-95 0 -153 -55h-31v428h461v-193h-82v29q0 32 -14.5 43.5t-51.5 11.5h-225v-221q68 35 149 35q112 0 186 -59.5t74 -176.5
q0 -116 -77.5 -184t-212.5 -68z" />
    <glyph glyph-name="six.sub" horiz-adv-x="724" 
d="M672 63q0 -120 -82.5 -193t-220.5 -73q-147 0 -229.5 90.5t-82.5 259.5v58q0 200 98 298.5t259 98.5q107 0 172 -40t65 -103q0 -33 -18.5 -52.5t-48.5 -19.5q-32 0 -51 20t-19 58v39q-30 18 -84 18q-227 0 -227 -299v-28q50 120 213 120q122 0 189 -70t67 -175v-7z
M371 -121q76 0 117.5 45t41.5 133v11q0 78 -38 123t-115 45t-125.5 -42t-48.5 -112v-6q0 -100 46 -148.5t122 -48.5z" />
    <glyph glyph-name="seven.sub" horiz-adv-x="608" 
d="M254 -188q-30 0 -49 17t-19 48q0 20 21 62l248 532h-262q-35 0 -48.5 -13t-13.5 -48v-33h-82v209h500v-115l-213 -582q-15 -40 -32.5 -58.5t-49.5 -18.5z" />
    <glyph glyph-name="eight.sub" horiz-adv-x="681" 
d="M342 -201q-125 0 -208 60.5t-83 163.5v10q0 71 46.5 121.5t129.5 70.5q-69 20 -109 62.5t-40 107.5v8q0 86 73 141.5t191 55.5q117 0 189.5 -55.5t72.5 -141.5v-8q0 -65 -40.5 -107.5t-110.5 -62.5q84 -20 131 -70t47 -120v-10q0 -104 -82.5 -165t-206.5 -61zM342 -119
q147 0 147 146v22q0 64 -39 100.5t-108 36.5t-108 -36.5t-39 -100.5v-22q0 -146 147 -146zM342 258q61 0 96 29.5t35 89.5v18q0 58 -34.5 90.5t-96.5 32.5q-63 0 -97 -32t-34 -91v-18q0 -60 34.5 -89.5t96.5 -29.5z" />
    <glyph glyph-name="nine.sub" horiz-adv-x="724" 
d="M348 162q76 0 124 41t48 110v9q0 101 -45.5 149.5t-122.5 48.5q-75 0 -116 -46.5t-41 -135.5v-10q0 -166 153 -166zM309 -203q-105 0 -170 40.5t-65 103.5q0 33 18.5 52t48.5 19q31 0 50.5 -20t19.5 -58v-43q27 -16 84 -16q109 0 168 74t59 227v27q-54 -121 -213 -121
q-122 0 -190 70.5t-68 175.5v6q0 120 83 194t220 74q147 0 229.5 -90.5t82.5 -259.5v-57q0 -199 -97.5 -298.5t-259.5 -99.5z" />
    <glyph glyph-name="plus.sub" horiz-adv-x="528" 
d="M61 186h160v172h84v-172h162v-77h-162v-172h-84v172h-160v77z" />
    <glyph glyph-name="minus.sub" horiz-adv-x="528" 
d="M61 186h406v-77h-406v77z" />
    <glyph glyph-name="zero.sup" horiz-adv-x="761" 
d="M381 705q178 0 178 292v90q0 263 -178 263t-178 -263v-90q0 -292 178 -292zM381 627q-139 0 -231.5 99t-92.5 292v39q0 180 88.5 277.5t235.5 97.5t235.5 -97.5t88.5 -277.5v-39q0 -194 -91.5 -292.5t-232.5 -98.5z" />
    <glyph glyph-name="one.sup" horiz-adv-x="518" 
d="M475 645h-393v70h68q35 0 49 12t14 51v531l-143 -160v106l143 160h141v-637q0 -39 14 -51t48 -12h59v-70z" />
    <glyph glyph-name="two.sup" horiz-adv-x="624" 
d="M565 645h-514v113q186 118 273.5 220t87.5 216q0 81 -40.5 119.5t-107.5 38.5q-46 0 -78 -19v-39q0 -38 -19 -57.5t-50 -19.5q-30 0 -49 19t-19 52q0 64 68 104t174 40q121 0 194.5 -58.5t73.5 -177.5q0 -68 -26.5 -128t-82.5 -114.5t-123 -101t-165 -102.5h258
q36 0 49.5 13t13.5 46v27h82v-191z" />
    <glyph glyph-name="three.sup" horiz-adv-x="630" 
d="M283 633q-115 0 -184.5 41t-69.5 106q0 30 18.5 48t48.5 18q32 0 51 -18.5t19 -57.5v-41q32 -18 92 -18q82 0 127 38t45 109t-39.5 106t-126.5 35h-92v82h90q74 0 111 37t37 101q0 133 -148 133q-50 0 -78 -19v-39q0 -38 -19 -57.5t-50 -19.5t-50.5 19t-19.5 52
q0 64 66.5 104t169.5 40q119 0 192.5 -55t73.5 -150q0 -76 -45.5 -123.5t-132.5 -59.5v-2q98 -11 152 -59.5t54 -134.5q0 -102 -77 -158.5t-215 -56.5z" />
    <glyph glyph-name="four.sup" horiz-adv-x="684" 
d="M49 860v78l342 477h137v-477h101v-78h-101v-82q0 -39 14 -51t48 -12h49v-70h-369v70h54q35 0 49 12t14 51v82h-338zM387 1284l-248 -346h248v346z" />
    <glyph glyph-name="five.sup" horiz-adv-x="632" 
d="M285 633q-112 0 -181 41t-69 106q0 30 18.5 48t48.5 18q68 0 68 -76v-43q33 -16 86 -16q82 0 128 44.5t46 127.5q0 74 -41 116.5t-127 42.5q-95 0 -153 -55h-31v428h461v-192h-82v28q0 32 -14.5 44t-51.5 12h-225v-222q68 35 149 35q112 0 186 -59t74 -176
q0 -116 -77.5 -184t-212.5 -68z" />
    <glyph glyph-name="six.sup" horiz-adv-x="724" 
d="M672 893q0 -120 -82.5 -193t-220.5 -73q-147 0 -229.5 90.5t-82.5 259.5v57q0 200 98 299t259 99q106 0 171.5 -40t65.5 -104q0 -33 -18.5 -52t-48.5 -19q-32 0 -51 19.5t-19 57.5v39q-32 19 -84 19q-227 0 -227 -299v-29q23 55 76.5 88t136.5 33q122 0 189 -70.5
t67 -175.5v-6zM371 709q76 0 117.5 45t41.5 133v10q0 78 -38 123t-115 45t-125.5 -42t-48.5 -112v-6q0 -100 46 -148t122 -48z" />
    <glyph glyph-name="seven.sup" horiz-adv-x="608" 
d="M254 641q-30 0 -49 17.5t-19 48.5q0 19 21 61l248 532h-262q-35 0 -48.5 -13t-13.5 -48v-33h-82v209h500v-115l-213 -581q-15 -40 -32.5 -59t-49.5 -19z" />
    <glyph glyph-name="eight.sup" horiz-adv-x="681" 
d="M342 629q-126 0 -208.5 60t-82.5 163v10q0 71 46.5 122t129.5 71q-69 20 -109 62.5t-40 107.5v8q0 86 73 141.5t191 55.5q117 0 189.5 -55.5t72.5 -141.5v-8q0 -65 -40.5 -107.5t-110.5 -62.5q84 -20 131 -70.5t47 -120.5v-10q0 -104 -82.5 -164.5t-206.5 -60.5zM342 711
q147 0 147 145v23q0 64 -39 100.5t-108 36.5t-108 -36.5t-39 -100.5v-23q0 -145 147 -145zM342 1087q61 0 96 29.5t35 89.5v19q0 58 -34.5 90.5t-96.5 32.5q-63 0 -97 -32t-34 -91v-19q0 -60 34.5 -89.5t96.5 -29.5z" />
    <glyph glyph-name="nine.sup" horiz-adv-x="724" 
d="M348 991q76 0 124 41t48 111v8q0 101 -46 150t-122 49q-75 0 -116 -47t-41 -136v-10q0 -166 153 -166zM309 627q-105 0 -170 40t-65 103q0 33 18.5 52.5t48.5 19.5q31 0 50.5 -20t19.5 -58v-43q27 -16 84 -16q109 0 168 74t59 227v26q-54 -121 -213 -121
q-122 0 -190 70.5t-68 175.5v6q0 121 83 195t220 74q147 0 229.5 -90.5t82.5 -260.5v-57q0 -199 -97.5 -298t-259.5 -99z" />
    <glyph glyph-name="plus.sup" horiz-adv-x="528" 
d="M305 1321v-172h162v-78h-162v-172h-84v172h-160v78h160v172h84z" />
    <glyph glyph-name="minus.sup" horiz-adv-x="528" 
d="M61 1149h406v-78h-406v78z" />
    <glyph glyph-name="Cacute.alt" horiz-adv-x="1257" 
d="M678 1337q224 0 330 -151q7 36 17 67t16 43l6 13h86v-379h-119q-13 156 -93.5 225.5t-238.5 69.5q-104 0 -182 -39t-123.5 -110t-67.5 -160t-22 -197v-82q0 -553 438 -553q132 0 227.5 38t182.5 114v-95q-53 -69 -165.5 -120.5t-264.5 -51.5q-287 0 -445 181.5
t-158 513.5v4q0 307 155.5 488t420.5 181zM590 1382l-33 31l100 189q23 44 48.5 62.5t62.5 18.5q38 0 63 -26t25 -66q0 -66 -82 -108z" />
    <glyph glyph-name="Ccaron.alt" horiz-adv-x="1257" 
d="M678 1337q224 0 330 -151q7 36 17 67t16 43l6 13h86v-379h-119q-13 156 -93.5 225.5t-238.5 69.5q-104 0 -182 -39t-123.5 -110t-67.5 -160t-22 -197v-82q0 -553 438 -553q132 0 227.5 38t182.5 114v-95q-53 -69 -165.5 -120.5t-264.5 -51.5q-287 0 -445 181.5
t-158 513.5v4q0 307 155.5 488t420.5 181zM416 1595l45 45l223 -84l223 84l45 -45l-223 -202h-90z" />
    <glyph glyph-name="Ccedilla.alt" horiz-adv-x="1257" 
d="M678 1337q224 0 330 -151q7 36 17 67t16 43l6 13h86v-379h-119q-13 156 -93.5 225.5t-238.5 69.5q-104 0 -182 -39t-123.5 -110t-67.5 -160t-22 -197v-82q0 -553 438 -553q132 0 227.5 38t182.5 114v-95q-53 -69 -165.5 -120.5t-264.5 -51.5h-23v-49q170 -16 170 -156
q0 -70 -51.5 -108.5t-141.5 -38.5q-100 0 -141 41v61q50 -20 96 -20q95 0 95 78q0 86 -138 88v117q-225 38 -347 214t-122 468v4q0 307 155.5 488t420.5 181z" />
    <glyph glyph-name="Ccircumflex.alt" horiz-adv-x="1257" 
d="M678 1337q224 0 330 -151q7 36 17 67t16 43l6 13h86v-379h-119q-13 156 -93.5 225.5t-238.5 69.5q-104 0 -182 -39t-123.5 -110t-67.5 -160t-22 -197v-82q0 -553 438 -553q132 0 227.5 38t182.5 114v-95q-53 -69 -165.5 -120.5t-264.5 -51.5q-287 0 -445 181.5
t-158 513.5v4q0 307 155.5 488t420.5 181zM887 1393l-223 84l-224 -84l-45 45l223 202h91l223 -202z" />
    <glyph glyph-name="Cdotaccent.alt" horiz-adv-x="1257" 
d="M678 1337q224 0 330 -151q7 36 17 67t16 43l6 13h86v-379h-119q-13 156 -93.5 225.5t-238.5 69.5q-104 0 -182 -39t-123.5 -110t-67.5 -160t-22 -197v-82q0 -553 438 -553q132 0 227.5 38t182.5 114v-95q-53 -69 -165.5 -120.5t-264.5 -51.5q-287 0 -445 181.5
t-158 513.5v4q0 307 155.5 488t420.5 181zM664 1417q-46 0 -79.5 32.5t-33.5 78.5t33.5 79t79.5 33t79 -33t33 -79t-33 -78.5t-79 -32.5z" />
    <glyph glyph-name="Racute.alt" horiz-adv-x="1230" 
d="M952 0l-540 602v-416q0 -59 27 -76.5t100 -17.5h90v-92h-578v92h76q58 0 82 21.5t24 87.5v897q0 65 -24 86.5t-82 21.5h-76v103h625q208 0 315 -97t107 -272q0 -173 -110 -264.5t-300 -91.5h-45l344 -381q69 -75 98.5 -93t85.5 -18h39v-92h-258zM412 668h235
q148 0 207 66.5t59 209.5q0 134 -56 194t-202 60h-243v-530zM520 1382l-33 31l101 189q23 44 48 62.5t62 18.5q38 0 63 -26t25 -66t-22 -64.5t-59 -43.5z" />
    <glyph glyph-name="Rcaron.alt" horiz-adv-x="1230" 
d="M952 0l-540 602v-416q0 -59 27 -76.5t100 -17.5h90v-92h-578v92h76q58 0 82 21.5t24 87.5v897q0 65 -24 86.5t-82 21.5h-76v103h625q208 0 315 -97t107 -272q0 -173 -110 -264.5t-300 -91.5h-45l344 -381q69 -75 98.5 -93t85.5 -18h39v-92h-258zM412 668h235
q148 0 207 66.5t59 209.5q0 134 -56 194t-202 60h-243v-530zM326 1595l45 45l223 -84l223 84l45 -45l-223 -202h-90z" />
    <glyph glyph-name="Rcommaaccent.alt" horiz-adv-x="1222" 
d="M944 0l-541 602v-416q0 -59 27 -76.5t100 -17.5h91v-92h-578v92h76q58 0 82 21.5t24 87.5v897q0 65 -24 86.5t-82 21.5h-76v103h625q208 0 315 -97t107 -272q0 -173 -110 -264.5t-300 -91.5h-45l344 -381q69 -75 98.5 -93t85.5 -18h39v-92h-258zM403 668h236
q148 0 207 66.5t59 209.5q0 134 -56 194t-202 60h-244v-530zM633 -178q0 -42 22 -68.5t66 -27.5q-21 -54 -103 -74v-55q105 15 162.5 64t57.5 130q0 59 -30 90t-77 31q-37 0 -67.5 -27t-30.5 -63z" />
    <glyph glyph-name="aacute.alt" horiz-adv-x="1181" 
d="M1004 981v-819q0 -47 20.5 -64.5t91.5 -17.5h31v-80h-285q-31 117 -31 246q-34 -127 -125 -199t-225 -72q-184 0 -291.5 147.5t-107.5 393.5v2q0 116 35 210t94 153t133 91t154 32q135 0 214.5 -67t118.5 -194q0 55 18 114.5t36 91.5l18 32h101zM535 887
q-269 0 -269 -355v-61q0 -187 64 -288t188 -101q126 0 219.5 108t93.5 277v37q0 186 -83.5 284.5t-212.5 98.5zM489 1083l-36 37l133 211q33 51 58 72.5t65 21.5q43 0 66.5 -25t23.5 -65q0 -38 -20 -62t-58 -48z" />
    <glyph glyph-name="abreve.alt" horiz-adv-x="1181" 
d="M1004 981v-819q0 -47 20.5 -64.5t91.5 -17.5h31v-80h-285q-31 117 -31 246q-34 -127 -125 -199t-225 -72q-184 0 -291.5 147.5t-107.5 393.5v2q0 116 35 210t94 153t133 91t154 32q135 0 214.5 -67t118.5 -194q0 55 18 114.5t36 91.5l18 32h101zM535 887
q-269 0 -269 -355v-61q0 -187 64 -288t188 -101q126 0 219.5 108t93.5 277v37q0 186 -83.5 284.5t-212.5 98.5zM715 1378h73q6 -50 -5 -98.5t-37.5 -89t-75.5 -65.5t-113 -25q-84 0 -139.5 42.5t-75.5 104t-12 131.5h73q-3 -64 33 -104.5t121 -40.5t122.5 41t35.5 104z" />
    <glyph glyph-name="acircumflex.alt" horiz-adv-x="1181" 
d="M1004 981v-819q0 -47 20.5 -64.5t91.5 -17.5h31v-80h-285q-31 117 -31 246q-34 -127 -125 -199t-225 -72q-184 0 -291.5 147.5t-107.5 393.5v2q0 116 35 210t94 153t133 91t154 32q135 0 214.5 -67t118.5 -194q0 55 18 114.5t36 91.5l18 32h101zM535 887
q-269 0 -269 -355v-61q0 -187 64 -288t188 -101q126 0 219.5 108t93.5 277v37q0 186 -83.5 284.5t-212.5 98.5zM805 1085l-223 132l-224 -132l-39 45l218 261h90l217 -261z" />
    <glyph glyph-name="adieresis.alt" horiz-adv-x="1181" 
d="M1004 981v-819q0 -47 20.5 -64.5t91.5 -17.5h31v-80h-285q-31 117 -31 246q-34 -127 -125 -199t-225 -72q-184 0 -291.5 147.5t-107.5 393.5v2q0 116 35 210t94 153t133 91t154 32q135 0 214.5 -67t118.5 -194q0 55 18 114.5t36 91.5l18 32h101zM535 887
q-269 0 -269 -355v-61q0 -187 64 -288t188 -101q126 0 219.5 108t93.5 277v37q0 186 -83.5 284.5t-212.5 98.5zM389 1128q-44 0 -76 31.5t-32 75.5q0 43 32 74.5t76 31.5q43 0 75 -31.5t32 -74.5q0 -44 -32 -75.5t-75 -31.5zM741 1128q-43 0 -74.5 31.5t-31.5 75.5
q0 43 31.5 74.5t74.5 31.5q44 0 76.5 -31.5t32.5 -74.5q0 -44 -32.5 -75.5t-76.5 -31.5z" />
    <glyph glyph-name="agrave.alt" horiz-adv-x="1181" 
d="M1004 981v-819q0 -47 20.5 -64.5t91.5 -17.5h31v-80h-285q-31 117 -31 246q-34 -127 -125 -199t-225 -72q-184 0 -291.5 147.5t-107.5 393.5v2q0 116 35 210t94 153t133 91t154 32q135 0 214.5 -67t118.5 -194q0 55 18 114.5t36 91.5l18 32h101zM535 887
q-269 0 -269 -355v-61q0 -187 64 -288t188 -101q126 0 219.5 108t93.5 277v37q0 186 -83.5 284.5t-212.5 98.5zM696 1120l-34 -39l-240 129q-92 49 -92 123q0 42 25 67t67 25q38 0 67.5 -22t63.5 -72z" />
    <glyph glyph-name="amacron.alt" horiz-adv-x="1181" 
d="M1004 981v-819q0 -47 20.5 -64.5t91.5 -17.5h31v-80h-285q-31 117 -31 246q-34 -127 -125 -199t-225 -72q-184 0 -291.5 147.5t-107.5 393.5v2q0 116 35 210t94 153t133 91t154 32q135 0 214.5 -67t118.5 -194q0 55 18 114.5t36 91.5l18 32h101zM535 887
q-269 0 -269 -355v-61q0 -187 64 -288t188 -101q126 0 219.5 108t93.5 277v37q0 186 -83.5 284.5t-212.5 98.5zM317 1171v95h484v-95h-484z" />
    <glyph glyph-name="aogonek.alt" horiz-adv-x="1181" 
d="M1147 0h-57q-128 0 -192 -40t-64 -105q0 -60 69 -60q32 0 70 17v-52q-11 -31 -44 -54t-87 -23q-63 0 -103.5 39.5t-40.5 93.5q0 65 48.5 111.5t115.5 70.5q-31 136 -31 248q-34 -128 -123.5 -199.5t-222.5 -71.5q-184 0 -293.5 148t-109.5 393v2q0 116 33 210t89.5 153.5
t128.5 91t152 31.5q266 0 346 -261q0 55 18 114.5t36 91.5l18 32h101v-819q0 -47 20.5 -64.5t91.5 -17.5h31v-80zM522 887q-124 0 -190 -81t-66 -261v-74q0 -186 65.5 -287.5t190.5 -101.5q126 0 217.5 108t91.5 277v37q0 185 -89 284t-220 99z" />
    <glyph glyph-name="aring.alt" horiz-adv-x="1181" 
d="M1004 981v-819q0 -47 20.5 -64.5t91.5 -17.5h31v-80h-285q-31 117 -31 246q-34 -127 -125 -199t-225 -72q-184 0 -291.5 147.5t-107.5 393.5v2q0 116 35 210t94 153t133 91t154 32q135 0 214.5 -67t118.5 -194q0 55 18 114.5t36 91.5l18 32h101zM535 887
q-269 0 -269 -355v-61q0 -187 64 -288t188 -101q126 0 219.5 108t93.5 277v37q0 186 -83.5 284.5t-212.5 98.5zM375 1284q0 77 53.5 131.5t132.5 54.5t134 -54.5t55 -131.5t-55 -130.5t-134 -53.5t-132.5 53.5t-53.5 130.5zM465 1284q0 -58 24.5 -90.5t71.5 -32.5t72.5 32.5
t25.5 90.5t-25.5 90.5t-72.5 32.5t-71.5 -32.5t-24.5 -90.5z" />
    <glyph glyph-name="aringacute.alt" horiz-adv-x="1181" 
d="M403 1284q0 77 54 131.5t133 54.5t133.5 -54.5t54.5 -131.5t-54.5 -130.5t-133.5 -53.5t-133 53.5t-54 130.5zM494 1284q0 -58 24.5 -90.5t71.5 -32.5t72.5 32.5t25.5 90.5t-25.5 90.5t-72.5 32.5t-71.5 -32.5t-24.5 -90.5zM559 1534l-33 31l101 188q23 44 48 63t62 19
q38 0 63 -26t25 -66q0 -67 -82 -109zM1004 981v-819q0 -47 20.5 -64.5t91.5 -17.5h31v-80h-285q-31 117 -31 246q-34 -127 -125 -199t-225 -72q-184 0 -291.5 147.5t-107.5 393.5v2q0 116 35 210t94 153t133 91t154 32q135 0 214.5 -67t118.5 -194q0 55 18 114.5t36 91.5
l18 32h101zM535 887q-269 0 -269 -355v-61q0 -187 64 -288t188 -101q126 0 219.5 108t93.5 277v37q0 186 -83.5 284.5t-212.5 98.5z" />
    </font>
</defs>
</svg>
