<svg xmlns="http://www.w3.org/2000/svg" width="44.132" height="8" viewBox="0 0 44.132 8"><defs><style>.a{fill:#0072ac;fill-rule:evenodd;}</style></defs><g transform="translate(0)"><path class="a" d="M147.112-28c0,1.7-.4,3.048-.916,3.29-.052.024-.1.1-.151.1-.59,0-1.067-1.516-1.067-3.386s.477-3.387,1.067-3.387,1.067,1.517,1.067,3.387m2.2,0c0-2.21-1.463-4-3.268-4s-3.269,1.791-3.269,4,1.463,4,3.269,4,3.268-1.79,3.268-4" transform="translate(-105.181 32)"/><path class="a" d="M131.315-28.112H132.5c.485,0,.858-.72.858-1.44,0-.672-.46-1.344-1-1.344h-1.047v2.784Zm0,1.154v2.878h-1.86V-32h3.429c1.24,0,2.048,1.221,2.048,2.641a2.33,2.33,0,0,1-1.9,2.4l-1.713,0Z" transform="translate(-97.91 32)"/><path class="a" d="M115.376-24.075h-1.143V-32h1.143l1.905,3.893L118.71-32h1.763v7.925h-1.858v-4.177l-1.476,4.177H116.9l-1.525-3.936v3.936" transform="translate(-89.601 32)"/><path class="a" d="M103.767-32h4.2v1.044h-2.53v1.376H107.3v.9h-1.861v3.654h2.53v.95h-4.2V-32" transform="translate(-83.889 32)"/><path class="a" d="M98.058-32h1.667v7.925H98.058Z" transform="translate(-80.773 32)"/><path class="a" d="M84.738-32h5.305v1.1l-1.705,0v6.828h-1.8V-30.95h-1.8V-32" transform="translate(-73.502 32)"/><path class="a" d="M71.417-32h1.7v6.976h2.449v.95H71.417V-32" transform="translate(-66.232 32)"/><path class="a" d="M60-32h4.191v1.044h-2.5v1.329h1.837v.949H61.694v3.654h2.5v.95H60V-32" transform="translate(-60 32)"/></g></svg>