<svg xmlns="http://www.w3.org/2000/svg" xmlns:xlink="http://www.w3.org/1999/xlink" width="30" height="30" viewBox="0 0 30 30"><defs><style>.a{fill:#2f5f77;}.b{clip-path:url(#a);}.c{clip-path:url(#b);}.d,.f{fill:none;}.d{stroke:#000;stroke-width:1.3px;}.e{stroke:none;}</style><clipPath id="a"><path class="a" d="M15.085,10.306H.882A1.05,1.05,0,0,1,0,9.454V2.936a.619.619,0,0,1,.016-.178.112.112,0,0,1,.115-.087.5.5,0,0,1,.212.07c.472.243,6.5,3.4,6.835,3.578a1.5,1.5,0,0,0,.8.18,1.508,1.508,0,0,0,.8-.18l.286-.15c5.05-2.646,6.349-3.325,6.549-3.428a.5.5,0,0,1,.212-.07.11.11,0,0,1,.114.085.6.6,0,0,1,.016.174V9.454A1.03,1.03,0,0,1,15.085,10.306Zm-7.1-5.585a1.746,1.746,0,0,1-.8-.177c-.149-.081-2.833-1.526-4.792-2.58l-.006,0-.1-.053L.53.965C.253.817-.022.461.037.221.073.076.227,0,.482,0h15c.255,0,.408.076.445.22.06.239-.215.6-.492.744-.405.218-6.416,3.451-6.651,3.58A1.742,1.742,0,0,1,7.982,4.722Z" transform="translate(0 0)"/></clipPath><clipPath id="b"><rect width="26.471" height="26.471"/></clipPath></defs><g transform="translate(-54.5 -161.5)"><g transform="translate(61.683 171.207)"><path class="a" d="M15.085,10.306H.882A1.05,1.05,0,0,1,0,9.454V2.936a.619.619,0,0,1,.016-.178.112.112,0,0,1,.115-.087.5.5,0,0,1,.212.07c.472.243,6.5,3.4,6.835,3.578a1.5,1.5,0,0,0,.8.18,1.508,1.508,0,0,0,.8-.18l.286-.15c5.05-2.646,6.349-3.325,6.549-3.428a.5.5,0,0,1,.212-.07.11.11,0,0,1,.114.085.6.6,0,0,1,.016.174V9.454A1.03,1.03,0,0,1,15.085,10.306Zm-7.1-5.585a1.746,1.746,0,0,1-.8-.177c-.149-.081-2.833-1.526-4.792-2.58l-.006,0-.1-.053L.53.965C.253.817-.022.461.037.221.073.076.227,0,.482,0h15c.255,0,.408.076.445.22.06.239-.215.6-.492.744-.405.218-6.416,3.451-6.651,3.58A1.742,1.742,0,0,1,7.982,4.722Z" transform="translate(0)"/><g class="b" transform="translate(0 0)"><g transform="translate(-0.57 -3.421)"><rect width="26.471" height="26.471"/></g></g></g><g class="d" transform="translate(54.5 161.5)"><circle class="e" cx="15" cy="15" r="15"/><circle class="f" cx="15" cy="15" r="14.35"/></g></g></svg>