<svg xmlns="http://www.w3.org/2000/svg" width="16.979" height="16" viewBox="0 0 16.979 16"><defs><style>.a{fill:none;stroke-linecap:round;stroke-linejoin:round;}.b,.c{stroke:none;}.c{fill:#ff9500;}</style></defs><g class="a" transform="translate(0)"><path class="b" d="M12.894,15.866,8.9,13a.7.7,0,0,0-.817,0l-4,2.871A.688.688,0,0,1,3.68,16a.68.68,0,0,1-.659-.884l1.534-4.67a.666.666,0,0,0-.248-.75L.283,6.8A.673.673,0,0,1,.691,5.586H5.649a.688.688,0,0,0,.657-.468L7.833.468a.695.695,0,0,1,1.314,0l1.527,4.649a.688.688,0,0,0,.657.468h4.959A.673.673,0,0,1,16.7,6.8L12.673,9.7a.666.666,0,0,0-.248.75l1.534,4.67A.68.68,0,0,1,13.3,16,.688.688,0,0,1,12.894,15.866Z"/><path class="c" d="M 12.70284366607666 14.49768257141113 L 11.47389316558838 10.75701999664307 C 11.24693393707275 10.0633602142334 11.49456310272217 9.310420036315918 12.08922386169434 8.884050369262695 L 15.28761291503906 6.585569858551025 L 11.33046340942383 6.585569858551025 C 10.59616374969482 6.585569858551025 9.950373649597168 6.120810031890869 9.723633766174316 5.429470062255859 L 8.489962577819824 1.673248291015625 L 7.256423473358154 5.429069995880127 C 7.029553413391113 6.120810031890869 6.383763313293457 6.585569858551025 5.649463653564453 6.585569858551025 L 1.692310333251953 6.585569858551025 L 4.889833450317383 8.883419990539551 C 5.485363483428955 9.310420036315918 5.732993602752686 10.0633602142334 5.505653381347656 10.75817012786865 L 4.277088165283203 14.49767780303955 L 7.496853351593018 12.18400955200195 C 7.787093639373779 11.97476005554199 8.13050365447998 11.86415004730225 8.489963531494141 11.86415004730225 C 8.849423408508301 11.86415004730225 9.19283390045166 11.97476005554199 9.481803894042969 12.18309020996094 L 12.70284366607666 14.49768257141113 M 13.29962348937988 16 C 13.16352367401123 16 13.02291393280029 15.95934009552002 12.89359378814697 15.86616039276123 L 8.898253440856934 12.9951696395874 C 8.776833534240723 12.90762996673584 8.633403778076172 12.86415004730225 8.489963531494141 12.86415004730225 C 8.346523284912109 12.86415004730225 8.203093528747559 12.90762996673584 8.081673622131348 12.9951696395874 L 4.086333751678467 15.86616039276123 C 3.957013607025146 15.95934009552002 3.81640362739563 16 3.680303573608398 16 C 3.250563621520996 16 2.865993499755859 15.58944988250732 3.021283626556396 15.11623001098633 L 4.55561351776123 10.44604969024658 C 4.645963668823242 10.1699104309082 4.546573638916016 9.867790222167969 4.307133674621582 9.696109771728516 L 0.2829935252666473 6.804220199584961 C -0.2540464699268341 6.418519973754883 0.0249235313385725 5.585569858551025 0.6907235383987427 5.585569858551025 L 5.649463653564453 5.585569858551025 C 5.949323654174805 5.585569858551025 6.214733600616455 5.396389961242676 6.306223392486572 5.117430210113525 L 7.833203315734863 0.4681499898433685 C 7.935983657836914 0.1564300060272217 8.212693214416504 0 8.489963531494141 0 C 8.767243385314941 0 9.043943405151367 0.1564300060272217 9.146723747253418 0.4681499898433685 L 10.67370319366455 5.117430210113525 C 10.76519393920898 5.396389961242676 11.03060340881348 5.585569858551025 11.33046340942383 5.585569858551025 L 16.28921318054199 5.585569858551025 C 16.95500373840332 5.585569858551025 17.23397445678711 6.418519973754883 16.69693374633789 6.804220199584961 L 12.6727933883667 9.696109771728516 C 12.43335342407227 9.867790222167969 12.33396339416504 10.1699104309082 12.42431354522705 10.44604969024658 L 13.95864391326904 15.11623001098633 C 14.11393356323242 15.58944988250732 13.72936344146729 16 13.29962348937988 16 Z"/></g></svg>