<svg xmlns="http://www.w3.org/2000/svg" width="30" height="30" viewBox="0 0 30 30"><defs><style>.a{fill:#1877f2;}.b{fill:#fff;}.c,.e{fill:none;}.c{stroke:#1877f2;stroke-width:1.3px;}.d{stroke:none;}</style></defs><g transform="translate(-54.5 -63.5)"><g transform="translate(60.235 69.087)"><path class="a" d="M19.156,9.578A9.578,9.578,0,1,0,8.081,19.039V12.346H5.649V9.578H8.081V7.468A3.38,3.38,0,0,1,11.7,3.741a14.728,14.728,0,0,1,2.144.187V6.285H12.635a1.384,1.384,0,0,0-1.561,1.5v1.8h2.656l-.425,2.769H11.074v6.693A9.58,9.58,0,0,0,19.156,9.578Z"/><path class="b" d="M309.657,208.605l.425-2.769h-2.656v-1.8a1.384,1.384,0,0,1,1.561-1.5h1.208v-2.357A14.728,14.728,0,0,0,308.05,200a3.38,3.38,0,0,0-3.618,3.726v2.11H302v2.769h2.432V215.3a9.682,9.682,0,0,0,2.993,0v-6.693Z" transform="translate(-296.351 -196.259)"/></g><g class="c" transform="translate(54.5 63.5)"><circle class="d" cx="15" cy="15" r="15"/><circle class="e" cx="15" cy="15" r="14.35"/></g></g></svg>