<?xml version="1.0" encoding="UTF-8"?>
<svg width="24px" height="13px" viewBox="0 0 24 13" version="1.1" xmlns="http://www.w3.org/2000/svg" xmlns:xlink="http://www.w3.org/1999/xlink">
    <!-- Generator: sketchtool 51.3 (57544) - http://www.bohemiancoding.com/sketch -->
    <title>DE8CAD97-2C02-4FCC-A57B-87920729B25C</title>
    <desc>Created with sketchtool.</desc>
    <defs>
        <path d="M22.4532492,11.7133919 L3.45142786,11.7133919 L7.82888116,7.69736593 C8.13355549,7.41808112 8.15297101,6.9461346 7.87368621,6.64146027 C7.5944014,6.33678593 7.12096138,6.31886391 6.81778055,6.59665522 L1.02747471,11.9105341 C1.0200072,11.9180016 1.0200072,11.9299496 1.01403319,11.9374171 C0.999098176,11.9508586 0.979682654,11.9583261 0.96624114,11.9717676 C0.890072556,12.0613777 0.845267507,12.1644294 0.818384478,12.270468 C0.81091697,12.294364 0.813903973,12.31826 0.809423468,12.3436496 C0.791501448,12.4571557 0.798968956,12.5691683 0.833319494,12.6796874 C0.837799999,12.6976094 0.830332491,12.714038 0.836306497,12.73196 C0.839293501,12.7394275 0.849748012,12.743908 0.852735015,12.7513755 C0.896046563,12.8544271 0.955786628,12.9500112 1.04539673,13.0261798 L7.02239028,18.1787605 C7.16277943,18.2997341 7.33602562,18.3594742 7.50927181,18.3594742 C7.72134904,18.3594742 7.92894577,18.2728511 8.07680243,18.0996049 C8.34563272,17.7874631 8.30978869,17.3155165 7.99764684,17.0451927 L3.54402496,13.2068935 L22.4532492,13.2068935 C22.8654556,13.2068935 23.2,12.8738426 23.2,12.4601427 C23.2,12.0479362 22.8654556,11.7133919 22.4532492,11.7133919" id="path-1"></path>
    </defs>
    <g id="home-mckp" stroke="none" stroke-width="1" fill="none" fill-rule="evenodd">
        <g id="mckp-modulo-coyuntura-m" transform="translate(-231.000000, -1634.000000)">
            <g id="mod-coyu" transform="translate(-74.000000, 1225.000000)">
                <g id="btn" transform="translate(140.000000, 403.000000)">
                    <g id="icon/arrow-next" transform="translate(165.000000, 0.000000)">
                        <mask id="mask-2" fill="white">
                            <use xlink:href="#path-1"></use>
                        </mask>
                        <use id="Fill-1" fill="#000000" transform="translate(12.000000, 12.379737) scale(-1, 1) translate(-12.000000, -12.379737) " xlink:href="#path-1"></use>
                    </g>
                </g>
            </g>
        </g>
    </g>
</svg>