<svg xmlns="http://www.w3.org/2000/svg" xmlns:xlink="http://www.w3.org/1999/xlink" width="72" height="72" viewBox="0 0 72 72"><defs><style>.a{fill:#003768;}.b{fill:#bddbe0;}.c{opacity:0.4;mix-blend-mode:multiply;isolation:isolate;fill:url(#a);}.d{fill:#fff;}.e{fill:#d1e6e8;}</style><linearGradient id="a" x1="-12.198" y1="-5.702" x2="-12.503" y2="-6.142" gradientUnits="objectBoundingBox"><stop offset="0.104" stop-color="#fff"/><stop offset="0.206" stop-color="#fbfbfb"/><stop offset="0.297" stop-color="#f0f0f0"/><stop offset="0.383" stop-color="#dedede"/><stop offset="0.467" stop-color="#c4c4c4"/><stop offset="0.549" stop-color="#a3a3a3"/><stop offset="0.63" stop-color="#7a7a7a"/><stop offset="0.71" stop-color="#4a4a4a"/><stop offset="0.787" stop-color="#141414"/><stop offset="0.813"/></linearGradient></defs><g transform="translate(0 2.966)"><g transform="translate(0 0.311)"><path class="a" d="M-54.967,203.322l-16.172,7.909-1.5,8.592,18.846-6.93Z" transform="translate(87.628 -157.645)"/><path class="b" d="M-70.18,195.223a65.748,65.748,0,0,0,2.083-6.849c.21-1.245-.417-.932-.625-3.216-.19-2.083,1.267-6.839,2-8.6a2.319,2.319,0,0,0-1.233.929c-.625-.622.22-3.354,1.479-6.138,1.326-2.934,7.135-6.01,13.495-6.839a19.593,19.593,0,0,1,4.2-.047,6.34,6.34,0,0,0-2.8,4.51c-.47.523-1.172,1.387-2.109,4.565-.462,1.591-1.418,6.488-1.418,6.488a25.073,25.073,0,0,1,.934,4.2c.061,1.35-1.989,5.028-2.834,6.656-1.075,1.391,1.079,2.844,2.1,2.79.406-.019,1.279,1.2.1,3.016a.975.975,0,0,0-.164.62,12.077,12.077,0,0,1-4.776,2.172,2.551,2.551,0,0,0-1.8-.775c-1.222-.06-2.247.6-2.287,1.46s.915,1.615,2.137,1.675c1.2.055,2.2-.575,2.281-1.419a54.515,54.515,0,0,0,5.2-2,1.8,1.8,0,0,0,.441.232c.213.072-.467.223-.319,1.176.178,1.161,1.519.873,1.436,2.259-.072,1.131-.265,3.352.865,4.058.866.542,2.811.878,6.07.618,1.372-.111,4.987,1.305,6.5,4.981l-13.2,5.609c.176-5.078-3.932-6.1-4.833-6.467-2-.815-3.752-.208-5.732-.208s-2.084-.727-2.605-2.283.207-2.49.207-3.426-.207-1.243-.729-1.555a2.9,2.9,0,0,1-1.044-.83c-.31-.415.418-1.351.418-1.351a2.13,2.13,0,0,1-.833-.725c-.209-.417.626-1.453.626-2.282s-.73-.833-1.668-1.039S-70.6,196.261-70.18,195.223Z" transform="translate(70.275 -164.375)"/><g transform="translate(6.076 28.971)"><path class="a" d="M-48.64,189.059a15.316,15.316,0,0,1-9.01,5.728,3.2,3.2,0,0,0-2.264-.981c-1.537-.073-2.826.753-2.877,1.847s1.152,2.039,2.689,2.114c1.511.071,2.773-.727,2.867-1.792,2.392-.789,7.8-2.716,10.6-4.792C-47.106,191.044-48.64,189.059-48.64,189.059Z" transform="translate(62.793 -189.059)"/></g></g><path class="a" d="M-42.174,164.525c-3.751-1.2-9.54.476-12.571,1.7-2.674,1.079-5.985,2.879-6.874,4.835-2.21,4.863-1.473,7.736-1.473,7.736l1.743-2.136A2.819,2.819,0,0,1-58.672,176c5.968,2.21,7.114,6.053,8.473,7.073s4.286-3.6,4.286-3.6Z" transform="translate(64.9 -164.111)"/></g><g transform="translate(11.564)"><path class="b" d="M-71.585,161.616l5.394.17s8.111,14.906,8.111,15.67,5.605,9.429,3.567,13.251a14.461,14.461,0,0,1-10.448,7.135c-4.076.509-13.25,4.841-15.8,5.351s-5.352-4.076-3.314-7.9,1.529-.255,4.077-4.587a38.982,38.982,0,0,0,5.605-15.289A126.367,126.367,0,0,1-71.585,161.616Z" transform="translate(90.646 -161.591)"/><g transform="translate(0)"><path class="c" d="M-83.653,201.253l20.706,17.591,9.43-7.662-16.073-14.763Z" transform="translate(88.776 -155.603)"/><g transform="translate(0 0.172)"><path class="d" d="M-103.222,194.919c-1.049.053-3.267-1.471-2.161-2.934.871-1.708,2.979-5.576,2.916-6.994a26.857,26.857,0,0,0-.96-4.412s.983-5.143,1.459-6.816c.965-3.343,1.686-4.248,2.17-4.8,0,0,.277-6.7,12.315-7.2.206-.009.435-.016.671-.022,4.872,3.782,5.115,14.807,5,20.163a7.682,7.682,0,0,0-6.639,7.531,7.452,7.452,0,0,0,1.247,4.126,13.04,13.04,0,0,1-7.681,4.965,2.713,2.713,0,0,0-1.93-.851c-1.31-.064-2.409.653-2.453,1.6s.981,1.767,2.292,1.831c1.288.063,2.364-.628,2.444-1.551,2.04-.684,6.654-2.354,9.038-4.155a7.9,7.9,0,0,0,4.86,1.659c4.317,0,8.155-3.3,8.155-7.509a8.111,8.111,0,0,0-5.134-7.149c-.037-12.281-2.64-17.9-4.207-20.537,6.091.527,14.449,2.171,17.541,7.78a41.759,41.759,0,0,1,1.937,4.958c5.294-6.355,15.158-3.231,16.608,5.7,1.3,7.992-2.07,11.243-10.7,29.429-2.567,5.407-9.781,12.243-5.291,8.932l-25.891,3.046c.67-1.5,2.053-3.365,1.673-5.575a19.362,19.362,0,0,0-1.122-2.513c-2.113-3.862-5.254-5.056-6.7-4.933-3.354.269-5.353-.081-6.246-.652-1.163-.739-.962-3.076-.889-4.264.086-1.456-1.294-1.153-1.478-2.373-.151-1,.548-1.163.329-1.237-.573-.193-1.665-1.122-1.057-2.072C-101.908,196.182-102.8,194.9-103.222,194.919Zm34.534,16.6.621,1.149,3.548,3.829c.016-.149.342-1.321.362-1.474,1.587-12.219,5.487-19.774,2.9-24.814-.053-.1-1.043-.064-1.1-.166-1.616,8.951-7.088,11.123-7.25,14.609A16.29,16.29,0,0,0-68.687,211.522Z" transform="translate(105.684 -161.741)"/><path class="a" d="M-79.987,185.848a5.364,5.364,0,0,0,5.472,5.25,5.364,5.364,0,0,0,5.471-5.25,5.364,5.364,0,0,0-5.471-5.249A5.363,5.363,0,0,0-79.987,185.848Z" transform="translate(99.579 -158.369)"/></g><g transform="translate(6.515 31.794)"><path class="a" d="M-58.881,188.665a13.272,13.272,0,0,1-7.81,4.965,2.78,2.78,0,0,0-1.964-.85c-1.332-.064-2.45.654-2.494,1.6s1,1.768,2.332,1.832c1.31.064,2.4-.628,2.485-1.552,2.074-.682,6.765-2.354,9.189-4.153C-57.551,190.386-58.881,188.665-58.881,188.665Z" transform="translate(71.15 -188.665)"/></g><g transform="translate(5.633)"><path class="a" d="M-64.373,177.427c-.883-3.829-2.943-4.639-5.3-6.407a13.653,13.653,0,0,0-4.86-2.282s.74-6.622,12.982-7.12c.21-.009.441-.017.681-.024,4.956,3.784,5.316,15.053,5.195,20.408a7.822,7.822,0,0,0-6.546,5.837l-.9-.769A74.841,74.841,0,0,0-64.373,177.427Z" transform="translate(74.533 -161.595)"/><g transform="translate(17.319 0.208)"><path class="a" d="M-88.093,214.905c.018-.148.026-.286.047-.439,1.613-12.221,5.267-19.035,2.635-24.072l-.15-.281c-1.644,8.949-7.207,11.123-7.372,14.609-.018.355-.172.35-.467-.387-1.031-1.4-6.013-7.1-6.654-8.533a8.015,8.015,0,0,0,3.314-6.7,7.874,7.874,0,0,0-5.081-7.069c-.039-12.28-2.457-17.61-4.05-20.249,6.407-.22,15.208,2.319,18.353,7.926a23.949,23.949,0,0,1,1.766,3.713c5.384-6.354,15.617-1.985,17.091,6.941,1.321,7.992-2.107,11.245-10.885,29.43-2.611,5.407-1.405,9.08,3.16,5.767a5.932,5.932,0,0,1-6.331,5.005s-5.979-.679-6.808-1.423C-90.882,217.923-88.093,214.905-88.093,214.905Z" transform="translate(105.872 -161.772)"/></g></g><path class="e" d="M-59.128,213.032l-34.084,13.237,4.347-12.295,21.5-10.091,8.24,9.149Z" transform="translate(105.195 -154.268)"/></g></g></svg>