<svg xmlns="http://www.w3.org/2000/svg" xmlns:xlink="http://www.w3.org/1999/xlink" width="30" height="30" viewBox="0 0 30 30"><defs><style>.a{fill:#2f5f77;}.b,.c{fill:none;}.c{stroke:#2f5f77;stroke-width:1.3px;}.d{clip-path:url(#a);}.e{clip-path:url(#b);}.f{clip-path:url(#c);}.g{stroke:none;}</style><clipPath id="a"><path class="a" d="M1.4,14.1A4.994,4.994,0,0,1,.345,12.6a4.013,4.013,0,0,1-.227-2.6A8.172,8.172,0,0,1,2.463,6.289,8.193,8.193,0,0,1,4.489,4.816a10.3,10.3,0,0,1,1.8-2.351C7.924.83,9.505,0,10.989,0A4.333,4.333,0,0,1,14.1,1.4a4.231,4.231,0,0,1,1.284,4.105,8.172,8.172,0,0,1-2.346,3.705,7.714,7.714,0,0,1-2.018,1.492,10.327,10.327,0,0,1-1.806,2.332,10.652,10.652,0,0,1-2.124,1.689,5.117,5.117,0,0,1-2.577.776A4.331,4.331,0,0,1,1.4,14.1Zm.4-3.7a2.484,2.484,0,0,0,.822,2.48,2.635,2.635,0,0,0,1.885.9c1.007,0,2.177-.659,3.476-1.958l.1-.1a4.853,4.853,0,0,1-2.863-1.434A4.358,4.358,0,0,1,3.84,7.526,9.425,9.425,0,0,0,1.8,10.394ZM6.45,9.05a2.634,2.634,0,0,0,1.885.9,3.664,3.664,0,0,0,1.18-.1,3.9,3.9,0,0,0,.357-.916,2.484,2.484,0,0,0-.823-2.48,2.634,2.634,0,0,0-1.885-.9,3.584,3.584,0,0,0-1.24.206A2.565,2.565,0,0,0,6.45,9.05ZM8.089,3.934a4.634,4.634,0,0,1,2.185,1.292,4.434,4.434,0,0,1,1.392,2.844c2.862-2.884,2.072-4.578,1.208-5.443a2.636,2.636,0,0,0-1.885-.9c-1.008,0-2.177.659-3.476,1.958q-.092.092-.179.183Z" transform="translate(0)"/></clipPath><clipPath id="b"><rect class="b" width="16.61" height="16.61"/></clipPath><clipPath id="c"><rect class="a" width="16.61" height="16.61"/></clipPath></defs><g transform="translate(-54.5 -161.5)"><g class="c" transform="translate(54.5 161.5)"><circle class="g" cx="15" cy="15" r="15"/><circle class="b" cx="15" cy="15" r="14.35"/></g><g transform="translate(-0.5 -1)"><path class="a" d="M1.4,14.1A4.994,4.994,0,0,1,.345,12.6a4.013,4.013,0,0,1-.227-2.6A8.172,8.172,0,0,1,2.463,6.289,8.193,8.193,0,0,1,4.489,4.816a10.3,10.3,0,0,1,1.8-2.351C7.924.83,9.505,0,10.989,0A4.333,4.333,0,0,1,14.1,1.4a4.231,4.231,0,0,1,1.284,4.105,8.172,8.172,0,0,1-2.346,3.705,7.714,7.714,0,0,1-2.018,1.492,10.327,10.327,0,0,1-1.806,2.332,10.652,10.652,0,0,1-2.124,1.689,5.117,5.117,0,0,1-2.577.776A4.331,4.331,0,0,1,1.4,14.1Zm.4-3.7a2.484,2.484,0,0,0,.822,2.48,2.635,2.635,0,0,0,1.885.9c1.007,0,2.177-.659,3.476-1.958l.1-.1a4.853,4.853,0,0,1-2.863-1.434A4.358,4.358,0,0,1,3.84,7.526,9.425,9.425,0,0,0,1.8,10.394ZM6.45,9.05a2.634,2.634,0,0,0,1.885.9,3.664,3.664,0,0,0,1.18-.1,3.9,3.9,0,0,0,.357-.916,2.484,2.484,0,0,0-.823-2.48,2.634,2.634,0,0,0-1.885-.9,3.584,3.584,0,0,0-1.24.206A2.565,2.565,0,0,0,6.45,9.05ZM8.089,3.934a4.634,4.634,0,0,1,2.185,1.292,4.434,4.434,0,0,1,1.392,2.844c2.862-2.884,2.072-4.578,1.208-5.443a2.636,2.636,0,0,0-1.885-.9c-1.008,0-2.177.659-3.476,1.958q-.092.092-.179.183Z" transform="translate(62 169.5)"/><g class="d" transform="translate(62 169.5)"><g class="e" transform="translate(-0.554 -0.554)"><rect class="a" width="16.61" height="16.61"/></g></g></g></g></svg>