<svg xmlns="http://www.w3.org/2000/svg" xmlns:xlink="http://www.w3.org/1999/xlink" width="30" height="30" viewBox="0 0 30 30"><defs><style>.a{fill:#0072ac;}.b{clip-path:url(#a);}.c{clip-path:url(#b);}.d,.f{fill:none;}.d{stroke:#0072ac;stroke-width:1.3px;}.e{stroke:none;}</style><clipPath id="a"><path class="a" d="M0,0H9.894V10.006H0Z"/></clipPath><clipPath id="b"><path class="a" d="M0,14.485H15.165V0H0Z"/></clipPath></defs><g transform="translate(-54.5 -210.5)"><g transform="translate(62.482 218.076)"><g transform="translate(5.271 4.479)"><g class="b" transform="translate(0 0)"><path class="a" d="M9.862,10.006H6.635V9.648c0-1.585.008-3.169-.006-4.754A5.369,5.369,0,0,0,6.5,3.779,1.4,1.4,0,0,0,5.4,2.622a1.664,1.664,0,0,0-1.691.522,1.723,1.723,0,0,0-.479,1.172q0,2.626-.01,5.252c0,.132,0,.263,0,.42H0V.26H3.214V1.592c.2-.245.335-.413.474-.577A3.58,3.58,0,0,1,9.477,2.16,5.767,5.767,0,0,1,9.863,4c.051,1.96.023,3.922.025,5.884a.752.752,0,0,1-.026.124" transform="translate(0 0)"/></g></g><g class="c"><path class="a" d="M0,9.732H3.211V0H0Z" transform="translate(0.219 4.738)"/><path class="a" d="M1.852,0a1.706,1.706,0,0,1,1.8,1.724A1.723,1.723,0,0,1,1.783,3.381,1.7,1.7,0,0,1,0,1.675,1.721,1.721,0,0,1,1.852,0" transform="translate(0 0)"/></g></g><g class="d" transform="translate(54.5 210.5)"><circle class="e" cx="15" cy="15" r="15"/><circle class="f" cx="15" cy="15" r="14.35"/></g></g></svg>