<svg xmlns="http://www.w3.org/2000/svg" width="89.97" height="16.48" viewBox="0 0 89.97 16.48"><defs><style>.a{fill:#0e65a5;}</style></defs><path class="a" d="M119.115,270.918a4.116,4.116,0,0,1-4.131,4.1h-3.154v4.976h-3.173V266.818h6.328A4.1,4.1,0,0,1,119.115,270.918Zm-4.244-1.4h-3.117v2.8h3.117a1.42,1.42,0,0,0,1.258-1.416A1.384,1.384,0,0,0,114.871,269.52Z" transform="translate(-108.656 -263.905)"/><path class="a" d="M581.682,275.506l2.291,2.274a6.662,6.662,0,1,1,0-9.411l-2.291,2.274a3.54,3.54,0,0,0-2.46-1.007,3.438,3.438,0,1,0,0,6.877A3.539,3.539,0,0,0,581.682,275.506Z" transform="translate(-530.05 -263.536)"/><path class="a" d="M718.822,281.289h-3.267l-.864-2.665h-4.112l-.845,2.665h-3.286l4.356-13.045h3.68Zm-4.994-5.386-1.183-3.69-1.183,3.69Z" transform="translate(-651.717 -265.2)"/><path class="a" d="M861.242,268.773v-.242a1.461,1.461,0,0,0-1.577-1.3,1.507,1.507,0,0,0-1.633,1.3.869.869,0,0,0,.488.8h.019a3.984,3.984,0,0,0,1.258.522c.206.037.394.093.619.131a6.888,6.888,0,0,1,2.61,1.025c.018.037.056.056.075.074l.225.186h-.019a3.846,3.846,0,0,1,1.183,2.739,3.91,3.91,0,0,1-1.427,2.963,5.465,5.465,0,0,1-6.816,0,3.93,3.93,0,0,1-1.446-2.963v-.242h3.286v.242a1.455,1.455,0,0,0,1.558,1.3,1.507,1.507,0,0,0,1.634-1.3.87.87,0,0,0-.489-.8l-.019-.018a3.56,3.56,0,0,0-1.258-.5c-.206-.056-.394-.093-.62-.149a6.18,6.18,0,0,1-2.685-1.1.257.257,0,0,0-.075-.056,3.838,3.838,0,0,1-1.333-2.851,3.93,3.93,0,0,1,1.446-2.963,5.465,5.465,0,0,1,6.816,0,3.91,3.91,0,0,1,1.427,2.963v.242Z" transform="translate(-786.489 -261.686)"/><path class="a" d="M990.18,270.172h-3.4v9.821h-3.4v-9.821h-3.4v-3.354h10.2Z" transform="translate(-900.209 -263.905)"/><path class="a" d="M298.98,308.57a2.263,2.263,0,1,0,2.28,2.263A2.274,2.274,0,0,0,298.98,308.57Z" transform="translate(-279.484 -301.834)"/><g transform="translate(12.173 2.597)"><path class="a" d="M253.762,269.889a4.991,4.991,0,1,1-7.2-4.437c-.186-.635-.415-1.411-.615-2.084a7.113,7.113,0,1,0,9.978,6.521,6.965,6.965,0,0,0-.183-1.587l-2.029.918A4.87,4.87,0,0,1,253.762,269.889Z" transform="translate(-241.616 -263.368)"/></g><g transform="translate(18.406)"><path class="a" d="M310.383,235c-.231,0-.457.018-.683.034l.064.952c.205-.014.41-.031.619-.031a8.1,8.1,0,0,1,7.075,3.681l.779-.566A9.06,9.06,0,0,0,310.383,235Z" transform="translate(-309.7 -235)"/><path class="a" d="M316.033,259.275c-.159,0-.314.012-.47.024l.064.952c.135-.01.269-.02.406-.02a5.481,5.481,0,0,1,4.692,2.648l.778-.566A6.444,6.444,0,0,0,316.033,259.275Z" transform="translate(-315.026 -257.052)"/></g><path class="a" d="M434.882,267.915a6.692,6.692,0,0,1,1.446,8.013c-2.216,4.267-7.041,3.6-11.1,3.6V266.2h3.38C430.9,266.2,433.061,266.293,434.882,267.915Zm-4.413,1.509h-1.859V276.3c2.16,0,4.525-.149,5.126-2.627A3.468,3.468,0,0,0,430.47,269.424Z" transform="translate(-396.247 -263.344)"/></svg>