<svg xmlns="http://www.w3.org/2000/svg" width="203.193" height="70" viewBox="0 0 203.193 70"><defs><style>.a,.c{fill:#fff;}.a{fill-rule:evenodd;}.b{fill:#36a9ff;}</style></defs><g transform="translate(-434.326 -200.528)"><g transform="translate(434.326 200.528)"><path class="a" d="M162.739-14.024c0,7.64-1.842,13.7-4.218,14.785-.239.108-.444.433-.694.433-2.716,0-4.914-6.814-4.914-15.218s2.2-15.221,4.914-15.221,4.912,6.816,4.912,15.221m10.133,0c0-9.929-6.735-17.976-15.045-17.976s-15.05,8.047-15.05,17.976S149.513,3.95,157.827,3.95,172.872-4.1,172.872-14.024" transform="translate(30.321 32)"/><path class="a" d="M138.014-14.526h5.474c2.231,0,3.952-3.236,3.952-6.472,0-3.021-2.117-6.039-4.609-6.039h-4.823l.005,12.512Zm.005,5.188V3.6h-8.563V-32h15.789c5.708,0,9.43,5.487,9.43,11.867,0,6.255-5.01,10.779-8.77,10.784l-7.885.01Z" transform="translate(15.787 32)"/><path class="a" d="M119.5,3.614h-5.263V-32H119.5l8.772,17.492L134.846-32h8.116V3.614h-8.553V-15.158l-6.8,18.772h-1.093L119.5-14.073V3.614" transform="translate(-0.824 32)"/><path class="a" d="M103.767-32h19.342v4.692H111.46v6.183h8.57v4.052h-8.57V-.653h11.649V3.614H103.767V-32" transform="translate(-12.244 32)"/><path class="a" d="M98.058-32h7.673V3.61H98.058Z" transform="translate(-18.473 32)"/><path class="a" d="M84.738-32h24.427v4.948l-7.852-.015V3.614h-8.29v-30.9H84.738V-32" transform="translate(-33.008 32)"/><path class="a" d="M71.417-32h7.805V-.653H90.5V3.614H71.417V-32" transform="translate(-47.542 32)"/><path class="a" d="M60-32H79.3v4.692H67.8v5.971H76.26v4.264H67.8V-.653H79.3V3.614H60V-32" transform="translate(-60 32)"/></g><g transform="translate(485.339 243.582)"><path class="b" d="M-398.24-625.839l14.973,16.523-.209.338-7.32-.97c.729,2.053,1.307,3.7,1.9,5.334.228.635.486,1.258.714,1.892.942,2.627.759,2.895-2.29,3.241l-3.531-9.323-5.359,5.913C-398.987-610.623-398.626-618-398.24-625.839Z" transform="translate(471.996 626.428)"/><path class="c" d="M-529.127-623.261l-.956.84a27.665,27.665,0,0,0-4.2-2.919,8.514,8.514,0,0,0-11.993,7.073c-.5,5.071,1.879,9,6.169,10.208,4.661,1.313,9.072-1,10.166-5.347a13.318,13.318,0,0,0,.19-1.773h-7.043v-1.653h8.9a9.559,9.559,0,0,1-4.012,9.222c-4.494,2.906-13.932,2.386-16.105-6.1-1.518-5.922,1.488-12.053,6.861-13.552C-536.989-628.419-531.291-627.563-529.127-623.261Z" transform="translate(574.581 627.729)"/><path class="c" d="M-632.4-605.713v-20.925a87.838,87.838,0,0,1,9.558.668c3.118.541,4.982,2.862,5.762,5.887,1.16,4.5,1.012,8.805-2.777,12.127a7.471,7.471,0,0,1-3.73,1.728C-626.448-605.855-629.357-605.866-632.4-605.713Zm1.9-1.862c6.054.376,8.764.24,10.566-2.895a10.71,10.71,0,0,0-.123-11.652c-2.487-3.875-6.675-2.661-10.443-2.935Z" transform="translate(632.402 626.978)"/><path class="c" d="M-447.1-624.233h-5.679v-1.58h13.085v1.58h-5.68v18.88H-447.1Z" transform="translate(508.761 626.41)"/><path class="c" d="M-567.506-625.886h1.747v20.463h-1.747Z" transform="translate(587.732 626.461)"/><path class="c" d="M-467.241-605.378h-1.7v-20.509h1.7Z" transform="translate(519.888 626.461)"/><path class="c" d="M-334.08-625.769c0,5.807.037,11.514-.028,17.221-.015,1.287.345,1.737,1.652,1.659,1.755-.1,3.522-.026,5.417-.026.031.515.059,1,.094,1.584h-8.877v-20.437Z" transform="translate(428.256 626.38)"/></g></g></svg>