<svg xmlns="http://www.w3.org/2000/svg" xmlns:xlink="http://www.w3.org/1999/xlink" width="14" height="12" viewBox="0 0 14 12"><defs><style>.a{clip-path:url(#a);}.b{clip-path:url(#b);}</style><clipPath id="a"><path d="M6.947,12a.48.48,0,0,1-.475-.483V6.7a1.983,1.983,0,1,1,.95,0v4.817A.48.48,0,0,1,6.947,12Zm0-8.321A1.068,1.068,0,1,0,8,4.747,1.061,1.061,0,0,0,6.947,3.679Zm5.188,5.816a.459.459,0,0,1-.33-.14.479.479,0,0,1,0-.671,5.9,5.9,0,0,0,1.264-3.936,6.8,6.8,0,0,0-.628-2.938,4.116,4.116,0,0,0-.638-1,.482.482,0,0,1,0-.671.46.46,0,0,1,.657,0A6.775,6.775,0,0,1,14,4.747a6.741,6.741,0,0,1-1.537,4.608A.457.457,0,0,1,12.134,9.494Zm-10.268,0a.458.458,0,0,1-.329-.14A6.741,6.741,0,0,1,0,4.747,6.776,6.776,0,0,1,1.537.139a.463.463,0,0,1,.661,0,.482.482,0,0,1,0,.67A5.976,5.976,0,0,0,.933,4.747a6.8,6.8,0,0,0,.628,2.938,4.111,4.111,0,0,0,.637,1,.484.484,0,0,1,0,.671A.465.465,0,0,1,1.866,9.494ZM9.8,8.07a.462.462,0,0,1-.33-.139.478.478,0,0,1,0-.671,3.744,3.744,0,0,0,.8-2.513,3.727,3.727,0,0,0-.8-2.516.481.481,0,0,1,.007-.67A.462.462,0,0,1,9.8,1.425a.455.455,0,0,1,.327.138A4.664,4.664,0,0,1,11.2,4.747,4.664,4.664,0,0,1,10.13,7.931.459.459,0,0,1,9.8,8.07Zm-5.6,0A.456.456,0,0,1,3.87,7.93,4.63,4.63,0,0,1,2.8,4.747,4.663,4.663,0,0,1,3.87,1.563a.461.461,0,0,1,.66,0,.481.481,0,0,1,0,.669,3.715,3.715,0,0,0-.8,2.515,3.764,3.764,0,0,0,.8,2.516.482.482,0,0,1-.006.67A.462.462,0,0,1,4.2,8.069Z" transform="translate(0 -0.333)"/></clipPath><clipPath id="b"><path d="M0,0H15.2V15.032H0Z"/></clipPath></defs><path d="M6.947,12a.48.48,0,0,1-.475-.483V6.7a1.983,1.983,0,1,1,.95,0v4.817A.48.48,0,0,1,6.947,12Zm0-8.321A1.068,1.068,0,1,0,8,4.747,1.061,1.061,0,0,0,6.947,3.679Zm5.188,5.816a.459.459,0,0,1-.33-.14.479.479,0,0,1,0-.671,5.9,5.9,0,0,0,1.264-3.936,6.8,6.8,0,0,0-.628-2.938,4.116,4.116,0,0,0-.638-1,.482.482,0,0,1,0-.671.46.46,0,0,1,.657,0A6.775,6.775,0,0,1,14,4.747a6.741,6.741,0,0,1-1.537,4.608A.457.457,0,0,1,12.134,9.494Zm-10.268,0a.458.458,0,0,1-.329-.14A6.741,6.741,0,0,1,0,4.747,6.776,6.776,0,0,1,1.537.139a.463.463,0,0,1,.661,0,.482.482,0,0,1,0,.67A5.976,5.976,0,0,0,.933,4.747a6.8,6.8,0,0,0,.628,2.938,4.111,4.111,0,0,0,.637,1,.484.484,0,0,1,0,.671A.465.465,0,0,1,1.866,9.494ZM9.8,8.07a.462.462,0,0,1-.33-.139.478.478,0,0,1,0-.671,3.744,3.744,0,0,0,.8-2.513,3.727,3.727,0,0,0-.8-2.516.481.481,0,0,1,.007-.67A.462.462,0,0,1,9.8,1.425a.455.455,0,0,1,.327.138A4.664,4.664,0,0,1,11.2,4.747,4.664,4.664,0,0,1,10.13,7.931.459.459,0,0,1,9.8,8.07Zm-5.6,0A.456.456,0,0,1,3.87,7.93,4.63,4.63,0,0,1,2.8,4.747,4.663,4.663,0,0,1,3.87,1.563a.461.461,0,0,1,.66,0,.481.481,0,0,1,0,.669,3.715,3.715,0,0,0-.8,2.515,3.764,3.764,0,0,0,.8,2.516.482.482,0,0,1-.006.67A.462.462,0,0,1,4.2,8.069Z"/><g class="a" transform="translate(0 0.333)"><g transform="translate(-0.563 -1.67)"><path d="M0,0H15.2V15.032H0Z"/></g></g></svg>