<svg xmlns="http://www.w3.org/2000/svg" width="30" height="30" viewBox="0 0 30 30"><defs><style>.a,.d{fill:none;}.a{stroke:#0085ff;stroke-width:1.3px;}.b{fill:#0085ff;}.c{stroke:none;}</style></defs><g transform="translate(-54.5 -112.5)"><g class="a" transform="translate(54.5 112.5)"><circle class="c" cx="15" cy="15" r="15"/><circle class="d" cx="15" cy="15" r="14.35"/></g><g transform="translate(-322 193)"><g transform="translate(384 -73)"><path class="b" d="M391.75-73A7.479,7.479,0,0,0,384-65.824a6.977,6.977,0,0,0,2.888,5.588V-57.5l2.639-1.448a8.334,8.334,0,0,0,2.223.3,7.479,7.479,0,0,0,7.75-7.176A7.48,7.48,0,0,0,391.75-73Zm.77,9.663-1.973-2.105L386.7-63.337l4.236-4.5,2.022,2.105,3.8-2.105Z" transform="translate(-384 73)"/></g></g></g></svg>