<svg xmlns="http://www.w3.org/2000/svg" width="43.944" height="28.349" viewBox="0 0 43.944 28.349"><defs><style>.a{fill:#33f5ff;}</style></defs><path class="a" d="M799.14-113.515H772.407A3.417,3.417,0,0,0,769-110.108v20.793a3.416,3.416,0,0,0,3.407,3.407h26.734a3.417,3.417,0,0,0,3.407-3.407v-4.611l9.683,7.919a.433.433,0,0,0,.46.056.439.439,0,0,0,.253-.394v-27.475a.438.438,0,0,0-.255-.4.437.437,0,0,0-.468.067l-9.674,8.355v-4.311A3.417,3.417,0,0,0,799.14-113.515Zm2.534,24.2a2.536,2.536,0,0,1-2.533,2.533H772.407a2.536,2.536,0,0,1-2.533-2.533v-20.793a2.537,2.537,0,0,1,2.533-2.534h26.734a2.537,2.537,0,0,1,2.533,2.534Zm10.4-23.551v25.6l-9.523-7.789v-9.589Z" transform="translate(-769 114.258)"/><path class="a" d="M786.823-103.547c-4.606,0-11.133,5.075-11.408,5.291a.434.434,0,0,0-.167.344.432.432,0,0,0,.167.344c.276.216,6.8,5.291,11.408,5.291s11.133-5.075,11.409-5.291a.432.432,0,0,0,.167-.344.434.434,0,0,0-.167-.344C797.956-98.472,791.43-103.547,786.823-103.547Zm10.071,5.884c-1.89,1.357-6.656,4.513-10.071,4.513s-8.177-3.156-10.07-4.513l-.347-.249.347-.249c1.89-1.357,6.656-4.513,10.07-4.513s8.178,3.156,10.071,4.513l.346.249Z" transform="translate(-770.05 112.458)"/><path class="a" d="M788.5-100.7a3.273,3.273,0,0,0-3.263,3.265,3.267,3.267,0,0,0,3.263,3.263,3.267,3.267,0,0,0,3.264-3.264A3.267,3.267,0,0,0,788.5-100.7Zm0,5.691a2.43,2.43,0,0,1-2.427-2.428A2.43,2.43,0,0,1,788.5-99.86a2.43,2.43,0,0,1,2.428,2.427A2.43,2.43,0,0,1,788.5-95.006Z" transform="translate(-771.729 111.979)"/></svg>