<svg xmlns="http://www.w3.org/2000/svg" width="34.674" height="33.884" viewBox="0 0 34.674 33.884"><defs><style>.a{fill:none;}.b{fill:#33f5ff;}</style></defs><g transform="translate(-990.793 310.346)"><path class="a" d="M999.742-288.85a2.59,2.59,0,0,0-2.588,2.587v1.683a.736.736,0,0,1-.735.736.737.737,0,0,1-.736-.736v-.745a1.452,1.452,0,0,0-.714,1.249v6.134a1.451,1.451,0,0,0,.714,1.248v-5.362a.737.737,0,0,1,.736-.736.736.736,0,0,1,.735.736v6.3a2.59,2.59,0,0,0,2.588,2.587,2.589,2.589,0,0,0,2.587-2.587v-10.507A2.589,2.589,0,0,0,999.742-288.85Z" transform="translate(-0.68 -3.501)"/><path class="a" d="M1025.725-285.326v.745a.736.736,0,0,1-.735.736.736.736,0,0,1-.736-.736v-1.683a2.59,2.59,0,0,0-2.588-2.587,2.589,2.589,0,0,0-2.587,2.587v10.507a2.589,2.589,0,0,0,2.587,2.587,2.59,2.59,0,0,0,2.588-2.587v-6.3a.736.736,0,0,1,.736-.736.736.736,0,0,1,.735.736v5.362a1.452,1.452,0,0,0,.715-1.248v-6.134A1.454,1.454,0,0,0,1025.725-285.326Z" transform="translate(-4.608 -3.501)"/><path class="b" d="M1026.608-277.984a1.664,1.664,0,0,1-.987,1.516l-.147.065V-282.1a.527.527,0,0,0-.526-.527.527.527,0,0,0-.526.527v6.3a2.8,2.8,0,0,1-2.8,2.8,2.8,2.8,0,0,1-2.8-2.8V-286.3a2.8,2.8,0,0,1,2.8-2.8,2.8,2.8,0,0,1,2.8,2.8v1.683a.527.527,0,0,0,.526.527.527.527,0,0,0,.526-.527V-285.7l.147.065a1.663,1.663,0,0,1,.987,1.516Z" transform="translate(-4.567 -3.461)"/><path class="b" d="M1002.5-275.8a2.8,2.8,0,0,1-2.8,2.8,2.8,2.8,0,0,1-2.8-2.8v-6.3a.526.526,0,0,0-.526-.527.527.527,0,0,0-.526.527v5.695l-.147-.065a1.663,1.663,0,0,1-.985-1.516v-6.134a1.663,1.663,0,0,1,.985-1.516l.147-.065v1.077a.527.527,0,0,0,.526.527.526.526,0,0,0,.526-.527V-286.3a2.8,2.8,0,0,1,2.8-2.8,2.8,2.8,0,0,1,2.8,2.8Z" transform="translate(-0.64 -3.461)"/><path class="b" d="M1025.147-284.8l-.075-4.5a17.622,17.622,0,0,0,.393-4,17.218,17.218,0,0,0-5.287-12.167,17.218,17.218,0,0,0-12.041-4.88l-.3,0a17.22,17.22,0,0,0-12.167,5.288,17.213,17.213,0,0,0-4.878,12.337,17.385,17.385,0,0,0,.523,3.96l.079,4.528a.528.528,0,0,0,.526.517h.008a.527.527,0,0,0,.517-.535l-.076-4.578a.54.54,0,0,0-.017-.121,16.309,16.309,0,0,1-.508-3.789,16.175,16.175,0,0,1,4.581-11.588,16.178,16.178,0,0,1,11.429-4.967l.276,0a16.3,16.3,0,0,1,16.278,16.013,16.39,16.39,0,0,1-.382,3.8.5.5,0,0,0-.013.122l.077,4.577a.525.525,0,0,0,.161.37.521.521,0,0,0,.365.147h.009A.526.526,0,0,0,1025.147-284.8Z"/></g></svg>