<svg xmlns="http://www.w3.org/2000/svg" width="35.859" height="40.096" viewBox="0 0 35.859 40.096"><defs><style>.a{fill:#33f5ff;}</style></defs><path class="a" d="M1658.517-277.905h-33.083v-12.662h33.083Zm0-13.5h-4.435l4.435-4.434Zm-.594-5.027-5.026,5.027h-8.166l5.028-5.027Zm-9.352,0-5.027,5.027h-8.165l5.027-5.027Zm-9.352,0-5.027,5.027h-8.166l5.028-5.027Zm-9.353,0L1625.434-292v-4.434Zm23.968-17.508-3.843,2.214,1.628-6.056Zm-3.024-4.06-1.846,6.866-7.077,4.076,1.846-6.866Zm-8.1,4.669-1.846,6.865-7.076,4.076,1.846-6.866Zm-8.1,4.668-1.846,6.866-7.076,4.076,1.846-6.866Zm-11.946,6.882L1626.5-304l-1.629,6.056Z" transform="translate(-1622.658 318.001)"/></svg>