<svg xmlns="http://www.w3.org/2000/svg" width="55.152" height="30.086" viewBox="0 0 55.152 30.086"><defs><style>.a{fill:#33f5ff;}</style></defs><g transform="translate(-1704.253 113.187)"><path class="a" d="M1747.23-112.726a.476.476,0,0,0-.076-.329.449.449,0,0,0-.58-.052l-8.76,6.977-11.3-4.705a.313.313,0,0,0-.116-.02.391.391,0,0,0-.226.07l-11.855,8.468a.408.408,0,0,0-.161.255.357.357,0,0,0,.055.27c.055.089.2.32.538.1l11.672-8.337,11.341,4.7a.507.507,0,0,0,.4-.049l8.93-7.081A.358.358,0,0,0,1747.23-112.726Z" transform="translate(-0.836)"/><path class="a" d="M1759.4-83.123a.333.333,0,0,0-.064-.277.361.361,0,0,0-.271-.111H1754.7v-24.946a.376.376,0,0,0-.389-.388h-7.774a.375.375,0,0,0-.389.388v24.946h-3.772V-100a.38.38,0,0,0-.388-.388h-7.828a.376.376,0,0,0-.389.388v16.484h-3.772v-17.753a.381.381,0,0,0-.388-.389h-7.775a.381.381,0,0,0-.388.389v17.753h-3.772V-96.292a.377.377,0,0,0-.389-.389h-7.827a.38.38,0,0,0-.388.389v12.781h-4.425a.376.376,0,0,0-.389.388.376.376,0,0,0,.389.389h54.371A.38.38,0,0,0,1759.4-83.123Zm-42.561-.388h-7V-95.9h7Zm12.376,0h-7v-17.365h7Zm12.324,0h-7V-99.606h7Zm12.377,0h-7v-24.557h7Z" transform="translate(0 -0.367)"/></g></svg>