<svg xmlns="http://www.w3.org/2000/svg" width="38.162" height="32" viewBox="0 0 38.162 32"><defs><style>.a{fill:#33f5ff;}</style></defs><g transform="translate(-667.795 307.574)"><path class="a" d="M705.743-282.266H668.009a.214.214,0,0,0-.214.214v9.905a.214.214,0,0,0,.214.214h37.734a.214.214,0,0,0,.214-.214v-9.905A.214.214,0,0,0,705.743-282.266Zm-33.42,7.024c0,.223-.242.406-.54.406s-.541-.182-.541-.406v-3.714c0-.223.242-.4.541-.4s.54.181.54.4Zm3.019,0c0,.223-.242.406-.54.406s-.541-.182-.541-.406v-3.714c0-.223.242-.4.541-.4s.54.181.54.4Zm26.628-1.452H683.858a.214.214,0,0,0-.214.214v1.238c0,.223-.243.406-.541.406s-.54-.182-.54-.406v-1.238a.214.214,0,0,0-.214-.214h-3.019c-.3,0-.541-.181-.541-.4s.242-.4.541-.4h3.019a.214.214,0,0,0,.214-.214v-1.238c0-.223.242-.4.54-.4s.541.181.541.4v1.238a.214.214,0,0,0,.214.214H701.97c.3,0,.541.181.541.4S702.268-276.694,701.97-276.694Z" transform="translate(0 -3.641)"/><path class="a" d="M705.743-307.574H668.009a.214.214,0,0,0-.214.214v20.429a.214.214,0,0,0,.214.214h37.734a.214.214,0,0,0,.214-.214V-307.36A.214.214,0,0,0,705.743-307.574ZM691.288-296.31l-6.313,3.64a1.068,1.068,0,0,1-.527.141,1.069,1.069,0,0,1-1.072-1.065l0-7.288a1.075,1.075,0,0,1,.141-.527,1.069,1.069,0,0,1,1.459-.395l6.31,3.647a1.067,1.067,0,0,1,.386.387A1.068,1.068,0,0,1,691.288-296.31Z" transform="translate(0)"/></g></svg>