<svg xmlns="http://www.w3.org/2000/svg" width="49.361" height="33.82" viewBox="0 0 49.361 33.82"><defs><style>.a{fill:#33f5ff;}</style></defs><g transform="translate(-665.647 -477)"><g transform="translate(665.647 477)"><g transform="translate(20.707 11.367)"><path class="a" d="M2154.647,219.913a.885.885,0,0,1-.5-.158l-5.189-3.594h-11.706a3.364,3.364,0,0,1-3.36-3.36v-1.4a.522.522,0,0,1,1.044,0v1.4a2.319,2.319,0,0,0,2.316,2.316h11.869a.522.522,0,0,1,.3.093l5.074,3.515v-3.085a.522.522,0,0,1,.522-.522h4.171a2.319,2.319,0,0,0,2.316-2.316V200.819a2.319,2.319,0,0,0-2.316-2.316h-8.312a.522.522,0,1,1,0-1.044h8.312a3.364,3.364,0,0,1,3.36,3.361V212.8a3.364,3.364,0,0,1-3.36,3.36h-3.648v2.866a.887.887,0,0,1-.886.886Z" transform="translate(-2133.888 -197.459)"/></g><path class="a" d="M1925.529,105.545a.978.978,0,0,1-.977-.977v-3.712h-4.691a4.075,4.075,0,0,1-4.07-4.07V81.809a4.075,4.075,0,0,1,4.07-4.07h27.417a4.074,4.074,0,0,1,4.07,4.07V96.785a4.074,4.074,0,0,1-4.07,4.07H1932.6l-6.519,4.516A.977.977,0,0,1,1925.529,105.545Zm-5.668-26.761a3.029,3.029,0,0,0-3.026,3.026V96.785a3.029,3.029,0,0,0,3.026,3.026h5.213a.522.522,0,0,1,.522.522v4.106l6.547-4.535a.522.522,0,0,1,.3-.093h14.837a3.029,3.029,0,0,0,3.026-3.026V81.809a3.029,3.029,0,0,0-3.026-3.026Z" transform="translate(-1915.791 -77.739)"/><g transform="translate(7.093 8.974)"><path class="a" d="M1993.194,177.662a2.7,2.7,0,1,1,2.7-2.7A2.7,2.7,0,0,1,1993.194,177.662Zm0-4.359a1.657,1.657,0,1,0,1.657,1.657A1.659,1.659,0,0,0,1993.194,173.3Z" transform="translate(-1990.492 -172.258)"/></g><g transform="translate(15.205 8.974)"><path class="a" d="M2078.635,177.662a2.7,2.7,0,1,1,2.7-2.7A2.7,2.7,0,0,1,2078.635,177.662Zm0-4.359a1.657,1.657,0,1,0,1.657,1.657A1.66,1.66,0,0,0,2078.635,173.3Z" transform="translate(-2075.933 -172.258)"/></g><g transform="translate(23.317 8.974)"><path class="a" d="M2164.075,177.662a2.7,2.7,0,1,1,2.7-2.7A2.7,2.7,0,0,1,2164.075,177.662Zm0-4.359a1.657,1.657,0,1,0,1.657,1.657A1.659,1.659,0,0,0,2164.075,173.3Z" transform="translate(-2161.373 -172.258)"/></g></g></g></svg>