<svg xmlns="http://www.w3.org/2000/svg" width="40.148" height="35.88" viewBox="0 0 40.148 35.88"><defs><style>.a{fill:#33f5ff;}</style></defs><g transform="translate(-1798.662 307.5)"><path class="a" d="M1818.71-287.618a3.8,3.8,0,0,0,3.792-3.792,3.8,3.8,0,0,0-3.792-3.792,3.8,3.8,0,0,0-3.793,3.792A3.8,3.8,0,0,0,1818.71-287.618Z"/><path class="a" d="M1838.757-291.138h-15.431l-.068.419a4.6,4.6,0,0,1-3.85,3.856,4.6,4.6,0,0,1-5.246-3.848l-.062-.427h-15.438v19.518h40.148Zm-29.815,15.175a.25.25,0,0,1-.25.25h-4.864a.25.25,0,0,1-.25-.25v-7.231a.25.25,0,0,1,.25-.25h.7a.25.25,0,0,1,.25.25v6.592h3.916a.25.25,0,0,1,.25.25Zm4.991,0a.251.251,0,0,1-.25.25h-.7a.251.251,0,0,1-.25-.25v-7.282a.251.251,0,0,1,.25-.25h.7a.251.251,0,0,1,.25.25Zm10.37-7.2-2.623,7.282a.251.251,0,0,1-.236.165h-1.095a.251.251,0,0,1-.236-.166l-2.578-7.283a.254.254,0,0,1,.031-.228.251.251,0,0,1,.2-.1h.737a.251.251,0,0,1,.236.168l2.235,6.488,2.125-6.484a.249.249,0,0,1,.238-.172h.725a.246.246,0,0,1,.2.106A.253.253,0,0,1,1824.3-283.16Zm9.538,7.2a.25.25,0,0,1-.25.25h-5.327a.25.25,0,0,1-.25-.25v-7.282a.25.25,0,0,1,.25-.25h5.173a.251.251,0,0,1,.25.25v.389a.251.251,0,0,1-.25.25h-4.226v2.352h3.917a.249.249,0,0,1,.25.25v.389a.25.25,0,0,1-.25.25h-3.917v2.763h4.38a.25.25,0,0,1,.25.25Z"/><path class="a" d="M1811.346-298.772a.411.411,0,0,0-.123.289.407.407,0,0,0,.124.289.4.4,0,0,0,.579,0,9.564,9.564,0,0,1,6.784-2.8,9.564,9.564,0,0,1,6.783,2.8.4.4,0,0,0,.579,0,.408.408,0,0,0,.124-.289.41.41,0,0,0-.124-.29A10.516,10.516,0,0,0,1811.346-298.772Z"/><path class="a" d="M1807.935-302.228a15.1,15.1,0,0,1,10.775-4.484,15.107,15.107,0,0,1,10.8,4.507.4.4,0,0,0,.577,0,.4.4,0,0,0,0-.578,15.98,15.98,0,0,0-11.375-4.715,15.984,15.984,0,0,0-11.376,4.715.4.4,0,0,0,0,.579A.438.438,0,0,0,1807.935-302.228Z"/></g></svg>