<svg xmlns="http://www.w3.org/2000/svg" width="44.676" height="32.523" viewBox="0 0 44.676 32.523"><defs><style>.a{fill:#33f5ff;}</style></defs><g transform="translate(-1072.2 -77.738)"><g transform="translate(1100.747 88.151)"><g transform="translate(0 3.21)"><path class="a" d="M1396.327,235.591a2.08,2.08,0,1,1,2.08-2.079A2.082,2.082,0,0,1,1396.327,235.591Zm0-3.184a1.1,1.1,0,1,0,1.1,1.1A1.106,1.106,0,0,0,1396.327,232.407Z" transform="translate(-1394.248 -231.432)"/></g><g transform="translate(6.814 3.21)"><path class="a" d="M1473.2,235.591a2.08,2.08,0,1,1,2.079-2.079A2.082,2.082,0,0,1,1473.2,235.591Zm0-3.184a1.1,1.1,0,1,0,1.1,1.1A1.106,1.106,0,0,0,1473.2,232.407Z" transform="translate(-1471.117 -231.432)"/></g><g transform="translate(3.38 0)"><path class="a" d="M1434.464,199.373a2.08,2.08,0,1,1,2.079-2.079A2.082,2.082,0,0,1,1434.464,199.373Zm0-3.184a1.1,1.1,0,1,0,1.1,1.1A1.106,1.106,0,0,0,1434.464,196.189Z" transform="translate(-1432.384 -195.214)"/></g><g transform="translate(3.38 6.617)"><path class="a" d="M1434.464,274.026a2.08,2.08,0,1,1,2.079-2.08A2.082,2.082,0,0,1,1434.464,274.026Zm0-3.184a1.1,1.1,0,1,0,1.1,1.1A1.106,1.106,0,0,0,1434.464,270.842Z" transform="translate(-1432.384 -269.867)"/></g></g><g transform="translate(1077.606 88.357)"><path class="a" d="M1139.213,207.9h-1.689a.96.96,0,0,1-.958-.959v-2.421h-2.421a.96.96,0,0,1-.958-.959v-1.688a.96.96,0,0,1,.958-.959h2.421V198.5a.96.96,0,0,1,.958-.959h1.689a.96.96,0,0,1,.958.959v2.421h2.421a.96.96,0,0,1,.958.959v1.688a.96.96,0,0,1-.958.959h-2.421v2.421A.96.96,0,0,1,1139.213,207.9Zm-1.672-.975h1.656v-2.421a.96.96,0,0,1,.959-.959h2.421v-1.656h-2.421a.96.96,0,0,1-.959-.959v-2.421h-1.656v2.421a.96.96,0,0,1-.959.959h-2.421v1.656h2.421a.96.96,0,0,1,.959.959Z" transform="translate(-1133.186 -197.538)"/></g><g transform="translate(1079.331 82.31)"><path class="a" d="M1159.93,132.061h-7.282v-1.569a1.2,1.2,0,0,1,1.223-1.178h4.836a1.2,1.2,0,0,1,1.223,1.178Zm-6.307-.975h5.332v-.594a.232.232,0,0,0-.248-.2h-4.836a.232.232,0,0,0-.248.2Z" transform="translate(-1152.648 -129.314)"/></g><g transform="translate(1102.468 82.31)"><path class="a" d="M1420.946,132.061h-7.282V130h.11a1.228,1.228,0,0,1,1.113-.69h4.835a1.2,1.2,0,0,1,1.223,1.178Zm-6.307-.975h5.332v-.594a.232.232,0,0,0-.248-.2h-4.835a.232.232,0,0,0-.248.2Z" transform="translate(-1413.664 -129.314)"/></g><g transform="translate(1072.2 84.043)"><path class="a" d="M1076.921,175.089a4.441,4.441,0,0,1-1.141-.143c-3.612-.959-3.585-5.689-3.573-7.26a30.347,30.347,0,0,1,.282-4.323A33.686,33.686,0,0,1,1077,150.037a2.511,2.511,0,0,1,2.137-1.166h7.667a2.547,2.547,0,0,1,1.649.6,3.48,3.48,0,0,0,2.332,1.038h7.507a2.977,2.977,0,0,0,1.931-.7,3.069,3.069,0,0,1,2.05-.94h7.667a2.511,2.511,0,0,1,2.137,1.166c.32.521.635,1.078.937,1.657l-.006,0a34.562,34.562,0,0,1,1.875,4.342,36.056,36.056,0,0,1,1.991,11.921c0,3.892-1.27,6.373-3.575,6.985a6.769,6.769,0,0,1-5.061-1.1,16.93,16.93,0,0,1-5.19-5.206,2.938,2.938,0,0,0-2.45-1.276h-12.116a2.938,2.938,0,0,0-2.45,1.276,16.932,16.932,0,0,1-5.19,5.206A7.814,7.814,0,0,1,1076.921,175.089Zm2.217-25.243a1.531,1.531,0,0,0-1.306.7,32.7,32.7,0,0,0-4.376,12.943,29.915,29.915,0,0,0-.274,4.171v.021c-.028,3.737.9,5.8,2.848,6.321a5.837,5.837,0,0,0,4.309-1,15.946,15.946,0,0,0,4.877-4.9,3.922,3.922,0,0,1,3.265-1.717H1100.6a3.923,3.923,0,0,1,3.265,1.717,15.941,15.941,0,0,0,4.876,4.9,5.837,5.837,0,0,0,4.309,1c1.838-.488,2.85-2.634,2.85-6.043a35.085,35.085,0,0,0-1.94-11.609h0v0q-.109-.313-.225-.623l.008,0a41.721,41.721,0,0,0-1.8-3.974h0c-.226-.417-.458-.819-.692-1.2a1.53,1.53,0,0,0-1.306-.7h-7.667a2.151,2.151,0,0,0-1.419.707,3.954,3.954,0,0,1-2.563.929h-7.507a4.486,4.486,0,0,1-2.964-1.27,1.57,1.57,0,0,0-1.018-.366Z" transform="translate(-1072.2 -148.871)"/></g><g transform="translate(1091.693 90.695)"><path class="a" d="M1294.954,229.6a2.844,2.844,0,1,1,2.844-2.844A2.848,2.848,0,0,1,1294.954,229.6Zm0-4.714a1.869,1.869,0,1,0,1.869,1.869A1.871,1.871,0,0,0,1294.954,224.887Z" transform="translate(-1292.11 -223.912)"/></g><g transform="translate(1087.699 77.738)"><path class="a" d="M1253.743,86.634a.488.488,0,0,1-.433-.712,3.4,3.4,0,0,0-1.256-4.333,7.087,7.087,0,0,0-1.647-.618,10.135,10.135,0,0,1-1.472-.506,3.3,3.3,0,0,1-1.874-2.139.487.487,0,1,1,.954-.2,2.369,2.369,0,0,0,1.328,1.456,9.27,9.27,0,0,0,1.332.454,7.928,7.928,0,0,1,1.871.714,4.415,4.415,0,0,1,1.629,5.622A.488.488,0,0,1,1253.743,86.634Z" transform="translate(-1247.051 -77.738)"/></g></g></svg>