<svg xmlns="http://www.w3.org/2000/svg" width="41.131" height="32.094" viewBox="0 0 41.131 32.094"><defs><style>.a{fill:#33f5ff;}</style></defs><path class="a" d="M903.082-84.9a2.616,2.616,0,0,0,2.668-.315L916.9-92.232a4.151,4.151,0,0,0,1.769-3.2,1.54,1.54,0,0,0-.7-1.421,1.541,1.541,0,0,0-1.576.165l-11.5,7.241a.474.474,0,0,0-.211.3.471.471,0,0,0,.062.359.478.478,0,0,0,.657.151l11.5-7.242c.251-.159.479-.21.609-.136s.205.29.205.585a3.2,3.2,0,0,1-1.322,2.4l-11.149,7.02a1.731,1.731,0,0,1-1.7.288,1.734,1.734,0,0,1-.662-1.59,6.945,6.945,0,0,1,2.869-5.2l12.694-7.993a.476.476,0,0,0,.223-.4.476.476,0,0,0-.222-.4l-24.393-15.36a.481.481,0,0,0-.508,0L880.7-108.586a7.417,7.417,0,0,0-3.159,5.722v.365a7.417,7.417,0,0,0,3.159,5.722l19.11,12.034a.464.464,0,0,0,.359.061.468.468,0,0,0,.3-.21.472.472,0,0,0,.062-.36.476.476,0,0,0-.211-.3L881.2-97.583a6.567,6.567,0,0,1-2.713-4.915v-.365a6.568,6.568,0,0,1,2.713-4.915l12.6-7.931,23.5,14.8-12.053,7.59a7.781,7.781,0,0,0-3.314,6A2.593,2.593,0,0,0,903.082-84.9Z" transform="translate(-877.536 116.749)"/><g transform="translate(4.784 5.395)"><path class="a" d="M913.213-99.569a.475.475,0,0,0,.062-.359.474.474,0,0,0-.211-.3l-15.824-9.965a.478.478,0,0,0-.253-.073.477.477,0,0,0-.4.223.477.477,0,0,0,.149.657l15.825,9.965A.489.489,0,0,0,913.213-99.569Z" transform="translate(-885.508 110.265)"/><path class="a" d="M911.768-96.22a.473.473,0,0,0,.062-.36.474.474,0,0,0-.211-.3l-6.685-4.191a.476.476,0,0,0-.253-.073.471.471,0,0,0-.107.012.471.471,0,0,0-.3.211.477.477,0,0,0,.151.657l6.685,4.191A.485.485,0,0,0,911.768-96.22Z" transform="translate(-886.801 108.732)"/><path class="a" d="M908.469-94.039a.478.478,0,0,0-.152-.657L901.58-98.9a.479.479,0,0,0-.251-.072.477.477,0,0,0-.406.224.478.478,0,0,0,.152.657l6.737,4.206A.487.487,0,0,0,908.469-94.039Z" transform="translate(-886.238 108.368)"/><path class="a" d="M886.47-104.453a.475.475,0,0,0-.223.4.474.474,0,0,0,.225.4l6.787,4.221a.485.485,0,0,0,.511,0l5.589-3.613a.476.476,0,0,0,.218-.4.473.473,0,0,0-.224-.4l-6.685-4.192a.48.48,0,0,0-.254-.072.477.477,0,0,0-.254.072Zm5.946-2.618,5.8,3.636-4.706,3.042-5.884-3.658Z" transform="translate(-883.784 109.903)"/><path class="a" d="M904.511-91.706a.457.457,0,0,0,.252.072.472.472,0,0,0,.4-.225.477.477,0,0,0-.153-.657l-6.787-4.221a.481.481,0,0,0-.252-.072.449.449,0,0,0-.109.013.472.472,0,0,0-.3.212.477.477,0,0,0,.153.656Z" transform="translate(-885.674 108.004)"/><path class="a" d="M900.921-90.254a.477.477,0,0,0-.153-.656l-16.753-10.417a.47.47,0,0,0-.251-.072.474.474,0,0,0-.405.225.477.477,0,0,0,.153.656L900.265-90.1A.485.485,0,0,0,900.921-90.254Z" transform="translate(-883.287 108.775)"/></g></svg>