<svg xmlns="http://www.w3.org/2000/svg" width="43.297" height="26.766" viewBox="0 0 43.297 26.766"><defs><style>.a{fill:#33f5ff;}</style></defs><path class="a" d="M809.323-296.148v9.839l9.771,7.992v-26.269Z" transform="translate(-775.797 304.586)"/><path class="a" d="M788.587-286a3.353,3.353,0,0,1-3.348-3.348,3.358,3.358,0,0,1,3.348-3.35,3.352,3.352,0,0,1,3.349,3.349A3.352,3.352,0,0,1,788.587-286Z" transform="translate(-772.273 302.846)"/><path class="a" d="M800.08-304.316H772.649a2.6,2.6,0,0,0-2.6,2.6v21.335a2.6,2.6,0,0,0,2.6,2.6H800.08a2.6,2.6,0,0,0,2.6-2.6v-21.335A2.6,2.6,0,0,0,800.08-304.316Zm-2.01,13.62c-.283.222-6.98,5.429-11.706,5.429s-11.423-5.207-11.705-5.429a.444.444,0,0,1-.172-.353.445.445,0,0,1,.172-.353c.283-.222,6.98-5.429,11.705-5.429s11.423,5.207,11.706,5.429a.445.445,0,0,1,.172.353A.444.444,0,0,1,798.071-290.7Z" transform="translate(-770.05 304.547)"/></svg>