<svg xmlns="http://www.w3.org/2000/svg" width="200" height="79.132" viewBox="0 0 200 79.132"><defs><style>.a,.d{fill:#2e4cff;}.a{opacity:0.5;}.b{fill:#fff;}.c{fill:#33f5ff;}</style></defs><g transform="translate(-270.506 -3951.662)"><g transform="translate(270.506 3951.662)"><path class="a" d="M368.389,4049.626a32.057,32.057,0,0,0,6.261-36.518,32.051,32.051,0,0,0-42.786,42.734A32.055,32.055,0,0,0,368.389,4049.626Z" transform="translate(-313.7 -3994.909)"/><path class="b" d="M409.623,4071.215,394.9,4062.7a2.489,2.489,0,0,0-3.734,2.153l-.01,17.01a2.489,2.489,0,0,0,3.732,2.157l14.736-8.5A2.488,2.488,0,0,0,409.623,4071.215Z" transform="translate(-360.021 -4033.798)"/><path class="c" d="M389.079,4025.48a32.224,32.224,0,0,0-5.393-3.288,32.054,32.054,0,0,1-42.786,42.734,32.046,32.046,0,1,0,48.18-39.446Z" transform="translate(-322.734 -4003.992)"/><path class="d" d="M291.975,3979.471a32.054,32.054,0,0,1,39.481-9.609A32.045,32.045,0,1,0,288.67,4012.6,32.039,32.039,0,0,1,291.975,3979.471Z" transform="translate(-270.506 -3951.662)"/></g><g transform="translate(368.296 3982.501)"><g transform="translate(0)"><path class="b" d="M824.573,4071.3l9.807.006,0,2.307-5.961,0,0,3.268h4.422v1.924l-4.422,0-.007,8.457,5.962.006v2.115l-9.807-.008.013-18.071Z" transform="translate(-779.38 -4071.269)"/><path class="b" d="M750.844,4071.25l12.112.007,0,2.5-3.845,0-.011,15.573-4.23,0,.011-15.764-4.038,0,0-2.308Z" transform="translate(-724.684 -4071.23)"/><path class="b" d="M694.187,4071.211h4.037l-.012,15.958,5.576.005v2.113l-9.614,0,.014-18.073Z" transform="translate(-682.639 -4071.201)"/><path class="b" d="M649.486,4071.173l9.8.009,0,2.308-5.767,0,0,3.074,4.232,0,0,2.115-4.23,0-.006,8.46,5.767.005v2.112l-9.8-.005.013-18.074Z" transform="translate(-649.473 -4071.173)"/><path class="b" d="M872.7,4089.407l-2.691,0,.012-18.072h2.692l4.417,8.848,3.273-8.842,4.038,0-.012,18.072-4.229,0,.006-9.61-3.467,9.609h-.576l-3.456-9.038-.006,9.036Z" transform="translate(-813.104 -4071.291)"/><path class="b" d="M802.968,4071.279l3.845.006-.011,18.072-3.845,0,.011-18.075Z" transform="translate(-763.351 -4071.251)"/><path class="b" d="M4.23,18.074h0l-4.23,0L.012,0,7.894.006h.013A4.046,4.046,0,0,1,9.848.491a4.663,4.663,0,0,1,1.494,1.3A7.219,7.219,0,0,1,12.7,5.969a6.285,6.285,0,0,1-1.556,3.988,5.354,5.354,0,0,1-1.415,1.154,3.219,3.219,0,0,1-1.454.43l-4.038,0,0,6.537Zm2.7-9.227h.033A1.79,1.79,0,0,0,8.431,7.828a4.772,4.772,0,0,0,.613-2.246,3.848,3.848,0,0,0-.717-2.107,2.685,2.685,0,0,0-.725-.7A1.64,1.64,0,0,0,6.74,2.5h-2.5l0,6.343Z" transform="translate(72.866 0.051)"/><path class="b" d="M7.492,18.267h0A6.547,6.547,0,0,1,4.558,17.5a7.752,7.752,0,0,1-2.39-1.986,9.424,9.424,0,0,1-1.6-2.916A10.7,10.7,0,0,1,0,9.032,9.815,9.815,0,0,1,2.668,2.05,7.129,7.129,0,0,1,4.822.545,6.206,6.206,0,0,1,7.362,0l.143,0,.136,0a6.139,6.139,0,0,1,2.512.539A7.112,7.112,0,0,1,12.291,2.03,9.067,9.067,0,0,1,14.266,5.1,10.654,10.654,0,0,1,15,9.044a10.8,10.8,0,0,1-.588,3.56A9.508,9.508,0,0,1,12.8,15.517,7.774,7.774,0,0,1,10.411,17.5,6.5,6.5,0,0,1,7.492,18.267Zm0-1.538h.029c.64,0,1.248-.8,1.713-2.252A19.489,19.489,0,0,0,10,9.04,19.492,19.492,0,0,0,9.242,3.6C8.778,2.149,8.17,1.348,7.529,1.348H7.481c-.656,0-1.274.8-1.74,2.254A19.02,19.02,0,0,0,5,9.036a19.058,19.058,0,0,0,.734,5.44c.463,1.454,1.079,2.254,1.733,2.254Z" transform="translate(86.715 0.065)"/></g><g transform="translate(71.896 23.264)"><path class="b" d="M928.092,4161.528h3.1c1.827,0,3,.939,3,2.539v.021c0,1.7-1.311,2.6-3.107,2.6h-.991v2.065h-2Zm2.951,3.591c.712,0,1.146-.371,1.146-.938v-.021c0-.619-.434-.95-1.156-.95h-.939v1.909Z" transform="translate(-928.092 -4161.477)"/><path class="b" d="M959.012,4161.528h2V4167h3.5v1.755h-5.5Z" transform="translate(-951.033 -4161.477)"/><path class="b" d="M988.487,4161.329h1.93l3.075,7.275h-2.147l-.526-1.29h-2.786l-.516,1.29h-2.105Zm1.754,4.427-.805-2.053-.815,2.053Z" transform="translate(-970.621 -4161.329)"/><path class="b" d="M1019.237,4166.048l-2.745-4.52h2.281l1.486,2.632,1.5-2.632h2.239l-2.745,4.489v2.735h-2.012Z" transform="translate(-993.681 -4161.477)"/></g></g></g></svg>