<svg xmlns="http://www.w3.org/2000/svg" width="37.84" height="42.374" viewBox="0 0 37.84 42.374"><defs><style>.a{fill:#33f5ff;}</style></defs><path class="a" d="M1624.424-84.285h34.759v-20.2h-32.771l28.4-16.36-3.347-5.81-30.118,17.353,3.082,5.349Zm33.92-.839h-33.081V-97.784h33.081Zm0-13.5h-4.435l4.435-4.434Zm-.594-5.027-5.026,5.027h-8.165l5.028-5.027Zm-9.351,0-5.027,5.027h-8.164l5.027-5.027Zm-9.351,0-5.027,5.027h-8.165l5.028-5.027Zm-9.352,0-4.433,4.434v-4.434Zm23.966-17.507-3.842,2.213,1.628-6.055Zm-3.023-4.06-1.845,6.865-7.076,4.076,1.846-6.865Zm-8.1,4.669-1.846,6.865-7.075,4.076,1.846-6.865Zm-8.1,4.668-1.846,6.865-7.075,4.076,1.845-6.865ZM1622.487-109l3.842-2.213-1.629,6.055Z" transform="translate(-1621.342 126.659)"/></svg>