<svg xmlns="http://www.w3.org/2000/svg" width="41.802" height="36.732" viewBox="0 0 41.802 36.732"><defs><style>.a{fill:#33f5ff;}</style></defs><g transform="translate(-1797.807 115.5)"><path class="a" d="M1839.184-99.939h-15.893l-.082-.4a4.62,4.62,0,0,0-1.967-2.944,4.547,4.547,0,0,0-3.462-.678,4.625,4.625,0,0,0-3.622,3.62l-.08.4h-15.843a.47.47,0,0,0-.428.476l0,20.27a.421.421,0,0,0,.425.425h40.949a.421.421,0,0,0,.425-.425v-20.32A.455.455,0,0,0,1839.184-99.939ZM1818.71-103.2a3.8,3.8,0,0,1,3.792,3.792,3.8,3.8,0,0,1-3.792,3.792,3.8,3.8,0,0,1-3.793-3.792A3.8,3.8,0,0,1,1818.71-103.2ZM1798.662-79.62V-99.138H1814.1l.062.427a4.6,4.6,0,0,0,5.246,3.848,4.6,4.6,0,0,0,3.85-3.856l.068-.419h15.431l.053,19.518Z"/><path class="a" d="M1808.692-84.6h-3.916v-6.592a.25.25,0,0,0-.25-.25h-.7a.25.25,0,0,0-.25.25v7.231a.25.25,0,0,0,.25.25h4.864a.25.25,0,0,0,.25-.25v-.389A.25.25,0,0,0,1808.692-84.6Z"/><rect class="a" width="1.197" height="7.782" rx="0.25" transform="translate(1812.735 -91.495)"/><path class="a" d="M1824.067-91.5h-.725a.249.249,0,0,0-.238.172l-2.125,6.484-2.235-6.488a.251.251,0,0,0-.236-.168h-.737a.251.251,0,0,0-.2.105.254.254,0,0,0-.031.228l2.578,7.283a.251.251,0,0,0,.236.166h1.095a.251.251,0,0,0,.236-.165l2.623-7.282a.253.253,0,0,0-.032-.229A.246.246,0,0,0,1824.067-91.5Z"/><path class="a" d="M1833.591-84.6h-4.38v-2.763h3.917a.25.25,0,0,0,.25-.25V-88a.249.249,0,0,0-.25-.25h-3.917v-2.352h4.226a.251.251,0,0,0,.25-.25v-.389a.251.251,0,0,0-.25-.25h-5.173a.25.25,0,0,0-.25.25v7.282a.25.25,0,0,0,.25.25h5.327a.25.25,0,0,0,.25-.25v-.389A.25.25,0,0,0,1833.591-84.6Z"/><path class="a" d="M1811.346-106.772a.41.41,0,0,0-.123.289.407.407,0,0,0,.124.289.4.4,0,0,0,.579,0A9.564,9.564,0,0,1,1818.71-109a9.564,9.564,0,0,1,6.783,2.805.4.4,0,0,0,.579,0,.408.408,0,0,0,.124-.289.41.41,0,0,0-.124-.29A10.516,10.516,0,0,0,1811.346-106.772Z"/><path class="a" d="M1807.935-110.228a15.1,15.1,0,0,1,10.775-4.484,15.107,15.107,0,0,1,10.8,4.507.4.4,0,0,0,.577,0,.4.4,0,0,0,0-.578,15.98,15.98,0,0,0-11.375-4.715,15.984,15.984,0,0,0-11.376,4.715.4.4,0,0,0,0,.579A.438.438,0,0,0,1807.935-110.228Z"/></g></svg>