<svg xmlns="http://www.w3.org/2000/svg" width="44.499" height="29.591" viewBox="0 0 44.499 29.591"><defs><style>.a{fill:#33f5ff;}</style></defs><path class="a" d="M1747.548-302.721a.481.481,0,0,0-.077-.332.454.454,0,0,0-.585-.053l-8.844,7.044-11.413-4.751a.315.315,0,0,0-.117-.02.393.393,0,0,0-.228.071l-11.969,8.549a.412.412,0,0,0-.163.257.361.361,0,0,0,.055.273c.055.09.206.323.543.1L1726.535-300l11.45,4.744a.512.512,0,0,0,.4-.049l9.016-7.149A.362.362,0,0,0,1747.548-302.721Z" transform="translate(-1710.646 303.187)"/><path class="a" d="M1717.424-273.2h-7.065v-12.512h7.065Zm12.5,0h-7.064v-17.531h7.064Zm12.442,0H1735.3v-16.249h7.065Zm12.5,0h-7.066V-298h7.066Z" transform="translate(-1710.359 302.794)"/></svg>