<svg xmlns="http://www.w3.org/2000/svg" width="43.814" height="32.12" viewBox="0 0 43.814 32.12"><defs><style>.a{fill:#33f5ff;}</style></defs><g transform="translate(-1077.701 -537.189)"><path class="a" d="M1525.4,638.237l.007.013q.1.191.2.385Z" transform="translate(-407.912 -92.067)"/><path class="a" d="M1119.313,550.213l.234.651a36.982,36.982,0,0,0-2.051-4.682q-.351-.649-.717-1.246a2.026,2.026,0,0,0-1.726-.936h-.193v-1.046a1.206,1.206,0,0,0-1.227-1.181h-4.848a1.231,1.231,0,0,0-1.116.692h-.11V544h-.193a2.609,2.609,0,0,0-1.739.826,3.476,3.476,0,0,1-2.253.815h-3.382a4.44,4.44,0,0,0-1.73-5.433,7.944,7.944,0,0,0-1.876-.716,9.3,9.3,0,0,1-1.336-.455,2.374,2.374,0,0,1-1.331-1.46.489.489,0,0,0-.956.2,3.3,3.3,0,0,0,1.879,2.145,10.132,10.132,0,0,0,1.476.507,7.108,7.108,0,0,1,1.651.62,3.411,3.411,0,0,1,1.259,4.344.488.488,0,0,0-.054.246h-3.126a3.976,3.976,0,0,1-2.655-1.157,2.065,2.065,0,0,0-1.337-.484h-.193v-1.046a1.206,1.206,0,0,0-1.226-1.181h-4.848a1.206,1.206,0,0,0-1.227,1.181V544h-.193a2.026,2.026,0,0,0-1.726.936,33.2,33.2,0,0,0-4.456,13.173,30.253,30.253,0,0,0-.278,4.26c-.018,2.374.262,6.028,3.219,6.813a6.317,6.317,0,0,0,4.7-1.054,16.482,16.482,0,0,0,5.047-5.069,3.439,3.439,0,0,1,2.865-1.5h12.148a3.44,3.44,0,0,1,2.865,1.5,16.477,16.477,0,0,0,5.046,5.069,6.318,6.318,0,0,0,4.7,1.054c2.077-.552,3.221-2.871,3.221-6.531A35.59,35.59,0,0,0,1119.313,550.213Zm-10.776-7.259a.233.233,0,0,1,.249-.2h4.848a.233.233,0,0,1,.249.2v.6h-5.346Zm-23.2,0a.233.233,0,0,1,.249-.2h4.848a.233.233,0,0,1,.249.2v.6h-5.346Zm7.2,10.924a.472.472,0,0,1-.472.472h-2.444a.472.472,0,0,0-.472.472v2.444a.472.472,0,0,1-.472.472h-1.693a.472.472,0,0,1-.472-.472v-2.444a.472.472,0,0,0-.472-.472h-2.444a.472.472,0,0,1-.472-.472v-1.693a.472.472,0,0,1,.472-.472h2.444a.472.472,0,0,0,.472-.472V548.8a.472.472,0,0,1,.472-.472h1.693a.472.472,0,0,1,.472.472v2.444a.472.472,0,0,0,.472.472h2.444a.472.472,0,0,1,.472.472Zm7.073,1.517a2.363,2.363,0,1,1,2.363-2.363A2.363,2.363,0,0,1,1099.608,555.395Zm8.31-.865a1.6,1.6,0,1,1,1.6-1.6A1.6,1.6,0,0,1,1107.918,554.53Zm3.389,3.416a1.6,1.6,0,1,1,1.6-1.6A1.6,1.6,0,0,1,1111.307,557.945Zm0-6.635a1.6,1.6,0,1,1,1.6-1.6A1.6,1.6,0,0,1,1111.307,551.311Zm3.442,3.219a1.6,1.6,0,1,1,1.6-1.6A1.6,1.6,0,0,1,1114.75,554.53Z"/></g></svg>