<svg xmlns="http://www.w3.org/2000/svg" width="34.461" height="34.721" viewBox="0 0 34.461 34.721"><defs><style>.a{fill:none;}.b{fill:#33f5ff;}</style></defs><path class="a" d="M999.713-96.85a2.574,2.574,0,0,0-2.572,2.571v1.672a.731.731,0,0,1-.73.731.732.732,0,0,1-.731-.731v-.74a1.442,1.442,0,0,0-.71,1.241v6.1a1.442,1.442,0,0,0,.71,1.24V-90.1a.732.732,0,0,1,.731-.731.731.731,0,0,1,.73.731v6.261a2.574,2.574,0,0,0,2.572,2.571,2.573,2.573,0,0,0,2.571-2.571V-94.279A2.573,2.573,0,0,0,999.713-96.85Z" transform="translate(-991.495 114.734)"/><path class="a" d="M1025.684-93.347v.74a.732.732,0,0,1-.73.731.732.732,0,0,1-.731-.731v-1.672a2.574,2.574,0,0,0-2.572-2.571,2.573,2.573,0,0,0-2.571,2.571v10.442a2.573,2.573,0,0,0,2.571,2.571,2.574,2.574,0,0,0,2.572-2.571V-90.1a.732.732,0,0,1,.731-.731.732.732,0,0,1,.73.731v5.329a1.443,1.443,0,0,0,.71-1.24v-6.1A1.445,1.445,0,0,0,1025.684-93.347Z" transform="translate(-995.546 114.734)"/><path class="b" d="M1025.264-95l-.071-.015-.01-.072a3.844,3.844,0,0,0-3.785-3.275,3.829,3.829,0,0,0-3.825,3.825V-84.09a3.829,3.829,0,0,0,3.825,3.825,3.844,3.844,0,0,0,3.785-3.275l.01-.072.071-.015a2.709,2.709,0,0,0,2.132-2.637v-6.1A2.709,2.709,0,0,0,1025.264-95Zm1.086,8.732a1.653,1.653,0,0,1-.981,1.507l-.146.065v-5.66a.523.523,0,0,0-.522-.523.524.524,0,0,0-.523.523v6.261a2.782,2.782,0,0,1-2.78,2.779,2.782,2.782,0,0,1-2.779-2.779V-94.532a2.782,2.782,0,0,1,2.779-2.779,2.782,2.782,0,0,1,2.78,2.779v1.672a.524.524,0,0,0,.523.523.523.523,0,0,0,.522-.523v-1.071l.146.065a1.653,1.653,0,0,1,.981,1.507Z" transform="translate(-995.293 114.987)"/><path class="b" d="M999.46-98.357a3.843,3.843,0,0,0-3.785,3.275l-.011.072-.071.015a2.709,2.709,0,0,0-2.132,2.637v6.1a2.709,2.709,0,0,0,2.132,2.637l.071.015.011.072a3.843,3.843,0,0,0,3.785,3.275,3.829,3.829,0,0,0,3.825-3.825V-94.532A3.829,3.829,0,0,0,999.46-98.357Zm2.779,14.267a2.782,2.782,0,0,1-2.779,2.779,2.782,2.782,0,0,1-2.78-2.779v-6.261a.523.523,0,0,0-.522-.523.524.524,0,0,0-.523.523v5.66l-.146-.065a1.653,1.653,0,0,1-.979-1.507v-6.1a1.653,1.653,0,0,1,.979-1.507l.146-.065v1.071a.524.524,0,0,0,.523.523.523.523,0,0,0,.522-.523v-1.672a2.782,2.782,0,0,1,2.78-2.779,2.782,2.782,0,0,1,2.779,2.779Z" transform="translate(-991.241 114.987)"/><path class="b" d="M1024.936-92.953l-.075-4.476a17.525,17.525,0,0,0,.39-3.975A17.113,17.113,0,0,0,1020-113.5a17.112,17.112,0,0,0-11.967-4.85l-.294,0a17.115,17.115,0,0,0-12.092,5.256,17.107,17.107,0,0,0-4.848,12.261,17.27,17.27,0,0,0,.52,3.936l.078,4.5a.525.525,0,0,0,.523.514h.008a.524.524,0,0,0,.514-.532l-.076-4.55a.534.534,0,0,0-.017-.121,16.21,16.21,0,0,1-.505-3.765,16.076,16.076,0,0,1,4.552-11.517,16.079,16.079,0,0,1,11.359-4.936l.275,0a16.2,16.2,0,0,1,16.178,15.915,16.284,16.284,0,0,1-.379,3.78.493.493,0,0,0-.013.121l.077,4.549a.522.522,0,0,0,.16.368.518.518,0,0,0,.363.146h.009A.523.523,0,0,0,1024.936-92.953Z" transform="translate(-990.793 118.346)"/></svg>