<svg xmlns="http://www.w3.org/2000/svg" xmlns:xlink="http://www.w3.org/1999/xlink" width="37.584" height="32.451" viewBox="0 0 37.584 32.451"><defs><style>.a{fill:none;}.b{fill:url(#a);}.c{fill:url(#b);}.d{fill:url(#c);}.e{clip-path:url(#d);}.f{fill:#33f5ff;}</style><linearGradient id="a" x1="0.5" x2="0.5" y2="1" gradientUnits="objectBoundingBox"><stop offset="0" stop-color="#33f5ff"/><stop offset="1" stop-color="#33f5ff"/></linearGradient><linearGradient id="b" x1="0.5" y1="0" x2="0.5" y2="1" xlink:href="#a"/><linearGradient id="c" x1="0.5" y1="0" x2="0.5" y2="1" xlink:href="#a"/><clipPath id="d"><path class="a" d="M703.064-84.293H685.54a.207.207,0,0,0-.207.207v1.2c0,.216-.235.393-.523.393s-.523-.176-.523-.393v-1.2a.207.207,0,0,0-.207-.207h-2.921c-.289,0-.523-.176-.523-.392s.234-.392.523-.392h2.921a.207.207,0,0,0,.207-.207v-1.2c0-.216.234-.392.523-.392s.523.176.523.392v1.2a.207.207,0,0,0,.207.207h17.523c.289,0,.523.176.523.392S703.353-84.293,703.064-84.293Z" transform="translate(-680.636 86.873)"/></clipPath></defs><g transform="translate(0 21.791)"><path class="b" d="M704.441-80.006H667.933a.539.539,0,0,1-.538-.538v-9.583a.539.539,0,0,1,.538-.538h36.508a.539.539,0,0,1,.538.538v9.583A.539.539,0,0,1,704.441-80.006Zm-36.383-.663h36.259V-90H668.058Z" transform="translate(-667.395 90.666)"/></g><path class="c" d="M672.867-82.888c0,.216-.234.393-.523.393s-.523-.176-.523-.393v-3.593c0-.216.234-.392.523-.392s.523.176.523.392Z" transform="translate(-668.155 111.805)"/><path class="d" d="M676.393-82.888c0,.216-.234.393-.523.393s-.523-.176-.523-.393v-3.593c0-.216.234-.392.523-.392s.523.176.523.392Z" transform="translate(-668.76 111.805)"/><g transform="translate(10.967 24.932)"><g class="e"><path class="f" d="M685.545-86.873h0Z" transform="translate(-680.636 86.873)"/><path class="f" d="M703.587-82.5H680.636v-4.377h22.951Z" transform="translate(-680.636 86.873)"/><path class="f" d="M686.563-81.588h0Z" transform="translate(-681.654 85.966)"/></g></g><path class="b" d="M704.441-96.133H667.933a.539.539,0,0,1-.538-.538v-19.765a.539.539,0,0,1,.538-.538h36.508a.539.539,0,0,1,.538.538v19.765A.539.539,0,0,1,704.441-96.133ZM668.058-96.8h36.259v-19.516H668.058Zm15.777-4.96a1.356,1.356,0,0,1-.962-.4,1.353,1.353,0,0,1-.4-.964l0-7.052a1.365,1.365,0,0,1,.181-.675,1.369,1.369,0,0,1,1.863-.505l6.105,3.53a1.36,1.36,0,0,1,.495.494,1.358,1.358,0,0,1,.139,1.035,1.356,1.356,0,0,1-.634.83h0l-6.109,3.522A1.493,1.493,0,0,1,683.835-101.755Zm.005-9.111a.7.7,0,0,0-.61.353.7.7,0,0,0-.094.347l0,7.05a.7.7,0,0,0,.207.5.7.7,0,0,0,.5.2h0a.706.706,0,0,0,.346-.093l6.107-3.521a.7.7,0,0,0,.326-.427.7.7,0,0,0-.071-.533.706.706,0,0,0-.253-.255l-6.1-3.528A.692.692,0,0,0,683.84-110.866Z" transform="translate(-667.395 116.974)"/></svg>