<svg xmlns="http://www.w3.org/2000/svg" width="49.264" height="33.571" viewBox="0 0 49.264 33.571"><defs><style>.a{fill:#33f5ff;stroke:rgba(0,0,0,0);stroke-miterlimit:10;}</style></defs><g transform="translate(-665.726 -476.952)"><g transform="translate(-1478.989 -250.08)"><path class="a" d="M-799.1,169.2l-5.375-3.723H-816.46a2.866,2.866,0,0,1-2.866-2.866V160.56H-808.7a5.643,5.643,0,0,0,5.643-5.643v-7.275h8.744a2.866,2.866,0,0,1,2.866,2.866v12.1a2.866,2.866,0,0,1-2.866,2.866h-4.212v3.421a.368.368,0,0,1-.368.368A.363.363,0,0,1-799.1,169.2Zm-31.763-5.941v-4.276h-5.264a3.582,3.582,0,0,1-3.583-3.582V140.273a3.583,3.583,0,0,1,3.583-3.583h27.685a3.583,3.583,0,0,1,3.583,3.583V155.4a3.582,3.582,0,0,1-3.583,3.582h-14.982l-6.719,4.654a.453.453,0,0,1-.26.083A.46.46,0,0,1-830.862,163.255Zm14.7-15.3a2.2,2.2,0,0,0,2.2,2.2,2.2,2.2,0,0,0,2.2-2.2,2.2,2.2,0,0,0-2.2-2.2A2.2,2.2,0,0,0-816.163,147.953Zm-8.192,0a2.2,2.2,0,0,0,2.2,2.2,2.2,2.2,0,0,0,2.2-2.2,2.2,2.2,0,0,0-2.2-2.2A2.2,2.2,0,0,0-824.355,147.953Zm-8.192,0a2.2,2.2,0,0,0,2.2,2.2,2.2,2.2,0,0,0,2.2-2.2,2.2,2.2,0,0,0-2.2-2.2A2.2,2.2,0,0,0-832.547,147.953Z" transform="translate(2984.924 590.841)"/></g></g></svg>