<svg xmlns="http://www.w3.org/2000/svg" width="40.468" height="31.878" viewBox="0 0 40.468 31.878"><defs><style>.a{fill:#33f5ff;}</style></defs><g transform="translate(-878.682 307.5)"><path class="a" d="M923.763-289.229l-12.857,8.1A7.034,7.034,0,0,0,908-275.871a1.757,1.757,0,0,0,.671,1.61,1.751,1.751,0,0,0,1.72-.292l11.292-7.11a3.243,3.243,0,0,0,1.339-2.427c0-.3-.078-.522-.208-.592s-.362-.024-.617.137l-11.648,7.335a.484.484,0,0,1-.666-.153.476.476,0,0,1-.062-.364.481.481,0,0,1,.214-.3l11.648-7.335A4.483,4.483,0,0,0,923.763-289.229Z" transform="translate(-4.613 -2.875)"/><g transform="translate(878.682 -307.5)"><path class="a" d="M903.59-276.29a2.627,2.627,0,0,1-1.169-2.456,7.881,7.881,0,0,1,3.356-6.08l12.208-7.688-23.8-14.987-12.757,8.033a6.653,6.653,0,0,0-2.748,4.979v.37a6.652,6.652,0,0,0,2.748,4.978l19.357,12.188s3.1,2.749,5.506.343A2.65,2.65,0,0,1,903.59-276.29Zm1.488-12.286a.493.493,0,0,1-.666.154l-6.823-4.26a.484.484,0,0,1-.154-.666.484.484,0,0,1,.411-.227.484.484,0,0,1,.254.072l6.823,4.26A.484.484,0,0,1,905.078-288.576Zm2.771-1.84a.491.491,0,0,1-.665.153l-6.771-4.245a.483.483,0,0,1-.152-.666.477.477,0,0,1,.3-.214.48.48,0,0,1,.109-.013.482.482,0,0,1,.256.074l6.771,4.245a.48.48,0,0,1,.214.3A.478.478,0,0,1,907.85-290.416Zm-14.072-12.447a.483.483,0,0,1,.41-.226.485.485,0,0,1,.256.074l16.027,10.093a.48.48,0,0,1,.214.3.481.481,0,0,1-.062.364.5.5,0,0,1-.666.152L893.929-302.2A.483.483,0,0,1,893.778-302.863Zm-8.5,5.294,5.765-3.631a.484.484,0,0,1,.257-.073.486.486,0,0,1,.257.073l6.771,4.246a.479.479,0,0,1,.227.405.482.482,0,0,1-.221.409l-5.661,3.66a.491.491,0,0,1-.517,0l-6.874-4.275a.481.481,0,0,1-.228-.409A.481.481,0,0,1,885.283-297.568Zm15.141,13.239a.492.492,0,0,1-.665.155L882.79-294.725a.483.483,0,0,1-.155-.665.48.48,0,0,1,.41-.227.477.477,0,0,1,.255.072l16.969,10.551A.483.483,0,0,1,900.423-284.329Zm1.882-2.406a.479.479,0,0,1-.41.228.463.463,0,0,1-.255-.073l-6.875-4.275a.483.483,0,0,1-.155-.665.479.479,0,0,1,.3-.215.452.452,0,0,1,.11-.013.488.488,0,0,1,.255.073l6.874,4.275A.483.483,0,0,1,902.305-286.735Z" transform="translate(-878.682 307.5)"/></g></g></svg>