<svg xmlns="http://www.w3.org/2000/svg" width="25.499" height="23" viewBox="0 0 25.499 23"><defs><style>.a{fill:#cd3527;}</style></defs><g transform="translate(0 0)"><g transform="translate(0 0)"><path class="a" d="M1396.605,250.346v23l-6.059-6.313h-6.134V256.66h6.134Z" transform="translate(-1384.413 -250.346)"/></g></g><path class="a" d="M1487.159,296.631v8.8a4.4,4.4,0,0,0,0-8.8Z" transform="translate(-1471.865 -289.451)"/><g transform="translate(17.282 0.508)"><path class="a" d="M1456.658-86.577l-.209-.756c4.072-1.224,6.7-5.145,6.7-9.99,0-5.14-3-9.233-7.462-10.185l.151-.77c4.823,1.029,8.065,5.431,8.065,10.955C1463.906-92.118,1461.061-87.9,1456.658-86.577Z" transform="translate(-1455.69 108.277)"/></g></svg>