<svg xmlns="http://www.w3.org/2000/svg" width="30" height="30" viewBox="0 0 30 30"><defs><style>.a{fill:#55acee;}.b,.d{fill:none;}.b{stroke:#55acee;stroke-width:1.3px;}.c{stroke:none;}</style></defs><g transform="translate(-54.5 -112.5)"><path class="a" d="M14.082,2.221A3.518,3.518,0,0,0,15.522.26a6.264,6.264,0,0,1-2.08.86A3.154,3.154,0,0,0,11.052,0,3.419,3.419,0,0,0,7.777,3.546a3.832,3.832,0,0,0,.084.808A9.088,9.088,0,0,1,1.111.648,3.759,3.759,0,0,0,.667,2.432,3.635,3.635,0,0,0,2.125,5.384,3.1,3.1,0,0,1,.64,4.941v.043A3.486,3.486,0,0,0,3.268,8.461a2.959,2.959,0,0,1-.863.125,3,3,0,0,1-.616-.063,3.32,3.32,0,0,0,3.059,2.462A6.252,6.252,0,0,1,.782,12.5,5.945,5.945,0,0,1,0,12.454a8.762,8.762,0,0,0,5.019,1.593c6.026,0,9.318-5.4,9.318-10.09,0-.154,0-.307-.009-.458a6.966,6.966,0,0,0,1.634-1.837,6.143,6.143,0,0,1-1.881.558" transform="translate(62 121.144)"/><g class="b" transform="translate(54.5 112.5)"><circle class="c" cx="15" cy="15" r="15"/><circle class="d" cx="15" cy="15" r="14.35"/></g></g></svg>