<svg xmlns="http://www.w3.org/2000/svg" width="30" height="30" viewBox="0 0 30 30"><defs><style>.a,.d{fill:none;}.a{stroke:#25d366;stroke-width:1.3px;}.b{fill:#25d366;}.c{stroke:none;}</style></defs><g transform="translate(-54.5 -112.5)"><g class="a" transform="translate(54.5 112.5)"><circle class="c" cx="15" cy="15" r="15"/><circle class="d" cx="15" cy="15" r="14.35"/></g><path class="b" d="M.258,15.5a.258.258,0,0,1-.245-.34l1.251-3.755a7.621,7.621,0,1,1,3.158,3.007l-4.1,1.079A.252.252,0,0,1,.258,15.5ZM5.106,2.587a.976.976,0,0,0-.687.279l-.454.455a2.558,2.558,0,0,0-.8,2.495,5.2,5.2,0,0,0,1.5,2.378l2.634,2.633A4.432,4.432,0,0,0,10.279,12.4a2.655,2.655,0,0,0,1.9-.864l.454-.455A.957.957,0,0,0,12.8,9.95a5.25,5.25,0,0,0-1.694-1.481,1.072,1.072,0,0,0-.524-.15.679.679,0,0,0-.6.334c-.172.205-.392.453-.444.494a.873.873,0,0,1-.479.179.781.781,0,0,1-.547-.282L6.456,6.987A.7.7,0,0,1,6.35,5.964a6.45,6.45,0,0,1,.5-.448.675.675,0,0,0,.307-.4.969.969,0,0,0-.125-.73A5.377,5.377,0,0,0,5.55,2.7.953.953,0,0,0,5.106,2.587Z" transform="translate(62 119.5)"/></g></svg>