<svg width="16" height="16" viewBox="0 0 16 16" fill="none" xmlns="http://www.w3.org/2000/svg">
<path d="M4.58465 5.25103C7.02312 5.27305 9.35422 6.25721 11.0707 7.98935C12.7872 9.72149 13.7501 12.0614 13.75 14.5C13.75 14.6989 13.829 14.8897 13.9697 15.0303C14.1103 15.171 14.3011 15.25 14.5 15.25C14.6989 15.25 14.8897 15.171 15.0303 15.0303C15.171 14.8897 15.25 14.6989 15.25 14.5C15.2526 11.6624 14.1321 8.93909 12.1332 6.92503C10.1343 4.91097 7.41954 3.76986 4.582 3.751L3.58331 4.5L4.58465 5.25103ZM5.05 8.1L1.05 5.1C0.956848 5.03014 0.881246 4.93956 0.829175 4.83541C0.777104 4.73127 0.749995 4.61644 0.749995 4.5C0.749995 4.38357 0.777104 4.26873 0.829175 4.16459C0.881246 4.06045 0.956848 3.96986 1.05 3.9L5.05 0.900003C5.20913 0.780656 5.40915 0.72941 5.60606 0.757541C5.80297 0.785671 5.98065 0.890873 6.1 1.05C6.21934 1.20913 6.27059 1.40916 6.24246 1.60607C6.21433 1.80298 6.10913 1.98066 5.95 2.1L2.75 4.5L5.95 6.9C6.02879 6.9591 6.09517 7.03313 6.14535 7.11788C6.19553 7.20263 6.22853 7.29644 6.24246 7.39394C6.25639 7.49144 6.25097 7.59073 6.22653 7.68614C6.20209 7.78155 6.15909 7.87121 6.1 7.95C5.98065 8.10913 5.80297 8.21434 5.60606 8.24247C5.50856 8.25639 5.40927 8.25098 5.31386 8.22654C5.21845 8.2021 5.12879 8.1591 5.05 8.1Z" fill="#C7C7C7"/>
</svg>
