<svg width="80" height="79" viewBox="0 0 80 79" fill="none" xmlns="http://www.w3.org/2000/svg">
<path d="M1.41459 24.0342C0.633189 24.0342 0 24.6677 0 25.4491C0 26.2305 0.63352 26.8637 1.41459 26.8637C2.19565 26.8637 2.8295 26.2302 2.8295 25.4491C2.8295 24.668 2.19598 24.0342 1.41459 24.0342Z" fill="white"/>
<path d="M71.2791 31.3731C70.5695 31.5534 70.1417 32.2739 70.3227 32.9819C70.9327 35.383 71.2427 37.8654 71.2427 40.3602C71.2427 56.792 57.8743 70.1604 41.4418 70.1604C35.2822 70.1604 29.4274 68.2949 24.4191 64.7948H27.8123C28.5438 64.7948 29.1356 64.2023 29.1356 63.4716C29.1356 62.7408 28.5438 62.1483 27.8123 62.1483H20.701C20.312 62.1483 19.9425 62.3196 19.6917 62.6161C19.4396 62.9131 19.3311 63.3055 19.3956 63.6892L20.5806 70.8005C20.6878 71.4473 21.2489 71.9061 21.8844 71.9061C21.9568 71.9061 22.0293 71.9002 22.1027 71.888C22.8239 71.7679 23.3109 71.086 23.1908 70.3649L22.5874 66.743C28.1097 70.7 34.6054 72.8066 41.4415 72.8066C59.3328 72.8066 73.8889 58.2512 73.8889 40.3598C73.8889 37.6455 73.5515 34.9433 72.8862 32.3292C72.7069 31.6199 71.9755 31.1941 71.2791 31.3731Z" fill="white"/>
<path d="M11.6409 40.3601C11.6409 23.9282 25.0093 10.5598 41.4418 10.5598C50.0874 10.5598 58.1429 14.222 63.8085 20.666H59.8125C59.0811 20.666 58.4893 21.2585 58.4893 21.9893C58.4893 22.7201 59.0811 23.3126 59.8125 23.3126H66.9239C67.3129 23.3126 67.6824 23.1412 67.9332 22.8448C68.1853 22.5477 68.2938 22.1554 68.2293 21.7716L67.0443 14.6603C66.9242 13.9405 66.243 13.4502 65.5218 13.5729C64.8007 13.693 64.3137 14.3748 64.4338 15.096L64.9121 17.9679C58.8042 11.5473 50.4183 7.91357 41.4418 7.91357C23.5504 7.91357 8.99432 22.469 8.99432 40.3604C8.99432 46.2692 10.5995 52.0542 13.6347 57.0886C13.8829 57.5008 14.3209 57.7291 14.7694 57.7291C15.002 57.7291 15.2372 57.6676 15.4516 57.5392C16.0772 57.1617 16.2786 56.3482 15.9012 55.723C13.114 51.0995 11.6409 45.7875 11.6409 40.3601Z" fill="white"/>
<path d="M9.02146 5.29312C9.7529 5.29312 10.3447 4.70062 10.3447 3.96984V1.32328C10.3447 0.592498 9.7529 0 9.02146 0C8.29002 0 7.69818 0.592498 7.69818 1.32328V3.96984C7.69818 4.70062 8.29002 5.29312 9.02146 5.29312Z" fill="white"/>
<path d="M10.3447 11.9095V9.26298C10.3447 8.5322 9.7529 7.9397 9.02146 7.9397C8.29002 7.9397 7.69818 8.5322 7.69818 9.26298V11.9095C7.69818 12.6403 8.29002 13.2328 9.02146 13.2328C9.7529 13.2328 10.3447 12.6403 10.3447 11.9095Z" fill="white"/>
<path d="M6.3749 5.29297H3.72834C2.9969 5.29297 2.40506 5.88547 2.40506 6.61625C2.40506 7.34703 2.9969 7.93953 3.72834 7.93953H6.3749C7.10634 7.93953 7.69818 7.34703 7.69818 6.61625C7.69818 5.88547 7.10634 5.29297 6.3749 5.29297Z" fill="white"/>
<path d="M11.668 7.93953H14.3146C15.046 7.93953 15.6378 7.34703 15.6378 6.61625C15.6378 5.88547 15.046 5.29297 14.3146 5.29297H11.668C10.9366 5.29297 10.3447 5.88547 10.3447 6.61625C10.3447 7.34703 10.9366 7.93953 11.668 7.93953Z" fill="white"/>
<path d="M69.2307 68.8105C66.6771 68.8105 64.5992 70.8884 64.5992 73.442C64.5992 75.9956 66.6771 78.0735 69.2307 78.0735C71.7843 78.0735 73.8622 75.9956 73.8622 73.442C73.8622 70.8884 71.7843 68.8105 69.2307 68.8105ZM69.2307 75.4269C68.136 75.4269 67.2458 74.5367 67.2458 73.442C67.2458 72.3473 68.136 71.4571 69.2307 71.4571C70.3254 71.4571 71.2156 72.3473 71.2156 73.442C71.2156 74.5367 70.3254 75.4269 69.2307 75.4269Z" fill="white"/>
<path d="M78.1648 57.1165C77.3834 57.1165 76.7502 57.75 76.7502 58.5314C76.7502 59.3128 77.3837 59.946 78.1648 59.946C78.9459 59.946 79.5797 59.3124 79.5797 58.5314C79.5797 57.7503 78.9462 57.1165 78.1648 57.1165Z" fill="white"/>
<path d="M22.9612 33.1641C22.9999 35.7091 23.8908 38.1615 25.5211 40.1196C26.2175 40.9589 27.0445 42.6034 27.3793 43.6138C27.5666 44.1765 28.0757 47.1436 28.5256 49.761C29.0347 52.7255 29.5608 55.7916 29.9147 57.2406C30.2197 58.4871 31.1308 59.4795 32.3492 59.8954C32.7396 60.0277 33.1415 60.0932 33.5382 60.0932C34.3447 60.0932 35.1328 59.8246 35.7788 59.3082C37.296 58.0974 38.1657 56.2901 38.1657 54.3472L38.1452 47.6398C38.1426 46.9329 38.4165 46.2682 38.9153 45.768C39.4155 45.2672 40.0798 44.9913 40.7865 44.9913C42.2427 44.9913 43.4264 46.1756 43.4264 47.6319V54.2546C43.4264 56.0708 43.9782 58.3729 45.5251 59.3869C46.1673 59.8087 47.2401 60.1802 48.699 59.5427C50.0428 58.9562 51.029 57.7136 51.3366 56.2183C51.7333 54.2896 52.2308 51.165 52.6301 48.6541C52.8935 46.999 53.1912 45.1246 53.2772 44.809C53.5187 45.1868 53.9316 45.424 54.3838 45.424C54.8672 45.424 55.3131 45.1603 55.5443 44.7359L57.1247 41.8482L60.0117 40.2685C60.4368 40.0359 60.7005 39.5906 60.7005 39.1073C60.7005 38.6233 60.4368 38.178 60.0117 37.9461L57.476 36.5597C58.6008 33.2326 58.1161 29.6022 56.0627 26.2847C55.4696 25.327 54.6554 24.5079 53.7109 23.9161C50.3147 21.7846 46.5738 21.2837 43.1737 22.5074C41.4574 23.1264 39.5671 23.1264 37.8481 22.5074C36.154 21.8967 34.3679 21.7121 32.551 21.9583C30.7755 22.1988 29.0983 22.9024 27.6288 23.963L26.4322 21.7753C25.9697 20.9265 24.574 20.9265 24.1112 21.7753L22.1365 25.3859L18.5259 27.3599C18.1008 27.5918 17.8372 28.0371 17.8372 28.5211C17.8372 29.0051 18.1008 29.4504 18.5259 29.6823L22.1365 31.6569L22.9612 33.1641ZM55.5146 39.7121C55.2923 39.8335 55.11 40.0164 54.9886 40.2381L54.3838 41.343L53.7791 40.2381C53.6577 40.0164 53.4754 39.8335 53.2531 39.7121L52.1481 39.1073L53.2531 38.5032C53.4754 38.3818 53.6577 38.1989 53.7791 37.9772L54.3838 36.8723L54.9886 37.9772C55.11 38.1989 55.2923 38.3818 55.5146 38.5032L56.6195 39.1073L55.5146 39.7121ZM32.9053 24.581C34.3037 24.3938 35.6617 24.5331 36.9513 24.9979C39.2488 25.8249 41.7753 25.8249 44.0705 24.9979C46.6847 24.055 49.6117 24.4669 52.3049 26.159C52.911 26.5378 53.4317 27.0635 53.8132 27.6788C54.9436 29.5053 55.4729 31.4333 55.4087 33.3024C54.8569 32.6454 53.6497 32.6987 53.224 33.4801L51.645 36.3678L48.7569 37.9468C48.3318 38.1787 48.0681 38.624 48.0681 39.108C48.0681 39.5913 48.3318 40.0366 48.7569 40.2692L51.6033 41.8267C51.2827 42.5131 50.9406 43.3342 50.7279 44.104C50.6092 44.5344 50.4024 45.8183 50.0173 48.2386C49.622 50.7231 49.1307 53.8152 48.7457 55.6854C48.6113 56.3394 48.1978 56.875 47.642 57.1178C47.1858 57.3156 47.0347 57.2121 46.9764 57.1734C46.4789 56.8479 46.0743 55.5388 46.0743 54.2556V47.6332C46.0743 44.718 43.703 42.346 40.7878 42.346C39.3729 42.346 38.0417 42.8979 37.0429 43.9006C36.0438 44.9026 35.496 46.2338 35.5 47.6488L35.5205 54.3525C35.5205 55.4826 35.0127 56.5359 34.1287 57.2419C33.7734 57.5244 33.3959 57.4569 33.2047 57.3917C32.8441 57.269 32.5768 56.9775 32.4875 56.613C32.1554 55.2536 31.6125 52.098 31.1345 49.3144C30.5195 45.7303 30.1304 43.4973 29.8926 42.7821C29.4751 41.521 28.4866 39.5476 27.5563 38.4285C26.8788 37.6143 26.371 36.687 26.0402 35.6986C26.198 35.5851 26.3372 35.4448 26.4335 35.2682L28.4082 31.6576L32.0187 29.6829C32.4438 29.451 32.7075 29.0057 32.7075 28.5217C32.7075 28.0378 32.4438 27.5925 32.0187 27.3606L29.4082 25.9334C30.4682 25.2212 31.6568 24.7497 32.9053 24.581ZM23.7456 27.522C23.9679 27.4006 24.1502 27.2177 24.2716 26.996L25.2717 25.1682L26.2717 26.996C26.3932 27.2177 26.5754 27.4006 26.7977 27.522L28.6249 28.5211L26.7977 29.5205C26.5754 29.6419 26.3932 29.8248 26.2717 30.0465L25.2942 31.8333C25.2574 31.7879 25.2217 31.7462 25.1794 31.7059L24.2713 30.0462C24.1499 29.8245 23.9676 29.6416 23.7453 29.5202L21.9182 28.5208L23.7456 27.522Z" fill="white"/>
</svg>
