<svg width="75" height="75" viewBox="0 0 75 75" fill="none" xmlns="http://www.w3.org/2000/svg">
<path d="M3.59038 25.1268C3.59038 24.3789 2.98396 23.7725 2.23599 23.7725C1.48803 23.7725 0.881927 24.3789 0.881927 25.1268C0.881927 25.8748 1.48834 26.4809 2.23599 26.4809C2.98364 26.4809 3.59038 25.8748 3.59038 25.1268Z" fill="white"/>
<path d="M67.7844 36.2334H61.3732C61.4745 35.0414 61.4672 33.8603 61.3485 32.7067C60.4567 24.0645 53.5271 17.0272 44.8707 15.974C41.4219 15.5554 37.9658 16.0655 34.8511 17.4522C31.7363 16.0649 28.2866 15.5547 24.8301 15.974C16.1753 17.0275 9.24571 24.0639 8.35398 32.7048C8.23523 33.859 8.22794 35.0408 8.32928 36.2334H3.18439C2.48424 36.2334 1.91772 36.8005 1.91772 37.5V72.9667C1.91772 73.6662 2.48424 74.2334 3.18439 74.2334H67.7844C68.4846 74.2334 69.0511 73.6662 69.0511 72.9667V37.5C69.0511 36.8005 68.4846 36.2334 67.7844 36.2334ZM9.76156 38.7667C10.1327 38.7667 10.4851 38.6039 10.7252 38.3215C10.9665 38.0387 11.0716 37.6653 11.0121 37.299C10.7758 35.8287 10.7287 34.3711 10.8746 32.9644C11.6454 25.4889 17.6434 19.4003 25.137 18.4886C28.3049 18.1026 31.4716 18.6197 34.2994 19.9884C34.6484 20.1578 35.054 20.1578 35.4027 19.9884C38.2305 18.6204 41.3972 18.102 44.5639 18.4886C52.0575 19.4003 58.0567 25.4892 58.8275 32.9663C58.9735 34.372 58.9263 35.8293 58.69 37.2983C58.6305 37.665 58.736 38.0387 58.9757 38.3212C59.217 38.6039 59.5694 38.7664 59.9406 38.7664H66.5177V41.1784H54.7491C56.0475 38.7721 56.5991 36.031 56.309 33.226V33.2266C55.657 26.9148 50.5903 21.7741 44.2595 21.0033C40.926 20.5976 37.6095 21.383 34.8511 23.2168C32.0926 21.383 28.7787 20.598 25.4426 21.0033C19.1118 21.7741 14.0451 26.9148 13.3931 33.226C13.103 36.031 13.6547 38.7718 14.9533 41.1784H4.45106V38.7667H9.76156ZM34.9736 46.4057C34.9328 46.4012 34.8919 46.3993 34.8511 46.3993C34.8102 46.3993 34.7694 46.4012 34.7285 46.4057C31.1869 46.7502 28.5177 49.6676 28.5177 53.1912V64.4854C28.5177 65.6698 27.5456 66.6334 26.3505 66.6334C25.4758 66.6334 24.6816 66.1267 24.3738 65.3734C23.1999 62.5031 22.5603 58.0957 22.5245 52.6269C22.5134 51.0398 21.9567 48.7522 20.8683 45.8271C20.3737 44.4936 19.5855 43.1874 18.5278 41.946C16.5202 39.5904 15.5923 36.5861 15.9141 33.4863C16.4448 28.3392 20.5811 24.1472 25.7494 23.5179C28.6501 23.1668 31.5384 23.9119 33.8738 25.6231C34.0904 25.7821 34.3526 25.8679 34.6221 25.8679H35.0797C35.3495 25.8679 35.6117 25.7821 35.828 25.6231C38.1634 23.9119 41.0542 23.1664 43.9524 23.5179C49.1204 24.1468 53.257 28.3392 53.7877 33.4863V33.4869C54.1095 36.5861 53.1816 39.59 51.1752 41.9454C50.1163 43.1874 49.3284 44.4936 48.8335 45.8258C47.7448 48.7519 47.1884 51.0398 47.1773 52.6275C47.1415 58.0957 46.5019 62.5031 45.328 65.3727C45.0199 66.1267 44.226 66.6331 43.3513 66.6331C42.1566 66.6331 41.1841 65.6694 41.1841 64.4851V53.1909C41.1844 49.6676 38.5152 46.7502 34.9736 46.4057ZM66.5177 71.7001H4.45106V43.7121H16.6962C17.5101 44.689 18.1181 45.6963 18.4933 46.7093C19.4506 49.2829 19.9826 51.3906 19.9912 52.6437C20.0295 58.515 20.7147 63.1203 22.0286 66.3329C22.7338 68.0543 24.4296 69.1667 26.3505 69.1667C28.9421 69.1667 31.0511 67.0669 31.0511 64.4854V53.1912C31.0511 51.0185 32.6765 49.2126 34.8511 48.9403C37.0256 49.2123 38.6511 51.0182 38.6511 53.1912V64.4854C38.6511 67.0669 40.7601 69.1667 43.3517 69.1667C45.2726 69.1667 46.9686 68.0539 47.6735 66.3322C48.9871 63.1203 49.6723 58.515 49.711 52.6443C49.7195 51.3906 50.2515 49.2829 51.2088 46.7081C51.584 45.6963 52.192 44.6893 53.0065 43.7121H66.5177V71.7001Z" fill="white"/>
<path d="M9.51774 5.83327C10.2179 5.83327 10.7844 5.26612 10.7844 4.5666V2.03327C10.7844 1.33375 10.2179 0.766602 9.51774 0.766602C8.81759 0.766602 8.25107 1.33375 8.25107 2.03327V4.5666C8.25107 5.26612 8.8179 5.83327 9.51774 5.83327Z" fill="white"/>
<path d="M9.51774 8.3667C8.81759 8.3667 8.25107 8.93385 8.25107 9.63337V12.1667C8.25107 12.8662 8.81759 13.4334 9.51774 13.4334C10.2179 13.4334 10.7844 12.8662 10.7844 12.1667V9.63337C10.7844 8.93385 10.2179 8.3667 9.51774 8.3667Z" fill="white"/>
<path d="M4.45108 8.36658H6.98442C7.68457 8.36658 8.25109 7.79943 8.25109 7.09992C8.25109 6.4004 7.68457 5.83325 6.98442 5.83325H4.45108C3.75093 5.83325 3.18442 6.4004 3.18442 7.09992C3.18442 7.79943 3.75125 8.36658 4.45108 8.36658Z" fill="white"/>
<path d="M12.0511 8.36658H14.5844C15.2846 8.36658 15.8511 7.79943 15.8511 7.09992C15.8511 6.4004 15.2846 5.83325 14.5844 5.83325H12.0511C11.3509 5.83325 10.7844 6.4004 10.7844 7.09992C10.7844 7.79943 11.3513 8.36658 12.0511 8.36658Z" fill="white"/>
<path d="M69.6844 9.6333C67.2401 9.6333 65.2511 11.6223 65.2511 14.0666C65.2511 16.511 67.2401 18.5 69.6844 18.5C72.1288 18.5 74.1178 16.511 74.1178 14.0666C74.1178 11.6223 72.1288 9.6333 69.6844 9.6333ZM69.6844 15.9666C68.6366 15.9666 67.7844 15.1145 67.7844 14.0666C67.7844 13.0188 68.6366 12.1666 69.6844 12.1666C70.7323 12.1666 71.5844 13.0188 71.5844 14.0666C71.5844 15.1145 70.7323 15.9666 69.6844 15.9666Z" fill="white"/>
<path d="M54.1696 4.94795C54.9176 4.94795 55.524 4.34154 55.524 3.59389C55.524 2.84624 54.9176 2.2395 54.1696 2.2395C53.4217 2.2395 52.8156 2.84592 52.8156 3.59389C52.8156 4.34185 53.4217 4.94795 54.1696 4.94795Z" fill="white"/>
<path d="M42.8358 33.8624C42.8358 33.2192 42.3146 32.698 41.6714 32.698C41.0283 32.698 40.507 33.2192 40.507 33.8624C40.507 34.5055 41.0283 35.0268 41.6714 35.0268C42.3146 35.0268 42.8358 34.5055 42.8358 33.8624Z" fill="white"/>
<path d="M27.5351 32.698C26.892 32.698 26.3707 33.2192 26.3707 33.8624C26.3707 34.5055 26.892 35.0268 27.5351 35.0268C28.1783 35.0268 28.6995 34.5055 28.6995 33.8624C28.6995 33.2192 28.1779 32.698 27.5351 32.698Z" fill="white"/>
<path d="M39.8202 39.1234C39.1486 38.9255 38.4433 39.3032 38.2432 39.9727C38.044 40.6383 37.3379 41.0186 36.6773 40.8156C36.0031 40.6133 35.3004 40.9949 35.1003 41.6656C34.8998 42.3353 35.2795 43.0418 35.9502 43.2426C36.3115 43.3509 36.6776 43.4028 37.0377 43.4028C38.6679 43.4028 40.1784 42.3407 40.6708 40.7013C40.8703 40.0306 40.4906 39.3251 39.8202 39.1234Z" fill="white"/>
</svg>
