<svg width="300" height="48" viewBox="0 0 300 48" fill="none" xmlns="http://www.w3.org/2000/svg">
<circle cx="24" cy="24" r="24" fill="#874B4B"/>
<circle cx="87" cy="24" r="24" fill="#874B4B"/>
<circle cx="150" cy="24" r="24" fill="#874B4B"/>
<circle cx="213" cy="24" r="24" fill="#874B4B"/>
<circle cx="276" cy="24" r="24" fill="#874B4B"/>
<path d="M36 26.888L33.1121 21.1119L30.2242 26.888H32.1693C30.9449 30.7106 27.3638 33.4891 23.1388 33.4891C17.9069 33.4891 13.6497 29.2321 13.6497 24C13.6497 18.768 17.9069 14.5109 23.1388 14.5109C27.1702 14.5109 30.6143 17.0423 31.9857 20.5964L32.9341 18.6994C31.0472 15.2248 27.3647 12.8607 23.1396 12.8607C16.9974 12.8606 12 17.8577 12 24C12 30.1419 16.9974 35.1394 23.1394 35.1394C28.2823 35.1394 32.6127 31.6333 33.8889 26.8882H36V26.888Z" fill="white"/>
<path d="M17.2256 26.2225H18.2688L18.5854 25.0814H19.8585L20.2019 26.2225H21.2835L19.9049 21.7765H18.5854L17.2256 26.2225ZM18.9939 23.386C19.0665 23.1285 19.1325 22.792 19.1986 22.5285H19.2116C19.2777 22.792 19.3571 23.1229 19.4364 23.386L19.7136 24.3304H18.7306L18.9939 23.386Z" fill="white"/>
<path d="M24.0365 22.5617C24.5241 22.5617 24.8275 22.6475 25.0716 22.7522L25.2831 21.9473C25.0653 21.842 24.6231 21.7294 24.0495 21.7294C22.5915 21.7294 21.5166 22.5733 21.5088 24.0515C21.5026 24.7044 21.7268 25.2844 22.1361 25.6681C22.5452 26.0639 23.1321 26.2683 23.944 26.2683C24.5301 26.2683 25.1184 26.1233 25.4277 26.0179V23.676H23.7723V24.461H24.4593V25.3907C24.3795 25.431 24.1945 25.4568 23.9638 25.4568C23.1385 25.4568 22.5653 24.9153 22.5653 23.9983C22.5653 23.0361 23.1979 22.5617 24.0365 22.5617Z" fill="white"/>
<path d="M28.9606 22.6016V21.7772H26.2163V26.2225H29.0532V25.3989H27.2257V24.3434H28.8622V23.5246H27.2257V22.6016H28.9606Z" fill="white"/>
<path d="M96.0531 20.4445L96.4601 18.8915C97.0376 17.1277 96.747 15.2543 95.6606 13.747C94.6851 12.3936 93.2266 11.5555 91.5953 11.3913L90.2468 8.69434H83.7532L82.4047 11.3914C80.7734 11.5555 79.3149 12.3936 78.3394 13.7471C77.253 15.2543 76.9624 17.1277 77.5399 18.8916L77.9467 20.4445C77.147 21.9325 76.7267 23.5981 76.7267 25.3025C76.7267 27.702 77.5709 30.0339 79.1039 31.8743L79.0544 39.3056H94.9456L94.8957 31.8348C94.9478 31.7893 94.9786 31.76 94.9883 31.7505L95.0328 31.7073L95.0713 31.6585C96.5117 29.8316 97.2731 27.6338 97.2731 25.3025C97.2731 23.598 96.8528 21.9325 96.0531 20.4445ZM87.9377 37.4301V35.9715H86.0623V37.4301H80.9425L80.9716 33.0765C82.235 33.6531 84.2081 34.2419 87.0001 34.2419C89.7241 34.2419 91.7147 33.6251 93.0282 33.0048L93.0576 37.4301H87.9377V37.4301ZM93.6459 30.4367C93.5153 30.5487 93.0254 30.942 92.1649 31.3399C91.1524 31.8082 89.4344 32.3665 87 32.3665C84.6199 32.3665 82.9736 31.8888 82.0116 31.4881C81.1302 31.1211 80.6478 30.7503 80.5213 30.6458C79.2832 29.1463 78.6022 27.2516 78.6022 25.3024C78.6022 22.1165 80.3699 19.2433 83.2156 17.804L82.3692 16.1305C81.2279 16.7077 80.2085 17.4911 79.3592 18.4358L79.3467 18.3878L79.3292 18.329C78.9312 17.1351 79.1249 15.8648 79.8608 14.8438C80.5967 13.8228 81.7406 13.2372 82.9991 13.2372H83.5786L84.9122 10.5699H89.0877L90.4214 13.2372H91.0009C92.2594 13.2372 93.4033 13.8228 94.1391 14.8437C94.875 15.8647 95.0687 17.135 94.6708 18.3289L94.6611 18.358L94.6407 18.4357C93.7914 17.4911 92.7721 16.7077 91.6308 16.1304L90.7843 17.8039C93.63 19.2433 95.3978 22.1166 95.3978 25.3025C95.3977 27.1825 94.7923 28.956 93.6459 30.4367Z" fill="white"/>
<path d="M72.3261 21.8157L71 23.1417L72.9939 25.1357L71 27.1297L72.3261 28.4558L75.6462 25.1357L72.3261 21.8157Z" fill="white"/>
<path d="M103 23.1417L101.674 21.8157L98.3538 25.1357L101.674 28.4558L103 27.1297L101.006 25.1357L103 23.1417Z" fill="white"/>
<path d="M86.0623 26.3652V27.3029V28.2407H87.9377V26.3652H86.0623Z" fill="white"/>
<path d="M145.664 16.8933V8.48331C145.664 8.21654 145.447 8 145.181 8H142.281C142.014 8 141.797 8.21654 141.797 8.48331V16.8933C140 17.9102 138.897 19.7933 138.897 21.8765V36.5167C138.897 36.784 139.114 37 139.381 37H148.081C148.347 37 148.564 36.784 148.564 36.5167V21.877C148.564 19.7933 147.461 17.9102 145.664 16.8933ZM147.597 36.0333H139.864V21.8765C139.863 20.0606 140.872 18.4279 142.497 17.6159C142.661 17.5337 142.764 17.3665 142.764 17.1834V8.96669H144.697V17.1834C144.697 17.3665 144.801 17.5343 144.965 17.6159C146.589 18.4274 147.598 20.0601 147.597 21.8765V36.0333Z" fill="white"/>
<path d="M145.179 10.4167H142.279V11.3834H145.179V10.4167Z" fill="white"/>
<path d="M160.058 23.6444L159.192 17.598C159.159 17.3602 158.955 17.1832 158.714 17.1832H152.914C152.674 17.1832 152.47 17.3601 152.435 17.598L151.57 23.6179C151.488 24.1689 151.518 24.7214 151.655 25.2501L151.739 25.6044C152.208 27.4758 153.884 28.7828 155.813 28.7833C155.816 28.7833 155.818 28.7833 155.82 28.7833C157.737 28.7833 159.41 27.488 159.89 25.6223L159.969 25.2849C160.11 24.7455 160.139 24.1926 160.058 23.6444ZM159.032 25.0519L158.952 25.3902C158.583 26.8194 157.296 27.8165 155.82 27.8165C155.818 27.8165 155.816 27.8165 155.814 27.8165C154.328 27.8165 153.038 26.8103 152.679 25.3757L152.594 25.0171C152.486 24.6048 152.464 24.1819 152.527 23.758L153.333 18.1499H158.295L159.102 23.7841C159.164 24.2056 159.142 24.6285 159.032 25.0519Z" fill="white"/>
<path d="M156.296 28.3H155.329V34.5834H156.296V28.3Z" fill="white"/>
<path d="M156.781 34.1H154.847C153.515 34.1 152.431 35.1841 152.431 36.5167C152.431 36.784 152.647 37 152.914 37H158.714C158.981 37 159.197 36.784 159.197 36.5167C159.197 35.1841 158.113 34.1 156.781 34.1ZM153.48 36.0333C153.68 35.4707 154.218 35.0666 154.847 35.0666H156.781C157.411 35.0666 157.948 35.4707 158.148 36.0333H153.48Z" fill="white"/>
<path d="M159.679 23.95H151.946V24.9166H159.679V23.95Z" fill="white"/>
<path d="M145.179 14.7666H142.279V15.7333H145.179V14.7666Z" fill="white"/>
<path d="M146.147 22.9833H141.314C141.047 22.9833 140.831 23.1993 140.831 23.4666V32.1666C140.831 32.4339 141.047 32.6499 141.314 32.6499H146.147C146.414 32.6499 146.631 32.4339 146.631 32.1666V23.4666C146.631 23.1994 146.414 22.9833 146.147 22.9833ZM145.664 31.6833H141.797V23.95H145.664V31.6833Z" fill="white"/>
<path d="M214.388 13.2694C215.992 13.5177 217.479 14.0819 218.69 14.9007C219.86 15.6927 220.721 16.6849 221.178 17.7703C221.257 17.9571 221.438 18.0692 221.629 18.0692C221.692 18.0692 221.756 18.0568 221.818 18.0307C222.067 17.9258 222.183 17.6395 222.078 17.391C221.547 16.1308 220.564 14.99 219.237 14.0918C217.908 13.1927 216.283 12.5745 214.538 12.3043C214.272 12.2631 214.022 12.4456 213.98 12.7122C213.939 12.9785 214.122 13.228 214.388 13.2694Z" fill="white"/>
<path d="M204.9 16.9323C204.977 17.1176 205.174 17.2426 205.375 17.233C205.573 17.2235 205.755 17.0833 205.815 16.8943C205.876 16.703 205.808 16.4796 205.647 16.3578C205.482 16.2319 205.238 16.2273 205.068 16.3475C204.887 16.4752 204.816 16.728 204.9 16.9323Z" fill="white"/>
<path d="M207.252 15.1139C207.33 15.3014 207.531 15.4277 207.734 15.4147C207.93 15.402 208.108 15.2623 208.168 15.0756C208.229 14.8856 208.16 14.6644 208.003 14.5419C207.836 14.4128 207.589 14.4075 207.418 14.5312C207.24 14.66 207.168 14.9108 207.252 15.1139Z" fill="white"/>
<path d="M209.78 16.9323C209.857 17.1176 210.054 17.2426 210.254 17.233C210.453 17.2235 210.635 17.0833 210.695 16.8943C210.756 16.7028 210.688 16.4794 210.527 16.3578C210.361 16.2319 210.118 16.2273 209.948 16.3475C209.767 16.4752 209.696 16.728 209.78 16.9323Z" fill="white"/>
<path d="M225 25.6219C225 24.5468 224.309 23.6305 223.348 23.2919V22.0701C223.503 22.0131 223.652 21.9379 223.792 21.8441C224.347 21.4704 224.666 20.8807 224.666 20.2255C224.666 19.8158 224.54 19.428 224.304 19.1019C224.423 18.8198 224.459 18.5066 224.401 18.198C223.983 15.9618 222.548 13.9148 220.358 12.4338C218.178 10.9588 215.387 10.1465 212.5 10.1465C209.613 10.1465 206.822 10.9588 204.642 12.4338C202.452 13.9146 201.017 15.9618 200.599 18.198C200.526 18.585 200.601 18.979 200.802 19.31C200.65 19.5888 200.571 19.8993 200.571 20.2255C200.571 20.8807 200.89 21.4708 201.446 21.8443C201.513 21.8889 201.582 21.9287 201.652 21.9652V23.2919C200.691 23.6305 200 24.5468 200 25.6219V25.7211C200 26.4333 200.303 27.0757 200.787 27.527C200.646 27.7986 200.571 28.1007 200.571 28.4118C200.571 28.9007 200.749 29.3529 201.07 29.7063V31.4684C201.07 33.3507 202.601 34.8823 204.484 34.8823H220.516C222.399 34.8823 223.93 33.3507 223.93 31.4684V29.9278C224.4 29.5534 224.666 29.01 224.666 28.4116C224.666 28.0365 224.561 27.6813 224.363 27.3742C224.759 26.9363 225 26.3565 225 25.7211V25.6219ZM224.023 25.6219V25.7211C224.023 26.2252 223.772 26.6716 223.388 26.9422C223.138 27.1185 222.836 27.2146 222.53 27.2146H214.958L218.072 24.1285H222.53C223.353 24.1285 224.023 24.7985 224.023 25.6219ZM207.401 24.1285L207.478 24.2061L207.979 24.7068L206.931 25.7555L205.304 24.1285H207.401ZM212.011 27.3576L209.015 24.3621C209.015 24.362 209.015 24.3618 209.015 24.3616L208.782 24.1285H216.683L213.42 27.3557C213.419 27.3559 213.419 27.3561 213.419 27.3565C213.419 27.3569 213.418 27.3573 213.418 27.3576L212.714 28.0611L212.011 27.3576ZM201.558 18.3773C201.928 16.3997 203.218 14.5761 205.189 13.2425C207.209 11.8757 209.806 11.123 212.5 11.123C215.194 11.123 217.791 11.8757 219.811 13.2425C221.782 14.5761 223.072 16.3997 223.442 18.3773C223.51 18.744 223.217 19.0944 222.845 19.0944H202.155C201.782 19.0944 201.49 18.744 201.558 18.3773ZM201.584 19.9648C201.765 20.0349 201.961 20.071 202.155 20.071H222.845C223.114 20.071 223.385 20.0012 223.62 19.869C223.666 19.9819 223.69 20.1034 223.69 20.2253C223.69 20.5497 223.528 20.8442 223.247 21.0332C222.959 21.2267 222.593 21.273 222.263 21.1689C222.101 21.1174 221.947 21.051 221.779 21.0151C221.598 20.9762 221.412 20.9591 221.226 20.9591C220.354 20.9591 219.886 21.2894 219.51 21.5547C219.18 21.7878 218.92 21.9719 218.357 21.9719C217.795 21.9719 217.534 21.7878 217.204 21.5549C216.829 21.2892 216.361 20.9591 215.488 20.9591C214.616 20.9591 214.148 21.2894 213.772 21.5549C213.442 21.7878 213.182 21.9719 212.619 21.9719C212.057 21.9719 211.796 21.7878 211.466 21.5547C211.09 21.2892 210.623 20.9591 209.75 20.9591C208.878 20.9591 208.41 21.2894 208.034 21.5547C207.704 21.7878 207.443 21.9719 206.881 21.9719C206.319 21.9719 206.058 21.7878 205.728 21.5547C205.352 21.2892 204.884 20.9591 204.012 20.9591C203.667 20.9591 203.356 21.0176 203.061 21.138C202.712 21.2803 202.304 21.2442 201.991 21.0334C201.709 20.8444 201.548 20.5499 201.548 20.2255C201.548 20.1357 201.56 20.0483 201.584 19.9648ZM202.725 22.1981C202.981 22.1857 203.222 22.121 203.46 22.0302C203.698 21.9394 203.957 21.9215 204.209 21.944C204.64 21.9823 204.876 22.1489 205.165 22.3526C205.541 22.6181 206.009 22.9484 206.881 22.9484C207.753 22.9484 208.221 22.6181 208.597 22.3526C208.927 22.1197 209.188 21.9356 209.75 21.9356C210.312 21.9356 210.573 22.1197 210.903 22.3526C211.279 22.6181 211.747 22.9484 212.619 22.9484C213.491 22.9484 213.959 22.6181 214.335 22.3526C214.665 22.1197 214.926 21.9356 215.488 21.9356C216.05 21.9356 216.311 22.1197 216.641 22.3526C217.017 22.6181 217.485 22.9484 218.357 22.9484C219.229 22.9484 219.697 22.6181 220.073 22.3526C220.403 22.1197 220.664 21.9356 221.226 21.9356C221.426 21.9356 221.622 21.9688 221.807 22.0419C221.989 22.1132 222.178 22.1645 222.372 22.1872V23.1521H217.871C217.871 23.1521 217.871 23.1521 217.871 23.1521H217.871H207.604C207.604 23.1521 207.603 23.1521 207.603 23.1521C207.603 23.1521 207.602 23.1521 207.602 23.1521H202.628V22.2007C202.661 22.2005 202.693 22.1996 202.725 22.1981ZM200.977 25.6219C200.977 24.7985 201.647 24.1285 202.47 24.1285H203.923L206.585 26.7913C206.677 26.8829 206.801 26.9342 206.931 26.9342C207.06 26.9342 207.184 26.8829 207.276 26.7913L208.67 25.3975L210.487 27.2146H202.47C202.212 27.2146 201.955 27.1463 201.731 27.0183C201.281 26.761 200.977 26.2762 200.977 25.7211V25.6219ZM201.628 28.0433C201.897 28.1408 202.184 28.1911 202.47 28.1911H211.463L212.369 29.0968C212.556 29.2842 212.87 29.2846 213.058 29.0983L213.973 28.1911H222.53C222.805 28.1911 223.08 28.1444 223.34 28.0544C223.395 28.0355 223.451 28.0164 223.502 27.9901C223.519 27.9815 223.543 27.9625 223.562 27.9638C223.589 27.9657 223.596 28.0002 223.606 28.022C223.659 28.1385 223.687 28.2661 223.689 28.3941C223.698 28.8547 223.366 29.2402 222.933 29.3657C222.685 29.4378 222.416 29.4218 222.177 29.3241C221.882 29.2038 221.571 29.1452 221.226 29.1452C220.354 29.1452 219.886 29.4756 219.51 29.7411C219.18 29.9741 218.919 30.1582 218.357 30.1582C217.795 30.1582 217.534 29.9741 217.204 29.7411C216.828 29.4756 216.36 29.1452 215.488 29.1452C214.616 29.1452 214.148 29.4756 213.772 29.7411C213.442 29.9741 213.181 30.1582 212.619 30.1582C212.057 30.1582 211.796 29.9741 211.466 29.7411C211.09 29.4756 210.622 29.1452 209.75 29.1452C208.878 29.1452 208.41 29.4756 208.034 29.7411C207.704 29.9741 207.443 30.1582 206.881 30.1582C206.319 30.1582 206.058 29.9739 205.728 29.7411C205.352 29.4756 204.884 29.1452 204.012 29.1452C203.667 29.1452 203.356 29.2038 203.061 29.3243C202.742 29.4544 202.37 29.4372 202.07 29.2678C201.804 29.1181 201.605 28.8614 201.559 28.5564C201.545 28.4662 201.544 28.3739 201.556 28.2833C201.56 28.257 201.604 28.0346 201.628 28.0433ZM222.953 31.4684C222.953 32.8123 221.86 33.9058 220.516 33.9058H204.484C203.14 33.9058 202.047 32.8123 202.047 31.4684V30.3102C202.448 30.4239 202.88 30.4159 203.293 30.2787C203.301 30.2759 203.309 30.273 203.318 30.2703C203.355 30.2572 203.393 30.2436 203.43 30.2284C203.605 30.1567 203.796 30.122 204.012 30.122C204.574 30.122 204.835 30.3058 205.165 30.5389C205.541 30.8044 206.009 31.1348 206.881 31.1348C207.753 31.1348 208.221 30.8044 208.597 30.5389C208.927 30.3058 209.188 30.122 209.75 30.122C210.312 30.122 210.573 30.3058 210.903 30.5389C211.279 30.8044 211.747 31.1348 212.619 31.1348C213.491 31.1348 213.959 30.8044 214.335 30.5389C214.665 30.3058 214.926 30.122 215.488 30.122C216.05 30.122 216.311 30.3058 216.641 30.5389C217.017 30.8044 217.485 31.1348 218.357 31.1348C219.229 31.1348 219.697 30.8044 220.073 30.5389C220.403 30.3058 220.664 30.122 221.226 30.122C221.372 30.122 221.518 30.1382 221.658 30.1773C221.792 30.2145 221.918 30.2732 222.052 30.311C222.342 30.3928 222.655 30.4102 222.953 30.3617V31.4684H222.953Z" fill="white"/>
<path d="M211.031 15.114C211.108 15.2994 211.305 15.4253 211.506 15.415C211.704 15.4049 211.886 15.2652 211.946 15.0764C212.008 14.8849 211.939 14.6619 211.779 14.5397C211.613 14.4132 211.369 14.4085 211.199 14.5292C211.019 14.657 210.945 14.9097 211.031 15.114Z" fill="white"/>
<path d="M213.233 17.2662C213.311 17.4518 213.507 17.5766 213.708 17.567C213.906 17.5575 214.088 17.4171 214.149 17.2285C214.21 17.0372 214.141 16.8136 213.981 16.6917C213.815 16.5657 213.572 16.5615 213.401 16.6814C213.221 16.8092 213.15 17.062 213.233 17.2662Z" fill="white"/>
<path d="M211.987 12.882C212.16 12.9978 212.405 12.9864 212.566 12.854C212.724 12.7247 212.787 12.4956 212.715 12.3045C212.644 12.1189 212.456 11.9867 212.256 11.9877C212.059 11.9888 211.872 12.1183 211.802 12.303C211.724 12.5097 211.803 12.7588 211.987 12.882Z" fill="white"/>
<g clip-path="url(#clip0)">
<path d="M271.647 17.6599C271.399 17.6599 271.197 17.8612 271.197 18.1091C271.197 18.3571 271.399 18.5583 271.647 18.5583C271.894 18.5583 272.096 18.3571 272.096 18.1091C272.096 17.8612 271.894 17.6599 271.647 17.6599Z" fill="white"/>
<path d="M275.689 26.0598H274.342V24.7123C274.342 24.4642 274.141 24.2631 273.892 24.2631C273.644 24.2631 273.443 24.4642 273.443 24.7123V26.0598H272.096C271.848 26.0598 271.647 26.261 271.647 26.509C271.647 26.757 271.848 26.9582 272.096 26.9582H273.443V28.3058C273.443 28.5539 273.644 28.755 273.892 28.755C274.14 28.755 274.342 28.5539 274.342 28.3058V26.9582H275.689C275.937 26.9582 276.138 26.7571 276.138 26.509C276.138 26.261 275.937 26.0598 275.689 26.0598Z" fill="white"/>
<path d="M287.813 26.4641C286.82 24.7442 284.624 24.1556 282.904 25.1489L281.08 26.2023V22.3014C281.08 21.8192 280.92 21.3407 280.63 20.9539L278.385 17.9593V16.6842C278.907 16.4987 279.283 15.9995 279.283 15.4138V13.3476C279.283 12.6045 278.678 12 277.935 12H269.85C269.107 12 268.502 12.6045 268.502 13.3476V15.4139C268.502 15.9994 268.878 16.4988 269.4 16.6842V17.9594L267.154 20.9541C266.865 21.3407 266.705 21.8192 266.705 22.3014V31.001C266.705 32.2395 267.713 33.247 268.951 33.247H276.17C277.178 34.9353 279.349 35.5003 281.052 34.5173L286.498 31.3729C288.203 30.3883 288.811 28.1934 287.813 26.4641ZM269.4 13.3476C269.4 13.0999 269.602 12.8983 269.85 12.8983H277.935C278.183 12.8983 278.384 13.0999 278.384 13.3476V15.4139C278.384 15.6616 278.183 15.8631 277.935 15.8631H269.85C269.602 15.8631 269.401 15.6615 269.401 15.4139V13.3476H269.4ZM267.873 21.4928L270.209 18.3786C270.267 18.3009 270.299 18.2063 270.299 18.1091V16.7615H277.486V17.6599H273.443C273.195 17.6599 272.994 17.861 272.994 18.1091C272.994 18.3572 273.195 18.5583 273.443 18.5583H277.711L279.911 21.4927C280.055 21.6848 280.145 21.9145 280.172 22.1519H267.613C267.64 21.9145 267.73 21.6847 267.873 21.4928ZM268.951 32.3486C268.208 32.3486 267.604 31.7441 267.604 31.001V30.5473H275.765C275.622 31.1298 275.623 31.7518 275.787 32.3486H268.951V32.3486ZM276.117 29.6534H267.604V23.0502H280.181V26.7209L277.458 28.2933C276.89 28.6212 276.431 29.0881 276.117 29.6534ZM280.603 33.7393C279.313 34.4837 277.666 34.0434 276.921 32.7534C276.173 31.4509 276.626 29.8111 277.907 29.0712L280.346 27.6634L283.041 32.3315L280.603 33.7393ZM286.049 30.5949L283.819 31.8823L281.124 27.2142L283.353 25.9269C284.643 25.1822 286.29 25.6232 287.035 26.9133C287.783 28.2098 287.328 29.856 286.049 30.5949Z" fill="white"/>
</g>
<defs>
<clipPath id="clip0">
<rect width="23" height="23" fill="white" transform="translate(266 12)"/>
</clipPath>
</defs>
</svg>
