<svg width="18" height="18" viewBox="0 0 18 18" fill="none" xmlns="http://www.w3.org/2000/svg">
<g clip-path="url(#clip0)">
<path d="M15.3743 14.9999C15.3323 14.9999 15.291 14.9932 15.2505 14.9789L0.250518 9.72891C0.109518 9.68016 0.0112682 9.55116 1.82458e-05 9.40191C-0.0104818 9.25266 0.0682682 9.11091 0.201018 9.04266L17.451 0.0426652C17.577 -0.0233348 17.7278 -0.0120848 17.8433 0.0704152C17.958 0.152915 18.0165 0.293915 17.9948 0.433415L15.7448 14.6834C15.7275 14.7929 15.6623 14.8897 15.567 14.9467C15.5078 14.9819 15.441 14.9999 15.3743 14.9999ZM1.31552 9.30666L15.0743 14.1224L17.1383 1.05142L1.31552 9.30666Z" fill="white"/>
<path d="M7.125 17.25C7.0875 17.25 7.04925 17.244 7.0125 17.2327C6.8565 17.1832 6.75 17.0385 6.75 16.875V11.625C6.75 11.5297 6.786 11.4382 6.85125 11.3692L17.3513 0.119249C17.493 -0.0315006 17.7308 -0.0397506 17.8808 0.101249C18.0323 0.242249 18.0405 0.479999 17.8988 0.630749L7.5 11.7727V15.687L9.711 12.5347C9.8295 12.3645 10.0658 12.324 10.233 12.4432C10.4025 12.5617 10.4438 12.7957 10.3245 12.9652L7.43175 17.0902C7.3605 17.1922 7.245 17.25 7.125 17.25Z" fill="white"/>
</g>
<defs>
<clipPath id="clip0">
<rect width="18" height="18" fill="white"/>
</clipPath>
</defs>
</svg>
